<svg width="24" height="24" viewBox="0 0 24 24" fill="none" xmlns="http://www.w3.org/2000/svg">
<g clip-path="url(#clip0)">
<path d="M24.0005 1.58578V0.703125C24.0005 0.314812 23.6857 0 23.2973 0H22.4146C20.243 0 18.4881 1.1572 17.5056 2.66897C17.2484 2.10492 16.8896 1.58564 16.4382 1.13438C15.9481 0.644016 15.5101 0.205969 15.5101 0.205969C15.2356 -0.068625 14.7904 -0.068625 14.5158 0.205969L13.5877 1.13409C12.5964 2.12494 12.0505 3.44292 12.0505 4.84533C12.0505 5.20645 12.087 5.56191 12.1576 5.9077C12.0813 5.8207 12.0021 5.73567 11.9194 5.65308L10.9914 4.72472C10.7168 4.45008 10.2714 4.45036 9.99703 4.72472L9.0689 5.65284C8.07764 6.64369 7.53173 7.96172 7.53173 9.36408C7.53173 9.7252 7.5682 10.0807 7.63889 10.4265C7.56253 10.3395 7.48331 10.2545 7.40067 10.1719L6.47268 9.24347C6.34082 9.11161 6.162 9.0375 5.97553 9.0375C5.78906 9.0375 5.61023 9.11161 5.47837 9.24347L4.5502 10.1716C2.52154 12.1994 2.47856 15.5233 4.55011 17.594L4.98117 18.025L0.206434 22.7997C-0.0681602 23.0743 -0.0681602 23.5195 0.206434 23.7941C0.48098 24.0687 0.926199 24.0687 1.20079 23.7941L5.97539 19.0195L6.40631 19.4505C7.39786 20.4417 8.71584 20.9875 10.1173 20.9875C10.6981 20.9875 12.3804 20.8982 13.8288 19.4505L14.7571 18.5222C14.889 18.3903 14.9631 18.2115 14.9631 18.025C14.9631 17.8385 14.889 17.6597 14.7571 17.5278L13.8287 16.5995C13.7462 16.517 13.6612 16.4379 13.5743 16.3617C13.92 16.4323 14.2752 16.4688 14.6361 16.4688H14.6364C16.038 16.4688 17.3559 15.9229 18.3476 14.9317L19.2758 14.0034C19.5504 13.7288 19.5502 13.2834 19.2758 13.009L18.3475 12.0807C18.265 11.9982 18.18 11.9191 18.0931 11.8429C18.4387 11.9135 18.794 11.95 19.1548 11.95H19.1552C20.5567 11.95 21.8747 11.4041 22.8663 10.4129L23.7945 9.48469C24.0691 9.21014 24.0691 8.76492 23.7945 8.49033L22.8662 7.56197C22.4145 7.11052 21.8951 6.75183 21.3309 6.49467C22.8415 5.51287 24.0005 3.76073 24.0005 1.58578ZM14.5819 2.12855L15.0129 1.69758C15.1437 1.82845 15.2912 1.97602 15.4437 2.12869C16.9442 3.62855 16.947 6.05934 15.4434 7.5623L15.0128 7.99303L14.5818 7.56197C13.0945 6.07533 13.0673 3.64256 14.5819 2.12855ZM13.3496 8.30217C13.4259 8.38903 13.5051 8.47402 13.5876 8.55647L15.4437 10.413C15.5263 10.4955 15.6112 10.5746 15.6982 10.6509C14.6294 10.4324 13.75 10.5953 13.2805 10.7199C13.4055 10.2492 13.5679 9.36994 13.3496 8.30217ZM10.0632 6.6473L10.4941 6.21633L10.925 6.64739C12.4255 8.14725 12.4283 10.578 10.9247 12.081L10.4941 12.5117L10.0631 12.0807C8.57606 10.5943 8.54822 8.16164 10.0632 6.6473ZM8.83082 12.8208C8.90714 12.9077 8.98626 12.9927 9.06881 13.0752L10.925 14.9318C11.0075 15.0143 11.0925 15.0934 11.1794 15.1696C10.1106 14.9512 9.23123 15.114 8.76168 15.2387C8.88675 14.7679 9.04912 13.8887 8.83082 12.8208ZM6.40593 16.5998L5.97534 17.0305L5.54428 16.5995C4.0574 15.1132 4.02928 12.6805 5.54437 11.166L5.97534 10.7351L6.40622 11.1661C7.90673 12.666 7.90954 15.0968 6.40593 16.5998ZM12.8345 18.456C12.1086 19.1816 11.1437 19.5812 10.1177 19.5812C9.68836 19.5812 8.45901 19.514 7.40071 18.4562L6.96965 18.025L7.40043 17.5941C8.90142 16.0937 11.3312 16.0913 12.8345 17.594L13.2655 18.025L12.8345 18.456ZM17.3533 13.9372C15.8631 15.4268 13.4323 15.4497 11.9194 13.9375L11.4884 13.5062L11.9191 13.0753C13.4202 11.5749 15.8498 11.5725 17.3532 13.0752L17.7842 13.5063L17.3533 13.9372ZM21.8719 8.55647L22.3029 8.98748L21.872 9.41841C20.3817 10.9081 17.9508 10.9307 16.4382 9.41869C16.2856 9.26597 16.138 9.11831 16.0072 8.98739L16.4379 8.55652C17.939 7.05609 20.3687 7.05389 21.8719 8.55647ZM18.1546 6.02498H17.9755V5.84545C17.9755 3.38916 19.9638 1.40625 22.4147 1.40625H22.5942V1.58578C22.5942 4.05619 20.5877 6.02498 18.1546 6.02498Z" fill="#E99A8B"/>
</g>
<defs>
<clipPath id="clip0">
<rect width="24" height="24" fill="white"/>
</clipPath>
</defs>
</svg>
