<svg width="103" height="207" viewBox="0 0 103 207" xmlns="http://www.w3.org/2000/svg" fill="none"><g clip-path="url(#a)"><path opacity=".3" d="M22.5 141.352h58.001l1.189 4.679s-20.849 1.607-28.336 20.533h-3.708s-10.984-18.577-28.406-20.183l1.259-5.029z" fill="#B0BBA7"/><path d="M51.535 44.766c8.578 0 15.532-9.943 15.532-22.208 0-12.265-6.954-22.208-15.532-22.208s-15.532 9.943-15.532 22.208c0 12.265 6.954 22.208 15.532 22.208z" stroke="#282828" stroke-miterlimit="10" stroke-linecap="round" stroke-linejoin="round"/><path opacity=".3" d="M72.804 79.336c-.56-1.327-2.099-1.956-3.358-1.397-4.688 2.025-15.532 7.473-16.792 15.434h-2.099c-1.259-7.962-12.104-13.409-16.791-15.434-1.329-.559-2.799.07-3.358 1.397-3.428 7.822 0 20.393 7.276 20.742 7.976.349 11.194-2.654 11.194-2.654h5.598s3.218 3.003 11.194 2.654c7.066-.349 10.495-12.92 7.136-20.742z" fill="#B0BBA7"/><path d="M58.811 42.182s-1.12 8.869 1.959 11.384c3.078 2.444 16.302 4.33 19.73 8.59 3.428 4.26 5.877 35.059 6.787 44.277.909 9.219 5.877 13.2 5.877 30.45s5.527 29.541 7.066 32.893c1.54 3.353-.629 23.047-3.708 22.768-3.078-.28 1.259-17.53-2.799-19.066-3.988-1.537-.63 9.218-2.449 9.847-1.819.629-4.338-9.847-3.988-13.549.28-3.701 2.449-17.25-2.169-27.376-4.618-10.127-7.066-22.767-7.696-28.634-.63-5.866-4.338-20.881-4.338-20.881s-5.527 18.786-3.358 24.443 10.775 18.577 12.314 30.589c1.539 12.012.28 32.265-3.708 44.627-3.988 12.291-3.988 14.177-3.988 14.177M51.535 166.494h1.819s-.91 35.268 0 40.157M44.259 42.182s1.119 8.869-1.959 11.384c-3.078 2.444-16.302 4.33-19.73 8.59-3.428 4.26-5.877 35.059-6.787 44.277-.91 9.219-5.877 13.2-5.877 30.45s-5.527 29.541-7.066 32.893c-1.539 3.353.63 23.047 3.708 22.768 3.078-.28-1.259-17.53 2.799-19.066 3.988-1.537.63 9.218 2.449 9.847 1.819.629 4.338-9.847 3.988-13.549-.28-3.701-2.449-17.25 2.169-27.376 4.618-10.127 7.066-22.767 7.696-28.634.63-5.866 4.338-20.881 4.338-20.881s5.527 18.786 3.358 24.443-10.775 18.577-12.314 30.589c-1.539 12.012-.28 32.265 3.708 44.627 3.988 12.291 3.988 14.177 3.988 14.177M51.535 166.494h-1.819s.91 35.268 0 40.157" stroke="#282828" stroke-miterlimit="10" stroke-linecap="round" stroke-linejoin="round"/><path d="M82.459 152.875h-62.059M69.656 116.63h-36.312M73.364 91.278h-43.658" stroke="#85B921" stroke-width="2" stroke-miterlimit="10" stroke-linecap="round" stroke-linejoin="round"/></g><defs><clipPath id="a"><path fill="#fff" d="M0 0h103v207h-103z"/></clipPath></defs></svg>