<svg width="40" height="40" viewBox="0 0 40 40" xmlns="http://www.w3.org/2000/svg" fill="none"><circle cx="20" cy="20" r="20" fill="#85B921"/><g clip-path="url(#a)" fill="#fff"><path d="M29.512 11.126h-1.507v-1.194c0-.344-.281-.625-.625-.625s-.625.281-.625.625v1.194h-6.127v-1.194c0-.344-.281-.625-.625-.625s-.625.281-.625.625v1.194h-6.189v-1.194c0-.344-.281-.625-.625-.625s-.625.281-.625.625v1.194h-1.444c-1.375 0-2.494 1.157-2.494 2.532v14.535c0 1.382 1.113 2.501 2.494 2.501h19.011c1.382 0 2.494-1.119 2.494-2.494v-14.541c.006-1.375-1.113-2.532-2.488-2.532zm1.244 17.067c0 .688-.55 1.244-1.238 1.25h-19.023c-.688 0-1.244-.556-1.244-1.244v-14.541c0-.694.556-1.282 1.244-1.282h1.444v.906c0 .344.281.625.625.625s.625-.281.625-.625v-.906h6.189v.906c0 .344.281.625.625.625s.625-.281.625-.625v-.906h6.127v.906c0 .344.281.625.625.625s.625-.281.625-.625v-.906h1.507c.694 0 1.244.594 1.244 1.282v14.535zM18.359 16.44h-1.094c-.344 0-.625.281-.625.625s.281.625.625.625h1.094c.344 0 .625-.281.625-.625s-.281-.625-.625-.625zM22.71 16.44h-1.094c-.344 0-.625.281-.625.625s.281.625.625.625h1.094c.344 0 .625-.281.625-.625s-.275-.625-.625-.625zM27.099 16.44h-1.094c-.344 0-.625.281-.625.625s.281.625.625.625h1.094c.344 0 .625-.281.625-.625s-.281-.625-.625-.625zM18.359 20.753h-1.094c-.344 0-.625.281-.625.625s.281.625.625.625h1.094c.344 0 .625-.281.625-.625s-.281-.625-.625-.625zM13.976 20.753h-1.1c-.344 0-.625.281-.625.625s.281.625.625.625h1.094c.344 0 .625-.281.625-.625s-.275-.625-.619-.625zM22.71 20.753h-1.094c-.344 0-.625.281-.625.625s.281.625.625.625h1.094c.344 0 .625-.281.625-.625s-.275-.625-.625-.625zM27.099 20.753h-1.094c-.344 0-.625.281-.625.625s.281.625.625.625h1.094c.344 0 .625-.281.625-.625s-.281-.625-.625-.625zM18.359 25.004h-1.094c-.344 0-.625.281-.625.625s.281.625.625.625h1.094c.344 0 .625-.281.625-.625s-.281-.625-.625-.625zM13.976 25.004h-1.1c-.344 0-.625.281-.625.625s.281.625.625.625h1.094c.344 0 .625-.281.625-.625s-.275-.625-.619-.625zM22.71 25.004h-1.094c-.344 0-.625.281-.625.625s.281.625.625.625h1.094c.344 0 .625-.281.625-.625s-.275-.625-.625-.625z"/></g><defs><clipPath id="a"><path fill="#fff" d="M8 8h24v24h-24z"/></clipPath></defs></svg>