<svg width="96" height="90" viewBox="0 0 96 90" xmlns="http://www.w3.org/2000/svg" fill="none"><mask id="a" style="mask-type:alpha" maskUnits="userSpaceOnUse" x="0" y="0" width="96" height="90"><rect x=".156" width="95" height="90" rx="20" fill="#C4C4C4"/></mask><g mask="url(#a)"><path d="M95.152 0h-95v90h95v-90z" fill="url(#b)"/><path d="M57.004 20.849s1.924.105 3.166-.686 1.574-1.6 2.256-1.986c.682-.404 1.417-.51 1.417-.51s2.886-.738 4.46-1.143c1.574-.404 3.446-.844 3.393-2.496-.052-1.652-2.256-1.652-2.256-1.652l-8.256 3.287-4.18 5.185z" fill="url(#c)"/><path d="M41.643 54.546s2.291.176 4.408.51c2.116.334 5.177-.932 10.6.088 5.422 1.02 4.163 1.793 9.41.088 5.265-1.705 17.806-2.127 21.951 1.617 0 0-1.102 5.889-1.364 7.752-.262 1.881-1.522 6.223-3.726 9.633-2.204 3.41-4.67 9.369-4.495 11.074 0 0-1.942-3.674-2.624-5.027-.682-1.371-1.434-3.586-4.67-3.832-3.236-.246-19.503.264-28.738-3.147-9.235-3.41-15.777-5.625-18.576-7.066-2.799-1.441-4.075-3.234-3.393-6.223.682-2.988 5.422-13.816 10.267-21.146 4.828-7.33 13.048-16.629 15.007-19.688 1.941-3.076 2.711-2.637 4.32-3.832 1.207-.897 5.842-6.223 7.119-7.928 1.277-1.705 2.536-3.832 3.813-3.92 1.277-.088 3.061 1.793 3.988 2.391.927.598 4.163 2.391 4.495 2.813.332.422.087.932.087.932s.84 1.02.332 1.371c0 0 1.364.686.595 1.969l-1.522 1.441s.175.51-.927 1.617-2.834 3.146-4.268 2.127c-1.434-1.02-2.116-1.6-2.116-1.6s-1.504 1.529-2.904 2.988c-1.469 1.512-2.571 1.16-4.093 2.355-1.522 1.195-5.929 5.625-7.801 12.27-1.871 6.645-3.638 16.365-5.177 20.373z" fill="url(#d)"/><path opacity=".31" d="M68.547 69.54s1.662.773 4.583 1.283c2.921.51 4.828 1.02 4.828 1.02s.35 1.283.682 2.32c.332 1.019.735 3.234.63 4.201-.105.967-.227-1.301-3.848-4.148-3.621-2.848-6.874-4.676-6.874-4.676z" fill="url(#e)"/><path opacity=".1" d="M66.064 55.232c-5.265 1.705-3.988.932-9.41-.088-5.422-1.02-8.483.264-10.6-.088-2.116-.334-4.408-.51-4.408-.51 1.522-4.008 3.306-13.728 5.177-20.373 1.872-6.644 6.279-11.074 7.801-12.269 1.172-.914 2.239-.932 3.358-1.529l-.14-.246s-3.393.967-4.53-.457c0 0 .227.967-2.151 3.639-2.379 2.672-7.014 11.145-9.043 17.965-2.029 6.82-5.597 16.189-9.095 19.037 0 0-.332 1.652 3.218.053 3.551-1.6 6.209-3.973 11.299-4.148 5.09-.176 9.323-.967 12.943 1.301 3.621 2.268 14.238 4.201 16.004 9.141 1.749 4.939 1.469 3.973 2.151 7.506.682 3.516 1.189 5.291 1.189 5.291l.42-.07c.805-1.828 1.767-3.691 2.694-5.133 2.204-3.41 3.481-7.752 3.726-9.633.262-1.881 1.364-7.752 1.364-7.752-4.163-3.762-16.704-3.34-21.969-1.635z" fill="url(#f)"/><path d="M71.856 63.142c.175.018.332.053.507.106.175.035.332.105.49.158l.472.193c.157.088.315.141.455.246.14.088.315.176.437.281.14.105.28.193.42.316l.402.351.367.387.332.404c.105.141.227.281.315.439l.28.457.227.475.122.246.087.246.175.51.07.264.07.264.122.51v.035c.017.176.052.387.105.58.035.211.087.404.14.615.105.404.227.809.367 1.213l.21.598c.07.193.14.404.227.598.088.211.157.404.227.615l.21.633c.122.422.227.844.332 1.266.053.211.088.422.122.65l.105.65c.035.211.053.439.07.65.017.211.017.439.017.65 0 .44-.017.879-.122 1.301-.017-.211-.017-.439-.052-.65-.018-.211-.052-.422-.087-.633-.035-.211-.07-.422-.123-.633l-.157-.615c-.053-.211-.105-.404-.175-.615l-.192-.615c-.122-.404-.262-.809-.42-1.195l-.227-.58-.262-.598-.262-.598c-.087-.211-.157-.404-.227-.615-.157-.404-.28-.826-.402-1.266l-.157-.65c-.053-.229-.087-.422-.105-.686v.035l-.105-.475c-.035-.158-.052-.316-.105-.475l-.14-.457-.07-.228-.088-.229-.192-.439-.227-.422c-.07-.141-.157-.281-.245-.422-.087-.141-.175-.281-.28-.404l-.297-.387-.332-.352-.35-.334c-.122-.123-.245-.211-.385-.316l-.402-.299-.42-.264-.437-.246c-.122-.105-.28-.176-.437-.246z" fill="#EA825E"/><path d="M37.832 58.132l.315-.51c.21-.316.525-.791.997-1.354.227-.281.507-.58.822-.879.332-.299.7-.598 1.189-.809.245-.105.525-.176.822-.176.262 0 .56 0 .84.035.577.035 1.154.141 1.767.229.612.105 1.242.211 1.872.246.157 0 .315.018.472 0l.245-.018.245-.017 1.05-.123c1.417-.141 2.921-.211 4.478-.105.787.053 1.574.141 2.361.281.805.141 1.574.334 2.361.527.787.193 1.574.404 2.344.527.385.053.77.088 1.154.07.385-.018.77-.07 1.172-.123l.595-.105.595-.141 1.189-.281c.805-.193 1.592-.369 2.396-.527 1.592-.334 3.183-.563 4.722-.738 1.539-.176 3.044-.246 4.46-.246 1.417 0 2.764.088 4.005.264 1.224.158 2.344.422 3.306.703.962.281 1.784.598 2.449.914.665.299 1.154.58 1.487.773l.367.228.123.088-.14-.07c-.087-.053-.21-.123-.385-.193-.35-.176-.857-.404-1.522-.668s-1.504-.51-2.466-.756c-.962-.229-2.081-.404-3.288-.527-1.207-.105-2.536-.158-3.936-.123-1.399.035-2.869.158-4.39.352-1.522.193-3.078.475-4.635.791-.787.158-1.574.334-2.361.527l-1.189.281c-.402.105-.822.193-1.224.264-.42.07-.84.123-1.277.141-.437.018-.875-.018-1.294-.088-.84-.141-1.627-.369-2.414-.563-.787-.193-1.557-.387-2.309-.545-.77-.158-1.522-.246-2.274-.316-1.504-.123-2.991-.105-4.373-.018-.35.018-.7.053-1.032.088l-.262.017h-.262l-.525-.017c-.682-.07-1.312-.193-1.924-.316-.595-.123-1.172-.229-1.714-.316-.28-.035-.525-.053-.805-.07-.245-.017-.472.035-.7.105-.437.158-.822.44-1.154.703-.332.264-.612.545-.857.809-.49.527-.84.967-1.085 1.266-.28.334-.402.51-.402.51z" fill="#F49C7D"/><path d="M35.121 32.855s.245-.334.682-.896c.437-.58 1.067-1.389 1.819-2.373.752-.984 1.627-2.127 2.554-3.357.472-.615.944-1.266 1.399-1.916.472-.668.962-1.336 1.452-1.986.507-.65 1.014-1.301 1.522-1.934.507-.633 1.014-1.248 1.487-1.846.472-.598.857-1.248 1.417-1.758.28-.246.577-.439.874-.598.315-.158.612-.264.892-.387.542-.264 1.032-.545 1.452-.826.42-.264.77-.527 1.067-.738l.665-.51.21-.193-.21.211c-.14.141-.35.334-.63.563-.28.229-.63.51-1.032.809-.402.299-.874.615-1.434.914-.28.141-.577.264-.857.422-.28.158-.56.352-.805.58-.49.475-.857 1.125-1.329 1.758-.472.615-.962 1.248-1.469 1.881-.507.633-1.014 1.283-1.504 1.934-.507.65-.997 1.301-1.469 1.969-.472.668-.962 1.301-1.452 1.898-.472.615-.945 1.195-1.399 1.74l-1.277 1.547c-.787.949-1.469 1.723-1.942 2.268-.402.527-.682.826-.682.826z" fill="#F29E7E"/><path d="M57.281 75.921s1.609.035 4.006.07l1.941.018c.682 0 1.417 0 2.151-.018.752-.018 1.522-.053 2.309-.035.787 0 1.592.017 2.414.07.805.07 1.627.176 2.414.422.402.106.77.281 1.137.492.35.211.665.545.909.826.507.615.875 1.248 1.189 1.881.315.633.56 1.23.805 1.775.245.545.507 1.037.717 1.459l.577 1.125c.315.633.507.984.507.984s-.227-.334-.612-.932c-.192-.299-.42-.65-.682-1.072-.262-.422-.542-.879-.839-1.424-.28-.545-.56-1.125-.892-1.723-.332-.598-.717-1.195-1.189-1.74-.262-.299-.49-.51-.787-.703l-.245-.123-.245-.106-.262-.105-.262-.088c-.717-.211-1.504-.316-2.291-.369-.787-.07-1.574-.088-2.361-.105h-2.309c-.752 0-1.487-.035-2.169-.07-.682-.035-1.347-.07-1.942-.123-1.207-.088-2.204-.193-2.886-.281-.35-.035-.63-.07-.805-.105h-.297z" fill="#EA825E"/><path d="M24.663 49.712l-.157.404-.455 1.125c-.402.967-.962 2.373-1.679 4.025-.175.422-.367.844-.542 1.301-.192.439-.367.914-.525 1.389-.157.475-.315.984-.437 1.512-.122.527-.227 1.055-.262 1.6-.035.545-.017 1.09.122 1.617l.053.193.017.053v.018l.018.017.052.105c.052.141.122.281.192.369l.105.176.123.176.122.176.14.158c.735.844 1.749 1.459 2.816 1.969 1.067.51 2.186.949 3.271 1.389 1.102.439 2.169.861 3.218 1.266 2.081.826 4.04 1.582 5.72 2.233 1.679.65 3.061 1.213 4.041 1.6.49.193.874.351 1.119.457l.402.158-.402-.141c-.262-.088-.665-.211-1.154-.387-.997-.334-2.414-.809-4.11-1.389-.857-.299-1.767-.615-2.746-.967-.962-.352-1.994-.721-3.043-1.107-1.049-.387-2.134-.791-3.236-1.231-1.102-.439-2.221-.879-3.306-1.389-.542-.264-1.084-.563-1.592-.914-.507-.352-.997-.738-1.399-1.23l-.157-.176-.14-.193-.14-.193-.122-.211c-.087-.141-.14-.281-.192-.404l-.035-.105-.017-.018v-.018l-.018-.035-.017-.053-.07-.228c-.157-.615-.157-1.213-.105-1.793.053-.58.158-1.143.297-1.67.14-.527.297-1.055.49-1.529.175-.492.367-.949.577-1.406l.595-1.266c.77-1.635 1.417-2.988 1.872-3.938.227-.475.42-.844.542-1.09.087-.264.157-.404.157-.404z" fill="#F4BFA8"/><path d="M62.198 12.781l.14.105c.087.07.21.176.35.316.14.141.315.334.437.598.07.123.122.281.157.457v.264l-.018.141-.035.141-.017.07-.035.07-.053.123-.14.264c-.105.158-.227.316-.35.475-.262.316-.56.633-.857.932-.315.299-.63.615-.962.949-.157.158-.315.316-.472.492-.157.158-.297.334-.455.527-.315.352-.63.703-.98 1.02-.35.316-.7.598-1.084.844-.752.492-1.557.773-2.291.809-.367.017-.682-.018-.962-.088-.28-.053-.507-.158-.7-.246l-.42-.229-.14-.088.157.07c.087.053.245.106.437.176.192.053.42.123.7.158.28.035.577.053.91 0 .332-.035.682-.141 1.049-.281.35-.141.717-.352 1.067-.598s.682-.527 1.014-.826c.332-.299.63-.633.927-.984.14-.176.297-.351.472-.527.157-.176.332-.334.49-.492l.98-.914c.315-.299.612-.58.875-.879.14-.141.245-.281.367-.439l.14-.211.07-.123.035-.053.018-.053.035-.105.017-.105.018-.106v-.105c-.018-.141-.053-.281-.105-.404-.105-.246-.245-.457-.367-.615-.122-.158-.227-.281-.315-.352l-.105-.176z" fill="#E89074"/><path d="M65.143 11.971s.052.246.07.65v.316l-.017.352-.07.369-.105.387-.087.193-.105.176-.14.158-.175.123c-.122.053-.245.088-.35.105-.123.018-.227.035-.332.018-.105 0-.192-.018-.28-.053l-.192-.105-.105-.088-.035-.035.157.07.192.053h.245l.28-.053c.105-.035.21-.07.297-.123l.122-.088.105-.123.088-.141.07-.158c.035-.105.087-.228.105-.352l.088-.351.052-.334.035-.299.087-.668zM64.375 14.485l.367.158.385.123.21.053.227.035.227.035.227.018h.402l.157-.018.122-.018h.105l-.105.053-.122.053-.157.053-.192.053-.227.035h-.245l-.245-.018-.245-.053-.227-.088c-.14-.07-.262-.14-.367-.211-.192-.123-.297-.264-.297-.264z" fill="#EA967D"/><path d="M61.691 16.613s.245.211.7.545c.227.158.507.369.84.563.332.193.717.422 1.154.545l.157.035.157.018h.069l.087-.018.175-.053c.21-.07.455-.193.682-.334.455-.299.874-.668 1.294-1.09.21-.211.42-.422.612-.65l.297-.351.315-.352c.105-.123.192-.228.262-.352.07-.123.105-.246.105-.369.018-.246-.105-.527-.245-.791-.332-.545-.682-1.09-1.015-1.617-.332-.545-.647-1.072-.962-1.6-.315-.527-.595-1.02-.875-1.512-.14-.246-.262-.475-.385-.721l-.087-.176-.088-.158c-.052-.105-.122-.193-.21-.281-.14-.176-.315-.316-.49-.422-.175-.105-.367-.176-.542-.229-.367-.088-.7-.035-.962.053l-.192.053-.157.07-.14.053-.105.053-.21.105.192-.123.105-.07.14-.07.157-.088.192-.07c.262-.088.612-.176 1.032-.123.402.053.857.264 1.189.633.088.088.175.193.245.299l.105.158.105.176c.123.229.262.457.402.686l.909 1.477c.647 1.019 1.329 2.109 2.012 3.199.157.299.315.633.297 1.02-.017.193-.07.387-.157.545-.087.158-.21.299-.315.422l-.315.352-.315.352c-.21.229-.437.457-.647.668-.437.422-.91.791-1.399 1.09-.245.141-.49.264-.77.352l-.21.035-.088.018h-.10300000000000001l-.21-.018-.192-.053c-.49-.158-.857-.422-1.172-.65-.315-.229-.595-.439-.805-.633l-.49-.439-.14-.158zM64.574 6.61s.595.404 1.434 1.037c.42.316.927.703 1.434 1.107.262.211.525.422.805.633.262.229.542.439.822.668.262.229.542.439.822.65.28.211.56.457.77.756.105.158.192.334.227.527l.018.141v.141l-.053.264c-.052.158-.14.299-.21.439l-.245.334c-.35.422-.717.703-.98.861-.262.158-.437.229-.437.229s.157-.088.385-.299c.227-.193.542-.51.84-.949l.21-.351c.07-.123.123-.246.157-.369.07-.264 0-.51-.175-.756-.175-.229-.437-.44-.717-.65-.28-.211-.577-.422-.84-.65-.28-.229-.542-.457-.805-.686l-.77-.668c-.507-.439-.962-.844-1.364-1.213-.84-.686-1.329-1.195-1.329-1.195zM64.809 6.347l.262.158.7.422.962.615 1.084.721c.367.246.735.51 1.067.756l.49.352c.157.123.297.211.42.369.105.141.157.299.21.422.052.141.07.246.088.352l.017.228-.017.088v-.088l-.053-.211c-.052-.176-.157-.457-.367-.686-.087-.123-.245-.211-.402-.316l-.507-.334-.525-.352-.542-.369c-.367-.246-.735-.51-1.067-.756l-.91-.668c-.262-.193-.49-.369-.63-.492l-.28-.211z" fill="#EA9378"/><path d="M95.099 53.246c-1.749 1.67-6.472 3.234-6.472 3.234s-.892 4.992-1.959 7.734c-1.067 2.725-.647 8.473.717 11.25 1.189 2.443 6.489 4.096 7.714 4.465v-26.684z" fill="url(#g)"/><path d="M95.099 89.984v-10.318c-1.049-.492-4.828-1.898-6.751-4.975-1.924-3.059-.385-11.109.122-13.728.507-2.619.805-3.691.192-4.5 0 0-.612-.264-1.154-.035 0 0 .437.088-.157 2.496-.63 2.531-2.536 12.164-3.044 12.727-4.32 4.834-7.224 11.215-5.387 17.807l.157.527h16.022z" fill="url(#h)"/><path opacity=".22" d="M95.099 89.983v-8.086c-1.399-.598-5.912-1.934-9.533-7.33 0 0-4.915 2.303-7.101 12.902.175 1.16.437 1.969.595 2.496h16.039v.018z" fill="url(#i)"/></g><defs><linearGradient id="b" x1="127.624" y1="57.714" x2="-2.323" y2="44.983" gradientUnits="userSpaceOnUse"><stop stop-color="#B0BBA7"/><stop offset="1" stop-color="#F3F2EE"/></linearGradient><linearGradient id="c" x1="75.02" y1="8.324" x2="58.506" y2="21.622" gradientUnits="userSpaceOnUse"><stop stop-color="#FBCEB7"/><stop offset="1" stop-color="#F49167"/></linearGradient><linearGradient id="d" x1="20.274" y1="44.403" x2="88.025" y2="44.403" gradientUnits="userSpaceOnUse"><stop stop-color="#FBCEB7"/><stop offset="1" stop-color="#F49167"/></linearGradient><linearGradient id="e" x1="68.548" y1="74.06" x2="79.286" y2="74.06" gradientUnits="userSpaceOnUse"><stop stop-color="#FBCEB7"/><stop offset="1" stop-color="#F49167"/></linearGradient><linearGradient id="f" x1="64.28" y1="71.215" x2="49.045" y2="20.799" gradientUnits="userSpaceOnUse"><stop stop-color="#FBCEB7"/><stop offset="1" stop-color="#F49167"/></linearGradient><linearGradient id="g" x1="105.032" y1="56.026" x2="80.341" y2="78.617" gradientUnits="userSpaceOnUse"><stop stop-color="#FBCEB7"/><stop offset=".669" stop-color="#F49167"/></linearGradient><linearGradient id="h" x1="78.361" y1="73.163" x2="95.101" y2="73.163" gradientUnits="userSpaceOnUse"><stop stop-color="#59AB32"/><stop offset="1" stop-color="#255913"/></linearGradient><linearGradient id="i" x1="78.467" y1="82.277" x2="95.1" y2="82.277" gradientUnits="userSpaceOnUse"><stop stop-color="#8DB145"/><stop offset="1" stop-color="#3A941A"/></linearGradient></defs></svg>