<svg width="194" height="134" viewBox="0 0 194 134" xmlns="http://www.w3.org/2000/svg" fill="none"><g clip-path="url(#a)"><path d="M167.803 97.641c-.074.566-.222 1.107-.444 1.648-1.183 3.075-2.934 2.608-4.339 6.297-.123.32-.05 1.132.024 1.821.025.393.05.738.025.935-.444 2.607-4.068 3.444-6.854 3.813-.148.024-.32.049-.468.049-1.997.221-4.044.123-5.942-.492-3.945-1.279-6.706-4.625-8.605-8.315-.345-.689-.665-1.402-.961-2.116-2.959-7.183-3.723-15.376-1.134-22.682 1.701-4.748 4.438-9.644 9.418-13.408 2.687-2.042 6.04-3.739 10.232-4.92.172.098.345.246.542.418.789.787 1.578 2.313 1.849 4.035.173 1.033.025 1.771.123 2.805.222 2.239 1.751 4.133 3.107 5.978.222.295.444.615.665.935l.025.025c1.06 1.624 1.899 3.419 1.578 5.265-.148.837-.518 1.624-.814 2.411l-.221.664c-.888 3.247 1.134 6.913 1.972 10.677l.148.713c.172 1.132.246 2.288.074 3.444z" fill="#F29266"/><path d="M167.803 97.641l-.074.221c-1.652 4.773-3.994 5.831-8.531 7.184l-.32.098c.37.074.69.173 1.035.271 1.406.443 2.49 1.132 3.131 1.993.37.492.617 1.058.715 1.697.37 2.485-.912 5.585-3.18 7.085-2.096 1.403-4.758 2.091-7.643 2.337l-.542.05c-1.159.073-2.343.098-3.551.049-1.701-.049-3.402-.222-5.079-.443-3.648-.492-7.125-1.279-9.886-1.894l-1.553-.345c-10.7-2.435-19.601-5.19-30.375-7.134-3.279-.59-6.755-1.107-10.478-1.525-7.988-.886-20.069.738-33.876 2.534l-1.677.221c-7.816 1.033-16.149 2.091-24.605 2.78-2.687-7.257-4.068-15.179-4.29-22.854-.271-10.111 1.479-19.829 5.054-27.012 6.164.664 17.899 1.624 29.807 2.534l2.564.197 1.701.123 2.959.221c2.49.197 4.906.369 7.273.541l.69.049.666.049 1.553.123 2.17.148 1.035.074 1.011.074.592.049c1.183.074 2.293.172 3.378.246h.074c.616.049 1.233.098 1.825.123l1.43.098 1.356.098c.148.025.296.025.444.025l.32.025c.764.049 1.455.098 2.071.148l.37.025.197.025.37.025.69.049.296.025 1.455.098h.37l3.205-1.624s7.224-4.354 17.727-7.38c6.459-1.845 15.138-3.05 21.523-3.666 3.797-.369 8.63.123 11.687 1.279 2.81 1.058 5.005 2.337 6.311 3.862.888 1.033 1.381 2.189 1.381 3.493 0 2.436-1.036 3.813-4.734 5.88 3.97.246 7.15 1.968 9.098 4.379l.024.025c.346.443.666.935.937 1.427 1.11 2.091 1.06 4.133-.148 6.273-.936 1.648-2.539 3.321-4.807 5.117 3.476 1.501 5.621 3.961 6.509 6.347.074.197.148.394.197.59.419 1.279.444 2.46.148 3.493zM154.317 117.027c-.567.393-1.061.811-1.554 1.181-.148.123-.271.221-.394.344l-.173.148c-2.564 2.164-4.24 4.108-7.396 6.371-3.945 2.854-7.372 7.036-12.056 5.609l-.444-.147c-.296-.099-.616-.222-.912-.345-.271-.123-.567-.221-.838-.369-.962-.443-1.948-.959-2.959-1.55l-.592-.369-.123-.098c-.419-.271-.838-.541-1.282-.836-.148-.099-.296-.222-.468-.32-.296-.222-.617-.443-.937-.665l-.469-.344-.468-.344-.937-.714c-.271-.197-.543-.418-.814-.639-1.134-.911-2.293-1.87-3.476-2.83l-.962-.811c-1.75-1.476-3.525-2.977-5.325-4.453l-.592-.492-.961-.763-.567-.443-.074-.049-.148-.098c-2.466-1.919-4.98-3.74-7.544-5.24-1.48-.886-3.008-1.649-4.537-2.288 2.712-.837 5.473-1.476 8.284-1.919 15.163-2.337 31.287 1.23 44.009 9.225 1.676 1.034 3.229 2.116 4.709 3.248z" fill="#FFCBA8"/><path opacity=".561" d="M167.704 94.197l-.148-.713c-.838-3.764-2.86-7.43-1.972-10.677.074-.221.123-.443.222-.664 1.208-2.14 1.282-4.207.148-6.273-.271-.492-.567-.959-.937-1.427l-.025-.025c-.222-.32-.444-.64-.665-.935-1.357-1.82-2.885-3.715-3.107-5.978-.099-1.033.025-1.771-.123-2.805-.271-1.722-1.06-3.247-1.849-4.035-1.307-1.525-3.501-2.804-6.312-3.862-3.032-1.156-7.889-1.648-11.686-1.279-6.386.615-15.064 1.821-21.524 3.666-10.503 3.026-17.726 7.38-17.726 7.38l-3.206 1.624h-.37l-1.455-.098-.296-.025-.69-.049-.37-.025-.197-.025-.37-.025c-.616-.049-1.331-.098-2.071-.148l-.32-.025-.444-.025c-.444-.025-.888-.049-1.356-.098l-1.43-.098c-.592-.049-1.183-.098-1.824-.123h-.074c-1.085-.074-2.194-.148-3.378-.246l-.592-.049-1.011-.074-1.035-.074-2.17-.148c-.518-.025-1.035-.074-1.553-.123l-.666-.049-.69-.049c-2.342-.172-4.783-.344-7.273-.541l-2.959-.222c-.567-.049-1.134-.098-1.701-.123l-2.564-.197c-1.307.098-2.194.221-2.515.32 1.405-.049 5.103.222 9.615.615-1.997 5.24-3.747 10.578-5.251 15.991-.863 3.1-1.652 6.273-3.304 9.053-.838 1.427-1.972 2.731-3.304 3.739-6.607.197-13.264 0-19.699-1.476-3.599-.812-7.125-2.067-10.38-3.764.222 7.676 1.603 15.597 4.241 22.854 8.432-.689 16.79-1.771 24.605-2.78l1.676-.221c13.807-1.821 25.887-3.42 33.876-2.534 3.748.418 7.199.935 10.478 1.525 2.564 1.501 5.079 3.321 7.544 5.24l.148.099.074.049.567.443.962.762.591.492c1.8 1.477 3.575 2.977 5.326 4.453l.961.812c1.159.984 2.318 1.919 3.477 2.829l.813.64c.321.246.617.492.937.713l.469.345c.147.123.295.221.468.344l.937.664c.148.099.296.222.468.32.419.295.863.566 1.282.837l.124.098.591.369c.987.59 1.973 1.132 2.959 1.55l.838.369.912.344.444.148c4.685 1.427 8.112-2.755 12.056-5.609 3.156-2.263 4.833-4.231 7.397-6.372l.172-.147.543-.05c2.884-.246 5.547-.959 7.643-2.337 2.268-1.5 3.55-4.576 3.18-7.085-.099-.615-.345-1.181-.715-1.697-.049-.689-.148-1.501-.025-1.821 1.406-3.69 3.156-3.223 4.34-6.298.222-.541.345-1.082.443-1.648v-.025c.198-1.082.173-2.263-.197-3.493zm-73.495-24.823c5.867 1.378 10.848-1.009 11.834-2.042 4.388-4.551 10.799-6.839 17.184-7.503 6.361-.664 12.475-1.796 18.812-.984 1.75.221 3.994 2.435 5.226 3.69.765.763 1.11 1.673 1.233 2.657.395 3.026-1.183 6.839.37 9.668 1.208 2.165 4.068 3.272 4.734 5.634.986 3.493-3.526 6.913-2.367 10.382.444 1.304 1.627 2.362 1.602 3.715-.024 1.156-.789 1.968-1.109 2.337-3.526 4.084-11.169 4.6-11.169 4.6-12.475.837-26.429-2.78-27.761-3.124 0 0-18.219-4.822-27.613-12.67-1.356-1.132-3.526-2.977-4.758-6.076-.69-1.771-.616-2.731-1.208-5.24-.493-2.017-1.282-4.502-2.687-7.233 3.994 1.206 10.33.443 17.677 2.189zM167.803 97.641c-.074.566-.222 1.107-.444 1.648-1.183 3.075-2.934 2.608-4.339 6.298-.124.32-.05 1.132.024 1.821.37.492.617 1.058.715 1.697.37 2.485-.912 5.585-3.18 7.085-2.096 1.403-4.758 2.091-7.643 2.337l-.542.05-.173.147c-2.564 2.165-4.241 4.109-7.396 6.372-3.945 2.854-7.372 7.036-12.057 5.609l-.443-.148c-.296-.098-.617-.221-.913-.344-.271-.123-.567-.221-.838-.369-.961-.443-1.948-.96-2.958-1.55l-.592-.369-.123-.098c-.419-.271-.839-.542-1.282-.837-.148-.098-.296-.221-.469-.32-.296-.221-.616-.442-.937-.664l-.468-.344-.469-.345-.936-.713c-.272-.197-.543-.418-.814-.64-1.134-.91-2.293-1.869-3.476-2.829l-.962-.812c-1.75-1.476-3.526-2.976-5.325-4.453l-.592-.492-.962-.762-.567-.443-.074-.049-.147-.123c-2.466-1.919-4.981-3.74-7.545-5.24-3.279-.591-6.755-1.107-10.478-1.526-7.988-.885-20.069.738-33.875 2.534l-1.677.222c6.484-3.494 11.193-10.16 11.859-17.393.049-.517.099-1.082.444-1.451.37-.394.937-.468 1.455-.59 2.638-.492 5.153-1.624 7.224-3.297-.493 1.624.222 3.346 1.085 4.797 3.427 5.757 9.492 9.963 16.223 11.194l5.646.836c1.947.074 3.895.222 5.843.443 1.282.173 2.564.369 3.846.615 8.037 1.55 15.582 4.896 23.471 7.012 5.399 1.451 11.193 2.288 16.691 1.599 2.219-.271 4.413-.812 6.484-1.673.272-.123.567-.222.839-.369 1.405-.64 2.835-1.501 3.501-2.878.542-1.157.32-2.707-.641-3.494-.198-.147-.395-.27-.641-.369l-.05-.024c-.937-.296-2.317-.246-2.441-1.206-.073-.492.321-.91.691-1.255 2.194-1.968 4.955-3.296 7.199-5.24 1.183-1.033 2.244-2.337 2.86-3.764l.049-.123.148.713c.444 1.353.469 2.534.173 3.567z" fill="#FF976B"/><path opacity=".561" d="M153.626 118.331c-.271.074-.493.148-.715.197l-.542.049-.173.148c-1.134.295-1.134.246-1.134.196-.715-.098-1.479-.196-2.243-.295-1.652-.221-3.403-.393-5.079-.443-3.723-.098-7.224.443-9.122 2.854-.789.984-1.085 2.313-1.603 2.042-.345-.172 1.208-.763.542-2.829-1.356-4.207-5.424-3.986-4.487-4.281.937-.295 1.973-.197 2.934-.074l.271.025 20.488 2.313c.296.024.592.049.863.098z" fill="#AD5031"/><path opacity=".561" d="M96.526 75.968c.025-1.451-.789-2.829-1.923-3.739-1.134-.91-2.589-1.427-4.043-1.697 3.008-.172 5.769 1.599 8.235 3.297 1.035.713 2.195 1.771 1.799 2.928-1.232.221-2.514.197-4.068-.787z" fill="#FF976B"/><path d="M79.219 59.583c-.641-1.624-2.268-2.755-4.167-2.755h-10.207c-2.465 0-4.438 1.919-4.438 4.281 0 1.648.986 3.075 2.392 3.789.197.098.419.197.641.271.444.148.912.221 1.405.221h10.207c.863 0 1.676-.246 2.367-.664 1.257-.763 2.071-2.091 2.071-3.616.025-.541-.074-1.033-.271-1.525zm-2.244 2.19c-.025.246-.567 1.009-.838 1.156-.469.246-10.503.025-11.834.074-.173.025-.74.025-1.159-.566-.123-.172-.222-.394-.321-.689-.296-1.033.247-1.747.937-2.165.542-.344 1.183-.517 1.578-.517.173 0 2.687.197 5.03.148 2.342-.049 4.709-.394 5.523.197 1.011.664 1.208 1.353 1.085 2.362z" fill="#BA693D"/><path opacity=".349" d="M79.218 59.583c-.173-.197-.395-.394-.616-.59-1.06-.836-2.391-1.279-3.748-1.476-1.356-.172-2.737-.123-4.093-.049l-3.748.172c-1.381.074-2.909.172-3.895 1.107-.937.837-1.183 2.239-.764 3.395.148.467.395.886.493 1.353.099.467.025.935-.074 1.378.197.098.419.197.641.271.444.148.912.221 1.405.221h10.207c.863 0 1.676-.246 2.367-.664 1.257-.763 2.071-2.091 2.071-3.616.049-.517-.049-1.009-.247-1.501zm-2.244 2.19c-.025.246-.567 1.009-.838 1.156-.469.246-10.503.025-11.834.074-.173.025-.74.025-1.159-.566-.123-.172-.222-.394-.321-.689-.296-1.033.247-1.747.937-2.165.543-.344 1.183-.517 1.578-.517.173 0 2.687.197 5.03.148 2.342-.049 4.709-.394 5.523.197 1.011.664 1.208 1.353 1.085 2.362z" fill="#330101"/><path opacity=".522" d="M77.493 63.863c-.049.295-.074.59-.074.886-.69.418-1.504.664-2.367.664h-10.207c-.493 0-.962-.074-1.405-.221-.025-.32-.025-.64.025-.935l-.321-1.796c.419.59.986.59 1.159.566 1.307-.049 11.341.172 11.834-.074.271-.148.814-.935.838-1.156.123-1.009-.074-1.697-1.035-2.362-.838-.566-3.205-.221-5.523-.197-2.342.049-4.857-.172-5.03-.148-.394.025-1.035.197-1.578.517.173-.148.395-.271.592-.369.74-.344 1.553-.418 2.367-.492 2.342-.172 4.709-.172 7.051-.098.863.025 1.726.074 2.515.369.789.295 1.529.886 1.726 1.673.271 1.058-.37 2.091-.567 3.174z" fill="#330101"/><path d="M76.459 63.248v47.086c0 1.673-1.381 3.026-3.082 3.075h-6.8790000000000004c-.296 0-.567-.024-.838-.098-1.356-.345-2.367-1.55-2.367-2.977v-47.086c0-.221.025-.418.074-.615.296-1.402 1.578-2.46 3.131-2.46h6.78c1.751 0 3.18 1.378 3.18 3.075z" fill="#A2562D"/><path opacity=".2" d="M76.457 63.251v12.227c-1.479.197-3.008.148-4.463-.172-1.726-.394-3.304-1.132-5.029-1.575-1.183-.295-2.515-.418-3.698-.172v-2.805c.468-.517 1.011-.984 1.603-1.402 1.726-1.206 3.822-1.993 5.843-2.805.764-.32 1.553-.64 2.12-1.181.567-.541.863-1.304.542-1.943-.419-.812-1.627-1.107-2.687-1.181-1.553-.123-3.156 0-4.66.369-1.06.271-2.194.763-2.761 1.501v-.836c0-.221.025-.418.074-.615.296-1.402 1.578-2.46 3.131-2.46h6.78c1.775-.025 3.205 1.353 3.205 3.051z" fill="#330101"/><path opacity=".471" d="M76.457 63.248v10.357c-1.282-.64-2.318-1.919-3.748-2.091 1.159-2.165 1.898-4.551 2.17-6.987.074-.713.099-1.501-.271-2.14-.543-.959-1.726-1.328-2.835-1.525-1.677-.32-3.427-.418-5.079-.025-1.257.295-2.466.886-3.353 1.796.296-1.402 1.578-2.46 3.131-2.46h6.78c1.775 0 3.205 1.378 3.205 3.075z" fill="#330101"/><path opacity=".212" d="M74.189 89.35c-2.786-.787-5.794-1.107-8.58-.344-.838.221-1.627.566-2.342.984v19.951c.37-2.706.444-4.797.962-7.232 1.948 1.599 3.501 2.509 5.621 2.976 1.529.345 2.737.32 3.402.148 0 3.469-.444 6.839-7.618 7.479.271.074.542.098.838.098h6.8790000000000004c1.726-.049 3.082-1.402 3.082-3.075v-20.247c-.715-.271-1.479-.517-2.244-.738z" fill="#330101"/><path opacity=".541" d="M76.457 93.262v17.098c0 1.673-1.381 3.026-3.082 3.075l.246-.123c.69-.345 1.356-.763 1.726-1.402.394-.64.222-7.897.271-8.98-.321.591-1.307 1.033-1.972 1.255-1.923.664-4.068.467-5.942-.295-1.775-.738-3.279-1.968-4.438-3.445v-6.642c.616-.344 1.257-.615 1.923-.812 1.948-.615 4.068-.713 6.114-.615 1.775.074 3.526.32 5.153.886z" fill="#330101"/><path d="M78.232 75.377v20.616c0 4.281-3.624 7.774-8.087 7.774-2.244 0-4.241-.861-5.72-2.288-1.455-1.402-2.367-3.346-2.367-5.486v-20.591c0-3.419 2.317-6.347 5.523-7.356.814-.271 1.652-.394 2.564-.394.394 0 .814.025 1.208.074 1.75.246 3.328 1.033 4.512 2.189 1.455 1.378 2.367 3.321 2.367 5.461z" fill="#4E3C51"/><path opacity=".2" d="M78.232 95.993c0 4.28-3.624 7.774-8.087 7.774-2.244 0-4.241-.861-5.72-2.288-1.455-1.402-2.367-3.346-2.367-5.486v-2.239l.049-.025c.321-.098.641-.197.937-.32l.247-.098c.888-.369 1.75-.861 2.515-1.451 2.613-1.968 4.339-4.846 5.572-7.799 1.307-3.174 2.096-6.569 1.849-9.963-.148-2.165-.74-4.305-1.8-6.2l-.099-.172c1.751.246 3.328 1.033 4.512 2.189 1.455 1.402 2.367 3.346 2.367 5.486v20.591h.025z"/><path opacity=".302" d="M78.232 75.377v20.616c0 4.281-3.624 7.774-8.087 7.774-2.244 0-4.241-.861-5.72-2.288-1.455-1.402-2.367-3.346-2.367-5.486v-2.755l.049.492c.074.615.173 1.206.321 1.796.173.713.468 1.427.838 2.116-.049-.271-.074-.541-.074-.812-.074-1.132-.099-2.263-.123-3.42v-.344l-.296-8.069c-.099-2.558-.222-5.117-.197-7.676.025-2.116.247-4.379 1.504-6.175 1.183-1.722 3.23-2.854 5.375-2.952.197 0 .197.295 0 .295-2.465.123-4.611 1.599-5.621 3.764-.888 1.919-.937 4.133-.888 6.2.074 2.559.148 5.117.197 7.675.049 2.386.099 4.797.172 7.184 0 .197 0 .369.025.566.025 1.156 0 2.313.123 3.444.025.271.074.541.123.812 1.307 1.993 4.167 3.863 6.583 3.715 2.54-.148 4.413-.812 5.375-2.485.986-1.747 1.479-4.674 1.479-6.642 0-8.217-.172-11.784-.296-17.442-.025-1.747-.148-3.592-1.183-5.043-.912-1.279-2.441-2.067-4.068-2.337-.493-.074-.986-.123-1.479-.123-.814 0-1.603.099-2.367.271.814-.271 1.652-.394 2.564-.394.395 0 .814.025 1.208.074 1.751.246 3.328 1.033 4.512 2.189 1.405 1.378 2.317 3.321 2.317 5.461z"/><path opacity=".161" d="M69.875 69.055c-9.369.32-5.473 14.367-6.139 20.222.962-11.243 10.306-17.861 6.139-20.222z" fill="#fff"/><path opacity=".812" d="M62.281 78.354c.025-1.328.074-2.681.123-4.01h-.025c-.271 4.773-.173 9.545.049 14.318l.222 4.01c0 .074.123.074.099 0-.271-4.797-.542-9.545-.468-14.318z" fill="#fff"/><path opacity=".8" d="M68.395 68.046c-1.06.123-2.096.59-2.959 1.206-.888.64-1.652 1.427-2.194 2.362-.296.517-.542 1.082-.69 1.648-.049.172.222.246.271.074.592-1.968 2.046-3.592 3.895-4.551.542-.271 1.085-.467 1.652-.64.074-.025.074-.123.025-.098z" fill="#fff"/><path opacity=".6" d="M68.001 69.153c-1.701.295-3.057 1.624-3.723 3.124-.838 1.894-.814 3.961-.715 6.003l.099 1.87c.025.64-.025 1.279-.049 1.944h.049c.173-1.033.099-2.116.099-3.149-.025-1.033-.074-2.067-.025-3.1.049-.984.148-1.968.493-2.903.296-.812.764-1.55 1.405-2.165.666-.664 1.529-1.132 2.49-1.304.148-.049.074-.344-.123-.32zM63.76 84.111c0-.074-.123-.074-.123 0 .025 1.451.025 2.903.099 4.354h.049c.025-1.451-.025-2.903-.025-4.354z" fill="#fff"/><path opacity=".612" d="M70.59 68.833c-.197-.025-.395-.025-.616 0-.197 0-.419.025-.616.074-.099.025-.074.172.025.172h.025l.049.049c.321-.025.616-.049.912-.025l.074-.049h.123c.173-.025.148-.221.025-.221z" fill="#fff"/><path opacity=".302" d="M76.728 84.012h-.025c.099 2.681.049 5.363-.148 8.02l-.172 1.968c-.074.64-.123 1.304-.271 1.944-.123.566-.247 1.156-.493 1.697-.197.443-.469.886-.764 1.279-.69.935-1.578 1.673-2.687 2.091-.222.098-.123.443.099.369 2.046-.763 3.748-2.386 4.265-4.477.148-.64.197-1.328.246-1.993l.074-2.066c.025-1.402.049-2.78.049-4.182 0-1.525-.074-3.075-.173-4.65z" fill="#fff"/><g opacity=".79" fill="#fff"><path opacity=".79" d="M67.236 72.818l-.049-.049-.025-.025h-.24700000000000003l-.025.025-.025.025v1.4280000000000002l-.025.172v.641l.025.074h.148l.123-.025.025-.025v-2.215l.074-.025zM68.79 74.934v-.049h-.39499999999999996c-.197-.025-.395-.025-.592-.025l.025-.049c.099-.148.197-.271.32-.394l.37-.344c.123-.148.197-.295.247-.467.049-.148.074-.344.025-.517l-.025-.049-.123-.172-.222-.098-.222-.025c-.099 0-.197.025-.271.074-.099.049-.197.148-.246.246-.025.074.074.098.123.025.074-.172.271-.246.444-.172h.025l.049.025c.123.098.173.295.173.443 0 .197-.049.394-.148.566-.123.172-.296.295-.444.467-.148.197-.247.394-.247.64l.049.049.025.025.592.025h.124l.222-.025h.124v-.19699999999999998zM71.082 74.934v-.049h-.39499999999999996c-.197-.025-.395-.025-.592-.025l.025-.049c.099-.148.197-.271.321-.394l.37-.344c.123-.148.197-.295.246-.467.049-.148.074-.344.025-.517l-.025-.049-.123-.172-.222-.098-.222-.025c-.099 0-.197.025-.271.074-.099.049-.197.148-.247.246-.025.074.074.098.123.025.074-.172.271-.246.444-.172h.025l.049.025c.123.098.173.295.173.443 0 .197-.049.394-.148.566-.123.172-.296.295-.444.467-.148.197-.246.394-.246.64l.049.049.025.025.592.025h.124l.222-.025h.124v-.19699999999999998zM69.653 73.458l-.025-.123-.049-.025-.123-.049-.099.098v.074l.025.074.123.074h.049l.074-.049.025-.074zM69.603 74.294l-.099-.074h-.124c-.049.025-.074.074-.074.123s.049.098.099.123h.099l.074-.025c.049-.025.049-.098.025-.148zM72.932 74.27c0-.148-.049-.32-.123-.443l-.025-.025c-.049-.098-.148-.172-.247-.197-.123-.049-.246-.049-.37-.049l.222-.271.246-.246.025-.025.099-.098v-.099h-.668c-.148 0-.32 0-.468.049l-.025.049v.025l.025.098c.025.049.099.049.148.049l.197-.025h.37l-.074.098-.148.172-.123.148-.197.197.025.098.049.049h.099c.123 0 .222.074.296.172.074.123.099.271.123.418 0 .098 0 .221-.025.32l-.123.172c-.099.074-.173.123-.296.148-.148.025-.296 0-.444-.074h-.049c-.049-.025-.123.025-.074.074.049.098.148.148.247.172.148.049.296.074.419.074s.247-.025.37-.074c.173-.049.32-.197.395-.344.099-.221.148-.418.123-.615z"/></g><path opacity=".4" d="M70.146 90.383c2.601 0 4.709-2.104 4.709-4.699 0-2.595-2.108-4.699-4.709-4.699-2.601 0-4.709 2.104-4.709 4.699 0 2.595 2.108 4.699 4.709 4.699z" stroke="#E05651" stroke-width="2.674" stroke-miterlimit="10"/><path d="M70.146 90.704c-2.786 0-5.029-2.263-5.029-5.019h.666c0 2.411 1.972 4.379 4.388 4.379s4.389-1.968 4.389-4.379c0-2.411-1.972-4.379-4.389-4.379v-.664c2.786 0 5.029 2.263 5.029 5.019 0 2.805-2.268 5.043-5.054 5.043z" fill="#E05651"/><path opacity=".4" d="M70.146 89.203c1.947 0 3.526-1.575 3.526-3.518 0-1.943-1.579-3.518-3.526-3.518-1.947 0-3.526 1.575-3.526 3.518 0 1.943 1.578 3.518 3.526 3.518z" stroke="#9EA635" stroke-width="2.674" stroke-miterlimit="10"/><path d="M70.146 89.523c-1.035 0-1.997-.394-2.712-1.132l.468-.467c.592.59 1.405.935 2.244.935 1.75 0 3.18-1.427 3.18-3.174 0-1.747-1.43-3.174-3.18-3.174v-.664c2.12 0 3.846 1.722 3.846 3.838.025 2.116-1.726 3.838-3.846 3.838z" fill="#9EA635"/><path opacity=".4" d="M67.853 85.685c0-.271.049-.517.123-.738.321-.91 1.159-1.55 2.17-1.55 1.282 0 2.318 1.033 2.318 2.313 0 1.279-1.035 2.313-2.318 2.313-1.257-.025-2.293-1.058-2.293-2.337z" stroke="#F2BE11" stroke-width="2.674" stroke-miterlimit="10"/><path d="M70.146 88.317c-1.455 0-2.638-1.181-2.638-2.632 0-.295.049-.591.148-.861l.616.221c-.074.197-.099.418-.099.64 0 1.082.888 1.968 1.972 1.968 1.085 0 1.972-.886 1.972-1.968 0-1.083-.888-1.968-1.972-1.968v-.664c1.455 0 2.638 1.181 2.638 2.632s-1.183 2.632-2.638 2.632z" fill="#F2BE11"/><path opacity=".702" d="M69.529 95.894h-1.479v1.304h1.479v-1.304zM71.699 95.894h-1.307v1.304h1.307v-1.304z" fill="#DAD6DA"/><path d="M66.423 52.867l-4.808-5.88c-2.022 3.715-6.706 6.273-11.982 3.961-.592-.246-1.159-.566-1.751-.935-1.257-.787-2.096-1.747-2.638-2.755-2.983-5.634 4.019-13.58 10.552-11.759 4.019 1.132 6.065 3.395 6.681 5.88.173.468.345.91.518 1.353 1.011 2.78 1.775 5.215 2.638 7.774.247.787.493 1.55.789 2.362z" fill="url(#b)"/><path d="M69.579 52.867l-.049-.246c-2.022-9.004-5.695-23.223-7.199-29.029l-.099-.394c-1.529 2.263-4.068 3.961-7.347 4.108-1.109.049-2.318-.074-3.6-.418-.37-.098-.74-.221-1.109-.344-8.974-3.198-6.608-15.769 2.786-16.507 1.997-.148 3.698 0 5.128.418 1.011.295 1.898.689 2.613 1.206 1.972 1.353 2.983 3.395 3.156 5.56 2.219 10.21 3.23 17.86 4.61 27.824v.025c.32 2.362.666 4.871 1.06 7.577.025.049.049.123.049.221z" fill="url(#c)"/><path d="M90.264 15.793c-.542 1.206-1.405 2.288-2.564 3.124-2.441 1.771-5.646 2.681-8.703 2.411-1.726 6.2-3.353 12.276-5.276 19.213-.518 1.87-1.06 3.813-1.627 5.806l-.025.098c.961-8.414 1.898-16.852 2.835-25.265l.099-.959c-.74-.394-1.455-.886-2.096-1.501-1.282-1.23-2.046-2.829-2.317-4.551-.74-4.354 1.553-9.349 6.09-10.308 2.761-.59 6.139-1.599 9.319-.074 3.032 1.451 4.832 4.625 5.005 7.823.074 1.427-.148 2.878-.74 4.182z" fill="url(#d)"/><path d="M98.844 39.41c-.173 2.313-1.43 4.576-4.142 6.322-3.476 2.239-8.531 1.944-12.229-.123-.616-.344-1.208-.738-1.751-1.205-.493-.418-.888-.861-1.257-1.329l-.148-.197-.247-.369-.025.049-.074.123-.148.246c-1.134 1.894-3.649 6.175-5.202 9.521l-.197.418c.173-.738.345-1.427.518-2.066v-.025c1.479-5.929 2.293-8.758 4.093-13.654.419-2.977 2.293-5.806 5.301-7.11 6.312-2.731 12.278.418 14.546 4.896.74 1.452 1.085 2.977.962 4.502z" fill="url(#e)"/><path opacity=".18" d="M69.554 52.596l-.025.025c-2.022-9.004-5.695-23.223-7.199-29.029l-.099-.394c-1.529 2.263-4.068 3.961-7.347 4.108-1.11.049-2.318-.074-3.6-.418 1.381.123 2.811-.049 4.117-.541 3.452-1.304 5.942-4.797 6.04-8.487.074-2.805-1.233-5.609-3.353-7.43 1.011.295 1.898.689 2.613 1.205 1.972 1.353 2.983 3.395 3.156 5.56 2.219 10.209 3.23 17.861 4.61 27.824v.025c.345 2.337.69 4.846 1.085 7.553z" fill="#611F16"/><path opacity=".2" d="M90.264 15.793c-.542 1.205-1.405 2.288-2.564 3.124-2.441 1.771-5.646 2.682-8.703 2.411-1.726 6.2-3.353 12.276-5.276 19.214-.518 1.87-1.06 3.813-1.627 5.806 1.479-9.102 3.353-18.156 5.597-27.111 3.526.591 7.298-.467 9.985-2.804 1.504-1.304 2.638-2.977 3.328-4.822.074 1.427-.148 2.878-.74 4.182zM74.904 21.18l.099-.959c-.74-.394-1.455-.886-2.096-1.501-1.282-1.23-2.046-2.829-2.317-4.551.838 2.288 2.638 4.256 4.906 5.191-.148.615-.345 1.23-.592 1.82z" fill="#611F16"/><path opacity=".18" d="M98.844 39.41c-.173 2.313-1.43 4.576-4.142 6.323-3.476 2.239-8.531 1.944-12.229-.123-.616-.345-1.208-.738-1.751-1.206-.493-.418-.888-.861-1.257-1.328 3.008 2.313 7.051 3.198 10.749 2.313 2.811-.664 5.399-2.386 6.805-4.92.912-1.673 1.233-3.666.863-5.511.74 1.402 1.085 2.928.962 4.453zM66.423 52.867l-4.808-5.88c-2.022 3.715-6.706 6.273-11.982 3.961-.592-.246-1.159-.566-1.75-.935-1.257-.787-2.096-1.747-2.638-2.755 1.849 1.624 4.265 2.583 6.731 2.583 3.452 0 6.854-1.894 8.629-4.846l3.575 2.485c-.493-1.55-.888-3.149-1.208-4.748 1.011 2.78 1.775 5.215 2.638 7.774.271.787.518 1.55.814 2.362z" fill="#611F16"/><path opacity=".502" d="M90.264 15.793c-.542 1.205-1.405 2.288-2.564 3.124-2.441 1.771-5.646 2.682-8.703 2.411-1.726 6.2-3.353 12.276-5.276 19.214l4.684-20.148c2.86.492 5.868-.049 8.358-1.525 1.356-.787 2.539-1.845 3.501-3.075zM98.844 39.41c-.173 2.313-1.43 4.576-4.142 6.322-3.476 2.239-8.531 1.944-12.229-.123 2.959 1.107 6.312 1.156 9.27.049 3.057-1.132 5.597-3.42 7.1-6.249zM66.423 52.867l-4.808-5.88c-2.022 3.715-6.706 6.273-11.982 3.961 1.677.394 3.452.418 5.104 0 2.638-.664 4.98-2.362 6.435-4.65 1.578 1.304 3.057 2.731 4.438 4.231.271.763.518 1.525.814 2.337zM68.494 44.994c-1.652-7.208-3.033-14.49-4.117-21.797-.345-2.362-.69-4.748-1.405-7.036-.518-1.624-1.233-3.198-2.244-4.551 1.972 1.353 2.983 3.395 3.156 5.56 2.194 10.209 3.23 17.861 4.61 27.824zM62.33 23.616l-.099-.394c-1.529 2.263-4.068 3.961-7.347 4.108 2.909-.64 5.572-2.534 7.027-5.117.246.418.37.886.419 1.402z" fill="#611F16"/><path opacity=".212" d="M79.367 42.879l-.247-.369-.025.049-.074.123-.148.246c-1.134 1.894-3.649 6.175-5.202 9.521l-.197.418c.173-.738.345-1.427.518-2.066v-.025c1.233-3.444 2.761-6.79 4.536-9.988.345.664.641 1.378.838 2.091z" fill="#611F16"/><path d="M54.145 19.139c0-.492-.197-.959-.468-1.427-.246-.443-.567-.861-.74-1.328-.197-.467-.247-1.009 0-1.451.247-.443.838-.787 1.405-.689.468.074.814.418.986.787.173.369.197.763.222 1.181.025.492.049 1.009.099 1.501.025.369.049.763-.148 1.082-.197.32-.641.59-1.356.344zM55.624 19.434c-.444.172-.986.221-1.479.172-.345.271-.246.763.173.984.419.221 1.035.148 1.356-.148.32-.271.32-.713-.049-1.009zM53.208 20.787c-.271-.443-.345-.935-.345-1.427s.025-.984-.049-1.476c-.099-.492-.32-.984-.764-1.304-.444-.32-1.159-.394-1.627-.074-.37.246-.518.689-.468 1.082.049.394.247.763.444 1.132l.74 1.378c.172.344.37.689.715.91.296.197.863.271 1.356-.221zM52.049 21.623c.493-.025.986-.172 1.405-.418.444.098.616.59.37.935-.246.344-.838.517-1.282.394-.419-.123-.666-.517-.493-.91z" fill="#E15651"/><g opacity=".4"><g opacity=".4"><path opacity=".4" d="M55.501 18.794c-.148.246-.444.467-.888.443-.148 0-.296-.025-.468-.098.025-.492-.197-.959-.468-1.402-.247-.443-.567-.861-.74-1.329-.173-.467-.247-1.009 0-1.451.247-.443.838-.787 1.405-.689.419.074.74.344.937.664l.049.098c.173.369.197.787.222 1.181.025.492.049 1.009.099 1.501 0 .344.025.738-.148 1.082zM55.895 20.049c-.025.148-.099.295-.222.418-.271.246-.789.345-1.208.197l-.148-.074c-.419-.221-.518-.713-.173-.984.173.025.345.025.518 0 .345-.025.666-.074.986-.172l.123.148c.099.148.148.32.123.467z"/></g><g opacity=".4"><path opacity=".4" d="M53.208 20.787c-.468.467-.986.443-1.331.246l-.049-.025c-.345-.221-.542-.59-.715-.91l-.74-1.378c-.197-.369-.394-.738-.444-1.132-.049-.394.099-.836.468-1.082.468-.295 1.183-.221 1.627.074.197.123.345.295.468.492.173.246.271.541.32.812.099.492.049.984.049 1.476 0 .468.074.984.345 1.427zM53.947 21.746c0 .123-.025.271-.123.394-.247.344-.838.517-1.282.394h-.025c-.419-.123-.641-.517-.493-.91.123 0 .271-.025.419-.049.345-.074.69-.197 1.011-.369.099.025.172.049.246.123.148.098.222.246.247.418z"/></g></g><path d="M54.613 19.237c-.074-.344-.222-.689-.419-.984-.247-.443-.567-.861-.74-1.329-.197-.467-.246-1.009 0-1.451.247-.443.838-.787 1.405-.689.148.025.296.074.419.148l.049.098c.172.369.197.787.222 1.181.025.492.049 1.009.099 1.501.025.369.025.763-.148 1.082-.148.246-.444.467-.888.443zM55.895 20.049c-.025.148-.099.295-.222.418-.271.246-.789.345-1.208.197-.049-.197.025-.394.197-.517.419.025.838 0 1.233-.098zM53.208 20.787c-.468.467-.986.443-1.331.246-.099-.148-.172-.295-.246-.443l-.74-1.378c-.197-.369-.395-.738-.444-1.132-.049-.394.099-.836.468-1.082.444-.295 1.11-.221 1.578.049.173.246.271.541.321.812.099.492.049.984.049 1.476s.074 1.009.345 1.451zM53.947 21.746c0 .123-.025.271-.123.394-.246.344-.838.517-1.282.394h-.025c-.025-.123-.025-.246.025-.394.493-.025.986-.172 1.405-.394zM84.223 13.308c-.296.738-.764 1.525-1.898 2.017.37-.738.592-1.181.592-2.313-.271.664-.986.959-1.701 1.205.789-2.263-.148-3.296-.74-4.896.123 1.624-.764 2.14-1.455 2.632-.641.492-.937.713-1.183 1.451-.197.59-.074 1.476.394 1.944-.444-.221-.863-.541-1.159-.96-.764-1.009-.814-2.435-.099-3.493.37-.541.912-.984 1.405-1.452.493-.467.937-1.009 1.085-1.648.123-.64-.148-1.378-.814-1.624 1.356.369 2.515 1.156 3.18 2.214.666 1.058.789 2.386.37 3.543.616-.148 1.109-.615 1.233-1.181.123-.566-.148-1.181-.641-1.525.863.271 1.43 1.033 1.578 1.845.099.836.148 1.451-.148 2.239zM89.993 34.736c-1.011-.148-1.701.32-2.145.91-.173-.295-.419-.59-.74-.787-.518-.32-1.134-.369-1.8-.172-1.208.369-1.849 1.993-1.405 3.518.542 1.894 3.402 3.543 3.526 3.616.074.049.172.074.246.074l.197-.049c.074-.049 2.046-.959 3.156-2.485.148-.197.123-.492-.074-.664-.099-.098-.222-.172-.37-.148l-2.243.074c-.271 0-.493.246-.469.517 0 .271.222.467.493.467h.025l1.159-.025c-.69.64-1.455 1.082-1.849 1.279-.838-.517-2.515-1.747-2.835-2.903-.296-1.009.074-2.091.74-2.313.394-.123.715-.098.986.049.493.295.69 1.058.715 1.328.025.246.222.418.468.418.247 0 .444-.148.493-.394.025-.148.37-1.55 1.553-1.353.74.123 1.085.664 1.011 1.599-.025.271.173.517.444.517.271.025.518-.172.518-.443.148-1.427-.542-2.411-1.8-2.632zM54.958 40.738c-.345-.689-1.035-1.205-1.849-1.279-.616-.049-1.208.123-1.677.517-.468.394-.764.935-.814 1.55v.246c0 .221.025.467.074.689.099.468.32.886.518 1.304l1.331 2.731c.025.074.074.123.148.148.197.123.468.074.592-.172.641-1.378 1.307-2.46 1.825-3.985l.049-.295.049-.295c.025-.394-.049-.812-.247-1.156zm-.74 1.107c-.074.713-.69 1.255-1.405 1.181-.345-.025-.616-.172-.838-.418-.246-.271-.37-.615-.345-1.009.074-.664.641-1.181 1.307-1.181h.123c.518.049.912.369 1.085.812.049.197.074.418.074.615z" fill="#E15651"/><g opacity=".451"><path opacity=".451" d="M83.065 9.519c.271.098.518.221.715.418-.271-.295-.616-.541-1.011-.664.123.049.222.148.296.246zM79.095 6.493c.838.271 1.602.689 2.219 1.255-.69-.713-1.627-1.255-2.663-1.55.148.049.321.148.444.295zM83.656 10.995c.123-.517-.099-1.107-.542-1.451.271.344.394.787.296 1.205-.099.443-.419.836-.863 1.058-.025.123-.074.246-.123.369.616-.123 1.109-.615 1.233-1.181zM83.139 13.234c-.074.172-.173.295-.271.418-.074.689-.271 1.082-.567 1.648l.493-.246c.222-.492.345-.96.345-1.82zM77.32 14.636c-.764-1.009-.814-2.435-.099-3.493.37-.541.912-.984 1.405-1.451.493-.467.937-1.009 1.085-1.648.099-.517-.074-1.132-.518-1.451.271.344.37.812.271 1.23-.123.64-.592 1.181-1.085 1.648-.493.467-1.035.91-1.405 1.451-.715 1.058-.666 2.485.099 3.493.123.172.246.32.419.443l-.173-.221zM81.536 14.071c.567-2.017-.296-3.026-.838-4.527 0 .123.025.246 0 .369.567 1.279 1.159 2.313.493 4.281l.345-.123z"/></g><g opacity=".4"><path opacity=".4" d="M87.922 41.108c.37-.197 1.159-.64 1.849-1.279l-.542.025c-.592.492-1.208.861-1.553 1.033-.444-.271-1.134-.763-1.726-1.328.641.64 1.455 1.206 1.972 1.55zM91.077 38.869l-.123-.148c-.099-.098-.222-.172-.37-.148l-2.244.074c-.271 0-.493.246-.468.517 0 .197.123.344.296.443l-.049-.197c0-.271.197-.492.468-.517l2.244-.074c.074-.025.173 0 .247.049zM90.609 36.163c.197.271.271.64.222 1.132-.025.221.099.394.296.492l-.049-.246c.074-.664-.099-1.107-.468-1.378zM88.094 35.892c.444-.59 1.134-1.082 2.145-.91.444.074.814.246 1.109.492-.321-.369-.764-.64-1.356-.713-.986-.148-1.676.295-2.096.861l.197.271zM86.862 35.966c.271.369.394.861.419 1.058.025.172.123.32.296.369l-.049-.148c-.025-.221-.222-.935-.666-1.279zM84.125 38.475c-.444-1.525.197-3.149 1.405-3.518.69-.221 1.307-.172 1.8.172l.222.172c-.123-.148-.271-.295-.468-.394-.518-.32-1.134-.369-1.8-.172-1.208.369-1.849 1.993-1.405 3.518.197.738.764 1.427 1.356 1.993-.493-.541-.912-1.156-1.11-1.771z"/></g><g opacity=".4"><path opacity=".4" d="M53.06 43.42c.715.074 1.356-.468 1.405-1.181.025-.369-.099-.738-.345-1.009.074.172.099.394.074.59-.074.713-.69 1.255-1.405 1.181-.345-.025-.616-.172-.838-.418.172.468.592.812 1.109.837zM50.94 42.879c-.049-.221-.074-.467-.074-.689v-.271c.049-.615.345-1.156.814-1.55.468-.394 1.06-.566 1.677-.517.641.049 1.208.394 1.603.861-.345-.689-1.035-1.205-1.849-1.279-.616-.049-1.208.123-1.677.517-.468.394-.764.935-.814 1.55v.246c0 .221.025.467.074.689.099.467.32.886.518 1.304l1.331 2.731c.025.074.074.123.148.148l-1.233-2.485c-.197-.369-.395-.787-.518-1.255z"/></g><path opacity=".502" d="M79.095 42.534l-.074.123-.148.246c-1.134 1.894-3.649 6.175-5.202 9.521 1.282-3.789 2.934-7.454 4.931-10.923.173.369.345.689.493 1.033z" fill="#611F16"/></g><defs><linearGradient id="b" x1="43.372" y1="40.202" x2="68.022" y2="48.266" gradientUnits="userSpaceOnUse"><stop stop-color="#EDEDED"/><stop offset="1" stop-color="#EBDBCA"/></linearGradient><linearGradient id="c" x1="47.496" y1="11.262" x2="76.554" y2="45.62" gradientUnits="userSpaceOnUse"><stop stop-color="#EDEDED"/><stop offset="1" stop-color="#EBDBCA"/></linearGradient><linearGradient id="d" x1="82.637" y1="4.987" x2="71.312" y2="48.856" gradientUnits="userSpaceOnUse"><stop stop-color="#EDEDED"/><stop offset="1" stop-color="#EBDBCA"/></linearGradient><linearGradient id="e" x1="75.92" y1="35.676" x2="95.566" y2="51.018" gradientUnits="userSpaceOnUse"><stop stop-color="#EDEDED"/><stop offset="1" stop-color="#EBDBCA"/></linearGradient><clipPath id="a"><path fill="#fff" d="M27 3h141v128h-141z"/></clipPath></defs></svg>