<svg width="60" height="60" viewBox="0 0 60 60" xmlns="http://www.w3.org/2000/svg" fill="none"><path d="M39.794 39.664c-6.577-1.481-9.582-5.226-10.149-9.799-1.437-11.584 12.631-28.35 22.519-25.868.479.131.958.348 1.394.697 7.535 5.618 8.276 39.847-13.764 34.97z" fill="#E49271"/><path d="M36.093 32.739c-2.7-.61-4.835-1.611-6.403-2.874-1.481-11.584 12.588-28.35 22.475-25.868.479.131.958.348 1.394.697 3.049 11.584-.174 31.878-17.466 28.045z" fill="#EDA991"/><path d="M35.741 36.267c-.436 1.002-.915 1.916-1.437 2.7-10.018 15.547-33.626-6.097-31.971-19.031.131-.915.348-1.785.74-2.569.523-1.176 1.786-2.047 3.528-2.656 7.622-2.787 24.61.131 29.357 9.581 1.655 3.223 1.829 7.186-.218 11.976z" fill="#E49271"/><path d="M35.958 24.291c-.174 1.524-.653 3.136-1.394 4.877-.436 1.002-.915 1.916-1.437 2.7-8.276 12.934-26.003.174-30.838-11.976.131-.915.348-1.786.74-2.569.523-1.176 1.786-2.047 3.528-2.656 7.666-2.744 24.653.174 29.401 9.624z" fill="#EDA991"/><path d="M46.542 11.481c2.055-1.888 3.1-4.093 2.335-4.926-.765-.832-3.051.023-5.105 1.911-2.055 1.888-3.1 4.093-2.335 4.926.765.832 3.051-.023 5.105-1.911zM12.392 20.546c2.79 0 5.053-.916 5.053-2.047 0-1.13-2.262-2.047-5.053-2.047-2.79 0-5.053.916-5.053 2.047 0 1.131 2.262 2.047 5.053 2.047zM21.675 21.591c1.395 0 2.526-.468 2.526-1.045s-1.131-1.045-2.526-1.045c-1.395 0-2.526.468-2.526 1.045s1.131 1.045 2.526 1.045z" fill="#F2C4B6"/><path d="M51.633 42.227s2.744 11.105-7.884 13.979c-10.628 2.874-31.056-7.011-25.742-21.992l33.626 8.013z" fill="#F2E3CD"/><path d="M18.835 33.169c3.18-2.526 35.368 1.742 33.016 11.758-2.396 9.973-19.557 8.753-28.094 0-6.621-6.837-7.056-10.06-4.922-11.758z" fill="#fff"/><path d="M45.276 42.967c-.044.392-.087.784-.261 1.176-2.396 7.142-19.688 2.526-15.55-4.921.087-.174.218-.348.305-.479 3.267-4.006 15.898-1.785 15.506 4.224z" fill="#E6A251"/><path d="M45.277 42.967c-3.572 4.616-15.768 1.481-15.463-4.224 3.223-4.006 15.855-1.785 15.463 4.224z" fill="#F5CF84"/><path d="M24.835 42.828c.37-.307.073-1.276-.664-2.165s-1.635-1.361-2.005-1.053c-.37.307-.073 1.276.664 2.165s1.635 1.361 2.005 1.053zM21.483 38.313c.37-.307.347-.946-.052-1.428-.399-.481-1.023-.623-1.393-.316-.37.307-.347.946.052 1.428.399.482 1.023.623 1.393.316z" fill="#F2E3CD"/><path d="M38.897 39.318c.075-.475-.365-.939-.983-1.037-.618-.097-1.179.209-1.255.684-.075.475.365.939.983 1.037.618.098 1.179-.209 1.255-.684z" fill="#FFECC8"/></svg>