<svg width="60" height="60" viewBox="0 0 60 60" xmlns="http://www.w3.org/2000/svg" fill="none"><path d="M6.96 11.699c-1.055 1.874-1.625 4.084-1.203 6.19.739 3.642 4.306 6.127 7.936 6.948 3.63.821 7.409.379 11.123.316 2.786-.042 5.614.126 8.253 1.011 2.638.884 5.087 2.547 6.501 4.948 1.414 2.4 1.625 5.579.148 7.937-.802 1.284-2.005 2.232-3.293 3.032-.929.568-2.005 1.179-2.216 2.232-.317 1.537 1.33 2.674 2.744 3.369 1.076.526 2.237 1.074 3.44.969.802-.063 1.541-.421 2.258-.8 4.327-2.337 7.978-5.979 10.173-10.38 2.174-4.4 2.849-9.579 1.625-14.338-1.879-7.369-8.063-13.116-15.134-15.959-6.416-2.569-13.445-2.969-20.284-2.505-4.791.358-9.625 2.737-12.073 7.032z" fill="#FFB5A9"/><path d="M20.16 25.29c-.021-.274.021-.547.084-.8.274-1.011 1.076-1.79 1.667-2.674.591-.884.971-2.084.359-2.948-.211-.295-.506-.505-.696-.8-.697-1.032.042-2.379.317-3.579.317-1.39-.063-2.927-.992-4-.675-.8-1.71-1.621-1.393-2.611-1.161.421-1.076 2.147-.443 3.2.633 1.053 1.604 2.042 1.583 3.284-.042 2.105-2.934 3.242-3.145 5.327-.084.926.359 1.79.485 2.716.19 1.411-.38 2.19-1.119 2.863 1.055.063 2.174.042 3.293.021zM50.067 32.848l-1.097-2.021c-.169-.316-.359-.653-.697-.737-.76-.232-1.203.821-1.646 1.474-.612.863-1.731 1.2-2.744 1.474l-3.356.884c.317 1.769.063 3.621-.886 5.137l-.253.379c.76-.442 1.393-1.137 2.237-1.347 1.076-.253 2.258.337 3.25-.105 1.034-.463 1.33-1.726 1.879-2.716.654-1.263 1.921-2.169 3.314-2.421zM38.523 29.771c.211-.147.422-.274.675-.379.886-.358 2.026-.547 2.343-1.453.232-.695-.211-1.495 0-2.211.317-1.137 1.942-1.284 2.638-2.232.612-.821.359-2 .654-2.99.338-1.053 1.288-1.79 1.857-2.758.549-.968.401-2.547-.697-2.758.042 1.642-1.667 3.074-3.272 2.758.486 2.19-.95 4.611-3.103 5.242-.823.232-1.857.316-2.258 1.074-.211.379-.19.863-.211 1.305-.042.863-.253 1.747-.718 2.463.76.59 1.477 1.221 2.09 1.937zM32.971 26.155l.507.189.127-.147c1.034-1.348.211-3.263.127-4.948-.085-1.516.464-3.158-.253-4.484-.57-1.074-1.878-1.769-1.984-2.969-.084-.758.359-1.495.317-2.253-.042-.611-.38-1.158-.739-1.642-1.055-1.432-2.385-2.653-3.926-3.579-.464.337-.401 1.053-.084 1.516.317.463.823.758 1.245 1.137 1.161 1.053 1.562 2.821 1.013 4.274-.19.505-.485.968-.549 1.516-.084.842.464 1.6.823 2.379 1.013 2.316-.105 5.327-2.385 6.442-.422.21-.887.379-1.098.779-.127.232-.127.526-.127.8 2.343 0 4.728.232 6.986.99z" fill="#FF9369"/><path d="M19.832 55.748c2.09-.674 4.348-.842 6.501-.442.443.084.887.19 1.33.147.464-.042.908-.253 1.351-.442 2.047-.947 4.095-1.895 6.121-2.863-.253.926-.739 1.811-1.414 2.505 3.841-2.19 7.535-4.653 11.06-7.327.718-.547 1.52-1.284 1.393-2.19-.084-.653-.654-1.137-1.203-1.516-1.963-1.347-5.129-2.8-7.577-2.59-2.343.211-5.129 2.021-7.05 3.263-4.411 2.842-8.105 6.8-10.511 11.453z" fill="#FF7B5C"/><path opacity=".38" d="M9.514 16.893c.844.758 2.216.611 3.145-.063.908-.674 1.456-1.726 1.857-2.779.422-1.053.76-2.147 1.414-3.074.95-1.326 2.448-2.126 3.989-2.611 1.541-.484 3.166-.674 4.77-.968.359-.063.802-.253.802-.632 0-.147-.085-.274-.19-.379-.802-.926-2.195-.905-3.419-.758-2.533.274-5.108.758-7.345 1.979-2.026 1.074-7.788 6.8-5.023 9.285z" fill="#fff"/></svg>