<svg width="194" height="134" viewBox="0 0 194 134" xmlns="http://www.w3.org/2000/svg" fill="none"><g clip-path="url(#a)"><path d="M162.122 31.56l-4.537 76.806c-.588 10.347-9.209 18.433-19.57 18.319l-81.162-.559c-6.768-.058-12.688-3.506-16.166-8.835-1.844-2.815-2.98-6.172-3.182-9.816l-.09-1.57-3.417-75.253c-.194-4.079.871-7.877 2.854-11.09 3.469-5.584 9.657-9.32 16.699-9.263l89.254.595c2.514.012 4.888.517 7.113 1.401 7.572 3.008 12.713 10.642 12.204 19.265z" fill="url(#b)"/><path opacity=".09" d="M138.059 126.702l-81.169-.56c-6.769-.057-12.689-3.506-16.167-8.835l2.962-1.674c40.786-23.487 74.743-58.788 96.531-100.569l2.15-4.189.435.008c11.136.093 19.951 9.516 19.318 20.668l-4.536 76.812c-.588 10.347-9.144 18.406-19.524 18.339z" fill="#380000"/><path opacity=".702" d="M130.155 114.791c6.378 2.534 13.596-.587 16.121-6.971 2.526-6.384-.597-13.613-6.975-16.147-6.378-2.534-13.595.587-16.121 6.971-2.525 6.384.597 13.613 6.975 16.147z" fill="url(#c)"/><path opacity=".702" d="M56.87 114.316c6.378 2.533 13.596-.588 16.121-6.971 2.526-6.384-.597-13.614-6.975-16.147-6.378-2.534-13.596.587-16.121 6.971-2.526 6.384.597 13.613 6.975 16.147z" fill="url(#d)"/><path opacity=".259" d="M143.95 31.517c3.553-.398 8.948 4.377 8.948 4.377s-7.28 10.648 2.152 29.307c3.589 7.127.884 20.47-1.232 29.003-1.557 6.288-8.498 13.727-14.901 18.42-8.486 6.222-23.866 8.828-34.352 8.061-21.946-1.702-36.775-9.073-52.086-24.914 12.993 1.489 26.05 2.126 39.075 1.874 13.347-.234 27.587-1.758 37.785-10.37 7.088-6.01 11.236-14.833 13.284-23.887 2.086-9.148 2.186-18.538 1.327-31.871z" fill="#380000"/><path opacity=".702" d="M53.197 44.476c6.378 2.534 13.596-.587 16.121-6.971 2.526-6.384-.597-13.613-6.975-16.147-6.378-2.534-13.596.587-16.121 6.971-2.526 6.384.597 13.613 6.975 16.147z" fill="url(#e)"/><path opacity=".702" d="M127.008 33.372c.388-16.346 24.691-16.174 24.852.17-.388 16.346-24.673 16.127-24.852-.17z" fill="url(#f)"/><path opacity=".22" d="M162.122 31.56l-4.537 76.807c-.588 10.346-9.209 18.433-19.569 18.319l-81.163-.56c-6.768-.057-12.688-3.506-16.166-8.834-1.844-2.816-2.98-6.173-3.182-9.816l-.09-1.571c1.412 3.631 3.465 7.023 6.187 9.694 1.176 1.18 2.522 2.208 4.009 3.018 5.266 3.024 11.582 3.395 17.613 3.654 20.383.807 40.762.79 61.158-.097 6.578-.292 13.637-.832 18.66-5.085 5.448-4.633 6.972-12.36 7.911-19.442 2.793-20.763 3.921-41.749 3.29-62.72-.13-4.931-.527-10.296-3.716-14.139-2.98-3.541-7.646-5.176-12.337-5.778-.993-.12-1.938-.222-2.903-.276-35.16-1.799-51.882-1.754-79.409-1.946-10.928-.066-16.639 2.051-21.028 6.776 3.469-5.584 9.657-9.32 16.699-9.263l89.254.595c11.183.112 19.997 9.534 19.317 20.666z" fill="#380000"/><path opacity=".2" d="M84.627 49.83c-2.96 2.223-4.384 6.097-4.314 9.798.07 3.7 1.5 7.284 3.288 10.516 4.537 8.051 12.349 14.883 21.569 15.805 8.274.82 16.785-3.528 21.09-10.533 4.305-7.006 4.405-16.395.334-23.548-4.07-7.154-12.027-11.959-20.318-12.458-8.311-.451-14.719 5.226-21.648 10.421z" fill="#380000"/><path d="M148.646 83.219l-.094.237-.093.237-.057.142-.056.142-.056.142-.432.815c-2.216 4.217-6.161 11.145-13.882 17.231-20.683 16.283-47.845 10.587-54.061 9.268-12.129-2.572-20.78-7.983-22.42-9.237-.095-.038-.123-.104-.199-.189-.076-.085-.123-.104-.218-.141l-.218-.142c-.465-.349-1.081-.868-1.745-1.406-.294-.226-.588-.453-.834-.66-.493-.415-.958-.764-1.403-1.161l-.294-.226c-.123-.104-.247-.208-.417-.33l-.246-.208-.294-.226-.123-.104-.37-.311c-.171-.123-.341-.245-.493-.415l-.047-.019-.123-.104-.123-.104-.047-.019-.123-.104-.047-.019.305-2.017.028-.208.628-4.081.038-.095c.198-.086.396-.171.576-.21l.066-.029.576-.21c.132-.057.245-.067.33-.143l.132-.057c.066-.029.132-.057.246-.067l.689-.219.312-.095.935-.286.671-.172c.113-.01.246-.067.312-.096.312-.095.671-.172 1.03-.249l.718-.153.831-.163c.472-.086.945-.173 1.436-.306.293-.048.538-.115.765-.134l1.058-.182c.161.009.293-.048.472-.086l.472-.086c.179-.038.293-.048.454-.039.567-.049 1.153-.145 1.767-.175.274-.001.614-.03.907-.078.501-.02 2.344-.11 4.774-.022l.113-.01c3.357.238 5.77.922 9.742 1.405 1.192.309 2.034.534 2.479.656 6.927 1.876 20.201 2.107 31.336-3.609 5.36-2.749 9.317-6.383 12.029-9.362 1.046-.845 1.734-1.613 2.214-2.135 2.797-3.055 4.356-5.888 7.126-11.091 3.268-6.046 6.362-10.408 7.011-16.618l.019-.047.045-.53-.001-.274.009-.161.018-.322.019-.047.017-.322-.01-.114.008-.435.019-.047-.001-.274c.027-.483.072-1.013.07-1.562l.052-1.24.008-.435c.008-.435.016-.871.043-1.353.008-.161.017-.322-.021-.502.019-2.404.03-4.647-.004-6.36l-.022-.776.056-.142c.038-.095.075-.189.141-.218l.038-.095.122-.171c.019-.047.085-.076.151-.104l.151-.105c.084-.076.217-.133.33-.143.066-.029.18-.038.293-.048l5.186 4.199c.171.123.342.245.493.415-.111.559-.222 1.117-.286 1.695.009.114-.047.256-.084.35l-1.269 7.224s-.954 8.227.326 11.915c.765 2.222 1.585 4.302 2.243 5.824l.458 1.059c.229.529.4.926.562 1.21l.029.066.028.066.029.066c2.17 6.563-1.937 16.113-3.325 19.069z" fill="#F2BE11"/><path opacity=".54" d="M142.724 52.364c-.074 3.095-.548 7.895-2.618 13.266-6.678 17.298-24.841 27.073-39.61 29.097-3.704.501-11.244 1.561-20.243-.754-5.564-1.444-8.521-3.386-14.905-4.278-4.833-.66-9.087-.431-12.356.078-.699.106-1.351.231-1.937.327l.038-.095c.198-.086.396-.171.576-.21l.066-.028.576-.21c.132-.057.245-.067.33-.143l.132-.057c.378-.124.822-.277 1.247-.382l.935-.286.671-.172c.113-.01.245-.067.312-.095.312-.095.671-.172 1.029-.249l.718-.153c.245-.067.538-.115.831-.163.472-.086.945-.173 1.436-.306.293-.048.538-.115.765-.134l1.058-.183c.161.009.293-.048.472-.086l.472-.086c.179-.038.293-.048.454-.039.567-.049 1.153-.145 1.767-.175l.907-.078c1.862-.137 3.375-.084 4.774-.021l.113-.01c3.357.238 5.77.922 9.742 1.405 1.192.309 2.034.534 2.479.656 6.927 1.876 20.201 2.107 31.336-3.609 5.359-2.749 9.317-6.383 12.029-9.362 1.046-.845 1.733-1.613 2.213-2.135 2.797-3.055 4.356-5.888 7.126-11.091 3.268-6.046 6.363-10.408 7.011-16.618l.019-.047.045-.53-.001-.274.009-.161.018-.322.019-.047.018-.322-.01-.114.008-.435.018-.047-.001-.275c.027-.483.072-1.013.07-1.562l.053-1.24.007-.435c.008-.435.016-.871.043-1.353.009-.161.018-.322-.021-.502.223 1.514.436 2.914.466 3.255.857 4.342-.708 10.791-.708 10.791z" fill="#fff"/><path opacity=".369" d="M148.485 83.484l-.094.237-.056.142-.056.142-.056.142-.432.815c-2.216 4.217-6.162 11.145-13.882 17.231-20.683 16.283-47.845 10.587-54.061 9.268-12.129-2.572-20.78-7.983-22.42-9.237-.095-.038-.123-.104-.199-.189-1.081-.868-2.038-1.632-2.949-2.378-.493-.415-.958-.764-1.403-1.161l-.294-.226c-.123-.104-.246-.208-.417-.33l-.247-.208-.294-.226-.123-.104c-.37-.311-.711-.557-1.005-.783l-.047-.019-.171-.123-.123-.104.305-2.017c2.798 2.482 6.865 5.633 12.302 8.506 18.991 10.013 37.415 7.194 41.147 6.484 5.243-.931 23.477-4.1 33.818-17.641 3.265-4.239 7.369-11.707 9.89-20.572.644-2.32 1.072-4.233 1.312-5.672 0 0-1.523-10.691-1.659-14.362-.136-3.672 2.337-15.186 2.337-15.186l.171.397.191.35-1.496 7.244s-.953 8.227.327 11.915c.764 2.222 1.585 4.302 2.242 5.824l.458 1.059c.229.529.4.927.562 1.21l.029.066.028.066.029.066c2.358 6.364-2.303 16.625-3.664 19.373z" fill="#B03B00"/><path d="M51.092 90.038l-.998 6.402s.171.123.493.415c.253-.777.164-1.799.482-2.605l.347-.739c.046-.256.045-.53.044-.805.072-1.013.542-1.923 1.239-2.578.377-.399.858-.646 1.037-.959-.983.268-1.871.573-2.645.868z" fill="#744B32"/><path d="M142.939 31.86l.067.246c.115.265.295.501.428.718l1.13 1.435c.285.387.607.68.683.765.902.906 2.917 1.488 4.062 1.778l.255.047.208.028.16-.265c.128-1.155.021-1.855-.179-2.318-.143-.331-.295-.501-.465-.623-.436-.283-1.079-.319-1.733-1.018-.152-.17-.171-.123-.466-.623-.323-.567-.731-1.058-1.243-1.426-.483-.302-1.023-.461-1.608-.365l-.293.048c-.246.067-.415.219-.603.418-.189.199-.33.417-.423.654.009.113-.018.322.02.502z" fill="#85553F"/><path opacity=".6" d="M142.939 31.86l.067.246c.115.265.295.501.428.718l1.13 1.435c.285.387.607.68.683.765.901.906 2.917 1.488 4.061 1.778l.256.047.208.028.159-.265c.128-1.154.022-1.854-.178-2.318l-.378.124c-.85.21-1.681.373-2.579.29-.851-.064-1.703-.402-2.31-1.082-.427-.444-.637-1.02-.847-1.597-.095-.312-.238-.643-.315-1.002-.01-.113-.067-.246-.096-.312-.188.199-.329.417-.423.654.123.104.096.312.134.492z" fill="#191919"/><path d="M97.479 34.262l.017-3.228c-.012-.663.535-1.213 1.178-1.177l-.018 5.585c-.662.011-1.165-.518-1.177-1.18zM101.595 34.092l-1.578-.011-.009 1.426 1.579.011.008-1.426zM97.489 28.289l.028-2.84c-.012-.663.535-1.213 1.178-1.177l-.047 5.244c-.596-.017-1.146-.565-1.158-1.228zM94.418 29.266l-.017 5.859c-.662.011-1.212-.536-1.177-1.18l.044-3.436c-.04-.729.487-1.232 1.149-1.243zM93.626 35.422l-4.802-.045c.017-.596.497-1.118 1.158-1.129l2.562.032c.596.017 1.098.546 1.082 1.142zM88.829 30.389l.017-5.859c.662-.011 1.212.537 1.177 1.18l-.044 3.436c.107.7-.44 1.251-1.149 1.243zM89.641 24.186l4.802.045c-.017.596-.497 1.118-1.158 1.129l-2.562-.032c-.596-.017-1.117-.499-1.082-1.142zM92.212 30.417l-2.401-.022c-.012-.662.516-1.165 1.159-1.129l2.401.022c.031.615-.497 1.118-1.159 1.129zM102.829 29.314l-.017 5.859c.662-.011 1.19-.514 1.178-1.177l.044-3.436c.007-.71-.543-1.258-1.205-1.246zM103.55 35.52l4.801.045c.017-.596-.486-1.125-1.129-1.161l-2.561-.031c-.614.03-1.123.485-1.111 1.148zM108.376 30.528l.063-5.84c-.661.011-1.189.514-1.177 1.177l-.044 3.436c.011.663.514 1.191 1.158 1.228zM107.702 24.341l-4.801-.045c-.017.596.486 1.125 1.129 1.161l2.561.031c.615-.03 1.095-.551 1.111-1.148zM105.038 30.518l2.4.022c-.011-.662-.514-1.191-1.128-1.161l-2.401-.022c-.017.596.486 1.125 1.129 1.161z" fill="#A3101D"/><path d="M122.446 62.5c-.274 2.632-.567 5.311-1.334 7.802-.785 2.538-2.128 4.964-4.154 6.626-1.046.845-2.226 1.473-3.453 2.081-4.671 2.255-10.082 3.887-15.096 2.717-.397-.103-.795-.206-1.174-.357l-.142-.056c-1.533-.555-2.926-1.327-4.347-2.166-.171-.123-.389-.264-.578-.339-.142-.056-.265-.16-.389-.264-2.198-1.367-4.425-2.8-6.208-4.659-2.116-2.266-3.554-5.139-4.387-8.156l-.067-.246c-.106-.426-.24-.917-.326-1.39l-.048-.293c-.357-2.005-.516-4.097-.258-6.132.184-1.297.53-2.585 1.093-3.732.6-1.241 1.419-2.341 2.313-3.356l.838-.873c1.093-1.101 2.175-2.315 3.239-3.481l.565-.598.255-.228c.612-.579 1.206-1.11 1.847-1.623.877-.693 1.763-1.273 2.744-1.815.981-.542 1.972-.97 2.963-1.399.906-.352 1.794-.658 2.729-.944.689-.219 1.36-.392 2.078-.545 1.483-.288 2.976-.462 4.451-.314.946.102 1.854.298 2.772.608l.899.357c1.184.47 2.311 1.082 3.372 1.723l1.108.66c.559.387 1.119.773 1.659 1.207l.076.085c.939.812 1.679 1.709 2.364 2.748.969 1.427 1.703 3.034 2.408 4.574 1.162 2.6 2.174 5.304 2.307 8.152.127 1.202.028 2.423-.119 3.625z" fill="#9EA635"/><path opacity=".349" d="M115.605 43.39l-.075-.085c-.541-.434-1.034-.849-1.659-1.207-.341-.245-.749-.462-1.109-.66-1.108-.66-2.188-1.253-3.371-1.723-2.66-.892-5.421-1.112-8.171-.67-2.683.414-5.317 1.395-7.751 2.84-1.632.941-3.131 2.1-4.592 3.438l-1.128-.887-.236.18-.745.636 1.289.896c-1.583 1.509-2.967 2.932-4.097 4.402-1.751 2.21-2.943 4.531-3.425 7.135-.257 2.035-.146 4.108.258 6.132l.048.293c.087.473.192.899.326 1.39-.059-.681-.137-1.315-.168-1.93-.633-10.447 4.785-7.527 12.515-11.143 3.802-2.272 5.355-4.121 7.53-6.71 3.8-5.177 8.467-6.173 12.617-3.648.701.443 1.336.915 2.028 1.519.768.689 1.528 1.539 2.278 2.549-.684-1.039-1.472-1.955-2.364-2.748zm-15.552-.424c-.019.047-.422.929-.412 1.317-.015 1.145-2.317 2.533-2.634 3.613-1.009.75-2.293 1.227-2.953 1.787-2.583 2.098-2.911 2.79-8.166 3.059.097-2.045 1.403-4.102 3.288-5.819l.594-.532.254-.228c2.8-2.231 6.415-3.755 9.033-3.866.303.066.653.15.852.339l.104.151-.047-.019.086.199z" fill="#fff"/><path opacity=".37" d="M96.029 48.439s-1.274.59-1.991 1.018c-.132.057-.217.133-.368.237-.283.162-.537.39-.792.617l-.066.029c-.867.807-1.366 1.376-1.989 1.567-1.105.438-2.843.679-3.033.604.357-.626 1.441-1.565 1.703-2.229.291-.597 1.12-1.309 1.553-1.85l.311-.37c.103-.123.207-.247.339-.304.321-.256.641-.513 1.019-.637.444-.153.916-.239 1.37-.278 1.058-.182 2.926-1.304 3.929-1.07.047.019-1.381 2.521-1.985 2.665z" fill="#1E2307"/><path d="M93.689 49.647c-.283.162-.537.389-.792.617l-.066.029-.029-.066c-.474-.462-1.053-1.076-1.414-1.548-.076-.085-.152-.17-.322-.293-.37-.311-.91-.745-1.498-1.198-.123-.104-.246-.207-.388-.264-.388-.264-.777-.528-1.118-.773l-1.289-.896.744-.636.236-.18 1.128.886 1.175.905.123.104.322.292 1.195 1.132 1.916 1.802.076.085z" fill="#D08137"/><path d="M93.689 49.647c-.283.162-.537.389-.792.617l-.029-.066-1.026-1.559c-.133-.217-.285-.387-.465-.623-.361-.472-.759-.85-1.186-1.293l-.398-.377c-.152-.17-.322-.293-.54-.434-.171-.123-.388-.264-.654-.424-.388-.264-.871-.565-1.109-.934l.236-.18 1.128.886 1.175.905.123.104.322.292 1.195 1.132 1.916 1.802.105.151z" fill="#853500"/><path opacity=".188" d="M122.445 62.499c-.274 2.632-.567 5.311-1.333 7.802-.785 2.538-2.128 4.965-4.155 6.626-1.046.845-2.225 1.473-3.452 2.081-4.671 2.255-10.082 3.887-15.097 2.717-.397-.103-.795-.206-1.174-.357l-.142-.056c-1.534-.555-2.926-1.327-4.347-2.166-.171-.123-.388-.264-.578-.339 6.859 1.355 12.332-1.129 15.036-3.672 4.928-4.565 6.246-11.496 6.391-13.247.249-4.231-2.428-7.433-6.305-7.877-2.951-.295-5.37 2.635-9.109 4.055-2.388.915-5.016 1.186-7.538 1.609-2.541.47-5.129 1.196-7.061 2.895-.999.864-1.77 1.982-2.333 3.129l-.067-.246c-.106-.426-.24-.917-.326-1.39.028-.208.103-.398.159-.54.159-.54.336-1.127.542-1.648.833-2.245 2.319-4.341 4.414-5.482 2.491-1.312 5.498-1.159 8.15-2.188 6.06-2.306 8.765-10.111 14.978-11.972 1.492-.449 3.09-.472 4.622-.192l.208.028c.559.387 1.119.773 1.659 1.207l.076.085c.939.812 1.679 1.709 2.364 2.748.969 1.427 1.703 3.034 2.408 4.575 1.162 2.6 2.174 5.304 2.307 8.152-.052 1.24-.152 2.461-.299 3.663z" fill="#323B0F"/><path opacity=".522" d="M122.443 62.494c-.274 2.632-.567 5.312-1.334 7.804-.785 2.539-2.128 4.966-4.156 6.627-1.046.845-2.226 1.473-3.453 2.082-4.673 2.255-10.085 3.888-15.102 2.717 4.41-1.592 8.639-3.695 12.061-6.941 4.363-4.242 7.036-10.307 7.572-16.509.436-4.98-.462-10.052-2.369-14.648l-.086-.199c.939.812 1.68 1.709 2.364 2.749.97 1.427 1.704 3.034 2.409 4.576 1.163 2.6 2.175 5.305 2.308 8.154.033 1.164-.067 2.386-.214 3.588z" fill="#323B0F"/><path opacity=".31" d="M85.344 68.92c-.105-3.057 2.153-5.996 4.921-6.486 1.871-.298 3.754.341 5.626.317 2.08.004 4.109-.834 5.673-2.295.782-.731 1.479-1.66 2.508-1.909 1.37-.278 2.66.892 3.411 2.178 1.389 2.58 1.316 5.95.04 8.621-1.276 2.672-3.641 4.637-6.275 5.619-2.634.981-5.508 1.046-8.251.504-3.254-.635-7.467-2.309-7.652-6.549z" fill="#fff"/><path d="M84.482 52.297c.507-1.005 1.203-1.934 1.852-2.882.16-.266-.2-.463-.407-.217-.452.588-.838 1.148-1.337 1.717-.433.541-.942.996-1.346 1.603-.386.559-.657 1.384-.059 1.95.522.481 1.335.366 1.825-.042.104-.123.046-.256-.096-.312-.303-.066-.88-.13-.957-.49-.038-.18.121-.445.178-.587.112-.284.206-.521.347-.739zM96.002 49.198c-.804-.045-1.502.335-2.124.8-.321.256-.612.579-.904.901-.292.322-.555.711-.942.996-.688.494-1.567.638-2.38.754-.831.163-1.644.279-2.389.64-.217.133-.008.435.19.35 1.472-.676 3.174-.547 4.589-1.356.698-.38 1.368-.827 1.943-1.311.594-.531 1.235-1.044 2.009-1.339.293-.048.263-.389.008-.435zM95.724 41.738l-.047-.019c-.095-.038-.255-.047-.293.048-.273.275-.717.428-1.047.57-.396.171-.774.295-1.123.486-.746.362-1.444.742-2.161 1.17-.217.133-.027.483.238.368l2.113-1.188 1.047-.57c.349-.19.764-.409 1.199-.401.113-.01.198-.086.236-.181l.019-.047c-.057-.132-.114-.265-.18-.236zM101.353 40.518c-.293-.226-.596-.292-.965-.329-.369-.037-.775.021-1.2.126-.406.058-.784.182-1.18.353-.198.086-.339.304-.301.483.038.18.285.387.483.302.576-.21 1.228-.334 1.842-.364.161.009.34-.029.52-.068l.34-.029c.179-.038.406-.058.473.188.01.114.171.123.208.028.113-.284-.002-.549-.22-.69zM81.902 55.77c-.142-.056-.322-.018-.378.124-.141.218-.235.455-.281.711-.046.256-.045.53-.026.757.039.18.313.179.388-.01l.149-.654.112-.284.037-.095.019-.047.056-.142c.104-.123.065-.303-.077-.36zM92.109 73.147c-.93-.972-1.983-2.049-2.394-3.363-.191-.624-.193-1.173-.139-1.864l.045-.53.037-.095.028-.208c.009-.161.084-.35.159-.54l.019-.047c.037-.095.075-.189.16-.265.319-.531.156-1.363-.441-1.655-.597-.292-1.314-.139-1.653.439-.479.796-.741 1.734-.68 2.69.079.908.451 1.769.945 2.458.941 1.36 2.221 2.417 3.642 3.256.218.141.425-.105.273-.275zM91.808 65.736c-.445-.122-.973.106-1.066.618-.084.35-.149.653-.167.975l-.036.369.097.587c.097.587.307 1.163.686 1.588.181.236.653.15.718-.153l.083-.625c.019-.047.038-.095.009-.161l.055-.417.009-.161.019-.047.019-.047c.019-.047.038-.095.009-.161l.101-.672c.028-.208.055-.417.13-.606.055-.417-.221-.965-.666-1.087z" fill="#fff"/><path opacity=".6" d="M136.584 64.386c-6.091 12.766-19.07 21.206-32.053 25.917-1.69.534-3.419.889-5.176 1.178 1.041.414 3.241-.302 4.65-.4 11.027-1.43 21.755-7.64 27.839-17.065.687-.769 8.233-11.257 4.74-9.63zM91.454 91.537c-3.344.425-6.411-.957-9.589-1.782-3.168-.711-6.337-1.421-9.57-1.829-.605-.131-6.579-.257-5.243.657 8.246-1.328 16.463 5.444 24.402 2.953zM103.433 15.918c-1.995-.08-4.065.03-6.05.063-2.032.015-4.036.096-6.097.045-4.046-.018-8.102-.149-12.158-.28-2.042-.099-4.056-.131-6.051-.211-1.948-.061-3.961-.094-5.91-.429-1.967-.288-3.991-.434-5.996-.628-.946-.102-1.966-.014-2.968.027s-1.957.1-2.977.188c-3.563.284-7.286.834-10.532 2.394-1.491.723-2.868 1.711-3.922 2.992-1.083 1.214-1.872 2.655-2.425 4.19-1.115 2.956-1.359 6.203-1.452 9.346-.1 3.853-.04 7.714.153 11.519.146 4.06.52 8.101.779 12.151l.703 12.066.171 3.028c.011.388.654.424.596.017-.184-3.965-.302-7.959-.353-11.982-.052-4.023.039-7.989.195-11.983.138-3.947.086-7.97.11-11.907-.006-1.647.017-3.228.125-4.884.026-.757.117-1.543.191-2.282l.046-.256.019-.047c.028-.208.037-.369.111-.559.037-.369.139-.767.223-1.117.187-.748.373-1.497.635-2.16l.206-.521.038-.095.056-.142c.15-.379.329-.692.526-1.052.179-.313.357-.626.564-.872l.122-.171.122-.171.311-.37.82-.826c.339-.304.575-.484.811-.665.67-.447 1.387-.875 2.113-1.189.595-.257 1.237-.495 1.992-.744 1.558-.477 3.382-.795 4.893-1.016 1.899-.232 3.809-.351 5.746-.403.454-.039.936-.012 1.437-.032l1.569-.089 2.892-.112c.955-.059 1.909-.119 2.911-.159 1.002-.04 1.966.014 2.997.039l5.89.202c4.009.112 8.026.064 11.996-.004 3.97-.067 7.94-.135 11.93-.25 1.001-.041 1.956-.1 2.977-.188.151-.105.14-.493-.087-.473z" fill="#fff"/></g><defs><linearGradient id="b" x1="30.34" y1="11.152" x2="160.934" y2="118.637" gradientUnits="userSpaceOnUse"><stop stop-color="#EDEDED"/><stop offset="1" stop-color="#EBDBCA"/></linearGradient><linearGradient id="c" x1="123.862" y1="94.265" x2="145.002" y2="111.664" gradientUnits="userSpaceOnUse"><stop stop-color="#B6B3BA"/><stop offset="1" stop-color="#A1988F"/></linearGradient><linearGradient id="d" x1="50.599" y1="93.779" x2="71.739" y2="111.179" gradientUnits="userSpaceOnUse"><stop stop-color="#B6B3BA"/><stop offset="1" stop-color="#A1988F"/></linearGradient><linearGradient id="e" x1="46.916" y1="23.933" x2="68.056" y2="41.332" gradientUnits="userSpaceOnUse"><stop stop-color="#B6B3BA"/><stop offset="1" stop-color="#A1988F"/></linearGradient><linearGradient id="f" x1="128.503" y1="24.407" x2="149.802" y2="41.937" gradientUnits="userSpaceOnUse"><stop stop-color="#B6B3BA"/><stop offset="1" stop-color="#A1988F"/></linearGradient><clipPath id="a"><path fill="#fff" d="M0 0h194v134h-194z"/></clipPath></defs></svg>