<svg width="60" height="60" viewBox="0 0 60 60" xmlns="http://www.w3.org/2000/svg" fill="none"><g clip-path="url(#a)"><path d="M41.186 11.877s9.745-4.963 12.974 2.621c3.201 7.584.365 17.955-2.387 18.123-2.752.139.309-13.857-3.37-15.307-3.679-1.45-9.38.781-9.38.781l2.162-6.217z" fill="#B6D0DD"/><path d="M31.191 53.559c-23.056 0-11.374-24.312-11.093-29.833.168-3.652-3.426-10.483-4.578-15.976-.084-.362-.14-.725-.197-1.087-.309-2.007-.168-3.792.73-5.074.112-.195.281-.362.449-.53.506-.502 1.039-.781 1.629-.948 3.819-.976 9.352 4.572 13.929 4.823 4.353.223 8.341-1.617 11.318-.864.618.167 1.236.418 1.769.864.702.558.843 1.394.702 2.481-.056.446-.169.948-.309 1.506-.955 3.792-3.426 9.647-.421 16.729 4.465 10.483 9.127 27.909-13.929 27.909z" fill="#A5C6D7"/><path d="M31.361 47.453c-17.805 0-8.818-18.792-8.565-23.058.309-4.74-3.847-14.61-6.768-22.835.112-.195.281-.362.449-.53.505-.502 1.039-.781 1.629-.948 3.847-.948 9.38 4.6 13.957 4.851 4.353.223 8.341-1.617 11.317-.864-.281 4.768-4.016 15.279-1.236 21.831 3.454 8.113 7.049 21.552-10.784 21.552z" fill="#B6D0DD"/><path d="M41.976 25.26c.168.725.421 1.478.758 2.258 3.623 8.559 7.442 22.779-11.402 22.779s-9.296-19.851-9.043-24.368l19.686-.669z" fill="#EFECE7"/><path d="M22.289 25.929c-.365 1.756 4.381 3.123 10.419 3.123s9.295-2.426 9.295-3.792c-.056-1.394-18.984-2.844-19.714.669z" fill="#FBFAF8"/><path opacity=".3" d="M19.707 2.927c1.685-1.059 4.971 4.879 6.291 9.201 1.32 4.322 2.359 9.089 1.853 13.271-.393 3.401-4.69 11.515-.73 15.279 3.96 3.764 3.819 5.548 2.696 6.273-2.303 1.478-7.639-.139-8.762-5.242-1.123-5.102 2.331-12.268 3.033-16.31 1.713-9.535-7.723-20.353-4.381-22.472z" fill="#B6D0DD"/><path d="M45.85 7.416c-.056.446-.168.948-.309 1.506-.955.418-2.022.809-3.145 1.115-1.095.307-2.219.502-3.37.586-4.746.279-9.267-1.338-12.862-2.704-2.387-.892-4.858-1.478-8.116-.836-.786.139-1.629.362-2.528.669-.084-.362-.14-.725-.197-1.087.646-.251 1.404-.474 2.331-.669 2.275-.418 5.392-.418 9.267.92 6.206 2.175 10.615 3.346 15.755 1.784 1.011-.307 2.05-.725 3.173-1.283z" fill="#FBFAF8"/><path d="M47.312 11.822c.955-.669 6.937 1.282 6.824 9.87-.112 8.587-1.18 9.256-1.797 9.089-.618-.195 1.123-7.89 0-11.599-1.488-4.907-7.442-5.632-5.027-7.361z" fill="#D3E4EA"/><path d="M35.882 34.684c.233 0 .421-.612.421-1.366 0-.755-.189-1.366-.421-1.366-.233 0-.421.612-.421 1.366 0 .755.189 1.366.421 1.366zM41.132 35.325c.233 0 .421-.612.421-1.366 0-.755-.189-1.366-.421-1.366-.233 0-.421.612-.421 1.366 0 .755.189 1.366.421 1.366zM38.519 37.779c.233 0 .421-.612.421-1.366 0-.755-.189-1.366-.421-1.366-.233 0-.421.612-.421 1.366 0 .755.189 1.366.421 1.366zM41.554 40.818c.233 0 .421-.612.421-1.366 0-.755-.189-1.366-.421-1.366-.233 0-.421.612-.421 1.366 0 .755.189 1.366.421 1.366zM38.66 42.156c.233 0 .421-.612.421-1.366 0-.755-.189-1.366-.421-1.366-.233 0-.421.612-.421 1.366 0 .755.189 1.366.421 1.366zM35.011 41.793c.233 0 .421-.612.421-1.366 0-.755-.189-1.366-.421-1.366-.233 0-.421.612-.421 1.366 0 .755.189 1.366.421 1.366zM37.058 46.087c.233 0 .421-.612.421-1.366 0-.755-.189-1.366-.421-1.366-.233 0-.421.612-.421 1.366 0 .755.189 1.366.421 1.366z" fill="#FBFAF8"/><path opacity=".3" d="M41.021 8.504c1.657.056-1.123 10.316-.253 15.223.786 4.433 5.083 16.561 2.977 19.879-2.106 3.318-7.554 5.158-9.632 2.565-2.106-2.565 3.229-4.879 4.212-9.34 1.685-7.779-6.206-28.69 2.696-28.327z" fill="#B6D0DD"/><path d="M33.66 59.693c-1.713.864-22.382-.279-25.808-1.422-3.454-1.143-4.016-5.13-2.864-11.375.253-1.338.871-2.426 1.769-3.262 3.201-3.095 9.661-3.29 12.581-3.29 3.735 0 14.351 6.552 14.351 6.552 1.404 3.123 1.713 11.961-.028 12.797z" fill="#FFC94F"/><path d="M33.662 46.896s-16.878-3.708-26.932-3.262c3.201-3.095 9.661-3.29 12.581-3.29 3.735 0 14.35 6.552 14.35 6.552zM31.019 50.994c0 .084-.028.167-.056.223-.337 1.004-2.022 1.338-3.735.753-1.713-.585-2.808-1.868-2.471-2.872.084-.251.281-.474.534-.641.702-.474 1.938-.53 3.201-.111 1.573.558 2.64 1.701 2.527 2.649z" fill="#FE9900"/><path d="M31.018 50.994c-.702.474-1.938.53-3.201.111-1.573-.53-2.64-1.701-2.527-2.649.702-.474 1.938-.53 3.201-.111 1.573.558 2.64 1.701 2.527 2.649z" fill="#FCAE04"/><path d="M12.147 53.838c0 1.31-.786 2.398-1.797 2.677-.14.028-.309.056-.477.056-1.264 0-2.275-1.227-2.275-2.732 0-1.506 1.011-2.732 2.275-2.732.169 0 .337.028.477.056 1.039.279 1.797 1.366 1.797 2.677z" fill="#FE9900"/><path d="M12.149 53.838c0 1.31-.786 2.398-1.797 2.677-1.039-.251-1.797-1.366-1.797-2.677 0-1.31.786-2.398 1.797-2.677 1.039.279 1.797 1.366 1.797 2.677zM24.311 57.212c.713 0 1.292-.574 1.292-1.282 0-.708-.578-1.282-1.292-1.282-.713 0-1.292.574-1.292 1.282 0 .708.578 1.282 1.292 1.282z" fill="#FCAE04"/><path d="M19.646 49.795c0 1.171-.646 2.147-1.517 2.398-.14.028-.309.056-.449.056-1.095 0-1.966-1.115-1.966-2.481 0-1.366.871-2.481 1.966-2.481.14 0 .309.028.449.056.871.307 1.517 1.282 1.517 2.453z" fill="#FE9900"/><path d="M19.646 49.795c0 1.171-.646 2.147-1.516 2.398-.871-.251-1.517-1.227-1.517-2.398s.646-2.147 1.517-2.398c.87.251 1.516 1.227 1.516 2.398zM10.043 49.293c.667 0 1.208-.537 1.208-1.199s-.541-1.199-1.208-1.199c-.667 0-1.208.537-1.208 1.199s.541 1.199 1.208 1.199zM17.483 57.63c.465 0 .843-.374.843-.836 0-.462-.377-.837-.843-.837-.465 0-.843.374-.843.837 0 .462.377.836.843.836z" fill="#FCAE04"/></g><defs><clipPath id="a"><path fill="#fff" d="M0 0h60v60h-60z"/></clipPath></defs></svg>