<svg width="137" height="87" viewBox="0 0 137 87" xmlns="http://www.w3.org/2000/svg" fill="none"><g clip-path="url(#a)"><path d="M14.437 79.223h107.623c-3.474-4.954-5.956-7.927-9.876-13.73-24.348.188-57.359.376-81.706.588-6.328 5.003-9.518 7.834-16.04 13.142z" fill="url(#b)"/><ellipse cx="70.983" cy="72.664" rx="37.697" ry="5.055" fill="url(#c)"/></g><g clip-path="url(#d)"><path d="M114.186 49.949c-.715 3.497-.981 7.112-2.045 10.508.781.017 1.48-.574 1.829-1.301.366-.726.466-1.554.565-2.365.366-2.737 1.115-5.406 1.597-8.142.432-2.416 1.397-5.879 3.808-10.254-2.278 2.534-3.525 4.95-4.207 6.555-.865 2.044-1.331 3.919-1.547 5zM111.326 34.661c-.432 6.859-.665 11.876-.815 15.271l-.316 7.636 2.694-.591s.117-18.295.017-21.235c-.1-2.939-.732-7.974-.732-7.974-.282 2.314-.565 4.595-.848 6.892zM104.941 37.684c.798 6.825 1.464 11.791 1.929 15.153l1.064 7.568 2.545-1.115s-3.143-17.991-3.775-20.863c-.632-2.872-2.145-7.669-2.145-7.669l.382 6.926z" fill="#565321"/><path d="M117.045 29.441c-.166 2.196-.648 4.392-1.097 7.5-.15 1.014-.25 1.909-.333 2.703-.149 1.503-.216 2.703-.266 3.784-.116 2.551-.133 4.477-1.014 8.43-.483 2.162-.981 3.919-1.347 5.085l-.466.034-1.463.118c.149-1.031.282-2.027.415-2.973 1.381-9.781 2.262-15.102 2.844-18.211.116-.659.416-2.213.748-4.375.15-.963.3-2.061.433-3.243.332-2.787.499-5.051.598-6.453v.017c.183.608.449 1.554.666 2.703.332 1.841.382 3.362.282 4.882z" fill="#8C8C53"/><path d="M115.697 37.212c-.016.811-.05 1.622-.083 2.433-.066 1.267-.149 2.517-.266 3.784-.316 3.328-.815 6.622-1.513 9.883-.233 1.115-.499 2.247-.765 3.345l-.067.287-.465.034-1.464.118c.15-1.03.283-2.027.416-2.973 1.38-9.781 2.262-15.102 2.844-18.211l.266-1.436c.349-2.01.449-2.956.482-2.956.067 0-.133 3.497-1.081 16.522.499-2.737.948-5.541 1.364-8.413.116-.777.216-1.605.332-2.416z" fill="#757336"/><path d="M111.862 55.896c-.15 1.216-.832 2.45-1.93 2.855-.049-1.301-.182-2.602-.349-3.902-.116-.878-.249-1.757-.399-2.618-.549-3.159-1.247-6.301-1.696-9.477-.233-1.622-.532-4.544-.349-7.906.116-1.977.432-4.781 1.413-8.092v-.017c.333-1.115.732-2.281 1.231-3.497-.067.422-.133.828-.183 1.233-.948 6.892-.582 11.927 0 15.373.698 4.122.998 8.311 1.879 12.383.249 1.216.532 2.45.383 3.666z" fill="#8C8C53"/><path d="M111.861 55.896c-.149 1.216-.831 2.45-1.929 2.855-.05-1.301-.183-2.602-.349-3.902.266-1.858.416-4.713-.283-8.244-1.28-6.436-1.18-8.565-.931-14.325.15-3.615.798-6.301 1.247-7.805-.948 6.892-.582 11.927 0 15.373.699 4.122.998 8.311 1.879 12.383.233 1.216.516 2.45.366 3.666z" fill="#757336"/><path d="M110.246 60.93c-.782.017-1.464-.574-1.83-1.301-.365-.726-.465-1.554-.582-2.365-.365-2.737-1.114-5.406-1.596-8.126-.266-1.453-.715-3.26-1.547-5.44-.149-.389-.316-.811-.499-1.233-.482-1.115-1.064-2.314-1.762-3.598.515.574.981 1.132 1.397 1.672.399.541.765 1.064 1.081 1.571.814 1.267 1.363 2.416 1.729 3.294.865 2.044 1.314 3.919 1.547 4.983.731 3.514.997 7.129 2.062 10.541z" fill="#8C8C53"/><path d="M110.246 60.929c-.782.017-1.464-.574-1.829-1.301-.366-.726-.466-1.554-.583-2.365-.365-2.737-1.114-5.406-1.596-8.126-.266-1.453-.715-3.26-1.547-5.44.666.912 1.181 2.433 1.514 3.632-.366-1.52-.882-3.717-1.281-5.203.815 1.267 1.364 2.416 1.73 3.294.865 2.044 1.314 3.919 1.546 4.983.715 3.497.982 7.112 2.046 10.524z" fill="#757336"/><path opacity=".51" d="M116.649 28.461c-.034.811-.117 1.487-.167 1.926l.516-2.939c-.1 1.656-.266 3.058-.399 4.088-.2 1.52-.433 1.926-.865 4.274-.366 1.977-.499 3.075-.549 3.058-.1-.017.183-3.21.216-3.548.233-2.602.516-4.409.566-5.169.116-2.01.233-4.815.15-8.311.166.929.282 1.706.332 2.264.117 1.081.283 2.517.2 4.358z" fill="#FFDD4E"/><path d="M114.584 41.418c-.133 3.328-.482 7.011-1.147 10.98-.266 1.605-.582 3.125-.915 4.595l-1.463.118c.149-1.03.282-2.027.415-2.973.266-.878.599-1.757.848-2.483.815-2.382 1.747-5.777 2.262-10.237z" fill="#565321"/><path opacity=".51" d="M109.281 52.162l-.116.068c-.549-3.159-1.248-6.301-1.697-9.477-.233-1.622-.532-4.544-.349-7.906.116-1.977.432-4.781 1.414-8.092-.632 2.466-1.198 6.065-.782 10.474.782 8.447 1.53 14.934 1.53 14.934zM105.074 44.02c-.1-.321-.333-.963-.882-1.554-.482-1.115-1.064-2.314-1.762-3.598.515.574.981 1.132 1.397 1.672.282.625.548 1.284.798 1.993.166.524.316 1.014.449 1.487z" fill="#FFDD4E"/><path d="M117.033 56.081l-.433 4.46-.066.676-.117 1.166-.1.997-.066.676-.15 1.504c-.083.372-.266.912-.682 1.385-.848.946-2.095.98-4.39.98-2.328 0-3.609 0-4.473-.98-.433-.473-.616-1.014-.699-1.368l-.166-1.52-.067-.676-.099-1.014-.117-1.149-.066-.676-.483-4.46h12.174z" fill="url(#e)"/></g><path d="M27.255 69.996c-.079-.274.851-.821 1.562-1.139.412-.177 1.641-.715 3.106-.627.544.035 1.079-.062 1.623-.062.254 0 .535.009.711-.177.044-.044.167-.221.412-.574l.026-.035 3.755-9.932c-.132-1.333-.184-2.666-.211-3.999-.018-.697-.018-1.386-.018-2.084v-2.084c0-.697-.009-1.386-.026-2.083l-.061-2.084c-.018-.697-.053-1.395-.079-2.084l-.026-.521-.026-.521c-.018-.344-.035-.697-.061-1.042-.044-.565.079-1.103.316-1.554l.018-.027c.211-.397.518-.733.877-.962.307-.194.658-.318 1.035-.353 1.456-.124 2.097 1.007 2.711 2.242.123.256.219.512.29.777.316 1.165.202 2.446.307 3.655.044.539.132 1.068.149 1.607.026.909-.149 1.81-.395 2.675-.254.901-.474 1.633-.562 2.569l-.193 2.075c-.062.689-.123 1.386-.202 2.075l-.123 1.033-.07.521-.07.521-.079.521c-.018.132-.061.274-.096.397-.105.291-.211.583-.325.874l-.175.433-.184.433-.184.424-.184.424-.386.848-.404.839-.202.415-.21.415-.219.415-.228.406-.465.812-.474.803-1.43 2.56-.254.539c-.474.945-.684 1.086-.772 1.139-.123.071-.333.088-.737.124-.675.053-1.246.026-1.711 0-.237-.018-.526-.035-.913-.088-.64-.088-.825-.177-1.334-.265-.763-.141-1.22-.23-1.825-.15-.456.062-.877.203-1.535.088-.386-.088-.43-.168-.448-.212z" fill="#EDB685"/><path d="M41.434 31.158c-.096-.892-.404-1.536-.842-2.446-.29-.6-.86-1.783-1.965-2.905-.825-.839-2.044-2.084-3.676-2.048-1.018.018-1.737.53-2.114.795-.956.689-1.685 1.766-2.106 2.922-.193.547-.246 1.059-.333 1.616-.193 1.139-.272 1.368-.167 1.704.123.38.298.45.526 1.095.088.247.167.486.211.786.088.742-.219.918-.132 1.536.044.291.193.565.5 1.112.132.23.167.265.737 1.121.465.689.483.733.605.874.333.397.588.689 1.018.839.14.053.491.177.886.062l.746-.424c.14-.053.491-.177.877-.053.228.071.377.203.57.388.281.256.483.539.649.821.175.309.43.839.553 1.58.491-.318 1.158-.856 1.623-1.722.333-.618.535-1.059.412-1.501-.123-.441-.483-.671-.386-1.042l.351-.468c.202-.291.149-.433.509-.962.325-.486.386-.848.535-1.43.175-.742.5-1.483.412-2.251z" fill="#FFD1AB"/><path d="M30.956 31.988c.658-.706 1.044-1.395 2.044-1.572.939-.168 1.895.212 2.553.918l.693.821c.377.397.851.671 1.228 1.059.342.353.605.786.86 1.218l1.132 1.898.483-.538c.14-.15.219-.344.298-.539l-.088-.168c-1.009-1.96-.667-4.635-1.895-6.436-.377-.547-.869-.971-1.36-1.395-.456-.388-.921-.786-1.474-.98-.518-.177-1.088-.168-1.649-.097-.948.115-1.93.424-2.623 1.165-.255.274-.465.592-.64.936l-.132.803c-.105.609-.369 1.068-.167 1.704.158.459.447.839.737 1.201z" fill="#EDB685"/><path d="M31.668 29.269c-.483.177-.886.459-1.062.936-.061.159-.096.335-.211.45-.123.132-.307.159-.474.159-.684.009-1.351-.256-1.851-.733.755.618 1.737.124 1.816-.812.035-.415-.193-.706-.088-1.201.096-.442.369-.901.605-1.271.395-.618.877-1.165 1.202-1.828.193-.397.342-.865.702-1.086.228-.141.5-.159.755-.168 1.114-.044 2.395-.282 3.483-.097-.614-.971-1.263-2.137-.316-3.24.781-.909 2.29-.83 2.895.15.114.185.202.388.351.53.263.247.658.23 1.009.265 1.483.124 2.79 1.324 3.159 2.896.061.265.096.556-.026.804-.202.424-.728.503-1.149.415-.421-.088-.842-.265-1.255-.141-.123.6.167 1.174.412 1.713.561 1.209.965 2.525 1.176 3.876.079.494.123 1.033-.123 1.474-.342.609-.597.989-1.439 1.925-.333.362-.834.927-1.43 1.66-.421-.494-.693-.945-.877-1.271-.29-.521-.386-.786-.737-1.368l-2.193-2.454c-.351-.653-.597-1.457-1.228-1.775-.298-.15-.632-.159-.965-.132-.588.044-1.448.071-2.141.327z" fill="#822323"/><path d="M36.583 32.164c-.044.609 1.044 1.404 1.597 1.059.123-.071.351-.291.439-.618l.026-.168c.035-.406-.246-.583-.412-1.033-.114-.291-.061-.724-.263-.954-.272-.309-.623-.15-.825.168-.167.256-.307.547-.377.848-.062.221-.175.486-.184.697z" fill="#FFD1AB"/><path d="M41.222 34.274c1.053-1.201 1.211-1.51 1.439-1.925.246-.442.202-.98.123-1.474-.211-1.36-.614-2.666-1.176-3.876-.246-.53-.535-1.104-.412-1.713.421-.124.842.062 1.255.141.421.088.947.009 1.149-.415.123-.247.088-.539.026-.803-.369-1.572-1.676-2.772-3.159-2.896-.351-.026-.746-.018-1.009-.265-.158-.141-.237-.353-.351-.53-.614-.989-2.123-1.068-2.895-.15-.948 1.104-.298 2.269.316 3.24-.816-.141-1.737-.044-2.615.035l-.439.035-.43.026-.386.035c-.132.026-.254.062-.369.132-.088.053-.167.124-.228.212l-.096.132c-.149.23-.254.503-.369.751l-.123.238-.035.062-.105.176-.026.044-.123.185-.746 1.059-.035.062c-.237.371-.509.839-.605 1.271-.105.503.123.794.088 1.201-.079.936-1.062 1.43-1.816.812.448.424 1.027.68 1.632.724l.14-.124c.491-.495.79-1.192 1.246-1.73.132-.15.272-.3.386-.468.167-.238.254-.53.351-.803.36-1.015.895-2.048 1.764-2.596.377-.238.763-.327 1.149-.389.202.062.412.115.623.141.711.071 1.413-.256 2.106-.459.702-.194 1.518-.238 2.018.3-.272.892-.219 1.872.132 2.693.386.883 1.105 1.572 1.36 2.516.474 1.73-.886 3.381-.614 5.05l.053.185.009.062.798-.909z" fill="#682626"/><path d="M74.431 55.719c-.088.353-.175.715-.29 1.068-.272.865-.667 1.677-1.334 2.26-.605.53-1.386.821-2.202.927-1.053-.415-1.974-.865-3.939-1.572-.658-.238-1.492-.521-2.483-.83l-.009-.009c-.561-.388-1.219-.415-1.851-.574l-.834-.238s-.755-.203-1.492-.371c-1.43-.318-4.887-.203-6.826-.424-.57-.071-1.983-.609-4.764-1.695l-.263-.106c-.737-.282-1.377-.547-1.948-.777-.518-.212-.974-.406-1.378-.583-2.457-1.086-2.878-1.563-3.264-2.031-.518-.636-.939-1.677-1.764-3.752l-.307-.803c-.272-.75-.483-1.413-.658-2.004-.14-.494-.263-.945-.368-1.368l-.061-.23c-.246-.971-.395-1.651-.456-2.154.14-.053.333-.15.526-.3.386-.309.562-.689.693-.989l.246-.583c.158-.477.254-.98.535-1.395l.017-.027.009-.018.026-.035.053-.062.017-.027c.43-.459 1.728-.229 1.728-.229 1.79.327 2.939.945 2.939.945 2.316 1.254 3.474 1.872 4.299 2.543 1.483 1.545 2.895 3.223 4.694 4.353l.535.318c2.729 1.474 6.879 1.951 9.941 1.519l.237-.035c1.658-.274 3.369-.477 5.045-.203 1.676.274 3.352 1.077 4.343 2.463 1.421 1.986 1.158 4.679.605 7.028z" fill="#FFD1AB"/><path d="M54.075 47.094c.272-.274.562-.547.904-.68.544-.212 1.123-.018 1.667.141 1.728.521 3.536.768 5.343.742.29-.009.658-.079.728-.397.026-.115 0-.221-.061-.318-2.807.124-6.115-.415-8.414-1.651-.5-.274-.974-.583-1.421-.927-.132.424-.228.856-.237 1.307-.017.768.105 1.589.149 2.357.096 1.051.965-.194 1.342-.574zM59.996 56.39c.518.097 1.035.238 1.035.238l1.018.3c.509-.636.921-1.351.737-1.88-.439-1.28-4.203-1.015-6.484-.494-1.395.318-1.746.618-2.79.565-1.404-.071-2.588-1.042-3.904-1.527-.947-.344-1.974-.424-2.983-.256.36.212.877.503 1.509.83 1.176.618 2.483 1.298 3.615 1.669 3.079.998 6.606.238 8.247.556z" fill="#EDB685"/><path d="M54.189 45.31v.079c-.035.468-.553 1.227-.719 1.633-.465 1.095-.921 2.19-1.386 3.275-.158.371-.316.742-.544 1.068l-.044.062-.088.115-.088.106-.053.053-.053.053-.053.053-.096.097-.053.053-.079.071-.193.177-.026.026c-.421.389-.772.856-1.184 1.254-.272.265-.719.653-1.132.777-.105.035-.21.053-.316.044-.175-.018-.325-.106-.483-.185-.465-.265-.939-.503-1.421-.733-.447-.212-.912-.406-1.377-.583l-.228-.088c-.404-.15-.807-.291-1.228-.389-.553-.132-1.105-.274-1.649-.424-.544-.15-1.088-.371-1.483-.812-.728-.812-.939-2.331-.86-3.443.035-.477.07-.953.114-1.439l.009-.15c-.07.883 1.983 2.145 2.597 2.384 1.132.441 2.457.503 3.615-.035 1.535-.715 2.509-2.499 2.176-4.185-.088-.45-.263-.883-.474-1.298-.149-.309-1.079-2.242-3.185-3.673-.693-.468-1.202-.671-1.772-.733-.579-.053-1 .071-1.097.097-.088.026-1.009.318-1.527 1.165l-.263.503c-.219.353-.412.503-.667 1.006l-.026.053c-.255.53-.36 1.059-.404 1.492l-.018.247-.009.159c-.009.318 0 .512-.026.512s-.026-.097-.035-.265c-.017-.238-.044-.618-.158-1.095l-.193-.742-.009-.053v-.009l-.035-.212-.018-.106-.009-.053c-.035-.309-.044-.574-.035-.75l.044-.018c.14-.053.333-.15.526-.3.386-.309.562-.689.693-.989l.246-.583c.325-.821.351-1.104.535-1.395l.017-.027.009-.018.026-.035.053-.062.018-.027c.43-.459 1.728-.229 1.728-.229 1.79.327 2.939.945 2.939.945 2.316 1.254 3.474 1.872 4.299 2.543 1.956 1.572 4.29 3.999 4.676 4.335l.018.018c.228.185.351.229.412.344l.018.035.026.3z" fill="#A35795"/><path d="M54.191 45.31v.079c-.035.468-.553 1.227-.719 1.633-.465 1.095-.921 2.19-1.386 3.276-.158.371-.316.742-.544 1.068l-.044.062-.088.115-.088.106-.053.053-.053.053-.053.053-.096.097-.053.053-.079.071-.193.176c.088-.194.167-.415.263-.68.36-.989.676-1.845 1.026-3.32.342-1.421.509-2.137.395-2.675-.193-.901-.772-1.422-1.395-1.978-3.615-3.178-4.527-4.865-6.413-5.483-.57-.185-.956-.185-2.018-.574-.641-.23-.869-.344-1.246-.282-.597.097-1.079.627-1.386 1.209-.377.697-.649 1.254-.807 1.792-.114.388-.237.689-.316 1.121-.14.777-.097 1.386-.061 1.872.035.486.132 1.148.351 1.916l-.333-.927-.386-1.121c-.079-.221-.158-.459-.228-.689-.018-.044-.114-.371-.193-.742l-.009-.053v-.009l-.035-.212-.018-.106-.009-.053c-.035-.309-.044-.574-.035-.75l.044-.018c.14-.053.333-.15.526-.3.386-.309.562-.689.693-.989.105-.185.184-.38.246-.583.158-.477.255-.98.535-1.395l.018-.027.009-.018.026-.035.053-.062.018-.026c.43-.459 1.728-.23 1.728-.23 1.79.327 2.939.945 2.939.945 2.316 1.254 3.474 1.872 4.299 2.543 1.509 1.572 2.992 2.967 4.676 4.335l.018.018c.228.185.351.23.412.344l.018.035.044.309z" fill="#6B3E63"/><path d="M63.132 57.212c.263-.327.579-.68.956-1.024.851-.768 1.684-1.218 2.316-1.483-.693.141-1.395-.035-2.062-.194-1.43-.344-2.141-.503-2.185-.53-.053-.027-.211-.097-.421-.088l-.017.071c-.193.653-.518 1.572-1.079 2.622.386.106.974.274 1.711.468l.728.177-.026.035.079-.053z" fill="#6A7179"/><path d="M39.267 51.243c.597.565 1.272.724 1.807.848.948.212 1.184.009 2.272.247.5.106.842.247 1.228.389 1.044.389 2.053.856 3.027 1.404.149.088.307.177.483.185.377.035.851-.291 1.202-.591-.105-.115-.246-.203-.36-.274-1.93-1.254-2.895-1.889-3.115-1.969-2.843-1.077-3.623-.433-4.343-1.466-.483-.697-.93-2.154-.948-2.225l-.105-.371c-.132-.371-.325-.883-.561-1.492-.851-2.225-1.29-3.337-1.465-3.311-.272.053.342 1.828-.017 4.609-.097.724-.263 1.572.061 2.596.096.309.298.909.834 1.421z" fill="#6B3E63"/><path d="M61.461 56.805c.289-.556.719-1.501 1.184-2.922-.07-.053-.386-.018-.474-.035l-.395-.079-.053.185c-.193.653-.518 1.572-1.079 2.622.211.071.491.141.816.23z" fill="#CE7965"/><path d="M70.01 58.2l.36.124.649.203 1.263.389 2.509.742 4.992 1.448c.834.238 1.658.486 2.501.706.421.115.834.238 1.255.344l.632.15.641.132 1.29.247 1.298.221 1.307.194 1.316.159.132.044c.219.009.439.009.667 0 .228-.018.448-.035.684-.071.456-.062.921-.141 1.369-.168.447-.026.877.026 1.298.106.421.08.825.212 1.22.38.79.327 1.606.583 2.404.892l2.395.927c.799.3 1.606.565 2.422.803l2.456.697 1.229.344 1.228.335c.789.212 1.579.433 2.369.636.21.221.517.583.833 1.059.439.662.693 1.324 1.185 2.613.438 1.148.5 1.457.517 1.801.027.424.062.945-.219 1.448-.465.83-1.36.848-1.325 1.183.035.344 1.053.706 1.878.433.386-.132.64-.371.824-.556.123-.115.544-.539.808-1.298.184-.538.184-.927.201-1.73.044-2.128.114-1.757.097-2.728-.009-.388-.202-1.289-.202-2.649 0-1.307-.281-4.679-1.772-5.315-.325-.132-.649-.124-.702-.124-.737.035-1.193.565-1.553.821-.491.353-1.386.609-3.141.044l-1.07-.521-2.325-1.148c-.386-.203-.764-.424-1.132-.68-.369-.256-.737-.538-1.097-.83-.719-.591-1.421-1.218-2.167-1.713-.377-.238-.755-.468-1.141-.653-.386-.203-.798-.318-1.228-.336-.439-.018-.904.071-1.351.097-.456.044-.886.018-1.351.106-.465.071-.939.185-1.386.238-.228.018-.447.027-.667 0-.193-.018-.386-.062-.579-.115-.754-.282-1.483-.662-2.185-1.104-.746-.477-1.483-.989-2.246-1.413l-.289-.168-.29-.159-.579-.309-1.158-.618-.29-.15-.29-.15-.597-.256-1.193-.512-4.764-2.039-2.369-1.024-1.167-.512-.561-.256-.184-.088c-1.746-1.033-4.036-.336-5.361 1.748-1.456 2.287-1.202 5.386.579 6.904.211.168.439.327.676.45l.088.044.061.035c.079.053.184.097.298.141zm3.545-9.35l-.018-.009-.026-.018-.017-.009h-.009l.044.027.07.035-.035-.018-.009-.009zm.132.071c.158.097.316.203.447.327-.14-.124-.29-.23-.447-.327z" fill="#FFD1AB"/><path d="M71.463 60.328c.939.256 2.483.689 4.589.848 1.904.15 2.439-.062 4.106.3 1.07.23 1.184.441 2.843.759.904.177 1.807.353 2.702.521l1.57.274c1.325.362 2.421.397 3.159.38 1.807-.062 2.965-.565 4.246-.106.14.053.623.247 1.509.556.342.115.684.238 1.018.362l2.518.953c.228.124.65.468.922.327.254-.132.456-.777.57-1.051.386-.918.658-1.898.921-2.861.062-.221.123-.459.097-.68-.088-.803-.492-.892-1.018-1.324-.763-.618-1.509-1.271-2.299-1.783-.395-.247-.798-.486-1.202-.68-.404-.212-.834-.327-1.299-.336-.316-.009-.36.009-1.413.115 0 0-.675.062-1.413.115-.702.044-1.298.071-1.448.071-1.114.018-2.088-.556-3.29-1.298-1.974-1.218-2.676-1.739-3.641-2.349-.842-.521-2.141-1.262-3.843-1.96-1.369-.547-2.729-1.095-4.097-1.651-.64-.256-1.325-.433-1.983-.644-.298-.097-.623-.15-.886-.336-.272-.185-.518-.424-.737-.689l-.316-.38-.202-.212c-.781-.759-1.886-1.289-1.886-1.289s-.798-.38-1.641-.583c-1.421-.344-3.869-.168-6.808.848.132 1.483.158 3.593-.298 6.092-.298 1.642-.737 3.037-1.158 4.132 2.018.521 3.623 1.068 4.694 1.466 2.737 1.024 3.211 1.492 5.413 2.092z" fill="#FFE343"/><path d="M98.846 64.857l-1.632-.618c-.342-.124-.675-.247-1.018-.362-.877-.309-1.369-.503-1.509-.556-1.281-.468-2.439.044-4.246.106-.737.026-1.834-.018-3.159-.38l-1.57-.274c-.904-.177-1.807-.353-2.702-.521-.465-.097-.956-.212-1.456-.344-.465-.124-.912-.265-1.334-.406l-.053-.009c-1.658-.362-2.202-.15-4.106-.3-2.097-.159-3.65-.591-4.589-.847-.781-.212-1.351-.415-1.878-.627-.956-.38-1.781-.812-3.553-1.466-.597-.221-1.351-.486-2.246-.768-.728-.23-1.544-.468-2.448-.697l.017-.053c.412-1.086.842-2.463 1.141-4.079.175-.936.272-1.819.333-2.64l.149.265c.202.397.351.697.395.803l.956 2.163c.132.3.465.909 3.659 2.375 1.983.909 3.001 1.368 4.475 1.633 1.263.23 1.79.133 2.746.212 2.421.203 3.027 1.13 6.221 2.507 3.097 1.342 5.843 2.56 8.896 2.207.421-.044 1.465-.203 2.834-.026.439.053 1.921.282 3.448 1.104.798.433 1.474.953 1.676 1.112l.553.486z" fill="#D38929"/><path d="M100.065 64.23c-.114.247-.289.547-.561.874l.228.088c.228.124.649.468.921.327.255-.132.456-.777.571-1.051.386-.918.658-1.898.921-2.861.061-.221.123-.459.096-.68-.087-.803-.491-.892-1.017-1.324l-.036-.035c.053.424.062.945-.105 1.51l-.149.424c-.544 1.43-.509 1.969-.869 2.728zM62.86 53.22c.702-2.331.439-5.341.272-6.683-.377.026-.702.035-.956.044.096.768.184 1.845.14 3.125-.026.998-.079 2.481-.597 4.247-.193.653-.518 1.572-1.079 2.622l.816.221c.342-.627.86-1.775 1.404-3.576z" fill="#6B3E63"/><path d="M46.479 44.869c.149.689.298 1.421.07 2.101-.184.521-.57.936-.983 1.298-.184.159-.386.318-.614.371-.228.053-.465 0-.684-.053-.57-.132-1.149-.282-1.614-.636-.465-.362-.763-.901-1.053-1.422-.105-.194-.219-.397-.263-.618-.07-.327 0-.671.07-.998.281-1.28.421-5.068 2.369-4.767 1.79.274 2.387 3.258 2.702 4.723z" fill="#EDB685"/><path d="M26.923 74.56c-.088-.309.965-.936 1.772-1.289.465-.203 1.869-.803 3.518-.715.614.035 1.228-.071 1.843-.071.289 0 .605.009.807-.203.053-.053.193-.256.465-.653l.026-.035 4.255-11.248c-.149-1.519-.21-3.028-.246-4.538-.018-.786-.026-1.572-.018-2.366v-2.357c0-.786-.009-1.572-.026-2.366-.017-.786-.044-1.58-.07-2.366-.017-.786-.061-1.58-.096-2.366l-.026-.591-.035-.592-.07-1.183c-.044-.644.088-1.254.36-1.766l.018-.026c.237-.45.579-.83.991-1.095.351-.221.746-.362 1.176-.397 1.658-.133 2.378 1.139 3.071 2.543.14.283.246.583.333.883.36 1.316.228 2.772.342 4.141.053.609.149 1.218.167 1.828.035 1.033-.167 2.048-.448 3.028-.289 1.015-.535 1.845-.64 2.913l-.219 2.349c-.07.786-.14 1.572-.228 2.348l-.14 1.174-.079.583-.088.583-.096.591c-.026.15-.061.309-.114.45-.114.336-.237.662-.368.989l-.193.486-.202.486-.211.486-.211.486-.439.954-.456.953-.228.477-.237.468-.246.468-.255.459-.526.918-.544.909-1.623 2.905c-.061.141-.158.353-.289.609-.544 1.068-.781 1.236-.869 1.289-.14.079-.377.106-.842.132-.763.053-1.404.035-1.939 0-.272-.018-.597-.044-1.035-.106-.719-.097-.939-.194-1.518-.309-.86-.159-1.386-.256-2.062-.168-.518.071-1 .23-1.746.106-.404-.053-.456-.132-.465-.185z" fill="#FFD1AB"/><path d="M42.233 61.379c.123.221.36.344.597.327l.096-.035c.053-.053.044-.15.026-.221-.053-.23-.105-.468-.255-.618-.14-.15-.404-.185-.562-.009.009.106.114.133.193.159.079.026.167.124.114.221-.053.097-.175.044-.246-.026-.009.168.044.318.149.424l-.114-.221z" fill="#EDB685"/><path d="M110.576 76.379c-.237-.415 1.501-1.21 1.413-2.393-.053-.715-.799-1.775-1.009-2.446-.026-.088-.132-.433-.307-.9l-.185-.477c-.245-.565-.403-.945-.736-1.28-.308-.3-.527-.353-.553-.591-.018-.168.079-.362.21-.406.202-.062.457.265.509.335l.149.256.035-.177.062-.388c.158-1.263.079-1.88.079-1.88-.053-.406-.141-.998-.562-1.572-.184-.256-.386-.433-.526-.547-.053-.035-.202-.15-.202-.309s.149-.274.272-.362c.377-.274.72-.238 1.158-.45.299-.15.36-.247.553-.362 0 0 .798-.477 1.983-.035.465.177 1.307.812 1.702 8.846.096 1.933.114 3.24-.763 4.123-.781.786-2.089 1.042-2.229 1.068-.421.053-.93.15-1.053-.053z" fill="#A35795"/><path d="M110.576 76.379c.132-.3.922.079 1.904-.327.202-.088.632-.256.965-.68.342-.433.527-1.033.693-1.598l.018-.071c.035-.132.044-.3.132-1.006.114-.945.175-1.413.166-1.669-.009-.565-.149-1.024-.43-1.942-.298-.971-.395-.998-.526-1.633-.088-.424-.062-.468-.158-1.686-.132-1.624-.237-2.075-.307-2.34-.132-.503-.29-.909-.404-1.174.062-.062.351-.353.772-.344.562.018.869.565.913.645.114.203.149.38.149.441.088.927.184 1.801.272 2.675.096.892.193 1.775.281 2.746.123 1.854.096 1.81.228 3.708.035.547.035 1.227-.088 2.057-.061.397-.105.653-.228.989-.114.309-.316.821-.772 1.236-.395.353-.86.45-1.772.653-.965.212-1.237.097-1.387 0-.254-.159-.508-.494-.421-.68zM111.111 68.927c0-.08-.044-.15-.114-.185-.097-.053-.219 0-.263.106-.149.353-.342.706-.421.777-.088.035-.15.141-.123.247.026.115.131.194.237.168.07-.018.263-.062.666-1.015l.018-.097zM111.532 70.067c-.404.954-.597.998-.667 1.015-.105.026-.21-.053-.237-.168-.017-.106.035-.212.123-.247.079-.071.272-.433.421-.777.044-.106.167-.15.264-.106.07.035.114.106.114.185l-.018.097zM111.892 70.975c0-.079-.044-.15-.114-.185-.096-.053-.219 0-.263.106-.149.353-.342.706-.421.777-.088.035-.149.141-.123.247.026.115.132.194.237.168.07-.018.263-.062.667-1.015l.017-.097zM112.258 71.929c0-.071-.044-.141-.114-.177-.097-.044-.211 0-.255.097-.14.336-.324.671-.403.742-.088.035-.141.132-.123.23.017.115.123.185.228.159.07-.018.254-.053.64-.962l.027-.088zM112.466 73.068c-.333.803-.5.839-.561.856-.088.018-.176-.044-.202-.141-.017-.088.026-.177.105-.203.062-.062.228-.362.351-.662.035-.088.141-.132.22-.088.061.026.096.088.096.159l-.009.08z" fill="#F2ECCE"/><defs><linearGradient id="b" x1="122.059" y1="72.359" x2="14.434" y2="72.359" gradientUnits="userSpaceOnUse"><stop stop-color="#E39F52"/><stop offset="1" stop-color="#B85C2E"/></linearGradient><radialGradient id="c" cx="0" cy="0" r="1" gradientUnits="userSpaceOnUse" gradientTransform="matrix(0 5.055 -37.697 0 70.983 72.664)"><stop stop-color="#BB6131"/><stop offset="1" stop-color="#BB6131" stop-opacity="0"/></radialGradient><linearGradient id="e" x1="116.87" y1="62.019" x2="105.78" y2="62.019" gradientUnits="userSpaceOnUse"><stop stop-color="#C8C1BD"/><stop offset="1" stop-color="#F2F4F5"/></linearGradient><clipPath id="a"><path fill="#fff" d="M122.059 65.493h-107.622v13.73h107.622z"/></clipPath><clipPath id="d"><path fill="#fff" d="M102.43 21.839h17.528v46.118h-17.528z"/></clipPath></defs></svg>