<svg width="60" height="60" viewBox="0 0 60 60" xmlns="http://www.w3.org/2000/svg" fill="none"><path d="M33.805 5.947c1.138.828 1.389 2.42.561 3.558-.828 1.137-2.42 1.389-3.558.561s-1.389-2.42-.561-3.558c.828-1.137 2.42-1.389 3.558-.561zM26.396 5.773c.509.371.622 1.084.251 1.593-.371.509-1.084.622-1.593.251-.509-.371-.622-1.084-.251-1.593.371-.509 1.084-.622 1.593-.251z" stroke="#93A7B5" stroke-opacity=".3"/><circle cx="32.344" cy="53.368" r="1.375" stroke="#93A7B5" stroke-opacity=".3"/><circle cx="57.188" cy="24.774" r=".5" stroke="#93A7B5" stroke-opacity=".3" stroke-width=".875"/><circle cx="2.344" cy="36.493" r=".5" stroke="#93A7B5" stroke-opacity=".3" stroke-width=".875"/><g clip-path="url(#a)"><path d="M38.08 22.583c-.49 2.539-3.241 2.348-3.241 2.348l-9.316-8.954-.627-.601-.627-.601s1.662-.792 4.086-.246c.272.055.545.136.844.246l.055.027c.627.218 1.444.601 2.315 1.065l.599.355c.763.464 1.553.983 2.288 1.529.136.109.272.218.409.3.708.546 1.335 1.119 1.88 1.692.109.109.218.246.3.355.735.873 1.171 1.747 1.035 2.484z" fill="#005058"/><path d="M29.251 14.803c-.817.3-2.179.737-3.732 1.174l-.681.191-.409.109c.082-.273.191-.546.3-.846l.191-.055c1.335-.355 2.533-.655 3.459-.846.272.055.545.136.844.246l.027.027zM32.166 16.223c-.953.355-2.506.819-4.249 1.31l-.436.109c.082-.273.191-.546.3-.846 1.444-.382 2.778-.71 3.759-.901.218.082.436.218.627.328zM34.863 18.052c-.899.355-2.642.901-4.631 1.447l-.409.109c.082-.273.191-.546.3-.846 1.771-.491 3.378-.846 4.358-1.01.109.109.245.191.381.3zM37.043 20.099c-.926.355-2.588.873-4.522 1.392l-.436.109c.082-.273.191-.546.3-.846 1.771-.464 3.35-.846 4.331-1.01.136.109.218.246.327.355z" fill="#15696D"/><path d="M29.117 43.439c-.191.136-.381.191-.627.191h-.082c-.272-.027-.763-.246-1.389-.601-.272-.136-.545-.328-.872-.519-.354-.246-.735-.491-1.144-.792l-.844-.655-.953-.819c-.3-.273-.572-.546-.844-.819-1.198-1.256-2.179-2.648-2.451-4.013-.136-.683-.109-1.365.191-2.02.381-.846 7.926 1.392 9.098 4.832.136.437.272.846.354 1.228.545 2.102.245 3.494-.436 3.985z" fill="#005058"/><path d="M7.571 13.629c2.152-3.712 19.203-2.511 26.231 7.971 7.028 10.482 11.331 20.446 11.331 20.446s-22.118-.764-31.297-11.711c-9.179-10.946-7.545-14.495-6.265-16.706z" fill="#75A6B5"/><path d="M14.815 21.956c1.835 0 3.323-1.491 3.323-3.33s-1.488-3.33-3.323-3.33-3.323 1.491-3.323 3.33 1.488 3.33 3.323 3.33z" fill="#FCFFFE"/><path d="M14.816 20.618c1.098 0 1.988-.892 1.988-1.993s-.89-1.993-1.988-1.993c-1.098 0-1.988.892-1.988 1.993s.89 1.993 1.988 1.993z" fill="#171918"/><path d="M16.313 19.826c.466 0 .844-.379.844-.846 0-.467-.378-.846-.844-.846-.466 0-.844.379-.844.846 0 .467.378.846.844.846z" fill="#FCFFFE"/><path d="M30.744 23.785c.608-.824.847-1.681.532-1.914-.314-.233-1.063.246-1.671 1.07-.608.824-.847 1.681-.532 1.914.314.233 1.063-.246 1.671-1.07zM25.44 30.471c.608-.824.847-1.681.532-1.914-.314-.233-1.063.246-1.671 1.07-.608.824-.847 1.681-.532 1.914.314.233 1.063-.246 1.671-1.07zM27.643 35.572c.608-.824.847-1.681.532-1.914-.314-.233-1.063.246-1.671 1.07-.608.824-.847 1.681-.532 1.914.314.233 1.063-.246 1.671-1.07zM30.932 29.475c.608-.824.847-1.681.532-1.914-.314-.233-1.063.246-1.671 1.07-.608.824-.847 1.681-.532 1.914.314.233 1.063-.246 1.671-1.07zM36.549 32.023c.608-.824.847-1.681.532-1.914-.314-.233-1.063.246-1.671 1.07-.608.824-.847 1.681-.532 1.914.314.233 1.063-.246 1.671-1.07zM33.975 37.964c.608-.824.847-1.681.532-1.914-.314-.233-1.063.246-1.671 1.07-.608.824-.847 1.681-.532 1.914.314.233 1.063-.246 1.671-1.07zM39.463 37.274c.608-.824.847-1.681.532-1.914-.314-.233-1.063.246-1.671 1.07-.608.824-.847 1.681-.532 1.914.314.233 1.063-.246 1.671-1.07z" fill="#DBEBED"/><path d="M33.394 38.17c-.191.164-.436.246-.681.246h-.055c-.191-.027-.49-.136-.872-.328-.218-.109-.463-.246-.735-.409-.272-.164-.545-.328-.844-.546-.245-.164-.49-.328-.736-.519-.272-.191-.545-.382-.79-.601l-.735-.601-.736-.655c-.245-.246-.517-.491-.735-.737-.218-.246-.436-.491-.627-.737-.245-.3-.49-.628-.708-.955-.926-1.42-1.362-2.894-.79-4.204.381-.846 7.926 1.392 9.07 4.832.953 2.784.736 4.586-.027 5.214zM45.242 41.719c1.58-.137 3.595 13.703 0 13.594-3.596-.109-4.304-13.212 0-13.594zM44.779 41.937c-.408-1.529 12.775-6.087 13.32-2.511.545 3.576-12.176 6.688-13.32 2.511z" fill="#005058"/><path d="M45.079 44.039c1.035-.082 2.37 9.063 0 8.981-2.37-.082-2.86-8.762 0-8.981zM47.695 41.801c-.3-1.01 8.308-4.313 8.744-1.965.436 2.347-7.872 4.722-8.744 1.965z" fill="#15696D"/><path d="M22.853 18.98s1.525 7.425-7.817 7.043M25.464 21.328s.518 7.561-7.327 7.179" stroke="#005058" stroke-miterlimit="10" stroke-linecap="round"/><path d="M25.822 33.284c-.245-.3-.49-.628-.708-.955.055-1.938.191-3.276.327-3.276.191 0 .354 1.802.381 4.231zM23.261 40.217c-.3-.273-.572-.546-.844-.819-.245-1.392-.354-2.348-.245-2.375.136-.027.572 1.283 1.09 3.194zM25.055 41.718l-.844-.655c-.354-1.829-.517-3.112-.381-3.139.163-.055.654 1.556 1.226 3.794zM27.045 43.029c-.272-.137-.545-.328-.872-.519-.49-2.293-.735-3.985-.572-4.04.191-.055.817 1.938 1.444 4.559zM29.114 43.439c-.191.137-.381.191-.627.191h-.082c-.518-2.402-.79-4.231-.599-4.258.164-.027.736 1.692 1.308 4.067zM27.208 34.758c-.245-.246-.518-.491-.735-.737.027-2.648.163-4.641.354-4.641.191-.027.354 2.375.381 5.378zM28.681 35.658v.355l-.736-.601c0-2.975.163-5.35.354-5.35.191 0 .381 2.511.381 5.596zM30.204 36.696v.437c-.245-.164-.49-.328-.735-.519 0-3.057.163-5.514.354-5.514.218 0 .381 2.511.381 5.596zM31.786 37.515v.546c-.218-.109-.463-.246-.735-.409v-.164c0-3.085.163-5.623.354-5.623.191 0 .381 2.566.381 5.651zM33.392 38.17c-.191.164-.436.246-.681.246h-.055c.027-2.73.163-4.832.354-4.832.191 0 .354 1.965.381 4.586z" fill="#15696D"/><path d="M6.969 14.831s.027 1.146 1.09 1.802" stroke="#212120" stroke-miterlimit="10" stroke-linecap="round"/></g><defs><clipPath id="a"><path fill="#fff" d="M6.563 11.719h51.563v43.594h-51.563z"/></clipPath></defs></svg>