<svg width="95" height="90" viewBox="0 0 95 90" xmlns="http://www.w3.org/2000/svg" fill="none"><mask id="a" style="mask-type:alpha" maskUnits="userSpaceOnUse" x="0" y="0" width="95" height="90"><rect width="95" height="90" rx="20" fill="#C4C4C4"/></mask><g mask="url(#a)"><path d="M94.998.109h-94.779v95.325h94.779v-95.325z" fill="url(#b)"/><path d="M19.842.038s5.149 11.383 7.374 18.454c2.225 7.089 5.443 13.642-.055 22.971-5.48 9.329-21.277 15.715-27.161 32.633v21.416h69.825s-3.77-4.665-.864-9.847c2.924-5.183 5.664-15.715 6.528-27.283.864-11.569 2.225-16.751 5.314-22.804 3.09-6.053 1.195-17.436 3.954-20.379 2.74-2.925 10.133-4.313 9.434-15.197l-74.349.037z" fill="url(#c)"/><path opacity=".48" d="M51.053 63.044c-.221-6.793 2.28-21.767 6.859-31.096 4.579-9.329 3.089-12.328 3.089-12.328l-3.66-3.683-27.934 9.44c1.251 4.776 1.526 9.792-2.17 16.085-1.949 3.313-5.223 6.256-8.864 9.44l-.184.5s33.083 18.436 32.862 11.643z" fill="url(#d)"/><path opacity=".15" d="M32.163 28.616s-.864.241-2.023.592c.386 3.665-.166 7.626-2.905 12.272-1.857 3.165-4.91 5.997-8.367 9.014.552 1.092 1.894 1.647 4.469 1.166 10.758-1.962 11.218-12.439 10.868-16.011-.331-3.591-2.041-7.034-2.041-7.034z" fill="url(#e)"/><path d="M82.073 24.692c-.349-.222-10.077-1.962-10.077-1.962s-.57 10.476-3.66 18.195c-3.089 7.719-4.358 11.402-4.119 14.734.221 3.332 1.379 20.268-8.588 32.818l13.406-2.943c2.887-5.22 5.609-15.678 6.455-27.172.864-11.569 2.225-16.751 5.315-22.804 1.453-2.851 1.802-6.867 2.06-10.643-.441-.093-.736-.167-.791-.222z" fill="url(#f)"/><path opacity=".15" d="M81.94 32.355c-.588 1.203-1.434 2.684-2.611 4.424-3.77 5.534-5.609 12.087-5.829 16.918-.221 4.831-3.089 15.881-3.089 15.881l3.862-1.277c.552-3.147.975-6.497 1.232-9.94.864-11.569 2.225-16.751 5.315-22.804.478-.944.828-2.036 1.122-3.202z" fill="url(#g)"/><path d="M68.96 85.663c2.832-5.016 5.48-15.048 6.436-26.173-1.287 4.35-7.227 3.128-13.479 1.592-6.528-1.61-16.826-8.052-25.764-14.623-5.223-3.831-7.613-5.035-8.717-5.368l-.258.37c-5.498 9.329-21.295 15.715-27.18 32.633v21.416h69.825s-3.788-4.665-.864-9.847z" fill="url(#h)"/><path opacity=".46" d="M61.915 61.082c-6.528-1.61-16.826-8.052-25.764-14.623-5.223-3.831-7.613-5.035-8.717-5.368l-.221.37c-3.347 5.682-10.519 10.273-16.937 16.825.184.389.276.611.276.611s4.634 8.459 23.355 17.788 18.886 11.92 24.035 11.735c2.924-.093 7.337-1.37 11.052-2.888 2.795-5.053 5.425-15.011 6.363-26.043-1.269 4.368-7.19 3.128-13.443 1.592z" fill="url(#i)"/><path opacity=".46" d="M75.363 59.954c.018-.148.037-.296.037-.462-.055.203-.128.389-.22.574l.183-.111z" fill="url(#j)"/><path opacity=".46" d="M58.774 87.865c-5.37.185-5.554-2.517-25.047-12.235-14.601-7.274-20.982-14.049-23.263-16.992l.11.259s4.634 8.459 23.355 17.788 18.886 11.92 24.035 11.735c2.924-.093 7.337-1.37 11.052-2.888l.11-.222c-3.586 1.388-7.595 2.462-10.353 2.554zM33.926 45.738c9.618 7.071 20.725 14.012 27.75 15.752 5.682 1.407 11.126 2.554 13.516.074l.202-2.055c-1.287 4.35-7.227 3.128-13.48 1.592-6.528-1.61-16.826-8.052-25.764-14.623-5.223-3.831-7.613-5.035-8.717-5.368l-.11.204c1.526.851 3.641 2.24 6.602 4.424z" fill="#207002"/><path opacity=".46" d="M68.963 85.663c.46-.814.901-1.758 1.342-2.813-.423.999-.846 1.906-1.287 2.684-3.715 1.518-8.128 2.795-11.052 2.888-.901.037-1.637-.019-2.354-.185-1.379 1.777-3.402 4.498-4.855 7.274h19.051c.018 0-3.77-4.665-.846-9.847z" fill="url(#k)"/><path d="M65.693 47.755s-1.71 4.405-1.545 8.292c0 0 .166 1.555.166 2.166 0 0 .68-1.647.607-3.461-.074-1.814-.074-4.054.772-6.997z" fill="#E57E5A"/><path opacity=".4" d="M82.59 28.227l-1.857-3.35s-23.005-3.794-23.612-3.72c-.607.093-25.672 7.348-25.672 7.348l-1.195 3.184s12.008-7.756 31.409-8.366c0 0 8.496.093 10.133 2.166 0-.018 5.977-1.222 10.795 2.739z" fill="url(#l)"/><path d="M19.844.037s5.149 11.383 7.374 18.454c1.361 4.331 3.126 8.477 3.016 13.179 1.876-1.555 5.885-3.794 14.509-6.108 15.962-4.313 22.325-2.943 26.61-1.721 3.328.944 9.213 1.148 11.236 4.405.552-5.386.331-11.087 2.152-13.031 2.758-2.962 10.151-4.331 9.452-15.215l-74.349.037z" fill="url(#m)"/><path opacity=".46" d="M71.372 23.841c3.329.944 9.213 1.148 11.236 4.405.404-3.924.404-8.015 1.067-10.699-2.354-1.851-6.216-4.072-12.137-5.386-11.457-2.554-28.963 1.018-37.772 5.053-2.887 1.314-4.689 2.517-5.793 3.535 1.177 3.554 2.372 7.052 2.28 10.939 1.876-1.555 5.885-3.794 14.509-6.108 15.962-4.331 22.307-2.962 26.61-1.74z" fill="url(#n)"/><path opacity=".46" d="M32.018 19.231c9.654-4.405 28.816-8.311 41.34-5.553 4.413.981 7.779 2.425 10.298 3.887v-.037c-2.354-1.851-6.216-4.072-12.137-5.386-11.438-2.536-28.945 1.037-37.754 5.072-2.887 1.314-4.689 2.517-5.793 3.535.055.167.11.352.184.518 1.03-.648 2.299-1.333 3.862-2.036z" fill="#207002"/></g><defs><linearGradient id="b" x1="127.395" y1="61.239" x2="-2.39" y2="49.262" gradientUnits="userSpaceOnUse"><stop stop-color="#B0BBA7"/><stop offset="1" stop-color="#F3F2EE"/></linearGradient><linearGradient id="c" y1="47.759" x2="94.245" y2="47.759" gradientUnits="userSpaceOnUse"><stop stop-color="#FBCEB7"/><stop offset="1" stop-color="#F49167"/></linearGradient><linearGradient id="d" x1="72.196" y1="31.908" x2="33.557" y2="47.172" gradientUnits="userSpaceOnUse"><stop stop-color="#FBCEB7"/><stop offset="1" stop-color="#F49167"/></linearGradient><linearGradient id="e" x1="46.322" y1="14.255" x2="23.115" y2="49.356" gradientUnits="userSpaceOnUse"><stop stop-color="#FBCEB7"/><stop offset="1" stop-color="#F49167"/></linearGradient><linearGradient id="f" x1="55.624" y1="55.613" x2="82.864" y2="55.613" gradientUnits="userSpaceOnUse"><stop stop-color="#FBCEB7"/><stop offset="1" stop-color="#F49167"/></linearGradient><linearGradient id="g" x1="70.387" y1="50.981" x2="81.933" y2="50.981" gradientUnits="userSpaceOnUse"><stop stop-color="#FBCEB7"/><stop offset="1" stop-color="#F49167"/></linearGradient><linearGradient id="h" y1="68.303" x2="75.394" y2="68.303" gradientUnits="userSpaceOnUse"><stop stop-color="#85B921"/><stop offset="1" stop-color="#1C6D00"/></linearGradient><linearGradient id="i" x1="10.285" y1="64.766" x2="75.364" y2="64.766" gradientUnits="userSpaceOnUse"><stop stop-color="#59AB32"/><stop offset="1" stop-color="#255913"/></linearGradient><linearGradient id="j" x1="75.18" y1="59.778" x2="75.4" y2="59.778" gradientUnits="userSpaceOnUse"><stop stop-color="#8DB145"/><stop offset="1" stop-color="#3A941A"/></linearGradient><linearGradient id="k" x1="50.764" y1="89.186" x2="70.312" y2="89.186" gradientUnits="userSpaceOnUse"><stop stop-color="#85B921"/><stop offset="1" stop-color="#1C6D00"/></linearGradient><linearGradient id="l" x1="64.945" y1="13.87" x2="48.32" y2="43.891" gradientUnits="userSpaceOnUse"><stop stop-color="#FBCEB7"/><stop offset="1" stop-color="#F49167"/></linearGradient><linearGradient id="m" x1="19.852" y1="15.838" x2="94.246" y2="15.838" gradientUnits="userSpaceOnUse"><stop stop-color="#8DB145"/><stop offset="1" stop-color="#3A941A"/></linearGradient><linearGradient id="n" x1="27.979" y1="21.497" x2="83.68" y2="21.497" gradientUnits="userSpaceOnUse"><stop stop-color="#59AB32"/><stop offset="1" stop-color="#255913"/></linearGradient></defs></svg>