<svg width="60" height="60" viewBox="0 0 60 60" xmlns="http://www.w3.org/2000/svg" fill="none"><path d="M45.394 6.964l-2.731 1.987 2.731 1.076-1.448 1.449 1.448 1.656-1.655 1.076 1.655.745-1.986 3.311-1.283 1.449-17.338 17.136-11.752-4.884-3.352-1.407s-2.028-6.995-1.821-9.023h1.821v-3.27l1.986 1.076v-5.091l2.566 1.283v-3.104h1.283v-2.732l1.986.911.869-4.76.786 1.449 2.152-3.808.745 1.283 2.359-2.566v1.656l3.848-2.359 1.283 1.821 2.731-1.821v1.821l2.359-1.076.828 1.449s4.8-2.194 9.89-2.194c-.124.083-2.524 1.697-1.986 3.642.579 2.028 2.028 1.821 2.028 1.821z" fill="#7AA51B"/><path d="M45.394 1.5c-.455.207-26.69 13.038-32.359 30.464l-3.352-1.407s-2.028-6.995-1.821-9.023h1.821v-3.27l1.986 1.076v-5.091l2.566 1.283v-3.104h1.283v-2.732l1.986.911.869-4.76.786 1.449 2.152-3.808.745 1.283 2.359-2.566v1.656l3.848-2.359 1.283 1.821 2.731-1.821v1.821l2.359-1.076.828 1.449s4.841-2.194 9.931-2.194z" fill="#538800"/><path d="M57.063 46.036c-.331.455-.703.869-1.117 1.242-.372.373-.786.704-1.2.993-.745.58-1.572 1.076-2.441 1.531-1.945.993-4.096 1.656-6.331 1.945-.745.083-1.49.166-2.234.207-1.241.041-2.441 0-3.683-.166-.497-.041-.993-.124-1.49-.207-1.076-.207-2.11-.455-3.145-.828-.579-.207-1.117-.414-1.655-.662-.993-.414-1.903-.911-2.772-1.449-.497-.331-.993-.704-1.49-1.076-.786-.621-1.448-1.283-2.069-2.028-.29-.331-.538-.662-.786-1.035-.124-.166-.248-.331-.331-.538-.703-1.159-1.241-2.401-1.614-3.725-.166-.497-.29-1.035-.372-1.573-.331-1.614-.455-3.311-.414-5.008.041-.911.124-1.863.29-2.773.372-2.111 1.076-4.18 2.11-6.002.91-1.656 2.11-3.104 3.6-4.263 1.2-.952 2.566-1.697 4.138-2.152 3.807-1.118 8.069-1.407 11.876-1.324 6.29.165 11.379 1.324 11.379 1.324s6.166 19.081-.248 27.566z" fill="#A75513"/><path d="M57.061 46.036s1.365-10.265-.455-15.149c0 0-1.448 2.359-4.386 4.884 0 0 1.49-6.54 2.855-9.272-.207.29-3.807 3.353-9.848 5.133 0 0 4.428-4.594 7.697-7.326-.331.083-10.179 2.359-13.904 2.194 0 0 7.159-4.387 10.8-4.553 0 0-7.738-1.283-11.71-.373 0 0 3.517-3.353 7.821-4.346 6.29.166 11.379 1.325 11.379 1.325s6.166 18.998-.248 27.483z" fill="#D9AB85"/><path d="M47.918 49.554c-.662.786-1.324 1.531-1.945 2.235-.745.083-1.49.166-2.234.207.828-1.076 1.821-2.276 2.855-3.518 3.559-4.222 6.786-7.409 7.117-7.119.372.29-2.235 3.932-5.793 8.195zM27.313 29.977c-1.2 1.407-2.317 2.69-3.352 3.767.041-.911.124-1.863.29-2.773.538-.662 1.117-1.366 1.738-2.111 3.6-4.222 6.786-7.409 7.117-7.119.372.331-2.235 3.974-5.793 8.237zM44.278 47.154c-1.531 1.821-2.979 3.435-4.179 4.677-.496-.041-.993-.124-1.49-.207 1.035-1.49 2.607-3.435 4.386-5.546 3.6-4.222 6.786-7.409 7.117-7.119.331.29-2.276 3.974-5.834 8.195zM29.422 35.151c-1.738 2.07-3.393 3.849-4.676 5.133-.165-.497-.29-1.035-.414-1.573.993-1.325 2.276-2.98 3.765-4.677 3.559-4.222 6.786-7.409 7.117-7.078.372.29-2.234 3.973-5.793 8.195zM40.218 45.415c-1.697 2.028-3.352 3.849-4.759 5.381-.579-.207-1.117-.414-1.655-.662 1.324-1.738 2.979-3.849 4.883-6.043 4.759-5.629 8.979-9.892 9.393-9.52.372.373-3.103 5.215-7.862 10.844zM34.922 44.215c-1.365 1.614-2.69 3.146-3.89 4.47-.496-.331-.993-.704-1.49-1.076 1.117-1.449 2.4-3.022 3.807-4.677 4.759-5.629 8.979-9.892 9.393-9.52.414.331-3.062 5.174-7.821 10.803zM31.325 41.194c-1.366 1.614-2.648 3.063-3.848 4.387-.29-.331-.538-.662-.786-1.035-.124-.166-.207-.331-.331-.538 1.034-1.283 2.152-2.69 3.393-4.139 4.759-5.629 8.938-9.892 9.393-9.52.455.373-3.062 5.215-7.821 10.844zM52.304 49.803c-1.945.993-4.096 1.656-6.331 1.945-.745.083-1.49.166-2.234.207-1.241.041-2.441 0-3.683-.166-.497-.041-.993-.124-1.49-.207-1.076-.207-2.11-.455-3.145-.828-.579-.207-1.117-.414-1.655-.662-.993-.414-1.903-.911-2.772-1.449-.497-.331-.993-.704-1.49-1.076-.786-.621-1.448-1.283-2.069-2.028-.29-.331-.538-.662-.786-1.035-.124-.166-.248-.331-.331-.538-.703-1.159-1.241-2.401-1.614-3.725-.166-.497-.29-1.035-.372-1.573-.331-1.614-.455-3.311-.414-5.008.041-.911.124-1.863.29-2.773.372-2.111 1.076-4.18 2.11-6.002.124.455 3.228 22.558 25.986 24.917zM33.723 27.7c.165-.165.331-.331.496-.414-.041 0-.207.166-.496.414z" fill="#954200"/><path d="M34.262 40.2c0 8.113-2.193 12.914-6.372 15.397-.414.248-.828.455-1.283.662-.993.455-2.11.786-3.31 1.035-.414.083-.869.165-1.324.207-1.241.166-2.566.248-3.972.207-.414 0-.828 0-1.283-.041-.91-.041-1.862-.083-2.814-.207l-.29-.041c-.455-.041-.91-.124-1.324-.207-.993-.207-1.945-.579-2.772-.993-.455-.207-.91-.497-1.324-.745-.621-.414-1.159-.828-1.697-1.325-.455-.414-.869-.869-1.283-1.366-4.345-5.091-5.214-12.583-5.214-12.583h34.262z" fill="#A75513"/><path d="M5.876 24.886s-9.021 10.679-4.634 18.336c4.386 7.657 17.752 9.975 25.407 7.202 7.655-2.815 10.386-12.541 4.097-17.384-6.29-4.843-24.869-8.154-24.869-8.154z" fill="#F9E8C1"/><path d="M10.593 29.273s13.862 5.878 11.834 15.149c.041 0-14.648-1.821-11.834-15.149z" fill="#D9AB85"/><path d="M6.498 54.19c-.455-.414-.869-.869-1.283-1.366.124-2.318.372-3.849.621-3.849.29 0 .579 2.111.662 5.215zM9.519 56.26c-.455-.207-.91-.497-1.324-.745.124-2.649.372-4.387.662-4.387.29 0 .538 2.111.662 5.133zM13.613 57.501c-.455-.041-.91-.124-1.324-.207.124-2.856.372-4.801.662-4.801.29 0 .538 2.028.662 5.008zM18.002 57.75c-.414 0-.828 0-1.283-.041.124-2.649.372-4.429.621-4.429.248 0 .538 1.78.662 4.47zM23.297 57.295c-.414.083-.869.166-1.324.207.124-2.98.372-5.05.662-5.05.29.041.538 1.987.662 4.843zM27.888 55.598c-.414.248-.828.455-1.283.662.124-2.815.372-4.719.662-4.719.248 0 .497 1.614.621 4.056z" fill="#954200"/><path d="M40.926 3.9s-19.241 11.507-23.586 19.785" stroke="#3F6504" stroke-miterlimit="10" stroke-linecap="round" stroke-linejoin="round"/><path d="M8.853 33.744l-4.428-1.076M9.518 37.924l-4.303 1.945M12.289 41.69l-2.028 3.684M17.129 44.422v2.235M16.223 30.68l1.779-1.738M19.324 33.371l3.972-2.69M22.262 36.848l5.959-2.318M23.957 41.028l4.593.662" stroke="#D9AB85" stroke-miterlimit="10" stroke-linecap="round" stroke-linejoin="round"/><path d="M26.607 5.35s-1.49 3.518-1.365 9.727M39.476 11.558s-3.848.207-9.683-.248M19.82 20.209s5.048-.166 7.448-.745" stroke="#3F6504" stroke-miterlimit="10" stroke-linecap="round" stroke-linejoin="round"/><path d="M13.077 33.081s8.028 3.394 6.869 8.775c-.041 0-8.524-1.076-6.869-8.775z" fill="#E5BD9E"/></svg>