<svg width="95" height="90" viewBox="0 0 95 90" xmlns="http://www.w3.org/2000/svg" fill="none"><mask id="a" style="mask-type:alpha" maskUnits="userSpaceOnUse" x="0" y="0" width="95" height="90"><rect width="95" height="90" rx="20" fill="#C4C4C4"/></mask><g mask="url(#a)"><path d="M95.004 0h-95v90h95v-90z" fill="url(#b)"/><path d="M36.168 6.995c.205-.026.424-.051.629-.089l-.629.089z" fill="url(#c)"/><path d="M30.648 0c.629 1.033 1.746 3.446.591 6.893 1.849.103 3.711.129 5.56-.026.231-2.052.051-4.286-.681-6.867h-5.47z" fill="url(#d)"/><path d="M44.308 66.736c.616-5.563 2.093-13.915 1.785-18.11-.308-4.208-7.319-12.857-7.319-12.857l-1.027-1.678s-13.38-6.506-8.501-13.102c4.302-5.822 8.346-10.456 7.55-17.62-2.645.529-4.302 1.123-5.098 1.472-.103.994-.385 2.117-.976 3.343-2.517 5.318-7.627 8.532-11.133 13.476-3.506 4.957-4.43 11.011-1.297 18.239 0 0 3.506 8.907 4.238 11.566 1.785 7.112 3.377 22.693 3.634 26.152.244 3.459.064 6.674-1.04 9.836-1.104 3.15-4.186 10.327-2.209 22.512 1.464 9.087 4.546 17.516 6.035 21.569 5.239 1.304 8.706-1.265 9.335-1.768-.026-.349-.038-.697-.051-1.071-.244-6.364.732-22.138.308-29.431-.437-7.293.18-11.011 1.348-14.031 1.156-3.033 3.801-12.934 4.417-18.498z" fill="url(#e)"/><path opacity=".17" d="M44.307 66.736c.616-5.563 2.093-13.915 1.785-18.11-.09-1.149-.668-2.62-1.464-4.169-4.52-1.794-9.361-1.355-11.133-.568-2.671 1.2-5.265 1.484-5.265 1.484-5.483.413-8.77-3.718-10.106-5.873l.167.413.591 1.523c4.867 8.21 14.176 5.447 17.001 5.615 3.133.181 3.043 8.158 3.223 18.084.18 9.927-4.7 14.096-6.921 15.58-2.209 1.484-2.311 4.169-.552 5.383 1.759 1.2 4.43 3.989 5.714 11.127.719 3.989.924 13.683.963 21.454.193-6.855.475-14.819.205-19.414-.437-7.293.18-11.011 1.348-14.031 1.181-3.033 3.827-12.934 4.443-18.497z" fill="#1C5605"/><path opacity=".46" d="M40.139 84.537c1.258-3.627 3.608-12.598 4.173-17.8.616-5.563 2.093-13.915 1.785-18.11-.154-2.13-2.029-5.383-3.827-8.093l-4.443-.994-2.953 2.788c-5.997 5.744-14.022 1.484-14.022 1.484 3.236 3.756 8.552 3.563 12.905 2.478 1.823-.452 3.839-.49 5.624.142 3.428 1.213 4.109 4.531 4.417 7.758.385 4.221.051 8.507-.437 12.702-1.13 9.539-2.812 16.11-3.223 17.646z" fill="#195303"/><path d="M54.893 3.163c.128-.994.36-2.388.475-3.163h-19.248c.655 2.453.475 5.46-.603 10.404-.424 1.91-1.477 3.511-2.645 5.034 1.913-.129 3.814-.361 5.714-.555 6.112-.645 12.777-1.317 18.915-.052-.565-1.239-1.143-2.504-1.695-3.756-2.106-4.841-1.092-6.519-.912-7.913z" fill="url(#f)"/><path d="M66.599 32.387c-2.491-3.24-3.788-5.189-4.982-8.352-1.194-3.163-3.685-8.158-5.817-12.986-1.489-3.382-1.438-5.202-1.207-6.48-1.464-2.117-6.703-2.543-13.354-1.859-1.849.194-3.416.439-4.738.71-.026 1.846-.347 4.092-.989 6.983-.77 3.537-3.724 5.964-5.573 8.907-2.555 4.079-3.531 9.1-2.016 13.747 1.413 4.337 4.892 7.706 8.783 9.901 3.082 1.73 6.446 3.098 9.078 5.499 2.363 2.156 4.122 4.853 5.945 7.448 2.645 3.769 5.355 7.513 8.501 10.882 4.263 4.582 11.403 11.811 9.027 18.704-.86 2.491-2.145 4.841-2.799 7.409-.578 2.246-.604 4.673-.514 6.983.167 4.595 1.079 9.1 1.669 13.644.308 2.323.398 5.047.424 7.435 6.395 2.156 10.016.723 10.902.284.745-5.383 1.977-11.553 2.889-17.375 1.477-9.371 1.387-15.206 1.194-18.084-.18-2.879.09-6.209.642-10.301.552-4.079-.732-9.178-3.685-17.8-2.953-8.597-10.889-22.047-13.38-25.3z" fill="url(#g)"/><path d="M55.809 11.062c-1.489-3.382-1.438-5.202-1.207-6.48-1.477-2.13-6.741-2.556-13.406-1.872-1.721.181-3.056.413-4.469.658l-.09.026-.167.039c-2.44.503-4.019 1.084-4.802 1.407-.103.994-.385 2.117-.963 3.343-1.117 2.349-2.735 4.286-4.494 6.144.475.387 2.067.955 7.229.336l.193-.026.18-.026c1.477-.181 3.223-.465 5.303-.865 11.21-2.156 15.846-.594 18.504 1.304-.616-1.317-1.233-2.659-1.811-3.989z" fill="url(#h)"/><path opacity=".17" d="M80.765 110.197c.372-2.117.732-4.234 1.066-6.299 1.477-9.371 1.387-15.206 1.194-18.084-.18-2.879.09-6.209.642-10.301.552-4.079-.732-9.178-3.685-17.8-2.953-8.623-10.889-22.073-13.38-25.313-2.491-3.24-3.788-5.189-4.982-8.352-1.194-3.162-3.685-8.158-5.817-12.986-1.489-3.382-1.438-5.202-1.207-6.48-.693-1.007-2.247-1.639-4.379-1.936-.026 2.84.231 8.584 2.388 11.669 2.953 4.208 6.022 5.073 7.871 12.611 1.849 7.538 17.707 21.389 22.137 41.552 0 0 .616 1.73-.128 5.563-.732 3.834-1.348 5.318-.488 8.403.86 3.085.488 14.225-.732 23.493-.193 1.561-.359 2.968-.501 4.259z" fill="url(#i)"/><path opacity=".17" d="M70.567 75.268c-.693-.413-3.544-4.595-6.729-9.346-.95-1.304-1.862-2.62-2.774-3.769-3.223-4.079-7.936-9.642-13.098-13.076-1.836-1.213-4.109-2.427-6.279-3.472 1.464.813 2.864 1.717 4.109 2.853 2.363 2.156 4.122 4.853 5.945 7.448 2.645 3.769 5.355 7.513 8.501 10.882 4.263 4.582 11.403 11.811 9.027 18.704-.86 2.491-2.144 4.841-2.799 7.409-.578 2.246-.604 4.673-.514 6.983.167 4.595 1.079 9.1 1.669 13.644.308 2.323.398 5.047.424 7.435.77.258 1.502.464 2.196.632.038-.813.064-1.626.09-2.439.129-3.589-.989-10.882-.732-20.654.244-9.771 3.57-18.304 6.279-19.659 2.709-1.355 4.674-4.569 4.674-4.569-3.839 2.478-8.513 1.859-9.99.994z" fill="url(#j)"/><path opacity=".46" d="M67.652 75.797s.116.181.334.478c.218.284.552.697 1.002 1.097.449.4 1.014.813 1.682 1.045.334.116.693.194 1.053.22h.27l.27-.013c.205-.013.424-.026.616-.052.398-.039.796-.09 1.194-.155.385-.064.77-.155 1.13-.245.36-.103.706-.219 1.015-.349l.462-.207.424-.219c.27-.155.501-.297.719-.439l.539-.374.347-.258.128-.09-.09.129-.257.349c-.116.142-.257.323-.437.516-.18.194-.385.4-.642.607l-.398.31c-.141.103-.295.207-.462.297-.321.194-.693.361-1.079.516-.385.142-.796.271-1.22.349-.424.09-.847.142-1.284.194l-.629.052-.347.013-.347-.026c-.462-.052-.899-.168-1.297-.349-.398-.181-.745-.413-1.027-.671-.295-.258-.539-.529-.732-.787-.398-.529-.629-1.02-.77-1.368-.128-.361-.167-.568-.167-.568zM72.965 79.501l-.629.052-.347.013-.347-.026c-.462-.052-.899-.168-1.297-.349-.398-.181-.745-.413-1.027-.671-.206-.181-.372-.361-.539-.542-.141-.142-.206-.245-.206-.245l-.013.026c1.13 2.53 1.592 5.163.693 7.758-.86 2.491-2.144 4.841-2.799 7.409-.578 2.246-.603 4.673-.514 6.983.167 4.596 1.079 9.101 1.669 13.644l.039.31c0-.245-.013-.503-.039-.774-.925-11.127-1.849-16.136 1.104-22.448 2.953-6.312 2.029-8.623 2.864-9.926.321-.503.899-.916 1.489-1.226l-.103.013z" fill="#207002"/></g><defs><linearGradient id="b" x1="127.476" y1="57.715" x2="-2.472" y2="44.984" gradientUnits="userSpaceOnUse"><stop stop-color="#B0BBA7"/><stop offset="1" stop-color="#F3F2EE"/></linearGradient><linearGradient id="c" x1="16.38" y1="6.952" x2="46.135" y2="6.952" gradientUnits="userSpaceOnUse"><stop stop-color="#FBCEB7"/><stop offset="1" stop-color="#F49167"/></linearGradient><linearGradient id="d" x1="17.48" y1="3.484" x2="45.642" y2="3.484" gradientUnits="userSpaceOnUse"><stop stop-color="#FBCEB7"/><stop offset="1" stop-color="#F49167"/></linearGradient><linearGradient id="e" x1="16.386" y1="67.649" x2="46.138" y2="67.649" gradientUnits="userSpaceOnUse"><stop stop-color="#59AB32"/><stop offset="1" stop-color="#255913"/></linearGradient><linearGradient id="f" x1="27.212" y1="7.715" x2="83.802" y2="7.715" gradientUnits="userSpaceOnUse"><stop stop-color="#FBCEB7"/><stop offset="1" stop-color="#F49167"/></linearGradient><linearGradient id="g" x1="27.21" y1="62.278" x2="83.795" y2="62.278" gradientUnits="userSpaceOnUse"><stop stop-color="#59AB32"/><stop offset="1" stop-color="#255913"/></linearGradient><linearGradient id="h" x1="26.215" y1="8.731" x2="57.623" y2="8.731" gradientUnits="userSpaceOnUse"><stop stop-color="#59AB32"/><stop offset="1" stop-color="#255913"/></linearGradient><linearGradient id="i" x1="50.219" y1="56.433" x2="83.795" y2="56.433" gradientUnits="userSpaceOnUse"><stop stop-color="#8DB145"/><stop offset="1" stop-color="#3A941A"/></linearGradient><linearGradient id="j" x1="41.692" y1="83.608" x2="80.56" y2="83.608" gradientUnits="userSpaceOnUse"><stop stop-color="#59AB32"/><stop offset="1" stop-color="#255913"/></linearGradient></defs></svg>