<svg width="484" height="260" viewBox="0 0 484 260" xmlns="http://www.w3.org/2000/svg" fill="none"><path d="M479.152 175.969h-20.8v32.031h-17.188v-32.031h-65.918v-15.528l64.746-95.996h18.36v95.313h20.8v16.211zm-37.988-16.211v-34.766c0-3.646.033-7.454.098-11.426.13-4.036.26-7.942.39-11.718.131-3.841.261-7.422.391-10.742.195-3.32.325-6.087.391-8.301h-.879c-.456 1.302-1.042 2.767-1.758 4.395-.651 1.563-1.4 3.158-2.246 4.785-.781 1.563-1.595 3.092-2.442 4.59-.846 1.497-1.627 2.767-2.343 3.809l-40.137 59.375h48.535zM106.152 175.969h-20.8v32.031h-17.188v-32.031h-65.918v-15.528l64.746-95.996h18.359v95.313h20.8v16.211zm-37.988-16.211v-34.766c0-3.646.032-7.454.098-11.426.13-4.036.26-7.942.391-11.718.13-3.841.261-7.422.391-10.742.195-3.32.325-6.087.391-8.301h-.879c-.456 1.302-1.042 2.767-1.758 4.395-.651 1.563-1.4 3.158-2.246 4.785-.781 1.563-1.595 3.092-2.441 4.59-.846 1.497-1.628 2.767-2.344 3.809l-40.137 59.375h48.535z" fill="#BC9A91"/><g opacity=".54" fill="#52050A"><path opacity=".388" d="M164.418 142.314c0 .181.061.362.121.543.665 2.53 3.566 3.735 6.105 3.253 1.45-.301 2.901-1.024 3.747-2.41.846-1.386.906-3.133.362-4.579-.121-.362-.302-.603-.483-.904-.061-.12-.181-.241-.302-.301-.665-.663-1.572-1.085-2.841-1.506-2.297-.784-5.198.662-6.286 3.133-.12.301-.241.663-.302.964-.181.602-.242 1.205-.121 1.807zM171.729 112.551l.06-.241c0-.061 0-.121.061-.181v-1.2650000000000001c0-.121 0-.241-.061-.302v-.06l-.06-.241v-.12l-.061-.302v-.06c0-.06-.06-.181-.12-.241l-.061-.12-.121-.302c-.181-.361-.423-.723-.725-1.024-.121-.181-.302-.422-.544-.542-.121-.06-.242-.121-.302-.181h-.061c-.121-.06-.241-.181-.423-.241l-.423-.361s-.604-.241-1.269-.241l-.242-.061c-1.934.121-4.11.422-5.197 1.989-.363.482-.605 1.144-.726 1.747-.241 1.145-.06 2.35.423 3.434l.121.301.061.061.121.18.06.061.121.18.06.061.182.241c.06.06.12.12.181.241l.06.12.121.121.121.12.121.06.121.121.06.06.121.121.302.18h.061c.181.121.423.241.604.302l.061.06.302.12c1.813.543 3.928-.12 5.318-1.385.605-.543 1.088-1.145 1.391-1.868l.12-.241.061-.301zM180.735 122.493c-.665-.964-1.753-1.808-3.022-1.868-2.055-.06-2.72.843-3.385 1.506-.665.663-.967 1.687-.906 2.591l.06.482c.242 1.084 1.028 1.988 2.055 2.53 1.209.663 2.659.723 3.868.181 1.209-.602 2.115-1.807 2.176-3.193 0-.542-.302-1.446-.846-2.229zM343.556 199.733l-1.934-33.017-1.632-27.836c-.121-1.626-1.511-2.892-3.143-2.771l-3.263.181c-2.116-12.532-6.044-24.824-11.544-36.09 14.445-4.881 25.626-8.737 25.626-8.737 2.296-.783 4.049-2.531 4.895-4.639.726-1.868 1.028-4.639-2.961-6.628-2.478-1.205-6.286.362-6.346.362l-6.467 2.832-19.34 8.315c-5.5-9.459-11.967-17.894-19.401-25.245-3.687-3.615-7.616-6.989-11.725-10.122-13.599-10.062-29.736-16.81-46.659-19.521-17.406-2.771-34.692-1.084-50.043 4.941-15.593 6.145-29.615 17.292-39.467 31.451-10.093 14.46-15.351 31.391-14.867 47.719.362 11.387 2.357 20.485 10.516 27.233v.12c-.423 1.567-.725 3.254-1.028 5.001l-.06.542c-1.269 10.243 3.808 21.028 8.401 28.318 5.258 8.495 12.692 16.75 19.28 21.57 7.796 5.663 15.774 10.423 23.873 14.098 4.049 1.868 8.099 3.435 12.148 4.76 3.627 1.205 7.253 2.169 10.879 2.892 6.528 1.386 12.994 1.988 19.22 1.868 3.505-.06 10.456-.482 17.527-2.47 8.522-2.41 14.626-6.387 18.252-11.809 2.237-3.375 3.687-7.231 4.11-10.966.484-4.278-.423-8.194-2.599-11.327-2.961-4.157-9.609-8.074-19.401-6.688-4.472.663-8.703 2.169-12.752 3.675-1.995.723-4.11 1.507-6.165 2.109-.544.181-1.088.301-1.692.482-20.912 5.664-45.148-.964-60.862-16.749-1.148-1.145-2.296-2.41-3.324-3.615-3.747-4.399-6.95-9.4-9.489-14.762l-.06-.12c7.494.964 14.324-1.085 18.373-4.579 3.989-3.495 5.077-8.074 3.083-12.653-2.781-6.386-10.638-10.242-18.676-9.158-.967.121-1.934.362-2.901.603-2.236.662-4.291 1.626-6.165 3.012h-.06c-.665-6.145-.544-12.351.362-18.376.121-1.025.303-1.989.544-3.013 5.863-29.342 32.093-52.659 63.884-56.997l1.33-.181c14.626-1.747 31.488 1.928 47.444 10.363 14.928 7.893 27.197 18.919 33.604 30.246.544 1.024 1.148 1.988 1.632 2.952l-12.511 5.422c-6.588-13.375-18.555-24.1-34.148-28.679-29.252-8.676-59.955 7.531-68.537 36.21-8.583 28.68 8.159 58.986 37.472 67.662 29.252 8.676 59.955-7.471 68.537-36.211 2.961-9.941 2.901-20.123.302-29.523-.242-.964-.544-1.867-.846-2.831 4.472-1.507 9.066-3.073 13.599-4.579 1.511 3.253 2.84 6.386 3.928 9.459 2.357 6.688 3.747 13.074 4.291 19.521.726 8.797-.181 18.015-2.84 28.197l-2.78-.843-.242-.061h-.061c-.06 0-.181 0-.241-.06h-.665c-.061 0-.182 0-.242.06h-.302l-.242.061h-.06c-.061 0-.121.06-.182.12h-.06l-.181.121-.061.06-.181.12-.061.061-.181.18-.06.061-.121.12-.061.06c-.06.061-.121.121-.121.181l-.06.06-.121.181-.06.06-.121.241-.061.061c-.06.06-.06.18-.06.241l-.604 1.928-7.978 26.148-9.247 30.186c-.484 1.566.423 3.253 1.994 3.735l6.709 2.049 2.659.783c1.571.482 3.264-.422 3.747-1.988l17.83-58.262v-.061c.423-1.566-.423-3.193-1.995-3.675l-3.082-.904c2.78-10.604 3.747-20.244 2.961-29.522-.785-9.701-3.445-19.22-8.34-29.884 2.176-.723 4.351-1.507 6.467-2.23 5.379 10.966 9.247 22.956 11.362 35.126l-2.78.181c-1.632.121-2.901 1.506-2.78 3.133l1.088 18.678.544 9.158.785 13.375 1.149 19.642c.121 1.627 1.511 2.892 3.142 2.771l.847-.06 8.944-.542c1.814 0 3.022-1.446 2.962-3.073zm-187.722-49.887l-.061-.06c-1.39-.543-2.78-1.266-4.17-2.109-.544-.301-1.028-.603-1.511-.964l.06-.181c.847-2.53 1.874-4.579 3.083-6.266l.121.542c.362 1.627.785 3.254 1.208 4.881.242.903.544 1.867.847 2.771l.423 1.386zm6.527 13.797c2.841 4.64 6.104 8.857 9.852 12.593 8.34 8.374 18.977 14.46 30.823 17.593 11.967 3.133 24.236 3.012 35.417-.362 2.176-.663 4.291-1.446 6.346-2.169 4.11-1.506 7.978-2.892 12.028-3.494 5.076-.723 12.329.18 15.834 5.181 3.748 5.242 1.935 12.894-1.51 18.075-7.495 11.327-26.956 12.532-32.758 12.653-9.247.181-18.978-1.386-28.89-4.639-11.846-3.856-23.631-10.002-34.994-18.317-6.285-4.579-13.296-12.411-18.313-20.545l-.725-1.205c-7.132-11.93-7.797-20.244-7.071-25.245.181-1.145.362-2.229.604-3.314v-.06l.604.362c2.599 1.566 5.259 2.711 7.918 3.434l.06.12c1.451 3.314 3.022 6.387 4.775 9.339zm2.901-31.209c6.346-.844 12.692 2.169 14.808 6.989 1.39 3.133.362 5.543-.907 7.109-.423.542-.846.964-1.209 1.326-3.687 3.253-10.395 4.88-17.648 3.313l-.846-2.169c-.484-1.385-.967-2.831-1.39-4.277-.786-2.651-1.39-5.302-1.813-8.014l.121-.12c3.324-2.952 6.829-3.916 8.884-4.157zm56.208-82.363c-34.027 4.037-62.191 28.86-68.477 60.251-1.632 8.194-1.874 16.689-.665 25.124l-.06.06-.061.061c-2.115 2.349-3.807 5.181-5.077 8.495l-.12.301c-.423-.422-.907-.843-1.33-1.325-3.989-4.338-6.407-10.725-6.769-22.233-.484-15.544 4.593-31.691 14.203-45.489 9.489-13.556 22.906-24.281 37.774-30.125 19.763-7.772 42.73-7.833 63.884-.904 8.34 2.711 16.439 6.507 23.933 11.387 1.813 1.145 3.566 2.41 5.319 3.675 11.967 8.917 22 20.304 29.917 33.861l-6.044 2.591c-.604-1.085-1.209-2.169-1.813-3.314-6.769-11.93-19.582-23.437-35.115-31.692-15.109-7.953-30.944-11.809-45.268-11.146-1.39.12-2.841.241-4.231.422z"/></g><path d="M186.702 41.697c19.763-7.772 42.73-7.833 63.884-.904 8.34 2.711 16.439 6.507 23.933 11.387 1.813 1.145 3.566 2.41 5.319 3.675 12.873 9.58 23.51 22.052 31.73 36.994 7.797 14.279 12.994 30.426 14.928 46.754l3.687-.422c-2.055-16.81-7.373-33.439-15.351-48.079-5.802-10.604-12.874-20.003-20.972-28.077-3.687-3.615-7.616-6.989-11.726-10.122-13.598-10.122-29.735-16.87-46.658-19.581-17.467-2.832-34.813-1.084-50.104 4.941-15.593 6.085-29.615 17.292-39.466 31.451-10.093 14.46-15.412 31.39-14.868 47.718.363 11.387 2.357 20.485 10.516 27.233v.121c-.423 1.566-.725 3.253-1.027 5l-.061.543c-1.269 10.242 3.808 21.027 8.401 28.317 5.259 8.496 12.692 16.75 19.28 21.57 7.797 5.663 15.775 10.423 23.874 14.098 4.049 1.868 8.098 3.435 12.148 4.76 3.626 1.205 7.252 2.169 10.879 2.892 6.527 1.386 12.994 1.989 19.219 1.868 3.506-.06 10.456-.482 17.527-2.47 8.522-2.41 14.626-6.387 18.253-11.809 2.236-3.374 3.687-7.23 4.11-10.966.483-4.278-.423-8.194-2.599-11.327-2.962-4.157-9.61-8.073-19.401-6.688-4.473.663-8.703 2.169-12.753 3.676-1.994.723-4.109 1.506-6.164 2.108-.544.181-1.088.302-1.693.482-20.911 5.664-45.147-.964-60.861-16.749-1.149-1.145-2.297-2.41-3.324-3.615-3.748-4.399-6.951-9.399-9.489-14.762l-.061-.12c7.495.964 14.324-1.085 18.374-4.579 3.989-3.495 5.076-8.074 3.082-12.653-2.78-6.386-10.637-10.242-18.676-9.158-.967.121-1.934.362-2.901.603-2.236.662-4.291 1.626-6.164 3.012h-.061c-.665-6.145-.544-12.351.363-18.376.121-1.024.302-1.988.544-3.013 5.923-29.462 32.093-52.779 63.944-57.177l1.329-.181c14.627-1.747 31.489 1.928 47.445 10.363 14.928 7.893 27.197 18.919 33.604 30.246.785 1.386 1.571 2.771 2.296 4.157 2.962 5.543 5.319 10.785 7.072 15.786 2.357 6.687 3.747 13.074 4.291 19.521 1.088 13.436-1.572 27.655-8.401 44.886l3.445 1.326c1.027-2.531 1.934-5.001 2.72-7.411 5.016-14.581 6.89-27.173 5.923-39.163-1.028-12.954-5.38-25.606-14.083-40.97-6.769-11.93-19.582-23.437-35.114-31.692-15.11-7.953-30.945-11.809-45.269-11.146-1.451.06-2.961.181-4.352.361-34.087 4.278-62.191 29.041-68.477 60.492-1.631 8.194-1.873 16.689-.664 25.124l-.061.061-.06.06c-2.116 2.35-3.808 5.181-5.077 8.495l-.121.301c-.423-.421-.907-.843-1.33-1.325-3.989-4.338-6.406-10.725-6.769-22.233-.423-15.544 4.594-31.691 14.264-45.489 9.428-13.617 22.906-24.281 37.774-30.125zm-37.774 95.075l.121.543c.362 1.626.785 3.253 1.208 4.88.242.904.544 1.868.847 2.771.12.482.302.904.483 1.326l-.06-.06c-1.39-.543-2.781-1.266-4.171-2.109-.544-.301-1.027-.603-1.511-.964l.061-.181c.846-2.41 1.873-4.519 3.022-6.206zm9.186 23.377c2.841 4.64 6.105 8.857 9.852 12.593 8.34 8.375 18.978 14.46 30.824 17.593 11.966 3.133 24.236 3.012 35.417-.362 2.175-.662 4.291-1.446 6.346-2.169 4.11-1.506 7.978-2.892 12.027-3.494 5.077-.723 12.329.181 15.835 5.181 3.747 5.242 1.934 12.894-1.511 18.075-7.494 11.327-26.956 12.532-32.758 12.653-9.247.181-18.977-1.386-28.889-4.639-11.846-3.856-23.632-10.002-34.994-18.316-6.286-4.579-13.297-12.412-18.313-20.546l-.726-1.205c-7.131-11.929-7.796-20.244-7.071-25.245.181-1.144.363-2.229.605-3.313v-.061l.604.362c2.599 1.566 5.258 2.711 7.917 3.434l.061.121c1.39 3.313 2.961 6.386 4.774 9.338zm2.902-31.269c6.346-.844 12.692 2.169 14.807 6.989 1.39 3.133.363 5.543-.907 7.109-.423.542-.846.964-1.208 1.326-3.687 3.253-10.396 4.88-17.648 3.313l-.847-2.169c-.483-1.385-.967-2.831-1.39-4.277-.785-2.651-1.39-5.302-1.813-8.014l.121-.12c3.324-2.952 6.769-3.856 8.885-4.157z" fill="#D3B8AA"/><path d="M222.602 174.369c-29.253-8.676-46.054-38.982-37.472-67.662 8.582-28.679 39.285-44.886 68.537-36.21 17.407 5.181 30.34 17.955 36.203 33.499.604 1.506 1.088 3.073 1.511 4.7 2.599 9.399 2.659 19.521-.302 29.522-8.522 28.68-39.225 44.887-68.477 36.151z" fill="url(#a)"/><path opacity=".161" d="M289.871 103.996c-.907 0-1.753.06-2.599.181-.242 0-.483.241-.362.482.06.12.12.181.241.241l-.604.181c-.302.06-.363.361-.242.602-.242.121-.242.422-.06.603l.121.12-.363.06c-.423.061-.786.121-1.209.241-.544.181.061.784.484.723.241-.06.544-.12.785-.12-.302.06-.604.181-.906.301-.605.241.06.844.483.723h.061c-.121.241.121.482.423.603-.544.421.483.964.906.662 1.209-.843 2.901-1.265 4.412-.964-.483-1.506-.967-3.072-1.571-4.639z" fill="#570000"/><path d="M246.956 172.802c-27.923 4.82-54.455-13.797-59.29-41.573-1.209-6.808-.967-13.496.423-19.882.906-3.917 2.236-7.712 3.989-11.327 6.95-14.219 20.428-25.064 37.29-27.956 8.643-1.506 17.165-.723 24.961 1.808 7.072 2.35 13.539 6.206 18.978 11.267 4.593 4.278 8.462 9.459 11.242 15.303.906 1.868 1.632 3.736 2.296 5.724.303.964.605 1.928.907 2.953.423 1.446.725 2.952.967 4.458l.181 1.145c4.11 27.474-14.445 53.321-41.944 58.081z" fill="url(#b)"/><path opacity=".2" d="M195.764 136.29c-1.511 2.591-.604 5.844.605 8.556 4.956 10.965 15.955 19.701 27.983 19.641 5.862-.06 16.862-2.048 22.664-1.566 3.868.301 6.104.361 7.736 1.506.484.301 1.693-.121 2.78-3.013 1.451-4.036 2.66-10.302-.846-12.833-14.626-10.664-33.604-12.833-51.735-13.797-2.72-.181-5.681-.241-9.187 1.506z" fill="#570000"/><path opacity=".161" d="M277.058 101.948c-3.748-2.591-7.495-5.182-11.242-7.833-2.478-1.687-4.956-3.434-7.676-4.639-2.719-1.205-5.56-1.868-8.522-2.229-14.807-1.928-30.4 3.916-40.312 15.062-9.852 11.207-13.72 27.354-9.912 41.754-5.319-6.266-7.736-14.701-7.555-22.955.181-8.255 2.72-16.268 6.407-23.679-4.352 5.844-8.824 11.93-10.094 19.099.303-5.663 1.632-11.266 3.808-16.568 6.95-14.219 20.428-25.064 37.291-27.956 8.642-1.506 17.164-.723 24.961 1.808 5.923 2.591 11.181 6.507 14.989 11.689-7.857-6.688-18.434-9.941-28.709-8.917 15.714.663 30.582 10.905 36.566 25.365zM287.694 109.238c-2.176 2.169-4.714 4.88-5.802 5.844-.967-2.048-.182-2.41-1.572-4.88 1.995-2.772 2.539-3.796 5.198-7.592.907 1.868.604 1.687 1.269 3.615l.907 3.013z" fill="#570000"/><path d="M257.178 162.379c-1.148.542-2.357 1.024-3.566 1.446-2.478.903-5.076 1.626-7.796 2.108-10.819 1.868-21.456-.361-30.219-5.543-5.803-3.434-10.819-8.133-14.566-13.857-3.203-4.881-5.5-10.484-6.588-16.569-1.027-5.844-.846-11.689.363-17.111 3.747-16.93 17.406-30.728 35.658-33.861 14.264-2.47 28.165 2.169 38.016 11.387 5.198 4.82 9.247 10.906 11.605 17.835l.12.361c.726 2.049 1.27 4.218 1.632 6.447v.12c.061.302.121.543.121.844 3.083 19.581-7.494 38.319-24.78 46.393zM252.035 105.382c.06-.06.06-.181 0-.241-.061-.06-.061-.121-.181-.181-.061-.06-.182-.06-.242 0-.181.06-.362.181-.423.362-.06.18-.12.361.061.482.06.06.12.06.12 0l.121-.061.121-.06.121-.06.121-.06c.06-.061.181-.121.181-.181z" fill="#fff"/><g opacity=".161" fill="#570000"><path opacity=".161" d="M201.992 110.202c.423 3.434 3.687 6.266 7.132 6.326 1.39 0 2.78-.362 3.808-1.265 1.813-1.567 2.115-4.579.785-6.568-1.329-2.048-3.928-3.012-6.346-2.59-2.357.361-4.412 2.048-5.379 4.097zM216.497 88.391c-1.148.783-1.451 2.47-.907 3.736.544 1.265 1.814 2.169 3.083 2.651 1.45.603 3.263.723 4.472-.241 1.088-.843 1.451-2.41 1.209-3.796-.302-1.687-1.451-3.314-3.143-3.856-1.632-.482-3.445.663-4.714 1.506zM250.1 103.092c-1.572.121-2.72 1.748-2.781 3.374-.06 1.567.786 3.073 1.874 4.278.725.844 1.632 1.567 2.72 1.868 1.994.542 4.291-.723 5.016-2.711.725-1.989-.06-4.338-1.753-5.604-1.571-1.265-3.928-1.325-5.076-1.205zM261.643 100.261c-2.297.361-4.05 2.651-3.868 4.94.181 2.29 2.357 4.218 4.653 4.158 1.149 0 2.237-.482 3.143-1.085.786-.542 1.572-1.265 1.813-2.169.242-.964-.06-1.928-.544-2.771-1.027-1.748-3.022-3.435-5.197-3.073zM244.844 113.998c-1.511.482-2.962 1.446-3.808 2.771-.846 1.326-1.027 3.193-.242 4.579.605 1.145 1.813 1.928 2.962 2.531 1.39.723 2.84 1.386 4.412 1.386 2.296-.061 4.412-1.748 5.016-3.977.605-2.169-.302-4.7-2.176-6.085-1.813-1.326-4.533-1.748-6.164-1.205zM260.433 122.011c-.967.301-1.571 1.325-1.511 2.35 0 1.024.605 1.928 1.33 2.59.785.663 1.692 1.025 2.659 1.386 1.451.482 3.203.783 4.473-.06 1.027-.663 1.571-1.928 1.571-3.193 0-2.049-1.511-4.037-3.506-4.579-1.994-.603-4.291.361-5.016 1.506zM268.531 114.419c.182 1.928 1.269 3.796 2.962 4.7 1.692.904 3.989.783 5.439-.482 1.33-1.205 1.813-3.193 1.209-4.88-.665-1.687-2.357-2.832-4.17-2.892-1.813-.061-3.566 1.024-5.44 3.554zM262.373 146.231c-1.934 1.326-2.66 4.158-1.693 6.266 1.028 2.109 3.566 3.374 5.923 2.892 2.297-.482 4.171-2.59 4.412-4.88.061-.783 0-1.566-.302-2.229-.423-.844-1.209-1.386-2.115-1.747-.846-.362-1.813-.482-2.72-.603-1.209-.181-2.659-.241-3.505.301zM240.549 143.701c-1.874.602-3.203 2.47-3.264 4.398 0 1.928 1.33 3.856 3.203 4.398 1.874.542 4.05-.301 5.077-1.988.967-1.687.544-4.037-.906-5.302.121 0 .362-.06-4.11-1.506z"/></g><path d="M249.074 106.768v-.904c0-.06 0-.12.061-.181 0-.12.06-.241.121-.361.06-.121-.061-.181-.182-.121-.12.061-.241.181-.302.302l-.12.18-.061.121v.06l-.06.121c-.06.06-.06.12-.06.18 0 .061 0 .121-.061.241v.543c0 .18.181.361.423.301.121-.06.302-.241.241-.482zM252.64 103.574c0-.181-.121-.422-.302-.422h-.544c-.182.061-.423.061-.544.181l-.242.181c-.06.06-.121.12-.121.181l-.06.06-.061.06c-.06.06-.121.121-.121.181-.06.12.061.181.121.12l.302-.18h.121c.061 0 .182 0 .242-.061l.181-.06h.121l.423-.06c.121 0 .182 0 .242-.06.181.06.242 0 .242-.121z" fill="#fff"/><path d="M270.342 110.382c.241-.12.544-.241.846-.241.665-.12 1.269-.06 1.934.121 1.571.422 2.961 1.506 3.384 3.073.121.421.182.843.121 1.265-.06.723-.302 1.386-.665 1.988-.543.844-1.269 1.506-2.175 1.868-.484.181-1.028.361-1.511.301-1.572-.06-2.78-1.446-3.747-2.711-.303-.783-.424-1.446-.424-2.049 0-.723.182-1.385.484-1.928.363-.723.967-1.325 1.753-1.687z" fill="#4D5673"/><path opacity=".439" d="M271.188 110.141c.665-.12 1.269-.06 1.934.121 1.571.422 2.961 1.506 3.384 3.073.303 1.084.061 2.289-.544 3.253-.181-.422-.483-.843-.725-1.205-.604-.783-1.269-1.566-2.176-1.988-1.269-.542-2.719-.301-3.989.181-.302.12-.664.241-.967.482 0-.723.182-1.386.484-1.928.483-1.025 1.451-1.808 2.599-1.989z" fill="#1C083B"/><path d="M269.316 111.587c.363 0 .423.121.423.362-.121.602.665 1.627.363 2.169l-.665.783c-.181.301 0 .482.181.904l-.665.542c-.06-.06-.181-.12-.241-.241-.484-.542-.665-1.325-.665-1.325.181-.663 0-.904 0-1.205 0-.362.181-.784.181-.784.061-.06.121-.18.242-.241.302-.301.483-.723.846-.964z" fill="#1F1347"/><path d="M269.315 111.587c.363 0 .423.121.423.362-.121.602.665 1.627.363 2.169l-.665.783c-.182.301 0 .482.181.904l-.665.542c-.06-.06-.181-.12-.241-.241.181-.06.362-.12.423-.301.06-.241-.121-.482-.121-.723-.121-.603.544-1.085.604-1.687 0-.241-.06-.482-.121-.723-.06-.121-.06-.181-.181-.241-.061-.06-.181-.06-.242-.06-.181 0-.423.06-.604.18.302-.301.483-.723.846-.964z"/><path opacity=".329" d="M270.705 117.553c.543.482 1.269.662 1.994.602.725-.06 1.39-.422 1.994-.783.182-.121.363-.301.424-.482.06-.181 0-.362 0-.542-.242-.964-.907-1.748-1.753-2.29-.605-.361-1.39-.602-2.055-.361-.665.241-1.088.964-1.269 1.687-.182.723-.061 1.566.665 2.169z" fill="#BAB6F0"/><path d="M270.34 110.382c.242-.12.544-.241.846-.241.665-.12 1.269-.06 1.934.121 1.571.422 2.962 1.506 3.385 3.073.12.421.181.843.12 1.265-.12-.301-.302-.542-.483-.783-.907-1.266-2.115-2.41-3.566-2.953-.725-.301-1.45-.482-2.236-.482z"/><path d="M269.318 116.167v.06l-.061.12-.12.061.06.12c.181 0 .302-.12.362-.301 0-.06 0-.121.061-.241 0-.06 0-.121.06-.121v-.06c-.241.121-.362.241-.362.362zM270.222 113.576c.06.361-.061.783-.302 1.084l-.121.06-.121.121-.241.181c-.121.18 0 .421.121.602.06.121.301.06.241-.12-.06-.061-.121-.181-.06-.302 0-.06 0-.18.06-.241.06-.12.121-.18.242-.241.06-.06.12-.12.181-.241.06-.18.121-.542 0-.903zM270.649 117.191c.242.301.544.482.907.663.362.18.725.18 1.087.12.786-.06 1.511-.482 2.055-1.084.061-.061 0-.061-.06-.061-.604.362-1.269.603-1.995.482l-.785-.241c-.242-.12-.484-.241-.665-.421-.242-.362-.907.18-.544.542zM272.34 116.347c-.06.121-.06.241.061.302 0 .06.06.06.121.06.06.06.121.06.181.06.121.06.302.06.423.06h.121l.181-.06c.061 0 .121-.06.182-.12l.121-.121c.06-.06 0-.181-.061-.181h-.242c-.06 0-.181 0-.241-.06h-.484c-.242-.06-.363 0-.363.06z" fill="#fff"/><path opacity=".129" d="M281.892 115.082c-7.071.302-25.445 2.41-25.445 2.41s-.241-.964 0-3.072c7.918-1.868 15.835-3.917 23.692-6.206l.121.361c.725 2.049 1.269 4.218 1.632 6.447v.06z" fill="#570000"/><path opacity=".2" d="M240.433 132.735c.121-4.157-2.417-10.122-4.774-13.556l-.303.723c4.956-4.037 5.319-8.977 5.38-9.64.483.241 3.626.723 5.62-1.265 2.841-2.892 4.594-5.965 4.835-8.737.363-4.338-.181-10.363-3.263-13.375-1.511-1.446-3.324-2.591-5.138-3.736.242 2.41 1.391 3.314 2.055 4.157 1.39 1.807.242 4.398.061 6.688-.121 2.049.665 4.097.483 6.206-.181 2.47-1.571 4.519-2.719 6.748-.061-.663-.061-1.325-.182-1.928-.906-8.375-4.654-16.448-10.335-22.774-1.45 1.627-1.027 4.157-1.752 6.206-.303.843-.786 1.566-.968 2.41-.241.843-.181 1.807-1.752-.121.121 5.422.181 10.905 1.45 16.207.121.603.302 1.265.484 1.868-1.149-2.109-2.418-4.097-4.05-5.844-3.445-3.856-8.401-6.628-13.719-6.568.423 3.796 2.055 7.351 3.687 10.845 1.088 2.35 2.236 4.7 3.989 6.628.967 1.085 2.175 1.988 3.445 2.711-4.654 1.507-8.885 4.399-11.967 8.255-4.05 5.121-5.923 11.568-9.973 21.69 3.748 5.724 8.764 10.423 14.566 13.857 1.995-.06 4.049-.723 5.923-1.626 5.319-2.531 10.033-6.387 13.478-11.147 3.143-4.338 5.258-9.519 5.439-14.882zm-7.192-15.845c0-.061 0-.121-.06-.181l.181.241-.121-.06z" fill="#570000"/><path d="M245.021 70.557c0-.301-.362-.422-.604-.422-4.835-.904-9.852-1.024-14.747-.422-4.896.603-9.731 1.988-14.264 3.977-4.714 2.109-9.066 5.001-12.752 8.556-1.934 1.868-3.868 3.675-5.561 5.724-1.692 1.988-3.263 4.157-4.714 6.386-2.901 4.579-5.5 9.7-6.225 15.123l-.181 1.928c.362-5.603 2.78-10.905 5.681-15.545 2.78-4.459 6.104-8.556 10.033-12.11 1.934-1.747 4.049-3.254 6.225-4.639 2.115-1.386 4.351-2.651 6.648-3.736 4.352-2.109 8.945-3.615 13.72-4.398 5.318-.904 10.758-.964 16.137-.06.362 0 .665-.12.604-.361z" fill="#fff"/><g opacity=".412" fill="#4A0419"><path opacity=".412" d="M310.121 169.126l-.726-4.88c3.022-8.194 4.836-16.75 5.44-25.426.544-7.471.06-15.183-3.022-21.991-.967-2.169-2.236-4.217-3.747-6.025-1.813-5.001-4.11-10.243-7.072-15.786.967.241 2.237.121 3.748-.663-9.791-15.183-24.72-28.257-40.917-36.331-13.418-6.748-27.439-9.761-42.247-11.809 14.264-.723 30.159 3.193 45.269 11.146 15.532 8.194 28.345 19.762 35.114 31.692 8.704 15.363 13.055 27.956 14.083 40.97.967 11.929-.967 24.522-5.923 39.102zM330.125 139.122l-3.687.422c-1.994-16.328-7.132-32.535-14.928-46.754-8.159-14.942-18.857-27.414-31.73-36.994-1.753-1.265-3.506-2.531-5.319-3.675.544.241 1.088.542 1.692.783 6.044 2.952 11.967 6.266 17.588 10.062 8.159 8.073 15.17 17.473 20.972 28.077 8.099 14.701 13.357 31.33 15.412 48.08zM155.999 147.617c-1.209-.18-2.478-.421-3.626-.903-.303-.121-.605-.302-.907-.482l.06.06-.483-1.326c1.33.362 2.72.543 4.049.482.363.784.665 1.507.907 2.169zM167.245 166.536c-1.814-.723-3.445-1.868-5.017-3.073-1.39-1.084-2.78-2.169-4.11-3.314-1.813-2.952-3.384-6.025-4.774-9.218 1.45.301 2.961.603 4.412.844 2.599 5.362 5.741 10.363 9.489 14.761zM174.919 143.039c1.269-1.627 2.297-4.037.907-7.11-2.116-4.82-8.462-7.832-14.808-6.989-2.055.301-5.56 1.205-8.884 4.158l-.061-.242c-.302-1.265-.544-2.59-.604-3.916 1.873-1.386 3.989-2.41 6.164-3.012 3.325-.181 6.467.12 9.55.843 2.659.603 5.379 1.567 7.313 3.495 2.599 2.53 3.505 6.748 2.115 10.122-.362.904-.967 1.868-1.692 2.651zM148.932 136.772c-1.148 1.687-2.175 3.796-3.082 6.267-1.269-.362-2.357-1.326-3.022-2.531 1.269-3.314 2.962-6.146 5.077-8.495l.725 2.831c.182.784.302 1.627.363 2.41 0-.12 0-.301-.061-.482zM151.229 175.513c-1.511-1.988-2.962-4.097-4.231-6.266-3.385-5.844-5.681-12.291-6.588-18.919l.061-.542c.241-1.747.604-3.434 1.027-5.001 1.148.723 2.176 1.506 3.264 2.229-.242 1.025-.423 2.109-.605 3.314-.725 4.88-.06 13.255 7.072 25.185zM270.05 209.554c-3.566 5.423-9.731 9.399-18.253 11.809-7.071 1.989-14.021 2.41-17.527 2.471-6.225.12-12.692-.543-19.219-1.868 9.61 1.084 19.401 1.566 28.829-.482 10.275-2.229 20.247-7.893 25.566-16.991 2.78-4.76 4.109-10.905 1.39-15.665-2.539-4.519-8.16-6.688-13.357-6.748-5.258-.06-10.335 1.567-15.412 2.832-3.506.843-7.071 1.566-10.637 2.048.544-.12 1.088-.301 1.692-.482 2.055-.602 4.17-1.385 6.165-2.108 4.109-1.507 8.34-3.013 12.752-3.676 9.791-1.385 16.44 2.531 19.401 6.688 2.176 3.073 3.082 6.989 2.599 11.327-.363 3.615-1.813 7.531-3.989 10.845zM250.95 40.793c-.121 0-.242 0-.363-.06-21.153-6.868-44.12-6.808-63.883.904-14.868 5.844-28.285 16.569-37.774 30.125-9.67 13.858-14.687 30.005-14.264 45.549.363 11.508 2.78 17.895 6.769 22.233l.303.723c-5.198-3.977-8.341-10.243-9.55-16.69-1.209-6.447-.604-13.074.786-19.521 5.258-24.763 21.879-46.935 44.241-58.985 22.362-11.929 50.104-13.556 73.735-4.278zM152.313 107.551l-.543 3.012c.543-10.122 4.412-20.063 10.274-28.378 7.555-10.724 18.313-18.858 29.917-25.004 4.896-2.591 10.033-4.82 15.412-5.965 2.901-.663 5.923-.964 8.885-.844-31.852 4.398-58.022 27.715-63.945 57.178z"/></g><path d="M280.076 144.364c-2.236 4.278-5.319 8.013-8.703 11.387-3.385 3.314-7.192 6.206-11.363 8.496-4.11 2.289-8.582 4.157-13.175 5.181-4.835 1.085-9.852 1.326-14.808.844l-1.39-.181c-.06-.121-.181-.181-.302-.181-2.115-.301-4.11-.843-6.104-1.446-1.934-.602-3.808-1.325-5.621-2.229-1.874-.904-3.687-1.928-5.379-3.073-1.692-1.145-3.264-2.41-4.835-3.735-1.813-1.567-3.506-3.254-5.077-5.061-.061-.061-.423-.121-.302.06 2.236 3.555 5.318 6.627 8.763 9.037 3.506 2.471 7.374 4.399 11.484 5.664 2.296.723 4.774 1.084 7.131 1.386.303.06.363-.121.303-.302 4.774.603 9.609.603 14.263-.06 4.896-.663 9.731-1.868 14.203-4.037 4.352-2.108 8.462-4.94 12.027-8.314 3.989-3.796 7.193-8.254 9.731-13.074.061-.362-.665-.663-.846-.362z" fill="#fff"/><path opacity=".18" d="M247.864 110.865c-4.956-1.507-11.483-1.266-15.11 3.012-.483.542-.785 1.145-1.148 1.748-.363.662-.725 1.385-.907 2.169-.06.12.242.241.303.12.423-.723.785-1.446 1.329-2.109.544-.602 1.149-1.144 1.813-1.687 1.27-.964 2.66-1.807 4.171-2.35 3.022-1.024 6.285-.843 9.247.061.302.06.725.12.846-.241.121-.362-.242-.663-.544-.723z" fill="#854509"/><path opacity=".188" d="M247.806 126.228c-.968 1.025-2.237 1.808-3.627 2.29-1.39.482-2.84.602-4.291.482-.121 0-.181.12-.06.181 1.511.482 3.203.301 4.714-.121 1.571-.422 2.961-1.325 4.11-2.47.423-.362-.544-.663-.846-.362z" fill="#78410E"/><path d="M348.131 83.33c-.846 2.109-2.538 3.856-4.895 4.639 0 0-79.598 27.294-87.213 29.282-.242.06-.544-.12-.544-.422v-.301c-.061-.422-.121-.904-.423-1.386l-.363-.542-.06-.06c-.302-.301-.182-.844.241-1.024l77.483-33.62 6.467-2.832c.06 0 3.868-1.567 6.346-.362 3.989 1.928 3.747 4.7 2.961 6.628z" fill="#D08137"/><path opacity=".42" d="M348.129 83.33c-.846 2.109-2.538 3.856-4.895 4.639 0 0-79.598 27.294-87.213 29.282-.242.06-.544-.12-.544-.422v-.301c-.06-.422-.121-.904-.423-1.386 17.044-5.904 37.653-13.737 56.933-20.485 3.203-1.145 10.456-4.097 13.478-5.603 3.022-1.506 4.956-3.374 4.231-4.639-1.209-2.109-7.857 1.446-10.215 2.591-15.895 7.471-42.971 18.014-64.729 27.594l-.061-.06c-.302-.301-.181-.844.242-1.024l77.482-33.62 6.467-2.832c.061 0 3.868-1.567 6.346-.362 3.929 1.928 3.687 4.7 2.901 6.628z" fill="#4A0419"/><path opacity=".62" d="M348.129 83.33c-.846 2.109-2.538 3.856-4.896 4.639 0 0-79.597 27.294-87.212 29.282-.242.06-.544-.12-.544-.422v-.301c1.087-.663 2.357-1.145 3.505-1.566 24.236-8.315 46.356-14.521 72.285-25.727 1.571-.663 3.082-1.868 3.686-3.434.605-1.567-.423-4.519-1.813-5.483-.242-.181-.544-.301-.846-.422l6.467-2.832c.06 0 3.868-1.567 6.346-.362 4.049 1.928 3.808 4.7 3.022 6.628z" fill="#4A0419"/><path opacity=".278" d="M321.901 88.09c-.483-.482-1.39-.723-2.055-.422l-5.621 2.29c-1.813.723-3.505 1.567-5.258 2.41-1.813.844-3.566 1.747-5.379 2.531-1.813.843-3.687 1.506-5.56 2.229l-5.5 2.29c-1.813.784-3.687 1.507-5.56 2.23-3.687 1.446-7.374 3.012-11 4.518l-6.165 2.591c-2.055.844-4.11 1.808-6.165 2.711-.121.061.061.181.121.181 1.934-.723 3.868-1.325 5.742-2.109 1.813-.723 3.626-1.446 5.5-2.169 3.747-1.385 7.555-2.892 11.302-4.398 1.813-.723 3.626-1.566 5.5-2.289l5.62-2.169c1.874-.723 3.687-1.506 5.5-2.229 1.874-.783 3.808-1.446 5.742-2.049 2.176-.663 4.352-1.386 6.467-2.229 2.115-.844 4.231-1.687 6.286-2.531.785-.241.906-.904.483-1.386z" fill="#fff"/><path d="M319.604 88.572c-2.961 1.205-5.742 2.651-8.703 3.916-2.901 1.205-5.863 2.41-8.824 3.615l-5.077 1.988 9.066-3.434 4.472-1.747c1.511-.602 3.022-1.205 4.533-1.687 1.753-.542 3.506-1.265 5.198-1.988.604-.241-.242-.844-.665-.663zM286.482 102.008c-4.291 2.109-8.642 4.037-13.115 5.784 4.533-1.627 9.006-3.434 13.297-5.603.181-.06-.061-.241-.182-.181z" fill="#fff"/><path d="M235.532 117.131c-1.027-.482-1.934-1.024-2.78-1.687-.242-.181-.423-.361-.605-.542l-.181-.181c-.423-.361-.786-.723-1.148-1.145-.967-1.144-1.813-2.41-2.539-3.795-.423-.784-.785-1.627-1.087-2.531-.786-2.229-1.209-4.579-1.27-6.929-.06-1.385.061-2.831.182-4.217.181-1.687.544-3.314.906-5.001l.725-2.772c.544-1.747 1.088-3.495 1.693-5.182l.967-2.651c2.478 1.928 5.016 3.856 6.588 6.507.362.663.725 1.325 1.027 1.988.665 1.567 1.028 3.314 1.33 5.001.906 5.242.846 10.664-.182 15.846-.06.241-.12.482-.12.723-.424 2.47-1.27 4.82-3.506 6.567z" fill="#FFEED4"/><path opacity=".2" d="M235.537 117.131c-1.028-.482-1.632-10.905-1.874-14.882-.241-5.001-.725-9.941-1.45-14.882-.182-1.265-.725-2.832-1.995-2.892-.967 1.205-1.752 2.531-2.417 3.916.544-1.747 1.088-3.495 1.692-5.181l.967-2.651c2.478 1.928 5.016 3.856 6.588 6.507.363.663.725 1.325 1.027 1.988.665 1.567 1.028 3.314 1.33 5.001.907 5.242.846 10.664-.181 15.846-.061.241-.121.482-.121.723-.484 2.41-1.33 4.76-3.566 6.507z" fill="#F2913D"/><path opacity=".188" d="M274.217 142.375c1.874-.361-.725-3.795-1.692-5.482-4.412-7.893-11.363-9.038-20.67-11.689.241 3.013 1.148 5.905 2.538 8.616-.967-.844-1.994-1.687-3.022-2.47-2.055 2.169-2.961 4.217-3.384 6.205l-1.028 6.086c-.604 2.59-3.143 8.134-3.143 8.134s3.325 9.579 7.857 11.568c.665.301 1.33.482 2.055.542 1.209-.422 2.357-.904 3.566-1.446 2.66-1.808 4.352-8.254 4.473-11.508.06-2.772-2.116-9.941-3.385-12.412-.121-.06 7.253 5.664 15.835 3.856z" fill="#570000"/><path opacity=".349" d="M235.538 117.131c-1.027-.482-1.934-1.024-2.78-1.687-.242-.181-.423-.361-.604-.542.362.12.665.241 1.027.422l2.116.843.725-2.229c.483-1.627.846-3.254 1.209-4.941.544-2.831.846-5.723.967-8.615v-.422c.06-2.711-.061-5.422-.665-8.074-.182-.783-.363-1.506-.665-2.29-1.148-3.314-3.324-6.326-6.346-8.073-.302.542-.604 1.084-.846 1.627l.967-2.651c2.478 1.928 5.016 3.856 6.588 6.507.362.663.725 1.325 1.027 1.988.665 1.567 1.028 3.314 1.33 5.001.906 5.242.846 10.664-.182 15.846-.06.241-.12.482-.12.723-.665 2.47-1.511 4.82-3.748 6.567z" fill="#B03533"/><path opacity=".361" d="M230.461 110.744c-.786-.181-1.511-.542-2.236-.964-.423-.783-.786-1.627-1.088-2.53-.786-2.23-1.209-4.579-1.269-6.929-.061-1.386.06-2.832.181-4.218.181-1.687.544-3.314.907-5.001.181-.12.362-.181.543-.181.303 0 .544.241.726.482 1.511 1.928.846 4.76 1.39 7.11.423 1.748 1.571 3.374 1.511 5.182l-.121 1.506c0 .603.181 1.145.242 1.747.362 1.326 0 2.712-.786 3.796z" fill="#fff"/><path opacity=".729" d="M227.554 107.551l-.362-.241c-.786-2.229-1.209-4.579-1.27-6.928-.06-1.386.061-2.832.182-4.218.121 1.084.362 2.169.725 3.193.302.784.665 1.567.846 2.35.604 1.868.242 3.916-.121 5.844z" fill="#fff"/><path d="M246.717 104.478c-1.088 1.567-2.297 3.013-3.747 4.579-.847.904-2.418.181-2.176-1.084.121-.482.181-.964.242-1.446.12-1.025.241-2.049.302-3.013.181-3.615-.363-7.23-1.572-10.664-.302-.904-.725-1.868-.785-2.832-.182-2.651 1.752-4.88 3.565-6.808l.121-.121c.121.06.182.121.303.121 4.351 2.289 7.252 7.17 7.071 12.11-.121 3.254-1.451 6.447-3.324 9.158z" fill="#FFE8C2"/><path opacity=".212" d="M241.036 106.527c.12-1.024.241-2.049.302-3.013.181-3.615-.363-7.23-1.572-10.664-.302-.904-.725-1.868-.785-2.832-.182-2.651 1.752-4.88 3.565-6.808-.06.181-.12.362-.12.603-.182.904-.182 1.808-.121 2.711.121 1.807.604 3.615.906 5.423.605 3.856.302 7.833-.785 11.568-.303.964-.726 2.109-1.39 3.013z" fill="#F2913D"/><path opacity=".569" d="M241.338 103.454c.181-3.615-.363-7.23-1.572-10.664-.302-.904-.725-1.868-.785-2.832-.182-2.651 1.752-4.88 3.565-6.808l.121-.12c.121.06.182.12.303.12l-.544.542c-1.934 2.169-2.841 5.242-2.358 8.074.303 1.868 1.209 3.615 1.572 5.422.483 2.169.242 4.218-.302 6.266z" fill="#E07F6C"/><path d="M228.582 113.998l-.604-.12c-.242-.06-.484-.121-.665-.181-1.148-.241-2.176-.602-3.203-.964l-1.39-.542c-4.11-1.747-7.314-4.459-9.127-8.013-1.692-3.314-2.055-7.05-2.417-10.725.06 0 .121 0 .181.06 5.621 1.265 10.637 5.001 13.538 10.002 1.511 2.651 2.418 5.543 3.204 8.495.12.663.302 1.326.483 1.988z" fill="#FFE8C2"/><path opacity=".231" d="M228.584 113.999l-.604-.12c-.846-.904-1.511-2.049-2.357-3.013-1.39-1.687-3.203-2.892-4.835-4.217-.423-.302-.846-.663-1.028-1.145-.362-.783-.181-1.747-.604-2.47-.242-.362-.544-.603-.907-.844-2.296-1.747-4.291-3.977-5.741-6.447-.423-.723-.786-1.446-1.149-2.169 5.621 1.265 10.638 5.001 13.539 10.002 1.511 2.651 2.417 5.543 3.203 8.495.121.603.302 1.265.483 1.928z" fill="#F2913D"/><path opacity=".259" d="M212.749 95.201c-.121.181-.242.362-.302.542-.302.904-.061 1.988.06 2.952l.242 2.41c.484 2.772 2.115 5.242 4.231 7.17 1.692 1.567 3.686 2.832 5.681 3.977-4.11-1.748-7.313-4.459-9.126-8.014-1.693-3.314-2.055-7.049-2.418-10.724.061 0 .121 0 .181.06 5.621 1.265 10.638 5.001 13.539 10.001 1.511 2.651 2.417 5.544 3.203 8.496l-1.39-3.555c-.363-.964-.786-1.928-1.209-2.892-2.538-5.121-7.252-8.977-12.692-10.423z" fill="#B03533"/><path opacity=".51" d="M227.315 113.757c-1.149-.241-2.176-.602-3.204-.964-.12-.241-.241-.421-.423-.662-.423-.543-1.088-.904-1.631-1.266-.847-.542-1.572-1.265-2.176-2.108-.242-.302-.423-.784-.121-1.025.242-.18.604-.06.846.061 2.72 1.325 4.775 3.615 6.709 5.964z" fill="#fff"/><path d="M251.98 124.963c.061.181.121.362.182.603.06.241.121.482.181.663.302 1.084.725 2.169 1.148 3.133.182.482.424.903.605 1.325 1.994 3.977 4.895 6.989 8.582 8.616 3.385 1.446 7.192 1.627 10.879 1.747l-.06-.181c-1.632-5.543-5.621-10.302-10.819-12.833-2.72-1.325-5.681-2.048-8.703-2.651-.604-.181-1.33-.301-1.995-.422z" fill="#FFE8C2"/><path opacity=".231" d="M251.98 124.963c.061.181.121.362.182.603.967.783 2.176 1.386 3.203 2.169 1.753 1.265 3.082 3.012 4.533 4.579.363.361.725.783 1.209.964.785.301 1.752.06 2.478.482.362.181.604.542.906.843 1.874 2.169 4.231 4.037 6.83 5.302.725.362 1.511.723 2.236 1.025-1.632-5.543-5.621-10.303-10.818-12.834-2.72-1.325-5.682-2.048-8.704-2.651-.664-.241-1.39-.361-2.055-.482z" fill="#F2913D"/><path opacity=".259" d="M271.806 139.544l-.544.361c-.846.362-1.934.181-2.961.121l-2.418-.121c-2.841-.301-5.379-1.807-7.434-3.735-1.692-1.627-3.022-3.495-4.352-5.423 1.995 3.977 4.896 6.989 8.583 8.616 3.384 1.446 7.192 1.627 10.879 1.747l-.061-.18c-1.632-5.543-5.621-10.303-10.818-12.834-2.72-1.325-5.682-2.048-8.703-2.651l3.626 1.205c1.027.302 1.994.663 2.961 1.085 5.259 2.048 9.429 6.507 11.242 11.809z" fill="#B03533"/><path opacity=".51" d="M252.344 126.229c.302 1.084.725 2.169 1.148 3.133.242.12.484.241.665.361.604.362.967 1.024 1.39 1.567.604.783 1.39 1.506 2.236 2.048.302.181.846.362 1.028.06.181-.241.06-.602-.121-.843-1.511-2.651-3.868-4.579-6.346-6.326z" fill="#fff"/><path d="M253.854 163.403l-.363.422c-.483-.362-.967-.663-1.45-1.085-2.901-2.289-5.319-5.181-7.072-8.435-.241-.422-.423-.843-.604-1.265-.363-.723-.665-1.506-.907-2.229-.362-1.025-.664-2.049-.906-3.133-.363-1.687-.544-3.374-.544-5.061 0-1.989.181-3.977.665-5.905.121-.542.241-1.024.423-1.566.665-2.35 1.692-4.579 3.022-6.628.121 0 .181 0 .302.06 2.538.422 4.956 1.808 6.829 3.796 1.632 1.747 2.901 3.916 3.627 6.266.665 2.29.846 4.7.967 7.049.181 3.194.241 6.387-.302 9.52-.605 3.073-1.753 5.965-3.687 8.194z" fill="#FFE8C2"/><path opacity=".369" d="M253.854 163.403l-.061-.482v-.302c-.302-4.82-.665-9.7-1.39-14.52-.967-6.447-2.538-12.773-5.56-18.497-.181-.301-.363-.602-.484-.964 2.539.422 4.956 1.808 6.83 3.796 1.632 1.747 2.901 3.916 3.626 6.266.665 2.29.846 4.7.967 7.049.182 3.194.242 6.387-.302 9.52-.544 3.012-1.692 5.904-3.626 8.134z" fill="#F26D3D"/><path opacity=".18" d="M253.857 163.402l-.363.422c-.483-.361-.967-.663-1.45-1.084-2.901-2.29-5.319-5.182-7.071-8.436l1.088.904c1.631 1.265 3.445 2.41 5.499 2.531.847-3.133 1.149-6.447.907-9.701-.06-1.205-.242-2.41-.483-3.615l3.807 6.025c.302-4.458-.06-9.037-1.148-13.375-.363-1.567-.846-3.133-1.39-4.639 1.632 1.747 2.901 3.916 3.626 6.266.665 2.289.846 4.699.967 7.049.181 3.193.242 6.386-.302 9.519-.605 3.013-1.753 5.905-3.687 8.134z" fill="#F2913D"/><path opacity=".329" d="M253.856 163.402l-.363.422c-.483-.362-.967-.663-1.45-1.085.483.241.967.422 1.511.603.12-.181.241-.301.302-.482 1.692-2.591 2.84-5.603 3.203-8.736.483-3.856-.181-7.773-.846-11.629-.302-1.747-.605-3.494-1.33-5.121l-.181-.361c-.907-1.748-2.236-3.194-3.687-4.519-1.209-1.145-2.538-2.29-4.049-3.013-.182-.12-.423-.18-.665-.301-1.33 1.808-2.418 3.796-3.203 5.905.664-2.35 1.692-4.579 3.022-6.628.12 0 .181 0 .302.06 2.538.422 4.956 1.808 6.829 3.796 1.632 1.747 2.901 3.916 3.627 6.266.664 2.29.846 4.7.967 7.049.181 3.194.241 6.387-.303 9.52-.604 3.133-1.752 6.025-3.686 8.254z" fill="#B03533"/><path opacity=".51" d="M248.956 149.183c-.242-2.109-.483-4.338-1.813-6.025-.604-.783-1.39-1.386-2.055-2.048-1.209-1.205-2.055-2.712-2.478-4.339-.423 1.928-.665 3.917-.665 5.905 0 1.687.182 3.374.544 5.061.242 1.085.544 2.109.907 3.133.242.783.604 1.506.906 2.229.544-.723 1.209-1.325 2.055-1.626.907-.302 2.116-.241 2.539-1.085.181-.361.121-.783.06-1.205z" fill="#fff"/><path opacity=".839" d="M244.123 149.545c-.181.421-.484.903-.786 1.265-.362-1.024-.665-2.049-.906-3.133-.363-1.687-.544-3.374-.544-5.061.302 1.024.665 1.988 1.329 2.771.423.603 1.028 1.145 1.209 1.808.302.843.061 1.627-.302 2.35z" fill="#fff"/><path d="M212.032 112.311c-.846 1.325-2.297 2.108-3.747 2.41-2.539.482-5.44-.723-6.105-3.254l-.12-.542c-.061-.603-.061-1.265.12-1.868.061-.301.182-.663.303-.964 1.088-2.47 3.989-3.916 6.285-3.133 1.269.422 2.176.904 2.841 1.506l.302.302c.181.241.363.542.484.903.483 1.507.483 3.254-.363 4.64z" fill="#4D5673"/><path opacity=".541" d="M212.031 112.31c-.846 1.326-2.296 2.109-3.747 2.41-2.538.482-5.439-.723-6.104-3.253 1.208 1.386 2.901 1.747 4.049 1.868 1.511.18 4.714-.904 5.681-6.507.182.241.363.542.484.903.483 1.446.483 3.194-.363 4.579z" fill="#1C083B"/><path d="M209.13 110.804c-.121.12-.362.18-.423.361 0 .06 0 .181-.06.241l-.061.301c-.121.241-.362.482-.665.543-.362.12-.725.12-1.148.06-.181 0-.363-.06-.483-.121l-.061-.06c-.121-.12-.181-.361-.121-.482v-.06h-.06c-.363 0-.665-.241-.786-.542-.121-.362-.06-.784.121-1.085l.181-.181c.121-.241 0-.542-.181-.783.604-.301 1.148-.723 1.571-1.265.363.12.786.301 1.209.422.484-.121.786.18.907.482.181.301.302.662.362 1.084.121.422 0 .844-.302 1.085z" fill="#1F1347"/><path d="M206.41 112.19h-.121c-.121-.121-.181-.362-.121-.482.121.12.181.301.242.482zM208.707 111.406l-.06.301c0-.18-.061-.361.06-.542.061-.12.182-.241.303-.361.423-.543.423-1.386 0-1.868-.363-.362-.847-.482-1.391-.542-.302-.061-.604-.061-.846.12-.362.301-.302.964-.604 1.326l-.484.482c-.181.301 0 .662.242.964l.242.301c-.363 0-.665-.241-.786-.542-.121-.362-.06-.784.121-1.085l.181-.181c.121-.241 0-.542-.181-.783.604-.301 1.148-.723 1.571-1.265.363.12.786.301 1.209.422.484-.121.786.18.907.482.181.301.302.662.362 1.084.061.362-.06.783-.362 1.024-.121.121-.363.181-.423.362-.061.12-.061.241-.061.301z"/><path opacity=".349" d="M210.885 108.335l-.182.12c-.121 0-.181-.181-.241-.301-.121-.422-.544-.783-.967-.783-.182 0-.363.06-.484 0-.544-.121-.725-.723-1.148-1.085-.423-.361-1.028-.301-1.572-.06-.483.241-.906.723-1.208 1.205-.363.542-.726 1.145-.847 1.807-.06.362-.06.723-.181 1.085-.121.361-.363.723-.725.783-.544.121-.967-.482-1.088-1.024-.06-.301-.121-.663-.121-1.024.061-.302.181-.663.302-.964 1.088-2.471 3.989-3.917 6.286-3.133 1.269.421 2.176.903 2.841 1.506 0 .723-.182 1.386-.665 1.868z" fill="#BAB6F0"/><path opacity=".922" d="M208.282 107.912c-.302 0-.543-.06-.785-.241-.121-.06-.182-.18-.302-.18-.121 0-.242 0-.303.06-.241.12-.423.361-.604.542-.181.181-.363.422-.604.603.241-.121.483-.181.664-.362.182-.181.363-.361.544-.602.242-.241.423 0 .665.06.242.12.484.181.725.181.061.06.061-.061 0-.061z" fill="#fff"/><path d="M205.444 111.166l-.242-.543c-.06-.18 0-.361.121-.542.181-.241.544-.602.242-.904-.061-.12-.242.061-.182.181.121.121 0 .301-.06.362-.121.12-.242.301-.302.482-.06.421.181.723.423.964z" fill="#fff"/><path opacity=".8" d="M209.736 109.238v-.301c0-.121 0-.181-.061-.301 0-.121-.06-.181-.12-.302-.061-.06-.121-.12-.242-.18-.181-.121-.302-.181-.543-.241-.182 0-.182.241-.061.241s.302.12.363.241c.06.18.12.301.241.482.181.301.302.602.362.964h.061v-.603zM209.795 106.285c-1.088-.903-2.66-1.084-4.05-.542-1.45.542-2.599 1.808-2.901 3.434-.06.422.544.482.604.061.242-1.386 1.088-2.772 2.358-3.374 1.329-.663 2.84-.422 3.989.421zM205.079 112.431l-.362-.301-.06-.061h-.121l-.06-.06-.182-.181c-.12-.12-.302-.06-.362.061-.06.12-.06.301 0 .361l.181.181.242.181c.181.06.362.12.543.12.242-.06.302-.241.181-.301zM208.645 106.285c-.182-.12-.424-.241-.665-.301-.242 0-.484 0-.665.181-.061.06-.061.18 0 .241.06.06.181.06.242.06h.06l.121.06.423.181c.121.12.302.12.423-.06.181-.061.242-.241.061-.362z" fill="#fff"/><path d="M170.141 140.206c-.846 1.326-2.296 2.109-3.747 2.41-2.538.482-5.439-.723-6.104-3.253l-.121-.543c-.06-.602-.06-1.265.121-1.867.06-.302.181-.663.302-.964 1.088-2.471 3.989-3.917 6.286-3.133 1.269.421 2.175.903 2.84 1.506l.302.301c.182.241.363.542.484.904.483 1.446.483 3.253-.363 4.639z" fill="#4D5673"/><path opacity=".541" d="M170.141 140.206c-.847 1.325-2.297 2.109-3.748 2.41-2.538.482-5.439-.723-6.104-3.254 1.209 1.386 2.901 1.748 4.049 1.868 1.511.181 4.715-.904 5.682-6.507.181.241.362.542.483.904.484 1.386.484 3.193-.362 4.579z" fill="#1C083B"/><path d="M167.24 138.64c-.121.12-.363.18-.424.361 0 .06 0 .181-.06.241l-.06.301c-.121.241-.363.482-.665.543-.363.12-.725.12-1.149.06-.181 0-.362-.06-.483-.121l-.06-.06c-.121-.12-.182-.361-.121-.482v-.06h-.061c-.362 0-.665-.241-.786-.542-.12-.362-.06-.784.121-1.085l.182-.181c.121-.241 0-.542-.182-.783.605-.301 1.149-.723 1.572-1.265.362.12.785.301 1.209.422.483-.121.785.18.906.482.181.301.302.662.363 1.084.121.422 0 .844-.302 1.085z" fill="#1F1347"/><path d="M164.519 140.025h-.121c-.12-.12-.181-.361-.12-.482.12.121.181.302.241.482zM166.821 139.302l-.061.301c0-.18-.06-.361.061-.542.06-.12.181-.241.302-.361.423-.543.423-1.386 0-1.868-.363-.362-.846-.482-1.39-.542-.302-.061-.605-.061-.846.12-.363.301-.303.964-.605 1.326l-.483.482c-.182.301 0 .662.241.964l.242.301c-.362 0-.665-.241-.786-.542-.12-.362-.06-.784.121-1.085l.182-.181c.121-.241 0-.542-.182-.783.605-.301 1.149-.723 1.572-1.265.362.12.785.301 1.209.422.483-.121.785.18.906.482.181.301.302.662.363 1.084.06.362-.061.783-.363 1.024-.121.121-.363.181-.423.362-.06.12-.06.181-.06.301z"/><path opacity=".349" d="M168.994 136.23l-.181.12c-.121 0-.182-.181-.242-.301-.121-.422-.544-.783-.967-.783-.181 0-.363.06-.484 0-.543-.121-.725-.723-1.148-1.085-.423-.361-1.027-.301-1.571-.06-.484.241-.907.723-1.209 1.205-.363.542-.725 1.145-.846 1.807-.061.362-.061.723-.181 1.085-.121.361-.363.723-.726.783-.544.121-.967-.482-1.088-1.024-.06-.301-.121-.663-.121-1.024.061-.302.182-.663.303-.964 1.088-2.471 3.989-3.917 6.285-3.133 1.269.421 2.176.903 2.841 1.506 0 .663-.181 1.386-.665 1.868z" fill="#BAB6F0"/><path opacity=".922" d="M166.396 135.808c-.302 0-.544-.06-.786-.241-.121-.06-.181-.181-.302-.181s-.242 0-.302.06c-.242.121-.423.362-.605.543-.181.18-.362.421-.604.602.242-.12.483-.181.665-.361.181-.181.362-.362.544-.603.241-.241.423 0 .664.06.242.121.484.181.726.181.06 0 .06-.06 0-.06z" fill="#fff"/><path d="M163.553 139.061l-.241-.542c-.061-.181 0-.362.12-.542.182-.241.544-.603.242-.904-.06-.121-.242.06-.181.181.121.12 0 .301-.061.361-.12.121-.241.301-.302.482-.06.362.182.723.423.964z" fill="#fff"/><path opacity=".8" d="M167.845 137.073v-.301c0-.121 0-.181-.06-.301 0-.121-.061-.181-.121-.302-.06-.06-.121-.12-.242-.18-.181-.121-.301-.181-.543-.241-.181 0-.181.241-.06.241.12 0 .302.12.362.241.06.18.121.301.241.482.182.301.302.602.363.964h.06v-.603zM167.904 134.121c-1.088-.904-2.659-1.085-4.049-.543-1.451.543-2.599 1.808-2.902 3.435-.06.421.544.482.605.06.242-1.386 1.088-2.772 2.357-3.374 1.33-.663 2.841-.362 3.989.422zM163.189 140.267l-.363-.301-.06-.061h-.121l-.06-.06-.181-.181c-.121-.12-.302-.06-.363.061-.06.12-.06.301 0 .361l.182.181.241.181c.181.06.362.12.544.12.241-.06.302-.241.181-.301zM166.754 134.121c-.181-.12-.423-.241-.665-.301-.242 0-.483 0-.665.181-.06.06-.06.18 0 .241.061.06.182.06.242.06h.06l.121.06.423.181c.121.12.303.12.423-.06.182-.061.242-.241.061-.362z" fill="#fff"/><path d="M265.328 107.431c-1.088.663-2.478.602-3.626.241-2.055-.663-3.747-2.651-3.324-4.76 0-.12.06-.301.121-.422.181-.482.423-.903.725-1.325.181-.181.363-.422.604-.542 1.693-1.386 4.352-1.266 5.742.241.786.843 1.269 1.506 1.511 2.229l.121.361c.06.241.06.543.06.844-.121 1.205-.785 2.47-1.934 3.133z" fill="#4D5673"/><path opacity=".541" d="M265.328 107.431c-1.088.663-2.478.602-3.626.241-2.055-.663-3.747-2.651-3.324-4.76.423 1.446 1.511 2.41 2.297 2.952 1.027.723 3.747 1.205 6.527-2.47.06.241.06.542.06.844-.121 1.265-.785 2.53-1.934 3.193z" fill="#1C083B"/><path d="M263.815 105.201c-.121.06-.302 0-.423.121l-.121.18-.181.181c-.181.121-.423.181-.665.121-.302-.061-.604-.241-.846-.422-.121-.06-.242-.181-.302-.301v-.061c-.061-.12 0-.301.121-.421h.06-.06c-.242-.121-.423-.422-.363-.723 0-.302.242-.603.484-.723l.181-.061c.181-.12.181-.421.181-.662.544 0 1.088-.121 1.632-.302l.725.784c.423.12.484.421.484.723 0 .301 0 .602-.121.903-.242.362-.483.603-.786.663z" fill="#1F1347"/><path d="M261.275 105.141l-.06-.06c-.06-.121 0-.301.121-.422 0 .181 0 .301-.061.482zM263.273 105.503l-.181.181c.06-.181.121-.301.242-.362.121-.06.241-.12.362-.12.544-.181.846-.844.665-1.326-.121-.421-.483-.662-.786-.903-.181-.121-.423-.302-.664-.241-.363.06-.544.542-.907.723-.181.06-.363.06-.544.18-.242.181-.242.482-.181.784l.06.301c-.242-.121-.423-.422-.362-.723 0-.301.241-.603.483-.723l.181-.06c.182-.121.182-.422.182-.663.544 0 1.088-.121 1.632-.301l.725.783c.423.12.483.422.483.723s0 .602-.121.904c-.12.301-.362.542-.664.602-.121.06-.303 0-.423.121-.121 0-.182.06-.182.12z"/><path opacity=".349" d="M265.931 104.117h-.121c-.121-.06-.061-.181-.061-.301.061-.362-.121-.784-.423-.965l-.362-.18c-.363-.302-.242-.844-.424-1.266-.181-.421-.664-.662-1.148-.662-.483 0-.906.18-1.33.361-.483.241-.906.542-1.269.964-.181.241-.302.542-.544.723-.181.241-.544.362-.785.302-.423-.121-.544-.724-.423-1.206.06-.241.12-.542.241-.783.182-.181.363-.422.605-.542 1.692-1.386 4.351-1.265 5.741.241.786.843 1.27 1.506 1.511 2.229-.241.543-.665.964-1.208 1.085z" fill="#BAB6F0"/><path opacity=".922" d="M264.18 102.791c-.182-.12-.363-.301-.484-.482-.06-.12-.06-.18-.181-.241-.061-.06-.181-.06-.242-.06-.242-.06-.423.06-.604.181-.242.06-.423.181-.665.181.181 0 .423.06.604 0l.605-.181c.241-.121.302.181.423.301.121.181.242.301.483.422.061 0 .121-.121.061-.121z" fill="#fff"/><path d="M260.916 103.996v-.482c.06-.18.121-.301.302-.361.241-.06.604-.241.483-.542 0-.121-.181-.061-.181.06.06.12-.121.181-.181.241-.182.06-.302.12-.363.241-.181.301-.121.602-.06.843z" fill="#fff"/><path opacity=".8" d="M264.783 104.298l.121-.241c.061-.061.061-.181.061-.241v-.241c0-.061-.061-.181-.121-.241-.061-.121-.181-.302-.302-.362s-.242.06-.121.181c.121.06.181.181.181.301v.422c0 .301 0 .542-.06.843h.06c.061-.12.121-.241.181-.421zM265.932 102.19c-.484-1.085-1.572-1.868-2.781-1.989-1.269-.18-2.598.302-3.384 1.326-.181.301.242.602.423.301.665-.904 1.813-1.566 2.961-1.506 1.209 0 2.237.843 2.781 1.868zM260.248 104.78l-.181-.362-.06-.06v-.06c-.061-.061-.061-.121-.061-.181-.06-.121-.181-.181-.302-.121-.12.061-.181.181-.12.302l.06.18.121.241c.121.121.241.241.362.302.121-.061.242-.181.181-.241zM265.085 101.767c-.06-.18-.181-.361-.362-.482-.181-.12-.363-.181-.544-.12-.06 0-.121.12-.06.18.06.061.121.121.121.181l.06.061.06.06.242.301c.06.121.181.181.302.121.121-.061.241-.181.181-.302z" fill="#fff"/><path d="M251.127 120.023c-.121.301-.363.603-.544.904-.484.602-1.149 1.084-1.814 1.386-1.752.843-3.928.903-5.499-.181-.424-.301-.786-.663-1.088-1.085-.484-.662-.786-1.506-.907-2.35-.181-1.144 0-2.349.544-3.374.302-.542.665-1.084 1.148-1.506 1.511-1.205 3.687-.843 5.561-.422.906.482 1.511 1.025 1.994 1.567.605.663.907 1.386 1.088 2.109 0 .964-.121 2.048-.483 2.952z" fill="#4D5673"/><path opacity=".439" d="M250.524 120.926c-.483.603-1.148 1.085-1.813 1.386-1.753.844-3.928.904-5.5-.181-1.148-.783-1.813-2.048-2.055-3.434.484.241 1.088.422 1.632.542 1.148.241 2.418.482 3.566.121 1.571-.422 2.72-1.868 3.566-3.254.181-.361.423-.723.483-1.144v-.061c.605.663.907 1.386 1.088 2.109.242 1.386-.121 2.832-.967 3.916z" fill="#1C083B"/><path d="M251.128 118.095c-.362.301-.483.241-.664 0-.363-.602-1.934-.964-1.995-1.747v-1.205c-.06-.422-.363-.482-.907-.723l.182-1.024h.362c.907.12 1.693.723 1.693.723.362.723.665.843.906 1.084.242.301.423.844.423.844v.361c-.06.723.121 1.205 0 1.687z" fill="#1F1347"/><path d="M251.128 118.095c-.362.301-.483.241-.664 0-.363-.602-1.934-.964-1.995-1.747v-1.205c-.06-.422-.363-.482-.907-.723l.182-1.024h.362c-.12.18-.241.421-.12.602.12.241.483.362.664.542.544.482.303 1.386.726 1.989.181.241.423.421.664.542.121.06.242.12.363.12s.181-.06.242-.12c.181-.181.302-.362.423-.603 0 .663.181 1.145.06 1.627z"/><path opacity=".329" d="M245.146 113.697c-.847-.061-1.693.361-2.297 1.024-.605.602-.967 1.446-1.209 2.289-.06.241-.121.543 0 .784.061.18.242.361.423.482.967.662 2.236.903 3.385.723.846-.121 1.752-.482 2.176-1.266.423-.783.241-1.747-.182-2.53-.362-.844-1.148-1.446-2.296-1.506z" fill="#BAB6F0"/><path d="M251.125 120.023c-.121.302-.363.603-.544.904-.484.603-1.149 1.085-1.814 1.386-1.752.843-3.928.904-5.499-.181-.423-.301-.786-.663-1.088-1.084l1.088.361c1.813.482 3.807.542 5.56-.06.725-.241 1.571-.723 2.297-1.326z"/><path d="M247.562 113.877l-.061-.06-.06-.12v-.061c.06-.06.06-.12 0-.12-.061-.06-.121-.06-.121 0-.181.12-.121.361-.06.542l.12.241c.061.06.061.121.061.181l.06.06c.121-.301.061-.482.061-.663zM248.708 117.01c-.302-.301-.604-.783-.544-1.205l.061-.18.06-.181.061-.362c-.061-.301-.363-.421-.604-.482-.182-.06-.302.181-.121.302.121.06.241.12.302.18.06.061.121.181.121.241.06.121 0 .241 0 .362v.361c.06.422.302.784.664.964zM245.507 113.998c-.483-.06-.906 0-1.329.121-.423.12-.786.421-1.088.723-.665.663-.967 1.627-1.028 2.591 0 .06.061.06.061 0 .242-.784.665-1.567 1.39-1.989.302-.181.604-.241.907-.361.302-.121.604-.121.906-.121.665.121.786-.843.181-.964zM244.597 116.106c0-.12-.181-.241-.302-.241h-.121l-.242.06c-.121.061-.302.181-.423.302l-.121.12-.121.181-.06.241v.181c0 .12.121.18.242.12l.06-.06c.061 0 .121-.06.182-.121l.241-.18.242-.181.121-.06.121-.121c.181 0 .242-.12.181-.241z" fill="#fff"/><path d="M167.602 108.455c-.061.361-.121.723-.302 1.024-.303.723-.786 1.326-1.391 1.868-1.45 1.265-3.505 1.988-5.318 1.386-.484-.181-.967-.422-1.33-.723-.665-.543-1.209-1.205-1.571-1.989-.484-1.084-.665-2.289-.423-3.434.121-.602.302-1.265.725-1.747 1.148-1.567 3.324-1.868 5.198-1.988.967.241 1.752.542 2.357.903.786.482 1.269 1.085 1.632 1.748.423.964.544 1.988.423 2.952z" fill="#4D5673"/><path opacity=".439" d="M167.297 109.479c-.302.723-.785 1.325-1.39 1.867-1.45 1.266-3.505 1.989-5.318 1.386-1.33-.422-2.358-1.446-2.901-2.711.543.12 1.148.12 1.752.06 1.209-.06 2.418-.241 3.445-.843 1.39-.904 2.116-2.531 2.478-4.158.121-.421.182-.843.182-1.265v-.06c.785.482 1.269 1.084 1.631 1.747.544 1.265.665 2.772.121 3.977z" fill="#1C083B"/><path d="M167.06 106.647c-.242.362-.423.362-.605.181-.544-.482-2.115-.362-2.417-1.085l-.363-1.144c-.181-.362-.483-.362-1.027-.422.302-.422-.302-.482-.121-1.024.121-.061.242-.061.362-.061.907-.12 1.814.241 1.814.241.544.603.906.603 1.208.784.363.241.665.723.665.723l.061.361c.121.542.423.904.423 1.446z" fill="#1F1347"/><path d="M167.06 106.647c-.242.362-.423.362-.605.181-.544-.482-2.115-.362-2.417-1.085l-.363-1.144c-.181-.362-.483-.362-1.027-.422.302-.422-.302-.482-.121-1.024.121-.061.242-.061.362-.061-.06.241-.12.482.061.663.181.241.544.181.786.301.664.302.725 1.266 1.269 1.687.242.181.483.241.786.362.12.06.241.06.362 0s.181-.121.181-.241c.121-.241.182-.482.242-.723.182.602.484.964.484 1.506z"/><path opacity=".329" d="M160.167 104.056c-.847.181-1.511.844-1.935 1.627-.423.783-.543 1.627-.483 2.531 0 .301.06.542.181.783.121.181.363.301.544.361 1.149.362 2.357.241 3.445-.241.786-.361 1.511-.964 1.753-1.807.181-.844-.242-1.747-.846-2.41-.665-.723-1.572-1.085-2.659-.844z" fill="#BAB6F0"/><path d="M167.602 108.454c-.06.362-.121.723-.302 1.024-.302.723-.786 1.326-1.39 1.868-1.451 1.265-3.505 1.988-5.319 1.386-.483-.181-.967-.422-1.329-.723.362.06.725.06 1.148.06 1.874-.06 3.808-.542 5.319-1.627.725-.482 1.39-1.205 1.873-1.988z"/><path d="M162.464 103.635l-.061-.06-.06-.121v-.181c-.061-.06-.121 0-.121 0-.121.181-.06.362.06.543l.182.18.12.181c0 .06.061.06.061 0 0-.241-.061-.422-.181-.542zM164.458 106.286c-.423-.181-.786-.543-.846-1.025v-.421c0-.121 0-.241-.061-.362-.12-.241-.423-.301-.725-.301-.181 0-.242.301-.06.301.121 0 .241 0 .362.121.061.06.182.12.182.241l.121.361.12.362c.182.301.484.602.907.723zM160.53 104.297c-.484.061-.907.241-1.269.482-.363.241-.665.603-.847 1.025-.423.843-.483 1.867-.241 2.771 0 .06.06.06.06 0 0-.843.181-1.687.786-2.289.242-.241.483-.422.785-.603.242-.181.544-.301.847-.361.664-.121.544-1.145-.121-1.025zM160.29 106.526c-.06-.12-.241-.18-.362-.12-.061 0-.121 0-.121.06l-.181.121c-.121.12-.242.241-.302.361l-.06.181-.061.241v.241l.061.181c.06.06.181.12.241.06l.06-.06.121-.121.181-.241.182-.241.12-.12.061-.121c.121-.181.121-.301.06-.422z" fill="#fff"/><path d="M231.312 149.004c-4.594 5.061-11.967 8.736-18.857 8.194-4.956-.362-9.247-3.856-12.45-7.652-1.572-1.868-3.022-3.916-3.929-6.206l-.181-.482c-1.269-3.494-1.149-7.29-.061-10.785l.182-.542c1.027-3.013 2.84-5.844 5.137-8.074l.06-.06c5.259-5.001 11.846-8.796 19.099-9.7 3.808-.482 7.555.361 11.967 3.615 3.022 2.229 4.895 4.398 5.983 6.748.725 1.566 1.088 3.193 1.209 5.061.121 2.109-.181 4.398-.846 6.688-1.451 5.061-4.473 10.122-7.313 13.195z" fill="#BF9969"/><path d="M212.455 156.415c-4.775-.362-8.824-3.615-11.907-7.291-1.51-1.807-2.901-3.735-3.747-5.904-1.39-3.434-1.269-7.23-.181-10.725.967-3.072 2.78-5.964 5.137-8.254l.061-.06c5.016-4.82 11.362-8.435 18.313-9.339 3.686-.482 7.252.301 11.422 3.434 4.715 3.495 6.528 6.809 6.83 11.267.423 6.447-3.928 14.701-7.917 19.039-4.352 4.76-11.423 8.315-18.011 7.833z" fill="#9EA635"/><path opacity=".231" d="M228.837 120.867c-2.115-1.145-4.351-2.35-6.708-2.29-.968.061-1.874.302-2.781.543-5.802 1.687-11.423 4.518-15.109 9.278-1.028 1.326-1.934 2.832-2.781 4.278-.483.843-1.027 1.747-1.269 2.711-.785 3.013.967 6.085 1.934 9.098.182.603.363 1.205.726 1.687.483.663 1.208 1.085 1.813 1.567.785.662 1.39 1.566 2.236 2.229 1.148.904 2.659 1.265 4.11 1.506 5.198.844 10.939.603 14.747-2.771 1.813-1.567 3.022-3.736 4.231-5.905 1.148-2.109 2.296-4.218 3.384-6.447 1.33-2.651 2.478-5.603 2.055-8.616-.604-3.253-3.747-5.302-6.588-6.868z" fill="#DAE087"/><path opacity=".29" d="M227.627 118.035c-2.237-1.325-5.017-1.386-7.555-.843-2.539.542-4.896 1.687-7.253 2.711-1.813.783-3.626 1.506-5.258 2.651-1.874 1.325-3.324 3.193-4.714 5.001-1.451 1.867-2.901 3.795-3.506 6.085-.423 1.627-.302 3.314-.423 5.001-.06 1.626-.302 3.434.605 4.82.544.843 1.45 1.446 2.055 2.289.423.663.664 1.386 1.027 2.109.484.904 1.088 1.687 1.813 2.35 1.753 1.807 3.929 3.253 6.286 4.036 2.357.784 5.016.844 7.373 0 .907-.301 1.693-.783 2.539-1.205 2.296-1.265 4.593-2.53 6.527-4.217 4.473-3.796 6.951-9.52 8.28-15.243.484-2.109.846-4.338.484-6.507-.786-4.158-4.594-6.869-8.28-9.038z" fill="#DAE087"/><path d="M220.918 131.531c.786-3.495 1.874-7.049 4.049-9.881.303-.422.726-.904 1.27-.904-.242 1.747-.907 3.374-1.632 5.001-.786 1.807-1.693 3.555-2.599 5.302-.121.241-.302.542-.605.602-.181.061-.423 0-.483-.12zM221.277 131.893c1.149-1.808 2.357-3.555 3.627-5.182.846-1.084 1.752-2.169 2.961-2.892.363-.181.725-.361 1.088-.422.423-.06.846.061 1.088.362.121.12.242.301.181.482 0 .241-.181.482-.362.663-1.753 1.687-3.506 3.313-5.319 4.94-.907.844-1.934 1.747-3.264 2.049zM221.942 131.893c2.961-1.928 6.406-3.073 9.912-3.314.241 0 .544-.06.785.06.242.121.484.362.484.603 0 .301-.302.482-.544.663-.725.421-1.511.662-2.236.903-2.418.784-4.835 1.567-7.374 2.049-.362.06-.725.12-1.027-.06-.302-.181-.423-.663 0-.904zM222.123 133.098c3.868-.904 7.918-.964 11.846-.301.182.06.423.06.605.241.181.12.241.361.121.542-.061.12-.182.181-.303.181-3.505 1.385-7.434 1.385-11.241 1.325-.544 0-1.149 0-1.632-.301-.121-.06-.242-.181-.302-.301-.061-.121-.061-.241-.061-.302.182-.542.423-.964.967-1.084zM221.159 134.905c2.961-.12 5.983.121 8.884.723.967.181 1.995.422 2.78 1.085.182.18.363.361.423.542.121.422-.121.904-.544 1.145-.362.241-.846.241-1.329.241-3.264.06-6.528-.482-9.61-1.567-.181-.06-.302-.12-.423-.241-.363-.361-.181-1.024-.181-1.928zM221.036 137.134c3.203.663 6.285 1.928 9.066 3.736.362.241.725.482.967.843.241.362.302.844.12 1.205-.241.362-.664.482-1.027.422-.423 0-.786-.181-1.148-.361-2.539-1.145-5.077-2.35-7.313-4.037-.242-.181-.484-.362-.605-.663-.121-.181-.121-.542-.06-1.145zM220.613 137.978c2.236 1.567 4.351 3.314 6.285 5.302.725.723 1.451 1.627 1.511 2.651 0 .06 0 .181-.06.241-.061.121-.242.181-.363.181-.665.06-1.39-.181-1.994-.542-.605-.362-1.088-.844-1.572-1.386-1.45-1.446-2.78-2.952-4.11-4.519-.302-.301-.544-.723-.544-1.145-.06-.421.484-.783.847-.783zM219.527 138.28c2.115 2.53 3.626 5.482 4.473 8.676.241.843.362 1.747.12 2.53-1.027-.482-1.571-1.566-2.054-2.53l-3.143-6.688c-.242-.482-.423-.964-.302-1.446.12-.542.846-.844.906-.542zM218.374 138.641c1.33 3.434 1.693 7.23 1.088 10.784-.06.241-.121.543-.362.663-.121.06-.302 0-.423 0-.484-.181-.846-.663-1.028-1.145-.181-.482-.242-1.024-.242-1.566l-.362-6.688c0-.422-.061-.904.121-1.325.181-.422.604-.723 1.208-.723zM216.99 139.364c-.06 3.133-.725 6.206-1.45 9.278-.182.844-.423 1.808-1.149 2.41-.544 0-.664-.723-.664-1.205.241-3.133 1.087-6.205 1.994-9.218.06-.241.181-.542.363-.723.302-.181.664-.12.906-.542zM216.144 139.424c-.906 2.349-1.873 4.639-2.961 6.928-.605 1.266-1.209 2.531-2.237 3.435-.12.12-.362.241-.543.181-.303-.121-.242-.482-.182-.784.907-3.314 2.055-6.567 3.445-9.7.121-.241.242-.542.423-.723.302-.301.846-.301 1.209-.121.363.241.604.723.846.784zM213.967 138.219c-1.632 3.434-3.264 6.989-6.044 9.64-.423.422-.906.783-1.45.783.06-1.024.544-2.048 1.027-2.952 1.028-1.808 2.115-3.615 3.324-5.302.786-1.085 1.753-2.229 3.083-2.35 0 .06 0 .121.06.181zM213.784 137.857c-2.539 2.591-5.621 4.579-9.005 5.905-.847.301-1.814.602-2.599.18 0-.542.302-1.024.725-1.325.423-.301.907-.542 1.33-.783 2.659-1.205 5.076-2.832 7.554-4.278.363-.241.786-.422 1.209-.482.423-.06.907.06 1.149.422.241.361.06.964-.363.361zM213.422 137.074c-3.747 1.326-7.676 2.169-11.604 2.531-.302 0-.604.06-.846-.061-.242-.12-.484-.361-.484-.662.061-.362.423-.543.786-.663 3.566-1.265 7.373-1.808 11.121-2.41.483-.06 1.088-.06 1.269.361.121.362.06.784-.242.904zM213.361 135.629c-1.753.421-3.566 0-5.319-.121-1.209-.12-2.478-.06-3.687-.301-1.208-.181-2.478-.663-3.324-1.506 1.028-.422 2.116-.302 3.203-.181 2.599.301 5.198.482 7.797.602.423 0 .907.061 1.269.362.302.361.302 1.084.061 1.145zM214.028 134.423c-3.324-.121-6.588-.904-9.61-2.41-.725-.362-1.45-.783-1.934-1.386-.181-.241-.363-.542-.242-.843.182-.362.665-.302 1.088-.241 2.116.482 4.231 1.144 6.346 1.807.786.241 1.511.482 2.297.783.725.302 1.39.663 2.055 1.025.181.12.423.301.483.542.061.241-.121.542-.302.663-.242.18-.544.18-.181.06zM214.689 133.639c-3.264-1.265-6.286-3.313-8.522-6.025-.242-.301-.484-.662-.423-1.024.06-.422.483-.663.906-.602.423 0 .786.18 1.149.421 2.478 1.326 4.774 2.953 6.708 4.941.242.241.484.482.605.843.121.302.181.723 0 1.025l-.423.421zM215.719 132.977c-2.297-2.169-4.291-4.699-5.863-7.411-.423-.723-.846-1.566-.664-2.35l.06-.241c.06-.06.181-.12.302-.12.423 0 .786.181 1.028.482.302.301.483.663.664.964 1.33 2.35 3.264 4.278 4.654 6.567.242.362.423.784.423 1.205-.06.482-.483.904-.604.904zM216.505 132.254c-2.176-2.892-3.868-6.326-3.868-9.941 0-.422.121-.964.544-1.085.121-.06.302-.06.483.06.181.121.302.302.423.543 1.572 3.193 3.022 6.507 3.566 10.001v.301c-.06.241-.363.302-.544.302-.242-.061-.483-.061-.604-.181zM217.77 132.555c-.544-2.771-.846-5.603-.967-8.435-.06-1.205-.06-2.47.303-3.615.06-.181.12-.422.302-.542.423-.301.967.12 1.148.542.242.422.242.904.302 1.386.303 3.073.484 6.145.423 9.278 0 .241 0 .482-.12.663-.242.422-.847.362-1.33.241.06.06.06-.06-.061.482zM219.406 132.134c0-3.735.121-7.591 1.632-10.965.121-.241.242-.543.423-.723.181-.181.484-.302.786-.241.242.06.423.361.483.602.061.301 0 .542 0 .844-.423 2.771-.846 5.543-1.208 8.314-.061.542-.182 1.145-.544 1.567-.121.12-.242.241-.423.301-.363.181-.786 0-1.149.301z" fill="#7C8013"/><path d="M231.309 126.711c-2.961 1.085-5.802 2.471-8.461 4.158-.363.241-.786.542-.907.964 3.204-1.446 6.346-3.133 9.368-5.122zM233.543 130.99c-3.082.421-6.225.903-9.308 1.325-.543.061-1.087.181-1.571.482 1.39.121 2.78-.06 4.11-.241 1.934-.241 3.868-.482 5.742-1.084.423-.121.785-.241 1.027-.482zM233.178 135.207c-3.807-.723-7.736-.783-11.604-.301 2.357.542 4.835.482 7.253.421 1.39 0 2.84 0 4.351-.12zM231.975 139.545l-9.852-2.41c-.363-.06-.786-.181-1.088 0 1.813.904 3.868 1.326 5.863 1.747 1.692.302 3.445.603 5.077.663zM229.677 143.883c-2.66-2.049-5.44-3.977-8.28-5.664-.302-.18-.786-.361-.967 0 2.84 2.35 5.983 4.338 9.247 5.664zM226.654 147.619c-1.874-2.952-4.05-5.784-6.407-8.375-.121-.181-.363-.301-.544-.241 1.995 3.193 3.989 6.507 6.951 8.616zM221.46 149.426c-.544-3.675-1.148-7.41-3.022-10.604-.121.723.242 1.507.484 2.23.362 1.144.483 2.41.664 3.615.303 1.626.847 3.313 1.874 4.759zM216.505 150.39l.725-6.025c.241-1.747.422-3.555.12-5.302-.845 3.736-1.147 7.531-.845 11.327zM212.934 149.306c.906-2.591 1.813-5.182 2.598-7.833.182-.482.303-.964.303-1.506-1.209 3.073-2.418 6.145-2.901 9.339zM209.371 148.462l2.357-4.338c.907-1.747 1.874-3.555 2.176-5.483-2.055 3.133-3.687 6.567-4.533 9.821zM205.565 145.811c2.719-2.41 5.379-4.88 7.736-7.652-3.324 2.229-6.225 5.001-8.703 8.194l.967-.542zM213.477 136.955l-5.56 2.892c-1.874.903-3.928 1.626-5.983 1.687 3.445-2.109 7.192-3.736 11.543-4.579zM213.178 135.629c-3.989.602-8.099 1.265-12.088.542 3.989-.482 7.978-.723 12.088-.542zM213.905 134.544c-4.05.121-8.099-.662-11.846-2.169 3.505.663 7.01 1.205 10.576 1.567.544 0 1.149.12 1.27.602zM214.629 133.941c-2.78-1.265-5.561-2.651-8.341-4.097-.665-.361-1.329-.783-1.511-1.446 1.149.904 2.478 1.446 3.748 1.989 2.236.964 4.351 2.048 6.104 3.554zM215.475 133.219c-2.599-2.41-5.198-4.88-7.373-7.652 2.478 2.049 4.835 4.218 7.071 6.507.242.241.483.543.423.904-.06.06-.242.06-.121.241zM216.323 132.315c-.907-1.566-1.813-3.073-2.78-4.639-.484-.844-.967-1.687-1.391-2.531-.483-1.024-.846-2.048-1.027-3.133 1.994 3.434 3.868 6.989 5.621 10.544.121.121 0 .422-.423-.241zM217.773 132.195c-1.088-3.555-2.176-7.17-2.539-10.846 0-.301 0-.662.303-.723.906 3.856 1.752 7.713 2.236 11.569zM219.163 131.893c-.242-4.217-.484-8.495.905-12.472.302 3.736.182 7.471-.302 11.207-.12.422-.181.783-.603 1.265zM220.371 131.893c.786-4.097 1.995-8.134 3.687-11.93.121.603-.061 1.145-.181 1.687l-2.358 8.556c-.12.663-.362 1.325-1.148 1.687zM221.641 131.351c1.511-3.434 3.142-6.989 6.043-9.339-1.752 3.193-3.686 6.266-6.043 9.339z" fill="#EAEDCE"/><path opacity=".38" d="M212.455 156.415c-4.775-.362-8.824-3.615-11.907-7.291-1.51-1.807-2.901-3.735-3.747-5.904-1.39-3.434-1.269-7.23-.181-10.725-.363 5.543 1.148 11.267 4.654 15.545 4.11 5.001 11 7.832 17.225 6.447 6.95-1.567 11.906-7.592 15.532-13.737 2.599-4.399 4.775-9.701 2.962-14.46-.786-2.109-2.297-3.857-3.868-5.483-1.269-1.326-2.659-2.591-4.291-3.495-4.412-2.591-10.093-2.41-14.868-.663-4.775 1.748-8.824 5.001-12.692 8.315l.362-.723.061-.06c5.016-4.82 11.362-8.435 18.313-9.339 3.686-.482 7.252.301 11.423 3.434 4.714 3.495 6.527 6.809 6.829 11.267.423 6.447-3.928 14.701-7.917 19.039-4.231 4.76-11.302 8.315-17.89 7.833z" fill="#372C4D"/><path d="M214.153 134.243l.121-.181v-.121c0-.06 0-.18-.061-.241l-.06-.12h.121l.12-.06h.061c.06 0 .181-.061.242-.121l.181-.181v-.06l.06-.12v-.241l-.06-.181-.061-.06-.06-.061-.06-.06c-.061-.06-.121-.12-.242-.181l-.061-.06h-.12c-.061-.06-.121-.06-.242-.06h-.242c-.06 0-.121.06-.181.12l-.121.061-.181.18-.061.181v.181c0 .06 0 .181.061.241l.06.12c.06.121.121.181.242.241l.181.061h-.06l-.121.06-.182.12-.06.121c-.06.06-.06.12-.06.181v.12l.06.121c0 .06.06.12.121.12l.121.06.06.061.121.06h.242c.06 0 .121 0 .121-.06-.121-.121-.061-.181 0-.241zM213.307 135.206c.061-.06.061-.12.061-.241v-.18c0-.061 0-.121-.061-.181l-.06-.121-.121-.12-.121-.06h-.363c-.121 0-.241 0-.362.06l-.182.06c-.06 0-.121.06-.181.121l-.181.18-.061.121c0 .06-.06.12 0 .241 0 .06 0 .12.061.12 0 .061.06.121.121.181l.12.06c.061.061.182.061.303.061h.483c.061 0 .121 0 .242-.061.06 0 .121-.06.181-.12l.121-.121zM212.456 133.76c.06-.06.121-.12.121-.241v-.18c0-.121 0-.181-.061-.302l-.12-.12c-.061-.06-.182-.121-.303-.181h-.06l-.121-.06h-.06c-.061 0-.121 0-.182-.06h-.241l-.242.06c-.061.06-.181.12-.181.181l-.061.12-.121.301c0 .241.121.422.302.543l.061.06.06.06c.061.06.182.06.242.06h.423l.242-.06c.181-.06.242-.12.302-.181zM215.54 131.411l.06-.121c0-.06.061-.18 0-.241 0-.06 0-.18-.06-.241l-.061-.06-.06-.06c-.06-.06-.121-.121-.121-.181s-.06-.12-.121-.12c-.06-.061-.121-.121-.241-.121l-.182-.06c-.06-.06-.121-.06-.181-.06h-.242l-.181.06-.181.181-.061.12c-.06.06-.06.181-.06.241v.181c0 .12.06.181.181.301l.121.121v.06c.06.181.242.241.423.301h.121l.121.06h.241c.061 0 .121 0 .182-.06.06 0 .121-.06.181-.12l.121-.181zM217.718 131.471v-.181c0-.12 0-.241-.061-.361v-.181l-.06-.241v-.06l-.121-.121c-.06-.06-.121-.12-.181-.12l-.182-.06h-.302c-.121 0-.181 0-.242.06-.12.06-.181.06-.241.181l-.121.18c-.061.121-.121.241-.121.362v.181l.06.18.061.121.06.12.061.121.121.12.12.121c.061.06.121.12.242.12h.242l.242-.06.121-.12c.181-.181.241-.241.302-.362zM219.228 131.41l.06-.12v-.121l.061-.12v-.362l-.061-.18c-.06-.061-.06-.121-.181-.121-.06-.06-.121-.06-.181-.06h-.182l.121-.121.061-.06.121-.241v-.422l-.061-.12c-.06-.06-.06-.121-.181-.181l-.121-.06c-.061-.06-.121-.06-.242-.06h-.181l-.121.06-.181.181c-.061.06-.121.12-.121.241l-.061.18v.603l.061.181.121.12.121.06h.241l-.06.061c-.061.06-.061.12-.061.18v.422l.061.121.06.12v.06l.061.061.121.06.12.06c.182.06.363 0 .484-.12.06-.241.06-.241.121-.302zM220.858 130.808l.06-.06.061-.06.06-.06.06-.121.061-.181c.06-.12.06-.301 0-.421l-.061-.181-.12-.121-.121-.12c-.061-.06-.121-.121-.242-.121h-.363c-.06 0-.181.061-.241.121l-.182.181-.121.241v.18c-.06.121-.06.241 0 .302v.18c0 .061.061.121.121.181l.182.181.12.06h.303l.121-.06c.181.06.241 0 .302-.121zM222.248 130.869c.06-.061.12-.121.12-.241v-.241s0-.121-.06-.121l-.121-.181-.121-.06c-.06-.06-.12-.06-.181-.06h-.121l-.12.06-.061.06-.06.061-.121.06-.06.12-.061.121v.361l.061.121.12.06c.061.06.182.06.242.06.121 0 .181 0 .302-.06l.06-.06c.061.06.121 0 .182-.06zM223.639 130.567l.242-.121.242-.18.06-.061c.06-.06.121-.12.181-.241.061-.06.061-.18.061-.241v-.18c0-.061-.061-.181-.121-.241 0-.061-.061-.121-.121-.121-.06-.06-.121-.12-.242-.12h-.181c-.121 0-.242.06-.363.12l-.06.06h-.061l-.181.121-.06.06c-.061.06-.121.121-.121.181l-.121.241v.482l.06.12.121.181.121.06c.061.061.121.061.242.061h.121l.121-.061c0-.06 0-.12.06-.12zM223.88 132.194c.061-.06.121-.12.121-.241.061-.06.061-.12.061-.181v-.241l-.061-.18-.121-.121c-.06-.06-.12-.12-.181-.12-.06-.061-.181-.061-.242-.061-.06 0-.181 0-.241.061-.061 0-.182.06-.242.12l-.181.121-.121.12-.061.06-.06.121v.241c0 .12 0 .181.06.301l.061.06.06.061.121.06.121.06h.242l.12-.06h.121l.182-.06.121-.061c0 .061.06 0 .12-.06zM220.678 129.001c.121-.06.181-.06.242-.181.121-.12.181-.301.181-.482s-.06-.361-.181-.422l-.182-.12-.06-.06c-.06-.061-.121-.061-.181-.061h-.121c-.061 0-.121 0-.242.061l-.121.12-.181.241-.061.06v.061l-.06.18v.362l.06.181c.061.06.061.12.182.12l.121.06h.302l.121-.06c.06.06.121 0 .181-.06zM223.638 134.484c.061-.061.121-.181.121-.241 0-.061 0-.121.06-.181 0-.121 0-.181-.06-.301l-.06-.181-.182-.181-.181-.06h-.665l-.181.06c-.121 0-.182.06-.242.121l-.181.18-.061.181c-.06.06-.06.181 0 .241 0 .06 0 .121.061.181l.06.181c0 .06.061.12.121.12l.181.121c.121.06.242.12.363.06.121 0 .302 0 .423-.06h.181l.242-.121c-.181.06-.06 0 0-.12zM225.266 133.52v-.181l.061-.181v-.12l-.061-.121c0-.06-.06-.12-.12-.12-.061-.061-.121-.061-.182-.061h-.5429999999999999l-.121.061-.121.06-.06.12v.121c-.06.06-.06.12-.06.181v.18l.06.121.121.12.121.121.12.06h.242l.181-.06c.06 0 .121-.06.181-.121.121-.06.121-.06.181-.18zM223.217 136.11c.06 0 .06-.06.06-.12l.06-.121v-.181l-.06-.18-.121-.181c-.06-.06-.121-.121-.181-.121l-.121-.06-.121-.06h-.181c-.061 0-.121 0-.182.06-.06 0-.12.06-.181.121l-.121.12c-.06.06-.06.121-.06.181v.241l.06.181.121.12h.061l.06.06c.06.061.181.061.242.061h.423l.181-.061.061-.06zM224.124 137.617c.061-.061.121-.121.121-.241v-.181c0-.121 0-.241-.06-.301l-.121-.181-.181-.121-.061-.06-.241-.12h-.303l-.241.06-.121.12c-.061.061-.121.121-.121.241l-.061.181v.241l.061.181c.06.12.121.181.242.241l.06.06.121.121c.06.06.121.06.181.06.061.06.121.06.242.06h.181c.061 0 .182-.06.242-.12 0-.181.06-.181.06-.241zM222.373 137.134l.06-.12v-.301l-.06-.121-.061-.12-.06-.061-.061-.06h-.362l-.121.06-.121.061-.06.06-.06.06-.061.121v.301l.061.12.06.061.121.06.121.06h.302l.181-.12.121-.061zM223.214 139.002c0-.06.061-.12 0-.241 0-.06 0-.12-.06-.18l-.181-.181v-.06l-.061-.061-.302-.241c-.061-.06-.121-.06-.181-.06h-.182l-.121.06c-.06.061-.12.061-.181.181l-.06.121c-.061.06-.061.12-.061.18 0 .121.061.302.121.362l.181.181.061.06c0 .06.06.12.121.12l.121.121.06.06h.302l.121-.06.061-.06.06-.061c.06-.06.121-.12.181-.241zM221.162 139.604l.12-.18.061-.121v-.241c0-.06-.061-.12-.121-.181l-.06-.06-.121-.06-.121-.06h-.182c-.06 0-.12 0-.181.06-.06 0-.121.06-.181.12l-.121.121c-.06.06-.06.12-.06.181l-.061.18v.181-.06c-.06-.06-.121-.121-.121-.181l-.06-.12c-.061-.061-.121-.121-.182-.121l-.12-.12c-.061-.061-.121-.061-.182-.061h-.241c-.061 0-.121.061-.182.121-.06.06-.121.12-.121.181-.06.12-.121.241-.06.361l.06.121.182.18.121.061.06.06.121.06.06.06.121.061.181.06h.121l.182-.06.06-.061c.061-.06.061-.12.061-.18v-.241l.06.06.121.12.181.121h.363c.06 0 .121-.06.181-.121 0-.18.061-.241.061-.241zM222.253 140.689v-.12l-.06-.121-.061-.12-.12-.121-.121-.12-.121-.061h-.121c-.06 0-.12 0-.181.061l-.121.06c-.06.06-.12.181-.12.301 0 .121 0 .181.06.241v.06l.121.121.06.06.061.06.12.061h.121c.06 0 .121 0 .121-.061l.121-.06c.181-.06.241-.181.241-.241zM216.81 129.061c.182-.06.363-.181.423-.301l.182-.181.06-.181v-.06c.061-.241.061-.422-.06-.603-.061-.12-.182-.241-.302-.301l-.242-.12c-.242-.061-.484 0-.665.12l-.181.121c-.061.06-.121.12-.121.18l-.061.061-.06.06c-.061.12-.121.241-.121.361l-.06.121v.301c0 .121.06.181.12.241 0 .06.061.181.121.241.061.06.182.121.242.121h.302c.242 0 .302 0 .423-.181zM212.46 132.134l.061-.061.06-.12v-.362c0-.06-.06-.12-.121-.18l-.12-.121-.121-.12-.061-.061-.242-.12c-.181-.06-.362 0-.543.06l-.121.121c-.061.06-.121.12-.121.18l-.061.181v.362l.061.18c.06.121.121.181.242.241.12.061.302.121.483.061h.181l.121-.061.302-.18zM212.761 136.893l.06-.181s0-.18.061-.18v-.181l-.061-.181-.12-.181c0-.06-.061-.06-.121-.06l-.121-.06-.182-.06h-.362l-.121.06-.121.06s-.121.121-.181.121l-.061.06-.06.06-.061.181s0 .12-.06.181v.18l.06.181c0 .06.061.121.121.181l.121.12.182.061h.483l.181-.061h.061c.181-.12.242-.18.302-.301zM210.282 137.013l.061-.12c0-.06.06-.181 0-.241 0-.06 0-.121-.061-.121 0-.06-.06-.12-.121-.18l-.12-.121c-.061-.06-.182-.06-.303-.06h-.12c-.061 0-.121 0-.182.06h-.121l-.302.06c-.06.061-.121.061-.181.181l-.121.181v.12c0 .121 0 .181.06.302l.061.06.06.06.121.121h.423c.121 0 .242 0 .423-.061.061 0 .182-.06.242-.12.06 0 .121-.06.181-.121zM213.543 138.219c.06-.06.121-.121.121-.181.06-.06.06-.12.06-.181v-.12l-.06-.181-.121-.12c-.061-.061-.121-.061-.181-.061h-.303l-.181.061-.06.06-.121.06-.182.121-.12.18v.241c0 .061 0 .121.06.121l.06.12c.061.061.121.121.242.121h.484l.06-.06.242-.181zM211.912 138.521l.181-.241.061-.121v-.301c0-.06-.061-.121-.121-.181l-.121-.06-.121-.06h-.181c-.061 0-.121 0-.181.06l-.121.06-.061.06-.06.061-.121.06-.06.06c-.061.06-.121.121-.121.181l-.061.12v.302c0 .06.061.12.121.18l.121.061c.06.06.181.06.242.06h.241l.182-.06c.06-.181.121-.181.181-.241zM213.787 139.544c.06-.06.06-.18.06-.241v-.301c0-.06-.06-.181-.12-.241l-.121-.12c-.061-.061-.121-.121-.242-.121h-.181l-.303.06c-.06.061-.181.061-.241.181l-.061.06c-.06.061-.121.181-.181.302-.061.12-.061.18 0 .301 0 .12.06.181.121.301l.242.181h.423l.181-.06c.302-.121.363-.121.423-.302zM212.338 140.629l.121-.181v-.12c0-.061 0-.121-.061-.181l-.06-.121-.121-.12-.121-.06h-.242l-.181.06h-.061l-.06.06-.06.06-.061.061-.121.12-.121.121c-.06.06-.06.12-.06.18 0 .061 0 .121.06.181 0 .06.061.121.121.181l.121.06c.061.06.121.06.242.06h.121c.06 0 .181-.06.241-.12l.061-.06.06-.061h.061c.06 0 .121-.06.121-.12zM213.605 142.014l.121-.241.06-.18c0-.061 0-.121-.06-.181l-.061-.181c-.06-.06-.121-.181-.181-.181l-.121-.06h-.302l-.121.06c-.12.061-.181.121-.241.241-.06.061-.06.121-.06.181v.241l-.061.181v.12l.061.181.12.121c.061.06.121.06.181.06h.302l.061-.06c.06 0 .121 0 .181-.061 0-.12.06-.18.121-.241zM215.056 140.568l.06-.12.061-.06.06-.181c0-.06 0-.181-.06-.241l-.121-.121-.181-.18-.182-.121-.181-.06h-.181c-.06 0-.121 0-.121.06l-.12.06-.061.121-.06.06v.301l.06.121c0 .06.061.12.121.181l.06.06.121.06h.06l.121.06h.181l.121-.06c.061 0 .121-.06.181-.12 0 .301.061.241.061.18zM214.812 142.015c.061-.06.121-.121.121-.181v-.06l.06-.121v-.421l-.06-.181-.121-.121c-.06-.06-.121-.06-.181-.06h-.181c-.061 0-.121.06-.181.121l-.121.06-.061.06s-.06.121-.12.121l-.061.12v.362l.061.12.06.06.121.121.181.06c.06 0 .181 0 .242-.06.12.06.181.06.241 0zM217.05 141.292l.06-.121.061-.06.06-.181c0-.06.061-.12 0-.181v-.06c0-.06 0-.12-.06-.181l-.061-.12c-.06-.06-.06-.121-.181-.121l-.12-.06h-.121c-.061 0-.121 0-.181.06-.061 0-.121.061-.182.121l-.181.181-.121.241v.361c0 .06 0 .121.061.181l.06.12.121.121.121.06h.121c.06 0 .12 0 .181-.06l.121-.06.241-.241zM216.754 143.16l.06-.121v-.663l-.06-.12-.061-.061-.12-.06h-.302c-.061 0-.121.061-.121.121l-.06.12-.061.121-.06.12v.121c0 .12 0 .12.06.241l.061.06v.06c0 .061.06.121.12.121l.121.06.181.06h.121l.121-.06c-.061 0-.061-.06 0-.12zM218.443 140.147l.06-.12v-.482l-.06-.121v-.12l-.061-.121c-.06-.06-.12-.121-.241-.121h-.242c-.06 0-.181.061-.241.121l-.061.121-.06.06-.06.06v.542l.06.061.181.18c.061.061.121.061.242.061.06 0 .181 0 .241-.061.121.121.181.061.242-.06zM219.163 141.954v-.663l-.06-.06-.06-.06-.061-.06-.121-.061h-.06l-.121-.06h-.302c-.06 0-.121.06-.121.121l-.06.06c-.06.06-.06.12-.06.181v.421l.06.121.06.06v.06l.061.121.121.12.12.061h.302l.121-.061c.121-.12.181-.241.181-.301zM220.372 141.231l.061-.121v-.12c0-.06 0-.121-.061-.181l-.06-.12-.061-.121-.06-.12-.121-.061-.181-.06h-.181l-.181.06-.121.121-.06.12v.061l-.061.06v.241l.061.12.181.181.06.06h.06l.061.061.181.06h.121l.121-.06.241-.181zM226.296 137.014l.061-.12c0-.061.06-.181 0-.242v-.12c0-.06 0-.121-.061-.181l-.06-.06-.061-.06-.06-.061-.121-.06-.06-.06-.061-.06h-.181c-.121 0-.181 0-.302.06-.061 0-.121 0-.182.06l-.12.121c-.061.06-.121.12-.121.18l-.061.121v.241l.061.121v.06l.121.12.06.06.06.061c.061.06.121.06.182.06h.181c.121 0 .121 0 .181-.06h.061c.06 0 .121 0 .181-.061.061 0 .121-.06.181-.12h.121zM221.523 142.858c.061-.06.061-.12.061-.181v-.602l-.061-.181-.121-.12-.06-.061-.061-.06-.121-.06c-.06-.06-.12-.06-.181-.06h-.121c-.06 0-.121 0-.181.06l-.121.06-.121.121v.06l-.121.12-.06.121v.12c0 .121 0 .121.06.241l.121.181c0 .06.061.06.121.06l.061.121.12.12c.061.061.182.061.303.061.12 0 .181 0 .302-.061.06.121.121.061.181-.06zM218.319 143.882c.061-.06.061-.18.061-.301v-.181l.06-.18v-.302c0-.06 0-.12-.06-.241 0-.06-.061-.12-.121-.18l-.121-.121c-.06-.06-.121-.06-.181-.06h-.121c-.06 0-.121 0-.241.06l-.121.121-.121.18v-.06c-.06.121-.121.241-.121.362l-.06.241v.12c0 .06 0 .121.06.241v.06c0 .061 0 .121.061.181 0 .06.06.121.12.181.061.06.121.12.182.12.06.061.12.061.241.061h.121c.121 0 .181-.061.242-.181l.12-.121zM223.458 127.796l.061-.181.06-.06.061-.181c0-.06 0-.12.06-.181v-.241c0-.06 0-.12-.06-.12v-.06c0-.121-.061-.181-.121-.241l-.121-.121c-.061-.06-.121-.12-.242-.12h-.362c-.121 0-.182.06-.242.12l-.061.06h-.06c-.061.061-.121.121-.181.121-.061.06-.121.12-.121.181-.061.12-.121.301-.121.421v.241l.06.241.121.181c.061.06.121.121.181.121l.121.06.121.06c.061 0 .182.06.242 0 .121 0 .181 0 .302-.06s.181-.06.242-.181l.06-.06zM210.825 142.617l.061-.18.121-.121c.06-.06.06-.181.06-.241v-.241l-.06-.181-.182-.18-.121-.061c-.06-.06-.181-.06-.241-.06h-.182c-.121.06-.241.121-.302.181l-.06.06-.061.06-.121.121c-.06.06-.121.12-.181.241l-.06.181c0 .06-.061.18 0 .241 0 .06 0 .12.06.18 0 .061.06.181.121.241l.121.121.181.06h.242c.06 0 .181 0 .242-.06h.06c.061 0 .121-.06.181-.121l.121-.241zM228.174 134.182c.06-.06.06-.121.06-.181v-.181c0-.06 0-.12-.06-.18 0-.121-.061-.181-.121-.241l-.181-.121h-.061l-.181-.06h-.6040000000000001l-.182.06h-.121l-.181.121-.06.06c-.121.06-.182.181-.182.301 0 .06-.06.181 0 .241 0 .06 0 .181.061.241l.181.181c.06.06.121.12.242.12h.786l.181-.06.181-.12c.121 0 .181-.061.242-.181zM210.221 133.52c.061-.061.061-.121.061-.181v-.241l-.061-.181c-.06-.12-.121-.181-.242-.241l-.302-.12-.121-.061h-.181c-.06 0-.121 0-.121-.06h-.242l-.241.06-.061.061-.06.06c-.061.06-.181.12-.181.181-.061.06-.121.12-.121.241v.18c0 .121 0 .241.06.362l.121.12h.06c.061.061.182.121.303.181h.9059999999999999l.242-.06.181-.121c-.121 0-.06-.12 0-.18z" fill="#452511"/><path d="M221.096 131.049c-.242.362-.846.301-1.269.241-.484-.06-1.088.06-1.149.482-.544-.181-1.088-.361-1.631-.241-1.149.241-1.753 1.687-2.962 1.747.06.422-.302.904-.786.904.242.181.061.603-.121.783-.241.181-.543.302-.725.603-.423.723.725 1.566.665 2.47 0 .301-.181.603-.06.844.12.301.604.361.906.482.484.18.846.602 1.269.903.423.302 1.028.543 1.451.241.242-.18.363-.421.544-.662.544-.663 1.511-.663 2.357-.723.846-.061 1.813-.362 2.055-1.205l.06-1.446c.121-.422.423-.723.423-1.145 0-.301-.181-.603-.12-.964.12-.663 1.027-.904 1.087-1.567 0-.18-.06-.361-.12-.482-.424-.723-.907-1.566-1.874-1.265z" fill="#fff"/><path opacity=".129" d="M231.312 149.004c-4.594 5.061-11.967 8.736-18.857 8.194-4.956-.362-9.247-3.856-12.45-7.652-1.572-1.868-3.022-3.916-3.929-6.206l-.181-.482c-1.269-3.494-1.149-7.29-.061-10.785l.182-.542.785.362c.907.421 1.753.783 2.72 1.084l1.451.482.362.121 1.33.361c3.022.663 6.044.904 9.126.844.544 0 1.028 0 1.572-.061h.06c1.692-.06 3.385-.241 5.077-.482.967-.12 1.873-.241 2.84-.421l.665-.121.484-.06c.302-.06.604-.121.967-.181l.665-.181c.423-.12.785-.18 1.148-.301l.846-.241.907-.301c.604-.181 1.148-.422 1.692-.663l.786-.361c.483-.241.906-.482 1.329-.723.726-.422 1.451-.904 2.176-1.386.786-.543 1.511-1.145 2.176-1.808l.544-.542c.362-.362.725-.723 1.027-1.085.182-.241.423-.482.605-.662l.785-.964c.726 1.566 1.088 3.193 1.209 5.061.121 2.109-.181 4.398-.846 6.688-1.33 4.88-4.352 9.941-7.192 13.014z"/><path opacity=".188" d="M231.312 149.004c-4.594 5.061-11.967 8.736-18.857 8.194-4.956-.362-9.247-3.856-12.451-7.652-1.571-1.868-3.022-3.916-3.928-6.206l-.181-.482 1.087.603 2.116 1.084.302.121c.665.301 1.33.542 1.994.783.424.12.847.301 1.209.422 1.451.421 2.901.723 4.412.964l1.753.241 1.088.12h.302c.242 0 .484 0 .725.06.605.061 1.27.061 1.874.061h1.3900000000000001c.302 0 .604 0 .846-.061l.907-.06c.181 0 .362 0 .483-.06.182 0 .302 0 .484-.06.181 0 .302 0 .483-.061.786-.06 1.572-.18 2.357-.301l.363-.06.907-.181.785-.181 1.874-.421c.302-.061.544-.121.846-.241.242-.061.484-.181.786-.241l.181-.061c.846-.301 1.632-.602 2.418-.903.544-.241 1.027-.422 1.511-.723l.06-.061c.242-.12.483-.241.665-.361l1.088-.603c.241-.12.483-.301.725-.482l.363-.241c.544-.361 1.087-.723 1.571-1.144 1.027-.784 1.994-1.687 2.841-2.712.664-.723 1.269-1.506 1.813-2.349-1.33 5.121-4.352 10.182-7.192 13.255z"/><path d="M209.311 132.736c0-.061-.061-.121-.121-.121-.181 0-.302 0-.423.121l-.06.06-.061.12c-.06.061-.06.121-.06.181s.06.06.06 0 .061-.12.121-.12l.061-.061h.06l.06-.06h.242c.06 0 .121-.06.121-.12zM211.968 131.23l-.121-.061-.121.061-.06.06-.061.061v.12h.182l.12-.06.061-.06v-.121zM216.983 127.675c0-.06-.061-.12-.121-.12-.061 0-.121 0-.181.06l-.182.06c-.12.06-.181.121-.241.241v.121s.06.06.121 0l.12-.121.061-.06h.06l.121-.06h.121l.121-.121zM216.865 130.507c-.061 0-.121 0-.181.06.06 0 .12 0 .181-.06zM223.149 126.711c-.121 0-.302 0-.423.061-.121.06-.242.181-.242.302l.061.06c0-.06.06-.121.121-.121l.12-.12c.121-.061.242-.061.363-.061l.06-.06-.06-.061zM220.554 130.025l-.12.06.12-.06zM214.689 130.687l-.061-.06c-.121.06-.241.181-.241.302v.06h.06l.06-.12h.121l.061-.182zM211.846 136.893l-.121-.12v-.482h-.121c-.121.12-.121.301-.06.422.06.12.12.241.241.301h.061v-.121zM209.37 136.471l-.12.06-.061.181-.06.181v.06h.06l.061-.12.06-.181c.121-.06.06-.121.06-.181zM218.558 129.483c0-.061-.06-.061-.121-.061-.12 0-.181.061-.181.181-.06.06-.06.181 0 .241 0 .06.121.06.121 0l.06-.06h.061c.06-.181.121-.241.06-.301zM220.856 128.036l-.06-.12-.061-.061h-.241c-.061 0-.121.061-.121.121-.061.06-.06.12-.06.181v.18c0 .061.06.061.12.061h.061l.06-.061h.121c.06 0 .121 0 .121-.06.06-.12.06-.181.06-.241zM217.891 116.588c-.544.061-1.028.181-1.572.302-.483.12-.967.301-1.45.542-.061 0 0 .12.06.06l1.451-.542c.242-.06.483-.181.725-.181l.786-.12c.121 0 .06-.061 0-.061zM208.102 120.806c-.061-.12-.182-.181-.242-.12-.907.482-1.813 1.084-2.418 1.928-.06.06.061.181.121.12.725-.662 1.572-1.265 2.478-1.687 0 0 .061-.12.061-.241zM205.203 122.674c-1.208.904-2.357 1.808-3.384 2.892-1.028 1.085-1.813 2.29-2.418 3.676-.302.783-.544 1.566-.604 2.41 0 .06.06.06.06 0 .242-1.446.786-2.832 1.632-4.097.846-1.205 1.813-2.23 2.901-3.194.605-.542 1.269-1.024 1.934-1.506.121-.06 0-.241-.121-.181zM202.054 127.072c-.543.362-.906.904-1.147 1.446-.061.121.121.181.121.061.241-.603.604-1.025 1.087-1.446.06-.061 0-.121-.061-.061zM226.294 117.01c-.786-.542-1.753-.783-2.659-.903-.967-.121-1.934-.061-2.901.12-.302.06-.242.542.06.482.907-.181 1.813-.181 2.72-.12.907.12 1.753.361 2.659.602.121.06.242-.12.121-.181zM208.524 124.783c-.786-.663-2.055-.663-2.841 0-.181.12 0 .421.242.301.665-.542 1.692-.603 2.417 0 .121.181.363-.121.182-.301zM216.261 120.083c-.06-.422-.483-.723-.907-.783-.543-.06-.967.181-1.45.422-.06.06 0 .12.06.12.363-.181.847-.361 1.27-.301.362.06.725.241.785.602 0 .121.242.121.242-.06zM229.435 121.168c-.06-.482-.423-.903-.906-1.084-.242-.06-.544-.06-.786 0-.061 0-.061.181.06.12.484-.12 1.088.121 1.269.603.182.482.061 1.024-.362 1.325-.181.121 0 .362.181.241.423-.18.605-.662.544-1.205zM234.573 124.904c-.121-.543-.302-1.025-.604-1.507-.302-.421-.665-.843-1.149-1.084-.121-.06-.181.12-.121.181.363.361.665.662.907 1.084.242.422.423.844.484 1.326 0 .12.12.241.241.18.182.061.303-.06.242-.18zM213.662 117.674c-.665.241-1.27.542-1.934.843-.605.302-1.27.603-1.874.964-.242.121 0 .482.242.362l1.692-1.145c.604-.422 1.209-.663 1.874-1.024z" fill="#fff"/><path d="M251.675 110.203c-1.027 0-2.054-.422-2.84-1.145-.302-.301-.605-.603-.786-1.024-.121-.181-.181-.362-.242-.543-.06-.06-.06-.18-.06-.241-.423-1.506.121-3.193 1.39-4.157.786-.602 1.874-.843 2.901-.783.665.06 1.269.241 1.874.602.362.241.664.482.906.784.484.542.786 1.265.907 1.988.121.663.06 1.265-.121 1.868-.665 1.506-2.297 2.651-3.929 2.651z" fill="#4D5673"/><path opacity=".549" d="M251.673 110.203c-1.027 0-2.055-.422-2.84-1.145-.303-.301-.605-.603-.786-1.024.544 0 1.088 0 1.632-.061 1.571-.18 3.082-.843 4.049-2.048.544-.663.907-1.446.967-2.29.484.543.786 1.266.907 1.989.121.662.06 1.265-.121 1.867-.544 1.567-2.176 2.712-3.808 2.712z" fill="#1F1347"/><path opacity=".478" d="M248.832 109.058c1.39.482 2.901.482 4.17-.121 1.33-.602 2.297-1.928 2.539-3.313.121.662.06 1.265-.121 1.867-.484 1.567-2.116 2.712-3.747 2.712-1.088-.061-2.116-.482-2.841-1.145z"/><path opacity=".42" d="M251.917 102.249c-.967.301-1.813.783-2.538 1.446-.967.904-1.572 2.169-1.753 3.495-.423-1.507.121-3.194 1.39-4.158.846-.602 1.874-.843 2.901-.783z" fill="#0E0820"/><path opacity=".322" d="M252.22 102.731c-1.692-.181-3.143 1.627-3.747 3.193-.181.422-.121.904.181 1.205.303.241.726.181 1.088.121.302-.061.665-.181.907-.422.363-.422.181-1.024.423-1.506.302-.543.967-.723 1.571-.904.242-.06.544-.181.665-.482s0-.603-.242-.844c-.241-.12-.544-.301-.846-.361z" fill="#fff"/><path d="M252.703 103.273c-.484-1.506-3.808 2.229-1.995.843.423-.361 2.055-.241 1.995-.843zM249.439 106.467l.061-.362v.121c.06-.362.302-1.326-.302-.723-.302.18-.423.482-.483.843-.061.482.664.603.724.121zM254.214 103.575l-.06-.06-.061-.06h-.241v.241h.06l.06.061.061.06h.121l.06-.06v-.182z" fill="#fff"/><path opacity=".302" d="M252.819 105.021c-.06-.121-.121-.181-.241-.121-.242.121-.423.181-.665.241-.121.06-.242.121-.302.181-.121.06-.182.181-.303.301-.06.121-.12.241-.12.362 0 .18.12.301.302.301.241 0 .423-.241.544-.422.06-.12.121-.241.181-.301l.181-.181c.121-.06.242-.12.302-.181.061 0 .121-.06.121-.18z" fill="#fff"/><path d="M267.692 153.883c-1.209.543-2.599.543-3.868.121-.544-.181-1.028-.422-1.451-.783-.242-.181-.423-.362-.604-.543-.061-.06-.121-.18-.242-.241-1.269-1.506-1.511-3.795-.544-5.543.604-1.084 1.692-1.928 2.961-2.349.786-.241 1.632-.362 2.478-.241.544.06.967.241 1.451.421.846.422 1.511 1.085 2.055 1.808.423.663.725 1.446.786 2.229.241 2.169-1.088 4.278-3.022 5.121z" fill="#4D5673"/><path opacity=".549" d="M267.69 153.883c-1.209.542-2.599.542-3.868.12-.544-.18-1.028-.421-1.451-.783.665-.241 1.269-.542 1.874-.904 1.692-1.024 3.143-2.53 3.686-4.398.303-1.024.303-2.169-.06-3.133.846.422 1.511 1.085 2.055 1.808.423.662.725 1.446.786 2.229.241 2.109-1.088 4.217-3.022 5.061z" fill="#1F1347"/><path opacity=".478" d="M263.824 154.004c1.813-.121 3.627-.904 4.835-2.229 1.209-1.386 1.693-3.374 1.27-5.122.423.663.725 1.446.785 2.23.242 2.048-1.027 4.217-3.022 5.061-1.208.482-2.599.482-3.868.06z"/><path opacity=".42" d="M263.944 144.545c-.967.784-1.692 1.808-2.175 2.953-.605 1.566-.726 3.313-.242 4.94-1.269-1.506-1.511-3.796-.544-5.543.665-1.084 1.753-1.928 2.961-2.35z" fill="#0E0820"/><path opacity=".322" d="M264.548 144.966c-2.055.663-2.84 3.495-2.72 5.664.061.542.303 1.144.847 1.325.483.181.906-.12 1.329-.422.363-.241.725-.542.846-.903.182-.663-.302-1.326-.241-1.989.06-.783.785-1.385 1.39-1.867.241-.241.544-.543.544-.904 0-.362-.363-.723-.726-.844-.423-.12-.846-.18-1.269-.06z" fill="#fff"/><path d="M265.395 145.388c-1.329-1.506-3.324 4.519-1.873 1.988.302-.723 2.236-1.325 1.873-1.988zM263.278 150.69c-.06-.121-.06-.301-.06-.422v.121c-.121-.482-.302-1.687-.725-.723-.241.361-.241.783-.121 1.265.121.602 1.027.361.906-.241zM267.268 144.906l-.121-.06h-.362l-.121.06v.181l.06.061.061.06h.06l.121.06h.121c.06 0 .121 0 .121-.06l.06-.121c.06-.06.06-.121 0-.181z" fill="#fff"/><path opacity=".302" d="M266.423 147.316c-.06-.061-.242-.121-.362 0-.182.241-.424.421-.605.602l-.302.362-.181.482c0 .18 0 .361.06.482.121.18.302.301.484.241.302-.121.362-.482.362-.723 0-.181 0-.302.061-.482l.06-.302.302-.361c.182-.06.182-.241.121-.301z" fill="#fff"/><path d="M266.175 125.927c-.846 1.024-2.236 1.567-3.626 1.446-1.088-.06-2.236-.602-2.901-1.506-.121-.121-.181-.241-.302-.422-.484-.843-.605-1.868-.302-2.771.302-.904.544-1.989 2.478-2.772 1.208-.482 2.478-.181 3.505.422.846.482 1.511 1.205 1.753 1.747.544 1.326.242 2.832-.605 3.856z" fill="#A3101D"/><path opacity=".271" d="M266.177 125.927c-.846 1.024-2.236 1.567-3.626 1.446-1.088-.06-2.236-.602-2.901-1.506-.121-.121-.181-.241-.302-.422 1.934.723 3.868.121 4.895-1.265.725-1.025 1.088-2.41.786-3.856.846.482 1.511 1.205 1.753 1.747.544 1.325.241 2.832-.605 3.856z"/><path opacity=".431" d="M263.033 120.445c-.605-.061-1.209.12-1.753.421-.483.362-.907.784-1.269 1.326-.302.482-.605 1.084-.484 1.627.061.602.605 1.144 1.209 1.024.544-.121.846-.723.907-1.265.06-.543.06-1.145.302-1.627.181-.422.604-.723 1.027-.904l.363-.12c.121-.061.181-.181.181-.302-.06-.06-.242-.12-.483-.18z" fill="#fff"/><path opacity=".369" d="M263.516 121.469c-.483.181-.846.542-1.148.964-.121.241-.242.542-.061.783.121.121.303.181.484.181s.302-.12.483-.181c.303-.18.544-.482.726-.843.06-.181.12-.362.12-.542 0-.181-.302-.482-.604-.362z" fill="#fff"/><path d="M260.677 124.06v-.5429999999999999l-.061-.241v-.241c0-.361.121-.783.363-1.084.06-.06 0-.121-.061-.06-.302.301-.483.662-.603 1.024-.061.12-.061.181-.061.301l-.06.241c-.061.241-.061.482 0 .723 0 .181.181.362.362.301-.06-.06.121-.18.121-.421zM262.791 120.565h-.363c-.121 0-.242.06-.362.12l-.363.121-.302.241c-.061.06-.061.181 0 .241.06.06.181.06.242 0l.06-.06.121-.121.242-.181.121-.06.12-.06.121-.06.121-.061c.242-.06.242-.06.242-.12zM262.973 122.794v-.12c0-.06.061-.181.121-.241l.06-.121v-.12c0-.06 0-.121-.06-.121h-.242c-.06 0-.181.121-.241.181-.121.121-.181.301-.181.482 0 .121.06.241.181.241.241 0 .362-.06.362-.181z" fill="#fff"/><path d="M221.155 93.814c-1.209.603-2.72.482-3.868-.181-.967-.542-1.753-1.446-2.055-2.53-.06-.181-.06-.301-.06-.482-.061-.964.241-1.928.906-2.591.665-.663 1.33-1.627 3.385-1.506 1.269.06 2.357.904 3.022 1.868.544.783.846 1.687.846 2.35-.121 1.265-.967 2.531-2.176 3.073z" fill="#A3101D"/><path opacity=".271" d="M221.155 93.813c-1.208.603-2.719.482-3.868-.181-.967-.542-1.752-1.446-2.055-2.531-.06-.181-.06-.301-.06-.482 1.45 1.446 3.445 1.747 5.016.904 1.088-.663 1.995-1.747 2.297-3.193.544.783.846 1.687.846 2.35-.121 1.325-.967 2.591-2.176 3.133z"/><path opacity=".431" d="M220.611 87.548c-.484-.362-1.148-.422-1.753-.301-.604.121-1.148.362-1.692.663-.484.301-.967.723-1.148 1.265-.182.542.12 1.265.664 1.446.544.12 1.088-.301 1.39-.723.303-.482.544-1.024.907-1.386.363-.301.846-.422 1.269-.362l.363.06c.121 0 .242-.121.302-.241 0-.121-.121-.301-.302-.422z" fill="#fff"/><path opacity=".369" d="M220.612 88.692c-.484 0-1.028.12-1.451.422-.241.121-.423.362-.423.663.061.181.182.301.363.362.181.06.363.06.483 0 .363-.06.726-.241.967-.482.121-.121.242-.241.303-.422.06-.181.121-.542-.242-.542z" fill="#fff"/><path d="M216.923 89.837l.06-.241c0-.06 0-.12.061-.12v-.181c0-.06 0-.181.06-.301 0-.06.06-.181.121-.241.181-.362.423-.663.725-.844.061 0 0-.12-.06-.06-.363.12-.726.422-.967.723l-.182.241-.181.181c-.181.181-.242.422-.302.602-.061.181.06.422.242.482.121.06.362-.06.423-.241zM220.311 87.548l-.121-.121-.182-.06-.362-.06h-.363c-.121 0-.242.06-.363.12-.12.06-.12.181-.06.241.06.121.181.121.242.06h.121c.06 0 .121 0 .181-.06l.302-.06h.665l-.06-.06zM219.585 89.656l.061-.121.181-.181.06-.06.061-.06.06-.06c.06-.06.06-.121 0-.121-.06-.06-.121-.06-.242-.06-.06 0-.181 0-.301.06-.182.06-.302.181-.363.362-.06.12-.06.241.061.301.181.06.362.06.422-.06z" fill="#fff"/><path d="M175.151 124.42c-1.209.603-2.72.482-3.868-.181-.967-.542-1.753-1.446-2.055-2.53-.06-.181-.06-.301-.06-.482-.061-.964.241-1.928.906-2.591.665-.663 1.33-1.627 3.385-1.506 1.269.06 2.357.904 3.022 1.868.544.783.846 1.687.846 2.349-.121 1.266-.967 2.531-2.176 3.073z" fill="#A3101D"/><path opacity=".271" d="M175.151 124.421c-1.208.602-2.719.482-3.868-.181-.967-.542-1.752-1.446-2.055-2.531-.06-.18-.06-.301-.06-.481 1.45 1.446 3.445 1.747 5.016.903 1.088-.662 1.995-1.747 2.297-3.193.544.783.846 1.687.846 2.35-.121 1.325-.967 2.591-2.176 3.133z"/><path opacity=".431" d="M174.548 118.155c-.483-.362-1.148-.422-1.752-.302-.605.121-1.149.362-1.693.663-.483.301-.967.723-1.148 1.265-.181.543.121 1.266.665 1.446.544.121 1.088-.301 1.39-.723.302-.482.544-1.024.907-1.385.362-.302.846-.422 1.269-.362l.362.06c.121 0 .242-.12.303-.241.06-.12-.061-.301-.303-.421z" fill="#fff"/><path opacity=".369" d="M174.549 119.299c-.483 0-1.027.121-1.45.422-.242.121-.423.362-.423.663.06.181.181.301.362.361.182.061.363.061.484 0 .363-.06.725-.241.967-.482.121-.12.242-.241.302-.421.181-.181.181-.543-.242-.543z" fill="#fff"/><path d="M170.919 120.444l.06-.241c0-.06 0-.12.061-.12v-.181c0-.06 0-.181.06-.301 0-.061.061-.181.121-.241.181-.362.423-.663.725-.844.061 0 0-.12-.06-.06-.363.12-.725.422-.967.723l-.181.241-.182.181c-.181.18-.242.421-.302.602s.06.422.242.482c.121.06.362 0 .423-.241zM174.244 118.155l-.121-.121-.181-.06-.363-.06h-.362c-.121 0-.242.06-.363.12s-.121.181-.06.241c.06.121.181.121.241.06h.121c.061 0 .121 0 .182-.06l.302-.06h.665l-.061-.06zM173.581 120.264l.061-.121.181-.18.06-.061.061-.06.06-.06c.061-.06.061-.121 0-.121-.06-.06-.121-.06-.241-.06-.061 0-.182 0-.302.06-.182.061-.302.181-.363.362-.06.12-.06.241.061.301.181.06.362.06.422-.06z" fill="#fff"/><path d="M245.504 148.521c-.725 1.145-1.995 1.868-3.324 1.988-1.088.061-2.297-.241-3.083-1.024-.121-.12-.241-.241-.302-.361-.604-.723-.906-1.748-.665-2.651.182-.904.242-2.049 1.995-3.134 1.088-.662 2.417-.542 3.566-.12.906.362 1.692.964 1.994 1.506.544 1.145.484 2.651-.181 3.796z" fill="#A3101D"/><path opacity=".271" d="M245.506 148.521c-.726 1.145-1.995 1.868-3.325 1.989-1.087.06-2.296-.241-3.082-1.025-.121-.12-.242-.241-.302-.361 1.994.422 3.868-.422 4.654-1.988.604-1.145.725-2.531.181-3.917.907.362 1.692.964 1.994 1.506.605 1.145.544 2.652-.12 3.796z"/><path opacity=".431" d="M241.576 143.581c-.604 0-1.208.301-1.632.662-.483.422-.785.964-1.027 1.507-.242.542-.423 1.144-.242 1.687.182.542.786 1.024 1.33.843.544-.181.725-.843.725-1.386 0-.542-.121-1.144.061-1.626.12-.422.483-.844.906-1.025.121-.06.242-.12.302-.18.121-.061.182-.241.121-.302-.06-.06-.302-.18-.544-.18z" fill="#fff"/><path opacity=".369" d="M242.183 144.485c-.423.301-.786.663-.967 1.145-.121.241-.181.542 0 .783.121.12.302.181.484.12.181-.06.302-.12.423-.241.241-.241.483-.602.604-.903.06-.181.06-.362 0-.543 0-.241-.181-.542-.544-.361z" fill="#fff"/><path d="M239.759 147.497l-.06-.241c0-.06 0-.121-.06-.121l-.061-.12v-.06c-.06-.061-.121-.181-.121-.241 0-.061 0-.181-.06-.241-.06-.362 0-.784.181-1.145 0-.06-.06-.121-.06-.06-.242.301-.363.723-.423 1.144 0 .121 0 .181-.06.302l-.061.301c-.06.241 0 .482.061.663.06.18.241.301.422.241.242-.061.363-.241.302-.422zM241.33 143.701h-.181c-.06 0-.12 0-.181.06l-.302.121c-.121.06-.241.12-.302.181-.121.06-.181.18-.241.301-.061.06 0 .241.06.241.121.06.181 0 .242-.06l.06-.061.121-.12c.06-.06.121-.181.241-.241l.121-.06.121-.061.121-.06c.06 0 .12-.06.12-.12v-.121zM241.878 145.871v-.121l.06-.241v-.06l.06-.121v-.12c0-.06 0-.121-.06-.121s-.181 0-.242.061l-.181.18c-.12.121-.12.302-.12.482 0 .121.12.241.241.241.121.061.242-.06.242-.18z" fill="#fff"/><path d="M296.516 224.376l-2.659-.783-6.709-2.049c-1.571-.482-2.478-2.108-1.994-3.735l9.247-30.185 7.978-26.149.604-1.928c.302-1.024 1.148-1.747 2.115-1.988.544-.121 1.088-.121 1.632.06l9.368 2.832c1.572.482 2.418 2.108 1.995 3.675v.06l-17.83 58.262c-.483 1.567-2.175 2.41-3.747 1.928z" fill="#FFCBA8"/><path d="M309.453 192.202l-15.109-4.579 7.978-26.148.604-1.928c.484-1.567 2.115-2.47 3.747-1.988l9.368 2.831c1.572.482 2.418 2.109 1.995 3.676l-8.583 28.136z" fill="#7B4A56"/><path d="M336.469 199.372l-8.945.542-.846.061c-1.632.12-3.083-1.145-3.143-2.772l-1.149-19.642-.785-13.375-.544-9.158-1.088-18.678c-.121-1.627 1.148-3.073 2.78-3.133l5.5-.301 4.291-.241c1.632-.121 3.022 1.145 3.143 2.771l1.632 27.836 1.934 33.017c.121 1.567-1.149 2.953-2.78 3.073z" fill="#FFCBA8"/><path d="M337.315 163.222l-15.714.904-1.632-27.836c-.121-1.626 1.148-3.072 2.78-3.133l9.791-.602c1.632-.121 3.022 1.145 3.143 2.771l1.632 27.896z" fill="#7B4A56"/><path opacity=".322" d="M300.266 222.448c-.484 1.567-2.176 2.47-3.747 1.988l-2.66-.783c.423-2.048.967-4.097 1.572-6.025 5.802-19.581 12.511-39.946 9.67-60.009.544-.121 1.088-.121 1.632.06l9.368 2.832c1.571.482 2.417 2.108 1.994 3.675v.06l-17.829 58.202z" fill="#52050A"/><path opacity=".388" d="M336.468 199.372l-8.945.543c5.984-21.811 6.346-45.128.726-67.059l4.291-.241c1.632-.121 3.022 1.145 3.143 2.771l1.631 27.836 1.935 33.017c.12 1.627-1.149 3.013-2.781 3.133z" fill="#52050A"/><defs><linearGradient id="a" x1="196.322" y1="81.637" x2="278.539" y2="162.408" gradientUnits="userSpaceOnUse"><stop stop-color="#F2F2F2"/><stop offset="1" stop-color="#EBDBCA"/></linearGradient><linearGradient id="b" x1="248.736" y1="171.952" x2="227.915" y2="74.159" gradientUnits="userSpaceOnUse"><stop stop-color="#EDEDED"/><stop offset="1" stop-color="#EBDBCA"/></linearGradient></defs></svg>