<svg width="23" height="24" viewBox="0 0 23 24" fill="none" xmlns="http://www.w3.org/2000/svg">
<path d="M18.5212 9.66295C17.3937 9.04345 16.7471 7.95037 16.7471 6.66403V4.07517C17.1081 4.04545 17.3919 3.74362 17.3919 3.375C17.3919 2.98669 17.0771 2.67188 16.6888 2.67188H16.595V0.703125C16.595 0.314812 16.2802 0 15.8919 0H13.0794C12.6911 0 12.3763 0.314812 12.3763 0.703125V2.67188H12.2826C11.8943 2.67188 11.5795 2.98669 11.5795 3.375C11.5795 3.74362 11.8633 4.04545 12.2243 4.07517V6.66403C12.2243 7.95033 11.5776 9.04341 10.4502 9.66295C8.92689 10.5 7.7313 11.7692 6.98111 13.2695C5.5953 12.19 3.85136 11.6543 2.07644 11.785C1.72886 11.8106 1.45249 12.087 1.42689 12.4346C1.27431 14.505 2.02802 16.5337 3.49469 18.0004C3.61319 18.1189 3.73563 18.2325 3.86135 18.3417C2.43986 18.6923 1.14691 19.4764 0.170736 20.6079C-0.0568887 20.8717 -0.0569355 21.2626 0.170736 21.5265C1.52692 23.0985 3.49431 24 5.56853 24C6.70628 24 7.82191 23.7291 8.82508 23.2133C9.08088 23.4475 9.35214 23.6674 9.63869 23.8705C9.75756 23.9547 9.8996 24 10.0453 24H18.9261C19.0718 24 19.2139 23.9548 19.3327 23.8705C21.5516 22.2977 22.8763 19.7371 22.8763 17.0209C22.8763 13.9585 21.2075 11.1391 18.5212 9.66295ZM13.7826 1.40625H15.1888V2.67188H13.7826V1.40625ZM11.1274 10.8954C11.9022 10.4696 12.5397 9.85917 12.9711 9.12998C13.4025 8.40075 13.6306 7.548 13.6306 6.66403V4.07934H15.3409V6.66398C15.3409 7.548 15.5689 8.40075 16.0003 9.12994C16.4317 9.85913 17.0692 10.4696 17.844 10.8953C19.2298 11.6569 20.2899 12.8479 20.8962 14.25H8.07517C8.6815 12.8479 9.74163 11.6569 11.1274 10.8954ZM2.81786 13.1759C4.1575 13.2262 5.43934 13.745 6.43858 14.6483C6.21442 15.4082 6.09508 16.2058 6.09508 17.0209C6.09508 17.4045 6.12245 17.7849 6.17406 18.16C6.16258 18.159 6.15105 18.1585 6.13956 18.1575C5.52977 17.8764 4.97102 17.4879 4.4891 17.006C3.4631 15.98 2.87177 14.6111 2.81786 13.1759ZM1.67852 21.0672C2.73142 20.0905 4.11752 19.5407 5.56849 19.5407C5.88475 19.5407 6.19989 19.567 6.50969 19.6182C6.805 20.5227 7.25144 21.3724 7.83081 22.1284C7.12042 22.4342 6.35111 22.5938 5.56844 22.5938C4.11752 22.5938 2.73142 22.0439 1.67852 21.0672ZM18.6962 22.5938H10.2751C8.53413 21.2758 7.50133 19.209 7.50133 17.0209C7.50133 16.5575 7.54783 16.1009 7.63638 15.6563H21.335C21.4236 16.1009 21.47 16.5575 21.47 17.0209C21.4701 19.209 20.4372 21.2758 18.6962 22.5938Z" fill="#E99A8B"/>
</svg>
