<svg width="24" height="24" viewBox="0 0 24 24" fill="none" xmlns="http://www.w3.org/2000/svg">
<g clip-path="url(#clip0)">
<path d="M20.0649 8.63871C19.3482 7.09971 18.3472 5.59859 17.0897 4.1771C16.8262 3.87912 16.3714 3.86107 16.0845 4.12892L12.7758 7.21699V0.749932C12.7758 0.208573 12.1231 -0.195911 11.6343 0.099776C8.94706 1.72521 5.68292 4.98565 4.01127 8.4671C3.06158 10.4449 2.58008 12.4947 2.58008 14.5596C2.58003 19.7651 6.80474 24 11.9976 24C18.5223 24 24.0768 17.2542 20.0649 8.63871ZM9.82494 20.4124C9.82494 18.5934 11.2894 17.2583 11.9987 16.7184C12.7049 17.2919 14.1702 18.6897 14.1702 20.4124C14.1702 21.6133 13.1956 22.5903 11.9975 22.5903C10.7995 22.5903 9.82494 21.6133 9.82494 20.4124ZM15.2548 21.8959C16.3299 19.5335 14.551 16.6784 12.401 15.2606C12.1758 15.1121 11.8859 15.1057 11.6543 15.2442C9.41417 16.584 7.66311 19.5289 8.7403 21.8959C5.94163 20.6424 3.98628 17.8257 3.98628 14.5596C3.98628 9.44852 7.31488 4.99723 11.3696 1.99099V8.83638C11.3696 9.45063 12.1028 9.77126 12.5518 9.35224L16.5065 5.66126C18.8312 8.48051 20.0089 11.471 20.0089 14.5597C20.0089 17.8257 18.0535 20.6424 15.2548 21.8959Z" fill="#E99A8B"/>
</g>
<defs>
<clipPath id="clip0">
<rect width="24" height="24" fill="white"/>
</clipPath>
</defs>
</svg>
