<svg width="20" height="20" viewBox="0 0 20 20" xmlns="http://www.w3.org/2000/svg" fill="none"><path fill-rule="evenodd" clip-rule="evenodd" d="M10 1.5c-4.687 0-8.5 3.813-8.5 8.5 0 4.687 3.813 8.5 8.5 8.5 4.687 0 8.5-3.813 8.5-8.5 0-4.687-3.813-8.5-8.5-8.5zm0 18.5c-5.514 0-10-4.486-10-10s4.486-10 10-10 10 4.486 10 10-4.486 10-10 10zM9.994 11.373c-.414 0-.75-.336-.75-.75v-4.419c0-.414.336-.75.75-.75s.75.336.75.75v4.419c0 .414-.336.75-.75.75zM10.003 14.796c-.553 0-1.005-.447-1.005-1 0-.553.443-1 .995-1h.01c.553 0 1 .447 1 1 0 .553-.447 1-1 1z" fill="#85B921"/></svg>