<svg width="53" height="42" viewBox="0 0 53 42" xmlns="http://www.w3.org/2000/svg" fill="none"><path d="M52.2 32c0 3.067-1 5.533-3 7.4-2 1.733-4.533 2.6-7.6 2.6-3.6 0-6.6-1.2-9-3.6-2.267-2.4-3.4-5.933-3.4-10.6 0-4.4.6-8.133 1.8-11.2 1.333-3.2 2.867-5.867 4.6-8 1.867-2.267 3.733-4.067 5.6-5.4 2-1.333 3.733-2.267 5.2-2.8l5 7c-2.933 1.467-5.333 3.467-7.2 6-1.733 2.4-2.6 5.467-2.6 9.2.533-.133 1.267-.2 2.2-.2 2.667 0 4.733.933 6.2 2.8 1.467 1.867 2.2 4.133 2.2 6.8zm-29.2 0c0 3.067-1 5.533-3 7.4-2 1.733-4.533 2.6-7.6 2.6-3.6 0-6.6-1.2-9-3.6-2.267-2.4-3.4-5.933-3.4-10.6 0-4.4.6-8.133 1.8-11.2 1.333-3.2 2.867-5.867 4.6-8 1.867-2.267 3.733-4.067 5.6-5.4 2-1.333 3.733-2.267 5.2-2.8l5 7c-2.933 1.467-5.333 3.467-7.2 6-1.733 2.4-2.6 5.467-2.6 9.2.533-.133 1.267-.2 2.2-.2 2.667 0 4.733.933 6.2 2.8 1.467 1.867 2.2 4.133 2.2 6.8z" fill="#F6EFE9"/></svg>