<svg width="21" height="19" viewBox="0 0 21 19" xmlns="http://www.w3.org/2000/svg" fill="none"><mask id="a" style="mask-type:alpha" maskUnits="userSpaceOnUse" x="0" y="0" width="21" height="19"><path fill-rule="evenodd" clip-rule="evenodd" d="M0 0h20.014v18.186h-20.014v-18.186z" fill="#fff"/></mask><path fill-rule="evenodd" clip-rule="evenodd" d="M10.013 1.5c-.476 0-.9.246-1.138.659l-7.198 12.565c-.234.41-.232.899.005 1.308.237.409.661.654 1.134.654h14.383c.472 0 .896-.245 1.133-.654.238-.409.24-.898.004-1.308l-7.185-12.565c-.237-.413-.661-.659-1.138-.659m7.186 16.686h-14.383c-1.014 0-1.923-.524-2.432-1.402-.509-.877-.512-1.926-.009-2.805l7.2-12.566c.506-.885 1.417-1.413 2.438-1.413h.001c1.02 0 1.933.529 2.439 1.415l7.186 12.564c.503.879.5 1.928-.009 2.805-.509.878-1.418 1.402-2.431 1.402" fill="#E99A8B" mask="url(#a)"/><path fill-rule="evenodd" clip-rule="evenodd" d="M10.004 11.164c-.414 0-.75-.336-.75-.75v-3.1c0-.414.336-.75.75-.75s.75.336.75.75v3.1c0 .414-.336.75-.75.75M10.006 14.499c-.553 0-1.005-.447-1.005-1 0-.553.443-1 .995-1h.01c.553 0 1 .447 1 1 0 .553-.447 1-1 1" fill="#E99A8B"/></svg>