<svg width="24" height="25" viewBox="0 0 24 25" fill="none" xmlns="http://www.w3.org/2000/svg">
<path d="M20.1034 1.06934C19.7322 0.409751 19.0242 0 18.2556 0H12.045C10.8817 0 9.93531 0.946413 9.93531 2.1097V4.92264C9.93531 6.08593 10.8817 7.03235 12.045 7.03235H16.2644C16.6522 7.03235 16.9677 7.34782 16.9677 7.73558V13.2599C14.9399 12.7055 12.8025 12.637 10.7478 13.055C9.18224 11.557 6.96494 10.9475 4.75074 11.5012C2.53686 12.0547 0.699496 13.8613 0.173617 16.11C-0.27861 18.0442 0.162271 20.0366 1.38337 21.5761C2.60695 23.1189 4.42537 24.0037 6.37225 24.0037C15.5525 24.0037 21.9073 20.5154 23.6113 19.6632C23.8495 19.5441 24 19.3006 24 19.0342V15.9835C24 10.7556 22.6526 5.59831 20.1034 1.06934ZM22.5935 18.6009C20.3089 19.7517 14.5254 22.5973 6.37225 22.5973C4.8573 22.5973 3.44056 21.9065 2.48524 20.7021C1.53259 19.5009 1.18918 17.9439 1.54314 16.4301C1.9408 14.7293 3.36696 13.2969 5.09185 12.8655C6.50807 12.5114 7.9279 12.7536 9.07441 13.5103C8.52607 13.6987 7.98805 13.9239 7.46424 14.1857C7.11684 14.3594 6.97605 14.7818 7.14975 15.1292C7.3234 15.4766 7.74581 15.6174 8.09321 15.4437C11.4337 13.7735 15.4223 13.7735 18.7629 15.4437C19.1108 15.6178 19.533 15.476 19.7063 15.1292C19.88 14.7818 19.7392 14.3594 19.3918 14.1857C19.0581 14.0188 18.7184 13.8672 18.3741 13.7301V7.73558C18.3741 6.57229 17.4277 5.62588 16.2644 5.62588H15.5612V3.51617C15.5612 3.1278 15.2463 2.81294 14.858 2.81294H13.4515C13.0631 2.81294 12.7482 3.1278 12.7482 3.51617C12.7482 3.90455 13.0631 4.21941 13.4515 4.21941H14.1547V5.62588H12.045C11.6572 5.62588 11.3418 5.31041 11.3418 4.92264V2.1097C11.3418 1.72194 11.6572 1.40647 12.045 1.40647H18.2557C18.5169 1.40647 18.7553 1.54163 18.8778 1.75916C21.3087 6.07801 22.5936 10.9967 22.5936 15.9835V18.6009H22.5935Z" fill="#E99A8B"/>
</svg>
