<svg width="184" height="374" viewBox="0 0 184 374" xmlns="http://www.w3.org/2000/svg" fill="none"><mask id="a" style="mask-type:alpha" maskUnits="userSpaceOnUse" x="0" y="0" width="184" height="374"><path d="M0 23.163c0-12.792 10.37-23.163 23.163-23.163h137.674c12.793 0 23.163 10.37 23.163 23.163v327.674c0 12.793-10.37 23.163-23.163 23.163h-137.674c-12.792 0-23.163-10.37-23.163-23.163v-327.674z" fill="#F8F8F8"/></mask><g mask="url(#a)"><path d="M2.677 46.721c0-14.521 0-21.781 2.827-27.328 2.487-4.879 6.455-8.845 11.335-11.331 5.548-2.826 12.812-2.826 27.338-2.826h95.322c14.527 0 21.79 0 27.338 2.826 4.881 2.486 8.849 6.452 11.336 11.331 2.827 5.546 2.827 12.807 2.827 27.328v282.764c0 14.521 0 21.781-2.827 27.327-2.487 4.879-6.455 8.846-11.336 11.331-5.548 2.826-12.811 2.826-27.338 2.826h-95.322c-14.527 0-21.79 0-27.338-2.826-4.881-2.485-8.849-6.452-11.335-11.331-2.827-5.546-2.827-12.806-2.827-27.327v-282.764z" fill="#141414"/><mask id="b" style="mask-type:alpha" maskUnits="userSpaceOnUse" x="11" y="14" width="162" height="349"><path d="M13.612 23.579c-1.848 3.626-1.848 8.374-1.848 17.868v293.534c0 9.495 0 14.242 1.848 17.868 1.626 3.19 4.22 5.784 7.411 7.409 3.628 1.848 8.377 1.848 17.875 1.848h106.594c9.499 0 14.248 0 17.875-1.848 3.192-1.625 5.786-4.219 7.412-7.409 1.848-3.626 1.848-8.373 1.848-17.868v-293.534c0-9.494 0-14.242-1.848-17.868-1.626-3.19-4.22-5.783-7.412-7.409-3.627-1.848-8.376-1.848-17.875-1.848h-8.335c-.413 0-.62 0-.785.06-.277.101-.495.319-.596.596-.06.165-.06.372-.06.784 0 3.302 0 4.952-.482 6.274-.806 2.216-2.553 3.961-4.769 4.768-1.323.481-2.974.481-6.277.481h-63.986c-3.303 0-4.954 0-6.277-.481-2.217-.807-3.963-2.552-4.77-4.768-.481-1.322-.481-2.973-.481-6.274 0-.413 0-.619-.06-.784-.101-.277-.319-.495-.596-.596-.165-.06-.372-.06-.785-.06h-8.336c-9.498 0-14.247 0-17.875 1.848-3.191 1.625-5.786 4.219-7.411 7.409z" fill="#fff"/></mask><g mask="url(#b)"><path fill="#F3F2EE" d="M9.281-306.274h166.434v1860.42h-166.434z"/><rect x="19.681" y="-290.67" width="145.629" height="327.666" rx="15.603" fill="#fff" filter="url(#c)"/><rect x="27.742" y="-1.232" width="129.506" height="22.364" rx="11.182" stroke="#85B921" stroke-width=".52"/><path d="M19.734 76.291h.574c.491-.982.879-1.962 1.163-2.941.284-.982.496-2.04.635-3.175h4.328v6.115h.99v3.474h-1.519v-2.164h-4.652v2.164h-1.519v-3.474zm3.621-4.805c-.108.775-.29 1.597-.543 2.463-.251.867-.533 1.647-.848 2.341h2.9v-4.805h-1.509zm7.446 1.432c-.328 0-.586.105-.772.315-.186.206-.293.501-.32.884h2.174c-.007-.383-.107-.677-.3-.884-.193-.21-.454-.315-.782-.315zm.218 4.785c-.914 0-1.629-.252-2.143-.757-.515-.505-.772-1.219-.772-2.143 0-.951.237-1.686.711-2.204.477-.522 1.136-.782 1.976-.782.803 0 1.427.229 1.874.686.447.457.67 1.089.67 1.895v.752h-3.662c.017.44.147.784.391 1.031.244.247.586.371 1.026.371.342 0 .665-.036.97-.107.305-.071.623-.184.955-.34v1.199c-.271.135-.56.235-.869.3-.308.068-.684.102-1.127.102zm5.125-5.78v2.184h2.164v-2.184h1.549v5.678h-1.549v-2.342h-2.164v2.342h-1.549v-5.678h1.549zm6.887 2.194h1.092c.874 0 1.52.139 1.94.416.42.278.63.698.63 1.26 0 1.205-.836 1.808-2.509 1.808h-2.702v-5.678h1.549v2.194zm2.113 1.696c0-.22-.088-.379-.264-.477-.176-.098-.439-.147-.787-.147h-1.062v1.341h1.082c.687 0 1.031-.239 1.031-.716zm7.654-2.956c.318 0 .614.049.889.147.274.098.513.242.716.432.203.19.362.427.477.711.115.281.173.605.173.97 0 .403-.063.765-.188 1.087-.125.318-.31.589-.554.813-.244.22-.547.389-.909.508-.359.118-.772.178-1.239.178-.186 0-.371-.008-.554-.025-.183-.017-.359-.042-.528-.076-.166-.031-.325-.071-.477-.122-.149-.051-.285-.11-.406-.178v-1.356c.118.068.256.132.411.193.156.057.317.108.483.152l.508.102c.169.024.33.036.483.036.454 0 .799-.093 1.036-.279.237-.19.356-.489.356-.899 0-.366-.117-.643-.351-.833-.23-.193-.587-.29-1.072-.29l-.284.015-.295.041-.274.056-.228.056-.625-.335.279-3.784h3.921v1.331h-2.56l-.122 1.458.376-.071c.146-.024.332-.036.559-.036z" fill="#0A0A0A"/><circle cx="154.912" cy="73.403" r="10.402" fill="#85B921"/><path d="M81.759 74.584c.216 0 .395-.063.537-.188.142-.126.218-.281.228-.466h.814c-.01.239-.084.463-.224.672-.14.206-.329.37-.569.491-.239.121-.498.181-.775.181-.538 0-.965-.174-1.28-.523-.315-.348-.473-.83-.473-1.444v-.089c0-.585.157-1.054.469-1.404.313-.353.74-.53 1.28-.53.457 0 .83.134 1.116.402.289.265.441.615.455 1.049h-.814c-.01-.22-.085-.402-.228-.544-.14-.142-.319-.213-.537-.213-.28 0-.495.102-.647.306-.152.201-.229.508-.231.921v.139c0 .417.075.729.224.935.152.204.37.306.654.306zm3.925.69c-.547 0-.992-.172-1.333-.516-.339-.346-.508-.806-.508-1.379v-.107c0-.384.073-.727.221-1.028.149-.303.358-.539.626-.708.268-.168.567-.252.896-.252.524 0 .928.167 1.212.501.287.334.43.807.43 1.419v.348h-2.514c.026.318.132.569.316.754.187.185.422.277.704.277.396 0 .718-.16.967-.48l.466.445c-.154.23-.36.409-.619.537-.256.126-.544.189-.864.189zm-.103-3.296c-.237 0-.429.083-.576.249-.145.166-.237.397-.277.693h1.646v-.064c-.019-.289-.096-.507-.231-.654-.135-.149-.322-.224-.562-.224zm4.882.075h-1.671v3.15h-.86v-3.847h2.531v.697zm.256 1.191c0-.377.075-.716.224-1.017.149-.303.359-.536.629-.697.27-.163.581-.245.931-.245.519 0 .94.167 1.262.501.325.334.5.778.526 1.33l.004.203c0 .379-.073.718-.22 1.017-.145.299-.353.53-.626.693-.27.164-.583.245-.939.245-.543 0-.978-.18-1.305-.541-.325-.363-.487-.845-.487-1.447v-.043zm.864.075c0 .396.082.706.245.931.164.223.391.334.683.334.292 0 .518-.114.679-.341.164-.228.245-.561.245-.999 0-.389-.084-.697-.252-.924-.166-.228-.392-.341-.679-.341-.282 0-.506.113-.672.338-.166.223-.249.557-.249 1.003zm3.203 1.195c.239-.268.399-.522.48-.761.083-.242.133-.55.149-.924l.05-1.472h2.67v3.157h.533v1.835h-.86v-1.145h-2.468v1.145h-.875l.004-1.835h.316zm1.013 0h1.476v-2.414h-.971l-.025.736c-.033.706-.193 1.266-.48 1.678zm6.681.69h-.864v-1.554h-1.497v1.554h-.864v-3.847h.864v1.603h1.497v-1.603h.864v3.847zm4.003-3.847v3.847h-.86v-1.411h-.807l-.822 1.411h-.896l.907-1.554c-.237-.099-.42-.242-.548-.427-.125-.185-.188-.397-.188-.636 0-.358.137-.651.412-.878.278-.23.651-.347 1.12-.352h1.682zm-2.35 1.252c0 .161.059.293.178.395.121.099.275.149.462.149h.85v-1.109h-.797c-.211 0-.379.053-.505.16-.125.107-.188.242-.188.405zm3.431 3.762l-.466-.277c.138-.216.231-.404.281-.565.052-.159.079-.321.082-.487v-.672h.778l-.003.622c-.002.251-.066.502-.192.754-.123.254-.283.462-.48.626zm6.609-3.346c0 .744-.139 1.306-.419 1.685-.277.377-.701.565-1.269.565-.56 0-.982-.184-1.266-.551-.282-.37-.427-.916-.434-1.639v-.896c0-.744.139-1.303.416-1.675.28-.372.705-.558 1.276-.558.567 0 .989.181 1.266.544.28.363.423.906.43 1.628v.896zm-.864-.967c0-.486-.066-.841-.199-1.067-.132-.228-.343-.341-.633-.341-.282 0-.489.108-.622.323-.132.213-.202.547-.209 1.003v1.173c0 .484.067.844.202 1.081s.347.356.637.356c.277 0 .482-.109.615-.327.132-.22.202-.564.209-1.031v-1.17zm4.317-2.055v.715h-.107c-.483.007-.87.14-1.159.398-.289.258-.461.625-.516 1.099.278-.292.632-.437 1.064-.437.457 0 .817.161 1.08.484.266.322.399.738.399 1.248 0 .526-.156.953-.466 1.28-.308.325-.714.487-1.216.487-.517 0-.936-.191-1.259-.573-.32-.382-.48-.882-.48-1.5v-.295c0-.908.221-1.619.662-2.133.443-.514 1.079-.771 1.909-.771h.089zm-.928 2.471c-.19 0-.364.053-.523.16-.156.107-.271.249-.345.427v.263c0 .384.081.69.242.917.161.225.37.338.626.338s.458-.096.608-.288c.149-.192.224-.444.224-.757s-.076-.568-.228-.764c-.152-.197-.353-.295-.604-.295zm2.972 1.82c.161 0 .286.046.373.139.088.09.132.204.132.341 0 .135-.044.248-.132.338-.087.088-.212.132-.373.132-.154 0-.276-.044-.366-.132-.09-.088-.135-.2-.135-.338 0-.137.044-.251.131-.341.088-.092.211-.139.37-.139zm4.814-1.269c0 .744-.14 1.306-.419 1.685-.278.377-.701.565-1.27.565-.559 0-.981-.184-1.265-.551-.283-.37-.427-.916-.434-1.639v-.896c0-.744.138-1.303.416-1.675.279-.372.705-.558 1.276-.558.567 0 .989.181 1.266.544.28.363.423.906.43 1.628v.896zm-.864-.967c0-.486-.066-.841-.199-1.067-.133-.228-.344-.341-.633-.341-.282 0-.489.108-.622.323-.133.213-.203.547-.21 1.003v1.173c0 .484.068.844.203 1.081s.347.356.636.356c.278 0 .483-.109.615-.327.133-.22.203-.564.21-1.031v-1.17zm5.074-1.55l-2.07 4.697h-.906l2.065-4.483h-2.677v-.693h3.588v.48zm1.287 3.787c.161 0 .285.046.373.139.088.09.132.204.132.341 0 .135-.044.248-.132.338-.088.088-.212.132-.373.132-.154 0-.276-.044-.366-.132-.091-.088-.136-.2-.136-.338 0-.137.044-.251.132-.341.088-.092.211-.139.37-.139zm4.92.91h-3.48v-.594l1.724-1.881c.249-.277.426-.508.53-.693.106-.187.16-.374.16-.562 0-.246-.07-.446-.21-.597-.137-.152-.324-.228-.558-.228-.28 0-.497.085-.651.256-.154.171-.231.404-.231.7h-.864c0-.315.071-.599.213-.85.145-.254.35-.45.616-.59.267-.14.576-.21.924-.21.502 0 .898.127 1.187.38.292.251.438.6.438 1.045 0 .258-.074.53-.221.814-.144.282-.382.603-.714.963l-1.266 1.355h2.403v.69zm2.998 0h-.861v-4.156l-1.269.434v-.729l2.019-.743h.111v5.194z" fill="#0A0A0A"/><g clip-path="url(#d)" fill="#fff"><path d="M159.858 68.787h-.784v-.621c0-.179-.146-.325-.325-.325-.179 0-.325.146-.325.325v.621h-3.187v-.621c0-.179-.146-.325-.325-.325-.179 0-.325.146-.325.325v.621h-3.219v-.621c0-.179-.146-.325-.325-.325-.179 0-.325.146-.325.325v.621h-.751c-.716 0-1.298.602-1.298 1.317v7.56c0 .719.579 1.301 1.298 1.301h9.887c.719 0 1.298-.582 1.298-1.297v-7.563c.003-.715-.579-1.317-1.294-1.317zm.647 8.877c0 .358-.286.647-.644.65h-9.894c-.358 0-.647-.289-.647-.647v-7.563c0-.361.289-.667.647-.667h.751v.472c0 .179.146.325.325.325.179 0 .325-.146.325-.325v-.472h3.219v.472c0 .179.146.325.325.325.179 0 .325-.146.325-.325v-.472h3.187v.472c0 .179.146.325.325.325.179 0 .325-.146.325-.325v-.472h.784c.361 0 .647.309.647.667v7.56zM154.056 71.551h-.569c-.179 0-.325.146-.325.325 0 .179.146.325.325.325h.569c.179 0 .325-.146.325-.325 0-.179-.146-.325-.325-.325zM156.318 71.551h-.569c-.178 0-.325.146-.325.325 0 .179.147.325.325.325h.569c.179 0 .326-.146.326-.325 0-.179-.144-.325-.326-.325zM158.6 71.551h-.569c-.178 0-.325.146-.325.325 0 .179.147.325.325.325h.569c.179 0 .326-.146.326-.325 0-.179-.147-.325-.326-.325zM154.056 73.795h-.569c-.179 0-.325.146-.325.325 0 .179.146.325.325.325h.569c.179 0 .325-.146.325-.325 0-.179-.146-.325-.325-.325zM151.776 73.795h-.572c-.179 0-.326.146-.326.325 0 .179.147.325.326.325h.569c.178 0 .325-.146.325-.325 0-.179-.143-.325-.322-.325zM156.318 73.795h-.569c-.178 0-.325.146-.325.325 0 .179.147.325.325.325h.569c.179 0 .326-.146.326-.325 0-.179-.144-.325-.326-.325zM158.6 73.795h-.569c-.178 0-.325.146-.325.325 0 .179.147.325.325.325h.569c.179 0 .326-.146.326-.325 0-.179-.147-.325-.326-.325zM154.056 76.006h-.569c-.179 0-.325.146-.325.325 0 .179.146.325.325.325h.569c.179 0 .325-.146.325-.325 0-.179-.146-.325-.325-.325zM151.776 76.006h-.572c-.179 0-.326.146-.326.325 0 .179.147.325.326.325h.569c.178 0 .325-.146.325-.325 0-.179-.143-.325-.322-.325zM156.318 76.006h-.569c-.178 0-.325.146-.325.325 0 .179.147.325.325.325h.569c.179 0 .326-.146.326-.325 0-.179-.144-.325-.326-.325z"/></g><rect x="19.681" y="99.409" width="145.629" height="177.356" rx="15.603" fill="#fff" filter="url(#e)"/><path d="M149.708 99.408c8.618 0 15.604 6.986 15.604 15.603v7.802h-145.63v-7.802c0-8.617 6.986-15.603 15.603-15.603h114.423z" fill="#CDB7AA"/><path d="M81.807 109.884c0-.232-.088-.417-.263-.554-.175-.138-.414-.207-.715-.207-.258 0-.474.069-.647.207-.173.135-.26.31-.26.526h-.896c0-.282.078-.534.235-.754.156-.22.373-.391.651-.512.277-.123.583-.185.917-.185.593 0 1.052.129 1.38.388.329.258.494.62.494 1.084 0 .235-.071.45-.213.647-.142.197-.341.352-.597.466.289.1.51.251.661.455.154.202.231.453.231.754 0 .464-.178.834-.533 1.109-.356.273-.83.409-1.422.409-.365 0-.696-.065-.992-.196-.294-.13-.516-.308-.665-.533-.147-.225-.221-.483-.221-.775h.896c0 .223.092.411.277.565.185.152.42.228.704.228.318 0 .572-.075.764-.224.194-.149.292-.344.292-.583 0-.292-.085-.503-.256-.633-.168-.133-.416-.199-.743-.199h-.608v-.711h.576c.635 0 .953-.257.953-.772zm4.028 3.765c-.038-.073-.071-.193-.099-.359-.275.287-.612.431-1.01.431-.386 0-.702-.111-.946-.331-.244-.221-.366-.493-.366-.818 0-.41.152-.724.455-.942.306-.22.742-.331 1.308-.331h.53v-.252c0-.199-.056-.358-.167-.477-.111-.12-.281-.181-.508-.181-.197 0-.358.05-.484.149-.126.098-.188.222-.188.374h-.864c0-.211.07-.408.21-.59.14-.185.329-.33.569-.434.242-.104.511-.157.807-.157.45 0 .809.114 1.077.342.268.225.405.542.412.953v1.735c0 .346.049.622.146.828v.06h-.882zm-.949-.622c.171 0 .331-.041.48-.124.152-.083.266-.195.341-.334v-.726h-.466c-.32 0-.561.056-.722.167-.161.112-.242.269-.242.473 0 .166.055.299.164.398.111.098.26.146.444.146zm2.656.622v-3.847h1.561c.526 0 .927.093 1.202.278.275.182.413.445.413.789 0 .178-.056.338-.167.48-.109.14-.271.248-.487.324.251.052.45.157.597.316.147.159.22.346.22.562 0 .358-.133.63-.398.818-.263.187-.642.28-1.138.28h-1.803zm.864-1.639v.957h.946c.443 0 .665-.159.665-.477 0-.32-.225-.48-.676-.48h-.935zm0-.618h.711c.491 0 .736-.145.736-.434 0-.303-.232-.46-.697-.469h-.75v.903zm6.208-.903h-1.248v3.16h-.864v-3.16h-1.234v-.687h3.346v.687zm3.947 1.276c0 .595-.135 1.07-.405 1.426-.27.353-.633.53-1.088.53-.422 0-.76-.139-1.013-.416v1.823h-.864v-5.326h.796l.035.392c.254-.309.599-.463 1.035-.463.469 0 .837.176 1.102.527.268.348.402.833.402 1.454v.053zm-.86-.075c0-.384-.077-.688-.231-.913-.152-.226-.37-.338-.654-.338-.353 0-.607.146-.761.437v1.707c.157.298.413.448.768.448.275 0 .49-.11.644-.331.157-.223.235-.559.235-1.01zm3.894 1.959c-.038-.073-.071-.193-.1-.359-.275.287-.611.431-1.01.431-.386 0-.701-.111-.945-.331-.244-.221-.366-.493-.366-.818 0-.41.152-.724.455-.942.306-.22.742-.331 1.309-.331h.53v-.252c0-.199-.056-.358-.167-.477-.112-.12-.281-.181-.509-.181-.197 0-.358.05-.483.149-.126.098-.189.222-.189.374h-.864c0-.211.07-.408.21-.59.14-.185.329-.33.569-.434.242-.104.511-.157.807-.157.45 0 .809.114 1.077.342.268.225.406.542.413.953v1.735c0 .346.048.622.145.828v.06h-.881zm-.95-.622c.171 0 .331-.041.48-.124.152-.083.266-.195.342-.334v-.726h-.466c-.32 0-.561.056-.722.167-.161.112-.242.269-.242.473 0 .166.055.299.164.398.111.098.259.146.444.146zm3.958-.899h-.438v1.521h-.864v-3.847h.864v1.536h.381l1.063-1.536h1.066l-1.39 1.842 1.508 2.005h-1.124l-1.066-1.521z" fill="#fff"/><path d="M32.766 147.416h-1.024v-5.087h-2.605v5.087h-1.024v-5.916h4.653v5.916zm2.174-4.396v3.608h1.373v-3.608h.987v3.608h1.377v-3.608h.983v4.396h-5.709v-4.396h.987zm7.728 4.477c-.626 0-1.134-.196-1.524-.589-.387-.395-.581-.921-.581-1.576v-.122c0-.439.084-.831.252-1.175.171-.346.409-.616.715-.808.306-.193.647-.289 1.024-.289.599 0 1.061.191 1.386.573.328.382.492.923.492 1.621v.399h-2.873c.03.363.15.65.362.861.214.211.482.317.804.317.452 0 .821-.183 1.105-.549l.532.508c-.176.263-.412.468-.707.614-.292.143-.622.215-.987.215zm-.118-3.766c-.271 0-.49.094-.658.284-.165.19-.271.454-.317.792h1.881v-.073c-.022-.33-.11-.579-.264-.747-.154-.171-.368-.256-.642-.256zm6.375 3.685h-.987v-1.776h-1.711v1.776h-.987v-4.396h.987v1.832h1.711v-1.832h.987v4.396zm3.681 0c-.043-.084-.081-.221-.114-.41-.314.327-.699.491-1.154.491-.442 0-.802-.126-1.081-.378-.279-.252-.419-.563-.419-.934 0-.469.173-.828.52-1.077.349-.252.848-.378 1.495-.378h.605v-.288c0-.228-.064-.409-.191-.545-.127-.138-.321-.207-.581-.207-.225 0-.409.057-.553.171-.144.111-.215.253-.215.426h-.987c0-.241.08-.466.24-.674.16-.212.377-.377.65-.496.276-.119.584-.179.922-.179.515 0 .925.13 1.231.39.306.258.463.621.471 1.089v1.983c0 .396.056.711.167.947v.069h-1.008zm-1.085-.711c.195 0 .378-.047.549-.142.173-.095.303-.222.39-.382v-.829h-.532c-.366 0-.641.064-.825.191-.184.127-.276.307-.276.54 0 .19.062.342.187.455.127.111.297.167.508.167zm6.481-3.685v4.396h-.983v-1.613h-.922l-.939 1.613h-1.024l1.036-1.776c-.271-.113-.48-.276-.626-.487-.144-.212-.215-.454-.215-.728 0-.409.157-.743.471-1.003.317-.263.744-.397 1.28-.402h1.922zm-2.686 1.43c0 .184.068.334.203.451.138.114.314.17.528.17h.971v-1.267h-.91c-.241 0-.433.061-.577.183-.144.121-.215.276-.215.463zm7.416 1.227h-.5v1.739h-.987v-4.396h.987v1.755h.435l1.215-1.755h1.219l-1.589 2.104 1.723 2.292h-1.284l-1.219-1.739zm5.672 1.739c-.043-.084-.081-.221-.114-.41-.314.327-.699.491-1.154.491-.441 0-.802-.126-1.081-.378-.279-.252-.418-.563-.418-.934 0-.469.173-.828.52-1.077.349-.252.848-.378 1.495-.378h.605v-.288c0-.228-.064-.409-.191-.545-.127-.138-.321-.207-.581-.207-.225 0-.409.057-.553.171-.144.111-.215.253-.215.426h-.987c0-.241.08-.466.24-.674.16-.212.377-.377.65-.496.276-.119.584-.179.922-.179.515 0 .925.13 1.231.39.306.258.463.621.471 1.089v1.983c0 .396.055.711.167.947v.069h-1.008zm-1.085-.711c.195 0 .378-.047.549-.142.173-.095.303-.222.39-.382v-.829h-.532c-.366 0-.641.064-.825.191-.184.127-.276.307-.276.54 0 .19.062.342.187.455.127.111.297.167.508.167zm3.986-3.685v3.608h1.373v-3.608h.987v3.608h1.377v-3.608h.983v4.396h-5.709v-4.396h.987zm8.419 4.396c-.043-.084-.081-.221-.114-.41-.314.327-.699.491-1.154.491-.442 0-.802-.126-1.081-.378-.279-.252-.419-.563-.419-.934 0-.469.173-.828.52-1.077.349-.252.848-.378 1.495-.378h.605v-.288c0-.228-.064-.409-.191-.545-.127-.138-.321-.207-.581-.207-.225 0-.409.057-.553.171-.144.111-.215.253-.215.426h-.987c0-.241.08-.466.24-.674.16-.212.376-.377.65-.496.276-.119.584-.179.922-.179.515 0 .925.13 1.231.39.306.258.463.621.471 1.089v1.983c0 .396.056.711.167.947v.069h-1.008zm-1.085-.711c.195 0 .378-.047.548-.142.173-.095.303-.222.39-.382v-.829h-.532c-.366 0-.641.064-.825.191-.184.127-.276.307-.276.54 0 .19.062.342.187.455.127.111.297.167.508.167zm6.839.004c.246 0 .451-.072.613-.215.163-.144.249-.321.26-.533h.93c-.011.274-.096.53-.256.768-.16.236-.376.423-.65.561-.274.138-.569.207-.886.207-.615 0-1.103-.199-1.463-.597-.36-.398-.54-.948-.54-1.65v-.101c0-.669.179-1.204.536-1.605.358-.404.845-.606 1.463-.606.523 0 .948.153 1.276.459.331.304.504.703.52 1.199h-.93c-.011-.252-.097-.459-.26-.622-.16-.162-.364-.243-.613-.243-.32 0-.566.116-.74.349-.173.23-.261.581-.264 1.052v.159c0 .477.085.833.256 1.069.173.233.423.349.748.349zm6.428 0c.246 0 .451-.072.614-.215.163-.144.249-.321.26-.533h.93c-.011.274-.096.53-.256.768-.16.236-.377.423-.65.561-.274.138-.569.207-.886.207-.615 0-1.103-.199-1.463-.597-.36-.398-.54-.948-.54-1.65v-.101c0-.669.179-1.204.536-1.605.358-.404.845-.606 1.463-.606.523 0 .948.153 1.276.459.331.304.504.703.52 1.199h-.93c-.011-.252-.097-.459-.26-.622-.16-.162-.364-.243-.614-.243-.32 0-.566.116-.74.349-.173.23-.261.581-.264 1.052v.159c0 .477.085.833.256 1.069.173.233.423.349.748.349zm4.088-.707l.894-2.982h1.052l-1.747 5.062c-.268.74-.723 1.11-1.365 1.11-.144 0-.302-.025-.475-.073v-.764l.187.012c.249 0 .436-.046.561-.138.127-.09.228-.241.301-.455l.142-.378-1.544-4.376h1.065l.931 2.982zm4.096-1.536l.837-1.446h1.097l-1.345 2.165 1.39 2.231h-1.089l-.878-1.503-.874 1.503h-1.097l1.39-2.231-1.341-2.165h1.089l.821 1.446zm2.259.711c0-.431.085-.818.256-1.162.171-.347.41-.612.719-.796.309-.187.664-.281 1.065-.281.593 0 1.074.191 1.442.573.371.382.572.889.602 1.52l.004.231c0 .434-.084.821-.252 1.163-.165.341-.404.605-.715.792-.309.187-.667.28-1.073.28-.62 0-1.117-.206-1.491-.617-.371-.415-.557-.966-.557-1.654v-.049zm.987.085c0 .453.094.808.281 1.065.187.255.447.382.78.382s.592-.13.776-.39c.187-.26.28-.641.28-1.142 0-.444-.096-.796-.288-1.056-.19-.26-.448-.39-.776-.39-.322 0-.578.128-.768.386-.19.254-.285.636-.285 1.145zm3.771.017c0-.718.141-1.287.423-1.707.284-.422.68-.634 1.186-.634.206 0 .393.038.561.114v-1.877h.983v1.893c.174-.086.377-.13.61-.13.504 0 .898.21 1.182.63.287.417.431 1.016.431 1.796 0 .658-.144 1.178-.431 1.56-.287.382-.678.573-1.174.573-.225 0-.431-.04-.618-.122v1.731h-.983v-1.714c-.165.07-.355.105-.569.105-.474 0-.853-.174-1.138-.524-.281-.352-.434-.836-.459-1.45l-.004-.244zm4.389 0c0-.493-.079-.874-.236-1.142-.157-.271-.379-.406-.666-.406-.122 0-.233.017-.334.052v2.885c.09.027.204.041.342.041.596 0 .894-.477.894-1.43zm-3.405.085c0 .439.073.773.219 1.004.146.227.363.341.65.341.122 0 .228-.014.317-.041v-2.897c-.092-.027-.195-.04-.309-.04-.282 0-.498.131-.65.394-.152.26-.227.673-.227 1.239zm9.093-.102c0 .68-.154 1.224-.463 1.63-.309.403-.723.605-1.243.605-.483 0-.869-.158-1.158-.475v2.084h-.988v-6.086h.91l.041.446c.29-.352.684-.528 1.182-.528.537 0 .957.201 1.26.602.306.398.459.952.459 1.662v.06zm-.983-.085c0-.439-.088-.787-.264-1.044-.174-.257-.423-.386-.748-.386-.403 0-.693.166-.869.5v1.95c.178.341.471.512.877.512.315 0 .56-.126.736-.378.179-.255.268-.639.268-1.154zm3.312.825l.893-2.982h1.053l-1.747 5.062c-.269.74-.724 1.11-1.366 1.11-.143 0-.302-.025-.475-.073v-.764l.187.012c.249 0 .436-.046.561-.138.127-.09.227-.241.3-.455l.143-.378-1.545-4.376h1.065l.931 2.982zm4.079-.325h-.5v1.739h-.987v-4.396h.987v1.755h.435l1.215-1.755h1.219l-1.589 2.104 1.723 2.292h-1.284l-1.219-1.739zm6.505-1.873h-1.426v3.612h-.987v-3.612h-1.41v-.784h3.823v.784zm3.223 3.612c-.044-.084-.082-.221-.114-.41-.314.327-.699.491-1.154.491-.442 0-.802-.126-1.081-.378-.279-.252-.418-.563-.418-.934 0-.469.173-.828.52-1.077.349-.252.848-.378 1.495-.378h.605v-.288c0-.228-.063-.409-.191-.545-.127-.138-.321-.207-.581-.207-.224 0-.409.057-.552.171-.144.111-.216.253-.216.426h-.987c0-.241.08-.466.24-.674.16-.212.376-.377.65-.496.276-.119.584-.179.922-.179.515 0 .925.13 1.231.39.307.258.464.621.472 1.089v1.983c0 .396.055.711.166.947v.069h-1.007zm-1.085-.711c.195 0 .378-.047.548-.142.174-.095.304-.222.39-.382v-.829h-.532c-.366 0-.641.064-.825.191-.184.127-.276.307-.276.54 0 .19.062.342.187.455.127.111.296.167.508.167zm5.571-.504l1.3-3.181h1.235v4.396h-.987v-2.909l-1.211 2.909h-.671l-1.215-2.926v2.926h-.987v-4.396h1.243l1.293 3.181zm6.391-3.181h.984v4.396h-.984v-2.934l-1.723 2.934h-.983v-4.396h.983v2.933l1.723-2.933z" fill="#0A0A0A"/><path d="M29.15 158.506h-.539v1.993h-.585v-4.437h.585v1.957h.457l1.551-1.957h.728l-1.694 2.152 1.819 2.285h-.716l-1.606-1.993zm4.806 1.993c-.032-.065-.059-.181-.079-.347-.262.272-.575.408-.939.408-.325 0-.592-.091-.802-.274-.207-.185-.311-.419-.311-.701 0-.343.13-.609.39-.798.262-.191.63-.287 1.103-.287h.549v-.259c0-.197-.059-.353-.177-.469-.118-.118-.291-.177-.521-.177-.201 0-.37.051-.506.152-.136.102-.204.225-.204.369h-.567c0-.164.058-.323.174-.475.118-.155.276-.277.475-.366.201-.089.422-.134.661-.134.38 0 .678.095.893.286.215.189.327.45.335.784v1.517c0 .303.039.544.116.723v.048h-.591zm-.936-.429c.177 0 .344-.046.503-.138.159-.091.273-.21.344-.356v-.677h-.442c-.691 0-1.036.202-1.036.607 0 .177.059.315.177.414.118.1.269.15.454.15zm4.998-2.868v3.297h-.567v-2.831h-1.121l-.067 1.234c-.037.567-.132.973-.286 1.216-.152.244-.395.371-.728.381h-.225v-.496l.161-.013c.183-.02.314-.126.393-.317.079-.191.13-.544.152-1.06l.061-1.411h2.228zm.756 1.618c0-.323.063-.613.189-.871.128-.259.305-.458.53-.598.227-.14.486-.21.777-.21.449 0 .812.155 1.088.466.278.311.417.724.417 1.241v.039c0 .321-.062.61-.186.866-.122.254-.298.452-.527.594-.227.142-.49.213-.786.213-.447 0-.81-.155-1.088-.466-.276-.311-.415-.722-.415-1.234v-.04zm.567.067c0 .366.084.659.253.881.171.221.398.332.683.332.286 0 .514-.112.683-.335.169-.226.253-.541.253-.945 0-.362-.086-.654-.259-.878-.171-.225-.398-.338-.683-.338-.278 0-.503.111-.673.332-.171.222-.256.539-.256.951zm5.927 0c0 .502-.115.906-.344 1.213-.23.307-.54.46-.932.46-.4 0-.715-.127-.945-.381v1.588h-.564v-4.565h.515l.027.366c.23-.285.549-.427.957-.427.396 0 .709.149.939.448.232.299.347.714.347 1.246v.052zm-.564-.064c0-.372-.079-.665-.238-.881-.159-.215-.376-.323-.652-.323-.341 0-.597.152-.768.454v1.576c.169.301.427.451.774.451.27 0 .485-.107.643-.32.16-.215.241-.534.241-.957zm3.416-1.621h.564v3.297h-.564v-2.404l-1.521 2.404h-.564v-3.297h.564v2.407l1.521-2.407zm3.602 0h.564v3.297h-.564v-2.404l-1.521 2.404h-.564v-3.297h.564v2.407l1.521-2.407zm.152-1.201c0 .246-.084.444-.253.594-.167.149-.386.223-.658.223s-.493-.075-.661-.226c-.169-.15-.253-.347-.253-.591h.46c0 .142.039.254.116.335.077.08.19.119.338.119.142 0 .253-.039.332-.119.081-.079.122-.191.122-.335h.457zm4.011 4.498h-.564v-1.408h-1.515v1.408h-.567v-3.297h.567v1.429h1.515v-1.429h.564v3.297zm.759-1.679c0-.323.063-.613.189-.871.128-.259.305-.458.53-.598.228-.14.487-.21.777-.21.449 0 .812.155 1.088.466.278.311.417.724.417 1.241v.039c0 .321-.062.61-.186.866-.122.254-.298.452-.527.594-.227.142-.49.213-.786.213-.447 0-.81-.155-1.088-.466-.276-.311-.415-.722-.415-1.234v-.04zm.567.067c0 .366.084.659.253.881.171.221.398.332.683.332.287 0 .514-.112.683-.335.169-.226.253-.541.253-.945 0-.362-.086-.654-.259-.878-.171-.225-.398-.338-.683-.338-.278 0-.503.111-.673.332-.171.222-.256.539-.256.951zm4.465 1.213c.201 0 .377-.061.527-.183.15-.122.234-.274.25-.457h.533c-.01.189-.075.369-.195.539-.12.171-.28.307-.482.409-.199.101-.41.152-.634.152-.449 0-.806-.149-1.073-.448-.264-.3-.396-.711-.396-1.231v-.094c0-.321.059-.607.177-.857s.287-.444.506-.582c.221-.138.483-.207.783-.207.37 0 .676.111.92.332.246.222.377.509.393.863h-.533c-.016-.214-.097-.388-.244-.525-.144-.138-.323-.207-.536-.207-.287 0-.509.104-.667.311-.156.205-.235.503-.235.893v.107c0 .379.078.672.235.877.156.205.38.308.67.308zm4.395-2.441h-1.106v2.84h-.564v-2.84h-1.085v-.457h2.755v.457zm1.164.68h.856c.374.004.669.101.887.292.217.191.326.45.326.777 0 .329-.112.594-.335.793-.224.199-.524.298-.902.298h-1.396v-3.297h.564v1.137zm0 .46v1.24h.838c.211 0 .375-.054.491-.161.116-.11.174-.259.174-.448 0-.183-.057-.333-.171-.448-.112-.118-.269-.179-.472-.183h-.859zm6.644.21h.616v.46h-.616v1.03h-.567v-1.03h-2.02v-.332l1.987-3.075h.6v2.947zm-1.947 0h1.381v-2.176l-.067.122-1.314 2.054zm5.854-.402c0 .66-.113 1.151-.338 1.472-.225.321-.578.481-1.058.481-.473 0-.824-.156-1.051-.469-.227-.315-.345-.784-.353-1.408v-.753c0-.652.113-1.136.338-1.453.225-.317.579-.476 1.06-.476.478 0 .829.154 1.055.46.225.305.341.776.347 1.414v.732zm-.564-.771c0-.478-.067-.825-.201-1.042-.134-.22-.346-.33-.637-.33-.288 0-.499.109-.631.326-.132.218-.2.552-.204 1.003v.902c0 .48.069.834.207 1.064.14.227.352.341.634.341.278 0 .485-.108.619-.323.136-.215.207-.555.213-1.018v-.923zm4.068.771c0 .66-.113 1.151-.338 1.472-.225.321-.578.481-1.058.481-.473 0-.824-.156-1.051-.469-.228-.315-.345-.784-.354-1.408v-.753c0-.652.113-1.136.338-1.453.225-.317.579-.476 1.061-.476.477 0 .829.154 1.054.46.226.305.341.776.347 1.414v.732zm-.564-.771c0-.478-.067-.825-.201-1.042-.134-.22-.346-.33-.637-.33-.288 0-.499.109-.631.326-.132.218-.2.552-.204 1.003v.902c0 .48.069.834.207 1.064.14.227.351.341.634.341.278 0 .485-.108.619-.323.136-.215.207-.555.213-1.018v-.923zm3.919 1.258h-.411v1.405h-.567v-3.297h.567v1.396h.369l1.109-1.396h.683l-1.304 1.585 1.414 1.712h-.716l-1.143-1.405zm3.37 0h-.411v1.405h-.567v-3.297h.567v1.396h.369l1.109-1.396h.683l-1.304 1.585 1.414 1.712h-.716l-1.143-1.405zm4.379 1.405c-.033-.065-.059-.181-.079-.347-.262.272-.575.408-.939.408-.325 0-.592-.091-.802-.274-.207-.185-.311-.419-.311-.701 0-.343.13-.609.39-.798.262-.191.63-.287 1.103-.287h.549v-.259c0-.197-.059-.353-.177-.469-.118-.118-.291-.177-.521-.177-.201 0-.37.051-.506.152-.136.102-.204.225-.204.369h-.567c0-.164.058-.323.174-.475.118-.155.276-.277.475-.366.201-.089.422-.134.661-.134.38 0 .678.095.893.286.215.189.327.45.335.784v1.517c0 .303.039.544.116.723v.048h-.591zm-.936-.429c.177 0 .344-.046.503-.138.159-.091.273-.21.344-.356v-.677h-.442c-.691 0-1.036.202-1.036.607 0 .177.059.315.177.414.118.1.269.15.454.15zm4.998-2.868v3.297h-.567v-2.831h-1.121l-.067 1.234c-.037.567-.132.973-.286 1.216-.152.244-.395.371-.728.381h-.225v-.496l.161-.013c.183-.02.314-.126.393-.317.079-.191.13-.544.152-1.06l.061-1.411h2.228z" fill="#85B921"/><path d="M35.196 252.881h-6.563M33.063 250.759s2.132 1.128 2.132 2.121c0 .992-2.132 2.121-2.132 2.121M27.484 258.043h6.563M29.616 260.165s-2.132-1.129-2.132-2.121 2.132-2.121 2.132-2.121" stroke="#E99A8B" stroke-width=".78" stroke-linecap="round" stroke-linejoin="round"/><path d="M44.049 254.474c0-.233-.088-.418-.263-.555-.175-.138-.414-.206-.715-.206-.258 0-.474.068-.647.206-.173.135-.26.31-.26.526h-.896c0-.282.078-.533.235-.754.156-.22.373-.391.651-.512.277-.123.583-.184.917-.184.593 0 1.052.129 1.38.387.33.258.494.62.494 1.084 0 .235-.071.451-.213.648-.142.196-.341.352-.597.465.289.1.51.252.661.455.154.202.231.453.231.754 0 .465-.178.834-.533 1.109-.356.273-.83.409-1.422.409-.365 0-.696-.065-.992-.195-.294-.131-.516-.308-.665-.534-.147-.225-.221-.483-.221-.775h.896c0 .223.092.412.277.566.185.151.42.227.704.227.318 0 .572-.074.764-.224.194-.149.291-.343.291-.583 0-.291-.085-.502-.256-.633-.168-.132-.416-.199-.743-.199h-.608v-.711h.576c.635 0 .953-.257.953-.771zm4.028 3.765c-.038-.074-.071-.193-.1-.359-.275.286-.611.43-1.01.43-.386 0-.702-.11-.946-.331-.244-.22-.366-.493-.366-.818 0-.41.152-.724.455-.942.306-.22.742-.33 1.308-.33h.53v-.253c0-.199-.056-.358-.167-.476-.111-.121-.281-.182-.508-.182-.197 0-.358.05-.484.15-.126.097-.188.221-.188.373h-.864c0-.211.07-.408.21-.59.14-.185.33-.33.569-.434.242-.104.511-.156.807-.156.45 0 .809.113 1.077.341.268.225.405.543.413.953v1.735c0 .346.049.622.146.828v.061h-.882zm-.949-.622c.171 0 .331-.042.48-.125.152-.083.266-.194.341-.334v-.725h-.466c-.32 0-.561.055-.722.167-.161.111-.242.269-.242.473 0 .166.054.298.164.398.111.097.259.146.444.146zm4.874-.441l1.138-2.784h1.081v3.847h-.864v-2.546l-1.059 2.546h-.587l-1.063-2.56v2.56h-.864v-3.847h1.088l1.131 2.784zm4.885 1.134c-.547 0-.992-.172-1.333-.516-.339-.346-.508-.806-.508-1.379v-.107c0-.384.074-.726.22-1.027.149-.304.358-.54.626-.708.268-.168.566-.252.896-.252.524 0 .928.167 1.212.501.287.334.43.807.43 1.419v.348h-2.514c.026.318.132.569.316.754.187.185.422.277.704.277.396 0 .718-.16.967-.48l.466.445c-.154.229-.36.408-.619.536-.256.126-.544.189-.864.189zm-.103-3.296c-.237 0-.429.083-.576.249-.145.166-.237.397-.277.693h1.646v-.064c-.019-.289-.096-.507-.231-.654-.135-.149-.322-.224-.562-.224zm5.578 3.225h-.864v-1.554h-1.497v1.554h-.864v-3.847h.864v1.603h1.497v-1.603h.864v3.847zm3.324-3.847h.86v3.847h-.86v-2.567l-1.507 2.567h-.86v-3.847h.86v2.567l1.507-2.567zm4.807.686h-1.248v3.161h-.864v-3.161h-1.234v-.686h3.346v.686zm1.507.537h.846c.315 0 .59.054.825.163.235.109.412.262.533.459.123.197.185.426.185.686 0 .396-.14.714-.42.953-.28.24-.652.36-1.116.363h-1.717v-3.847h.864v1.223zm0 .693v1.241h.843c.211 0 .377-.052.498-.156.123-.107.185-.258.185-.452s-.061-.347-.181-.459c-.118-.113-.28-.171-.484-.174h-.86zm6.706-1.703c.484 0 .871.163 1.163.487.292.323.437.761.437 1.316v.042c0 .555-.159 1.004-.476 1.348-.315.344-.744.515-1.287.515-.529 0-.955-.175-1.28-.526-.325-.351-.487-.829-.487-1.436v-.249c0-.83.147-1.486.441-1.97.294-.483.732-.785 1.316-.906.327-.067.538-.137.633-.21.097-.076.146-.178.146-.306h.697c0 .24-.039.434-.117.583-.078.15-.198.272-.359.366-.161.093-.439.181-.832.264-.36.075-.635.21-.825.405-.187.194-.313.463-.377.807.344-.353.747-.53 1.209-.53zm-.171.693c-.28 0-.499.095-.658.285-.159.187-.238.476-.238.867 0 .37.078.658.235.864.156.207.379.31.668.31.287 0 .508-.103.665-.31.159-.208.238-.521.238-.938 0-.332-.079-.594-.238-.786-.156-.194-.38-.292-.672-.292zm5.717-.906v3.847h-.864v-3.15h-1.088l-.071 1.34c-.045.645-.169 1.108-.373 1.39-.201.28-.511.42-.928.42h-.267l-.004-.718.178-.018c.19-.026.327-.141.412-.345.088-.206.143-.581.167-1.124l.071-1.642h2.766zm1.856 1.546h.725c.064-.49.254-.883.569-1.176.315-.294.713-.441 1.195-.441.519 0 .94.167 1.262.501.325.334.5.777.526 1.33l.004.202c0 .38-.073.719-.221 1.017-.144.299-.353.53-.626.694-.27.163-.583.245-.939.245-.498 0-.907-.154-1.227-.462-.318-.308-.501-.714-.551-1.216h-.718v1.607h-.864v-3.847h.864v1.546zm1.568.416c0 .396.082.707.245.932.164.223.391.334.683.334.291 0 .518-.114.679-.341.161-.228.242-.561.242-.999 0-.396-.084-.705-.252-.928-.166-.225-.391-.338-.675-.338-.282 0-.506.113-.672.338-.166.223-.249.557-.249 1.002zm3.378 1.195c.239-.268.399-.521.48-.761.083-.242.133-.55.149-.924l.05-1.472h2.67v3.157h.533v1.835h-.86v-1.145h-2.467v1.145h-.875l.003-1.835h.316zm1.013 0h1.475v-2.414h-.971l-.025.736c-.033.706-.193 1.266-.48 1.678zm3.324-1.269c0-.377.075-.716.224-1.017.149-.303.359-.536.629-.697.27-.164.581-.245.931-.245.519 0 .94.167 1.262.501.325.334.5.777.526 1.33l.004.202c0 .38-.073.719-.221 1.017-.145.299-.353.53-.626.694-.27.163-.583.245-.939.245-.543 0-.978-.18-1.305-.541-.325-.362-.487-.845-.487-1.447v-.042zm.864.074c0 .396.082.707.245.932.164.223.391.334.683.334.291 0 .518-.114.679-.341.164-.228.245-.561.245-.999 0-.389-.084-.697-.252-.925-.166-.227-.392-.341-.679-.341-.282 0-.506.113-.672.338-.166.223-.249.557-.249 1.002z" fill="#E99A8B"/><path d="M31.18 176.087h.899v5.176h-.899v-3.687l-2.272 3.687h-.899v-5.176h.899v3.69l2.272-3.69zm5.152 5.176h-.864v-1.554h-1.497v1.554h-.864v-3.847h.864v1.604h1.497v-1.604h.864v3.847zm3.484-3.15h-1.671v3.15h-.86v-3.847h2.531v.697zm3.858 1.266c0 .595-.135 1.07-.405 1.426-.27.353-.633.529-1.088.529-.422 0-.76-.138-1.013-.416v1.824h-.864v-5.326h.796l.036.391c.254-.308.599-.462 1.035-.462.469 0 .837.176 1.102.526.268.349.402.833.402 1.454v.054zm-.86-.075c0-.384-.077-.688-.231-.914-.152-.225-.37-.337-.654-.337-.353 0-.607.145-.761.437v1.707c.156.298.412.448.768.448.275 0 .489-.111.644-.331.156-.223.235-.559.235-1.01zm3.289 2.03c-.548 0-.992-.172-1.333-.515-.339-.346-.508-.806-.508-1.38v-.106c0-.384.073-.727.22-1.028.149-.303.358-.539.626-.707.268-.169.566-.253.896-.253.524 0 .928.167 1.212.501.287.335.43.808.43 1.419v.348h-2.514c.026.318.132.569.316.754.187.185.422.278.704.278.396 0 .718-.16.967-.48l.466.444c-.154.23-.36.409-.619.537-.256.125-.544.188-.864.188zm-.103-3.296c-.237 0-.429.083-.576.249-.145.166-.237.397-.277.694h1.646v-.064c-.019-.29-.096-.508-.231-.655-.135-.149-.322-.224-.562-.224zm2.336 2.535c.239-.267.399-.521.48-.76.083-.242.133-.55.149-.925l.05-1.472h2.67v3.157h.533v1.835h-.861v-1.145h-2.467v1.145h-.875l.004-1.835h.316zm1.013 0h1.476v-2.414h-.971l-.025.736c-.033.707-.193 1.266-.48 1.678zm5.824-3.157h.86v3.847h-.86v-2.567l-1.508 2.567h-.86v-3.847h.86v2.567l1.508-2.567zm3.474 3.918c-.547 0-.992-.172-1.333-.515-.339-.346-.508-.806-.508-1.38v-.106c0-.384.074-.727.221-1.028.149-.303.358-.539.626-.707.268-.169.566-.253.896-.253.524 0 .928.167 1.212.501.287.335.43.808.43 1.419v.348h-2.514c.026.318.132.569.316.754.187.185.422.278.704.278.396 0 .718-.16.967-.48l.466.444c-.154.23-.36.409-.619.537-.256.125-.544.188-.864.188zm-.103-3.296c-.237 0-.429.083-.576.249-.144.166-.237.397-.277.694h1.646v-.064c-.019-.29-.096-.508-.231-.655-.135-.149-.322-.224-.562-.224zm5.579 3.225h-.864v-1.554h-1.497v1.554h-.864v-3.847h.864v1.604h1.497v-1.604h.864v3.847zm3.95-3.161h-1.248v3.161h-.864v-3.161h-1.234v-.686h3.346v.686zm1.507.537h.846c.315 0 .59.055.825.164.235.109.412.262.533.458.123.197.185.426.185.687 0 .396-.14.713-.419.953-.28.239-.652.36-1.116.362h-1.717v-3.847h.864v1.223zm3.893 2.624h-.864v-3.847h.864v3.847zm-3.893-1.93v1.24h.843c.211 0 .377-.052.498-.156.123-.107.185-.257.185-.452 0-.194-.061-.347-.181-.458-.118-.114-.28-.172-.484-.174h-.86zM39.842 196.386h-.686v-4.614h-2.553v4.614h-.683v-5.176h3.922v5.176zm1.86-3.846v3.31h1.408v-3.31h.658v3.31h1.404v-3.31h.661v3.846h-4.793v-3.846h.661zm6.766 3.918c-.521 0-.946-.171-1.273-.512-.327-.344-.491-.803-.491-1.376v-.121c0-.382.072-.722.217-1.021.147-.301.351-.535.612-.704.263-.17.547-.256.853-.256.5 0 .889.165 1.166.495.277.329.416.801.416 1.415v.273h-2.606c.01.38.12.687.331.921.213.233.483.349.811.349.232 0 .429-.048.59-.142.161-.095.302-.221.423-.377l.402.313c-.322.495-.806.743-1.451.743zm-.082-3.449c-.266 0-.488.097-.668.291-.18.192-.292.463-.334.811h1.927v-.05c-.019-.334-.109-.592-.27-.775-.161-.185-.379-.277-.654-.277zm5.489 3.377h-.658v-1.642h-1.767v1.642h-.661v-3.846h.661v1.667h1.767v-1.667h.658v3.846zm3.434 0c-.038-.075-.069-.21-.092-.405-.306.318-.671.477-1.095.477-.379 0-.691-.107-.935-.32-.242-.216-.363-.489-.363-.818 0-.401.152-.711.455-.932.306-.222.735-.334 1.287-.334h.64v-.302c0-.23-.069-.413-.206-.548-.138-.137-.34-.206-.608-.206-.235 0-.431.059-.59.178-.159.118-.238.262-.238.43h-.661c0-.192.068-.377.203-.554.137-.181.322-.323.555-.427.235-.104.492-.157.772-.157.443 0 .79.112 1.042.335.251.22.382.525.391.913v1.771c0 .353.045.634.135.843v.056h-.69zm-1.091-.501c.206 0 .402-.053.587-.16.185-.106.319-.245.402-.416v-.789h-.516c-.806 0-1.209.236-1.209.707 0 .207.069.368.206.484.137.116.314.174.53.174zm5.618-3.345v3.846h-.661v-1.496h-.992l-.907 1.496h-.711l.967-1.596c-.246-.09-.436-.229-.569-.416-.13-.19-.196-.41-.196-.661 0-.351.132-.633.395-.846.263-.216.615-.325 1.056-.327h1.618zm-2.407 1.18c0 .187.064.339.192.455.128.114.297.172.508.174h1.045v-1.276h-.946c-.244 0-.438.06-.583.181-.145.119-.217.274-.217.466zm6.467 1.027h-.48v1.639h-.661v-3.846h.661v1.628h.43l1.294-1.628h.796l-1.522 1.848 1.65 1.998h-.835l-1.333-1.639zm5.109 1.639c-.038-.075-.069-.21-.093-.405-.306.318-.671.477-1.095.477-.379 0-.691-.107-.935-.32-.242-.216-.363-.489-.363-.818 0-.401.152-.711.455-.932.306-.222.735-.334 1.287-.334h.64v-.302c0-.23-.069-.413-.206-.548-.137-.137-.34-.206-.608-.206-.235 0-.431.059-.59.178-.159.118-.238.262-.238.43h-.661c0-.192.068-.377.203-.554.138-.181.322-.323.555-.427.235-.104.492-.157.772-.157.443 0 .79.112 1.042.335.251.22.382.525.391.913v1.771c0 .353.045.634.135.843v.056h-.69zm-1.092-.501c.206 0 .402-.053.587-.16.185-.106.319-.245.402-.416v-.789h-.516c-.806 0-1.209.236-1.209.707 0 .207.069.368.206.484.137.116.314.174.53.174zm3.395-3.345v3.31h1.408v-3.31h.658v3.31h1.404v-3.31h.661v3.846h-4.793v-3.846h.661zm7.544 3.846c-.038-.075-.069-.21-.092-.405-.306.318-.671.477-1.095.477-.379 0-.691-.107-.935-.32-.242-.216-.363-.489-.363-.818 0-.401.152-.711.455-.932.306-.222.735-.334 1.287-.334h.64v-.302c0-.23-.069-.413-.206-.548-.138-.137-.34-.206-.608-.206-.235 0-.431.059-.59.178-.159.118-.238.262-.238.43h-.661c0-.192.068-.377.203-.554.138-.181.322-.323.555-.427.235-.104.492-.157.772-.157.443 0 .79.112 1.042.335.251.22.382.525.391.913v1.771c0 .353.045.634.135.843v.056h-.69zm-1.091-.501c.206 0 .402-.053.587-.16.185-.106.319-.245.402-.416v-.789h-.515c-.806 0-1.209.236-1.209.707 0 .207.069.368.206.484.137.116.314.174.53.174zm7.626.501h-.658v-1.642h-1.767v1.642h-.661v-3.846h.661v1.667h1.767v-1.667h.658v3.846zm3.434 0c-.038-.075-.069-.21-.093-.405-.306.318-.671.477-1.095.477-.379 0-.691-.107-.935-.32-.242-.216-.363-.489-.363-.818 0-.401.152-.711.455-.932.306-.222.735-.334 1.287-.334h.64v-.302c0-.23-.069-.413-.206-.548-.137-.137-.34-.206-.608-.206-.235 0-.431.059-.59.178-.159.118-.238.262-.238.43h-.661c0-.192.067-.377.203-.554.138-.181.322-.323.555-.427.235-.104.492-.157.771-.157.443 0 .791.112 1.042.335.251.22.382.525.391.913v1.771c0 .353.045.634.135.843v.056h-.69zm-1.091-.501c.206 0 .402-.053.587-.16.185-.106.319-.245.402-.416v-.789h-.516c-.806 0-1.209.236-1.209.707 0 .207.069.368.206.484.138.116.314.174.53.174zm4.544.501v-3.846h1.5c.512 0 .904.09 1.177.27.275.178.412.439.412.785 0 .178-.053.339-.16.484-.107.142-.264.251-.473.327.232.055.418.161.558.32.142.159.213.349.213.569 0 .353-.13.623-.391.811-.258.187-.625.28-1.099.28h-1.739zm.658-1.688v1.159h1.088c.275 0 .48-.051.615-.153.137-.102.206-.245.206-.43 0-.384-.282-.576-.846-.576h-1.063zm0-.527h.85c.616 0 .924-.18.924-.54 0-.36-.292-.546-.875-.558h-.9v1.098zm3.267.256c0-.376.073-.715.22-1.016.149-.301.356-.534.619-.697.266-.164.568-.246.907-.246.524 0 .947.182 1.269.544.325.363.487.845.487 1.447v.047c0 .374-.072.711-.217 1.009-.142.297-.347.528-.615.694-.265.166-.571.249-.917.249-.522 0-.945-.182-1.269-.544-.322-.363-.484-.843-.484-1.44v-.047zm.661.079c0 .426.098.769.295 1.027.199.259.465.388.796.388.334 0 .6-.131.796-.391.197-.263.296-.631.296-1.103 0-.421-.101-.763-.303-1.024-.199-.263-.464-.394-.796-.394-.325 0-.587.129-.786.387-.199.259-.299.629-.299 1.11zm3.377 1.344l.228-.281c.256-.332.402-.83.437-1.494l.06-1.535h2.479v3.31h.494v1.667h-.658v-1.131h-2.684v1.131h-.658l.004-1.667h.298zm.779 0h1.767v-2.702h-1.184l-.039.917c-.04.765-.222 1.36-.544 1.785zm5.244.608c-.521 0-.946-.171-1.273-.512-.327-.344-.49-.803-.49-1.376v-.121c0-.382.072-.722.216-1.021.147-.301.351-.535.612-.704.263-.17.548-.256.853-.256.5 0 .889.165 1.166.495.278.329.416.801.416 1.415v.273h-2.606c.01.38.12.687.331.921.213.233.484.349.811.349.232 0 .429-.048.59-.142.161-.095.302-.221.423-.377l.402.313c-.323.495-.806.743-1.451.743zm-.082-3.449c-.265 0-.488.097-.668.291-.18.192-.292.463-.334.811h1.927v-.05c-.019-.334-.109-.592-.271-.775-.161-.185-.379-.277-.654-.277zm4.128 1.276c0-.535.071-1.05.213-1.543.145-.493.36-.941.644-1.344.284-.403.579-.687.885-.853l.135.434c-.346.265-.63.67-.853 1.216-.22.545-.341 1.155-.363 1.831l-.003.302c0 .915.167 1.709.501 2.382.202.403.441.718.718.946l-.135.402c-.315-.176-.616-.47-.903-.882-.559-.806-.839-1.77-.839-2.891zm5.027-3.079v.558h-.12c-.512.01-.92.162-1.223.456-.304.293-.479.707-.527 1.24.273-.312.645-.469 1.117-.469.45 0 .809.159 1.077.476.27.318.405.728.405 1.231 0 .533-.145.96-.437 1.28-.289.32-.678.48-1.166.48-.496 0-.897-.19-1.205-.569-.309-.382-.463-.873-.463-1.472v-.253c0-.953.203-1.68.608-2.183.408-.505 1.014-.763 1.817-.775h.117zm-.864 2.333c-.225 0-.432.067-.622.202-.189.135-.321.305-.394.509v.241c0 .427.096.771.288 1.032.192.26.431.391.718.391.296 0 .528-.109.697-.327.17-.219.256-.504.256-.857 0-.356-.087-.643-.26-.861-.171-.22-.398-.33-.683-.33zm5.618.64c0 .77-.132 1.342-.395 1.717-.263.374-.674.562-1.233.562-.553 0-.961-.183-1.227-.548-.265-.367-.403-.915-.412-1.643v-.878c0-.761.131-1.326.394-1.696.263-.369.676-.554 1.238-.554.557 0 .967.179 1.23.537.263.355.398.905.405 1.649v.854zm-.658-.9c0-.557-.078-.962-.234-1.216-.157-.256-.405-.384-.743-.384-.337 0-.582.127-.736.381-.154.253-.234.643-.239 1.169v1.053c0 .559.081.973.242 1.241.164.265.41.398.74.398.324 0 .565-.126.721-.377.159-.251.242-.647.249-1.188v-1.077zm5.86-.195h-1.775v3.302h-.661v-3.846h2.436v.544zm3.921 2.837c.235 0 .44-.071.615-.214.176-.142.273-.32.292-.533h.622c-.012.221-.088.43-.228.629-.139.199-.327.358-.561.477-.233.118-.479.178-.74.178-.524 0-.941-.175-1.251-.523-.308-.351-.463-.83-.463-1.436v-.111c0-.374.069-.707.207-.999.137-.291.334-.518.59-.679.258-.161.563-.242.914-.242.431 0 .789.13 1.073.388.287.258.44.594.459 1.006h-.622c-.019-.249-.114-.453-.285-.611-.168-.162-.376-.242-.625-.242-.335 0-.594.121-.779.362-.183.24-.274.587-.274 1.042v.125c0 .443.091.784.274 1.024.183.239.443.359.782.359zm3.527-.498l.896-2.883h.704l-1.547 4.44c-.239.64-.619.96-1.141.96l-.124-.01-.246-.047v-.533l.178.014c.223 0 .396-.045.519-.135.126-.09.229-.255.31-.494l.145-.391-1.372-3.804h.718l.96 2.883zm3.481-1.479l.853-1.404h.768l-1.258 1.902 1.297 1.944h-.761l-.888-1.439-.889 1.439h-.765l1.298-1.944-1.259-1.902h.761l.843 1.404zm2.076.483c0-.376.074-.715.221-1.016.149-.301.355-.534.618-.697.266-.164.568-.246.907-.246.524 0 .947.182 1.269.544.325.363.487.845.487 1.447v.047c0 .374-.072.711-.217 1.009-.142.297-.347.528-.615.694-.265.166-.571.249-.917.249-.521 0-.944-.182-1.269-.544-.323-.363-.484-.843-.484-1.44v-.047zm.662.079c0 .426.098.769.295 1.027.199.259.464.388.796.388.334 0 .6-.131.796-.391.197-.263.296-.631.296-1.103 0-.421-.101-.763-.303-1.024-.199-.263-.464-.394-.796-.394-.325 0-.587.129-.786.387-.199.259-.298.629-.298 1.11zm6.154-1.966h.658v3.846h-.658v-2.805l-1.774 2.805h-.658v-3.846h.658v2.808l1.774-2.808zm.178-1.401c0 .286-.099.518-.295.693-.195.173-.451.26-.768.26-.318 0-.575-.088-.772-.264-.197-.175-.295-.405-.295-.689h.537c0 .166.045.296.135.391.09.092.222.138.395.138.166 0 .295-.046.387-.138.095-.093.142-.223.142-.391h.534zm-110.307 13.608h-.48v1.639h-.661v-3.846h.661v1.628h.43l1.294-1.628h.796l-1.522 1.848 1.65 1.998h-.835l-1.333-1.639zm5.984-.241c0 .585-.134 1.057-.402 1.415-.268.358-.63.537-1.088.537-.467 0-.834-.149-1.102-.445v1.853h-.658v-5.326h.601l.032.426c.268-.332.64-.498 1.116-.498.462 0 .827.175 1.095.523.27.348.405.833.405 1.454v.061zm-.658-.075c0-.434-.093-.776-.277-1.028-.185-.251-.438-.376-.761-.376-.398 0-.697.176-.896.529v1.839c.197.35.498.526.903.526.315 0 .565-.125.75-.374.187-.251.281-.623.281-1.116zm2.713.992l.896-2.883h.704l-1.547 4.44c-.239.64-.62.96-1.141.96l-.124-.01-.245-.047v-.533l.178.014c.223 0 .396-.045.519-.135.126-.09.229-.255.309-.494l.146-.391-1.372-3.804h.718l.96 2.883zm5.337.963h-.658v-3.302h-1.771v3.302h-.661v-3.846h3.09v3.846zm1.774-2.52h.999c.436.004.781.118 1.035.341.254.223.38.525.38.907 0 .384-.13.692-.391.924-.261.232-.611.348-1.052.348h-1.628v-3.846h.658v1.326zm3.787 2.52h-.661v-3.846h.661v3.846zm-3.787-1.983v1.447h.978c.247 0 .437-.063.572-.189.135-.128.203-.302.203-.522 0-.214-.066-.388-.199-.523-.13-.138-.314-.209-.551-.213h-1.003zm6.709 1.447l.228-.281c.256-.332.402-.83.437-1.494l.06-1.535h2.478v3.31h.494v1.667h-.658v-1.131h-2.684v1.131h-.658l.004-1.667h.299zm.779 0h1.767v-2.702h-1.184l-.039.917c-.04.765-.222 1.36-.544 1.785zm3.474-1.423c0-.376.074-.715.22-1.016.149-.301.356-.534.619-.697.265-.164.568-.246.907-.246.524 0 .947.182 1.269.544.325.363.487.845.487 1.447v.047c0 .374-.072.711-.217 1.009-.142.297-.347.528-.615.694-.266.166-.571.249-.917.249-.521 0-.945-.182-1.269-.544-.322-.363-.483-.843-.483-1.44v-.047zm.661.079c0 .426.098.769.295 1.027.199.259.465.388.796.388.334 0 .6-.131.796-.391.197-.263.295-.631.295-1.103 0-.421-.101-.763-.302-1.024-.199-.263-.465-.394-.796-.394-.325 0-.587.129-.786.387-.199.259-.299.629-.299 1.11zm6.762-1.966v3.846h-.661v-3.302h-1.308l-.078 1.439c-.043.662-.154 1.135-.334 1.419-.178.284-.461.433-.85.444h-.263v-.579l.188-.014c.213-.024.366-.147.459-.37.092-.223.152-.635.178-1.237l.071-1.646h2.599zm3.541.544h-1.774v3.302h-.661v-3.846h2.436v.544zm.327 1.343c0-.376.073-.715.221-1.016.149-.301.356-.534.619-.697.266-.164.568-.246.907-.246.524 0 .947.182 1.269.544.325.363.487.845.487 1.447v.047c0 .374-.072.711-.217 1.009-.142.297-.347.528-.615.694-.265.166-.571.249-.917.249-.521 0-.945-.182-1.269-.544-.322-.363-.484-.843-.484-1.44v-.047zm.661.079c0 .426.098.769.295 1.027.199.259.465.388.796.388.334 0 .6-.131.796-.391.197-.263.295-.631.295-1.103 0-.421-.101-.763-.302-1.024-.199-.263-.465-.394-.796-.394-.325 0-.587.129-.786.387-.199.259-.299.629-.299 1.11zm6.154-1.966h.658v3.846h-.658v-2.805l-1.774 2.805h-.658v-3.846h.658v2.808l1.774-2.808zm.178-1.401c0 .286-.098.518-.295.693-.194.173-.45.26-.768.26s-.575-.088-.772-.264c-.197-.175-.295-.405-.295-.689h.537c0 .166.045.296.135.391.09.092.222.138.395.138.166 0 .295-.046.388-.138.095-.093.142-.223.142-.391h.533zm3.403 5.247v-3.846h1.5c.512 0 .904.09 1.177.27.275.178.412.439.412.785 0 .178-.053.339-.16.484-.107.142-.264.251-.473.327.232.055.418.161.558.32.142.159.213.349.213.569 0 .353-.13.623-.391.811-.258.187-.625.28-1.099.28h-1.739zm.658-1.688v1.159h1.088c.275 0 .48-.051.615-.153.138-.102.206-.245.206-.43 0-.384-.282-.576-.846-.576h-1.063zm0-.527h.85c.616 0 .924-.18.924-.54 0-.36-.291-.546-.875-.558h-.9v1.098zm5.817 2.215c-.038-.075-.069-.21-.092-.405-.306.318-.671.477-1.095.477-.379 0-.691-.107-.935-.32-.242-.216-.363-.489-.363-.818 0-.401.152-.711.455-.932.306-.222.735-.334 1.287-.334h.64v-.302c0-.23-.069-.413-.206-.548-.137-.137-.34-.206-.608-.206-.235 0-.431.059-.59.178-.159.118-.238.262-.238.43h-.661c0-.192.068-.377.203-.554.138-.181.322-.323.555-.427.235-.104.492-.157.772-.157.443 0 .79.112 1.042.335.251.22.382.525.391.913v1.771c0 .353.045.634.135.843v.056h-.69zm-1.091-.501c.206 0 .402-.053.587-.16.185-.106.319-.245.402-.416v-.789h-.516c-.806 0-1.209.236-1.209.707 0 .207.069.368.206.484.138.116.314.174.53.174zm5.927-1.379c0 .585-.134 1.057-.402 1.415-.268.358-.63.537-1.088.537-.467 0-.834-.149-1.102-.445v1.853h-.658v-5.326h.601l.032.426c.268-.332.64-.498 1.116-.498.462 0 .827.175 1.095.523.27.348.405.833.405 1.454v.061zm-.658-.075c0-.434-.092-.776-.277-1.028-.185-.251-.439-.376-.761-.376-.398 0-.697.176-.896.529v1.839c.197.35.498.526.903.526.315 0 .565-.125.75-.374.187-.251.281-.623.281-1.116zm2.695.316h-.48v1.639h-.661v-3.846h.661v1.628h.43l1.294-1.628h.796l-1.522 1.848 1.65 1.998h-.836l-1.333-1.639zm5.223-2.207h.658v3.846h-.658v-2.805l-1.774 2.805h-.658v-3.846h.658v2.808l1.774-2.808zm3.232 1.781c0 .528-.07 1.036-.21 1.521-.137.484-.349.931-.636 1.341-.285.41-.583.701-.896.875l-.139-.402c.365-.28.658-.714.878-1.302.223-.59.337-1.244.342-1.962v-.114c0-.498-.053-.96-.157-1.386-.104-.43-.25-.813-.437-1.152-.185-.339-.394-.604-.626-.793l.139-.402c.313.173.61.462.892.867.285.406.497.853.637 1.341.142.488.213 1.011.213 1.568zm-66.888 14.423c-.064.547-.267.971-.608 1.269-.339.296-.79.445-1.355.445-.612 0-1.102-.22-1.472-.658-.367-.439-.551-1.025-.551-1.76v-.498c0-.481.085-.904.256-1.269.173-.365.417-.645.732-.839.315-.197.68-.295 1.095-.295.55 0 .991.154 1.323.462.332.306.525.73.58 1.273h-.686c-.059-.413-.189-.711-.388-.896-.197-.185-.473-.278-.828-.278-.436 0-.779.162-1.028.484-.246.322-.37.781-.37 1.376v.501c0 .562.117 1.009.352 1.341.235.331.563.497.985.497.379 0 .67-.085.871-.256.204-.173.339-.472.405-.899h.686zm2.09.679l.896-2.883h.704l-1.547 4.44c-.239.64-.62.96-1.141.96l-.125-.01-.245-.047v-.533l.178.014c.223 0 .396-.045.519-.135.126-.09.229-.255.309-.494l.146-.391-1.372-3.804h.718l.96 2.883zm3.481-1.479l.853-1.404h.768l-1.259 1.902 1.298 1.944h-.761l-.889-1.439-.889 1.439h-.764l1.298-1.944-1.259-1.902h.761l.843 1.404zm2.076.483c0-.376.074-.715.221-1.016.149-.301.355-.534.619-.697.266-.164.568-.246.907-.246.524 0 .947.182 1.269.544.325.363.487.845.487 1.447v.047c0 .374-.072.711-.217 1.009-.142.297-.347.528-.615.694-.265.166-.571.249-.917.249-.521 0-.944-.182-1.269-.544-.322-.363-.484-.843-.484-1.44v-.047zm.661.079c0 .426.098.769.295 1.027.199.259.465.388.796.388.334 0 .6-.131.797-.391.197-.263.295-.631.295-1.103 0-.421-.101-.763-.302-1.024-.199-.263-.465-.394-.796-.394-.325 0-.587.129-.786.387-.199.259-.299.629-.299 1.11zm3.523.028c0-.642.125-1.147.373-1.514.249-.368.59-.552 1.024-.552.202 0 .378.035.53.104v-1.647h.658v1.668c.166-.083.36-.125.583-.125.436 0 .779.184 1.027.552.249.367.373.897.373 1.589 0 .566-.124 1.017-.373 1.351-.246.334-.587.501-1.02.501-.23 0-.427-.038-.59-.114v1.519h-.658v-1.508c-.157.069-.335.103-.537.103-.431 0-.771-.167-1.02-.501-.247-.334-.37-.792-.37-1.373v-.053zm3.911 0c0-.483-.083-.858-.249-1.123-.166-.268-.395-.402-.686-.402-.149 0-.28.024-.391.071v2.784c.107.04.239.06.398.06.294 0 .521-.114.683-.341.163-.228.245-.577.245-1.049zm-3.253.075c0 .431.077.758.231.981.154.223.376.334.665.334.137 0 .262-.021.373-.064v-2.791c-.1-.04-.222-.06-.366-.06-.289 0-.512.129-.668.387-.157.259-.235.663-.235 1.213zm8.017-.103c0 .585-.134 1.057-.402 1.415-.268.358-.631.537-1.088.537-.467 0-.834-.149-1.102-.445v1.853h-.658v-5.326h.601l.032.426c.268-.332.64-.498 1.116-.498.462 0 .827.175 1.095.523.27.348.405.833.405 1.454v.061zm-.658-.075c0-.434-.093-.776-.277-1.028-.185-.251-.438-.376-.761-.376-.398 0-.697.176-.896.529v1.839c.197.35.498.526.903.526.315 0 .565-.125.75-.374.187-.251.281-.623.281-1.116zm2.713.992l.896-2.883h.704l-1.547 4.44c-.239.64-.62.96-1.141.96l-.124-.01-.245-.047v-.533l.178.014c.223 0 .396-.045.519-.135.126-.09.229-.255.309-.494l.146-.391-1.372-3.804h.718l.96 2.883zm3.388-.676h-.48v1.639h-.661v-3.846h.661v1.628h.43l1.294-1.628h.796l-1.522 1.848 1.65 1.998h-.836l-1.333-1.639zm5.593-1.674h-1.291v3.313h-.658v-3.313h-1.266v-.533h3.214v.533zm1.358.793h.999c.436.004.781.118 1.035.341.254.223.38.525.38.907 0 .384-.13.692-.391.924-.261.232-.612.348-1.052.348h-1.628v-3.846h.658v1.326zm3.786 2.52h-.661v-3.846h.661v3.846zm-3.786-1.983v1.447h.978c.246 0 .437-.063.572-.189.135-.128.203-.302.203-.522 0-.214-.066-.388-.199-.523-.13-.138-.314-.209-.551-.213h-1.003zm6.716-.118c0-.535.071-1.05.213-1.543.145-.493.359-.941.644-1.344.284-.403.579-.687.885-.853l.135.434c-.346.265-.63.67-.853 1.216-.22.545-.341 1.155-.363 1.831l-.004.302c0 .915.167 1.709.501 2.382.201.403.441.718.718.946l-.135.402c-.315-.176-.616-.47-.903-.882-.559-.806-.839-1.77-.839-2.891zm3.961-.224h-.629v2.325h-.683v-5.176h.683v2.282h.533l1.81-2.282h.85l-1.977 2.51 2.123 2.666h-.836l-1.874-2.325zm4.348 1.362l.896-2.883h.704l-1.547 4.44c-.239.64-.62.96-1.141.96l-.124-.01-.245-.047v-.533l.178.014c.223 0 .396-.045.519-.135.126-.09.229-.255.309-.494l.146-.391-1.372-3.804h.718l.96 2.883zm5.44-.917c0 .585-.134 1.057-.402 1.415-.268.358-.63.537-1.088.537-.467 0-.834-.149-1.102-.445v1.853h-.658v-5.326h.601l.032.426c.268-.332.64-.498 1.116-.498.462 0 .827.175 1.095.523.27.348.405.833.405 1.454v.061zm-.658-.075c0-.434-.092-.776-.277-1.028-.185-.251-.439-.376-.761-.376-.398 0-.697.176-.896.529v1.839c.197.35.498.526.903.526.315 0 .565-.125.75-.374.187-.251.281-.623.281-1.116zm3.872 1.955c-.038-.075-.069-.21-.093-.405-.306.318-.671.477-1.095.477-.379 0-.691-.107-.935-.32-.242-.216-.363-.489-.363-.818 0-.401.152-.711.455-.932.306-.222.735-.334 1.287-.334h.64v-.302c0-.23-.069-.413-.206-.548-.138-.137-.34-.206-.608-.206-.235 0-.431.059-.59.178-.159.118-.238.262-.238.43h-.661c0-.192.067-.377.203-.554.138-.181.322-.323.555-.427.235-.104.492-.157.772-.157.443 0 .79.112 1.042.335.251.22.382.525.391.913v1.771c0 .353.045.634.135.843v.056h-.69zm-1.091-.501c.206 0 .402-.053.587-.16.185-.106.319-.245.402-.416v-.789h-.516c-.806 0-1.209.236-1.209.707 0 .207.069.368.206.484.138.116.314.174.53.174zm5.163-2.801h-1.774v3.302h-.661v-3.846h2.436v.544zm2.947 3.302c-.038-.075-.069-.21-.092-.405-.306.318-.671.477-1.095.477-.38 0-.691-.107-.935-.32-.242-.216-.363-.489-.363-.818 0-.401.152-.711.455-.932.306-.222.735-.334 1.287-.334h.64v-.302c0-.23-.069-.413-.206-.548-.138-.137-.34-.206-.608-.206-.235 0-.432.059-.59.178-.159.118-.239.262-.239.43h-.661c0-.192.068-.377.203-.554.137-.181.322-.323.554-.427.235-.104.492-.157.772-.157.443 0 .79.112 1.042.335.251.22.381.525.391.913v1.771c0 .353.045.634.135.843v.056h-.69zm-1.091-.501c.206 0 .401-.053.586-.16.185-.106.319-.245.402-.416v-.789h-.515c-.806 0-1.209.236-1.209.707 0 .207.068.368.206.484.137.116.314.174.53.174zm2.656 1.533l-.374-.256c.223-.311.339-.631.349-.96v-.594h.643v.515c0 .24-.059.479-.178.719-.116.239-.263.431-.44.576zm7.11-6.208v5.176h-.686v-2.143c-.249.071-.475.12-.679.149-.204.026-.436.039-.697.039-.59 0-1.028-.128-1.315-.384-.287-.256-.434-.648-.441-1.177v-1.66h.686v1.642c.002.361.084.62.245.779.164.159.439.238.825.238.451 0 .909-.064 1.376-.192v-2.467h.686zm2.727 5.248c-.521 0-.945-.171-1.272-.512-.328-.344-.491-.803-.491-1.376v-.121c0-.382.072-.722.217-1.021.147-.301.351-.535.611-.704.263-.17.548-.256.854-.256.5 0 .888.165 1.166.495.277.329.416.801.416 1.415v.273h-2.606c.009.38.119.687.33.921.214.233.484.349.811.349.232 0 .429-.048.59-.142.161-.095.302-.221.423-.377l.402.313c-.322.495-.806.743-1.451.743zm-.081-3.449c-.266 0-.489.097-.669.291-.18.192-.291.463-.334.811h1.927v-.05c-.019-.334-.109-.592-.27-.775-.161-.185-.379-.277-.654-.277zm5.596 1.497c0 .585-.134 1.057-.402 1.415-.268.358-.63.537-1.088.537-.467 0-.834-.149-1.102-.445v1.853h-.658v-5.326h.601l.032.426c.268-.332.64-.498 1.116-.498.463 0 .828.175 1.095.523.271.348.406.833.406 1.454v.061zm-.658-.075c0-.434-.092-.776-.277-1.028-.185-.251-.439-.376-.761-.376-.398 0-.697.176-.896.529v1.839c.197.35.498.526.903.526.315 0 .565-.125.75-.374.187-.251.281-.623.281-1.116zm4.64 1.955h-.658v-1.642h-1.767v1.642h-.661v-3.846h.661v1.667h1.767v-1.667h.658v3.846zm.885-1.959c0-.376.074-.715.221-1.016.149-.301.355-.534.618-.697.266-.164.568-.246.907-.246.524 0 .947.182 1.269.544.325.363.487.845.487 1.447v.047c0 .374-.072.711-.217 1.009-.142.297-.347.528-.615.694-.265.166-.571.249-.917.249-.522 0-.945-.182-1.269-.544-.323-.363-.484-.843-.484-1.44v-.047zm.661.079c0 .426.099.769.296 1.027.199.259.464.388.796.388.334 0 .6-.131.796-.391.197-.263.295-.631.295-1.103 0-.421-.1-.763-.302-1.024-.199-.263-.464-.394-.796-.394-.325 0-.587.129-.786.387-.199.259-.299.629-.299 1.11zm5.209 1.415c.235 0 .44-.071.615-.214.176-.142.273-.32.292-.533h.622c-.012.221-.088.43-.228.629-.139.199-.327.358-.561.477-.233.118-.479.178-.74.178-.524 0-.941-.175-1.251-.523-.309-.351-.463-.83-.463-1.436v-.111c0-.374.069-.707.207-.999.137-.291.334-.518.59-.679.258-.161.563-.242.914-.242.431 0 .789.13 1.073.388.287.258.44.594.459 1.006h-.622c-.019-.249-.114-.453-.285-.611-.168-.162-.377-.242-.625-.242-.335 0-.594.121-.779.362-.183.24-.274.587-.274 1.042v.125c0 .443.091.784.274 1.024.182.239.443.359.782.359zm5.422-3.381v3.846h-.661v-3.302h-1.309l-.078 1.439c-.042.662-.154 1.135-.334 1.419-.178.284-.461.433-.85.444h-.263v-.579l.189-.014c.213-.024.366-.147.458-.37.093-.223.152-.635.178-1.237l.071-1.646h2.599zm3.545 0h.658v3.846h-.658v-2.805l-1.774 2.805h-.658v-3.846h.658v2.808l1.774-2.808zm1.774 3.846v-3.846h1.5c.512 0 .905.09 1.177.27.275.178.413.439.413.785 0 .178-.054.339-.16.484-.107.142-.265.251-.473.327.232.055.418.161.558.32.142.159.213.349.213.569 0 .353-.13.623-.391.811-.258.187-.624.28-1.098.28h-1.739zm.658-1.688v1.159h1.088c.275 0 .48-.051.615-.153.137-.102.206-.245.206-.43 0-.384-.282-.576-.846-.576h-1.063zm0-.527h.849c.617 0 .925-.18.925-.54 0-.36-.292-.546-.875-.558h-.899v1.098zm3.42 3.247l-.373-.256c.223-.311.339-.631.348-.96v-.594h.644v.515c0 .24-.06.479-.178.719-.116.239-.263.431-.441.576zm-107.323 4.311h.11c.391.002.748.094 1.07.274.322.18.573.429.75.746.18.316.27.669.27 1.06 0 .393-.09.75-.27 1.07-.18.32-.429.57-.747.75-.318.178-.671.269-1.059.274h-.124v.697h-.661v-.697h-.099c-.396 0-.756-.09-1.081-.27-.322-.18-.574-.429-.754-.747-.178-.318-.267-.674-.267-1.07s.089-.753.267-1.07c.18-.318.431-.567.754-.747.325-.18.685-.27 1.081-.27h.099v-.733h.661v.733zm-.761.537c-.446 0-.799.137-1.059.412-.258.273-.388.652-.388 1.138 0 .488.129.869.388 1.141.258.27.614.406 1.067.406h.092v-3.097h-.099zm.761 0v3.097h.099c.453 0 .806-.139 1.059-.416.256-.28.384-.659.384-1.138 0-.474-.128-.85-.384-1.127-.254-.278-.611-.416-1.074-.416h-.085zm5.447.274h.658v3.846h-.658v-2.805l-1.774 2.805h-.658v-3.846h.658v2.808l1.774-2.808zm4.857 3.846h-.658v-1.642h-1.767v1.642h-.661v-3.846h.661v1.667h1.767v-1.667h.658v3.846zm3.548-3.846h.658v3.846h-.658v-2.805l-1.774 2.805h-.658v-3.846h.658v2.808l1.774-2.808zm2.912 2.207h-.48v1.639h-.661v-3.846h.661v1.628h.43l1.294-1.628h.796l-1.522 1.848 1.65 1.998h-.835l-1.333-1.639zm5.223-2.207h.658v3.846h-.658v-2.805l-1.774 2.805h-.658v-3.846h.658v2.808l1.774-2.808zm3.232 1.781c0 .528-.07 1.036-.21 1.521-.137.484-.35.931-.636 1.341-.284.41-.583.701-.896.875l-.139-.402c.365-.28.658-.714.878-1.302.223-.59.337-1.244.341-1.962v-.114c0-.498-.052-.96-.156-1.386-.104-.43-.25-.813-.437-1.152-.185-.339-.394-.604-.626-.793l.139-.402c.313.173.61.462.892.867.284.406.497.853.636 1.341.142.488.213 1.011.213 1.568zm2.795-.036c0-.535.071-1.05.213-1.543.145-.493.359-.941.644-1.344.284-.403.58-.687.885-.853l.135.434c-.346.265-.63.67-.853 1.216-.22.545-.341 1.155-.363 1.831l-.004.302c0 .915.167 1.709.501 2.382.201.403.441.718.718.946l-.135.402c-.315-.176-.616-.47-.903-.882-.559-.806-.839-1.77-.839-2.891zm3.403-.807h.494c.311-.005.555-.086.732-.245.178-.159.267-.373.267-.644 0-.606-.302-.91-.907-.91-.284 0-.512.082-.683.245-.168.162-.252.376-.252.644h-.658c0-.41.149-.75.448-1.02.301-.273.683-.409 1.145-.409.488 0 .871.129 1.148.387.277.259.416.618.416 1.078 0 .225-.073.443-.22.654-.145.211-.343.368-.594.473.284.09.504.239.658.448.156.208.235.463.235.764 0 .465-.152.833-.455 1.106-.303.272-.698.409-1.184.409s-.882-.132-1.188-.395c-.303-.263-.455-.61-.455-1.042h.661c0 .273.089.491.267.654.178.164.416.246.715.246.318 0 .561-.083.729-.249.168-.166.252-.404.252-.715 0-.301-.092-.532-.277-.693-.185-.161-.452-.244-.8-.249h-.494v-.537zm6.378.701c0 .77-.132 1.342-.395 1.717-.263.374-.674.562-1.234.562-.552 0-.961-.183-1.227-.548-.265-.367-.403-.915-.412-1.643v-.878c0-.761.131-1.326.395-1.696.263-.369.676-.554 1.237-.554.557 0 .967.179 1.23.537.263.355.398.905.405 1.649v.854zm-.658-.9c0-.557-.078-.962-.235-1.216-.156-.256-.404-.384-.743-.384-.337 0-.582.127-.736.381-.154.253-.233.643-.238 1.169v1.053c0 .559.081.973.242 1.241.164.265.41.398.74.398.325 0 .565-.126.722-.377.159-.251.242-.647.249-1.188v-1.077zm5.859-.195h-1.774v3.302h-.661v-3.846h2.436v.544zm2.091 1.237c0 .528-.07 1.036-.21 1.521-.137.484-.35.931-.636 1.341-.284.41-.583.701-.896.875l-.139-.402c.365-.28.658-.714.878-1.302.223-.59.337-1.244.341-1.962v-.114c0-.498-.052-.96-.156-1.386-.104-.43-.25-.813-.437-1.152-.185-.339-.394-.604-.626-.793l.139-.402c.313.173.61.462.892.867.284.406.497.853.636 1.341.142.488.213 1.011.213 1.568z" fill="#0A0A0A"/><circle cx="28.784" cy="194.848" r="1.3" fill="#85B921"/><circle cx="28.784" cy="219.813" r="1.3" fill="#85B921"/><rect x="19.681" y="292.367" width="145.629" height="166.954" rx="15.603" fill="#fff" filter="url(#f)"/><path d="M149.708 292.367c8.618 0 15.604 6.986 15.604 15.603v7.802h-145.63v-7.802c0-8.617 6.986-15.603 15.603-15.603h114.423z" fill="#CDB7AA"/><path d="M80.178 306.609h-.896v-4.452h-2.279v4.452h-.896v-5.177h4.071v5.177zm2.698.071c-.547 0-.992-.172-1.333-.516-.339-.346-.508-.806-.508-1.379v-.107c0-.384.073-.727.221-1.028.149-.303.358-.539.626-.707.268-.168.567-.253.896-.253.524 0 .928.168 1.212.502.287.334.43.807.43 1.418v.349h-2.514c.026.317.132.569.316.754.187.184.422.277.704.277.396 0 .718-.16.967-.48l.466.444c-.154.23-.36.409-.619.537-.256.126-.544.189-.864.189zm-.103-3.296c-.237 0-.429.083-.576.249-.145.166-.237.397-.277.693h1.646v-.064c-.019-.289-.096-.507-.231-.654-.135-.15-.322-.224-.562-.224zm5.689 1.34c0 .595-.135 1.07-.405 1.426-.27.353-.633.53-1.088.53-.422 0-.76-.139-1.013-.416v1.824h-.864v-5.326h.796l.035.391c.254-.308.599-.463 1.035-.463.469 0 .837.176 1.102.527.268.348.402.833.402 1.454v.053zm-.86-.075c0-.383-.077-.688-.231-.913-.152-.225-.37-.338-.654-.338-.353 0-.607.146-.761.437v1.707c.156.299.412.448.768.448.275 0 .489-.11.644-.331.156-.223.235-.559.235-1.01zm3.289 2.031c-.547 0-.992-.172-1.333-.516-.339-.346-.508-.806-.508-1.379v-.107c0-.384.074-.727.221-1.028.149-.303.358-.539.626-.707.268-.168.566-.253.896-.253.524 0 .928.168 1.212.502.287.334.43.807.43 1.418v.349h-2.514c.026.317.132.569.316.754.187.184.422.277.704.277.396 0 .718-.16.967-.48l.466.444c-.154.23-.36.409-.619.537-.256.126-.544.189-.864.189zm-.103-3.296c-.237 0-.429.083-.576.249-.144.166-.237.397-.277.693h1.646v-.064c-.019-.289-.096-.507-.231-.654-.135-.15-.322-.224-.562-.224zm3.687 1.703h-.437v1.522h-.864v-3.847h.864v1.536h.38l1.063-1.536h1.067l-1.39 1.841 1.508 2.006h-1.124l-1.067-1.522zm4.011.284l.782-2.609h.921l-1.529 4.43c-.235.647-.633.97-1.195.97-.126 0-.264-.021-.416-.064v-.668l.163.01c.218 0 .382-.04.491-.12.111-.079.199-.211.263-.399l.124-.33-1.351-3.829h.931l.814 2.609zm3.733.619c.216 0 .395-.063.537-.189.142-.125.218-.28.227-.465h.815c-.01.239-.085.463-.224.672-.14.206-.33.369-.569.49-.24.121-.498.182-.775.182-.538 0-.965-.175-1.28-.523-.316-.348-.473-.83-.473-1.444v-.088c0-.586.156-1.054.469-1.405.313-.353.74-.53 1.28-.53.458 0 .83.134 1.116.402.29.266.441.615.456 1.049h-.815c-.009-.22-.085-.402-.227-.544-.14-.142-.319-.213-.537-.213-.28 0-.495.102-.647.306-.152.201-.229.508-.231.92v.139c0 .417.074.729.224.935.151.204.37.306.654.306zm6.329.619h-.861v-4.157l-1.269.434v-.729l2.019-.743h.111v5.195z" fill="#fff"/><path d="M31.002 340.375v-2.21h-1.146l-1.142 2.21h-1.101l1.321-2.515c-.688-.325-1.032-.857-1.032-1.597 0-.566.186-1.006.557-1.32.374-.317.894-.479 1.56-.484h2.011v5.916h-1.028zm-2.076-4.067c0 .333.093.593.28.78.187.187.467.28.841.28h.955v-2.08h-.955c-.379 0-.661.091-.845.272-.184.182-.276.431-.276.748zm7.16.467h-1.91v3.6h-.983v-4.396h2.893v.796zm.293 1.361c0-.43.085-.818.256-1.162.171-.346.41-.612.719-.796.309-.187.664-.281 1.065-.281.593 0 1.074.191 1.443.573.371.382.572.889.601 1.52l.004.232c0 .433-.084.82-.252 1.162-.165.341-.404.605-.715.792-.309.187-.666.281-1.073.281-.62 0-1.117-.206-1.491-.618-.371-.415-.557-.966-.557-1.654v-.049zm.987.086c0 .452.093.807.28 1.064.187.255.447.382.78.382s.592-.13.776-.39c.187-.26.28-.641.28-1.142 0-.444-.096-.796-.288-1.056-.19-.26-.448-.39-.776-.39-.322 0-.578.128-.768.386-.19.254-.284.636-.284 1.146zm3.661 1.365c.274-.306.456-.596.549-.87.095-.276.152-.628.171-1.056l.057-1.682h3.052v3.608h.609v2.097h-.983v-1.309h-2.82v1.309h-1l.004-2.097h.362zm1.158 0h1.686v-2.759h-1.109l-.029.841c-.038.807-.221 1.447-.548 1.918zm5.047-2.21h.967c.36 0 .675.062.943.186.268.125.471.3.609.525.141.224.211.486.211.784 0 .452-.16.815-.48 1.089-.32.273-.745.412-1.276.414h-1.963v-4.396h.987v1.398zm4.449 2.998h-.987v-4.396h.987v4.396zm-4.449-2.206v1.418h.963c.241 0 .431-.06.569-.179.141-.122.211-.294.211-.516 0-.222-.069-.397-.207-.524-.136-.13-.32-.196-.553-.199h-.983zm10.451-2.19h.983v4.396h-.983v-2.933l-1.723 2.933h-.983v-4.396h.983v2.933l1.723-2.933zm3.921 2.157c0-.43.085-.818.256-1.162.171-.346.41-.612.719-.796.309-.187.664-.281 1.065-.281.593 0 1.074.191 1.443.573.371.382.571.889.601 1.52l.004.232c0 .433-.084.82-.252 1.162-.165.341-.404.605-.715.792-.309.187-.666.281-1.073.281-.62 0-1.117-.206-1.491-.618-.371-.415-.557-.966-.557-1.654v-.049zm.987.086c0 .452.093.807.28 1.064.187.255.447.382.78.382s.592-.13.776-.39c.187-.26.28-.641.28-1.142 0-.444-.096-.796-.288-1.056-.19-.26-.448-.39-.776-.39-.322 0-.578.128-.768.386-.19.254-.284.636-.284 1.146zm7.785 0c0 .68-.154 1.223-.463 1.629-.309.404-.723.606-1.243.606-.482 0-.868-.159-1.158-.476v2.085h-.987v-6.087h.91l.041.447c.29-.352.684-.529 1.182-.529.536 0 .956.201 1.26.602.306.398.459.952.459 1.662v.061zm-.983-.086c0-.438-.088-.787-.264-1.044-.173-.257-.423-.386-.748-.386-.404 0-.694.167-.87.5v1.95c.179.342.471.512.878.512.314 0 .559-.126.736-.378.179-.254.268-.639.268-1.154zm3.759 2.321c-.626 0-1.134-.197-1.524-.59-.387-.395-.581-.921-.581-1.576v-.122c0-.439.084-.83.252-1.174.171-.347.409-.617.715-.809.306-.192.647-.289 1.024-.289.599 0 1.061.191 1.386.573.328.382.492.923.492 1.622v.398h-2.873c.03.363.15.65.362.861.214.212.482.317.804.317.452 0 .821-.183 1.105-.548l.532.508c-.176.262-.412.467-.707.613-.293.144-.622.216-.987.216zm-.118-3.767c-.271 0-.49.095-.658.284-.165.19-.271.454-.317.793h1.881v-.074c-.022-.33-.11-.579-.264-.747-.154-.171-.368-.256-.642-.256zm4.23.735l.837-1.446h1.097l-1.345 2.165 1.39 2.231h-1.089l-.878-1.503-.874 1.503h-1.097l1.39-2.231-1.341-2.165h1.089l.821 1.446zm5.351-1.446h.983v4.396h-.983v-2.933l-1.723 2.933h-.983v-4.396h.983v2.933l1.723-2.933z" fill="#0A0A0A"/><path d="M29.15 351.465h-.539v1.993h-.585v-4.437h.585v1.957h.457l1.551-1.957h.728l-1.694 2.152 1.819 2.285h-.716l-1.606-1.993zm4.806 1.993c-.032-.065-.059-.181-.079-.347-.262.272-.575.408-.939.408-.325 0-.592-.091-.802-.274-.207-.185-.311-.419-.311-.701 0-.343.13-.609.39-.798.262-.191.63-.287 1.103-.287h.549v-.259c0-.197-.059-.353-.177-.469-.118-.118-.291-.177-.521-.177-.201 0-.37.051-.506.152-.136.102-.204.225-.204.369h-.567c0-.164.058-.323.174-.475.118-.155.276-.277.475-.366.201-.089.422-.134.661-.134.38 0 .678.095.893.286.215.189.327.45.335.784v1.517c0 .303.039.544.116.722v.049h-.591zm-.936-.429c.177 0 .344-.046.503-.138.159-.091.273-.21.344-.356v-.677h-.442c-.691 0-1.036.202-1.036.607 0 .177.059.315.177.414.118.1.269.15.454.15zm4.998-2.868v3.297h-.567v-2.831h-1.121l-.067 1.234c-.037.567-.132.973-.286 1.216-.152.244-.395.371-.728.381h-.225v-.496l.161-.013c.183-.02.314-.126.393-.317.079-.191.13-.544.152-1.06l.061-1.411h2.228zm.756 1.618c0-.323.063-.613.189-.871.128-.259.305-.458.53-.598.227-.14.486-.21.777-.21.449 0 .812.155 1.088.466.278.311.417.724.417 1.241v.039c0 .321-.062.61-.186.866-.122.254-.298.452-.527.594-.227.142-.49.213-.786.213-.447 0-.81-.155-1.088-.466-.276-.311-.415-.722-.415-1.234v-.04zm.567.067c0 .366.084.659.253.881.171.221.398.332.683.332.286 0 .514-.112.683-.335.169-.226.253-.541.253-.945 0-.362-.086-.654-.259-.878-.171-.225-.398-.338-.683-.338-.278 0-.503.111-.673.332-.171.222-.256.539-.256.951zm5.927 0c0 .502-.115.906-.344 1.213-.23.307-.54.46-.932.46-.4 0-.715-.127-.945-.381v1.588h-.564v-4.565h.515l.027.366c.23-.285.549-.427.957-.427.396 0 .709.149.939.448.232.299.347.714.347 1.246v.052zm-.564-.064c0-.372-.079-.665-.238-.881-.159-.215-.376-.323-.652-.323-.341 0-.597.152-.768.454v1.576c.169.301.427.451.774.451.27 0 .485-.107.643-.32.16-.215.241-.534.241-.957zm3.416-1.621h.564v3.297h-.564v-2.404l-1.521 2.404h-.564v-3.297h.564v2.407l1.521-2.407zm3.602 0h.564v3.297h-.564v-2.404l-1.521 2.404h-.564v-3.297h.564v2.407l1.521-2.407zm.152-1.201c0 .246-.084.444-.253.594-.167.149-.386.223-.658.223s-.493-.075-.661-.226c-.169-.15-.253-.347-.253-.591h.46c0 .142.039.254.116.335.077.08.19.119.338.119.142 0 .253-.039.332-.119.081-.079.122-.191.122-.335h.457zm4.011 4.498h-.564v-1.408h-1.515v1.408h-.567v-3.297h.567v1.429h1.515v-1.429h.564v3.297zm.759-1.679c0-.323.063-.613.189-.871.128-.259.305-.458.53-.598.228-.14.487-.21.777-.21.449 0 .812.155 1.088.466.278.311.417.724.417 1.241v.039c0 .321-.062.61-.186.866-.122.254-.298.452-.527.594-.227.142-.49.213-.786.213-.447 0-.81-.155-1.088-.466-.276-.311-.415-.722-.415-1.234v-.04zm.567.067c0 .366.084.659.253.881.171.221.398.332.683.332.287 0 .514-.112.683-.335.169-.226.253-.541.253-.945 0-.362-.086-.654-.259-.878-.171-.225-.398-.338-.683-.338-.278 0-.503.111-.673.332-.171.222-.256.539-.256.951zm4.465 1.213c.201 0 .377-.061.527-.183.15-.122.234-.274.25-.457h.533c-.01.189-.075.369-.195.539-.12.171-.28.307-.482.409-.199.101-.41.152-.634.152-.449 0-.806-.149-1.073-.448-.264-.3-.396-.711-.396-1.231v-.094c0-.321.059-.607.177-.857s.287-.444.506-.582c.221-.138.483-.207.783-.207.37 0 .676.111.92.332.246.222.377.509.393.863h-.533c-.016-.214-.097-.389-.244-.525-.144-.138-.323-.207-.536-.207-.287 0-.509.104-.667.311-.156.205-.235.503-.235.893v.107c0 .379.078.672.235.877.156.205.38.308.67.308zm4.395-2.441h-1.106v2.84h-.564v-2.84h-1.085v-.457h2.755v.457zm1.164.68h.856c.374.004.669.101.887.292.217.191.326.45.326.777 0 .329-.112.593-.335.793-.224.199-.524.298-.902.298h-1.396v-3.297h.564v1.137zm0 .46v1.24h.838c.211 0 .375-.054.491-.161.116-.11.174-.259.174-.448 0-.183-.057-.333-.171-.448-.112-.118-.269-.179-.472-.183h-.859zm7.171 1.7h-2.907v-.405l1.536-1.707c.228-.258.384-.467.469-.627.087-.163.131-.331.131-.503 0-.232-.07-.422-.21-.57-.14-.148-.327-.223-.561-.223-.28 0-.499.081-.655.241-.154.159-.232.38-.232.664h-.564c0-.408.131-.738.393-.99.264-.252.617-.378 1.058-.378.412 0 .738.109.978.326.24.216.36.503.36.863 0 .436-.278.957-.835 1.56l-1.189 1.289h2.228v.46zm3.38-1.892c0 .66-.113 1.151-.338 1.472-.225.321-.578.481-1.058.481-.473 0-.824-.156-1.051-.469-.227-.315-.345-.784-.353-1.408v-.753c0-.652.113-1.136.338-1.453.225-.317.579-.476 1.06-.476.478 0 .829.154 1.055.46.225.305.341.776.347 1.414v.732zm-.564-.771c0-.478-.067-.825-.201-1.042-.134-.22-.346-.33-.637-.33-.288 0-.499.109-.631.326-.132.218-.2.552-.204 1.003v.902c0 .48.069.834.207 1.064.14.227.352.341.634.341.278 0 .485-.108.619-.323.136-.215.207-.555.213-1.018v-.923zm4.068.771c0 .66-.113 1.151-.338 1.472-.225.321-.578.481-1.058.481-.473 0-.824-.156-1.051-.469-.228-.315-.345-.784-.354-1.408v-.753c0-.652.113-1.136.338-1.453.225-.317.579-.476 1.061-.476.477 0 .829.154 1.054.46.226.305.341.776.347 1.414v.732zm-.564-.771c0-.478-.067-.825-.201-1.042-.134-.22-.346-.33-.637-.33-.288 0-.499.109-.631.326-.132.218-.2.552-.204 1.003v.902c0 .48.069.834.207 1.064.14.227.351.341.634.341.278 0 .485-.108.619-.323.136-.215.207-.555.213-1.018v-.923zm3.919 1.258h-.411v1.405h-.567v-3.297h.567v1.396h.369l1.109-1.396h.683l-1.304 1.585 1.414 1.712h-.716l-1.143-1.405zm3.37 0h-.411v1.405h-.567v-3.297h.567v1.396h.369l1.109-1.396h.683l-1.304 1.585 1.414 1.712h-.716l-1.143-1.405zm4.379 1.405c-.033-.065-.059-.181-.079-.347-.262.272-.575.408-.939.408-.325 0-.592-.091-.802-.274-.207-.185-.311-.419-.311-.701 0-.343.13-.609.39-.798.262-.191.63-.287 1.103-.287h.549v-.259c0-.197-.059-.353-.177-.469-.118-.118-.291-.177-.521-.177-.201 0-.37.051-.506.152-.136.102-.204.225-.204.369h-.567c0-.164.058-.323.174-.475.118-.155.276-.277.475-.366.201-.089.422-.134.661-.134.38 0 .678.095.893.286.215.189.327.45.335.784v1.517c0 .303.039.544.116.722v.049h-.591zm-.936-.429c.177 0 .344-.046.503-.138.159-.091.273-.21.344-.356v-.677h-.442c-.691 0-1.036.202-1.036.607 0 .177.059.315.177.414.118.1.269.15.454.15zm4.998-2.868v3.297h-.567v-2.831h-1.121l-.067 1.234c-.037.567-.132.973-.286 1.216-.152.244-.395.371-.728.381h-.225v-.496l.161-.013c.183-.02.314-.126.393-.317.079-.191.13-.544.152-1.06l.061-1.411h2.228z" fill="#85B921"/><g clip-path="url(#g)" filter="url(#h)"><path fill="#fff" d="M11.483 11.841h162.225v43.26h-162.225zM11.483 11.841h162.225v43.26h-162.225z"/><path fill-rule="evenodd" clip-rule="evenodd" d="M25.323 43.17l-3.684-3.391-3.717 3.373c-.166.149-.174.399-.019.558.155.159.416.167.581.018l.228-.207v2.635c0 .46.389.834.868.834h4.114c.48 0 .869-.373.869-.834v-2.592l.197.182c.166.149.426.141.581-.018.155-.159.147-.409-.019-.558zm-1.582-.366l-2.102-1.942-2.104 1.912v3.382l.046.044h4.114l.046-.044v-3.352z" fill="#3D4043"/><rect x="31.762" y="35.273" width="102.742" height="16.223" rx="8.111" fill="#F1F3F4"/><path d="M41.562 42.408h-.282v-.558c0-.77-.631-1.395-1.408-1.395-.777 0-1.408.625-1.408 1.395v.558h-.282c-.31 0-.563.251-.563.558v2.79c0 .307.253.558.563.558h3.38c.31 0 .563-.251.563-.558v-2.79c0-.307-.254-.558-.563-.558zm-2.535 0v-.558c0-.463.377-.837.845-.837.468 0 .845.374.845.837v.558h-1.69z" fill="#3D4043"/><path d="M50.11 43.709c0 .543-.124.981-.373 1.314-.249.332-.585.498-1.01.498-.434 0-.774-.137-1.023-.412v1.719h-.611v-4.944h.558l.03.396c.249-.308.594-.462 1.036-.462.429 0 .768.162 1.017.485.251.323.376.773.376 1.35v.056zm-.611-.069c0-.403-.086-.721-.257-.954-.172-.233-.407-.35-.706-.35-.37 0-.647.164-.832.492v1.706c.183.326.462.489.838.489.293 0 .525-.116.696-.347.174-.233.261-.579.261-1.036zm3.116-1.208l-.3-.023c-.4 0-.672.171-.815.512v2.535h-.611v-3.571h.594l.01.413c.2-.319.484-.479.852-.479.119 0 .209.015.271.046v.568zm.337 1.205c0-.35.068-.665.205-.944.139-.279.33-.495.574-.647.246-.152.527-.228.842-.228.486 0 .879.168 1.178.505.301.337.452.784.452 1.343v.043c0 .348-.067.66-.201.937-.132.275-.322.49-.571.644-.246.154-.53.231-.852.231-.484 0-.877-.168-1.178-.505-.299-.337-.449-.782-.449-1.337v-.043zm.614.073c0 .396.091.714.274.954.185.24.431.36.739.36.31 0 .557-.121.739-.363.183-.244.274-.585.274-1.023 0-.392-.093-.709-.281-.951-.185-.244-.431-.366-.739-.366-.301 0-.544.12-.729.36-.185.24-.277.583-.277 1.03zm3.607 1.746v-3.099h-.564v-.472h.564v-.304c0-.398.113-.708.34-.931.229-.222.551-.333.967-.333.246 0 .558.067.934.201l-.102.515c-.275-.11-.537-.165-.785-.165-.262 0-.451.059-.568.178-.114.117-.172.293-.172.528v.31h.729v.472h-.729v3.099h-.614zm2.545 0h-.614v-3.571h.614v3.571zm1.822-4.436v.865h.667v.472h-.667v2.215c0 .143.03.251.089.323.059.071.161.106.304.106l.29-.04v.495c-.161.044-.317.066-.469.066-.273 0-.479-.082-.617-.247-.139-.165-.208-.399-.208-.703v-2.215h-.65v-.472h.65v-.865h.611zm1.96.865l.02.449c.273-.343.629-.515 1.069-.515.755 0 1.135.426 1.142 1.277v2.36h-.611v-2.363c-.002-.257-.062-.448-.178-.571-.114-.123-.294-.185-.538-.185-.198 0-.372.053-.521.158-.15.106-.266.244-.35.416v2.545h-.611v-3.571h.578zm4.634 3.637c-.484 0-.878-.158-1.182-.475-.304-.319-.455-.745-.455-1.277v-.112c0-.354.067-.67.201-.947.136-.279.326-.497.568-.654.244-.158.508-.238.792-.238.464 0 .825.153 1.082.459.257.306.386.744.386 1.314v.254h-2.419c.009.352.111.637.307.855.198.216.449.324.752.324.216 0 .398-.044.548-.132.15-.088.281-.205.393-.35l.373.29c-.299.46-.748.69-1.347.69zm-.076-3.201c-.247 0-.453.09-.621.271-.167.178-.271.429-.31.753h1.789v-.046c-.018-.31-.101-.55-.251-.719-.15-.172-.352-.257-.607-.257zm4.258 2.188c0-.165-.063-.293-.188-.383-.123-.092-.34-.172-.65-.238-.308-.066-.553-.145-.736-.238-.18-.092-.315-.203-.403-.33-.086-.128-.129-.279-.129-.455 0-.293.123-.54.37-.743.249-.202.566-.304.951-.304.405 0 .733.105.984.314.253.209.38.476.38.802h-.614c0-.167-.072-.311-.215-.432-.141-.121-.319-.181-.535-.181-.222 0-.396.048-.521.145-.125.097-.188.223-.188.38 0 .147.058.258.175.333.117.075.327.146.63.215.306.068.553.15.743.244.189.095.329.209.419.343.092.132.139.294.139.485 0 .319-.128.575-.383.769-.255.191-.586.287-.993.287-.286 0-.539-.051-.759-.152-.22-.101-.393-.242-.518-.422-.123-.183-.185-.38-.185-.591h.611c.011.205.092.367.244.488.154.119.356.178.607.178.231 0 .416-.046.554-.139.141-.095.211-.22.211-.376zm3.485 0c0-.165-.063-.293-.188-.383-.123-.092-.34-.172-.65-.238-.308-.066-.553-.145-.736-.238-.18-.092-.315-.203-.403-.33-.086-.128-.129-.279-.129-.455 0-.293.123-.54.37-.743.249-.202.566-.304.95-.304.405 0 .733.105.984.314.253.209.379.476.379.802h-.614c0-.167-.072-.311-.215-.432-.141-.121-.319-.181-.535-.181-.222 0-.396.048-.521.145-.125.097-.188.223-.188.38 0 .147.058.258.175.333.117.075.327.146.63.215.306.068.553.15.743.244.189.095.329.209.419.343.092.132.139.294.139.485 0 .319-.128.575-.383.769-.255.191-.586.287-.993.287-.286 0-.539-.051-.759-.152-.22-.101-.393-.242-.518-.422-.123-.183-.185-.38-.185-.591h.611c.011.205.092.367.244.488.154.119.356.178.607.178.231 0 .416-.046.555-.139.141-.095.211-.22.211-.376zm3.98 1.446h-3.023v-.498h3.023v.498zm1.139-.498h-.611v-5.069h.611v5.069zm1.644 0h-.611v-3.571h.611v3.571zm-.66-4.518c0-.099.03-.183.089-.251.062-.068.152-.102.271-.102.119 0 .209.034.271.102.062.068.092.152.092.251s-.031.181-.092.248c-.062.066-.152.099-.271.099-.119 0-.209-.033-.271-.099-.059-.066-.089-.148-.089-.248zm1.941 4.518v-3.099h-.564v-.472h.564v-.366c0-.383.102-.679.307-.888.205-.209.494-.314.868-.314.141 0 .281.019.419.056l-.033.495-.33-.03c-.198 0-.351.058-.459.175-.108.114-.162.279-.162.495v.376h.762v.472h-.762v3.099h-.611zm3.452.066c-.484 0-.878-.158-1.182-.475-.304-.319-.455-.745-.455-1.277v-.112c0-.354.067-.67.201-.947.136-.279.326-.497.568-.654.244-.158.508-.238.792-.238.464 0 .825.153 1.082.459.258.306.386.744.386 1.314v.254h-2.419c.009.352.111.637.307.855.198.216.449.324.753.324.216 0 .398-.044.548-.132.15-.088.28-.205.393-.35l.373.29c-.299.46-.748.69-1.347.69zm-.076-3.201c-.246 0-.453.09-.621.271-.167.178-.271.429-.31.753h1.789v-.046c-.018-.31-.101-.55-.251-.719-.15-.172-.352-.257-.607-.257z"/><path fill-rule="evenodd" clip-rule="evenodd" d="M143.988 39.667c-1.069 0-1.936.867-1.936 1.936v3.563c0 1.069.867 1.936 1.936 1.936h3.563c1.069 0 1.936-.867 1.936-1.936v-3.563c0-1.069-.867-1.936-1.936-1.936h-3.563zm-1.162 1.936c0-.642.52-1.162 1.162-1.162h3.563c.641 0 1.161.52 1.161 1.162v3.563c0 .642-.52 1.162-1.161 1.162h-3.563c-.642 0-1.162-.52-1.162-1.162v-3.563zm2.794 3.584h.586v-3.536h-.075l-1.375.506v.496l.864-.295v2.829z" fill="#3D4043"/><path d="M162.443 41.582c.496 0 .901-.406.901-.901 0-.496-.405-.901-.901-.901s-.901.406-.901.901c0 .496.405.901.901.901zm0 .901c-.496 0-.901.406-.901.901 0 .496.405.901.901.901s.901-.406.901-.901c0-.496-.405-.901-.901-.901zm0 2.704c-.496 0-.901.406-.901.901 0 .496.405.901.901.901s.901-.405.901-.901-.405-.901-.901-.901z" fill="#3D4043"/><path d="M157.038 26.953l3.057-3.809c-.118-.089-1.295-1.39-3.059-1.39-1.767 0-2.942 1.3-3.06 1.39l3.057 3.809.003.003.002-.003z" fill-opacity=".54" clip-path="url(#i)"/><path d="M146.297 27.087h5.257v-5.257l-5.257 5.257z" fill-opacity=".54" clip-path="url(#j)"/><path d="M165.692 22.355h-.828v-.526h-1.104v.526h-.828v4.337h2.76v-4.337z" fill-opacity=".54" clip-path="url(#k)"/><path d="M21.773 27.748h-.932v-3.593l-1.113.345v-.758l1.945-.697h.1v4.702zm4.689-1.941c0 .649-.134 1.146-.403 1.49-.269.344-.662.516-1.18.516-.512 0-.903-.169-1.174-.506-.271-.338-.41-.821-.416-1.451v-.864c0-.656.136-1.153.406-1.493.273-.34.665-.509 1.177-.509s.903.169 1.174.506c.271.335.41.818.416 1.448v.864zm-.932-.948c0-.389-.054-.672-.161-.848-.105-.178-.271-.268-.497-.268-.219 0-.382.085-.487.255-.103.168-.158.431-.165.79v1.142c0 .383.052.668.155.855.105.185.273.277.503.277.228 0 .392-.089.493-.268.101-.178.154-.451.158-.819v-1.116zm1.648 2.432c0-.148.049-.269.148-.361.101-.092.227-.139.377-.139.153 0 .278.046.377.139.101.092.152.213.152.361 0 .146-.049.265-.148.358-.099.09-.226.136-.381.136-.153 0-.278-.045-.377-.136-.099-.092-.148-.212-.148-.358zm0-2.641c0-.148.049-.269.148-.361.101-.092.227-.139.377-.139.153 0 .278.046.377.139.101.092.152.213.152.361 0 .146-.049.265-.148.358-.099.09-.226.135-.381.135-.153 0-.278-.045-.377-.135-.099-.092-.148-.212-.148-.358zm4.941 1.158c0 .649-.134 1.146-.403 1.49-.269.344-.662.516-1.18.516-.512 0-.903-.169-1.174-.506-.271-.338-.41-.821-.416-1.451v-.864c0-.656.135-1.153.406-1.493.273-.34.665-.509 1.177-.509s.903.169 1.174.506c.271.335.409.818.416 1.448v.864zm-.932-.948c0-.389-.054-.672-.161-.848-.105-.178-.271-.268-.497-.268-.219 0-.382.085-.487.255-.103.168-.158.431-.165.79v1.142c0 .383.052.668.155.855.105.185.273.277.503.277.228 0 .392-.089.493-.268.101-.178.154-.451.158-.819v-1.116zm4.724.948c0 .649-.134 1.146-.403 1.49-.269.344-.662.516-1.18.516-.512 0-.903-.169-1.174-.506-.271-.338-.41-.821-.416-1.451v-.864c0-.656.135-1.153.406-1.493.273-.34.665-.509 1.177-.509s.903.169 1.174.506c.271.335.41.818.416 1.448v.864zm-.932-.948c0-.389-.054-.672-.161-.848-.105-.178-.271-.268-.497-.268-.219 0-.382.085-.487.255-.103.168-.158.431-.164.79v1.142c0 .383.052.668.155.855.105.185.273.277.503.277.228 0 .392-.089.493-.268.101-.178.154-.451.158-.819v-1.116z" fill-opacity=".54"/></g><g clip-path="url(#l)"><path fill="#fff" d="M5.98 342.069h172.819v21.122h-172.819z"/><path fill="#DADCDF" d="M5.98 342.069h172.819v.48h-172.819z" clip-path="url(#m)"/><path d="M47.985 349.382v6.497c0 .27-.288.438-.52.305l-5.547-3.25c-.232-.134-.232-.47 0-.607l5.547-3.251c.232-.133.52.036.52.306z" fill="#949494"/><path fill-rule="evenodd" clip-rule="evenodd" d="M95.846 352.63c0 1.909-1.547 3.457-3.456 3.457s-3.456-1.548-3.456-3.457c0-1.909 1.547-3.456 3.456-3.456s3.456 1.547 3.456 3.456zm.48 0c0 2.174-1.762 3.937-3.936 3.937s-3.936-1.763-3.936-3.937 1.762-3.936 3.936-3.936 3.936 1.762 3.936 3.936zm-3.91 3.025c1.657 0 3-1.344 3-3.001 0-1.657-1.343-3-3-3s-3 1.343-3 3 1.343 3.001 3 3.001z" fill="#949494"/><path d="M141.975 349.366h-5.078c-.399 0-.725.326-.725.725v5.078c0 .399.326.726.725.726h5.078c.399 0 .725-.327.725-.726v-5.078c0-.399-.326-.725-.725-.725z" fill="#949494"/></g></g><path d="M82.232 18.948c0-.964.782-1.745 1.746-1.745h15.962c.964 0 1.746.781 1.746 1.745 0 .964-.782 1.745-1.746 1.745h-15.962c-.964 0-1.746-.781-1.746-1.745zM105.677 18.948c0-1.928 1.563-3.49 3.492-3.49 1.928 0 3.491 1.563 3.491 3.49 0 1.928-1.563 3.49-3.491 3.49-1.929 0-3.492-1.563-3.492-3.49z" fill="#4E4E4E"/></g><defs><filter id="c" x="13.96" y="-296.392" width="161.233" height="343.269" filterUnits="userSpaceOnUse" color-interpolation-filters="sRGB"><feFlood flood-opacity="0" result="BackgroundImageFix"/><feColorMatrix in="SourceAlpha" values="0 0 0 0 0 0 0 0 0 0 0 0 0 0 0 0 0 0 127 0" result="hardAlpha"/><feOffset dx="2.08" dy="2.08"/><feGaussianBlur stdDeviation="3.901"/><feColorMatrix values="0 0 0 0 0.576471 0 0 0 0 0.654902 0 0 0 0 0.709804 0 0 0 0.15 0"/><feBlend in2="BackgroundImageFix" result="effect1_dropShadow"/><feBlend in="SourceGraphic" in2="effect1_dropShadow" result="shape"/></filter><filter id="e" x="13.96" y="93.688" width="161.233" height="192.959" filterUnits="userSpaceOnUse" color-interpolation-filters="sRGB"><feFlood flood-opacity="0" result="BackgroundImageFix"/><feColorMatrix in="SourceAlpha" values="0 0 0 0 0 0 0 0 0 0 0 0 0 0 0 0 0 0 127 0" result="hardAlpha"/><feOffset dx="2.08" dy="2.08"/><feGaussianBlur stdDeviation="3.901"/><feColorMatrix values="0 0 0 0 0.576471 0 0 0 0 0.654902 0 0 0 0 0.709804 0 0 0 0.15 0"/><feBlend in2="BackgroundImageFix" result="effect1_dropShadow"/><feBlend in="SourceGraphic" in2="effect1_dropShadow" result="shape"/></filter><filter id="f" x="13.96" y="286.646" width="161.233" height="182.557" filterUnits="userSpaceOnUse" color-interpolation-filters="sRGB"><feFlood flood-opacity="0" result="BackgroundImageFix"/><feColorMatrix in="SourceAlpha" values="0 0 0 0 0 0 0 0 0 0 0 0 0 0 0 0 0 0 127 0" result="hardAlpha"/><feOffset dx="2.08" dy="2.08"/><feGaussianBlur stdDeviation="3.901"/><feColorMatrix values="0 0 0 0 0.576471 0 0 0 0 0.654902 0 0 0 0 0.709804 0 0 0 0.15 0"/><feBlend in2="BackgroundImageFix" result="effect1_dropShadow"/><feBlend in="SourceGraphic" in2="effect1_dropShadow" result="shape"/></filter><filter id="h" x="9.68" y="10.489" width="165.83" height="46.865" filterUnits="userSpaceOnUse" color-interpolation-filters="sRGB"><feFlood flood-opacity="0" result="BackgroundImageFix"/><feColorMatrix in="SourceAlpha" values="0 0 0 0 0 0 0 0 0 0 0 0 0 0 0 0 0 0 127 0" result="hardAlpha"/><feOffset dy=".451"/><feGaussianBlur stdDeviation=".901"/><feColorMatrix values="0 0 0 0 0 0 0 0 0 0 0 0 0 0 0 0 0 0 0.2 0"/><feBlend in2="BackgroundImageFix" result="effect1_dropShadow"/><feBlend in="SourceGraphic" in2="effect1_dropShadow" result="shape"/></filter><clipPath id="d"><path fill="#fff" d="M148.67 67.162h12.482v12.482h-12.482z"/></clipPath><clipPath id="g"><path fill="#fff" d="M11.483 11.841h162.225v43.26h-162.225z"/></clipPath><clipPath id="i"><path fill="#fff" d="M153.881 21.304h6.309v6.309h-6.309z"/></clipPath><clipPath id="j"><path fill="#fff" d="M145.77 21.304h6.309v6.309h-6.309z"/></clipPath><clipPath id="k"><path fill="#fff" d="M161.092 21.304h6.309v6.309h-6.309z"/></clipPath><clipPath id="l"><path fill="#fff" d="M5.98 342.069h172.819v21.122h-172.819z"/></clipPath><clipPath id="m"><path fill="#fff" d="M5.98 342.069h172.819v.48h-172.819z"/></clipPath></defs></svg>