<svg width="177" height="364" fill="none" xmlns="http://www.w3.org/2000/svg"><path d="M0 41.667c0-14.413 0-21.62 2.806-27.125A25.74 25.74 0 0 1 14.057 3.295C19.564.49 26.774.49 41.193.49h94.614c14.419 0 21.628 0 27.136 2.805a25.74 25.74 0 0 1 11.251 11.247C177 20.047 177 27.254 177 41.667v280.666c0 14.413 0 21.62-2.806 27.125a25.746 25.746 0 0 1-11.251 11.247c-5.508 2.805-12.717 2.805-27.136 2.805H41.193c-14.42 0-21.628 0-27.136-2.805a25.746 25.746 0 0 1-11.25-11.247C0 343.953 0 336.746 0 322.333V41.667Z" fill="#0A0A0A"/><mask id="a" style="mask-type:alpha" maskUnits="userSpaceOnUse" x="9" y="9" width="160" height="346"><path d="M10.854 18.697c-1.835 3.6-1.835 8.312-1.835 17.736v291.355c0 9.424 0 14.136 1.835 17.736a16.836 16.836 0 0 0 7.356 7.354c3.601 1.834 8.315 1.834 17.743 1.834h105.804c9.427 0 14.141 0 17.742-1.834a16.835 16.835 0 0 0 7.357-7.354c1.834-3.6 1.834-8.312 1.834-17.736V36.433c0-9.424 0-14.136-1.834-17.736a16.828 16.828 0 0 0-7.357-7.353c-3.601-1.834-8.315-1.834-17.742-1.834h-8.274c-.41 0-.615 0-.779.06a.99.99 0 0 0-.592.59c-.059.165-.059.37-.059.78 0 3.276 0 4.915-.478 6.227a7.92 7.92 0 0 1-4.735 4.733c-1.312.477-2.951.477-6.23.477H57.1c-3.28 0-4.918 0-6.23-.477a7.92 7.92 0 0 1-4.735-4.733c-.478-1.312-.478-2.95-.478-6.228 0-.41 0-.614-.06-.778a.99.99 0 0 0-.592-.592c-.164-.06-.369-.06-.779-.06h-8.273c-9.428 0-14.142 0-17.743 1.835a16.83 16.83 0 0 0-7.356 7.353Z" fill="#fff"/></mask><g mask="url(#a)"><g clip-path="url(#b)"><path fill="#fff" d="M6.764 9.57h165.022v812.733H6.764z"/><path fill="#F3F2EE" d="M6.765 41.027h165.022v781.277H6.765z"/><path fill="#fff" d="M6.764 9.569h165.022v31.457H6.764z"/><path d="M17.863 27.883c-.061 0-.11-.02-.15-.058a.22.22 0 0 1-.057-.148v-5.363c0-.061.02-.11.058-.149a.201.201 0 0 1 .149-.058h2.31c.456 0 .852.072 1.188.215.341.137.605.346.792.627.193.28.289.635.289 1.064 0 .424-.096.773-.289 1.048a1.647 1.647 0 0 1-.792.61c-.336.133-.732.199-1.188.199h-.982v1.807a.205.205 0 0 1-.066.148.201.201 0 0 1-.149.058h-1.113Zm1.303-3.152h.965c.237 0 .424-.06.562-.181.143-.121.214-.306.214-.553a.79.79 0 0 0-.181-.528c-.121-.143-.32-.215-.595-.215h-.965v1.477Zm4.644 3.152c-.06 0-.11-.02-.149-.058a.22.22 0 0 1-.058-.148v-5.363c0-.061.02-.11.058-.149a.201.201 0 0 1 .149-.058h2.244c.715 0 1.276.165 1.683.495.407.325.61.787.61 1.386 0 .391-.093.721-.28.99-.187.27-.434.474-.742.611l1.13 2.03a.205.205 0 0 1 .025.09c0 .045-.02.086-.058.125a.158.158 0 0 1-.115.05h-1.098c-.104 0-.181-.026-.23-.075a.7.7 0 0 1-.108-.149l-.94-1.815h-.842v1.832a.205.205 0 0 1-.066.148.201.201 0 0 1-.149.058H23.81Zm1.279-3.21h.949c.258 0 .45-.063.577-.19a.675.675 0 0 0 .198-.511.72.72 0 0 0-.19-.52c-.12-.132-.316-.198-.585-.198h-.95v1.42Zm6.926 3.293c-.506 0-.946-.083-1.32-.248a1.929 1.929 0 0 1-.875-.743c-.209-.335-.324-.753-.346-1.254a30.53 30.53 0 0 1 0-1.427c.022-.495.137-.91.346-1.246.215-.341.51-.597.883-.767.38-.171.817-.256 1.312-.256.5 0 .938.085 1.312.256.374.17.669.426.883.767.215.335.33.75.347 1.246a15.454 15.454 0 0 1 0 1.427c-.017.5-.132.919-.347 1.254-.209.33-.5.578-.875.743-.374.165-.814.248-1.32.248Zm0-1.189c.292 0 .528-.088.71-.264.187-.176.286-.456.297-.841a14.064 14.064 0 0 0 0-1.353c-.011-.259-.06-.468-.149-.627a.794.794 0 0 0-.346-.364 1.095 1.095 0 0 0-.512-.115c-.187 0-.355.038-.503.115a.84.84 0 0 0-.355.364c-.088.159-.137.368-.148.627a28.1 28.1 0 0 0 0 1.353c.016.385.115.665.297.841a.994.994 0 0 0 .71.264Z" fill="#85B921"/><path d="M36.28 27.883a.178.178 0 0 1-.132-.05.178.178 0 0 1-.05-.131v-5.405c0-.06.017-.107.05-.14a.178.178 0 0 1 .132-.05h3.185c.06 0 .108.017.14.05.034.033.05.08.05.14v.124a.178.178 0 0 1-.05.132c-.032.033-.08.05-.14.05H36.62v2.219H39.3c.06 0 .108.016.14.05a.19.19 0 0 1 .05.14v.123a.179.179 0 0 1-.05.132c-.032.034-.08.05-.14.05H36.62v2.384a.178.178 0 0 1-.05.133c-.033.033-.08.05-.14.05h-.149Zm5.077 0a.178.178 0 0 1-.132-.05.178.178 0 0 1-.05-.131v-5.413c0-.055.017-.1.05-.132a.178.178 0 0 1 .132-.05h.157c.055 0 .1.017.132.05.033.033.05.077.05.132V27.7a.178.178 0 0 1-.05.133.178.178 0 0 1-.132.05h-.157Zm3.705 0a.178.178 0 0 1-.132-.05.178.178 0 0 1-.05-.131v-5.1h-1.633a.178.178 0 0 1-.132-.05.178.178 0 0 1-.05-.131v-.124c0-.06.017-.107.05-.14a.178.178 0 0 1 .132-.05h3.779c.06 0 .107.017.14.05.033.033.05.08.05.14v.124a.178.178 0 0 1-.05.132c-.033.033-.08.05-.14.05H45.4V27.7a.178.178 0 0 1-.05.133c-.032.033-.079.05-.14.05h-.148Zm3.702 0a.178.178 0 0 1-.132-.05.178.178 0 0 1-.05-.131v-5.405c0-.06.017-.107.05-.14a.178.178 0 0 1 .132-.05h.173c.055 0 .096.014.124.041a.302.302 0 0 1 .05.058l3.044 4.654v-4.563c0-.06.016-.107.05-.14a.178.178 0 0 1 .132-.05h.148c.06 0 .107.017.14.05.033.033.05.08.05.14v5.396a.208.208 0 0 1-.05.14.178.178 0 0 1-.132.05h-.181c-.055 0-.097-.014-.124-.041a.782.782 0 0 0-.05-.058l-3.036-4.637v4.555a.178.178 0 0 1-.05.131c-.032.034-.08.05-.14.05h-.148Zm6.011 0a.178.178 0 0 1-.132-.05.178.178 0 0 1-.05-.131v-5.405c0-.06.017-.107.05-.14a.178.178 0 0 1 .132-.05h3.218c.06 0 .108.017.14.05.034.033.05.08.05.14v.124a.178.178 0 0 1-.05.132c-.032.033-.08.05-.14.05h-2.88v2.103h2.699c.06 0 .107.017.14.05.033.033.05.08.05.14v.124a.178.178 0 0 1-.05.132c-.033.033-.08.05-.14.05h-2.698v2.186h2.945c.06 0 .108.016.14.05.034.033.05.08.05.14v.123a.178.178 0 0 1-.05.133c-.032.033-.08.05-.14.05h-3.284Zm6.806.083c-.446 0-.825-.072-1.139-.215a1.787 1.787 0 0 1-.71-.553 1.293 1.293 0 0 1-.263-.718c0-.044.016-.082.05-.115a.168.168 0 0 1 .123-.05h.165c.055 0 .096.017.124.05a.194.194 0 0 1 .058.115c.022.154.09.308.206.462.115.149.286.276.511.38.226.099.517.149.875.149.539 0 .932-.097 1.18-.29a.963.963 0 0 0 .371-.791.714.714 0 0 0-.198-.529c-.126-.137-.322-.258-.586-.363-.264-.11-.602-.23-1.015-.363a6.346 6.346 0 0 1-.965-.387 1.47 1.47 0 0 1-.561-.495c-.116-.193-.173-.44-.173-.743 0-.28.074-.53.222-.75.149-.226.363-.405.644-.537.286-.132.633-.198 1.04-.198.324 0 .608.044.85.132.242.088.442.206.602.355.16.143.28.3.363.47.082.165.126.327.132.487a.198.198 0 0 1-.041.115c-.028.033-.072.05-.132.05h-.165a.257.257 0 0 1-.108-.033c-.038-.022-.063-.066-.074-.132-.033-.275-.179-.5-.437-.677-.253-.181-.583-.272-.99-.272-.407 0-.74.08-.999.24-.258.159-.387.409-.387.75 0 .22.057.401.173.544.115.138.297.262.544.372.248.104.567.22.957.346.413.132.754.264 1.024.396.27.133.47.295.602.487.132.187.198.432.198.735 0 .335-.085.621-.256.858-.165.23-.401.41-.71.536-.307.121-.676.182-1.105.182Zm5.367 0c-.445 0-.825-.072-1.139-.215a1.787 1.787 0 0 1-.71-.553 1.293 1.293 0 0 1-.263-.718c0-.044.016-.082.05-.115a.168.168 0 0 1 .123-.05h.165c.055 0 .096.017.124.05a.194.194 0 0 1 .058.115c.022.154.09.308.206.462.115.149.286.276.511.38.226.099.518.149.875.149.54 0 .932-.097 1.18-.29a.963.963 0 0 0 .371-.791.714.714 0 0 0-.198-.529c-.126-.137-.322-.258-.586-.363-.264-.11-.602-.23-1.014-.363a6.346 6.346 0 0 1-.966-.387 1.47 1.47 0 0 1-.561-.495c-.116-.193-.173-.44-.173-.743 0-.28.074-.53.222-.75.15-.226.364-.405.644-.537.286-.132.633-.198 1.04-.198.324 0 .608.044.85.132.242.088.442.206.602.355.16.143.28.3.363.47.083.165.127.327.132.487a.198.198 0 0 1-.041.115c-.028.033-.072.05-.132.05h-.165a.257.257 0 0 1-.108-.033c-.038-.022-.063-.066-.074-.132-.033-.275-.179-.5-.437-.677-.253-.181-.583-.272-.99-.272-.407 0-.74.08-.999.24-.258.159-.387.409-.387.75 0 .22.057.401.173.544.115.138.297.262.544.372.248.104.567.22.957.346a7.72 7.72 0 0 1 1.024.396c.27.133.47.295.602.487.132.187.198.432.198.735 0 .335-.085.621-.256.858-.165.23-.401.41-.71.536-.307.121-.676.182-1.105.182Zm6.314-.083a.178.178 0 0 1-.132-.05.178.178 0 0 1-.05-.131v-5.413c0-.055.017-.1.05-.132a.178.178 0 0 1 .132-.05h.157c.055 0 .1.017.132.05.033.033.05.077.05.132v5.099h2.846c.06 0 .108.016.14.05.034.033.05.08.05.14v.123a.178.178 0 0 1-.05.133c-.032.033-.08.05-.14.05h-3.185Zm4.892 0a.178.178 0 0 1-.132-.05.178.178 0 0 1-.05-.131v-5.413c0-.055.017-.1.05-.132a.178.178 0 0 1 .132-.05h.157c.055 0 .099.017.132.05s.05.077.05.132V27.7a.178.178 0 0 1-.05.133.178.178 0 0 1-.132.05h-.157Zm2.442 0a.178.178 0 0 1-.132-.05.178.178 0 0 1-.05-.131v-5.405c0-.06.017-.107.05-.14a.178.178 0 0 1 .132-.05h3.185a.19.19 0 0 1 .14.05c.033.033.05.08.05.14v.124a.178.178 0 0 1-.05.132.19.19 0 0 1-.14.05h-2.846v2.219h2.681c.06 0 .107.016.14.05.033.032.05.08.05.14v.123a.179.179 0 0 1-.05.132c-.033.034-.08.05-.14.05h-2.681v2.384a.178.178 0 0 1-.05.133c-.033.033-.08.05-.14.05h-.149Zm5.077 0a.178.178 0 0 1-.132-.05.178.178 0 0 1-.05-.131v-5.405c0-.06.017-.107.05-.14a.178.178 0 0 1 .132-.05h3.218c.06 0 .108.017.14.05.033.033.05.08.05.14v.124a.178.178 0 0 1-.05.132c-.032.033-.08.05-.14.05h-2.88v2.103h2.699c.06 0 .107.017.14.05.033.033.05.08.05.14v.124a.178.178 0 0 1-.05.132c-.033.033-.08.05-.14.05h-2.698v2.186h2.945c.06 0 .108.016.14.05.034.033.05.08.05.14v.123a.178.178 0 0 1-.05.133c-.032.033-.08.05-.14.05h-3.284ZM149.096 21.946h9.001v.516h-9.001zM149.095 25.04h12.377v.516h-12.377zM152.472 28.134h9.001v.516h-9.001zM17.13 69.777h.568c.487-.974.872-1.946 1.154-2.916.282-.974.491-2.023.63-3.148h4.29v6.064h.982v3.445h-1.506v-2.146h-4.613v2.146h-1.506v-3.445Zm3.59-4.764a17.165 17.165 0 0 1-.539 2.442c-.248.86-.529 1.634-.84 2.322h2.875v-4.764H20.72Zm7.383 1.42c-.326 0-.581.104-.766.312-.184.205-.29.497-.317.876h2.155c-.006-.379-.105-.671-.297-.876-.191-.208-.45-.312-.775-.312Zm.216 4.744c-.906 0-1.614-.25-2.125-.75-.51-.5-.765-1.21-.765-2.126 0-.943.235-1.672.705-2.185.473-.517 1.126-.776 1.959-.776.796 0 1.415.227 1.858.68.443.453.665 1.08.665 1.878v.746h-3.631c.017.436.146.777.388 1.022.241.245.58.368 1.017.368.339 0 .66-.035.962-.106.302-.07.617-.183.947-.337v1.188a3.53 3.53 0 0 1-.862.297c-.305.067-.678.1-1.118.1Zm5.082-5.731v2.165h2.145v-2.165h1.536v5.63h-1.536v-2.322h-2.145v2.322h-1.536v-5.63H33.4Zm6.829 2.175h1.083c.866 0 1.507.138 1.923.413.417.276.625.692.625 1.25 0 1.195-.83 1.792-2.488 1.792h-2.68v-5.63h1.537v2.175Zm2.095 1.683c0-.219-.088-.377-.262-.474-.175-.097-.435-.146-.78-.146H40.23v1.33h1.072c.682 0 1.023-.237 1.023-.71Zm7.59-2.931c.315 0 .608.048.88.145.272.098.51.24.71.429.202.188.36.423.474.705.114.278.171.599.171.962 0 .4-.062.758-.186 1.077a2.14 2.14 0 0 1-.55.806 2.47 2.47 0 0 1-.9.504 3.918 3.918 0 0 1-1.23.176c-.184 0-.367-.009-.548-.025a5.065 5.065 0 0 1-.524-.076 3.48 3.48 0 0 1-.474-.12 2.47 2.47 0 0 1-.402-.177v-1.345c.117.068.253.131.407.192.155.057.314.107.479.15.168.041.336.075.504.102.167.023.327.035.478.035.45 0 .792-.093 1.027-.277.235-.188.353-.485.353-.891 0-.363-.116-.638-.348-.826-.228-.192-.582-.287-1.062-.287-.087 0-.181.004-.282.015a4.359 4.359 0 0 0-.564.095 2.033 2.033 0 0 0-.227.056l-.62-.333.278-3.752h3.888v1.32h-2.539l-.12 1.445c.107-.023.231-.047.372-.07a3.56 3.56 0 0 1 .554-.035Z" fill="#0A0A0A"/><g filter="url(#c)"><circle cx="151.159" cy="66.812" r="10.314" fill="#85B921"/></g><path d="M78.626 68.041a.775.775 0 0 0 .532-.186.638.638 0 0 0 .225-.462h.808c-.01.237-.084.46-.222.666a1.463 1.463 0 0 1-.564.487 1.68 1.68 0 0 1-.769.18c-.533 0-.956-.173-1.269-.519-.313-.345-.469-.822-.469-1.431v-.088c0-.58.155-1.045.466-1.393.31-.35.733-.525 1.269-.525.453 0 .822.133 1.107.398.286.263.437.61.45 1.04h-.806a.78.78 0 0 0-.226-.54.714.714 0 0 0-.532-.21c-.278 0-.492.1-.642.303-.15.2-.227.504-.23.913v.137c0 .414.075.723.223.927.15.202.367.303.649.303Zm3.891.684c-.542 0-.983-.17-1.322-.51-.336-.344-.504-.8-.504-1.369v-.105c0-.381.073-.72.219-1.02.148-.3.355-.534.62-.7.266-.168.562-.251.889-.251.52 0 .92.166 1.202.497.284.331.426.8.426 1.407v.345h-2.492c.026.315.13.564.314.747a.953.953 0 0 0 .698.275c.392 0 .712-.158.959-.475l.462.44a1.553 1.553 0 0 1-.614.532 1.92 1.92 0 0 1-.856.187Zm-.102-3.268a.727.727 0 0 0-.57.247c-.144.165-.236.394-.276.688h1.632v-.064c-.018-.287-.095-.503-.229-.648-.134-.149-.32-.223-.557-.223Zm4.84.074H85.6v3.124h-.854V64.84h2.51v.69Zm.254 1.181c0-.373.074-.71.222-1.008.148-.3.356-.531.624-.69.268-.163.576-.244.924-.244.515 0 .932.166 1.251.497.322.331.496.77.522 1.319l.004.2c0 .376-.073.713-.219 1.009-.143.296-.35.525-.62.687a1.761 1.761 0 0 1-.931.243c-.538 0-.97-.178-1.294-.535-.322-.36-.483-.838-.483-1.435v-.043Zm.857.074c0 .393.08.7.243.924.162.22.388.331.677.331a.778.778 0 0 0 .673-.338c.162-.226.243-.556.243-.99 0-.386-.083-.692-.25-.917a.789.789 0 0 0-.673-.339.785.785 0 0 0-.666.335c-.165.221-.247.553-.247.994Zm3.176 1.185c.237-.266.396-.517.476-.755.082-.24.132-.545.148-.916l.05-1.46h2.647v3.13h.529v1.82h-.853v-1.135h-2.447v1.135h-.867l.003-1.82h.314Zm1.005 0h1.463v-2.394h-.963l-.024.73c-.033.7-.192 1.255-.476 1.664Zm6.624.684h-.857v-1.54H96.83v1.54h-.857V64.84h.857v1.59h1.484v-1.59h.857v3.814Zm3.969-3.814v3.814h-.853v-1.4h-.8l-.814 1.4h-.889l.899-1.54a1.21 1.21 0 0 1-.543-.424 1.1 1.1 0 0 1-.187-.63c0-.356.137-.646.409-.872.275-.227.645-.344 1.111-.348h1.667Zm-2.33 1.24c0 .16.059.29.176.392.12.098.273.148.459.148h.842v-1.1h-.79c-.209 0-.376.053-.5.159a.503.503 0 0 0-.187.401Zm3.402 3.73-.462-.275c.136-.214.229-.4.279-.56.051-.158.078-.319.081-.483v-.667h.772l-.004.617c-.002.25-.066.499-.19.748a1.836 1.836 0 0 1-.476.62Zm6.553-3.317c0 .738-.138 1.295-.416 1.67-.275.374-.694.561-1.258.561-.555 0-.973-.182-1.255-.546-.28-.367-.423-.909-.43-1.625v-.889c0-.738.137-1.291.412-1.66.278-.369.699-.553 1.266-.553.561 0 .98.18 1.255.539.277.36.419.898.426 1.614v.889Zm-.856-.96c0-.48-.066-.833-.198-1.057-.131-.225-.34-.338-.627-.338-.28 0-.486.107-.617.32-.132.212-.201.544-.208.995v1.163c0 .48.067.837.201 1.072.134.235.344.352.631.352.275 0 .478-.108.61-.324.131-.218.201-.56.208-1.022v-1.16Zm4.279-2.037v.709h-.105c-.48.007-.863.139-1.15.395-.286.256-.457.619-.511 1.089.275-.289.627-.434 1.054-.434.454 0 .811.16 1.072.48.263.32.395.732.395 1.237 0 .522-.154.945-.462 1.27-.306.321-.707.482-1.206.482-.512 0-.928-.189-1.248-.567-.317-.379-.476-.874-.476-1.488v-.293c0-.9.219-1.605.656-2.115.44-.51 1.071-.765 1.893-.765h.088Zm-.92 2.45a.933.933 0 0 0-.86.582v.26c0 .382.08.685.24.91.16.224.366.335.62.335a.723.723 0 0 0 .603-.285c.148-.19.222-.44.222-.751 0-.31-.075-.563-.225-.758a.721.721 0 0 0-.6-.293Zm2.947 1.805c.16 0 .284.046.371.138.086.09.13.202.13.338a.464.464 0 0 1-.13.335c-.087.087-.211.13-.371.13a.5.5 0 0 1-.363-.13.448.448 0 0 1-.134-.335c0-.136.044-.249.131-.338a.48.48 0 0 1 .366-.138Zm4.774-1.258c0 .738-.139 1.295-.416 1.67-.275.374-.695.561-1.259.561-.555 0-.973-.182-1.255-.546-.28-.367-.423-.909-.43-1.625v-.889c0-.738.137-1.291.412-1.66.278-.369.7-.553 1.266-.553.562 0 .98.18 1.255.539.277.36.42.898.427 1.614v.889Zm-.857-.96c0-.48-.066-.833-.197-1.057-.132-.225-.341-.338-.628-.338-.28 0-.485.107-.617.32-.131.212-.201.544-.208.995v1.163c0 .48.067.837.201 1.072.134.235.344.352.631.352.275 0 .478-.108.61-.324.132-.218.201-.56.208-1.022v-1.16Zm5.03-1.536-2.051 4.657h-.899l2.048-4.446h-2.654v-.687h3.556v.476Zm1.277 3.754c.159 0 .283.046.37.138.087.09.13.202.13.338a.46.46 0 0 1-.13.335.501.501 0 0 1-.37.13.497.497 0 0 1-.363-.13.444.444 0 0 1-.134-.335c0-.136.043-.249.13-.338a.481.481 0 0 1 .367-.138Zm4.879.903h-3.452v-.589l1.71-1.865c.247-.275.422-.504.525-.687.106-.186.159-.371.159-.557 0-.245-.069-.442-.208-.592-.136-.15-.321-.226-.553-.226-.278 0-.493.085-.646.254-.152.169-.229.4-.229.694h-.856c0-.312.07-.593.211-.842.144-.252.347-.447.61-.586.266-.138.571-.207.917-.207.498 0 .89.125 1.177.377.289.249.434.594.434 1.036 0 .256-.073.525-.219.807-.143.28-.379.599-.709.956l-1.254 1.343h2.383v.684Zm2.971 0h-.853v-4.121l-1.258.43v-.723l2.002-.737h.109v5.15Z" fill="#0A0A0A"/><g clip-path="url(#d)" fill="#fff"><path d="M156.065 62.235h-.777v-.615a.323.323 0 0 0-.645 0v.615h-3.16v-.615a.323.323 0 0 0-.322-.323.323.323 0 0 0-.322.323v.615h-3.192v-.615a.323.323 0 0 0-.645 0v.615h-.745c-.709 0-1.286.597-1.286 1.306v7.496c0 .712.574 1.29 1.286 1.29h9.804c.713 0 1.287-.578 1.287-1.287V63.54c.003-.71-.574-1.306-1.283-1.306Zm.641 8.802a.643.643 0 0 1-.638.644h-9.811a.641.641 0 0 1-.641-.641V63.54c0-.358.287-.66.641-.66h.745v.466a.323.323 0 0 0 .645 0v-.467h3.192v.467c0 .178.145.323.322.323a.323.323 0 0 0 .322-.323v-.467h3.16v.467a.323.323 0 0 0 .645 0v-.467h.777c.357 0 .641.306.641.661v7.496Z"/><path d="M150.311 64.975h-.564a.323.323 0 0 0-.323.323c0 .177.145.322.323.322h.564a.323.323 0 0 0 0-.645ZM152.557 64.975h-.564a.323.323 0 0 0 0 .645h.564a.323.323 0 0 0 .323-.322.322.322 0 0 0-.323-.323ZM154.819 64.975h-.564a.323.323 0 0 0 0 .645h.564a.323.323 0 0 0 .323-.322.323.323 0 0 0-.323-.323ZM150.311 67.2h-.564a.323.323 0 0 0-.323.323c0 .177.145.322.323.322h.564a.323.323 0 0 0 .322-.322.323.323 0 0 0-.322-.323ZM148.052 67.2h-.567a.323.323 0 0 0-.323.323c0 .177.145.322.323.322h.564a.323.323 0 0 0 .322-.322.32.32 0 0 0-.319-.323ZM152.557 67.2h-.564a.323.323 0 0 0 0 .645h.564a.323.323 0 0 0 .323-.323.321.321 0 0 0-.323-.322ZM154.819 67.2h-.564a.323.323 0 0 0-.322.323c0 .177.145.322.322.322h.564a.323.323 0 0 0 .323-.322.323.323 0 0 0-.323-.323ZM150.311 69.392h-.564a.323.323 0 0 0-.323.323c0 .177.145.322.323.322h.564a.323.323 0 0 0 .322-.323.323.323 0 0 0-.322-.322ZM148.052 69.392h-.567a.323.323 0 0 0-.323.323c0 .177.145.322.323.322h.564a.323.323 0 0 0 .322-.323.32.32 0 0 0-.319-.322ZM152.557 69.392h-.564a.323.323 0 0 0-.322.323c0 .177.145.322.322.322h.564a.323.323 0 0 0 .323-.323.322.322 0 0 0-.323-.322Z"/></g><g filter="url(#e)"><rect x="17.08" y="92.597" width="144.394" height="175.852" rx="15.471" fill="#fff"/></g><path d="M146.002 92.596c8.545 0 15.471 6.926 15.471 15.471v7.735H17.079v-7.735c0-8.544 6.926-15.471 15.47-15.471h113.453Z" fill="#CDB7AA"/><path d="M78.676 103.051a.664.664 0 0 0-.26-.55c-.175-.136-.41-.204-.71-.204a1 1 0 0 0-.64.204.632.632 0 0 0-.258.522h-.889c0-.28.078-.529.233-.747.155-.219.37-.388.645-.508.275-.122.578-.183.91-.183.587 0 1.043.128 1.368.384.326.256.49.614.49 1.075 0 .233-.071.447-.212.642a1.427 1.427 0 0 1-.592.462c.286.098.505.249.655.451.153.2.23.449.23.747 0 .461-.177.827-.53 1.1-.352.27-.822.405-1.41.405a2.42 2.42 0 0 1-.983-.193 1.495 1.495 0 0 1-.66-.529 1.378 1.378 0 0 1-.218-.769h.889c0 .221.091.408.275.561.183.15.416.225.698.225.315 0 .567-.074.758-.222a.696.696 0 0 0 .289-.578c0-.289-.085-.498-.254-.627-.167-.132-.413-.198-.737-.198h-.603v-.705h.571c.63 0 .945-.255.945-.765Zm3.994 3.733a1.307 1.307 0 0 1-.099-.356 1.332 1.332 0 0 1-1 .427c-.384 0-.696-.109-.938-.328a1.049 1.049 0 0 1-.364-.811c0-.406.15-.718.452-.934.303-.218.735-.328 1.297-.328h.525v-.25a.66.66 0 0 0-.165-.472c-.11-.12-.279-.18-.504-.18a.746.746 0 0 0-.48.148.448.448 0 0 0-.187.37h-.856c0-.209.069-.404.208-.585.138-.184.326-.327.564-.43a1.99 1.99 0 0 1 .8-.155c.446 0 .802.112 1.068.338.266.223.402.538.409.945v1.72c0 .343.048.617.144.821v.06h-.874Zm-.941-.616c.17 0 .328-.042.476-.124a.823.823 0 0 0 .338-.331v-.719h-.462c-.317 0-.555.055-.715.165a.538.538 0 0 0-.24.469c0 .165.054.296.162.395.11.096.258.145.441.145Zm2.633.616v-3.814h1.548c.522 0 .919.092 1.192.275.272.181.408.442.408.783a.753.753 0 0 1-.165.476c-.108.138-.27.245-.483.32.249.052.446.157.592.314a.794.794 0 0 1 .219.557c0 .355-.132.625-.395.811-.261.186-.637.278-1.128.278h-1.788Zm.857-1.625v.949h.938c.44 0 .659-.158.659-.473 0-.317-.223-.476-.67-.476h-.927Zm0-.613h.705c.486 0 .73-.143.73-.43 0-.301-.23-.456-.691-.466h-.744v.896Zm6.155-.896h-1.237v3.134h-.857v-3.134h-1.223v-.68h3.317v.68Zm3.913 1.266c0 .59-.134 1.061-.402 1.414-.268.35-.627.525-1.079.525-.418 0-.753-.138-1.004-.413v1.809h-.857v-5.281h.79l.035.388c.252-.306.594-.458 1.026-.458.465 0 .83.174 1.093.521.265.346.398.826.398 1.442v.053Zm-.853-.074c0-.381-.076-.683-.23-.906a.736.736 0 0 0-.648-.335c-.35 0-.601.145-.754.434v1.692c.155.296.409.444.761.444a.734.734 0 0 0 .638-.328c.155-.221.233-.554.233-1.001Zm3.86 1.942a1.306 1.306 0 0 1-.099-.356 1.331 1.331 0 0 1-1 .427c-.384 0-.696-.109-.938-.328a1.048 1.048 0 0 1-.364-.811c0-.406.15-.718.452-.934.303-.218.735-.328 1.297-.328h.525v-.25a.66.66 0 0 0-.165-.472c-.11-.12-.279-.18-.505-.18a.747.747 0 0 0-.479.148.448.448 0 0 0-.187.37h-.856c0-.209.069-.404.208-.585.138-.184.326-.327.564-.43a1.99 1.99 0 0 1 .8-.155c.446 0 .802.112 1.068.338.266.223.402.538.409.945v1.72c0 .343.048.617.144.821v.06h-.874Zm-.941-.616c.17 0 .328-.042.476-.124a.823.823 0 0 0 .338-.331v-.719h-.462c-.317 0-.555.055-.715.165a.538.538 0 0 0-.24.469c0 .165.054.296.162.395.11.096.258.145.44.145Zm3.924-.892h-.434v1.508h-.857v-3.814h.857v1.523h.377l1.054-1.523h1.058l-1.379 1.826 1.495 1.988h-1.114l-1.057-1.508Z" fill="#fff"/><path d="M30.052 140.273h-1.015v-5.044h-2.583v5.044H25.44v-5.866h4.613v5.866Zm2.156-4.359v3.578h1.361v-3.578h.98v3.578h1.365v-3.578h.975v4.359h-5.66v-4.359h.979Zm7.663 4.44c-.62 0-1.125-.195-1.511-.584-.384-.393-.576-.914-.576-1.564v-.12c0-.436.083-.824.25-1.165a1.875 1.875 0 0 1 1.724-1.088c.593 0 1.051.19 1.374.568.325.379.487.915.487 1.608v.395h-2.848c.03.36.149.644.358.854.212.209.478.314.798.314.449 0 .814-.181 1.096-.544l.528.504c-.175.26-.409.463-.701.608-.29.143-.617.214-.98.214Zm-.117-3.735a.83.83 0 0 0-.653.282c-.164.188-.268.45-.314.786h1.865v-.073c-.021-.328-.109-.575-.262-.741-.153-.169-.365-.254-.636-.254Zm6.321 3.654h-.979v-1.76H43.4v1.76h-.98v-4.359h.98v1.817h1.696v-1.817h.979v4.359Zm3.65 0a1.507 1.507 0 0 1-.113-.407 1.525 1.525 0 0 1-1.144.488c-.438 0-.795-.125-1.072-.375a1.2 1.2 0 0 1-.415-.927c0-.464.172-.82.516-1.067.347-.25.84-.375 1.483-.375h.6v-.286c0-.226-.063-.406-.19-.54-.126-.137-.318-.205-.575-.205a.854.854 0 0 0-.548.169.512.512 0 0 0-.214.423h-.979c0-.239.08-.462.238-.669a1.58 1.58 0 0 1 .645-.491c.273-.119.578-.178.914-.178.51 0 .917.129 1.22.387.304.255.46.615.468 1.08v1.966c0 .392.055.705.165.939v.068h-.999Zm-1.075-.705c.193 0 .374-.047.543-.141.172-.094.301-.22.387-.379v-.821h-.528c-.362 0-.635.063-.818.189a.613.613 0 0 0-.273.536c0 .188.061.338.185.451.126.11.294.165.504.165Zm6.425-3.654v4.359H54.1v-1.599h-.914l-.93 1.599H51.24l1.027-1.76a1.381 1.381 0 0 1-.62-.484 1.252 1.252 0 0 1-.214-.721c0-.406.156-.737.468-.995.314-.261.737-.394 1.269-.399h1.905Zm-2.663 1.418c0 .183.068.332.202.447.137.113.311.17.524.17h.962v-1.257h-.902c-.239 0-.43.06-.572.181a.577.577 0 0 0-.214.459Zm7.353 1.217h-.495v1.724h-.98v-4.359h.98v1.74h.43l1.205-1.74h1.209l-1.575 2.087 1.708 2.272h-1.273l-1.209-1.724Zm5.624 1.724a1.507 1.507 0 0 1-.112-.407 1.525 1.525 0 0 1-1.145.488c-.437 0-.795-.125-1.071-.375a1.2 1.2 0 0 1-.415-.927c0-.464.172-.82.515-1.067.347-.25.841-.375 1.483-.375h.6v-.286c0-.226-.063-.406-.189-.54-.126-.137-.318-.205-.576-.205a.854.854 0 0 0-.548.169.512.512 0 0 0-.214.423h-.979c0-.239.08-.462.238-.669a1.58 1.58 0 0 1 .645-.491c.274-.119.578-.178.914-.178.51 0 .918.129 1.221.387.303.255.46.615.467 1.08v1.966c0 .392.055.705.165.939v.068h-.999Zm-1.075-.705c.193 0 .374-.047.544-.141.171-.094.3-.22.386-.379v-.821h-.527c-.363 0-.636.063-.818.189a.614.614 0 0 0-.274.536c0 .188.062.338.185.451.126.11.294.165.504.165Zm3.952-3.654v3.578h1.362v-3.578h.979v3.578h1.365v-3.578h.976v4.359h-5.661v-4.359h.979Zm8.348 4.359a1.507 1.507 0 0 1-.113-.407 1.525 1.525 0 0 1-1.144.488c-.438 0-.795-.125-1.072-.375a1.2 1.2 0 0 1-.415-.927c0-.464.172-.82.516-1.067.346-.25.84-.375 1.483-.375h.6v-.286c0-.226-.063-.406-.19-.54-.126-.137-.318-.205-.576-.205a.854.854 0 0 0-.548.169.512.512 0 0 0-.213.423h-.98c0-.239.08-.462.239-.669a1.58 1.58 0 0 1 .644-.491c.274-.119.579-.178.915-.178.51 0 .917.129 1.22.387.304.255.46.615.468 1.08v1.966c0 .392.055.705.165.939v.068h-1Zm-1.076-.705c.194 0 .375-.047.544-.141.172-.094.3-.22.387-.379v-.821h-.528c-.363 0-.635.063-.818.189a.614.614 0 0 0-.274.536c0 .188.062.338.185.451.127.11.295.165.504.165Zm6.78.004a.886.886 0 0 0 .609-.213.732.732 0 0 0 .258-.528h.922c-.01.271-.095.525-.253.761a1.67 1.67 0 0 1-.645.556 1.92 1.92 0 0 1-.878.206c-.61 0-1.093-.198-1.45-.592-.358-.395-.537-.941-.537-1.636v-.101c0-.663.178-1.194.532-1.591.355-.401.838-.601 1.45-.601.52 0 .94.152 1.266.456.328.3.5.697.516 1.188h-.923a.89.89 0 0 0-.258-.616.817.817 0 0 0-.608-.242c-.317 0-.562.116-.734.346-.171.229-.259.577-.261 1.044v.157c0 .473.084.826.253 1.06.172.231.42.346.742.346Zm6.374 0a.887.887 0 0 0 .609-.213.732.732 0 0 0 .257-.528h.923c-.01.271-.095.525-.254.761a1.668 1.668 0 0 1-.644.556 1.921 1.921 0 0 1-.879.206c-.61 0-1.093-.198-1.45-.592-.357-.395-.536-.941-.536-1.636v-.101c0-.663.177-1.194.532-1.591.355-.401.838-.601 1.45-.601.519 0 .94.152 1.265.456.328.3.5.697.516 1.188h-.922a.89.89 0 0 0-.258-.616.817.817 0 0 0-.609-.242c-.317 0-.561.116-.733.346-.172.229-.26.577-.262 1.044v.157c0 .473.085.826.254 1.06.172.231.419.346.741.346Zm4.053-.701.887-2.957h1.043l-1.732 5.02c-.266.733-.717 1.1-1.354 1.1-.142 0-.3-.024-.471-.073v-.757l.185.012c.247 0 .433-.046.556-.137.126-.089.226-.239.298-.451l.141-.375-1.53-4.339h1.055l.922 2.957Zm4.061-1.523.83-1.434h1.088l-1.333 2.147 1.377 2.212h-1.08l-.87-1.49-.866 1.49h-1.087l1.377-2.212-1.33-2.147h1.08l.814 1.434Zm2.24.705c0-.427.085-.811.254-1.152.17-.344.407-.607.713-.79a2.003 2.003 0 0 1 1.056-.278c.588 0 1.065.19 1.43.568.368.379.567.881.597 1.507l.004.23c0 .43-.084.814-.25 1.152-.164.339-.4.6-.709.786a2.02 2.02 0 0 1-1.064.278c-.615 0-1.108-.204-1.478-.613-.368-.411-.553-.957-.553-1.639v-.049Zm.98.085c0 .448.092.8.278 1.055.185.253.443.379.773.379a.89.89 0 0 0 .77-.387c.185-.257.278-.635.278-1.132 0-.44-.096-.789-.286-1.047a.904.904 0 0 0-.77-.387.896.896 0 0 0-.761.383c-.188.252-.282.631-.282 1.136Zm3.738.016c0-.712.14-1.276.419-1.692a1.342 1.342 0 0 1 1.177-.629c.204 0 .389.038.556.113v-1.861h.975v1.877c.172-.086.373-.129.604-.129.5 0 .89.209 1.172.625.285.413.427 1.007.427 1.781 0 .652-.142 1.168-.427 1.547-.284.378-.672.568-1.164.568-.223 0-.427-.041-.612-.121v1.716h-.975v-1.7c-.164.07-.352.105-.564.105-.47 0-.846-.173-1.128-.52-.28-.349-.431-.829-.456-1.438l-.004-.242Zm4.351 0c0-.489-.077-.866-.233-1.132-.156-.269-.376-.403-.661-.403a.985.985 0 0 0-.33.052v2.861c.088.027.201.04.338.04.591 0 .886-.473.886-1.418Zm-3.376.085c0 .435.073.766.218.995.145.225.36.338.644.338.121 0 .226-.013.315-.04v-2.873a1.085 1.085 0 0 0-.306-.04c-.28 0-.495.13-.645.391-.151.258-.226.667-.226 1.229Zm9.017-.101c0 .674-.153 1.213-.459 1.615-.307.401-.718.601-1.233.601-.478 0-.861-.157-1.148-.472v2.067h-.979v-6.035h.902l.04.443c.288-.349.678-.524 1.173-.524.531 0 .948.199 1.249.597.303.394.455.944.455 1.647v.061Zm-.975-.085c0-.435-.087-.78-.262-1.035a.84.84 0 0 0-.741-.383c-.4 0-.688.165-.862.496v1.934c.177.338.467.507.87.507a.84.84 0 0 0 .729-.375c.177-.252.266-.633.266-1.144Zm3.283.818.887-2.957h1.043l-1.732 5.02c-.266.733-.717 1.1-1.354 1.1a1.73 1.73 0 0 1-.471-.073v-.757l.185.012c.247 0 .433-.046.556-.137.126-.089.226-.239.298-.451l.141-.375-1.531-4.339h1.056l.922 2.957Zm4.045-.322h-.495v1.724h-.979v-4.359h.979v1.74h.431l1.205-1.74h1.208l-1.575 2.087 1.708 2.272h-1.273l-1.209-1.724Zm6.451-1.857h-1.415v3.581h-.979v-3.581h-1.398v-.778h3.792v.778Zm3.195 3.581a1.498 1.498 0 0 1-.113-.407 1.526 1.526 0 0 1-1.145.488c-.437 0-.795-.125-1.071-.375a1.199 1.199 0 0 1-.415-.927c0-.464.172-.82.516-1.067.346-.25.84-.375 1.482-.375h.6v-.286c0-.226-.063-.406-.189-.54-.126-.137-.318-.205-.576-.205a.854.854 0 0 0-.548.169.512.512 0 0 0-.213.423h-.979c0-.239.079-.462.237-.669.159-.209.374-.373.645-.491.274-.119.579-.178.914-.178.511 0 .918.129 1.221.387.304.255.459.615.467 1.08v1.966c0 .392.056.705.166.939v.068h-.999Zm-1.076-.705c.193 0 .374-.047.544-.141a.928.928 0 0 0 .386-.379v-.821h-.527c-.363 0-.636.063-.818.189a.613.613 0 0 0-.274.536c0 .188.062.338.185.451.126.11.294.165.504.165Zm5.523-.499 1.29-3.155h1.224v4.359h-.979v-2.884l-1.2 2.884h-.665l-1.205-2.901v2.901h-.979v-4.359h1.233l1.281 3.155Zm6.338-3.155h.975v4.359h-.975v-2.909l-1.708 2.909h-.975v-4.359h.975v2.909l1.708-2.909Z" fill="#0A0A0A"/><path d="M26.468 151.252h-.535v1.976h-.58v-4.399h.58v1.939h.453l1.538-1.939h.722l-1.68 2.133 1.804 2.266h-.71l-1.592-1.976Zm4.765 1.976a1.167 1.167 0 0 1-.079-.344 1.25 1.25 0 0 1-.93.404c-.323 0-.588-.09-.795-.271a.892.892 0 0 1-.308-.695c0-.341.129-.605.386-.792.26-.189.625-.284 1.094-.284h.544v-.257a.621.621 0 0 0-.175-.465c-.117-.117-.29-.176-.517-.176a.82.82 0 0 0-.502.151c-.134.101-.202.223-.202.366h-.562c0-.163.057-.32.172-.471.117-.153.274-.274.472-.363.2-.089.418-.133.655-.133.377 0 .672.095.886.284.213.188.324.446.332.777v1.505c0 .3.038.538.115.716v.048h-.586Zm-.928-.426a.979.979 0 0 0 .499-.136.82.82 0 0 0 .341-.354v-.67h-.438c-.685 0-1.027.2-1.027.601a.51.51 0 0 0 .175.411.672.672 0 0 0 .45.148Zm4.956-2.843v3.269h-.563v-2.807h-1.111l-.067 1.224c-.036.562-.13.964-.284 1.205-.151.242-.392.368-.722.378h-.224v-.493l.16-.012c.182-.02.312-.124.39-.314.079-.189.13-.54.151-1.051l.06-1.399h2.21Zm.749 1.604c0-.32.062-.608.187-.864.127-.256.302-.453.526-.592a1.44 1.44 0 0 1 .77-.209c.446 0 .805.154 1.08.462.275.309.413.719.413 1.23v.04c0 .318-.061.604-.184.858-.121.252-.295.448-.523.589a1.44 1.44 0 0 1-.78.211c-.443 0-.802-.154-1.078-.462-.274-.308-.411-.716-.411-1.224v-.039Zm.562.067c0 .362.084.653.25.873.17.219.396.329.678.329.284 0 .51-.111.676-.332.168-.224.251-.536.251-.937 0-.358-.085-.649-.257-.87a.806.806 0 0 0-.677-.336.802.802 0 0 0-.667.33c-.17.219-.254.534-.254.943Zm5.877 0c0 .497-.114.898-.341 1.202a1.095 1.095 0 0 1-.925.456c-.397 0-.71-.125-.937-.377v1.574h-.559v-4.526h.51l.028.362c.228-.282.544-.423.949-.423.393 0 .703.148.93.444.23.296.345.708.345 1.236v.052Zm-.559-.064c0-.369-.078-.66-.236-.873a.758.758 0 0 0-.646-.32.822.822 0 0 0-.762.45v1.562a.823.823 0 0 0 .768.447c.268 0 .48-.106.637-.317.16-.214.239-.53.239-.949Zm3.387-1.607h.56v3.269h-.56v-2.384l-1.508 2.384h-.558v-3.269h.559v2.387l1.507-2.387Zm3.572 0h.559v3.269h-.56v-2.384l-1.507 2.384h-.559v-3.269h.56v2.387l1.507-2.387Zm.151-1.191a.75.75 0 0 1-.25.589c-.166.147-.384.221-.654.221s-.488-.075-.655-.224a.747.747 0 0 1-.251-.586h.456a.46.46 0 0 0 .115.332c.077.079.188.118.335.118.142 0 .251-.039.33-.118.08-.078.12-.189.12-.332H49Zm3.977 4.46h-.56v-1.396h-1.501v1.396h-.562v-3.269h.562v1.417h1.501v-1.417h.56v3.269Zm.752-1.665c0-.32.062-.608.187-.864a1.42 1.42 0 0 1 .526-.592c.226-.139.482-.209.77-.209.446 0 .805.154 1.08.462.275.309.413.719.413 1.23v.04c0 .318-.061.604-.184.858-.121.252-.295.448-.523.589a1.44 1.44 0 0 1-.78.211c-.443 0-.802-.154-1.078-.462-.274-.308-.411-.716-.411-1.224v-.039Zm.562.067c0 .362.084.653.25.873.17.219.396.329.678.329.283 0 .51-.111.676-.332.168-.224.251-.536.251-.937 0-.358-.086-.649-.257-.87a.806.806 0 0 0-.677-.336.802.802 0 0 0-.667.33c-.17.219-.254.534-.254.943Zm4.427 1.202c.199 0 .373-.06.522-.181a.638.638 0 0 0 .248-.453h.529c-.01.187-.075.365-.194.534-.118.17-.278.305-.477.405a1.36 1.36 0 0 1-.628.151c-.446 0-.8-.148-1.064-.444-.262-.298-.393-.705-.393-1.22v-.094c0-.318.059-.601.175-.849.117-.248.284-.44.502-.577.22-.137.478-.206.777-.206.366 0 .67.11.912.33.244.219.374.504.39.855h-.529a.762.762 0 0 0-.242-.52.74.74 0 0 0-.531-.206c-.285 0-.505.103-.662.309-.155.203-.233.498-.233.885v.106c0 .376.078.667.233.87.155.203.377.305.665.305Zm4.357-2.42h-1.097v2.816h-.56v-2.816h-1.075v-.453h2.732v.453Zm1.154.674h.85c.37.004.663.1.878.29.216.189.324.446.324.77 0 .327-.111.588-.333.786-.221.197-.52.296-.894.296H63.67v-3.269h.56v1.127Zm0 .456v1.23h.831c.21 0 .372-.054.486-.16a.584.584 0 0 0 .173-.445.607.607 0 0 0-.17-.444c-.11-.117-.266-.177-.468-.181h-.852Zm6.587.208h.61v.457h-.61v1.021h-.562v-1.021h-2.003v-.33l1.97-3.048h.595v2.921Zm-1.93 0h1.368v-2.157l-.066.121-1.303 2.036Zm5.804-.398c0 .654-.112 1.141-.335 1.459-.224.318-.574.477-1.049.477-.47 0-.817-.155-1.042-.465-.226-.312-.343-.777-.35-1.396v-.746c0-.647.11-1.127.335-1.442.223-.314.574-.471 1.051-.471.473 0 .822.152 1.046.456.223.303.338.77.344 1.402v.726Zm-.559-.765c0-.473-.067-.818-.2-1.033-.132-.218-.343-.327-.63-.327s-.496.108-.626.324c-.131.215-.199.547-.203.994v.894c0 .476.069.827.206 1.055.139.225.348.338.628.338.276 0 .48-.107.614-.32.135-.214.205-.55.211-1.009v-.916Zm4.034.765c0 .654-.112 1.141-.336 1.459-.223.318-.573.477-1.048.477-.47 0-.817-.155-1.043-.465-.225-.312-.342-.777-.35-1.396v-.746c0-.647.112-1.127.335-1.442.224-.314.575-.471 1.052-.471.473 0 .822.152 1.045.456.224.303.339.77.345 1.402v.726Zm-.56-.765c0-.473-.066-.818-.199-1.033-.133-.218-.343-.327-.631-.327-.286 0-.495.108-.626.324-.13.215-.198.547-.202.994v.894c0 .476.069.827.206 1.055.138.225.348.338.628.338.276 0 .48-.107.613-.32.135-.214.206-.55.212-1.009v-.916Zm3.887 1.248h-.408v1.393h-.562v-3.269h.562v1.384h.365l1.1-1.384h.677l-1.293 1.571 1.402 1.698h-.71l-1.133-1.393Zm3.342 0h-.408v1.393h-.562v-3.269h.562v1.384h.365l1.1-1.384h.677l-1.293 1.571 1.402 1.698h-.71l-1.133-1.393Zm4.342 1.393a1.17 1.17 0 0 1-.079-.344 1.25 1.25 0 0 1-.93.404c-.323 0-.588-.09-.795-.271a.892.892 0 0 1-.308-.695c0-.341.129-.605.386-.792.26-.189.625-.284 1.094-.284h.544v-.257a.621.621 0 0 0-.175-.465c-.117-.117-.29-.176-.517-.176a.82.82 0 0 0-.501.151c-.135.101-.203.223-.203.366h-.562c0-.163.058-.32.172-.471.117-.153.274-.274.472-.363.2-.089.418-.133.655-.133.377 0 .672.095.886.284.213.188.324.446.332.777v1.505c0 .3.038.538.115.716v.048h-.586Zm-.928-.426a.979.979 0 0 0 .499-.136.82.82 0 0 0 .341-.354v-.67h-.438c-.685 0-1.027.2-1.027.601a.51.51 0 0 0 .175.411.672.672 0 0 0 .45.148Zm4.956-2.843v3.269h-.562v-2.807H91.53l-.067 1.224c-.036.562-.13.964-.284 1.205-.15.242-.392.368-.722.378h-.224v-.493l.16-.012c.182-.02.312-.124.39-.314.079-.189.13-.54.151-1.051l.06-1.399h2.21Z" fill="#85B921"/><path d="M32.46 244.766h-6.507M30.347 242.662s2.114 1.119 2.114 2.103c0 .984-2.114 2.103-2.114 2.103M24.814 249.885h6.507M26.928 251.989s-2.114-1.119-2.114-2.103c0-.984 2.114-2.103 2.114-2.103" stroke="#E99A8B" stroke-width=".774" stroke-linecap="round" stroke-linejoin="round"/><path d="M41.24 246.413a.66.66 0 0 0-.26-.549c-.175-.137-.41-.205-.71-.205a.995.995 0 0 0-.64.205.63.63 0 0 0-.258.521h-.889c0-.279.078-.529.233-.747.155-.219.37-.388.645-.508.275-.122.578-.183.91-.183.587 0 1.043.128 1.367.384.327.256.49.615.49 1.075 0 .233-.07.447-.211.642a1.426 1.426 0 0 1-.592.462c.286.099.505.249.655.451.153.2.23.449.23.747 0 .461-.177.828-.53 1.1-.352.271-.822.406-1.41.406-.361 0-.69-.065-.983-.194a1.488 1.488 0 0 1-.66-.529 1.372 1.372 0 0 1-.218-.768h.889c0 .22.091.407.275.56.183.15.416.226.698.226.315 0 .567-.074.758-.222a.696.696 0 0 0 .289-.579c0-.289-.085-.498-.254-.627-.167-.132-.413-.197-.737-.197h-.603v-.706h.571c.63 0 .945-.255.945-.765Zm3.994 3.734a1.33 1.33 0 0 1-.099-.356 1.334 1.334 0 0 1-1 .426c-.384 0-.696-.109-.938-.328a1.046 1.046 0 0 1-.364-.81c0-.407.15-.718.452-.935.303-.218.735-.327 1.297-.327h.525v-.251a.66.66 0 0 0-.165-.472c-.11-.12-.279-.18-.505-.18a.746.746 0 0 0-.479.148.448.448 0 0 0-.187.37h-.856c0-.209.069-.404.208-.585a1.38 1.38 0 0 1 .564-.43c.24-.103.506-.155.8-.155.446 0 .802.113 1.068.338.266.224.402.539.409.945v1.72c0 .344.048.617.145.822v.06h-.875Zm-.941-.617c.17 0 .328-.041.476-.124a.817.817 0 0 0 .338-.331v-.719h-.462c-.317 0-.555.055-.715.166a.535.535 0 0 0-.24.468c0 .165.054.297.162.395.11.097.258.145.441.145Zm4.833-.437 1.128-2.761h1.072v3.815h-.857v-2.524l-1.05 2.524h-.582l-1.054-2.538v2.538h-.857v-3.815h1.08l1.12 2.761Zm4.844 1.124c-.543 0-.984-.17-1.322-.511-.336-.343-.504-.799-.504-1.368v-.105c0-.381.073-.721.218-1.019.148-.301.355-.535.62-.702.266-.167.562-.25.89-.25.519 0 .92.166 1.201.497.285.331.427.8.427 1.407v.345h-2.493c.026.315.13.564.314.747a.95.95 0 0 0 .698.275c.393 0 .712-.158.959-.476l.462.441a1.552 1.552 0 0 1-.614.532c-.253.125-.539.187-.856.187Zm-.102-3.268a.728.728 0 0 0-.572.247c-.143.165-.234.394-.274.688h1.632v-.064c-.02-.287-.096-.503-.23-.649-.133-.148-.32-.222-.556-.222Zm5.53 3.198h-.856v-1.541h-1.484v1.541H56.2v-3.815h.857v1.59h1.484v-1.59h.857v3.815Zm3.297-3.815h.853v3.815h-.853v-2.546l-1.495 2.546h-.853v-3.815h.853v2.546l1.495-2.546Zm4.766.681h-1.237v3.134h-.857v-3.134h-1.223v-.681h3.317v.681Zm1.495.532h.839c.312 0 .585.054.817.162a1.187 1.187 0 0 1 .713 1.135c0 .393-.139.708-.416.945-.278.238-.647.357-1.107.36h-1.703v-3.815h.857v1.213Zm0 .688v1.23h.835c.21 0 .374-.052.494-.155.122-.106.183-.255.183-.448a.589.589 0 0 0-.18-.455c-.117-.113-.277-.17-.48-.172h-.852Zm6.648-1.689c.48 0 .864.161 1.153.483.29.32.434.754.434 1.304v.043c0 .549-.158.995-.473 1.336-.312.34-.738.511-1.276.511-.524 0-.947-.174-1.269-.522-.322-.348-.483-.823-.483-1.424v-.247c0-.823.146-1.474.437-1.953.292-.479.726-.779 1.305-.899.324-.066.533-.135.627-.208a.364.364 0 0 0 .145-.303h.69c0 .237-.038.43-.116.578a.91.91 0 0 1-.356.363c-.16.092-.435.179-.825.261-.357.075-.63.209-.818.402-.185.193-.31.459-.373.8.34-.35.74-.525 1.198-.525Zm-.169.687c-.277 0-.495.094-.652.282-.158.186-.236.473-.236.861 0 .366.077.652.232.856.156.205.376.307.663.307.285 0 .504-.102.66-.307.157-.207.236-.517.236-.931 0-.329-.08-.588-.237-.779-.155-.192-.377-.289-.666-.289Zm5.669-.899v3.815h-.857v-3.124h-1.079l-.07 1.329c-.045.64-.168 1.099-.37 1.379-.2.277-.507.416-.92.416h-.265l-.003-.712.176-.018c.188-.026.324-.14.409-.342.087-.204.142-.576.165-1.114l.071-1.629h2.743Zm1.84 1.534h.719c.064-.487.252-.876.564-1.167.313-.291.707-.437 1.184-.437.515 0 .932.166 1.252.497.322.331.496.771.522 1.318l.003.201c0 .376-.073.712-.218 1.009-.144.296-.35.525-.62.687a1.763 1.763 0 0 1-.931.243c-.494 0-.9-.153-1.217-.458-.314-.306-.497-.707-.546-1.206h-.712v1.594h-.857v-3.815h.857v1.534Zm1.555.412c0 .393.08.701.243.924a.792.792 0 0 0 .677.331c.289 0 .513-.112.673-.338.16-.226.24-.556.24-.991 0-.392-.084-.699-.25-.92a.789.789 0 0 0-.67-.335.786.786 0 0 0-.667.335c-.164.221-.246.553-.246.994Zm3.349 1.185c.237-.266.395-.517.475-.755.083-.239.132-.545.149-.916l.049-1.46h2.647v3.131h.53v1.819h-.854v-1.135h-2.447v1.135h-.867l.004-1.819h.313Zm1.004 0h1.463v-2.394h-.962l-.025.73c-.033.7-.191 1.255-.476 1.664Zm3.296-1.259c0-.373.074-.709.222-1.008.148-.301.356-.531.624-.691a1.75 1.75 0 0 1 .924-.243c.515 0 .932.166 1.251.497.322.331.496.771.522 1.318l.004.201c0 .376-.073.712-.219 1.009-.143.296-.35.525-.62.687a1.763 1.763 0 0 1-.931.243c-.538 0-.97-.178-1.294-.536-.322-.359-.483-.837-.483-1.434v-.043Zm.857.074c0 .393.081.701.243.924a.792.792 0 0 0 .677.331c.29 0 .514-.112.673-.338.162-.226.244-.556.244-.991 0-.385-.084-.691-.25-.916a.788.788 0 0 0-.674-.339.786.786 0 0 0-.666.335c-.165.221-.247.553-.247.994Z" fill="#E99A8B"/><path d="M28.481 168.692h.892v5.132h-.892v-3.655l-2.253 3.655h-.892v-5.132h.892v3.659l2.253-3.659Zm5.108 5.132h-.857v-1.54h-1.484v1.54h-.856v-3.814h.856v1.59h1.484v-1.59h.857v3.814Zm3.455-3.123h-1.657v3.123h-.853v-3.814h2.51v.691Zm3.825 1.255c0 .59-.134 1.061-.402 1.414-.268.35-.628.525-1.079.525-.418 0-.753-.138-1.005-.412v1.808h-.856v-5.281h.79l.035.388c.251-.306.593-.458 1.026-.458.465 0 .83.174 1.092.521.266.346.399.826.399 1.442v.053Zm-.853-.074c0-.381-.077-.683-.23-.906a.736.736 0 0 0-.648-.335c-.35 0-.602.145-.755.434v1.692c.155.296.41.444.762.444a.734.734 0 0 0 .638-.328c.155-.221.233-.554.233-1.001Zm3.26 2.013c-.542 0-.983-.17-1.322-.511-.336-.343-.504-.799-.504-1.368v-.106c0-.38.073-.72.219-1.019.148-.3.355-.534.62-.701.266-.167.562-.25.889-.25.52 0 .92.165 1.202.497.284.331.426.8.426 1.406v.346h-2.492c.026.315.13.564.314.747a.954.954 0 0 0 .698.275c.392 0 .712-.159.959-.476l.462.441a1.552 1.552 0 0 1-.614.532c-.254.125-.54.187-.857.187Zm-.102-3.268a.725.725 0 0 0-.57.247c-.144.164-.236.393-.276.687h1.632v-.063c-.018-.287-.095-.503-.229-.649-.134-.148-.32-.222-.557-.222Zm2.316 2.514c.238-.266.396-.517.476-.755.082-.24.132-.545.148-.916l.05-1.46h2.647v3.131h.529v1.819h-.853v-1.136H46.04v1.136h-.867l.004-1.819h.313Zm1.005 0h1.463v-2.394h-.962l-.025.73c-.033.7-.192 1.255-.476 1.664Zm5.774-3.131h.854v3.814h-.854v-2.545l-1.494 2.545h-.853v-3.814h.853v2.545l1.494-2.545Zm3.445 3.885c-.543 0-.984-.17-1.322-.511-.337-.343-.505-.799-.505-1.368v-.106c0-.38.073-.72.219-1.019.148-.3.355-.534.62-.701.266-.167.562-.25.889-.25.52 0 .92.165 1.202.497.284.331.426.8.426 1.406v.346h-2.492c.026.315.13.564.314.747a.954.954 0 0 0 .698.275c.392 0 .712-.159.959-.476l.462.441a1.552 1.552 0 0 1-.614.532c-.254.125-.54.187-.856.187Zm-.103-3.268a.725.725 0 0 0-.57.247c-.144.164-.236.393-.276.687h1.633v-.063c-.02-.287-.096-.503-.23-.649-.134-.148-.32-.222-.557-.222Zm5.532 3.197h-.857v-1.54h-1.484v1.54h-.857v-3.814h.857v1.59h1.484v-1.59h.856v3.814Zm3.916-3.133h-1.237v3.133h-.857v-3.133h-1.223v-.681h3.317v.681Zm1.495.532h.839c.312 0 .585.054.818.162.232.108.409.26.528.455.123.195.184.422.184.68 0 .393-.139.708-.416.945-.278.237-.647.357-1.107.359h-1.703v-3.814h.857v1.213Zm3.86 2.601h-.857v-3.814h.857v3.814Zm-3.86-1.914v1.231h.835c.21 0 .374-.052.494-.156.122-.105.183-.255.183-.447a.587.587 0 0 0-.18-.455c-.117-.113-.277-.17-.48-.173h-.852ZM37.066 188.811h-.68v-4.576h-2.531v4.576h-.677v-5.133h3.888v5.133Zm1.844-3.814v3.282h1.396v-3.282h.652v3.282h1.393v-3.282h.655v3.814h-4.752v-3.814h.656Zm6.709 3.885c-.517 0-.938-.17-1.262-.508-.325-.341-.487-.796-.487-1.364v-.12c0-.379.072-.716.215-1.012.146-.298.348-.531.606-.698.261-.169.543-.254.847-.254.495 0 .88.164 1.156.49.275.327.412.795.412 1.403v.272h-2.584c.01.376.119.68.328.913.212.23.48.345.804.345.23 0 .425-.047.585-.141.16-.094.3-.218.42-.373l.398.31c-.32.491-.8.737-1.438.737Zm-.081-3.42a.867.867 0 0 0-.663.289c-.179.19-.29.458-.331.804h1.91v-.049c-.019-.332-.108-.588-.268-.769-.16-.183-.376-.275-.648-.275Zm5.443 3.349h-.653v-1.629h-1.752v1.629h-.655v-3.814h.655v1.653h1.752v-1.653h.653v3.814Zm3.405 0c-.038-.075-.068-.209-.092-.402a1.456 1.456 0 0 1-1.085.473c-.377 0-.686-.106-.928-.318a1.04 1.04 0 0 1-.36-.811c0-.397.151-.705.452-.923.303-.221.729-.332 1.276-.332h.635v-.299c0-.228-.068-.409-.205-.543-.136-.136-.337-.205-.602-.205a.948.948 0 0 0-.586.177c-.157.117-.236.259-.236.426H52a.9.9 0 0 1 .201-.55c.137-.178.32-.319.55-.423.233-.103.488-.155.765-.155.44 0 .784.111 1.033.332.25.218.378.52.388.906v1.755c0 .35.045.629.134.836v.056h-.684Zm-1.082-.497c.204 0 .398-.053.581-.159a.955.955 0 0 0 .399-.412v-.783h-.511c-.8 0-1.199.234-1.199.702 0 .204.068.364.205.479a.787.787 0 0 0 .525.173Zm5.57-3.317v3.814h-.656v-1.484h-.984l-.899 1.484h-.705l.96-1.583a1.154 1.154 0 0 1-.565-.412 1.13 1.13 0 0 1-.194-.656c0-.348.13-.627.392-.839.26-.214.61-.322 1.047-.324h1.604Zm-2.387 1.17a.58.58 0 0 0 .19.451.741.741 0 0 0 .505.173h1.036v-1.266h-.938c-.242 0-.435.06-.578.18a.57.57 0 0 0-.215.462Zm6.413 1.019h-.476v1.625h-.656v-3.814h.656v1.614h.426l1.283-1.614h.79l-1.509 1.833 1.636 1.981h-.829l-1.322-1.625Zm5.065 1.625c-.037-.075-.068-.209-.091-.402a1.456 1.456 0 0 1-1.086.473c-.376 0-.685-.106-.927-.318a1.04 1.04 0 0 1-.36-.811c0-.397.15-.705.451-.923.303-.221.729-.332 1.276-.332h.635v-.299c0-.228-.068-.409-.204-.543-.137-.136-.338-.205-.603-.205a.948.948 0 0 0-.585.177c-.158.117-.237.259-.237.426h-.655a.9.9 0 0 1 .2-.55c.137-.178.32-.319.55-.423a1.87 1.87 0 0 1 .766-.155c.439 0 .783.111 1.032.332.25.218.379.52.388.906v1.755c0 .35.045.629.134.836v.056h-.684Zm-1.082-.497c.205 0 .398-.053.582-.159a.955.955 0 0 0 .398-.412v-.783h-.511c-.8 0-1.199.234-1.199.702 0 .204.068.364.205.479a.787.787 0 0 0 .525.173Zm3.367-3.317v3.282h1.396v-3.282h.652v3.282h1.392v-3.282h.656v3.814h-4.752v-3.814h.656Zm7.48 3.814c-.037-.075-.068-.209-.091-.402a1.456 1.456 0 0 1-1.086.473c-.376 0-.685-.106-.927-.318a1.04 1.04 0 0 1-.36-.811c0-.397.15-.705.451-.923.303-.221.729-.332 1.276-.332h.635v-.299c0-.228-.068-.409-.204-.543-.137-.136-.338-.205-.603-.205a.948.948 0 0 0-.585.177c-.158.117-.237.259-.237.426h-.655a.9.9 0 0 1 .2-.55c.137-.178.32-.319.55-.423a1.87 1.87 0 0 1 .766-.155c.439 0 .783.111 1.032.332.25.218.379.52.388.906v1.755c0 .35.045.629.134.836v.056h-.684Zm-1.082-.497c.204 0 .398-.053.582-.159a.956.956 0 0 0 .398-.412v-.783h-.511c-.8 0-1.199.234-1.199.702 0 .204.068.364.205.479a.787.787 0 0 0 .525.173Zm7.562.497h-.652v-1.629h-1.753v1.629h-.655v-3.814h.655v1.653h1.752v-1.653h.653v3.814Zm3.405 0c-.038-.075-.068-.209-.092-.402a1.456 1.456 0 0 1-1.085.473c-.376 0-.686-.106-.928-.318a1.04 1.04 0 0 1-.36-.811c0-.397.151-.705.452-.923.303-.221.729-.332 1.276-.332h.635v-.299c0-.228-.068-.409-.205-.543-.136-.136-.337-.205-.603-.205a.948.948 0 0 0-.585.177c-.157.117-.236.259-.236.426h-.656a.9.9 0 0 1 .201-.55c.137-.178.32-.319.55-.423a1.87 1.87 0 0 1 .765-.155c.44 0 .784.111 1.033.332.25.218.379.52.388.906v1.755c0 .35.045.629.134.836v.056h-.684Zm-1.082-.497c.204 0 .398-.053.581-.159a.956.956 0 0 0 .399-.412v-.783h-.511c-.8 0-1.199.234-1.199.702 0 .204.068.364.204.479a.787.787 0 0 0 .526.173Zm4.505.497v-3.814h1.488c.507 0 .896.089 1.167.268.272.176.409.436.409.779a.787.787 0 0 1-.16.479.987.987 0 0 1-.468.324c.23.055.415.16.553.318a.815.815 0 0 1 .212.564c0 .35-.13.618-.388.804-.256.185-.62.278-1.09.278h-1.723Zm.652-1.674v1.149h1.079c.273 0 .476-.051.61-.152a.5.5 0 0 0 .204-.426c0-.381-.28-.571-.839-.571H91.69Zm0-.522h.843c.61 0 .916-.179.916-.536 0-.357-.289-.542-.867-.554h-.892v1.09Zm3.24.254c0-.374.073-.71.218-1.009.149-.298.353-.528.614-.691a1.68 1.68 0 0 1 .899-.243c.52 0 .939.18 1.258.54.322.359.483.837.483 1.434v.046c0 .372-.071.705-.215 1.001a1.61 1.61 0 0 1-.61.688 1.685 1.685 0 0 1-.91.247c-.516 0-.936-.18-1.258-.54-.32-.359-.48-.835-.48-1.428v-.045Zm.656.077c0 .423.097.763.292 1.019.198.256.46.384.79.384a.937.937 0 0 0 .79-.388c.195-.26.292-.625.292-1.092 0-.419-.1-.757-.3-1.016a.94.94 0 0 0-.79-.391.937.937 0 0 0-.778.384c-.198.256-.296.623-.296 1.1Zm3.349 1.333.225-.279c.254-.329.399-.822.434-1.48l.06-1.523h2.457v3.282h.49v1.653h-.652v-1.121h-2.662v1.121h-.652l.003-1.653h.297Zm.772 0h1.752V185.6h-1.174l-.039.909c-.04.759-.22 1.349-.54 1.77Zm5.199.603c-.517 0-.937-.17-1.262-.508-.324-.341-.486-.796-.486-1.364v-.12c0-.379.072-.716.215-1.012.146-.298.348-.531.606-.698.261-.169.543-.254.846-.254.496 0 .882.164 1.157.49.275.327.412.795.412 1.403v.272h-2.584c.009.376.119.68.328.913.211.23.479.345.804.345.23 0 .425-.047.585-.141.16-.094.299-.218.419-.373l.399.31c-.32.491-.799.737-1.439.737Zm-.081-3.42a.864.864 0 0 0-.662.289c-.179.19-.289.458-.332.804h1.911v-.049c-.019-.332-.108-.588-.268-.769-.16-.183-.376-.275-.649-.275Zm4.093 1.266c0-.532.071-1.042.212-1.53.143-.489.356-.933.638-1.333.282-.399.574-.681.878-.846l.133.43c-.343.263-.625.665-.846 1.206a5.257 5.257 0 0 0-.359 1.815l-.004.3c0 .907.166 1.694.497 2.362.2.399.438.712.712.938l-.133.398c-.313-.174-.612-.465-.896-.874-.555-.799-.832-1.755-.832-2.866Zm4.985-3.053v.553h-.12c-.508.01-.912.16-1.213.451-.301.292-.474.702-.521 1.231.27-.31.639-.466 1.107-.466.446 0 .802.158 1.068.473.268.315.402.721.402 1.22 0 .528-.145.951-.434 1.269-.287.317-.672.476-1.156.476-.492 0-.89-.188-1.195-.565-.306-.378-.459-.864-.459-1.459v-.25c0-.945.201-1.667.603-2.165.404-.5 1.005-.757 1.802-.768h.116Zm-.857 2.312c-.223 0-.429.067-.617.201a1.048 1.048 0 0 0-.391.504v.24c0 .423.095.764.286 1.022.19.259.427.388.712.388a.826.826 0 0 0 .691-.324c.169-.216.253-.5.253-.85 0-.352-.085-.637-.257-.853a.815.815 0 0 0-.677-.328Zm5.57.635c0 .764-.13 1.331-.391 1.703-.261.371-.669.557-1.223.557-.548 0-.953-.181-1.217-.543-.263-.365-.399-.908-.409-1.629v-.871c0-.754.131-1.315.392-1.681.261-.367.67-.55 1.227-.55.552 0 .958.177 1.219.532.261.353.395.898.402 1.636v.846Zm-.652-.892c0-.552-.078-.954-.233-1.206-.155-.253-.4-.38-.736-.38-.334 0-.577.125-.73.377-.153.251-.232.638-.236 1.16v1.043c0 .555.079.965.239 1.23.162.264.407.395.734.395.322 0 .56-.124.715-.373.158-.25.24-.642.247-1.178v-1.068Zm5.81-.194h-1.76v3.275h-.655v-3.814h2.415v.539Zm3.888 2.813c.233 0 .436-.07.61-.211a.746.746 0 0 0 .289-.529h.617a1.186 1.186 0 0 1-.226.624 1.473 1.473 0 0 1-.557.472c-.23.118-.475.177-.733.177-.519 0-.933-.173-1.241-.519-.305-.347-.458-.822-.458-1.424v-.109c0-.371.068-.702.204-.991.137-.289.332-.513.585-.673.257-.16.559-.24.906-.24.428 0 .783.128 1.065.384.284.257.436.589.455.998h-.617a.888.888 0 0 0-.282-.606.863.863 0 0 0-.621-.24c-.331 0-.588.12-.772.36-.181.237-.271.581-.271 1.033v.123c0 .439.09.778.271 1.015.181.238.44.356.776.356Zm3.497-.493.888-2.859h.698l-1.533 4.403c-.238.634-.615.952-1.132.952l-.123-.011-.243-.046v-.529l.176.014c.221 0 .392-.044.515-.133.124-.09.226-.253.306-.49l.145-.388-1.361-3.772h.712l.952 2.859Zm3.451-1.467.846-1.392h.762l-1.248 1.886 1.287 1.928h-.755l-.881-1.428-.882 1.428h-.757l1.286-1.928-1.248-1.886h.755l.835 1.392Zm2.059.48c0-.374.073-.71.219-1.009.148-.298.352-.528.613-.691a1.68 1.68 0 0 1 .899-.243c.519 0 .939.18 1.258.54.322.359.483.837.483 1.434v.046c0 .372-.071.705-.215 1.001a1.607 1.607 0 0 1-.61.688 1.683 1.683 0 0 1-.909.247c-.517 0-.937-.18-1.259-.54-.319-.359-.479-.835-.479-1.428v-.045Zm.656.077c0 .423.097.763.292 1.019a.948.948 0 0 0 .79.384.938.938 0 0 0 .79-.388c.195-.26.292-.625.292-1.092 0-.419-.1-.757-.299-1.016a.942.942 0 0 0-.79-.391.936.936 0 0 0-.779.384c-.198.256-.296.623-.296 1.1Zm6.102-1.949h.652v3.814h-.652v-2.781l-1.759 2.781h-.652v-3.814h.652v2.785l1.759-2.785Zm.176-1.389a.876.876 0 0 1-.292.687c-.193.172-.447.258-.762.258s-.57-.087-.765-.261a.873.873 0 0 1-.292-.684h.532c0 .164.044.294.134.388.089.091.22.137.391.137a.52.52 0 0 0 .384-.137c.094-.092.141-.221.141-.388h.529Zm-109.37 13.578h-.477v1.625H33.1v-3.814h.656v1.614h.427l1.283-1.614h.79l-1.51 1.833 1.636 1.981h-.828l-1.322-1.625Zm5.932-.24c0 .581-.133 1.048-.398 1.403a1.277 1.277 0 0 1-1.079.533c-.463 0-.827-.147-1.093-.441v1.837h-.652v-5.281h.596l.032.423c.265-.329.634-.494 1.106-.494.459 0 .82.173 1.086.518.268.346.402.827.402 1.442v.06Zm-.652-.074c0-.43-.092-.77-.275-1.019a.885.885 0 0 0-.755-.373c-.394 0-.69.175-.888.525v1.822c.195.348.494.522.896.522.312 0 .56-.123.743-.37.186-.249.279-.618.279-1.107Zm2.69.984.888-2.859h.698l-1.533 4.403c-.238.634-.615.952-1.132.952l-.123-.011-.244-.046v-.529l.177.014c.22 0 .392-.044.514-.133.125-.09.227-.253.307-.49l.145-.388-1.361-3.772h.712l.952 2.859Zm5.291.955h-.652v-3.275h-1.756v3.275h-.655v-3.814h3.063v3.814Zm1.76-2.499h.99c.432.004.774.117 1.026.338.251.221.377.521.377.899 0 .381-.13.686-.388.917-.258.23-.606.345-1.043.345H48.6v-3.814h.652v1.315Zm3.754 2.499h-.656v-3.814h.656v3.814Zm-3.755-1.967v1.435h.97c.244 0 .433-.063.567-.187.134-.127.201-.3.201-.518a.71.71 0 0 0-.197-.519c-.13-.136-.312-.206-.547-.211h-.994Zm6.652 1.435.226-.279c.254-.329.398-.822.434-1.48l.06-1.523h2.457v3.282h.49v1.653h-.653v-1.121h-2.661v1.121h-.652l.003-1.653h.296Zm.772 0h1.752V195.6h-1.174l-.038.909c-.04.759-.22 1.349-.54 1.77Zm3.445-1.41c0-.374.072-.71.218-1.009.148-.298.353-.528.613-.691a1.68 1.68 0 0 1 .9-.243c.519 0 .938.18 1.258.54.322.359.483.837.483 1.434v.046c0 .372-.072.705-.215 1.001a1.61 1.61 0 0 1-.61.688 1.685 1.685 0 0 1-.91.247c-.517 0-.936-.18-1.258-.54-.32-.359-.48-.835-.48-1.428v-.045Zm.655.077c0 .423.098.763.293 1.019.197.256.46.384.79.384a.937.937 0 0 0 .79-.388c.194-.26.292-.625.292-1.092 0-.419-.1-.757-.3-1.016a.94.94 0 0 0-.79-.391.937.937 0 0 0-.779.384c-.197.256-.296.623-.296 1.1Zm6.705-1.949v3.814h-.655v-3.275h-1.298l-.077 1.428c-.043.655-.153 1.124-.332 1.406-.176.282-.457.429-.842.441h-.261v-.575l.187-.014c.211-.023.363-.145.455-.366.091-.221.15-.63.176-1.227l.07-1.632h2.577Zm3.511.539h-1.759v3.275h-.655v-3.814h2.414v.539Zm.325 1.333c0-.374.073-.71.218-1.009.148-.298.353-.528.614-.691a1.68 1.68 0 0 1 .899-.243c.52 0 .939.18 1.258.54.322.359.483.837.483 1.434v.046c0 .372-.072.705-.215 1.001a1.61 1.61 0 0 1-.61.688 1.685 1.685 0 0 1-.91.247c-.516 0-.936-.18-1.258-.54-.32-.359-.48-.835-.48-1.428v-.045Zm.656.077c0 .423.097.763.292 1.019.197.256.46.384.79.384a.937.937 0 0 0 .79-.388c.194-.26.292-.625.292-1.092 0-.419-.1-.757-.3-1.016a.94.94 0 0 0-.79-.391.937.937 0 0 0-.778.384c-.198.256-.296.623-.296 1.1Zm6.102-1.949h.652v3.814h-.652v-2.781l-1.76 2.781h-.652v-3.814h.653v2.785l1.759-2.785Zm.176-1.389a.876.876 0 0 1-.293.687c-.192.172-.446.258-.761.258s-.57-.087-.765-.261a.873.873 0 0 1-.293-.684h.533c0 .164.044.294.134.388.089.091.22.137.39.137a.522.522 0 0 0 .385-.137c.094-.092.141-.221.141-.388h.529Zm3.374 5.203v-3.814h1.487c.508 0 .897.089 1.167.268.273.176.41.436.41.779a.787.787 0 0 1-.16.479.986.986 0 0 1-.468.324c.23.055.414.16.553.318a.815.815 0 0 1 .212.564c0 .35-.13.618-.388.804-.256.185-.62.278-1.09.278h-1.723Zm.652-1.674v1.149h1.078c.273 0 .476-.051.61-.152a.5.5 0 0 0 .205-.426c0-.381-.28-.571-.84-.571h-1.053Zm0-.522h.842c.611 0 .917-.179.917-.536 0-.357-.29-.542-.867-.554h-.892v1.09Zm5.767 2.196c-.038-.075-.068-.209-.091-.402a1.456 1.456 0 0 1-1.086.473c-.376 0-.685-.106-.927-.318a1.04 1.04 0 0 1-.36-.811c0-.397.15-.705.451-.923.303-.221.729-.332 1.276-.332h.635v-.299c0-.228-.068-.409-.205-.543-.136-.136-.337-.205-.602-.205a.948.948 0 0 0-.586.177c-.157.117-.236.259-.236.426h-.655a.9.9 0 0 1 .2-.55c.137-.178.32-.319.55-.423.233-.103.488-.155.765-.155.44 0 .784.111 1.033.332.25.218.379.52.388.906v1.755c0 .35.045.629.134.836v.056h-.684Zm-1.082-.497c.204 0 .398-.053.582-.159a.956.956 0 0 0 .398-.412v-.783h-.511c-.8 0-1.199.234-1.199.702 0 .204.068.364.205.479a.787.787 0 0 0 .525.173Zm5.877-1.368c0 .581-.133 1.048-.399 1.403a1.277 1.277 0 0 1-1.079.533c-.463 0-.827-.147-1.093-.441v1.837h-.652v-5.281h.596l.032.423c.265-.329.634-.494 1.107-.494.458 0 .82.173 1.086.518.267.346.401.827.401 1.442v.06Zm-.653-.074c0-.43-.091-.77-.275-1.019a.885.885 0 0 0-.754-.373c-.395 0-.691.175-.889.525v1.822c.196.348.494.522.896.522.313 0 .56-.123.744-.37.185-.249.278-.618.278-1.107Zm2.672.314h-.475v1.625h-.656v-3.814h.656v1.614h.426l1.283-1.614h.79l-1.509 1.833 1.636 1.981h-.829l-1.322-1.625Zm5.179-2.189h.652v3.814h-.652v-2.781l-1.76 2.781h-.651v-3.814h.652v2.785l1.759-2.785Zm3.204 1.766c0 .524-.069 1.027-.208 1.509a4.39 4.39 0 0 1-.631 1.329c-.282.406-.578.695-.888.867l-.137-.398c.362-.278.652-.708.87-1.291a5.582 5.582 0 0 0 .339-1.946v-.112a5.8 5.8 0 0 0-.155-1.375 4.595 4.595 0 0 0-.434-1.142 2.604 2.604 0 0 0-.62-.787l.137-.398c.31.172.605.458.885.86.282.402.492.845.631 1.329a5.54 5.54 0 0 1 .211 1.555Zm-66.32 14.419c-.064.543-.264.963-.603 1.259-.336.294-.784.441-1.343.441-.606 0-1.093-.218-1.46-.653-.364-.434-.546-1.016-.546-1.745v-.493c0-.477.085-.897.254-1.259a1.91 1.91 0 0 1 .726-.832 2.008 2.008 0 0 1 1.086-.292c.545 0 .982.153 1.311.458.33.303.52.724.575 1.262h-.68c-.06-.409-.187-.705-.385-.888-.195-.184-.469-.275-.821-.275-.433 0-.772.16-1.019.479-.244.32-.367.775-.367 1.364v.498c0 .557.117 1 .35 1.329.232.329.558.493.976.493.376 0 .664-.085.864-.254.202-.171.336-.469.401-.892h.68Zm2.073.674.888-2.859h.698l-1.533 4.403c-.238.634-.615.952-1.132.952l-.123-.011-.244-.046v-.529l.177.014c.22 0 .392-.044.514-.133.125-.09.227-.253.307-.49l.145-.388-1.361-3.772h.712l.952 2.859Zm3.45-1.467.847-1.392h.761l-1.247 1.886 1.286 1.928h-.754l-.882-1.428-.88 1.428h-.759l1.287-1.928-1.248-1.886h.754l.836 1.392Zm2.06.48c0-.374.072-.71.218-1.009.148-.298.353-.528.614-.691a1.68 1.68 0 0 1 .899-.243c.519 0 .939.18 1.258.54.322.359.483.837.483 1.434v.046c0 .372-.072.705-.215 1.001a1.61 1.61 0 0 1-.61.688 1.684 1.684 0 0 1-.91.247c-.516 0-.936-.18-1.258-.54-.32-.359-.48-.835-.48-1.428v-.045Zm.655.077c0 .423.098.763.293 1.019.197.256.46.384.79.384a.937.937 0 0 0 .79-.388c.194-.26.292-.625.292-1.092 0-.419-.1-.757-.3-1.016a.94.94 0 0 0-.79-.391.937.937 0 0 0-.779.384c-.197.256-.296.623-.296 1.1Zm3.494.028c0-.637.123-1.137.37-1.501.247-.365.585-.547 1.015-.547.2 0 .375.034.526.102v-1.632h.652v1.654c.164-.083.357-.124.578-.124.432 0 .772.182 1.019.547.246.364.37.889.37 1.575 0 .562-.123 1.009-.37 1.34-.245.331-.582.497-1.012.497-.228 0-.423-.038-.585-.113v1.506h-.652v-1.495a1.314 1.314 0 0 1-.533.102c-.427 0-.765-.166-1.011-.497-.245-.331-.367-.785-.367-1.361v-.053Zm3.878 0c0-.479-.083-.85-.247-1.114-.165-.265-.391-.398-.68-.398a.984.984 0 0 0-.388.071v2.76c.105.04.237.06.395.06a.78.78 0 0 0 .676-.339c.163-.225.244-.572.244-1.04Zm-3.226.074c0 .428.077.752.23.973.152.221.372.332.658.332.137 0 .26-.021.37-.064v-2.767a.969.969 0 0 0-.362-.06c-.287 0-.508.128-.663.384-.155.256-.233.657-.233 1.202Zm7.95-.102c0 .581-.133 1.048-.399 1.403a1.277 1.277 0 0 1-1.079.533c-.462 0-.827-.147-1.092-.441v1.837h-.653v-5.281h.596l.032.423c.265-.329.634-.494 1.107-.494.458 0 .82.173 1.086.518.268.346.401.827.401 1.442v.06Zm-.653-.074c0-.43-.091-.77-.275-1.019a.885.885 0 0 0-.754-.373c-.395 0-.691.175-.888.525v1.822c.195.348.493.522.895.522.313 0 .56-.123.744-.37.185-.249.278-.618.278-1.107Zm2.69.984.889-2.859h.697l-1.533 4.403c-.237.634-.615.952-1.132.952l-.123-.011-.243-.046v-.529l.176.014c.22 0 .392-.044.515-.133.124-.09.227-.253.306-.49l.145-.388-1.36-3.772h.711l.952 2.859Zm3.36-.67h-.476v1.625h-.656v-3.814h.656v1.614h.426l1.283-1.614h.79l-1.509 1.833 1.636 1.981h-.828l-1.322-1.625Zm5.545-1.661h-1.28v3.286h-.652v-3.286h-1.255v-.528h3.187v.528Zm1.347.787h.99c.433.004.775.117 1.026.338.251.221.377.521.377.899 0 .381-.129.686-.388.917-.258.23-.606.345-1.043.345h-1.615v-3.814h.653v1.315Zm3.754 2.499h-.656v-3.814h.656v3.814Zm-3.754-1.967v1.435h.969c.244 0 .434-.063.568-.187.134-.127.2-.3.2-.518a.71.71 0 0 0-.197-.519c-.13-.136-.311-.206-.546-.211h-.994Zm6.659-.116c0-.532.07-1.042.211-1.53.144-.489.356-.933.638-1.333.282-.399.575-.681.878-.846l.134.43c-.343.263-.625.665-.846 1.206a5.248 5.248 0 0 0-.36 1.815l-.003.3c0 .907.166 1.694.497 2.362.2.399.437.712.712.938l-.134.398c-.312-.174-.61-.465-.895-.874-.555-.799-.832-1.755-.832-2.866Zm3.927-.222h-.624v2.305h-.677v-5.133h.677v2.263h.529l1.794-2.263h.843l-1.96 2.489 2.104 2.644h-.828l-1.858-2.305Zm4.311 1.35.889-2.859h.698l-1.534 4.403c-.237.634-.614.952-1.131.952l-.124-.011-.243-.046v-.529l.176.014c.221 0 .393-.044.515-.133.124-.09.227-.253.307-.49l.144-.388-1.36-3.772h.712l.951 2.859Zm5.394-.91c0 .581-.133 1.048-.398 1.403a1.277 1.277 0 0 1-1.08.533c-.462 0-.826-.147-1.092-.441v1.837h-.652v-5.281h.596l.031.423c.266-.329.635-.494 1.107-.494.459 0 .82.173 1.086.518.268.346.402.827.402 1.442v.06Zm-.652-.074c0-.43-.092-.77-.275-1.019a.885.885 0 0 0-.755-.373c-.394 0-.69.175-.888.525v1.822c.195.348.494.522.895.522.313 0 .561-.123.744-.37.186-.249.279-.618.279-1.107Zm3.839 1.939c-.038-.075-.068-.209-.092-.402a1.456 1.456 0 0 1-1.086.473c-.376 0-.685-.106-.927-.318a1.04 1.04 0 0 1-.36-.811c0-.397.151-.705.452-.923.303-.221.728-.332 1.276-.332h.635v-.299c0-.228-.069-.409-.205-.543-.136-.136-.337-.205-.603-.205a.948.948 0 0 0-.585.177c-.157.117-.236.259-.236.426h-.656a.9.9 0 0 1 .201-.55c.136-.178.32-.319.55-.423.233-.103.488-.155.765-.155.44 0 .784.111 1.033.332.249.218.378.52.388.906v1.755c0 .35.044.629.134.836v.056h-.684Zm-1.082-.497c.204 0 .398-.053.581-.159a.955.955 0 0 0 .398-.412v-.783h-.51c-.8 0-1.2.234-1.2.702 0 .204.069.364.205.479a.787.787 0 0 0 .525.173Zm5.118-2.778H95.3v3.275h-.656v-3.814h2.415v.539Zm2.923 3.275c-.038-.075-.069-.209-.092-.402a1.456 1.456 0 0 1-1.086.473c-.376 0-.685-.106-.927-.318a1.04 1.04 0 0 1-.36-.811c0-.397.15-.705.452-.923.303-.221.728-.332 1.276-.332h.634v-.299c0-.228-.068-.409-.204-.543-.136-.136-.337-.205-.603-.205a.948.948 0 0 0-.585.177c-.157.117-.236.259-.236.426h-.656a.9.9 0 0 1 .201-.55c.136-.178.32-.319.55-.423a1.87 1.87 0 0 1 .765-.155c.44 0 .784.111 1.033.332.249.218.378.52.388.906v1.755c0 .35.044.629.134.836v.056h-.684Zm-1.083-.497c.205 0 .399-.053.582-.159a.956.956 0 0 0 .398-.412v-.783h-.51c-.8 0-1.2.234-1.2.702 0 .204.069.364.205.479a.787.787 0 0 0 .525.173Zm2.634 1.519-.37-.253c.22-.308.336-.626.345-.952v-.589h.638v.511c0 .238-.059.475-.176.712a1.64 1.64 0 0 1-.437.571Zm7.05-6.155v5.133h-.68v-2.126c-.247.071-.471.12-.673.148a5.482 5.482 0 0 1-.691.039c-.586 0-1.02-.127-1.305-.381-.284-.253-.43-.642-.437-1.166v-1.647h.68v1.629c.003.357.084.615.244.772.162.157.435.236.818.236.446 0 .901-.063 1.364-.19v-2.447h.68Zm2.704 5.204c-.517 0-.938-.17-1.262-.508-.324-.341-.486-.796-.486-1.364v-.12c0-.379.071-.716.215-1.012.145-.298.347-.531.606-.698.261-.169.543-.254.846-.254.496 0 .881.164 1.156.49.275.327.413.795.413 1.403v.272h-2.584c.009.376.118.68.328.913.211.23.479.345.803.345.231 0 .426-.047.586-.141a1.48 1.48 0 0 0 .419-.373l.398.31c-.319.491-.799.737-1.438.737Zm-.081-3.42a.868.868 0 0 0-.663.289c-.178.19-.289.458-.331.804h1.911v-.049c-.019-.332-.109-.588-.268-.769-.16-.183-.376-.275-.649-.275Zm5.549 1.484c0 .581-.133 1.048-.399 1.403a1.276 1.276 0 0 1-1.078.533c-.463 0-.828-.147-1.093-.441v1.837h-.652v-5.281h.595l.032.423c.266-.329.635-.494 1.107-.494.458 0 .82.173 1.086.518.268.346.402.827.402 1.442v.06Zm-.652-.074c0-.43-.092-.77-.275-1.019a.887.887 0 0 0-.755-.373c-.395 0-.691.175-.888.525v1.822c.195.348.493.522.895.522a.877.877 0 0 0 .744-.37c.186-.249.279-.618.279-1.107Zm4.6 1.939h-.652v-1.629h-1.752v1.629h-.656v-3.814h.656v1.653h1.752v-1.653h.652v3.814Zm.878-1.942c0-.374.073-.71.218-1.009.148-.298.353-.528.614-.691a1.68 1.68 0 0 1 .899-.243c.519 0 .939.18 1.258.54.322.359.483.837.483 1.434v.046c0 .372-.071.705-.215 1.001a1.607 1.607 0 0 1-.61.688 1.683 1.683 0 0 1-.909.247c-.517 0-.937-.18-1.259-.54-.319-.359-.479-.835-.479-1.428v-.045Zm.656.077c0 .423.097.763.292 1.019a.948.948 0 0 0 .79.384.936.936 0 0 0 .789-.388c.196-.26.293-.625.293-1.092 0-.419-.1-.757-.3-1.016a.939.939 0 0 0-.789-.391.936.936 0 0 0-.779.384c-.198.256-.296.623-.296 1.1Zm5.164 1.403c.233 0 .436-.07.61-.211a.746.746 0 0 0 .289-.529h.617a1.186 1.186 0 0 1-.226.624 1.473 1.473 0 0 1-.557.472c-.23.118-.474.177-.733.177-.519 0-.933-.173-1.241-.519-.305-.347-.458-.822-.458-1.424v-.109c0-.371.068-.702.204-.991.137-.289.332-.513.586-.673.256-.16.558-.24.906-.24.427 0 .782.128 1.064.384.285.257.436.589.455.998h-.617a.888.888 0 0 0-.282-.606.862.862 0 0 0-.62-.24c-.332 0-.589.12-.772.36-.181.237-.272.581-.272 1.033v.123c0 .439.091.778.272 1.015.18.238.439.356.775.356Zm5.376-3.352v3.814h-.656v-3.275h-1.297l-.077 1.428c-.043.655-.153 1.124-.332 1.406-.176.282-.457.429-.842.441h-.261v-.575l.187-.014c.211-.023.363-.145.454-.366.092-.221.151-.63.177-1.227l.07-1.632h2.577Zm3.515 0h.652v3.814h-.652v-2.781l-1.759 2.781h-.653v-3.814h.653v2.785l1.759-2.785Zm1.759 3.814v-3.814h1.488c.507 0 .896.089 1.166.268.273.176.409.436.409.779a.791.791 0 0 1-.158.479.987.987 0 0 1-.469.324c.23.055.415.16.553.318a.816.816 0 0 1 .212.564c0 .35-.129.618-.388.804-.256.185-.619.278-1.089.278h-1.724Zm.652-1.674v1.149h1.079c.272 0 .476-.051.61-.152a.5.5 0 0 0 .204-.426c0-.381-.28-.571-.839-.571h-1.054Zm0-.522h.843c.611 0 .916-.179.916-.536 0-.357-.289-.542-.867-.554h-.892v1.09Zm3.391 3.218-.37-.253c.221-.308.336-.626.346-.952v-.589h.638v.511c0 .238-.059.475-.177.712-.115.238-.26.428-.437.571Zm-106.413 4.36h.11c.387.002.74.093 1.06.271.32.179.568.426.744.741.179.312.268.662.268 1.05 0 .39-.09.744-.268 1.061a1.916 1.916 0 0 1-.74.744 2.176 2.176 0 0 1-1.05.272h-.124v.691h-.656v-.691h-.098c-.393 0-.75-.09-1.072-.268a1.922 1.922 0 0 1-.747-.741 2.134 2.134 0 0 1-.265-1.061c0-.392.088-.746.264-1.061.18-.315.428-.562.748-.74.322-.179.68-.268 1.072-.268h.098v-.726h.656v.726Zm-.754.532c-.442 0-.792.137-1.051.409-.256.27-.384.646-.384 1.128 0 .484.128.862.384 1.132.256.268.609.402 1.058.402h.091v-3.071h-.098Zm.754 0v3.071h.099c.449 0 .799-.138 1.05-.413.254-.277.38-.653.38-1.128 0-.47-.126-.842-.38-1.117-.251-.275-.606-.413-1.064-.413h-.085Zm5.4.272h.653v3.814h-.652v-2.781l-1.76 2.781h-.652v-3.814h.653v2.785l1.759-2.785Zm4.816 3.814h-.652v-1.629h-1.752v1.629h-.656v-3.814h.656v1.653h1.752v-1.653h.652v3.814Zm3.518-3.814h.653v3.814h-.653v-2.781l-1.759 2.781h-.652v-3.814h.652v2.785l1.76-2.785Zm2.888 2.189h-.476v1.625h-.656v-3.814h.656v1.614h.426l1.283-1.614h.79l-1.509 1.833 1.636 1.981h-.829l-1.322-1.625Zm5.178-2.189h.652v3.814h-.652v-2.781l-1.759 2.781h-.652v-3.814h.652v2.785l1.76-2.785Zm3.205 1.766a5.43 5.43 0 0 1-.208 1.509 4.412 4.412 0 0 1-.631 1.329c-.282.406-.579.695-.889.867l-.137-.398c.362-.278.652-.708.87-1.291.221-.585.334-1.234.339-1.946v-.112a5.78 5.78 0 0 0-.155-1.375 4.587 4.587 0 0 0-.434-1.142 2.604 2.604 0 0 0-.62-.787l.137-.398c.31.172.605.458.885.86.282.402.492.845.631 1.329.141.484.212 1.003.212 1.555Zm2.77-.035c0-.532.071-1.042.212-1.53.143-.489.356-.933.638-1.333.282-.399.575-.681.878-.846l.134.43c-.343.263-.625.665-.846 1.206a5.25 5.25 0 0 0-.36 1.815l-.003.3c0 .907.165 1.694.497 2.362.2.399.437.712.712.938l-.134.398c-.313-.174-.611-.465-.896-.874-.554-.799-.831-1.755-.831-2.866Zm3.374-.801h.49c.308-.004.55-.085.726-.243.177-.157.265-.37.265-.638 0-.602-.3-.902-.9-.902-.281 0-.507.081-.676.243-.167.16-.25.372-.25.638h-.653c0-.407.149-.744.445-1.012.298-.27.677-.405 1.135-.405.484 0 .863.128 1.138.384.275.256.413.612.413 1.068 0 .223-.073.44-.219.649-.143.209-.34.365-.588.469.282.089.499.237.652.444.155.207.232.459.232.758 0 .46-.15.826-.45 1.096-.302.27-.693.406-1.175.406-.482 0-.874-.131-1.177-.392-.3-.261-.451-.605-.451-1.033h.655c0 .271.089.487.265.649.176.162.412.243.708.243.315 0 .556-.082.723-.247.167-.164.25-.4.25-.708 0-.299-.091-.528-.275-.688-.183-.159-.447-.242-.793-.246h-.49v-.533Zm6.324.695c0 .764-.13 1.331-.39 1.703-.262.371-.67.557-1.224.557-.548 0-.953-.181-1.216-.543-.264-.365-.4-.908-.41-1.629v-.871c0-.754.131-1.315.392-1.681.26-.367.67-.55 1.227-.55.552 0 .959.177 1.22.532.26.353.394.898.401 1.636v.846Zm-.652-.892c0-.552-.077-.954-.232-1.206-.155-.253-.401-.38-.737-.38-.334 0-.577.125-.73.377-.153.251-.231.638-.236 1.16v1.043c0 .555.08.965.24 1.23.162.264.406.395.733.395.322 0 .56-.124.715-.373.158-.25.24-.642.247-1.178v-1.068Zm5.81-.194h-1.76v3.275h-.655v-3.814h2.415v.539Zm2.073 1.227a5.43 5.43 0 0 1-.208 1.509 4.412 4.412 0 0 1-.631 1.329c-.282.406-.578.695-.889.867l-.137-.398c.362-.278.652-.708.87-1.291.222-.585.334-1.234.339-1.946v-.112a5.78 5.78 0 0 0-.155-1.375 4.583 4.583 0 0 0-.434-1.142 2.605 2.605 0 0 0-.62-.787l.137-.398c.31.172.606.458.885.86.282.402.493.845.631 1.329.141.484.212 1.003.212 1.555Z" fill="#0A0A0A"/><circle cx="26.104" cy="187.226" r="1.289" fill="#85B921"/><circle cx="26.104" cy="211.979" r="1.289" fill="#85B921"/><g filter="url(#f)"><rect x="17.08" y="283.919" width="144.394" height="165.538" rx="15.471" fill="#fff"/></g><path d="M146.002 283.918c8.545 0 15.471 6.927 15.471 15.471v7.736H17.079v-7.736c0-8.544 6.926-15.471 15.47-15.471h113.453Z" fill="#CDB7AA"/><path d="M77.062 298.107h-.889v-4.414h-2.26v4.414h-.888v-5.133h4.037v5.133Zm2.675.07c-.542 0-.983-.17-1.322-.511-.336-.343-.504-.799-.504-1.368v-.105c0-.381.073-.721.219-1.019a1.643 1.643 0 0 1 1.509-.952c.52 0 .92.166 1.202.497.284.332.426.8.426 1.407v.345h-2.492c.026.315.13.564.314.748a.955.955 0 0 0 .698.275c.392 0 .712-.159.959-.476l.461.44a1.554 1.554 0 0 1-.613.533c-.254.124-.54.186-.857.186Zm-.102-3.267a.728.728 0 0 0-.57.246c-.144.165-.236.394-.276.688h1.632v-.064c-.019-.286-.095-.503-.229-.648-.134-.148-.32-.222-.557-.222Zm5.64 1.329c0 .589-.133 1.061-.401 1.413-.268.35-.628.525-1.08.525-.417 0-.752-.137-1.004-.412v1.808h-.856v-5.28h.79l.034.387c.252-.305.594-.458 1.026-.458.466 0 .83.174 1.093.522.266.345.399.826.399 1.442v.053Zm-.853-.074c0-.381-.076-.683-.229-.906a.733.733 0 0 0-.648-.335c-.35 0-.602.144-.755.433v1.692c.155.296.41.445.762.445.272 0 .485-.11.638-.328.155-.221.232-.555.232-1.001Zm3.261 2.012c-.543 0-.983-.17-1.322-.511-.336-.343-.504-.799-.504-1.368v-.105c0-.381.073-.721.219-1.019a1.643 1.643 0 0 1 1.509-.952c.519 0 .92.166 1.202.497.284.332.426.8.426 1.407v.345h-2.492c.026.315.13.564.314.748a.954.954 0 0 0 .698.275c.392 0 .712-.159.959-.476l.461.44a1.554 1.554 0 0 1-.613.533c-.254.124-.54.186-.857.186Zm-.102-3.267a.728.728 0 0 0-.571.246c-.143.165-.235.394-.275.688h1.632v-.064c-.019-.286-.095-.503-.229-.648-.134-.148-.32-.222-.557-.222Zm3.656 1.688h-.434v1.509h-.856v-3.814h.856v1.523h.377l1.054-1.523h1.058l-1.378 1.826 1.494 1.988h-1.114l-1.057-1.509Zm3.976.282.776-2.587h.913l-1.516 4.392c-.233.642-.627.962-1.184.962-.125 0-.263-.021-.413-.063v-.663l.162.011c.216 0 .379-.04.487-.12.11-.078.197-.209.26-.395l.124-.328-1.34-3.796h.924l.807 2.587Zm3.702.614a.777.777 0 0 0 .532-.187.64.64 0 0 0 .226-.462h.807a1.262 1.262 0 0 1-.222.666 1.463 1.463 0 0 1-.564.487c-.237.12-.494.179-.769.179-.533 0-.956-.172-1.269-.518-.312-.345-.469-.822-.469-1.431v-.088c0-.581.156-1.045.466-1.393.31-.35.733-.525 1.269-.525.453 0 .822.133 1.107.398.286.264.437.61.451 1.04h-.807a.78.78 0 0 0-.226-.539.714.714 0 0 0-.532-.211c-.278 0-.491.101-.642.303-.15.199-.227.504-.229.913v.137c0 .414.074.723.222.927.15.202.367.304.649.304Zm6.275.613h-.853v-4.121l-1.259.43v-.723l2.002-.736h.11v5.15Z" fill="#fff"/><path d="M28.304 331.595v-2.191h-1.136l-1.133 2.191h-1.091l1.309-2.493c-.682-.323-1.023-.85-1.023-1.584 0-.561.184-.998.552-1.309.37-.314.886-.474 1.547-.48h1.994v5.866h-1.02Zm-2.06-4.032c0 .33.094.588.279.773.185.185.463.278.834.278h.947v-2.063h-.947c-.376 0-.655.09-.838.27-.183.18-.274.427-.274.742Zm7.1.463H31.45v3.569h-.975v-4.359h2.869v.79Zm.29 1.35c0-.428.084-.812.254-1.153.169-.343.407-.607.713-.789a1.992 1.992 0 0 1 1.055-.278c.589 0 1.065.189 1.43.568.369.378.567.881.597 1.507l.004.229c0 .43-.083.814-.25 1.152a1.81 1.81 0 0 1-.709.786c-.306.185-.66.278-1.064.278-.615 0-1.108-.204-1.478-.612-.368-.411-.552-.958-.552-1.64v-.048Zm.979.084c0 .449.093.801.278 1.056.185.252.443.378.773.378s.587-.128.77-.386c.185-.258.278-.636.278-1.132 0-.441-.095-.79-.286-1.048a.902.902 0 0 0-.77-.387.898.898 0 0 0-.761.383c-.188.252-.282.631-.282 1.136Zm3.63 1.354c.271-.304.453-.591.544-.862.094-.274.15-.623.169-1.048l.056-1.668h3.026v3.578h.604v2.079h-.975v-1.298h-2.796v1.298h-.99l.003-2.079h.359Zm1.148 0h1.672v-2.736h-1.1l-.028.834c-.038.801-.219 1.435-.544 1.902Zm5.004-2.192h.959c.357 0 .669.062.934.185.266.124.468.297.605.52.14.223.21.482.21.778 0 .448-.16.808-.476 1.08-.317.271-.739.408-1.265.41h-1.946v-4.359h.979v1.386Zm4.412 2.973h-.98v-4.359h.98v4.359Zm-4.412-2.187v1.406h.955c.239 0 .427-.059.564-.177.14-.121.21-.292.21-.512 0-.22-.07-.394-.206-.52-.134-.129-.317-.195-.548-.197h-.975Zm10.362-2.172h.975v4.359h-.975v-2.908l-1.708 2.908h-.975v-4.359h.975v2.909l1.708-2.909Zm3.888 2.14c0-.428.085-.812.254-1.153.17-.343.407-.607.713-.789a1.992 1.992 0 0 1 1.056-.278c.588 0 1.065.189 1.43.568.368.378.566.881.596 1.507l.004.229c0 .43-.083.814-.25 1.152a1.81 1.81 0 0 1-.709.786c-.306.185-.66.278-1.063.278-.616 0-1.108-.204-1.479-.612-.368-.411-.552-.958-.552-1.64v-.048Zm.98.084c0 .449.092.801.277 1.056.185.252.443.378.774.378.33 0 .587-.128.77-.386.184-.258.277-.636.277-1.132 0-.441-.095-.79-.286-1.048a.902.902 0 0 0-.77-.387.898.898 0 0 0-.76.383c-.189.252-.283.631-.283 1.136Zm7.718 0c0 .674-.153 1.213-.459 1.616-.306.4-.717.6-1.233.6-.478 0-.86-.157-1.148-.471v2.066h-.979v-6.035h.903l.04.443c.287-.349.678-.523 1.172-.523.532 0 .948.198 1.25.596.303.395.454.944.454 1.648v.06Zm-.975-.084c0-.436-.087-.781-.261-1.036a.84.84 0 0 0-.742-.383c-.4 0-.687.166-.862.496v1.934c.177.338.467.507.87.507a.84.84 0 0 0 .73-.374c.177-.253.265-.634.265-1.144Zm3.727 2.3c-.62 0-1.124-.195-1.51-.584-.385-.392-.577-.913-.577-1.563v-.121c0-.435.083-.823.25-1.165.17-.343.406-.611.709-.801a1.867 1.867 0 0 1 1.015-.286c.594 0 1.052.189 1.374.568.325.378.488.914.488 1.607v.395h-2.849c.03.36.15.645.359.854.212.21.478.314.797.314.449 0 .814-.181 1.096-.543l.528.503a1.78 1.78 0 0 1-.7.609c-.291.142-.617.213-.98.213Zm-.117-3.735a.83.83 0 0 0-.652.282c-.164.188-.269.45-.315.786h1.866v-.073c-.022-.327-.11-.574-.262-.741-.153-.169-.365-.254-.637-.254Zm4.194.73.83-1.435h1.088l-1.334 2.148 1.378 2.211h-1.08l-.87-1.49-.866 1.49H72.23l1.378-2.211-1.33-2.148h1.08l.814 1.435Zm5.306-1.435h.975v4.359h-.975v-2.908l-1.708 2.908h-.975v-4.359h.975v2.909l1.708-2.909Z" fill="#0A0A0A"/><path d="M26.468 342.574h-.535v1.977h-.58v-4.4h.58v1.94h.453l1.538-1.94h.722l-1.68 2.133 1.804 2.267h-.71l-1.592-1.977Zm4.765 1.977a1.184 1.184 0 0 1-.079-.345c-.26.27-.57.405-.93.405-.323 0-.588-.091-.795-.272a.89.89 0 0 1-.308-.695c0-.34.129-.604.386-.792.26-.189.625-.284 1.094-.284h.544v-.257a.623.623 0 0 0-.175-.465c-.117-.117-.29-.175-.517-.175-.2 0-.366.05-.502.151-.134.101-.202.223-.202.366h-.562c0-.164.057-.321.172-.472.117-.153.274-.274.472-.362.2-.089.418-.133.655-.133.377 0 .672.094.886.284.213.187.324.446.332.776v1.505c0 .3.038.539.115.716v.049h-.586Zm-.928-.427a.988.988 0 0 0 .499-.135.826.826 0 0 0 .341-.354v-.671h-.438c-.685 0-1.027.201-1.027.601 0 .176.058.313.175.411a.672.672 0 0 0 .45.148Zm4.956-2.843v3.27h-.563v-2.808h-1.111l-.067 1.224c-.036.562-.13.964-.284 1.206-.151.242-.392.367-.722.378h-.224v-.493l.16-.012c.182-.02.312-.125.39-.314.079-.19.13-.54.151-1.052l.06-1.399h2.21Zm.749 1.605c0-.321.062-.609.187-.865.127-.255.302-.453.526-.592.226-.139.483-.208.77-.208.446 0 .805.154 1.08.462.275.308.413.718.413 1.23v.039c0 .318-.061.604-.184.858-.121.252-.295.448-.523.589a1.44 1.44 0 0 1-.78.212c-.443 0-.802-.154-1.078-.462-.274-.309-.411-.716-.411-1.224v-.039Zm.562.066c0 .363.084.654.25.873.17.22.396.33.678.33.284 0 .51-.111.676-.333.168-.223.251-.536.251-.936 0-.359-.085-.649-.257-.871a.808.808 0 0 0-.677-.335.804.804 0 0 0-.667.329c-.17.22-.254.534-.254.943Zm5.877 0c0 .498-.114.899-.341 1.203a1.095 1.095 0 0 1-.925.456c-.397 0-.71-.126-.937-.378v1.575h-.559v-4.527h.51l.028.363c.228-.282.544-.423.949-.423.393 0 .703.148.93.444.23.296.345.708.345 1.236v.051Zm-.559-.063c0-.369-.078-.66-.236-.874a.76.76 0 0 0-.646-.32.822.822 0 0 0-.762.45v1.562a.822.822 0 0 0 .768.448c.268 0 .48-.106.637-.318.16-.213.239-.529.239-.948Zm3.387-1.608h.56v3.27h-.56v-2.385l-1.508 2.385h-.558v-3.27h.559v2.387l1.507-2.387Zm3.572 0h.559v3.27h-.56v-2.385l-1.507 2.385h-.559v-3.27h.56v2.387l1.507-2.387Zm.151-1.19c0 .243-.084.44-.25.589-.166.147-.384.22-.654.22s-.488-.074-.655-.223a.748.748 0 0 1-.251-.586h.456c0 .141.038.251.115.332.077.079.188.118.335.118.142 0 .251-.039.33-.118a.443.443 0 0 0 .12-.332H49Zm3.977 4.46h-.56v-1.396h-1.501v1.396h-.562v-3.27h.562v1.417h1.501v-1.417h.56v3.27Zm.752-1.665c0-.321.062-.609.187-.865.127-.255.302-.453.526-.592.226-.139.482-.208.77-.208.446 0 .805.154 1.08.462.275.308.413.718.413 1.23v.039c0 .318-.061.604-.184.858-.121.252-.295.448-.523.589a1.44 1.44 0 0 1-.78.212c-.443 0-.802-.154-1.078-.462-.274-.309-.411-.716-.411-1.224v-.039Zm.562.066c0 .363.084.654.25.873.17.22.396.33.678.33.283 0 .51-.111.676-.333.168-.223.251-.536.251-.936 0-.359-.086-.649-.257-.871a.808.808 0 0 0-.677-.335.804.804 0 0 0-.667.329c-.17.22-.254.534-.254.943Zm4.427 1.203c.199 0 .373-.061.522-.182a.636.636 0 0 0 .248-.453h.529c-.01.187-.075.366-.194.535a1.275 1.275 0 0 1-.477.405 1.36 1.36 0 0 1-.628.151c-.446 0-.8-.148-1.064-.444-.262-.298-.393-.705-.393-1.221v-.094c0-.318.059-.601.175-.849.117-.247.284-.44.502-.577.22-.137.478-.205.777-.205.366 0 .67.109.912.329.244.22.374.505.39.855h-.529a.764.764 0 0 0-.773-.725c-.285 0-.505.103-.662.308-.155.204-.233.499-.233.886v.105c0 .377.078.667.233.871.155.203.377.305.665.305Zm4.357-2.421h-1.097v2.817h-.56v-2.817h-1.075v-.453h2.732v.453Zm1.154.674h.85c.37.004.663.101.878.29.216.19.324.446.324.771 0 .326-.111.588-.333.785-.221.198-.52.297-.894.297H63.67v-3.27h.56v1.127Zm0 .456v1.23h.831c.21 0 .372-.053.486-.16a.583.583 0 0 0 .173-.444.607.607 0 0 0-.17-.444c-.11-.117-.266-.178-.468-.182h-.852Zm7.11 1.687h-2.883v-.402l1.523-1.692c.226-.256.381-.464.466-.623.086-.161.13-.327.13-.498 0-.23-.07-.418-.209-.566a.729.729 0 0 0-.556-.22c-.278 0-.495.079-.65.239-.153.157-.23.376-.23.658h-.558c0-.405.13-.732.39-.982.261-.25.61-.374 1.048-.374.409 0 .732.107.97.323.238.213.357.498.357.855 0 .433-.276.949-.828 1.547l-1.179 1.278h2.209v.457Zm3.351-1.877c0 .655-.112 1.141-.335 1.46-.224.318-.574.477-1.049.477-.47 0-.817-.155-1.042-.465-.226-.313-.343-.778-.35-1.396v-.747c0-.646.11-1.127.335-1.441.223-.314.574-.471 1.051-.471.473 0 .822.152 1.046.456.223.302.338.769.344 1.402v.725Zm-.559-.764c0-.474-.067-.818-.2-1.034-.132-.217-.343-.326-.63-.326s-.496.108-.626.323c-.131.216-.199.547-.203.994v.895c0 .475.069.827.206 1.054.139.226.348.339.628.339.276 0 .48-.107.614-.321.135-.213.205-.55.211-1.009v-.915Zm4.034.764c0 .655-.112 1.141-.336 1.46-.223.318-.573.477-1.048.477-.47 0-.817-.155-1.043-.465-.225-.313-.342-.778-.35-1.396v-.747c0-.646.112-1.127.335-1.441.224-.314.575-.471 1.052-.471.473 0 .822.152 1.045.456.224.302.339.769.345 1.402v.725Zm-.56-.764c0-.474-.066-.818-.199-1.034-.133-.217-.343-.326-.631-.326-.286 0-.495.108-.626.323-.13.216-.198.547-.202.994v.895c0 .475.069.827.206 1.054.138.226.348.339.628.339.276 0 .48-.107.613-.321.135-.213.206-.55.212-1.009v-.915Zm3.887 1.248h-.408v1.393h-.562v-3.27h.562v1.384h.365l1.1-1.384h.677l-1.293 1.571 1.402 1.699h-.71l-1.133-1.393Zm3.342 0h-.408v1.393h-.562v-3.27h.562v1.384h.365l1.1-1.384h.677l-1.293 1.571 1.402 1.699h-.71l-1.133-1.393Zm4.342 1.393a1.188 1.188 0 0 1-.079-.345c-.26.27-.57.405-.93.405-.323 0-.588-.091-.795-.272a.89.89 0 0 1-.308-.695c0-.34.129-.604.386-.792.26-.189.625-.284 1.094-.284h.544v-.257a.623.623 0 0 0-.175-.465c-.117-.117-.29-.175-.517-.175-.2 0-.366.05-.501.151-.135.101-.203.223-.203.366h-.562c0-.164.058-.321.172-.472.117-.153.274-.274.472-.362.2-.089.418-.133.655-.133.377 0 .672.094.886.284.213.187.324.446.332.776v1.505c0 .3.038.539.115.716v.049h-.586Zm-.928-.427a.988.988 0 0 0 .499-.135.826.826 0 0 0 .341-.354v-.671h-.438c-.685 0-1.027.201-1.027.601 0 .176.058.313.175.411a.672.672 0 0 0 .45.148Zm4.956-2.843v3.27h-.562v-2.808H91.53l-.067 1.224c-.036.562-.13.964-.284 1.206-.15.242-.392.367-.722.378h-.224v-.493l.16-.012c.182-.02.312-.125.39-.314.079-.19.13-.54.151-1.052l.06-1.399h2.21Z" fill="#85B921"/></g><g clip-path="url(#g)" filter="url(#h)"><path fill="#fff" d="M6.764 6.187h162.92v43.446H6.764z"/><path fill="#fff" d="M6.764 6.187h162.92v43.446H6.764z"/><path fill-rule="evenodd" clip-rule="evenodd" d="m20.664 37.65-3.7-3.404-3.732 3.386a.385.385 0 0 0-.019.561c.156.16.418.168.584.018l.228-.207v2.645c0 .462.391.837.873.837h4.131c.482 0 .872-.374.872-.837v-2.602l.198.182c.166.15.428.142.584-.018a.385.385 0 0 0-.019-.56Zm-1.589-.367-2.11-1.95-2.113 1.92v3.396c0 .024.02.044.046.044h4.131c.026 0 .046-.02.046-.044v-3.366Z" fill="#3D4043"/><rect x="27.13" y="29.72" width="103.183" height="16.292" rx="8.146" fill="#F1F3F4"/><path d="M36.973 36.885h-.283v-.56c0-.773-.634-1.4-1.414-1.4-.78 0-1.415.627-1.415 1.4v.56h-.282a.565.565 0 0 0-.566.56v2.802c0 .308.255.56.566.56h3.394a.565.565 0 0 0 .566-.56v-2.801a.565.565 0 0 0-.566-.56Zm-2.546 0v-.56c0-.465.38-.84.849-.84.47 0 .848.375.848.84v.56h-1.697Z" fill="#3D4043"/><path d="M45.558 38.17c0 .546-.125.986-.375 1.32a1.2 1.2 0 0 1-1.014.5c-.436 0-.778-.138-1.028-.414v1.727h-.613v-4.965h.56l.03.397c.25-.309.597-.464 1.04-.464.432 0 .772.163 1.022.488.252.324.378.776.378 1.355v.057Zm-.614-.069c0-.404-.086-.724-.258-.958a.833.833 0 0 0-.71-.351c-.37 0-.65.164-.835.494v1.713c.184.327.464.49.842.49a.826.826 0 0 0 .7-.347c.174-.234.261-.581.261-1.041Zm3.13-1.213a1.835 1.835 0 0 0-.302-.023c-.402 0-.675.17-.819.513v2.546h-.613v-3.586h.596l.01.414c.202-.32.487-.48.856-.48.119 0 .21.015.271.046v.57Zm.337 1.21c0-.352.069-.668.206-.948.14-.28.331-.497.577-.65.247-.152.529-.229.845-.229.488 0 .883.17 1.183.508.303.338.454.787.454 1.348v.044c0 .349-.067.663-.202.941a1.51 1.51 0 0 1-.573.646 1.58 1.58 0 0 1-.855.232c-.487 0-.881-.169-1.184-.507-.3-.338-.45-.785-.45-1.342v-.043Zm.617.073c0 .397.092.717.275.958a.89.89 0 0 0 .743.36.882.882 0 0 0 .742-.364c.184-.245.275-.587.275-1.027 0-.394-.094-.712-.282-.955a.884.884 0 0 0-.742-.368.88.88 0 0 0-.733.361c-.185.241-.278.586-.278 1.035Zm3.623 1.753v-3.112h-.567v-.474h.567v-.305c0-.4.114-.712.341-.935.23-.223.554-.335.972-.335.247 0 .56.068.938.202l-.103.517a2.125 2.125 0 0 0-.79-.165c-.262 0-.452.06-.57.179-.114.117-.172.294-.172.53v.312H54v.474h-.733v3.112h-.616Zm2.555 0h-.616v-3.586h.616v3.586Zm1.83-4.455v.869h.67v.474h-.67v2.224c0 .143.03.252.09.325.06.07.16.106.305.106.07 0 .168-.014.291-.04v.497a1.778 1.778 0 0 1-.47.066c-.274 0-.481-.083-.62-.248-.14-.166-.21-.401-.21-.706v-2.224h-.652v-.474h.653v-.869h.613Zm1.969.869.02.45a1.307 1.307 0 0 1 1.074-.517c.758 0 1.14.428 1.147 1.283v2.37h-.614v-2.373c-.002-.259-.061-.45-.178-.574-.115-.123-.296-.185-.54-.185a.885.885 0 0 0-.525.159c-.15.106-.267.245-.35.417v2.556h-.614v-3.586h.58Zm4.654 3.652c-.486 0-.882-.159-1.187-.477-.305-.32-.457-.748-.457-1.283v-.112c0-.356.067-.673.202-.952.137-.28.327-.5.57-.656.245-.16.51-.239.796-.239.466 0 .828.154 1.087.461.258.307.388.747.388 1.32v.255h-2.43c.009.353.111.64.308.858.199.217.45.325.756.325.216 0 .4-.044.55-.133.15-.088.282-.205.395-.351l.374.292c-.3.461-.751.692-1.352.692Zm-.076-3.215a.815.815 0 0 0-.624.272c-.168.179-.271.43-.311.756h1.796v-.047c-.017-.311-.101-.552-.252-.722-.15-.173-.353-.259-.61-.259Zm4.275 2.198a.446.446 0 0 0-.189-.385c-.123-.093-.341-.172-.653-.238a3.122 3.122 0 0 1-.739-.239 1.068 1.068 0 0 1-.404-.331.8.8 0 0 1-.13-.458c0-.294.124-.542.372-.746.25-.203.568-.305.955-.305.406 0 .735.105.987.315.254.21.381.479.381.806h-.616a.552.552 0 0 0-.216-.434.794.794 0 0 0-.536-.183c-.224 0-.398.049-.524.146a.459.459 0 0 0-.19.381c0 .148.06.26.177.335.117.075.328.147.633.215.307.069.555.15.745.246.19.095.33.21.421.344.093.133.14.295.14.488 0 .32-.129.578-.385.772-.256.192-.589.288-.998.288-.287 0-.541-.05-.762-.152a1.257 1.257 0 0 1-.52-.424 1.04 1.04 0 0 1-.186-.594h.613a.642.642 0 0 0 .246.49c.154.12.358.18.61.18.231 0 .417-.047.556-.14a.436.436 0 0 0 .212-.377Zm3.5 0a.446.446 0 0 0-.188-.385c-.124-.093-.342-.172-.653-.238a3.123 3.123 0 0 1-.74-.239 1.068 1.068 0 0 1-.404-.331.8.8 0 0 1-.13-.458c0-.294.125-.542.372-.746.25-.203.568-.305.955-.305.406 0 .736.105.988.315.254.21.38.479.38.806h-.616a.552.552 0 0 0-.215-.434.794.794 0 0 0-.537-.183c-.223 0-.398.049-.524.146a.46.46 0 0 0-.189.381c0 .148.059.26.176.335.117.075.328.147.633.215.307.069.556.15.746.246.19.095.33.21.42.344.093.133.14.295.14.488 0 .32-.128.578-.385.772-.256.192-.589.288-.997.288-.288 0-.542-.05-.763-.152a1.257 1.257 0 0 1-.52-.424 1.04 1.04 0 0 1-.186-.594h.614a.642.642 0 0 0 .245.49c.154.12.358.18.61.18.232 0 .417-.047.556-.14a.436.436 0 0 0 .213-.377Zm3.998 1.452H72.32v-.5h3.036v.5Zm1.144-.5h-.614v-5.092h.614v5.091Zm1.65 0h-.613v-3.587h.613v3.586Zm-.663-4.539c0-.1.03-.183.09-.252.062-.068.152-.102.272-.102.119 0 .21.034.272.102a.363.363 0 0 1 .092.252.35.35 0 0 1-.092.249c-.062.066-.153.1-.272.1-.12 0-.21-.034-.272-.1a.357.357 0 0 1-.09-.249Zm1.95 4.538v-3.112h-.567v-.474h.566v-.368c0-.385.103-.682.309-.892.205-.21.496-.315.871-.315.142 0 .282.019.421.056l-.033.498a1.77 1.77 0 0 0-.331-.03c-.2 0-.353.059-.461.176-.108.114-.162.28-.162.497v.378h.765v.474h-.765v3.112h-.614Zm3.466.066c-.486 0-.881-.159-1.186-.477-.305-.32-.458-.748-.458-1.283v-.112c0-.356.068-.673.203-.952.137-.28.327-.5.57-.656.245-.16.51-.239.795-.239.466 0 .829.154 1.087.461.259.307.388.747.388 1.32v.255h-2.43c.01.353.112.64.309.858.199.217.45.325.756.325.216 0 .4-.044.55-.133.15-.088.282-.205.394-.351l.375.292c-.3.461-.752.692-1.353.692Zm-.076-3.215a.815.815 0 0 0-.623.272c-.168.179-.272.43-.311.756h1.796v-.047c-.018-.311-.102-.552-.252-.722-.15-.173-.353-.259-.61-.259Z" fill="#000"/><path fill-rule="evenodd" clip-rule="evenodd" d="M139.838 34.132c-1.074 0-1.944.87-1.944 1.945v3.578c0 1.074.87 1.944 1.944 1.944h3.578c1.074 0 1.945-.87 1.945-1.944v-3.578a1.945 1.945 0 0 0-1.945-1.945h-3.578Zm-1.167 1.945c0-.645.523-1.167 1.167-1.167h3.578c.645 0 1.167.523 1.167 1.167v3.578c0 .644-.522 1.167-1.167 1.167h-3.578a1.167 1.167 0 0 1-1.167-1.167v-3.578Zm2.806 3.6h.588v-3.552h-.075l-1.381.508v.498l.868-.296v2.841Z" fill="#3D4043"/><g clip-path="url(#i)"><path d="M158.372 36.055a.908.908 0 0 0 .905-.905.908.908 0 0 0-.905-.905.908.908 0 0 0-.905.905c0 .498.407.905.905.905Zm0 .906a.908.908 0 0 0-.905.905c0 .497.407.905.905.905a.908.908 0 0 0 .905-.905.908.908 0 0 0-.905-.905Zm0 2.715a.908.908 0 0 0-.905.905c0 .498.407.905.905.905a.908.908 0 0 0 .905-.905.908.908 0 0 0-.905-.905Z" fill="#3D4043"/></g><g clip-path="url(#j)"><path d="m152.944 21.364 3.071-3.826c-.119-.09-1.302-1.395-3.073-1.395-1.774 0-2.954 1.306-3.073 1.395l3.07 3.826.003.002.002-.002Z" fill="#000" fill-opacity=".54"/></g><g clip-path="url(#k)"><path d="M142.157 21.498h5.28v-5.28l-5.28 5.28Z" fill="#000" fill-opacity=".54"/></g><g clip-path="url(#l)"><path d="M161.635 16.747h-.832v-.529h-1.108v.529h-.832v4.355h2.772v-4.355Z" fill="#000" fill-opacity=".54"/></g><path d="M17.099 22.136h-.936v-3.608l-1.117.347v-.761l1.953-.7h.1v4.722Zm4.709-1.95c0 .653-.135 1.151-.405 1.497-.27.345-.665.518-1.185.518-.514 0-.907-.17-1.18-.509-.271-.338-.41-.824-.417-1.457v-.868c0-.658.136-1.158.408-1.5.274-.34.668-.511 1.182-.511.514 0 .907.17 1.18.508.271.337.41.822.417 1.454v.868Zm-.936-.952c0-.39-.054-.674-.162-.851-.106-.18-.272-.27-.499-.27-.22 0-.383.086-.489.257-.103.168-.159.432-.165.793v1.147c0 .384.052.67.155.858.106.186.275.278.506.278.229 0 .394-.09.495-.268.102-.18.155-.454.159-.823v-1.12Zm1.655 2.442c0-.149.05-.27.149-.362a.54.54 0 0 1 .379-.14c.153 0 .28.047.379.14a.469.469 0 0 1 .152.362.47.47 0 0 1-.149.36.545.545 0 0 1-.382.136.54.54 0 0 1-.38-.136.47.47 0 0 1-.148-.36Zm0-2.652c0-.15.05-.27.149-.363a.54.54 0 0 1 .379-.14c.153 0 .28.047.379.14a.469.469 0 0 1 .152.363.47.47 0 0 1-.149.36.545.545 0 0 1-.382.135.54.54 0 0 1-.38-.136.47.47 0 0 1-.148-.36Zm4.962 1.162c0 .653-.135 1.151-.405 1.497-.27.345-.665.518-1.186.518-.513 0-.906-.17-1.178-.509-.272-.338-.412-.824-.418-1.457v-.868c0-.658.136-1.158.408-1.5.274-.34.668-.511 1.182-.511.514 0 .907.17 1.179.508.272.337.411.822.418 1.454v.868Zm-.936-.952c0-.39-.054-.674-.162-.851-.106-.18-.272-.27-.499-.27-.22 0-.383.086-.49.257-.103.168-.158.432-.164.793v1.147c0 .384.052.67.155.858.106.186.274.278.505.278.23 0 .395-.09.496-.268.102-.18.154-.454.159-.823v-1.12Zm4.744.952c0 .653-.135 1.151-.404 1.497-.27.345-.666.518-1.186.518-.514 0-.907-.17-1.179-.509-.272-.338-.411-.824-.418-1.457v-.868c0-.658.137-1.158.409-1.5.274-.34.668-.511 1.182-.511.514 0 .907.17 1.179.508.272.337.41.822.417 1.454v.868Zm-.936-.952c0-.39-.054-.674-.162-.851-.105-.18-.272-.27-.498-.27-.22 0-.384.086-.49.257-.103.168-.158.432-.164.793v1.147c0 .384.051.67.155.858.106.186.274.278.505.278.229 0 .394-.09.496-.268.101-.18.154-.454.158-.823v-1.12Z" fill="#000" fill-opacity=".54"/></g><g clip-path="url(#m)"><path fill="#fff" d="M5.637 335.384h163.587v19.994H5.637z"/><g clip-path="url(#n)"><path fill="#DADCDF" d="M5.637 335.384h163.587v.454H5.637z"/></g><path d="M45.398 342.306v6.15a.329.329 0 0 1-.492.289l-5.25-3.077a.332.332 0 0 1 0-.574l5.25-3.077a.329.329 0 0 1 .492.289Z" fill="#949494"/><g clip-path="url(#o)"><path fill-rule="evenodd" clip-rule="evenodd" d="M90.702 345.381a3.272 3.272 0 1 1-6.544 0 3.272 3.272 0 0 1 6.544 0Zm.454 0a3.726 3.726 0 1 1-7.452 0 3.726 3.726 0 0 1 7.452 0Zm-3.701 2.863a2.84 2.84 0 1 0 0-5.68 2.84 2.84 0 0 0 0 5.68Z" fill="#949494"/></g><path d="M134.367 342.291h-4.807a.689.689 0 0 0-.687.687v4.807c0 .377.309.686.687.686h4.807a.688.688 0 0 0 .686-.686v-4.807a.689.689 0 0 0-.686-.687Z" fill="#949494"/></g></g><path d="M78.97 14.1c0-.956.775-1.732 1.732-1.732h15.844a1.732 1.732 0 1 1 0 3.465H80.702A1.733 1.733 0 0 1 78.97 14.1ZM102.239 14.1a3.465 3.465 0 1 1 6.93.002 3.465 3.465 0 0 1-6.93-.002Z" fill="#4E4E4E"/><defs><clipPath id="b"><path fill="#fff" transform="translate(6.764 9.57)" d="M0 0h165.022v812.734H0z"/></clipPath><clipPath id="d"><path fill="#fff" transform="translate(144.971 60.623)" d="M0 0h12.377v12.377H0z"/></clipPath><clipPath id="g"><path fill="#fff" transform="translate(6.764 6.187)" d="M0 0h162.92v43.446H0z"/></clipPath><clipPath id="i"><path fill="#fff" transform="translate(152.941 32.435)" d="M0 0h10.861v10.861H0z"/></clipPath><clipPath id="j"><path fill="#fff" transform="translate(149.773 15.69)" d="M0 0h6.336v6.336H0z"/></clipPath><clipPath id="k"><path fill="#fff" transform="translate(141.627 15.69)" d="M0 0h6.336v6.336H0z"/></clipPath><clipPath id="l"><path fill="#fff" transform="translate(157.015 15.69)" d="M0 0h6.336v6.336H0z"/></clipPath><clipPath id="m"><path fill="#fff" transform="translate(5.637 335.384)" d="M0 0h163.587v19.994H0z"/></clipPath><clipPath id="n"><path fill="#fff" transform="translate(5.637 335.384)" d="M0 0h163.587v.454H0z"/></clipPath><clipPath id="o"><path fill="#fff" transform="translate(82.886 340.837)" d="M0 0h9.088v9.088H0z"/></clipPath><filter id="c" x="135.172" y="50.825" width="36.099" height="36.099" filterUnits="userSpaceOnUse" color-interpolation-filters="sRGB"><feFlood flood-opacity="0" result="BackgroundImageFix"/><feColorMatrix in="SourceAlpha" values="0 0 0 0 0 0 0 0 0 0 0 0 0 0 0 0 0 0 127 0" result="hardAlpha"/><feOffset dx="2.063" dy="2.063"/><feGaussianBlur stdDeviation="3.868"/><feColorMatrix values="0 0 0 0 0.521569 0 0 0 0 0.72549 0 0 0 0 0.129412 0 0 0 0.3 0"/><feBlend in2="BackgroundImageFix" result="effect1_dropShadow"/><feBlend in="SourceGraphic" in2="effect1_dropShadow" result="shape"/></filter><filter id="e" x="11.407" y="86.924" width="159.865" height="191.323" filterUnits="userSpaceOnUse" color-interpolation-filters="sRGB"><feFlood flood-opacity="0" result="BackgroundImageFix"/><feColorMatrix in="SourceAlpha" values="0 0 0 0 0 0 0 0 0 0 0 0 0 0 0 0 0 0 127 0" result="hardAlpha"/><feOffset dx="2.063" dy="2.063"/><feGaussianBlur stdDeviation="3.868"/><feColorMatrix values="0 0 0 0 0.576471 0 0 0 0 0.654902 0 0 0 0 0.709804 0 0 0 0.15 0"/><feBlend in2="BackgroundImageFix" result="effect1_dropShadow"/><feBlend in="SourceGraphic" in2="effect1_dropShadow" result="shape"/></filter><filter id="f" x="11.407" y="278.246" width="159.865" height="181.009" filterUnits="userSpaceOnUse" color-interpolation-filters="sRGB"><feFlood flood-opacity="0" result="BackgroundImageFix"/><feColorMatrix in="SourceAlpha" values="0 0 0 0 0 0 0 0 0 0 0 0 0 0 0 0 0 0 127 0" result="hardAlpha"/><feOffset dx="2.063" dy="2.063"/><feGaussianBlur stdDeviation="3.868"/><feColorMatrix values="0 0 0 0 0.576471 0 0 0 0 0.654902 0 0 0 0 0.709804 0 0 0 0.15 0"/><feBlend in2="BackgroundImageFix" result="effect1_dropShadow"/><feBlend in="SourceGraphic" in2="effect1_dropShadow" result="shape"/></filter><filter id="h" x="4.954" y="4.829" width="166.541" height="47.066" filterUnits="userSpaceOnUse" color-interpolation-filters="sRGB"><feFlood flood-opacity="0" result="BackgroundImageFix"/><feColorMatrix in="SourceAlpha" values="0 0 0 0 0 0 0 0 0 0 0 0 0 0 0 0 0 0 127 0" result="hardAlpha"/><feOffset dy=".453"/><feGaussianBlur stdDeviation=".905"/><feColorMatrix values="0 0 0 0 0 0 0 0 0 0 0 0 0 0 0 0 0 0 0.2 0"/><feBlend in2="BackgroundImageFix" result="effect1_dropShadow"/><feBlend in="SourceGraphic" in2="effect1_dropShadow" result="shape"/></filter></defs></svg>