<svg width="60" height="60" viewBox="0 0 60 60" xmlns="http://www.w3.org/2000/svg" fill="none"><g clip-path="url(#a)"><path d="M59.973 24.157c0 .357-.027.741-.055 1.125-.247 5.404-1.509 12.672-5.842 18.131-2.935 3.675-6.748 5.65-10.643 6.693.027.302.027.604.027.933 0 1.646-5.294 2.962-11.795 2.962s-11.795-1.344-11.795-2.962c0-.302 0-.576.027-.85-3.868-1.042-7.625-2.99-10.615-6.775-.357-.439-.658-.878-.987-1.344-3.511-5.212-4.608-11.74-4.855-16.677-.027-.384-.027-.768-.027-1.125-.027-.686-.027-1.344-.027-1.975l.027-1.097c.082-2.057.247-3.346.247-3.346h56.038s.164 1.234.247 3.237c.027.357.027.713.027 1.097.027.603.027 1.262 0 1.975z" fill="#96C1EA"/><path d="M6.623 17.848s-1.262-5.431 1.454-6.885c2.716-1.454 4.169 1.07 4.169 1.07s1.618-6.693 5.266-6.885c3.648-.192 4.526 1.618 4.526 1.618s.905-2.523 3.072-2.523 2.716 2.002 2.716 2.002 2.523-5.98 8.146-4.361c5.623 1.618 4.526 5.074 4.526 5.074s3.264-3.072 7.79-1.262 1.097 6.528 1.097 6.528 4.526-2.002 4.526 2.359c0 0 3.621-.905 3.072 3.264h-50.36z" fill="#FFDC54"/><path d="M54.106 43.385c-2.935 3.675-6.748 5.651-10.643 6.693.027.302.027.603.027.933 0 1.646-5.294 2.962-11.795 2.962s-11.795-1.344-11.795-2.962c0-.302 0-.576.027-.85-3.868-1.042-7.625-2.99-10.615-6.775-.357-.439-.658-.878-.987-1.344 2.908.933 7.516 2.194 12.59 2.935 6.72.96 14.291.96 19.859-2.112.988-.549 1.893-1.18 2.743-1.893 7.269-6.364 8.146-16.375 7.735-23.123h8.503c-.055 0 2.139 15.744-5.65 25.537z" fill="#699FCC"/><path d="M59.973 22.182c-10.341 1.646-20.078 2.194-28.581 2.194-13.056 0-23.178-1.317-28.005-2.112l.027-1.097c7.762 1.289 30.282 4.114 56.532-.082.027.329.027.713.027 1.097zM59.973 24.157c0 .357-.027.741-.055 1.125-10.313 1.646-20.051 2.194-28.554 2.194-13.002 0-23.095-1.317-27.95-2.085-.027-.384-.027-.768-.027-1.125 7.762 1.234 30.309 4.087 56.587-.11z" fill="#265C91"/><path d="M8.298 28.984c2.057-.741 7.872 8.695 4.416 10.341-3.456 1.618-7.927-9.052-4.416-10.341zM19.379 20.125c.713.905-1.701 1.92-3.209.96-1.481-.96 2.496-1.865 3.209-.96zM47.028 20.125c.713.905-1.701 1.92-3.209.96-1.509-.96 2.469-1.865 3.209-.96zM7.802 19.768c-.082-1.234 6.117-.85 5.952.411-.192 1.755-5.842 1.07-5.952-.411z" fill="#BDDBF4"/><path d="M25.549 14.392c-.302 0-.549-.247-.549-.549 0-.11-.027-2.496-2.139-2.716-2.167-.219-3.045 2.222-3.045 2.249-.082.22-.247.357-.466.357-.219 0-.439-.11-.521-.302-.357-.713-.768-1.07-1.18-1.097-.713-.055-1.536.85-1.783 1.179-.165.247-.521.302-.768.137-.247-.165-.302-.521-.137-.768.137-.192 1.289-1.728 2.743-1.646.576.055 1.07.329 1.509.85.658-1.07 1.893-2.249 3.758-2.057 2.469.247 3.127 2.606 3.127 3.813 0 .302-.247.549-.549.549zM46.589 15.407c-.247 0-.466-.165-.521-.439-.192-.878-.576-1.426-1.125-1.646-1.042-.439-2.606.302-3.127.631-.219.137-.494.11-.658-.055-.192-.165-.219-.439-.11-.658.055-.137.631-1.399-.768-2.606-1.509-1.317-4.252.055-4.279.082-.274.137-.603.027-.741-.247-.137-.274-.027-.603.247-.741.137-.082 3.429-1.701 5.486.082 1.042.878 1.344 1.893 1.317 2.715.823-.329 2.03-.631 3.045-.192.905.384 1.509 1.179 1.783 2.414.055.302-.11.576-.411.658h-.137zM8.902 12.883c.905-.96 2.222.494 1.152 1.563-1.07 1.097-2.057-.604-1.152-1.563zM32.105 14.777c.741-.384 1.728.439.823 1.536-.933 1.097-2.194-.823-.823-1.536zM46.588 7.151c1.097 0 1.536 1.728 0 1.81-1.536.11-1.07-1.81 0-1.81zM31.502 6.081c1.234-.823 2.359.631.878 2.002-1.454 1.344-2.112-1.207-.878-2.002zM50.755 15.653c.055-.905 2.002 0 1.81.658-.165.631-1.893.768-1.81-.658zM17.677 7.535c.466-.466 2.935.713 1.838 1.893-1.097 1.179-3.017-.713-1.838-1.893zM19.79 15.654c.713-.796 1.618-.082 1.618.658s-2.304.137-1.618-.658z" fill="#ECB729"/><path d="M25.383 7.15c.631-.631 1.481.823.686 1.454-.768.631-1.317-.823-.686-1.454zM37.261 11.787c.823-.549 2.633.631 1.262 1.618-1.344 1.015-2.085-1.07-1.262-1.618zM30.101 12.198c.549-.768 1.673.933.741 1.481-.933.549-1.289-.713-.741-1.481zM37.343 3.722c.85-.439 1.947 1.618.631 2.112-1.317.494-1.865-1.454-.631-2.112zM12.108 15.297c.933-1.097 1.947 1.097 1.07 1.454-.878.384-1.893-.466-1.07-1.454zM43.461 15.407c.357-.439 1.756.549.933 1.372-.795.795-1.591-.549-.933-1.372z" fill="#FFF0C7"/><path d="M27.848 50.302l.049-.145c.412-.994-.049-2.133-1.042-2.545l-18.254-7.66c-.994-.412-2.133.048-2.545 1.042l-.048.145c-.412.994.048 2.133 1.042 2.545l18.254 7.66c.97.436 2.133-.048 2.545-1.042zM.064 39.103s6.085 6.545 7.806 2.497c.242-.582.145-1.042-.194-1.382-1.115-1.188-4.848-1.212-6.642-1.164l-.97.048z" fill="#ECB729"/><path d="M1.035 39.054c1.867 1.673 5.357 4.242 6.57 1.333l.073-.17c-1.139-1.188-4.848-1.212-6.642-1.164z" fill="#FFDC54"/><path d="M2.684 43.709s8.073 3.879 8.17-.509c.024-.63-.242-1.018-.679-1.236-1.479-.703-4.97.63-6.594 1.358-.558.218-.897.388-.897.388z" fill="#ECB729"/><path d="M3.557 43.297c2.351.873 6.521 1.988 6.618-1.164v-.17c-1.479-.703-4.97.63-6.618 1.333z" fill="#FFDC54"/><path d="M5.957 36s7.951 4.097 4.533 6.836c-.485.388-.97.412-1.382.194-1.455-.752-2.497-4.339-2.909-6.085-.17-.582-.242-.945-.242-.945z" fill="#ECB729"/><path d="M6.176 36.946c2.109 1.333 5.527 4 3.054 5.964l-.145.097c-1.43-.752-2.473-4.339-2.909-6.061z" fill="#FFDC54"/><path d="M9.447 37.43s7.951 4.097 4.533 6.836c-.485.388-.97.412-1.382.194-1.454-.752-2.497-4.339-2.909-6.085l-.242-.945z" fill="#ECB729"/><path d="M9.664 38.376c2.109 1.333 5.527 4 3.054 5.964l-.145.097c-1.43-.727-2.473-4.315-2.909-6.061z" fill="#FFDC54"/><path d="M13.084 38.74s7.224 5.285 3.418 7.442c-.558.315-1.018.267-1.406-.024-1.309-.97-1.794-4.679-1.939-6.448-.073-.582-.073-.97-.073-.97z" fill="#ECB729"/><path d="M13.133 39.709c1.891 1.648 4.824 4.824 2.085 6.376l-.17.073c-1.285-.97-1.745-4.679-1.915-6.448z" fill="#FFDC54"/><path d="M16.043 40.242s7.515 4.873 3.83 7.248c-.533.339-.994.315-1.406.049-1.358-.897-2.036-4.558-2.303-6.327l-.121-.97z" fill="#ECB729"/><path d="M16.164 41.212c1.964 1.551 5.091 4.533 2.448 6.254l-.146.097c-1.357-.921-2.036-4.582-2.303-6.351z" fill="#FFDC54"/><path d="M19.434 41.891s7.37 5.091 3.612 7.345c-.533.315-1.018.291-1.406.024-1.333-.945-1.915-4.63-2.109-6.4-.073-.582-.097-.97-.097-.97z" fill="#ECB729"/><path d="M19.531 42.861c1.939 1.6 4.97 4.679 2.279 6.303l-.145.073c-1.358-.921-1.939-4.606-2.133-6.376z" fill="#FFDC54"/><path d="M22.295 42.594s7.515 4.848 3.83 7.248c-.533.339-.994.315-1.406.048-1.358-.897-2.061-4.557-2.303-6.327-.097-.582-.121-.97-.121-.97z" fill="#ECB729"/><path d="M22.418 43.564c1.988 1.551 5.115 4.533 2.473 6.23l-.145.097c-1.382-.897-2.085-4.558-2.327-6.327z" fill="#FFDC54"/><path d="M6.199 47.006s8.848 1.309 7.66-2.909c-.17-.606-.533-.897-1.018-.97-1.624-.218-4.557 2.085-5.915 3.224l-.727.655z" fill="#ECB729"/><path d="M6.928 46.376c2.497.145 6.836-.024 5.963-3.055l-.048-.17c-1.624-.242-4.558 2.061-5.915 3.224z" fill="#FFDC54"/><path d="M9.496 48.678s8.921.8 7.491-3.345c-.218-.606-.582-.873-1.067-.921-1.624-.145-4.436 2.327-5.721 3.564-.461.436-.703.703-.703.703z" fill="#ECB729"/><path d="M10.174 47.999c2.497 0 6.812-.412 5.794-3.394l-.073-.17c-1.624-.145-4.436 2.327-5.721 3.564z" fill="#FFDC54"/><path d="M12.551 49.721s8.921.8 7.491-3.345c-.218-.606-.582-.873-1.067-.921-1.624-.145-4.436 2.327-5.721 3.564-.461.436-.703.703-.703.703z" fill="#ECB729"/><path d="M13.229 49.042c2.497 0 6.812-.412 5.794-3.394l-.073-.17c-1.624-.145-4.436 2.327-5.721 3.564z" fill="#FFDC54"/><path d="M15.143 51.006s8.8 1.624 7.757-2.642c-.145-.606-.509-.921-.994-.994-1.6-.291-4.63 1.915-6.012 3.03-.461.364-.752.606-.752.606z" fill="#ECB729"/><path d="M15.895 50.4c2.497.242 6.812.194 6.06-2.861l-.048-.17c-1.6-.267-4.63 1.915-6.012 3.03z" fill="#FFDC54"/><path d="M18.926 52.436s8.897.97 7.539-3.2c-.194-.606-.582-.873-1.042-.921-1.624-.17-4.46 2.255-5.794 3.467-.436.388-.703.654-.703.654z" fill="#ECB729"/><path d="M19.629 51.781c2.497.049 6.812-.291 5.842-3.297l-.073-.17c-1.6-.145-4.436 2.255-5.77 3.467z" fill="#FFDC54"/><path d="M44.189 52.872c-4.509 0-8.267-.412-10.957-.873-4.364-.727-6.86-1.6-6.957-1.648-.315-.121-.485-.461-.364-.776s.461-.485.776-.364c.097.024 10.036 3.539 24.63 2.085.339-.024.63.218.655.533.024.339-.218.63-.533.654-2.57.267-4.994.388-7.248.388z" fill="#ECB729"/></g><defs><clipPath id="a"><path fill="#fff" d="M0 0h60v60h-60z"/></clipPath></defs></svg>