<svg width="95" height="90" viewBox="0 0 95 90" xmlns="http://www.w3.org/2000/svg" fill="none"><mask id="a" style="mask-type:alpha" maskUnits="userSpaceOnUse" x="0" y="0" width="95" height="90"><rect width="95" height="90" rx="20" fill="#C4C4C4"/></mask><g mask="url(#a)"><path d="M110.513.067h-125.583v126.137h125.583v-126.137z" fill="url(#b)"/><path d="M78.184 0h-52.543l1.353 2.435c2.645 3.396 5.17 6.914 7.35 10.631 1.852 3.154 3.714 6.645 3.877 10.388.25 5.701-3.627 9.877-6.66 14.269-3.231 4.67-6.488 9.331-9.581 14.096l-.078.121c-3.567 5.51-7.893 16.383-4.739 27.837 4.093 11.246 11.908 17.432 14.045 22.309 2.843 6.489 12.925 24.138 12.925 24.138h29.735s-14.389-38.555-16.974-44.524c0 0 3.783-5.839 7.402-8.699 0 0 8.97-8.776 8.625-19.511-.345-10.734 0-17.31 2.413-22.673 2.412-5.363 4.48-11.436 3.619-17.492-.836-5.883-1.68-9.08-.767-13.325z" fill="url(#c)"/><path opacity=".45" d="M48.88 55.838s5.256 3.119 12.58 6.576c4.937 2.331 7.522 2.348 8.815 2.105.629-1.265 1.198-2.634 1.654-4.089-3.438-.485-9.194-2.998-10.727-4.072-1.723-1.213-5.859-3.812-5.859-3.812-4.567-2.772-8.961-4.93-15.768-7.269-5.523-1.897-10.133-2.201-11.684-2.244-.655.953-1.318 1.915-1.965 2.876 2.438.607 6.798 1.863 12.356 4.219 7.143 3.032 10.598 5.709 10.598 5.709z" fill="#E5825C"/><path d="M70.046 62.38l-.121-.017c-3.576 4.159-11.46 13.351-18.835 22.075 1.534 2.426 2.938 4.93 4.239 7.494 1.379 2.72 2.645 5.501 3.834 8.308 1.241 2.929 2.421 5.883 3.559 8.855.301.771.594 1.542.887 2.321 3.972-11.938 2.499-36.258 3.972-39.047 1.051-2.001 2.663-6.948 3.584-9.92-.379-.017-.75-.035-1.12-.069z" fill="url(#d)"/><path opacity=".45" d="M66.671 84.247c-.724-.139-1.586-.147-2.12-.095-1.422.13-4.592.321-5.041.39-.448.061.129 2.859.129 2.859s4.205.936 6.953-.754l.078-2.4z" fill="#E5825C"/><path d="M71.04 61.063c-2.818 3.275-12.235 14.235-20.731 24.293 5.092.849 9.03 1.508 10.366 1.733 1.784.294 3.903-.139 5.928-.901.233-6.914.302-12.554.965-13.819 1.232-2.339 3.222-8.707 3.989-11.237l-.517-.069z" fill="url(#e)"/><path opacity=".26" d="M60.679 87.089c1.784.294 3.903-.139 5.928-.901.06-1.724.103-3.362.155-4.878-3.74-1.248-8.841.901-8.841.901s-.379 2.564-.543 4.323l3.3.555z" fill="url(#f)"/><path d="M17.159 79.785c4.093 11.246 11.908 17.432 14.045 22.309 2.843 6.489 12.924 24.137 12.924 24.137h29.735s-5.997-18.289-10.581-31.657c-3.291-7.754-7.04-16.132-8.289-17.874-2.24-3.119-12.925-1.213-17.405-1.213s-15.509-1.733-18.784-2.253c-1.499-.234-2.275-.078-2.68.173.112 2.079.439 4.219 1.034 6.377z" fill="url(#g)"/><path opacity=".36" d="M60.333 6.074s1.896 6.922-.689 12.294c-2.585 5.363-9.133 13.845-10.684 22.153-1.551 8.309-.689 18.87 2.929 20.603 3.619 1.733 6.893-4.323 7.066-12.121.172-7.789-.345-17.137 2.757-22.153 3.102-5.016 6.032-15.578 2.93-22.673-3.102-7.104-4.308 1.897-4.308 1.897z" fill="url(#h)"/><path opacity=".15" d="M66.118 6.351c-.353.823.801 3.561 1.017 4.496.612 2.747.965 5.415.939 8.239-.06 5.657-1.18 11.237-1.31 16.895-.112 5.129 2.223 10.232.629 15.309-.793 2.521-2.473 4.73-2.973 7.33-.078.39-.121.814.043 1.178.758 1.69 2.886-.494 3.205-1.386 1.034-2.859 3.877-6.489 3.231-11.557-.646-5.06-.646-15.578.517-17.787 1.163-2.209 5.945-9.608 4.136-18.567l-2.197-1.819s2.326 3.119 1.163 7.139-3.619 5.839-4.007 3.509c-.388-2.339-.129-8.958 1.292-12.337 1.422-3.362-5.299-1.551-5.687-.641z" fill="#E5825C"/><path opacity=".15" d="M79.292 12.485c-.31-1.646-4.403-3.665-7.66-5.025-1.267 3.483-1.491 9.643-1.12 11.878.388 2.339 2.843.52 4.007-3.509 1.163-4.029-1.163-7.139-1.163-7.139l2.197 1.819c1.809 8.959-2.973 16.357-4.136 18.567-1.163 2.209-1.163 12.727-.517 17.787.646 5.06-2.197 8.699-3.231 11.558-.543 1.508-1.456 2.001-2.206 2.001-.353.65-.698 1.3-1.051 1.958l-2.146 3.968c2.051-1.456 5.135-4.878 5.135-4.878s4.481-6.749 4.653-13.325c.172-6.576 1.034-15.404 3.274-19.91 2.24-4.505 4.48-12.987 3.963-15.751z" fill="url(#i)"/><path d="M66.894 38.035s-.905 4.93.388 7.139c1.293 2.209 1.034-4.41-.388-7.139z" fill="#E5825C"/><path opacity=".15" d="M33.436 11.566c.31.502.612.996.905 1.508 1.852 3.154 3.714 6.645 3.877 10.388.25 5.701-3.627 9.877-6.66 14.269-3.136 4.54-6.307 9.071-9.323 13.706 4.455 1.048 8.849 1.282 9.107-1.741.517-6.229 9.133-19.043 9.823-26.139.62-6.446-6.428-11.176-7.729-11.991z" fill="url(#j)"/><path opacity=".1" d="M32.755 96.428c-7.875-7.485-10.279-19.026-10.865-22.708-1.301-.199-2.378-.364-3.093-.477-1.499-.234-2.275-.078-2.68.173.121 2.088.448 4.219 1.043 6.377 4.093 11.246 11.908 17.432 14.045 22.309 2.843 6.489 12.924 24.138 12.924 24.138h7.419c-2.654-5.554-10.96-22.379-18.792-29.813z" fill="#E5825C"/><path d="M18.797 73.235c3.274.52 14.303 2.253 18.784 2.253 4.48 0 15.165-1.906 17.405 1.213.569.788 1.654 2.946 2.973 5.787.741-1.741 1.62-3.44 2.628-5.042 1.758-2.807 4.368-4.912 6.35-7.546 1.999-2.66 3.671-5.597 4.748-8.75-5.954-.736-11.201-4.228-15.492-7.304-4.825-3.466-11.029-6.576-19.818-9.002-4.205-1.161-6.988-1.447-8.746-1.43-2.051 2.98-4.084 5.987-5.73 8.525-2.895 4.471-6.29 12.476-5.782 21.46.405-.234 1.18-.398 2.68-.165z" fill="url(#k)"/><path opacity=".34" d="M59.321 58.776c-2.395-2.01-10.667-7.338-15.122-8.828-4.463-1.49-8.53-3.509-11.96-4.28-2.042-.468-4.084-.84-5.446-1.022-.569.832-1.137 1.663-1.689 2.478 1.947.139 10.021.849 13.528 2.894 4.007 2.339 13.7 7.338 16.742 9.669 2.886 2.218 9.719 6.48 14.665 5.302.327-.632.638-1.291.931-1.984-2.585-1.386-9.978-2.824-11.649-4.228z" fill="url(#l)"/><path d="M36.379 44.853c-4.205-1.161-6.988-1.447-8.746-1.43-.75 1.092-1.499 2.183-2.223 3.258 2.628.234 10.279 1.074 14.725 3.301 5.428 2.729 14.863 8.309 18.482 10.778 2.973 2.027 8.229 4.323 11.649 3.769.526-1.057 1.008-2.183 1.413-3.37-5.954-.736-11.201-4.228-15.492-7.304-4.808-3.466-11.02-6.585-19.809-9.002z" fill="url(#m)"/><path opacity=".45" d="M54.244 76.008c-3.266-2.114-12.563-.52-16.655-.52-4.48 0-15.509-1.733-18.784-2.253-1.499-.234-2.275-.078-2.68.173l.009.191c1.12-.104 4.524.398 4.756.45 6.324 1.447 13.045 2.469 19.542 1.785 3.524-.373 10.495-1.239 13.812.173z" fill="#E5825C"/><path opacity=".59" d="M36.925 58.689c-4.308-.858-8.737-.849-13.088-.321-.991.121-4.136.147-5.48.78-1.499 4.081-2.533 9.002-2.24 14.261.405-.243 1.181-.407 2.68-.173 3.274.52 14.303 2.253 18.784 2.253 4.481 0 15.165-1.906 17.405 1.213.569.788 1.654 2.946 2.973 5.787-.017-11.688-9.874-21.573-21.033-23.8z" fill="url(#n)"/><path opacity=".6" d="M56.04 78.278c-3.309-15.188-34.061-13.672-39.317-13.299-.517 2.642-.767 5.484-.603 8.43.405-.243 1.18-.407 2.68-.173 3.274.52 14.303 2.253 18.784 2.253 4.48 0 15.165-1.906 17.405 1.213.267.373.655 1.048 1.12 1.958l-.069-.381z" fill="url(#o)"/><path d="M56.105 78.659c-.431-4.098-4.222-5.943-6.635-6.117-2.412-.173-12.235.173-20.507-1.559-5.997-1.256-10.727-.875-12.873-.563-.035.979-.026 1.975.026 2.989.405-.243 1.18-.407 2.68-.173 3.274.52 14.303 2.253 18.784 2.253 4.481 0 15.165-1.906 17.405 1.213.276.373.655 1.048 1.12 1.958z" fill="url(#p)"/><path opacity=".54" d="M45.953 62.31l.069.026.189.078c.164.078.405.182.707.347.302.156.655.355 1.06.606.198.121.414.26.629.407l.681.476c.465.347.965.737 1.465 1.178.5.442 1.017.927 1.517 1.464.25.26.5.546.741.832l.362.442.353.451.172.234.172.234.336.477.319.485.31.502c.405.676.775 1.36 1.094 2.062l.233.528.215.528.198.528.181.529c.233.693.422 1.378.56 2.036.146.659.25 1.282.319 1.863.069.58.112 1.109.129 1.585l.017.347v.615l-.009.269-.017.451-.017.329-.017.277-.035-.277-.043-.329-.06-.442-.035-.26-.043-.286-.052-.312-.06-.329-.06-.355-.077-.373-.035-.191-.043-.199-.086-.407-.103-.424-.112-.442-.06-.225-.06-.225-.069-.234-.035-.113-.034-.113c-.19-.624-.405-1.274-.663-1.932l-.198-.494-.215-.502-.224-.503-.241-.502c-.327-.667-.689-1.325-1.077-1.967-.388-.65-.81-1.274-1.241-1.871-.215-.303-.439-.589-.663-.875l-.345-.424-.172-.208-.172-.199c-.457-.537-.922-1.04-1.379-1.508l-.672-.667-.646-.606c-.422-.381-.818-.719-1.18-1.014-.362-.295-.681-.546-.948-.745l-.629-.459-.198-.173zM44.215 67.526l.198.043c.129.026.319.069.56.139.482.13 1.163.347 1.956.676.396.165.827.347 1.267.572.439.217.905.459 1.361.736l.698.433.345.234.345.243c.457.329.913.693 1.344 1.074.431.39.844.788 1.223 1.222l.284.321.267.329c.172.216.336.442.491.667.31.451.577.901.81 1.343.233.442.414.875.569 1.282.146.407.258.788.345 1.135l.052.251.052.234.069.407.043.329.026.243.017.208-.06-.199-.069-.234-.103-.321-.129-.39-.164-.451c-.129-.321-.276-.676-.465-1.048-.19-.372-.405-.771-.655-1.178-.25-.407-.534-.823-.853-1.23l-.241-.312-.259-.303c-.172-.199-.353-.407-.543-.606-.379-.399-.775-.78-1.189-1.152l-.31-.277-.319-.269-.646-.511-.655-.485-.327-.225-.164-.113-.164-.113c-.439-.286-.87-.555-1.284-.806-.414-.243-.81-.468-1.18-.667-.37-.199-.715-.373-1.025-.529-.31-.156-.577-.286-.801-.39l-.526-.243-.19-.069z" fill="#1A5F07"/><path opacity=".19" d="M53.971 2.85c-3.877 1.43-4.911 1.819-7.755 3.639-2.843 1.819-3.36 1.949-4.394 3.379-1.034 1.429-1.422 2.339-3.619 4.93-.793.936-1.267 1.854-1.542 2.643.396.892.75 1.802 1.017 2.738 0 0 4.541-4.341 7.126-5.25 2.585-.91 14.992-7.529 20.292-7.139 5.067.373 11.779 3.587 14.053 8.854.017-1.092-.034-2.192-.198-3.292l-.81-5.424c-3.636-2.088-8.039-4.289-10.598-4.427-4.911-.26-9.694-2.079-13.571-.65z" fill="#E5825C"/><path d="M79.144 16.409c.009-1.022-.052-2.045-.198-3.067-.836-5.9-1.68-9.088-.767-13.334h-52.543l1.353 2.435c2.645 3.396 5.17 6.914 7.35 10.631 1.292 2.209 2.602 4.592 3.317 7.104.974-1.793 2.861-3.925 6.48-5.77 8.142-4.159 16.544-8.828 24.307-6.879 6.178 1.542 10.228 4.332 10.702 8.88z" fill="url(#q)"/><path d="M68.443 7.521c6.178 1.551 10.228 4.341 10.702 8.889.009-1.022-.052-2.036-.198-3.058-.215-1.49-.422-2.816-.612-4.029-3.222-2.729-10.529-7.07-20.076-5.493-10.452 1.724-20.472 10.535-22.282 12.19.681 1.334 1.275 2.72 1.689 4.15.974-1.793 2.861-3.925 6.48-5.77 8.142-4.15 16.544-8.828 24.298-6.879z" fill="url(#r)"/></g><defs><linearGradient id="b" x1="153.439" y1="80.955" x2="-18.523" y2="65.065" gradientUnits="userSpaceOnUse"><stop stop-color="#B0BBA7"/><stop offset="1" stop-color="#F3F2EE"/></linearGradient><linearGradient id="c" x1="16.072" y1="63.116" x2="79.148" y2="63.116" gradientUnits="userSpaceOnUse"><stop stop-color="#FBCEB7"/><stop offset="1" stop-color="#F7A97F"/></linearGradient><linearGradient id="d" x1="44.59" y1="116.896" x2="69.564" y2="80.157" gradientUnits="userSpaceOnUse"><stop stop-color="#FBCEB7"/><stop offset="1" stop-color="#D3605B"/></linearGradient><linearGradient id="e" x1="50.311" y1="74.125" x2="71.559" y2="74.125" gradientUnits="userSpaceOnUse"><stop stop-color="#59AB32"/><stop offset="1" stop-color="#255913"/></linearGradient><linearGradient id="f" x1="57.38" y1="84.052" x2="66.763" y2="84.052" gradientUnits="userSpaceOnUse"><stop stop-color="#59AB32"/><stop offset="1" stop-color="#255913"/></linearGradient><linearGradient id="g" x1="25.906" y1="142.181" x2="48.269" y2="93.085" gradientUnits="userSpaceOnUse"><stop stop-color="#FBCEB7"/><stop offset="1" stop-color="#F7A97F"/></linearGradient><linearGradient id="h" x1="67.323" y1="-4.247" x2="57.757" y2="31.387" gradientUnits="userSpaceOnUse"><stop stop-color="#FBCEB7"/><stop offset="1" stop-color="#F7A47F"/></linearGradient><linearGradient id="i" x1="70.006" y1="73.216" x2="71.365" y2="17.955" gradientUnits="userSpaceOnUse"><stop stop-color="#FBCEB7"/><stop offset="1" stop-color="#F7A97F"/></linearGradient><linearGradient id="j" x1="22.233" y1="31.857" x2="41.199" y2="31.857" gradientUnits="userSpaceOnUse"><stop stop-color="#FBCEB7"/><stop offset="1" stop-color="#F7A97F"/></linearGradient><linearGradient id="k" x1="16.073" y1="62.955" x2="71.69" y2="62.955" gradientUnits="userSpaceOnUse"><stop stop-color="#8DB145"/><stop offset="1" stop-color="#3A941A"/></linearGradient><linearGradient id="l" x1="25.111" y1="54.92" x2="70.975" y2="54.92" gradientUnits="userSpaceOnUse"><stop stop-color="#8DB145"/><stop offset="1" stop-color="#3A941A"/></linearGradient><linearGradient id="m" x1="25.416" y1="54.02" x2="71.685" y2="54.02" gradientUnits="userSpaceOnUse"><stop stop-color="#59AB32"/><stop offset="1" stop-color="#255913"/></linearGradient><linearGradient id="n" x1="16.071" y1="70.248" x2="57.961" y2="70.248" gradientUnits="userSpaceOnUse"><stop stop-color="#8DB145"/><stop offset="1" stop-color="#3A941A"/></linearGradient><linearGradient id="o" x1="16.075" y1="71.709" x2="56.113" y2="71.709" gradientUnits="userSpaceOnUse"><stop stop-color="#8DB145"/><stop offset="1" stop-color="#3A941A"/></linearGradient><linearGradient id="p" x1="16.075" y1="74.386" x2="56.109" y2="74.386" gradientUnits="userSpaceOnUse"><stop stop-color="#8DB145"/><stop offset="1" stop-color="#3A941A"/></linearGradient><linearGradient id="q" x1="25.643" y1="10.096" x2="79.15" y2="10.096" gradientUnits="userSpaceOnUse"><stop stop-color="#8DB145"/><stop offset="1" stop-color="#3A941A"/></linearGradient><linearGradient id="r" x1="35.982" y1="11.834" x2="79.15" y2="11.834" gradientUnits="userSpaceOnUse"><stop stop-color="#59AB32"/><stop offset="1" stop-color="#255913"/></linearGradient></defs></svg>