<svg width="60" height="60" viewBox="0 0 60 60" xmlns="http://www.w3.org/2000/svg" fill="none"><g clip-path="url(#a)"><path d="M28.192 40.586l-.618.37c-1.544.925-5.713 3.636-9.14 7.365-3.582 3.883-9.388 11.71-9.388 11.71l-.463-.401-.031-.031-.679-.555-.71-.616-.371-.339-.772-.616-.154-.123-.71-.616-.062-.031-.618-.524s13.711-12.727 16.243-21.109c.247-.801.37-1.602.401-2.311l1.359 1.51.216.246 3.644 4.037.618.678 1.235 1.356z" fill="#C0912C"/><path d="M23.005 34.052c-.031.031-.123.185-.278.462-1.76 2.866-11.117 18.028-17.633 22.188l-.618-.524s13.711-12.727 16.243-21.109l1.76-.77.525-.247zM27.542 40.956c-1.544.925-5.713 3.636-9.14 7.365-3.582 3.883-9.388 11.71-9.388 11.71l-.494-.431c10.87-17.812 18.991-18.952 18.991-18.952l.031.308zM24.826 37.473c-.278.339-3.119 3.883-6.67 8.074-2.779 3.267-5.96 6.934-8.677 9.8-.988 1.048-1.915 1.972-2.748 2.712l-.71-.585c5.898-5.424 17.972-20.401 18.096-20.586l.71.586zM26.093 38.737c-.031.031-1.081 1.078-2.656 2.681l-.154.154c-3.953 4.068-11.117 11.587-15.1 16.949l-.031.062c-.124.154-.216.277-.309.431l-.71-.616c.679-.955 1.482-1.972 2.347-3.051 2.594-3.205 5.836-6.749 8.708-9.8 3.798-4.037 6.979-7.18 7.257-7.488l.648.678z" fill="#ECB729"/><path d="M22.789 37.103c-.494.678-9.974 13.867-16.922 20.247l-.71-.616c6.886-6.317 16.737-20.031 16.861-20.185l.772.555zM27.233 39.014l-.247.246c-1.822 1.726-12.939 12.45-18.435 20.37l-.031-.031-.679-.555.309-.431.031-.062c2.069-2.866 4.972-6.348 8.739-10.385 2.316-2.496 4.601-4.807 6.33-6.533l.154-.154c1.42-1.418 2.47-2.434 2.934-2.866l.247-.216.648.616z" fill="#FFDC54"/><path d="M26.616 32.111c-1.143-.247-1.915-1.387-1.668-2.527l4.539-22.25c.247-1.14 1.39-1.911 2.532-1.664 1.143.247 1.915 1.387 1.668 2.527l-4.539 22.25c-.247 1.171-1.39 1.911-2.532 1.664zM31.438.863s3.86 8.629-.772 8.629c-3.675-.031.772-8.629.772-8.629zM35.114 4.16s-.093 9.461-4.323 7.519c-3.335-1.572 4.323-7.519 4.323-7.519zM35.604 8.813s-1.637 9.337-5.466 6.718c-3.057-2.065 5.466-6.718 5.466-6.718zM27.64 4.222s7.288 6.071 3.088 8.105c-3.304 1.572-3.088-8.105-3.088-8.105zM26.96 8.567s7.288 6.071 3.088 8.105c-3.304 1.602-3.088-8.105-3.088-8.105zM35.821 13.282s-2.347 9.183-5.991 6.287c-2.872-2.28 5.991-6.287 5.991-6.287zM25.815 13.405s7.288 6.071 3.088 8.105c-3.304 1.602-3.088-8.105-3.088-8.105zM35.886 17.781s-4.416 8.382-7.288 4.715c-2.254-2.897 7.288-4.715 7.288-4.715zM24.367 17.75s8.152 4.807 4.354 7.488c-2.995 2.096-4.354-7.488-4.354-7.488zM35.297 21.726s-4.57 8.29-7.38 4.561c-2.192-2.928 7.38-4.561 7.38-4.561zM23.285 21.079s8.152 4.807 4.354 7.488c-2.995 2.096-4.354-7.488-4.354-7.488zM34.928 25.701s-5.805 7.488-7.998 3.39c-1.698-3.267 7.998-3.39 7.998-3.39zM22.945 24.807s8.152 4.807 4.354 7.489c-2.995 2.126-4.354-7.489-4.354-7.489zM34.743 28.628s-5.806 7.489-7.998 3.39c-1.729-3.236 7.998-3.39 7.998-3.39zM29.675 32.481c-.649-.986-.371-2.311.618-2.958l19.022-12.512c.988-.647 2.316-.37 2.964.616.649.986.37 2.311-.618 2.958l-19.022 12.512c-.988.647-2.316.37-2.964-.616zM55.245 13.806s-3.397 8.844-6.67 5.547c-2.563-2.619 6.67-5.547 6.67-5.547zM55.523 18.737s-6.794 6.626-8.369 2.25c-1.297-3.451 8.369-2.25 8.369-2.25zM52.561 22.373s-7.751 5.455-8.646.894c-.679-3.605 8.646-.894 8.646-.894zM50.182 13.498s.834 9.43-3.551 7.889c-3.459-1.202 3.551-7.889 3.551-7.889zM46.631 16.087s.834 9.43-3.551 7.889c-3.489-1.171 3.551-7.889 3.551-7.889zM49.53 25.701s-8.152 4.838-8.677.216c-.401-3.667 8.677-.216 8.677-.216zM42.365 18.706s.834 9.43-3.551 7.889c-3.459-1.202 3.551-7.889 3.551-7.889zM46.411 28.906s-9.048 2.804-8.492-1.787c.432-3.667 8.492 1.787 8.492 1.787zM38.29 20.74s2.347 9.153-2.223 8.382c-3.613-.647 2.223-8.382 2.223-8.382zM43.201 31.279s-9.11 2.619-8.461-1.972c.525-3.636 8.461 1.972 8.461 1.972zM35.173 22.342s2.347 9.152-2.223 8.382c-3.613-.647 2.223-8.382 2.223-8.382zM40.114 33.837s-9.419 1.171-8.029-3.266c1.081-3.482 8.029 3.266 8.029 3.266zM32.271 24.746s2.347 9.153-2.223 8.382c-3.613-.616 2.223-8.382 2.223-8.382zM37.891 35.779s-9.418 1.171-8.029-3.267c1.05-3.513 8.029 3.267 8.029 3.267z" fill="#C0912C"/><path d="M31.126 27.149c-.988-.647-1.235-2.003-.587-2.958l12.661-18.891c.648-.986 2.007-1.233 2.965-.586.988.647 1.235 2.003.587 2.958l-12.63 18.891c-.648.955-2.007 1.233-2.995.585zM47.428 0s.309 9.461-3.984 7.704c-3.397-1.387 3.984-7.704 3.984-7.704zM49.589 4.438s-3.675 8.721-6.855 5.331c-2.501-2.681 6.855-5.331 6.855-5.331zM48.293 8.937s-5.033 8.012-7.597 4.16c-2.069-3.051 7.597-4.16 7.597-4.16zM42.645 1.695s4.447 8.351-.185 8.659c-3.706.216.185-8.659.185-8.659zM40.358 5.455s4.447 8.351-.185 8.66c-3.675.246.185-8.66.185-8.66zM46.782 13.19s-5.651 7.612-7.905 3.575c-1.791-3.236 7.905-3.575 7.905-3.575zM37.489 9.522s4.447 8.351-.185 8.659c-3.706.216.185-8.659.185-8.659zM45.146 17.35s-7.257 6.102-8.523 1.633c-1.019-3.544 8.523-1.633 8.523-1.633zM34.492 12.974s5.744 7.519 1.204 8.567c-3.582.832-1.204-8.567-1.204-8.567zM43.137 20.801s-7.38 5.948-8.554 1.448c-.957-3.544 8.554-1.448 8.554-1.448zM32.238 15.655s5.744 7.519 1.204 8.567c-3.582.832-1.204-8.567-1.204-8.567zM41.286 24.345s-8.214 4.746-8.677.123c-.37-3.667 8.677-.123 8.677-.123zM30.508 19.014s5.744 7.519 1.204 8.567c-3.582.832-1.204-8.567-1.204-8.567zM39.985 26.995s-8.214 4.746-8.677.123c-.371-3.667 8.677-.123 8.677-.123z" fill="#E0AC2C"/><path d="M22.943 38.706l-.062-.154c-.401-1.048.123-2.25 1.173-2.681l19.578-7.519c1.05-.401 2.254.123 2.687 1.171l.062.154c.401 1.048-.123 2.25-1.173 2.681l-19.547 7.519c-1.112.431-2.285-.123-2.718-1.171zM52.712 27.735s-6.67 6.749-8.338 2.404c-.247-.616-.123-1.109.247-1.479 1.235-1.233 5.188-1.14 7.072-1.017.618.031 1.019.092 1.019.092z" fill="#ECB729"/><path d="M51.693 27.643c-2.038 1.726-5.805 4.314-7.01 1.202l-.062-.185c1.235-1.202 5.188-1.14 7.072-1.017z" fill="#FFDC54"/><path d="M49.811 32.511s-8.677 3.852-8.647-.801c0-.678.309-1.079.772-1.264 1.575-.678 5.25.832 6.948 1.633.556.246.926.431.926.431z" fill="#ECB729"/><path d="M48.886 32.05c-2.532.863-6.979 1.88-6.948-1.448v-.185c1.575-.678 5.219.832 6.948 1.633z" fill="#FFDC54"/><path d="M46.565 24.253s-8.554 4.068-5.003 7.088c.525.431 1.019.462 1.482.246 1.544-.77 2.779-4.499 3.273-6.317l.247-1.017z" fill="#ECB729"/><path d="M46.32 25.239c-2.285 1.356-5.991 4.068-3.428 6.225l.154.123c1.544-.77 2.748-4.53 3.273-6.348z" fill="#FFDC54"/><path d="M42.827 25.67s-8.554 4.068-5.003 7.088c.525.431 1.019.462 1.482.247 1.544-.77 2.779-4.499 3.273-6.317l.247-1.017z" fill="#ECB729"/><path d="M42.546 26.656c-2.285 1.356-5.991 4.068-3.428 6.225l.154.123c1.544-.77 2.779-4.53 3.273-6.348z" fill="#FFDC54"/><path d="M38.941 26.934s-7.813 5.362-3.829 7.766c.587.339 1.081.308 1.482.031 1.42-.986 2.038-4.869 2.254-6.749l.093-1.048z" fill="#ECB729"/><path d="M38.848 27.951c-2.038 1.695-5.28 4.931-2.409 6.656l.154.092c1.421-.986 2.038-4.869 2.254-6.749z" fill="#FFDC54"/><path d="M35.759 28.444s-8.121 4.9-4.261 7.55c.556.37 1.05.37 1.482.093 1.482-.924 2.316-4.777 2.625-6.626l.154-1.017z" fill="#ECB729"/><path d="M35.604 29.461c-2.131 1.572-5.528 4.653-2.779 6.533l.154.092c1.451-.925 2.285-4.777 2.625-6.626z" fill="#FFDC54"/><path d="M32.111 30.077s-7.967 5.146-4.045 7.643c.556.37 1.05.339 1.482.062 1.451-.955 2.162-4.838 2.439-6.687.093-.616.124-1.017.124-1.017z" fill="#ECB729"/><path d="M31.986 31.094c-2.1 1.633-5.404 4.807-2.594 6.595l.154.092c1.451-.955 2.162-4.838 2.44-6.687z" fill="#FFDC54"/><path d="M29.084 30.725s-8.122 4.9-4.292 7.519c.556.37 1.05.37 1.482.092 1.482-.894 2.316-4.746 2.656-6.626l.154-.986z" fill="#ECB729"/><path d="M28.899 31.742c-2.131 1.572-5.558 4.622-2.81 6.533l.154.093c1.482-.925 2.347-4.777 2.656-6.626z" fill="#FFDC54"/><path d="M45.977 35.871s-9.418 1.109-8.029-3.297c.216-.647.587-.924 1.112-.986 1.729-.185 4.755 2.342 6.176 3.605l.741.678z" fill="#ECB729"/><path d="M45.203 35.193c-2.656.062-7.226-.246-6.238-3.421l.062-.185c1.76-.185 4.786 2.342 6.176 3.605z" fill="#FFDC54"/><path d="M42.427 37.535s-9.48.586-7.813-3.76c.247-.616.648-.894 1.174-.925 1.729-.093 4.601 2.589 5.96 3.944.432.462.679.74.679.74z" fill="#ECB729"/><path d="M41.719 36.795c-2.656-.092-7.195-.647-6.022-3.76l.062-.185c1.76-.092 4.632 2.619 5.96 3.945z" fill="#FFDC54"/><path d="M39.185 38.552s-9.48.586-7.813-3.76c.247-.616.649-.894 1.174-.924 1.729-.093 4.601 2.589 5.96 3.944.401.462.679.74.679.74z" fill="#ECB729"/><path d="M38.477 37.812c-2.656-.093-7.195-.647-6.022-3.76l.062-.185c1.729-.093 4.632 2.589 5.96 3.944z" fill="#FFDC54"/><path d="M36.378 39.846s-9.357 1.448-8.121-3.02c.185-.647.556-.955 1.081-1.017 1.698-.246 4.848 2.157 6.269 3.39.494.37.772.647.772.647z" fill="#ECB729"/><path d="M35.609 39.168c-2.656.154-7.226 0-6.331-3.205l.062-.185c1.698-.247 4.817 2.188 6.269 3.39z" fill="#FFDC54"/><path d="M32.329 41.233s-9.449.77-7.874-3.606c.216-.616.618-.925 1.143-.955 1.729-.123 4.663 2.527 6.022 3.821.432.462.71.74.71.74z" fill="#ECB729"/><path d="M31.587 40.524c-2.656-.031-7.226-.524-6.083-3.667l.062-.185c1.729-.123 4.663 2.527 6.022 3.852z" fill="#FFDC54"/><path d="M23.867 39.384l-.123-.093c-.926-.647-1.143-1.972-.463-2.866l12.198-17.011c.648-.925 1.976-1.14 2.872-.462l.123.092c.926.647 1.143 1.972.463 2.866l-12.229 17.011c-.618.924-1.915 1.14-2.841.462zM42.735 13.929s-1.884 9.276-5.651 6.564c-.556-.401-.71-.863-.587-1.356.371-1.695 3.706-3.79 5.342-4.715.525-.308.895-.493.895-.493z" fill="#ECB729"/><path d="M41.807 14.422c-.772 2.527-2.501 6.78-5.219 4.838l-.154-.123c.401-1.695 3.736-3.79 5.373-4.715z" fill="#FFDC54"/><path d="M42.921 19.507s-5.157 7.951-7.658 4.068c-.371-.555-.34-1.048-.062-1.479.957-1.448 4.848-2.157 6.701-2.434l1.019-.154z" fill="#ECB729"/><path d="M41.904 19.661c-1.637 2.096-4.786 5.393-6.608 2.589l-.093-.154c.926-1.448 4.817-2.157 6.701-2.434z" fill="#FFDC54"/><path d="M35.695 14.392s-4.91 8.105-.309 8.66c.679.092 1.112-.154 1.359-.586.896-1.479-.154-5.3-.741-7.088-.185-.616-.309-.986-.309-.986z" fill="#ECB729"/><path d="M36.005 15.347c-1.173 2.373-2.779 6.656.556 7.088h.185c.895-1.479-.154-5.27-.741-7.088z" fill="#FFDC54"/><path d="M33.316 17.627s-4.91 8.105-.309 8.659c.679.093 1.112-.154 1.359-.585.896-1.479-.154-5.3-.741-7.088-.154-.616-.309-.986-.309-.986z" fill="#ECB729"/><path d="M33.657 18.613c-1.174 2.373-2.779 6.656.556 7.088h.185c.865-1.51-.185-5.3-.741-7.088z" fill="#FFDC54"/><path d="M30.784 20.801s-3.613 8.752 1.05 8.598c.679-.031 1.05-.339 1.266-.801.648-1.602-.988-5.208-1.822-6.872l-.494-.924z" fill="#ECB729"/><path d="M31.245 21.695c-.772 2.527-1.698 7.026 1.637 6.903h.185c.648-1.602-.957-5.208-1.822-6.903z" fill="#FFDC54"/><path d="M28.931 23.791s-4.076 8.536.556 8.629c.679 0 1.081-.277 1.297-.74.741-1.572-.679-5.239-1.451-6.965-.216-.555-.401-.924-.401-.924z" fill="#ECB729"/><path d="M29.363 24.746c-.926 2.496-2.1 6.903 1.266 6.995h.185c.71-1.602-.71-5.27-1.451-6.995z" fill="#FFDC54"/><path d="M26.768 27.149s-3.829 8.66.803 8.629c.679 0 1.081-.308 1.266-.77.679-1.572-.834-5.208-1.637-6.934-.247-.555-.432-.924-.432-.924z" fill="#ECB729"/><path d="M27.232 28.074c-.865 2.527-1.884 6.965 1.451 6.934h.185c.679-1.572-.834-5.208-1.637-6.934z" fill="#FFDC54"/><path d="M24.605 29.368s-4.107 8.536.556 8.629c.679 0 1.081-.277 1.297-.74.741-1.572-.679-5.239-1.421-6.995-.278-.524-.432-.894-.432-.894z" fill="#ECB729"/><path d="M25.004 30.293c-.926 2.496-2.1 6.903 1.235 6.995h.185c.741-1.572-.679-5.239-1.42-6.995z" fill="#FFDC54"/><path d="M41.56 24.438s-7.257 6.071-8.523 1.602c-.185-.647 0-1.109.371-1.448 1.328-1.109 5.25-.647 7.133-.37.618.154 1.019.216 1.019.216z" fill="#ECB729"/><path d="M40.544 24.284c-2.193 1.51-6.176 3.76-7.102.524l-.031-.185c1.359-1.079 5.28-.647 7.133-.339z" fill="#FFDC54"/><path d="M39.525 27.766s-7.596 5.67-8.616 1.14c-.154-.647.062-1.109.463-1.418 1.39-1.017 5.281-.339 7.133.062.618.123 1.019.216 1.019.216z" fill="#ECB729"/><path d="M38.508 27.55c-2.254 1.387-6.392 3.39-7.102.123l-.031-.185c1.42-1.017 5.311-.339 7.133.062z" fill="#FFDC54"/><path d="M37.33 30.385s-7.597 5.67-8.616 1.14c-.154-.647.062-1.109.463-1.418 1.39-1.017 5.28-.339 7.133.062.648.123 1.019.216 1.019.216z" fill="#ECB729"/><path d="M36.344 30.169c-2.254 1.387-6.392 3.39-7.102.123l-.031-.185c1.39-1.017 5.28-.339 7.133.062z" fill="#FFDC54"/><path d="M35.723 33.005s-7.041 6.348-8.461 1.911c-.216-.647-.062-1.109.34-1.448 1.297-1.14 5.25-.832 7.102-.616l1.019.154z" fill="#ECB729"/><path d="M34.704 32.851c-2.131 1.602-6.053 3.945-7.072.801l-.062-.185c1.297-1.14 5.25-.832 7.133-.616z" fill="#FFDC54"/><path d="M33.069 36.395s-7.504 5.794-8.585 1.294c-.154-.647.031-1.109.432-1.418 1.39-1.048 5.28-.462 7.133-.093.648.123 1.019.216 1.019.216z" fill="#ECB729"/><path d="M32.079 36.179c-2.223 1.418-6.33 3.513-7.102.277l-.031-.185c1.359-1.048 5.28-.462 7.133-.093z" fill="#FFDC54"/><path d="M23.872 38.675l-.154.031c-1.143.154-2.162-.678-2.316-1.787l-2.563-20.77c-.154-1.14.679-2.157 1.791-2.311l.154-.031c1.143-.154 2.162.678 2.316 1.787l2.563 20.77c.154 1.14-.648 2.157-1.791 2.311zM20.441 7.18s4.941 8.074.309 8.66c-.679.092-1.112-.154-1.359-.586-.896-1.479.154-5.3.71-7.088.185-.586.34-.986.34-.986z" fill="#ECB729"/><path d="M20.101 8.166c1.173 2.373 2.779 6.656-.525 7.088h-.185c-.896-1.479.154-5.3.71-7.088z" fill="#FFDC54"/><path d="M24.393 11.156s1.637 9.337-2.872 8.166c-.679-.154-.988-.524-1.081-1.048-.278-1.695 2.069-4.869 3.273-6.348l.679-.77z" fill="#ECB729"/><path d="M23.714 11.957c.216 2.65.154 7.211-3.088 6.379l-.185-.062c-.278-1.695 2.1-4.838 3.273-6.317z" fill="#FFDC54"/><path d="M15.563 12.296s1.884 9.276 5.651 6.564c.556-.401.71-.863.587-1.356-.371-1.695-3.706-3.79-5.342-4.715-.525-.308-.895-.493-.895-.493z" fill="#ECB729"/><path d="M16.488 12.789c.772 2.527 2.501 6.78 5.219 4.838l.154-.123c-.401-1.695-3.736-3.79-5.373-4.715z" fill="#FFDC54"/><path d="M16.055 16.271s1.884 9.276 5.651 6.564c.556-.401.71-.863.587-1.356-.371-1.695-3.706-3.79-5.342-4.715l-.895-.493z" fill="#ECB729"/><path d="M16.949 16.764c.772 2.527 2.501 6.78 5.219 4.838l.154-.123c-.371-1.695-3.736-3.79-5.373-4.715z" fill="#FFDC54"/><path d="M16.336 20.308s3.304 8.875 6.608 5.609c.463-.462.556-.955.371-1.448-.618-1.602-4.261-3.143-6.022-3.821-.587-.185-.957-.339-.957-.339z" fill="#ECB729"/><path d="M17.293 20.678c1.143 2.404 3.52 6.287 5.898 3.975l.123-.123c-.618-1.664-4.261-3.205-6.022-3.852z" fill="#FFDC54"/><path d="M17.016 23.79s2.81 9.029 6.3 5.979c.494-.431.618-.924.463-1.418-.525-1.633-4.076-3.39-5.806-4.16-.587-.277-.957-.401-.957-.401z" fill="#ECB729"/><path d="M17.973 24.19c1.019 2.465 3.15 6.502 5.651 4.284l.123-.123c-.494-1.664-4.045-3.39-5.774-4.16z" fill="#FFDC54"/><path d="M17.723 27.704s3.057 8.968 6.454 5.793c.494-.462.587-.955.432-1.417-.587-1.664-4.2-3.297-5.929-4.006-.587-.246-.957-.37-.957-.37z" fill="#ECB729"/><path d="M18.68 28.074c1.081 2.434 3.335 6.41 5.775 4.129l.123-.123c-.556-1.664-4.169-3.297-5.898-4.006z" fill="#FFDC54"/><path d="M17.602 30.816s2.779 9.06 6.269 5.978c.494-.431.618-.925.463-1.418-.525-1.633-4.076-3.39-5.805-4.16-.556-.277-.926-.401-.926-.401z" fill="#ECB729"/><path d="M18.559 31.217c1.019 2.465 3.15 6.502 5.651 4.284l.123-.123c-.525-1.664-4.045-3.39-5.775-4.16z" fill="#FFDC54"/><path d="M26.741 15.685s-1.204 9.399-5.157 6.965c-.556-.339-.772-.801-.71-1.325.247-1.726 3.428-4.037 5.003-5.085l.865-.555z" fill="#ECB729"/><path d="M25.878 16.271c-.587 2.589-2.007 6.934-4.848 5.208l-.154-.092c.247-1.757 3.428-4.068 5.003-5.116z" fill="#FFDC54"/><path d="M27.482 19.538s-1.729 9.307-5.558 6.656c-.556-.37-.71-.863-.618-1.356.34-1.695 3.644-3.852 5.28-4.807l.895-.493z" fill="#ECB729"/><path d="M26.585 20.03c-.71 2.558-2.378 6.811-5.126 4.9l-.154-.123c.34-1.664 3.675-3.821 5.28-4.777z" fill="#FFDC54"/><path d="M27.67 22.928s-1.729 9.307-5.558 6.656c-.556-.37-.71-.863-.618-1.356.34-1.695 3.644-3.852 5.28-4.807l.895-.493z" fill="#ECB729"/><path d="M26.773 23.452c-.71 2.558-2.378 6.81-5.126 4.9l-.154-.123c.34-1.695 3.675-3.821 5.28-4.777z" fill="#FFDC54"/><path d="M28.255 25.948s-.865 9.43-4.91 7.149c-.587-.339-.803-.77-.741-1.294.185-1.726 3.273-4.16 4.817-5.27.494-.37.834-.585.834-.585z" fill="#ECB729"/><path d="M27.423 26.533c-.494 2.619-1.76 6.995-4.663 5.362l-.154-.092c.154-1.726 3.273-4.16 4.817-5.27z" fill="#FFDC54"/><path d="M28.626 30.231s-1.544 9.337-5.435 6.749c-.556-.37-.741-.832-.648-1.325.309-1.695 3.582-3.914 5.188-4.9.525-.339.896-.524.896-.524z" fill="#ECB729"/><path d="M27.727 30.755c-.679 2.558-2.254 6.841-5.033 4.992l-.154-.123c.309-1.695 3.582-3.883 5.188-4.869z" fill="#FFDC54"/><path d="M42.734 13.929l2.934-2.774" stroke="#C0912C" stroke-miterlimit="10" stroke-linecap="round"/><path d="M39.895 20.986l5.497-2.558M35.695 16.764c0-.74.093-5.239.093-5.239M38.258 24.808l5.373-.524" stroke="#E0AC2C" stroke-miterlimit="10" stroke-linecap="round"/><path d="M33.41 22.065l-.309-5.362" stroke="#C0912C" stroke-miterlimit="10" stroke-linecap="round"/><path d="M34.184 25.67l2.717-4.037" stroke="#E0AC2C" stroke-miterlimit="10" stroke-linecap="round"/><path d="M33.473 30.817l4.972-.339" stroke="#C0912C" stroke-miterlimit="10" stroke-linecap="round"/><path d="M43.137 34.638l4.817 1.941M36.746 37.282l4.817 1.941M19.05 22.465l-3.613-2.804" stroke="#E0AC2C" stroke-miterlimit="10" stroke-linecap="round"/><path d="M17.74 14.789l-2.967-3.472" stroke="#C0912C" stroke-miterlimit="10" stroke-linecap="round"/><path d="M24.949 17.935l2.594-3.359M20.413 9.8l-.123-5.855M25.137 25.424l3.767-3.914M19.609 29.584l-3.273-3.513M29.148 36.487l5.435-.401" stroke="#E0AC2C" stroke-miterlimit="10" stroke-linecap="round"/><path d="M29.273 40.062l5.311 1.818" stroke="#C0912C" stroke-miterlimit="10" stroke-linecap="round"/><path d="M29.273 27.642l-.34-3.852M23.406 32.542l1.946-3.945" stroke="#E0AC2C" stroke-miterlimit="10" stroke-linecap="round"/><path d="M21.925 26.163l-.741-6.04" stroke="#C0912C" stroke-miterlimit="10" stroke-linecap="round"/><path d="M22.11 37.535s-9.943 14.638-16.243 19.815" stroke="#E0AC2C" stroke-miterlimit="10" stroke-linecap="round"/><path d="M24.329 39.938s-10.592 10.231-16.521 19.076" stroke="#C0912C" stroke-miterlimit="10" stroke-linecap="round"/></g><defs><clipPath id="a"><path fill="#fff" d="M0 0h60v60h-60z"/></clipPath></defs></svg>