<svg width="110" height="103" viewBox="0 0 110 103" xmlns="http://www.w3.org/2000/svg" fill="none"><g clip-path="url(#a)"><path d="M48.974 27.904c.171-.011.341-.021.501.021.234.064.341.255.384.308.021.032.149.213.149.394.011.34-.384.627-1.161 1.18-.256.181-.426.287-.629.532-.16.202-.256.404-.309.542.458-.479 1.034-.819 1.662-1 .17-.053.511-.075.916-.277.234-.117.544-.287.671-.627.085-.223.053-.415.011-.596-.075-.404-.352-1.17-.831-1.234-.192-.021-.394.096-.799.351-.245.138-.437.298-.565.404z" fill="#451711"/><path d="M81.357 63.991l-8.557 8.253-.65.628c-.117.117-.256.223-.394.308-1.193.766-2.813.436-3.591-.723-.788-1.159-.448-2.723.746-3.489l.075-.053.234-.17.288-.234c.192-.16.362-.34.533-.51.341-.362.661-.734.948-1.138.288-.394.554-.819.789-1.266.117-.223.234-.447.341-.681l.171-.34.17-.33c.245-.447.501-.851.799-1.234.309-.383.629-.755.97-1.117.277-.287.554-.564.853-.819l-.373-.659c-.501-.872-1.002-1.744-1.502-2.606-1.002-1.744-2.035-3.457-3.101-5.158-.277-.447-.554-.883-.842-1.329-.799-1.255-1.609-2.499-2.43-3.733-1.119-1.67-2.248-3.329-3.41-4.967l-.021-.032c-1.343-1.936-.821-4.563 1.172-5.86 1.993-1.308 4.699-.798 6.053 1.138l.096.138c1.194 1.712 2.291 3.488 3.346 5.286l.778 1.351.757 1.372.735 1.372c.245.457.48.925.714 1.383.234.468.469.925.693 1.393.224.468.458.936.671 1.404l.192.404c.373.808.735 1.627 1.087 2.446.192.447.373.904.554 1.351l.032.085.149.362.138.362.171.457.106.276.139.362.128.372.256.734.245.745.117.383.043.149.075.234.256.745c.32 1.021.075 2.17-.746 2.957zM50.135 47.761c-.128.585-.256 1.159-.416 1.755-.224.872-.501 1.797-.874 2.882-.181.521-.33.936-.48 1.308-.767 1.914-1.545 3.627-1.971 4.605-.757 1.712-.597 1.755-2.067 5.977-.639 1.851-1.194 3.35-1.545 4.307-.117.351-.298.904-.501 1.574-.266.883-.33 1.138-.448 1.361l-.085.149c-.629 1.064-1.055 1.787-1.609 2.095-.725.404-1.63.043-2.92-.457-1.236-.489-2.078-1.074-2.323-1.244-.693-.5-1.311-.947-1.854-1.351-2.248-1.68-3.165-2.51-3.165-2.51-.629-.574-1.151-1.064-1.609-1.51-1.215-1.191-1.993-1.999-3.111-3.159-3.389-3.52-3.389-3.435-4.252-4.424-1.151-1.34-2.035-2.531-2.632-3.393.458-.191.991-.447 1.545-.819.906-.606 1.545-1.276 1.971-1.797.171.649.448 1.063.661 1.308.245.287.639.574 1.417 1.17l.405.298c3.719 2.787 5.594 4.191 6.862 5.052.906.617 1.236.808 1.875 1.223.437.287.746.489 1.161.776l.586.404c.405.276.852.606 1.353.968.341-.84.682-1.67 1.012-2.51.33-1.117.735-2.616 1.13-4.403.277-1.255.416-2.063.522-2.744.17-1.106.234-1.893.629-3.722 1.023-4.765 1.897-5.679 2.163-8.094.043-.393.16-1.659.799-3.201.128-.319.277-.681.501-1.053.618-1.021 2.142-2.744 3.975-2.755 1.918-.021 3.538 1.84 4.166 3.382.639 1.436.149 3.808-.874 8.551z" fill="#FFA974"/><path opacity=".68" d="M49.73 49.515c-.224.872-.501 1.797-.874 2.882-.181.521-.33.936-.479 1.308-.767 1.914-1.545 3.627-1.971 4.605-.757 1.712-.597 1.755-2.067 5.977-.639 1.851-1.193 3.35-1.545 4.307-.117.351-.298.904-.501 1.574-.266.883-.33 1.138-.447 1.361l-.085.149c-.629 1.063-1.055 1.787-1.609 2.095-.725.404-1.63.043-2.92-.457-1.236-.489-2.078-1.074-2.323-1.244-.693-.5-1.311-.947-1.854-1.351.682.042 1.407.479 2.067.776 1.076.479 2.323.564 3.453.255.352-.096.714-.245.916-.542.224-.34.213-.713.213-.862-.011-.904.469-1.553.895-2.584 2.355-5.647 1.588-10.327 1.588-10.327-.128-.787-.213-.819-.277-1.489-.256-2.659.746-4.765 1.204-5.69.522-1.053 1.641-2.319 3.9-4.839 1.588-1.776 2.579-2.744 2.909-2.552.149.085.021.351.021 1.595 0 .521-.011 1.053-.021 1.595-.011 1.191-.085 2.361-.192 3.457zM38.819 56.024c-.106 1.117-.245 2.233-.416 3.35-.33 2.18-.778 4.35-1.215 6.509-.085.394-.277.883-.693.872-.32 0-.543-.34-.575-.649-.032-.308.053-.617.032-.936-.043-.745-.639-1.298-1.162-1.872.405.277.853.606 1.353.968.341-.84.682-1.67 1.012-2.51.33-1.117.735-2.616 1.13-4.403.277-1.255.416-2.063.522-2.744.139.34.053 1.021.011 1.414z" fill="#FA9056"/><path d="M71.969 92.196c.138 1.117.266 2.627.256 4.456-3.602-5.222-4.827-5.584-5.307-5.318l-.384.33c-.394.34-.97.851-1.865 1.68-.352.33-.788.702-1.364 1.117-5.52 4.073-5.679 5.817-7.523 5.732-.213-.01-.405-.042-.586-.117-2.035-.755-4.539-4.828-4.539-4.828-.725-1.191-1.417-1.989-2.067-2.563-2.376-2.095-3.218-2.34-3.751-3.063l-.128-.181c-.298-.415-.607-.713-.821-.893l-.213-.17-.085-.064c-.064-.043-.043-.287.043-.659.49-2.18 3.101-8.966 3.101-8.966 1.044-2.712 1.566-4.105 1.652-5.584.117-2.191-.352-5.031-.757-6.456l-.149-.532c-.128-.436-.33-1.266-.607-3.169-.096-.681-.224-1.276-.394-1.968-.149-.596-.341-1.276-.586-2.159-.778-2.744-.927-2.329-.991-3.201-.139-1.925.565-4.446.714-5.009.075-.266.256-1.032.043-1.957l-.043-.117c-.362-1.042-4.273-1.5-5.147-1.595.277-1.648.65-3.425 1.151-5.286.32-1.181.65-2.297 1.012-3.35.107-.255.938-2.223 2.962-2.765.33-.085 1.321-.351 2.355.011.522.181.778.436 1.566.723.575.213 1.076.298 1.396.351.416 0 .746-.021.938-.032 2.366-.181 3.761-1 4.582-.84.075.021.437.106.554-.053l.053-.17c.16-.287 2.792 2.127 4.294 1.521.128-.053.032-.042.799-.564.16-.106 1.108-.755 1.545-.989 1.897-1 4.667.383 4.848.479.874.447 1.364.957 1.46 1.064.394.606.778 1.255 1.129 1.946 2.259 4.329 2.866 8.604 2.92 11.922-.416-.021-1.076-.075-1.833-.287-1.982-.542-2.984-1.627-3.548-1.266l-.032.032c-.117.117-.128.308-.096.521.064.33.234.734.33 1.064.192.659.139 1.223.021 1.893l-.096.5c-.16.808-.341.851-.82 2.127-.256.681-.49 1.51-.927 3.169-.16.606-.394 1.51-.671 2.616l-.043.17c-.192.798-.373 1.532-.543 2.223-1.023 4.254-1.471 6.658-1.108 8.636.405 2.202 1.449 4.265 1.865 5.105l1.811 3.308c1.279 2.34 1.513 2.872 1.801 3.584.309.755.512 1.585.906 3.244.373 1.521.693 2.85.916 4.648z" fill="#FFA974"/><path opacity=".68" d="M66.365 61.289l-.043.17c-.192.798-.373 1.532-.543 2.223-.202.042-.416.064-.65.074-2.504.053-5.008.075-7.512.117-1.289.021-2.643.064-3.751.691-1.833 1.032-2.451 3.276-2.888 5.286-.501 2.265-1.002 4.605-.586 6.892.416 2.287 1.982 4.531 4.305 5.084.671.16 1.364.17 2.014.372.65.202 1.289.67 1.396 1.319.149.883-.682 1.617-1.481 2.074-3.538 1.999-7.843 2.085-11.934 2.127-.352 0-.714.011-1.066-.032.49-2.18 3.101-8.966 3.101-8.966 1.044-2.712 1.566-4.105 1.652-5.584.117-2.191-.352-5.031-.757-6.456l-.149-.532c-.128-.436-.33-1.266-.607-3.169-.096-.681-.224-1.276-.394-1.968.181-.074.384-.096.586-.106l11.242-1.127c2.739-.276 5.861-.436 7.885 1.372l.181.138z" fill="#FA9056"/><path d="M57.658 94.631l-.075.542c-.213 1.553-.352 3.106-.437 4.658v.086l-.032.585-.011.149-.011.436-.021.585-.011.585c-.011.33-.011.649.011.979l.011.191v.075l.043.51.032.287.021.138.021.16.043.287c.053.383.117.777.16 1.159.032.288.064.575.075.862l.011.308-.011.458c-.011.436-.053.872-.117 1.318l-.032.245-.021.149c-.096.638-.234 1.276-.384 1.925l-.075.298-.16.595-.16.596-.043.149-.128.489-.053.234-.085.351c-.16.681-.277 1.393-.362 2.138l-.043.521-.021.351c-.021.298-.032.596-.032.904l-.021 1.638-.011.361-.021.734-.011.362c-.011.425-.032.84-.053 1.266l-.011.18-.021.362-.021.362-.032.723c-.021.478-.053.968-.085 1.457l-.043.734-.053.734c-.043.606-.096 1.212-.16 1.808l-.064.68-.011.064-.064.649-.011.064-.064.67-.032.351c-.17 1.638-.32 3.222-.437 4.786l-.053.617-.021.34-.011.17-.011.34c-.011.277-.011.543 0 .819v.043l.011.266v.074l.011.256.032.361c.032.33.075.66.117 1l.053.33.075.499.139.819c.085.49.16.979.224 1.468l.053.489.053.649.021.33.011.319.011.5v.159l.032 1.277v.032c.011.436.021.882.043 1.329l.011.67.011.67c.011.893.021 1.797.021 2.701 0 .341 0 .692-.011 1.032v.8300000000000001l-.011.84-.064 2.701c-.011.607-.032 1.213-.053 1.83-.011.478-.021.957-.043 1.425l-.064 2.148c-.011.447-.021.894-.043 1.351-.011.447-.021.893-.043 1.351l-.085 2.69v.032c-.053 1.787-.139 3.574-.224 5.361-.075 1.797-.181 3.595-.266 5.392l-.032.596c-.085 1.595-1.481 2.829-3.133 2.754-1.652-.074-2.92-1.436-2.834-3.031l.021-.255c.256-1.787.362-3.574.405-5.361.043-1.786.032-3.573-.043-5.349l-.032-.553-.064-1.128v-.074c-.032-.532-.075-1.064-.117-1.595l-.032-.33-.032-.33v-.011l-.032-.329-.032-.33-.021-.234-.043-.436-.075-.67-.043-.33c-.053-.446-.117-.893-.192-1.329-.149-1-.33-2-.543-2.999-.064-.33-.139-.66-.213-1l-.362-1.659-.522-2.351-.064-.298-.075-.329c-.096-.436-.181-.883-.266-1.319-.085-.447-.171-.883-.245-1.33l-.107-.616c-.096-.575-.181-1.149-.256-1.734l-.021-.17-.064-.511-.032-.34-.032-.34c-.032-.287-.053-.575-.075-.872l-.011-.351v-.171l.011-.489.011-.149v-.095l.011-.171.032-.297.011-.085c.032-.33.085-.66.149-.99l.107-.51.117-.521.075-.341.117-.51.075-.34.107-.511.064-.34.032-.17c.043-.224.075-.458.096-.681.021-.234.043-.468.053-.702v-.053l.011-.351v-.022c.011-.308 0-.606-.011-.914l-.011-.33v-.032l-.032-.659-.043-.67-.043-.67c-.021-.341-.053-.67-.085-1-.032-.33-.064-.659-.106-.989l-.043-.33-.085-.649-.021-.159-.053-.319-.021-.16-.075-.478-.032-.16-.117-.627-.021-.128-.011-.053-.096-.436-.117-.553c-.139-.628-.309-1.245-.469-1.862l-.075-.297-.256-.904-.085-.298-.171-.606-.085-.309-.085-.308-.181-.606-.085-.298-.085-.298-.128-.447-.085-.298-.043-.148-.17-.596-.032-.117-.139-.489-.352-1.234-.171-.649-.17-.67-.16-.702-.16-.723c-.16-.755-.298-1.521-.416-2.287l-.107-.691-.107-.744-.053-.373-.053-.372-.192-1.478-.085-.745-.075-.574-.021-.17-.043-.351-.043-.394-.021-.191-.053-.564-.043-.372-.043-.372-.032-.373-.032-.372-.032-.372c-.021-.245-.043-.5-.053-.755l-.021-.372-.032-.564-.011-.192c-.011-.255-.021-.499-.021-.755v-.021l-.011-.734v-.7550000000000001l.011-.755.021-.755.011-.372.011-.191.021-.372.032-.564v-.053c.075-1.085.266-2.818.959-5.616.309-1.255.618-2.329.938-3.318 1.737-2.595 4.955-4.095 8.312-3.542 1.961.319 3.644 1.287 4.859 2.638 1.502 1.649 2.291 3.914 1.971 6.264z" fill="#FFA974"/><path d="M73.546 96.918c-.362-.436-.693-.83-1.012-1.202-3.197-3.691-4.358-3.946-4.838-3.722l-.426.308c-.437.319-1.076.787-2.056 1.553-.394.308-.874.649-1.503 1.032-4.017 2.489-5.456 4.041-6.553 4.786l-.011.149v.086l-.032.585-.011.149-.011.436-.021.585-.011.585c-.011.33-.011.649.011.978l.011.192v.074l.043.511.032.287.021.138.021.16.043.287c.053.383.117.776.16 1.159.032.287.064.574.075.862l.011.308-.011.457c-.011.436-.053.872-.117 1.319l-.032.245-.021.149c-.096.638-.234 1.276-.384 1.925l-.075.298-.16.595-.16.596-.043.149-.128.489-.053.234-.085.351c-.16.68-.277 1.393-.362 2.138l-.043.521-.021.351c-.021.297-.032.595-.032.904l-.021 1.638-.011.361-.021.734-.011.362c-.011.425-.032.84-.053 1.265l-.011.181-.021.362-.021.361-.032.724c-.021.478-.053.967-.085 1.457l-.043.733-.053.734c-.043.607-.096 1.213-.16 1.808l-.064.681-.011.064-.064.649-.011.063-.064.67-.032.351c-.17 1.638-.32 3.223-.437 4.786l-.043.617-.021.341-.011.17-.011.34c-.011.277-.011.543 0 .819v.043l.011.202v.138l.011.255.032.362c.032.33.075.659.117 1l.053.329.075.5.139.819c.085.489.16.979.224 1.468l.053.489.053.649.021.33.011.319.011.499v.16l.032 1.276v.032c.011.436.021.883.043 1.33l.011.67.011.67c.011.893.021 1.797.021 2.701 0 .341 0 .691-.011 1.032v.829c0 .288 0 .564-.011.851l-.064 2.702c-.011.606-.032 1.212-.053 1.829-.011.479-.021.957-.043 1.425l-.064 2.149c-.011.446-.021.893-.043 1.35-.011.447-.021.894-.043 1.351v.021c-.021.766.16 1.893-.085 2.702-.064.212-.16.404-.288.563-.405.479-1.183.681-1.897.724-.298.021-.597.01-.842-.011-1.3-.138-2.76-.511-3.111-1.712v-.011c-.405-1.436-.213-3.286-.373-4.786l-.075-.67-.043-.33c-.053-.446-.117-.893-.192-1.329-.149-1-.33-2-.544-2.999-.064-.33-.139-.66-.213-1-.117-.553-.245-1.106-.373-1.659l-.522-2.351-.064-.298-.075-.329c-.096-.436-.181-.883-.266-1.319-.085-.447-.171-.883-.245-1.33l-.107-.616c-.096-.575-.181-1.149-.256-1.734l-.021-.17-.064-.511-.032-.34-.032-.34c-.032-.288-.053-.575-.075-.872l-.011-.351v-.171l.011-.489.011-.149v-.095l.011-.171.032-.297.011-.086c.032-.329.085-.659.149-.989l.107-.51.117-.521.075-.341.117-.51.075-.34.107-.511.064-.34.032-.17c.043-.224.075-.458.096-.681.021-.234.043-.468.053-.702v-.053l.011-.351v-.022c.011-.308 0-.606-.011-.914l-.011-.33v-.032l-.032-.659-.043-.67-.043-.67c-.021-.341-.053-.67-.085-1-.032-.33-.064-.659-.106-.989l-.043-.33-.085-.649-.021-.159-.053-.319-.021-.16-.075-.478-.032-.16-.117-.627-.021-.128-.011-.053-.096-.436-.117-.553c-.139-.628-.309-1.245-.469-1.862l-.075-.297-.256-.904-.085-.298-.171-.606-.085-.309-.085-.308-.181-.606-.085-.298-.085-.298-.128-.447-.085-.298-.043-.148-.17-.596-.032-.117-.139-.489-.352-1.234-.171-.649-.17-.67-.16-.702-.16-.723c-.16-.755-.298-1.521-.416-2.287-.043-.234-.075-.457-.107-.691l-.107-.744-.053-.373-.053-.372-.192-1.478-.085-.745-.075-.574-.021-.16-.043-.351-.043-.393-.021-.192-.053-.563-.043-.373-.043-.372-.032-.372-.032-.372-.032-.372c-.021-.245-.043-.5-.053-.756l-.021-.372-.032-.564-.011-.191c-.011-.255-.021-.5-.021-.755v-.021l-.011-.734v-.7550000000000001l.011-.755.021-.756.011-.372.011-.191.021-.372.032-.564v-.053c.075-1.085.266-2.818.959-5.616.309-1.255.618-2.329.938-3.318.298-.936.597-1.776.874-2.584.618-1.5 1.343-3.297 2.025-5.212 1.577.415 3.868.915 6.67 1.181 2.579.245 5.445.489 9.004-.213l.32-.064.533-.117.341-.085c.266-.064.533-.138.821-.223l.213-.064.586-.181.213-.075c1.215-.404 2.568-.957 4.017-1.744.458 1 .874 1.787 1.161 2.297.693 1.244 1.439 2.35 2.046 3.68.128.276.298.649.48 1.149.16.468.33 1.042.394 1.276l.064.223c.394 1.393.746 2.627.991 4.286.16.989.298 2.404.277 4.095z" fill="#9CA535"/><path d="M55.111 132.388c.149-1.936.32-3.892.448-5.86.032-.489.075-.989.096-1.478l.085-1.479.075-1.489c.021-.5.043-.999.053-1.499.032-1.011.021-2.021.096-3.031.064-1 .181-1.979.362-2.861l.139-.66.149-.638.149-.627.149-.617c.192-.809.341-1.638.447-2.447.107-.808.181-1.606.128-2.403-.011-.394-.064-.798-.117-1.191l-.085-.596-.085-.606-.043-.298-.032-.298-.053-.606-.011-.308-.011-.309v-.606l.021-1.213.021-.606.032-.606c.661-3.34.735-4.201.629-4.222-.149-.032-.416 1.829-1.588 2.233-.469.16-1.162.117-2.248-.606-3.559-2.361-4.72-7.551-4.827-7.519-.085.021.298 2.946 2.344 6.381 1.034 1.744 1.428 1.819 1.758 2.84.671 2.042-.426 3.233-1.748 7.062-1.63 4.69-2.824 11.124-3.367 12.858-.032.117-.256.84-.501 1.819-.107.457-.171.723-.224 1.021 0 0 0 1.17.053 2.308.075 1.595 2.366 8.083 3.314 11.156.256.83.575 2.053 1.215 4.499 1.13 4.318 1.694 6.509 1.875 8.285.139 1.362.309 2.712.437 4.074.192 1.861.256 2.669.554 3.222l.021-.861c.043-1.829.096-3.659.107-5.477l.021-1.362c.011-.457.021-.904 0-1.361-.021-.904-.107-1.819-.234-2.723-.117-.904-.235-1.819-.277-2.723-.043-.904.011-1.85.117-2.797.234-1.914.394-3.839.554-5.775z" fill="#767817"/><path d="M53.812 31.999c-.021.649-.17 2.138-1.119 3.286-.693.84-1.598 1.223-2.078 1.425-1.034.436-1.524.34-1.534.5-.064.5 4.177 2.648 8.759 1.776 2.76-.532 4.752-1.978 5.818-2.893-.437.191-1.353.511-2.483.255-.362-.085-1.183-.287-1.907-1.064-1.204-1.287-1.183-3.137-1.172-3.478-1.417.075-2.856.138-4.284.192z" fill="#FFA974"/><path d="M58.234 33.158c-.139-.649-.128-1.181-.117-1.34l-4.294.181c-.011.234-.032.574-.107.968.384.362.895.808 1.353 1.117.16.106.352.223.629.287.128.032.48.117.895-.021.213-.074.309-.16.788-.532l.852-.659z" fill="#F88D53"/><path opacity=".68" d="M49.986 36.572c.714.319 1.758.872 2.792 1.797 1.407 1.244 2.355 2.765 2.589 2.584.064-.053.043-.319.021-.851-.021-.33-.053-.606-.085-.83-.203-.202-.469-.511-.703-.947-.224-.404-.362-.787-.437-1.085-.469-.904-.693-1.734-.703-2.233 0-.106 0-.553.096-1.106l.043-.245c-.085.298-.235.702-.49 1.127-.075.138-.352.606-.714.957-.81.776-1.971.83-2.408.83zM61.963 36.232c-.394.266-1.076.755-1.854 1.489-1.843 1.734-2.973 3.669-3.261 3.457-.032-.021-.032-.053-.053-.362-.032-.67.032-1.223.106-1.606l.298-.628.309-.638.597-1.159c.224-.479.586-1.244.49-2.127-.053-.5-.234-.904-.213-.904.021-.011.149.532.458 1.074.032.053.341.574.788.936.927.734 2.057.532 2.334.468z" fill="#FA9056"/><path d="M59.545 92.451c.735-1.17 1.716-2.712 3.367-4.244 1.034-.968 2.728-2.308 5.125-3.233l2.536.436c.895 1.276 3.346 5.116 3.271 10.402-.053 4.233-1.694 7.264-2.557 8.817-.469.851-1.161 1.755-1.161 1.755-.788 1.096-1.449 1.872-1.822 2.297-1.343 1.553-2.334 2.68-3.239 3.861-1.257 1.638-2.152 3.084-2.653 3.882-.48.776-.298.542-1.034 1.755-.906 1.51-1.215 1.904-1.396 2.638-.181.765-.181 1.414-.149 1.861-.064.585-.117 1.361-.075 2.286.053 1.149.235 2.053.373 2.638.565 2.467 1.545 4.68 1.769 5.211 2.163 5.137-.469 9.307.586 14.922.224 1.202.277 2.436.512 3.638.245 1.255.458 1.957.149 2.861-.096.276-.49 1.233-1.513 1.744-1.247.627-2.867.308-3.719-.532-.607-.596-.639-1.255-.884-3.637-.139-1.362-.309-2.712-.437-4.074-.181-1.765-.746-3.967-1.876-8.285-.639-2.457-.959-3.68-1.215-4.499-.959-3.073-3.239-9.572-3.314-11.157-.053-1.138-.053-2.307-.053-2.307.043-.298.107-.564.224-1.021.234-.99.458-1.713.501-1.819.565-1.829 1.737-7.296 3.367-12.859 1.097-3.754 1.961-6.094 2.536-7.519.842-2.159 1.524-3.818 2.781-5.818z" fill="#FFA974"/><path d="M73.833 95.812c-.043 2.733-.735 4.967-1.449 6.615-.394.915-.799 1.649-1.108 2.202-.405.734-.98 1.51-1.13 1.702l-.011.021-.011.011-.011.01v.011c-.788 1.095-1.449 1.872-1.822 2.297-1.343 1.553-2.334 2.68-3.239 3.861-1.257 1.638-2.152 3.084-2.653 3.882-.48.776-.298.542-1.034 1.755-.906 1.51-1.215 1.904-1.396 2.637-.181.766-.181 1.415-.149 1.862-.064.585-.117 1.361-.075 2.286.053 1.149.235 2.053.373 2.638.565 2.467 1.545 4.68 1.769 5.211l.117.288c1.151 2.999.65 6.072.352 9.178l-.011.096c-.128 1.489.085 2.882.096 4.328.011 1.255-.97 1.947-2.163 2.447-.629.266-2.515.989-3.186.659-.756-.383-.437-1.308-.522-2.074-.181-1.765-.746-3.967-1.875-8.285-.096-.372-.192-.713-.266-1.042-.469-1.776-.735-2.766-.948-3.468-.959-3.073-3.239-9.572-3.314-11.156-.053-1.138-.053-2.308-.053-2.308.043-.298.106-.564.224-1.021.234-.989.458-1.713.501-1.819.49-1.606 1.46-5.998 2.781-10.806.181-.68.384-1.361.586-2.052 1.098-3.755 1.961-6.095 2.536-7.52.874-2.159 1.545-3.818 2.792-5.796l.021-.021c.735-1.17 1.716-2.712 3.367-4.244 1.034-.968 2.728-2.308 5.125-3.233l2.536.436c.352.5.948 1.404 1.534 2.627l.117.245c.629 1.372 1.236 3.138 1.492 5.19.075.755.117 1.532.106 2.351z" fill="#9CA535"/><path opacity=".58" d="M73.834 95.812c-.043 2.733-.735 4.967-1.449 6.616-.394.914-.799 1.648-1.108 2.201-.458.777-.991 1.51-1.13 1.702l-.011.021-.011.011-.011.01v.011c-.788 1.096-1.449 1.872-1.822 2.297-1.343 1.553-2.334 2.681-3.239 3.861-1.257 1.638-2.152 3.084-2.653 3.882-.48.776-.298.542-1.034 1.755-.906 1.51-1.215 1.904-1.396 2.638-.181.765-.181 1.414-.149 1.861-.064.585-.117 1.361-.075 2.286.053 1.149.234 2.053.373 2.638.565 2.468 1.545 4.68 1.769 5.212l.117.287c1.268 3.254.65 6.136.352 9.274-.075.819-.139 1.648-.128 2.51-.075-.553-.107-1.234-.064-2.042.224-4.712-1.257-10.785-1.396-11.423-.149-.638-1.62-5.998-1.694-8.359-.021-.841-.011-1.33.053-1.766 0 0 .192-1.914.98-3.807 1.119-2.67 5.509-7.913 8.727-12.986 1.204-1.894 2.238-3.776 2.877-5.478.352-.936.661-2.031.853-3.308.096-.691.16-1.436.181-2.234.032-1.595-.138-3.403-.618-5.456-.085-.372-.181-.755-.288-1.149.117.383.245.84.405 1.393.629 1.372 1.236 3.138 1.492 5.19.064.755.107 1.532.096 2.35zM73.834 95.812c-.043 2.733-.735 4.967-1.449 6.615-.938.734-1.971 1.351-3.058 1.851l-.522.223c-2.557 1.075-5.328 1.574-8.067 2.064l-3.25.585c-1.289.234-2.579.468-3.879.702l-2.153.383c-1.737.308-3.602.691-4.785 1.999-1.62 1.787-1.364 6.126-1.375 8.477-.021 2.807.544 5.519 1.353 8.2 2.877 9.433 8.109 34.225 6.138 43.01-.298.021-.597.011-.842-.011-1.3-.138-2.76-.51-3.111-1.712l-.064-1.127v-.075c-.032-.532-.075-1.063-.117-1.595l-.032-.33-.032-.33v-.01l-.032-.33-.032-.33-.021-.234-.043-.436-.075-.67-.043-.329c-.053-.447-.117-.894-.192-1.33-.149-1-.33-1.999-.543-2.999-.064-.33-.139-.66-.213-1-.117-.553-.245-1.106-.373-1.659l-.522-2.351-.064-.297-.075-.33c-.096-.436-.181-.883-.266-1.319-.085-.447-.171-.883-.245-1.329l-.107-.617c-.096-.574-.181-1.149-.256-1.734l-.021-.17-.064-.51-.032-.341-.032-.34c-.032-.287-.053-.574-.075-.872l-.011-.351v-.17l.011-.49.011-.148v-.096l.011-.17.032-.298.011-.085c.032-.33.085-.66.149-.989l.106-.511.117-.521.075-.34.117-.511.075-.34.106-.511.064-.34.032-.17c.043-.224.075-.458.096-.681.021-.234.043-.468.053-.702v-.053l.011-.351v-.021c.011-.309 0-.606-.011-.915l-.011-.33v-.032l-.032-.659-.043-.67-.043-.67c-.021-.34-.053-.67-.085-1-.032-.329-.064-.659-.107-.989l-.043-.33-.085-.648-.021-.16-.053-.319-.021-.159-.075-.479-.032-.16-.117-.627-.021-.128-.011-.053-.096-.436-.117-.553c-.138-.628-.309-1.244-.469-1.861l-.075-.298-.256-.904-.085-.298-.17-.606-.085-.309-.085-.308-.181-.606-.085-.298-.085-.298-.128-.446-.085-.298-.043-.149-.17-.596-.032-.117-.139-.489-.352-1.234-.17-.649-.171-.67-.16-.701-.16-.724c-.16-.755-.298-1.521-.416-2.286-.043-.234-.075-.458-.107-.692l-.107-.744-.053-.372-.053-.373-.192-1.478-.085-.744-.075-.575-.021-.159-.043-.351-.043-.394-.021-.191-.053-.564-.043-.372-.043-.372-.032-.373-.032-.372-.032-.372c-.021-.245-.043-.5-.053-.755l-.021-.373-.032-.563-.011-.192c-.011-.255-.021-.5-.021-.755v-.021l-.011-.734v-.7550000000000001l.011-.755.021-.755c.011-.372.021-.883.064-1.5v-.053c.075-1.085.266-2.819.959-5.616.309-1.255.618-2.329.938-3.318.298-.936.597-1.776.874-2.585.735-2.084 1.439-3.839 2.025-5.211.053 0 2.43.542 2.685.617h.011c1.375.362 1.215.351 1.833 1.585.863 1.723 1.854 3.297 3.207 4.69 1.78 1.829 3.964 3.265 6.361 4.137 1.183.436 2.408.723 3.666.862.842.096 1.684.117 2.525.128h.991c1.247 0 2.483 0 3.729.011h2.9299999999999997l.341-.011c.107.745.149 1.521.139 2.34z" fill="#767817"/><path d="M51.585 83.209c-.298-.542-.543-1.117-.735-1.702l-.139-.447-.117-.457-.096-.457-.075-.457-.053-.479c-.011-.16 0-.34.043-.511.043-.17.106-.33.181-.468l.234-.404c.16-.266.32-.521.458-.787l.096-.202.043-.106.032-.096c.032-.138.032-.287.021-.425v-.011c-.011-.255-.053-.511-.128-.755l-.064-.191-.043-.202c-.021-.128-.043-.266-.043-.394-.021-.266-.021-.532-.032-.787-.011-.266-.021-.521-.021-.787v-.394l.021-.404.053-.404.085-.404c.128-.532.341-1.032.618-1.51l.107-.17.085-.149.043-.117v-.128c-.011-.085-.053-.181-.107-.266l-.053-.074-.064-.106-.085-.202-.117-.394-.096-.393-.16-.776c-.181-1.042-.309-2.085-.394-3.127l.043-.011c.256 1.021.479 2.042.725 3.063l.192.755c.064.245.139.5.224.723l.075.159.032.064.011.011.021.021.032.053c.085.128.16.287.181.457v.266l-.085.245-.117.191-.107.16c-.266.425-.479.893-.618 1.383-.075.245-.128.489-.16.744l-.043.383-.032.383-.053.787-.021.394v.394c0 .128.011.255.032.383l.032.191.053.181c.075.255.128.521.149.787v-.011l.021.245-.011.245-.032.117-.032.117-.075.223c-.107.298-.245.574-.384.851l-.192.404-.075.202-.053.192c-.053.255-.021.553.021.851l.064.457.075.447.085.447.096.447c.139.596.309 1.181.501 1.765l-.075-.021zM59.374 83.209c.309-.542.543-1.117.746-1.702.192-.585.32-1.202.416-1.819l.053-.468c.011-.159 0-.33-.043-.5-.085-.34-.256-.606-.416-.883-.16-.266-.33-.521-.458-.787l-.096-.202-.075-.202c-.032-.138-.032-.287-.021-.425v-.011c.011-.255.053-.51.128-.755.096-.255.128-.521.149-.787.032-.532.043-1.053.064-1.574.011-.266.011-.532-.011-.798-.021-.266-.064-.542-.128-.798-.128-.521-.341-1.032-.618-1.51l-.107-.181-.085-.149-.043-.128v-.128c.011-.085.053-.181.107-.276l.053-.075.064-.106.085-.202c.181-.521.277-1.042.373-1.563.181-1.042.309-2.074.394-3.127l-.043-.011c-.256 1.021-.49 2.042-.735 3.052l-.192.755c-.064.245-.139.5-.224.723l-.075.16-.032.064-.064.085c-.085.128-.149.287-.181.457v.266l.085.245.117.191.106.16c.266.436.48.893.618 1.383.149.489.202.989.245 1.51.021.255.032.521.043.787.011.266.032.521.021.776 0 .128-.011.255-.032.383s-.053.245-.096.372c-.075.255-.128.521-.149.787v-.011c-.032.159-.043.319-.011.489.032.17.085.308.139.457.107.298.245.574.384.851l.192.415c.053.138.107.266.128.394.053.255.011.553-.021.851l-.043.447-.064.447c-.053.298-.117.596-.181.893-.139.596-.309 1.181-.501 1.766l.032.011z" fill="#F88D53"/><path opacity=".68" d="M54.547 48.409c.234-.128.597-.192.821-.032.362.255.277.819.501 1.202.181.319.565.479.927.596.416.138.831.245 1.257.34.17.032.352.075.448.202.149.181.075.447-.032.649-.416.808-1.236 1.404-2.142 1.648-1.204.33-4.081.16-4.316-1.489-.011-.075-.043-.245.032-.425.224-.521 1.002-.277 1.566-.755.703-.574.245-1.563.938-1.936z" fill="#FA9056"/><path d="M55.112 77.604c-.224-.096-.266-.351-.277-.372.043-.138.106-.351.16-.606.224-.979.181-1.755.16-2.031-.053-1.149.117-.862.107-4.095-.011-3.329-.203-6.754-.277-8.051 0-.021 0-.106.075-.17l.117-.064.064-.011c.224.011.181 1.361.181 1.361-.075 2.127.416-.298.139 9.444-.021.596-.043 1.478-.085 2.552-.032.691-.011.978.021 1.064l.032.096.085.223.139.404c-.128.245-.416.351-.639.255z" fill="#F88D53"/><path opacity=".68" d="M68.879 52.877l-.543.968c-.107.202-.224.394-.373.574-.288.34-.703.553-1.151.596-.128.011-.277.011-.384-.064-.096-.064-.149-.16-.203-.255-.341-.638-.597-1.319-.757-2.031-.064-.276-.106-.564-.149-.851-.192-1.234-.384-2.478-.309-3.722.021-.362.085-.755.362-.989.426-.372 1.119-.149 1.502.276.373.415.554.978.863 1.446.245.383.533.734.778 1.096.064.33.234.734.33 1.064.192.659.149 1.234.032 1.893z" fill="#FA9056"/><path opacity=".58" d="M65.01 87.495c-1.321 1.138-2.387 2.17-3.175 2.978-1.225 1.255-1.961 2.021-2.813 3.244-.426.606-1.066 1.553-1.652 2.914-.309.713-.639 1.648-.639 1.648l.085-.213c.33-.585 2.504-4.361 4.635-6.275.938-.851 1.407-1.266 1.822-1.5.778-.447 1.534-.649 2.046-1.447.309-.479.256-.745.224-.851-.117-.319-.437-.468-.533-.5z" fill="#767817"/><path d="M68.58 80.859c-.234-.468-.48-1-.725-1.585-1.641.893-3.687 1.776-6.095 2.414-6.99 1.829-13.064.457-16.229-.542l-.543 1.489c2.749.915 15.152 4.286 23.592-1.776z" fill="#78061D"/><path d="M46.502 44.017c-.97 2.404-1.268 3.552-2.344 6.009-1.311 3.01-1.3 4.743-.693 6.296.789 2.01 2.483 2.595 2.76 5.02.085.755-.021 1.223.362 1.702.789.978 2.568.691 4.102.564 2.067-.17 8.237-.681 12.67-.287.565.053 2.643.255 3.143-.638.096-.17.064-.234.298-1.425.053-.287.149-.84.266-1.255.32-1.117.735-1.712 1.577-5.073.554-2.233.693-3.233.16-3.85-.373-.447-.81-.362-1.566-.691 0 0-1.236-.532-2.653-2.584-1.257-1.819-2.302-6.179-1.897-11.784-1.044-.245-1.449-.064-1.63.17-.213.287-.064.67 0 1.5.021.245 0 .84-.053 2.01-.224 5.211-.33 7.817-1.247 9.03-1.801 2.393-6.234 3.031-8.503 1.032-1.268-1.106-1.566-2.691-1.843-4.488-.341-2.255.053-4.371.533-6.903.149-.798.298-1.468.416-1.914l-1.481-.479c-.714 3.531-1.652 6.233-2.376 8.041z" fill="#BF7081"/><path d="M66.855 55.546c-.256.489-.81 1.34-1.843 1.978-1.364.83-2.76.776-3.293.745-2.685-.138-3.239-1.84-5.605-1.702-.81.053-.597.234-2.526.638-1.268.266-2.451.511-3.697.468-.671-.021-3.229-.106-4.774-1.606-1.577-1.542-1.332-3.829-1.353-5.052l-.16.447c-.192.574-.33 1.096-.416 1.574v.011l-.053.351c-.043.34-.064.659-.053.968v.021l.011.287v.021l.032.277v.011l.043.276.053.255.011.032.064.245.011.043.075.234.011.032.085.245.106.245.032.064.107.202.011.021.117.213.032.064.107.16.021.043.128.181.053.064.085.117.064.085.096.128.096.117.011.011c.447.553.906 1.064 1.247 1.723.224.447.394.947.469 1.585.085.755-.021 1.223.362 1.702.703.872 2.227.734 3.634.606.511-1.861 1.428-3.191 2.227-3.744.735-.511 1.534-.734 1.534-.734.288-.096.65-.16 1.13-.181 1.503-.053 1.748.457 4.39.851 1.918.287 2.877.425 3.847.106 2.184-.723 3.133-3.308 3.474-4.424z" fill="#A45967"/><path opacity=".68" d="M66.546 77.423c-.426-.84-1.46-2.904-1.865-5.105-.128-.702-.16-1.457-.096-2.329-.224.064-.48.149-.767.266l-.128.011c-.277.021-.565.053-.842.096-.277.043-.554.096-.831.149l-.043.011-.213.075-.416.234-.405.255c-.266.17-.533.351-.778.564-.16.138-.245.34-.192.542.075.277.394.425.703.33.309-.096.607-.213.906-.33l.437-.191.277-.138.661-.085.234-.021c.33.223.682.553.65.957-.021.255-.181.394-.416.766-.107.17-.224.383-.33.649-.245.33-.48.606-.682.808-.373.383-.693.638-.884.776-.33.255-.629.447-.874.596l-.927.521-.938.51c-.298.16-.416.511-.266.766.16.266.533.351.831.181.309-.17.629-.33.948-.489l.959-.479 1.108-.521-.16.096-.064.032-.288.16-1.524.83-.085.043-.085.043-.021.011-.139.075-.011.011-.128.074c-.458.255-.639.372-.831.606-.149.17-.405.468-.298.681.085.181.416.277.799.213l4.145-2.021-.139.085c-.959.511-1.843 1.032-2.664 1.563-.266.16-.373.468-.224.713.149.245.501.33.788.17l3.144-1.68-.895.659c-.064.053-.117.106-.149.181-.085.159-.085.351.043.5.171.202.501.234.735.064l2.323-1.595.107-.106.043-.074.096-.117c-.16-.223-.224-.362-.341-.585z" fill="#FA9056"/><path d="M63.741 71.531l-.096.011.256-.085-.16.075z" fill="#FFB171"/><path d="M62.367 70.755l.416-.255.416-.245c.064-.043.139-.064.213-.075l.043-.011c.277-.053.565-.117.842-.149.288-.043.565-.075.852-.096.288-.021.565-.032.853-.043.288 0 .565 0 .852.021.416.032.703.362.639.745-.053.351-.394.627-.778.638h-.011l-.767.032c-.256.011-.511.032-.767.053-.256.021-.512.043-.767.074l-.661.085.149-.074-.256.085.096-.011-.288.138-.448.202c-.298.128-.597.245-.916.34-.309.096-.629-.064-.714-.34-.053-.202.021-.404.192-.543.266-.223.533-.404.81-.574z" fill="#FFA974"/><path d="M67.45 77.232l-.117.117.043-.064.075-.053zM67.376 77.286l-.043.064.117-.106-.075.043 2.632-3.382c.192-.245.543-.319.799-.159.256.159.309.479.117.723l-2.675 3.414-.043.074-.106.106-2.355 1.617c-.234.17-.575.149-.746-.064-.171-.202-.117-.511.117-.681l2.259-1.648zM66.65 76.509l-.234.213.085-.128.149-.085z" fill="#FFB171"/><path d="M66.48 69.532c.171-.042.639-.138 1.556-.319.149-.032.426-.085.778-.234.213-.096.362-.181.416-.213.203-.117.48-.33.767-.67l.65.479c1.194.862 2.376 1.638 3.538 2.34-.341.351-.767.776-1.343 1.351-.298.309-.48.489-.703.776-.309.404-.565.84-.607.915l-.085.138c-.16.266-.448.649-1.183 1.393-.416.415-.97.957-1.684 1.564l-4.23-2.67c.149-.542.352-.957.522-1.234.234-.372.394-.521.415-.776.032-.415-.341-.755-.682-.979l.639-1.489c.522-.191.948-.308 1.236-.372z" fill="#FFA974"/><path d="M67.375 77.285l-.043.064.117-.106-.075.043 1.716-1.946-.788 1.191c-.245.372-.437.681-.576.904l-.288.223-2.461 1.447.16-.181 2.238-1.638z" fill="#FA9056"/><path d="M66.501 76.594l-.085.117.234-.202-.149.085 3.016-4.063c.224-.298.661-.394.98-.213.32.181.394.574.17.872l-3.101 4.18-.011.011c-.064.085-.139.149-.224.192l-4.475 2.393c-.288.159-.65.074-.799-.181-.149-.245-.043-.564.234-.723l4.209-2.468z" fill="#FFA974"/><path d="M65.148 77.402c.384-.202.767-.393 1.14-.574l.213-.181.213-.181c.884-1.213 1.108-1.457 1.14-1.446.043.032-.277.627-.639 1.149-.266.372-.522.67-.714.872l-.224.17-4.188 2.042.192-.17c.874-.564 1.833-1.138 2.867-1.681z" fill="#FA9056"/><path d="M61.738 77.679c.224-.117 1.055-.574 1.843-1.01l.064-.032c.661-.372 1.098-.713 1.375-.957l.33-.34.384-.436c.373-.713 1.332-2.436 2.557-3.286.288-.202.874-.606 1.353-.415.256.096.373.319.394.362.234.436-.064.893-.085.925-.97.904-1.534 1.67-1.875 2.223-.298.489-.501.734-.906 1.234 0 0-.33.415-.735.734-.171.138-.352.245-.352.245l-.106.064-5.083 2.478c-.394.064-.725-.032-.81-.213-.107-.223.149-.511.298-.691.277-.308.501-.425 1.353-.883z" fill="#FFA974"/><path d="M63.582 76.668l.064-.032c.661-.372 1.098-.713 1.375-.957l.33-.34.384-.436c.639-.659.842-.776.906-.734.107.074-.128.691-.565 1.127l-.234.213-.32.234-.448.308-.149.096-.213.128c-.639.372-1.279.681-1.897.936l-.97.489-.959.5-.117.053c.202-.138.48-.287.991-.564.203-.128 1.034-.574 1.822-1.021z" fill="#FA9056"/><path d="M60.182 77.084l.948-.521.948-.532c.256-.149.554-.351.884-.606.192-.149.522-.404.895-.787.213-.213.458-.5.714-.84.618-.234 1.012-.489 1.268-.691l.543-.457.554-.447c.373-.298.746-.585 1.13-.872.309-.234.756-.202.98.064.202.234.181.574-.043.808-.32.34-.65.681-.991 1.01-.171.17-.33.33-.511.489l-.511.489-1.034.957c-.17.159-.352.319-.554.447-.203.128-.416.255-.597.404l-.245.16c-.288.181-.522.277-.639.33-.309.138-.703.319-1.236.574l-.97.489-.959.5c-.309.16-.682.085-.842-.191-.17-.255-.053-.606.266-.776z" fill="#FFA974"/><path d="M24.348 46.08c-.021.17-.064.415-.181.702-.33.776-.991 1.17-1.289 1.351-.234.138-1.577.893-3.048.34-.671-.255-1.076-.659-1.204-.798-.714-.776-.81-1.68-.831-2.01-.011-.181-.064-1.638 1.119-2.659.202-.17.416-.309.618-.415.714-.362 1.385-.362 1.588-.362 1.375.032 2.227.947 2.419 1.159.394.425.575.83.607.925.181.425.234.84.245 1.159.011.287-.021.5-.043.606z" fill="#767474"/><path d="M23.229 48.175c-.021.362-.085.638-.202 1-.277.915-.597 1.627-1.002 2.787l-.085.255-.085.394c-.053.34.032.925.33 1.478.064.117.16.276.309.447l-.085.064-.256.181c-.234.16-1.194 1.149-1.843 1.648-.181.138-.447.33-.82.511l-.16.085c-.373-.383-.863-.893-1.353-1.425l-.032-.032-.064-.064c-.128-.138-.288-.319-.479-.564-.213-.277-.373-.532-.597-.872-.394-.606-.788-1.212-1.023-1.893-.117-.34-.192-.691-.266-1.042-.149-.713-.298-1.425-.575-2.095l-.064-.191v-.117c.032-.149.192-.223.32-.319.224-.16.362-.394.522-.617l.16-.191c.107-.117.235-.202.362-.287.224-.128.469-.223.725-.308l.064-.021.234-.064.075-.021c.224-.064.447-.117.682-.16l.448-.085.245-.043.447-.064.224-.032.65-.096.117-.021.33-.053.085-.011.49-.096.075-.021.064-.021.384-.138.149-.075.256-.149c.341-.202.586-.425.746-.585l.085.149c.266.5.352.904.373 1.202l.021.776.011.521.011.277z" fill="#FFA974"/><path opacity=".68" d="M21.876 47.845c-.139.106-.298.181-.416.308-.139.138-.224.319-.288.511-.149.468-.16 1.042-.394 1.436-.629 1.064-.192 1.829-.33 2.361-.437 1.638-1.236 1.84-1.183 3.063l.043.404c.021.192.053.479.075.83l-.011.128-.064.117-.597-.638-.725-.766-.032-.032-.064-.064c-.17-.181-.33-.372-.48-.564-.213-.277-.405-.574-.597-.872-.394-.606-.788-1.212-1.023-1.893-.117-.34-.192-.691-.266-1.042-.149-.713-.298-1.425-.575-2.095l-.064-.191v-.117c.032-.149.192-.223.32-.319.224-.16.362-.394.522-.617l.16-.191c.106-.117.234-.202.362-.287.224-.128.469-.223.725-.308l.064-.021.234-.064.075-.021c.224-.064.448-.117.682-.16l.448-.085.245-.043.448-.064.224-.032.65-.096.117-.021.33-.053.085-.011.49-.096.117.043c.139.043.266.064.405.053l.075-.011c.139-.021.277-.064.416-.16l.128-.043.075.096.053.149c.171.521-.021 1.138-.458 1.478z" fill="#FA9056"/><path d="M18.839 50.441l3.271-4.765-1.46-1.351-4.955 3.85 3.143 2.265z" fill="#767474"/><path d="M21.588 46.367l-.064.117c-.128.16-.33.17-.394.17-.107 0-.256-.021-.543-.234-.458-.33-.448-.511-.757-.638l-.575-.085c-.522-.106-.597-.277-.821-.213l-.501.425-.65.276c-.064.032-.192.096-.256.043l-.043-.085c-.053-.213-.48-.309-.575-.511-.043-.075-.021-.181.021-.277.107-.255.405-.553.597-.712.266-.223.511-.319.725-.394 0 0 .522-.202.98-.181l1.034.245c.16.032.341.064.543.181l.043.032c.149.096.234.191.288.255l.671.83c.128.138.224.245.288.425.043.17 0 .298-.011.33z" fill="#F88D53"/><path d="M21.588 46.846c.075.234.021.383.011.415l-.075.138c-.16.191-.405.202-.48.202-.139 0-.309-.032-.661-.287-.554-.404-.533-.617-.906-.776l-.693-.096c-.618-.138-.725-.33-.991-.255-.245.064-.16.223-.607.511l-.778.34c-.075.043-.224.117-.309.053l-.053-.106c-.064-.266-.575-.372-.693-.617-.043-.096-.032-.213.021-.34.128-.308.479-.67.714-.861.32-.266.618-.383.874-.479 0 0 .629-.245 1.183-.213l1.247.298c.192.032.405.074.65.223l.053.032.16.117.181.181.81 1c.139.149.256.266.32.447l.021.075z" fill="#FFA974"/><path opacity=".68" d="M21.599 47.261l-.075.138c-.16.191-.405.202-.48.202-.139 0-.309-.032-.661-.287-.554-.404-.533-.617-.906-.776l-.693-.096c-.618-.138-.725-.33-.991-.255-.245.064-.16.223-.607.511l-.778.34c-.075.043-.224.117-.309.053l-.053-.106c-.064-.266-.575-.372-.693-.617-.043-.096-.032-.213.021-.34.33-.266.927-.681 1.769-.808.426-.064.735-.032 1.172.021.65.074 1.162.138 1.492.521l.245.436c.373.627.565.947.906 1.063.107.043.32.096.639 0z" fill="#FA9056"/><path d="M20.939 48.005l-.075.138c-.16.191-.405.202-.48.202-.139 0-.309-.032-.661-.287-.554-.404-.533-.617-.906-.776l-.693-.096c-.618-.138-.725-.33-.991-.255-.245.064-.16.223-.607.511l-.778.34c-.075.042-.224.117-.309.053l-.053-.106c-.064-.266-.575-.372-.693-.617-.043-.096-.032-.213.021-.34.128-.308.479-.67.714-.862.32-.266.618-.383.874-.479 0 0 .629-.245 1.183-.213l1.247.298c.192.032.405.074.65.223l.053.032c.181.117.288.245.341.298.426.489.49.702.842 1.064.128.128.256.245.32.447.011.074.064.245 0 .425z" fill="#FFA974"/><path opacity=".68" d="M21.567 46.782l-.266-.074c-.256-.085-.575-.191-.82-.489-.224-.277-.245-.585-.245-.681-.011-.117-.021-.255.021-.383l.181.181.81 1c.139.149.245.266.32.447zM20.939 48.005l-.075.138c-.16.191-.405.202-.48.202-.139 0-.309-.032-.661-.287-.554-.404-.533-.617-.906-.776l-.693-.096c-.618-.138-.725-.33-.991-.255-.245.064-.16.223-.607.511l-.778.34c-.075.043-.224.117-.309.053l-.053-.106c-.064-.266-.575-.372-.693-.617-.043-.096-.032-.213.021-.34.33-.266.927-.681 1.769-.808.426-.064.735-.032 1.172.021.65.075 1.162.138 1.492.521l.245.436c.373.627.565.947.906 1.064.107.042.32.085.639 0z" fill="#FA9056"/><path d="M18.7 46.75c.053.032.202.117.394.33.32.362.448.883.82 1.191.128.106.245.149.309.298.064.16.064.383-.064.542-.149.191-.394.191-.469.202-.128 0-.298-.032-.65-.276-.543-.394-.522-.606-.895-.755l-.682-.096c-.607-.128-.703-.319-.98-.245-.234.064-.16.213-.597.5l-.767.33c-.075.032-.224.117-.309.053l-.053-.096c-.075-.33-.554-.83-.49-1.276.075-.511.842-.787 1.396-.978.277-.096.661-.234 1.161-.213.394.021.298.106 1.225.287.192.021.405.064.65.202zM20.426 45.612c.181.351.554.5.874.617.277.106.501.128.629.138.203.011.341-.011.384-.011.17-.032.266-.043.352-.096.288-.202.298-.872-.011-1.138-.171-.149-.224-.138-1.705-.383-.266-.043-.394-.032-.501.053-.149.138-.128.404-.117.489.021.17.075.298.096.33z" fill="#FFA974"/><path d="M19.734 52.77c-.043.255-.096.617-.277 1.032-.49 1.149-1.46 1.734-1.918 1.999-.352.202-2.334 1.319-4.518.5-.991-.372-1.598-.978-1.78-1.181-1.066-1.149-1.204-2.499-1.236-2.978-.011-.16-.043-1.032.341-2.031.234-.638.639-1.319 1.321-1.904 1.343-1.149 2.888-1.159 3.261-1.149 2.046.053 3.303 1.404 3.591 1.712.586.628.852 1.234.906 1.372l.021.053c.49 1.181.352 2.212.288 2.574z" fill="#9C9999"/><path d="M20.501 45.006c.043.138.138.213.234.287l.128.064.085.011c.256-.032.096.032.597-.085l.213-.085c.032-.021.096-.074.107-.16l-.053-.138c-.064-.085-.16-.106-.234-.117-.32-.064-.511-.064-.511-.064-.149 0-.341 0-.575.032-.011.053-.021.149.011.255zM19.361 48.463c.011-.053.107-.372.298-.404.032 0 .096 0 .501.425.192.213.256.287.256.393 0 .085-.032.202-.128.255-.075.042-.16.032-.192.032-.33-.043-.703-.638-.735-.702zM20.171 47.484c.011-.043.107-.351.288-.383.032 0 .096 0 .479.404.192.202.245.266.245.372 0 .085-.032.191-.128.245-.075.042-.149.032-.192.032-.298-.043-.65-.606-.693-.67zM20.811 46.59c.021-.043.171-.33.352-.319.032 0 .096.011.394.489.149.234.192.309.17.415-.021.075-.075.181-.17.213-.075.032-.16 0-.192-.011-.288-.096-.522-.723-.554-.787z" fill="#A91D00"/><path d="M19.734 52.77c-.043.255-.096.617-.277 1.032-.49 1.149-1.46 1.734-1.918 1.999-.352.202-2.334 1.319-4.518.5-.991-.372-1.598-.978-1.78-1.181-1.066-1.149-1.204-2.499-1.236-2.978-.011-.16-.043-1.032.341-2.031v.117c0 2.287 1.865 3.616 1.961 3.691.597.404 1.14.553 1.375.606 1.758.415 3.229-.489 3.612-.745 1.652-1.106 2.067-2.903 2.163-3.573.479 1.17.341 2.201.277 2.563z" fill="#767474"/><path d="M24.391 45.485c-.171-.011-.33-.075-.469-.17-.405-.298-.49-.606-.693-.872-.522-.649-1.503-.106-2.547-.638-.33-.17-.767-.5-1.151-1.202.714-.362 1.385-.362 1.588-.362 1.375.032 2.227.947 2.419 1.159.394.425.575.83.607.925.192.425.245.84.245 1.159z" fill="#9C9999"/><path d="M54.089 11.727c1.204-1.117 3.314-1.244 4.944-.532.48.213 1.247.521 1.854 1.287 1.108 1.415.288 2.574 1.279 4.116l.139.191.17.17c.053.043 1.034.947 1.524 3.34.128.628.139.968.192 1.383.256 2.085 1.076 3.233 1.556 4.456 1.183 2.989.501 6.754-.394 8.615-.128.266-.852 1.744-1.268 3.701-.107.521-.128.745-.139.851-.053 1.734.98 1.893 1.012 3.488.043 2.308-2.142 2.829-3.25 6.541-.224.744-.405 1.649-.309 2.733.085.936.362 1.68.565 2.148-2.291-2.786-2.611-4.892-2.44-6.339.213-1.84 1.194-2.329 1.172-4.286-.032-2.574-1.737-2.818-1.63-5.084.107-2.191 1.748-2.818 1.449-5.105-.117-.915-.426-1.095-.437-2.095-.021-1.404.554-2.244.959-3.286.554-1.436.32-2.584.511-4.807.213-2.563-.032-5.382-1.715-7.307-.458-.521-2.312-3.021-4.657-2.925-.725.032-1.598.308-1.78-.032-.16-.266.33-.883.693-1.223z" fill="#2D0B09"/><path d="M61.953 27.883c.49-.947.693-1.819.874-2.584.554-2.382.373-4.329.277-5.052-.288-2.276-.597-4.892-2.632-6.456-1.609-1.244-3.516-1.213-4.912-1.191-1.3.021-2.973.043-4.529 1.191-1.897 1.404-2.408 3.595-2.557 4.233-.266 1.117.043.979-.288 3.116-.203 1.297-.405 1.968-.075 2.818.192.479.373.553.661 1.266.33.808.352 1.34.448 1.776.234 1.053.938 1.712 1.886 2.606 1.502 1.415 2.824 2.659 4.699 2.744 3.676.159 6.053-4.286 6.148-4.467zM62.208 25.245c.096 2.563-.874 4.903-.799 7.275l.011.223.021.223.021.223.032.223c.043.287.107.585.171.872.139.585.309 1.18.426 1.787.117.617.17 1.255.096 1.893-.043.319-.117.638-.234.936-.117.298-.298.585-.511.83-.213.245-.458.447-.714.638-.245.181-.501.351-.735.542-.469.362-.906.787-1.225 1.287-.16.245-.298.511-.384.787-.096.276-.139.564-.128.861.011.287.085.574.203.851.117.266.277.521.458.766.362.479.799.915 1.194 1.383l.139.181.139.191.245.393.202.415.085.213.043.106.032.106c.384 1.17.341 2.478-.17 3.595.48-1.127.49-2.425.085-3.563l-.032-.106-.043-.106-.085-.213c-.064-.138-.128-.276-.213-.404l-.245-.383-.139-.181-.149-.17c-.394-.457-.842-.883-1.225-1.361-.192-.245-.373-.5-.501-.787-.139-.287-.224-.596-.245-.915-.021-.319.021-.638.117-.947.096-.308.234-.596.394-.861.341-.532.778-.989 1.257-1.383l.725-.564c.234-.181.458-.383.639-.596.181-.223.32-.468.426-.734.107-.266.16-.553.192-.84.032-.287.032-.585 0-.872-.021-.298-.075-.585-.139-.872-.128-.585-.309-1.159-.469-1.755-.075-.298-.149-.606-.202-.915l-.032-.234-.032-.234-.032-.234-.011-.234c-.032-.628 0-1.255.064-1.872.064-.617.17-1.223.256-1.829.096-.606.192-1.202.245-1.797.064-.596.085-1.181.043-1.765l.735-.075zM61.718 15.779c.448.83.852 1.691 1.183 2.584.341.893.597 1.808.778 2.744l.032.181.032.181.053.351c.032.234.064.479.075.713l.043.713.011.362v.362c-.011.479-.043.957-.107 1.436-.032.245-.085.479-.128.713-.053.234-.107.468-.171.681-.117.447-.213.883-.277 1.329-.075.447-.117.893-.149 1.351l-.021.34-.021.351-.032.691c-.021.457-.043.915-.043 1.372 0 .457.011.915.043 1.361.032.457.096.904.181 1.351.085.447.203.883.341 1.308l.117.319.064.16.064.16.139.308.149.308c.096.202.202.404.32.606.107.202.224.404.33.638.106.223.181.479.224.712.043.234.064.5.032.755-.021.255-.085.5-.171.723-.085.234-.192.447-.309.659-.234.415-.512.798-.767 1.181-.266.383-.512.755-.703 1.17l-.128.308-.032.074-.021.075-.043.16-.043.16-.032.16-.021.17-.021.17c-.032.447 0 .904.075 1.351.075.447.181.893.298 1.34.117.447.256.893.362 1.34.117.457.213.915.277 1.372.149.925.213 1.851.171 2.786-.043.925-.203 1.861-.501 2.744-.298.883-.767 1.712-1.375 2.404.597-.713 1.034-1.542 1.311-2.425.277-.883.416-1.808.437-2.723.021-.925-.064-1.84-.234-2.755-.085-.457-.181-.904-.309-1.351-.117-.447-.266-.883-.394-1.329-.128-.447-.256-.893-.341-1.361-.085-.468-.128-.936-.106-1.415l.021-.181.021-.181.032-.181.043-.181.053-.17.021-.085.032-.085.139-.34c.192-.436.447-.84.703-1.234.256-.394.511-.766.725-1.17.213-.393.373-.808.405-1.234.021-.213 0-.415-.043-.638-.043-.213-.107-.415-.203-.606-.096-.191-.213-.394-.33-.596-.117-.202-.235-.404-.341-.617l-.16-.319-.149-.319-.075-.16-.064-.17-.128-.33c-.16-.447-.298-.904-.394-1.372-.096-.468-.17-.936-.213-1.404-.043-.468-.064-.947-.075-1.415-.011-.468 0-.936.011-1.404l.021-.702.011-.351.021-.351c.021-.468.064-.947.128-1.415l.117-.702c.043-.234.096-.468.149-.691l.149-.67c.043-.223.085-.436.107-.659.053-.436.075-.893.075-1.34v-.34l-.011-.34-.053-.67-.085-.67-.064-.33-.032-.17-.032-.17c-.192-.883-.448-1.744-.789-2.584-.341-.84-.735-1.648-1.183-2.446l.799-.436z" fill="#451711"/><path d="M50.701 25.713c.447.617.085 2.159-.714 2.616-.107.053-.341.192-.607.117-.171-.043-.373-.181-.906-1.393-.469-1.074-.522-1.468-.533-1.638-.032-.34-.106-1.021.203-1.223.234-.16.597.053.714.128.352.213.394.447.682.744.522.542.885.277 1.162.649zM60.92 25.713c-.448.617-.085 2.159.714 2.616.106.053.341.192.607.117.17-.043.373-.181.906-1.393.469-1.074.522-1.468.533-1.638.032-.34.107-1.021-.202-1.223-.234-.16-.597.053-.714.128-.352.213-.394.447-.682.744-.522.542-.884.277-1.161.649zM60.621 29.818c-.32.564-.714 1.244-1.46 1.925-.384.351-1.066.968-2.152 1.276-.266.075-.714.202-1.3.192-1.343-.032-2.302-.776-2.707-1.106-.639-.521-.959-1.01-1.534-1.936 0 0-1.332-2.106-1.513-4.041l-.021-.33c-.011-.404.043-.691.032-1.808l-.011-.415c-.021-.649-.043-1.085-.075-1.468.096-.659.447-2.499 1.971-3.605 1.044-.766 2.131-.808 3.857-.893 1.748-.085 2.621-.117 3.612.447 2.003 1.149 2.344 3.595 2.344 3.829 0 .064-.021.638-.032.691l-.011.106.011.011c-.011.191-.011.457-.011.766 0 .436.021.787.043 1.138l.032.362c.043.617.085.989.096 1.17.096 1.468-.65 2.787-1.172 3.691z" fill="#FFA974"/><path opacity=".68" d="M61.687 24.98l-.011.021c-.17-.5-.416-1.212-.767-2.063-.544-1.319-.81-1.978-1.13-2.361-1.247-1.489-3.623-1.372-4.252-1.34-.714.032-2.973.149-4.454 2.01-.789.989-1.034 2.074-1.108 2.776l-.011-.415c-.021-.649-.043-1.085-.075-1.468.096-.66.447-2.499 1.971-3.605 1.044-.766 2.131-.808 3.857-.893 1.748-.085 2.621-.117 3.612.447 2.003 1.149 2.344 3.595 2.344 3.829 0 .064-.021.638-.032.691l-.011.106.011.011c-.011.192-.011.457-.011.766 0 .436.021.787.043 1.138l.021.351z" fill="#FA9056"/><path d="M62.613 20.193c.714 1.489 1.449 2.999 1.982 4.605.266.798.49 1.627.629 2.467l.021.16.011.074.011.075.043.319c.032.213.043.425.053.638.021.425.021.862-.011 1.287-.032.425-.085.851-.171 1.276-.085.425-.192.84-.341 1.244-.288.808-.693 1.585-1.247 2.255-.277.33-.586.649-.927.915-.341.276-.703.5-1.076.713l-1.098.596c-.181.096-.352.202-.522.308-.171.106-.33.223-.48.34-.309.245-.586.521-.81.84-.106.159-.202.33-.266.5-.075.181-.117.362-.139.542-.053.372 0 .766.128 1.127.128.362.33.713.575 1.021.245.319.522.606.831.861.309.266.639.5.98.713.352.213.714.415 1.066.638.352.223.703.457 1.023.734.16.138.309.287.448.457.139.16.256.34.362.532.107.181.192.383.256.585.064.202.107.415.117.627.011.213-.011.436-.064.638l-.021.075-.032.074-.064.149-.075.149-.085.138c-.117.181-.266.34-.426.479-.17.138-.352.245-.533.34-.373.191-.778.308-1.183.425-.405.106-.799.202-1.204.319-.394.117-.788.255-1.151.457-.181.106-.352.223-.501.362-.149.138-.277.298-.394.479.107-.181.234-.34.384-.489.149-.149.32-.266.501-.372.362-.213.746-.362 1.14-.489.394-.128.799-.234 1.194-.351.394-.117.788-.255 1.151-.436.181-.096.352-.202.501-.34.149-.128.288-.287.394-.447.213-.34.309-.734.266-1.138-.032-.394-.171-.776-.373-1.127-.106-.17-.224-.33-.352-.489-.128-.149-.277-.287-.437-.415-.309-.255-.65-.479-1.012-.681l-1.087-.606c-.362-.213-.714-.447-1.044-.712-.33-.266-.639-.564-.906-.893-.266-.33-.501-.702-.661-1.117-.16-.415-.224-.861-.171-1.308.021-.223.075-.447.16-.649.075-.213.181-.415.298-.596.245-.372.543-.691.874-.968.171-.138.341-.266.522-.383l.544-.34 1.076-.617c.352-.202.682-.425.98-.681.298-.255.575-.542.81-.851.48-.617.842-1.34 1.087-2.095.128-.372.213-.766.288-1.159.064-.394.107-.787.128-1.191.021-.393.011-.798-.021-1.191l-.064-.596-.043-.298-.011-.075-.011-.074-.032-.149c-.149-.787-.373-1.563-.65-2.319-.554-1.521-1.3-2.978-2.057-4.446l.916-.447z" fill="#451711"/><path opacity=".68" d="M81.772 60.066l-.043.351c-.309 2.095-2.163 3.414-3.623 4.467-.458.33-.82.606-1.396.819-.842.319-1.79.277-2.621.638-.639.276-1.162.776-1.726 1.181-.309.223-2.462 1.351-3.389 1.393l.234-.17.288-.234c.192-.16.362-.34.533-.51.341-.362.661-.734.948-1.138.288-.394.554-.819.788-1.266.117-.223.234-.447.341-.681l.171-.34.171-.33c.245-.447.501-.851.799-1.234.309-.383.629-.755.97-1.117.277-.287.554-.564.852-.819l-.373-.659c-.501-.872-1.002-1.744-1.502-2.606-.991-1.744-2.025-3.457-3.09-5.158-.277-.447-.554-.883-.842-1.329-.053-.532-.011-1.021.288-1.266.437-.34 1.225-.021 1.993.351 2.707 1.34 3.271 2.435 5.903 4.073.725.447 1.471.861 2.43 1.712.362.319.639.606.852.851l.107.277.139.362.128.372.256.734.245.745.117.383.053.149z" fill="#FA9056"/></g><defs><clipPath id="a"><path fill="#fff" d="M0 0h110v103h-110z"/></clipPath></defs></svg>