<svg width="194" height="134" viewBox="0 0 194 134" xmlns="http://www.w3.org/2000/svg" fill="none"><g clip-path="url(#a)"><path d="M136.335 64.492c-2.359 1.307-2.864-1.139-5.559-1.181-4.043-.084-8.212-.042-12.423.042-15.16.337-31.12 1.476-45.648 1.181-5.432-.127-11.159-.337-15.876-2.953.042-.38-.295-1.645-1.516-4.682 9.349-2.278 18.908-3.416 28.509-3.88 12.044-.59 24.214-.042 36.342.759l1.39.084c3.537.253 7.032.506 10.527.759 2.653.211 5.77.675 6.991 3.037 1.263 2.446-.379 5.525-2.737 6.833z" fill="#BF1F2D"/><path opacity=".588" d="M120.754 59.768c-.59 1.307-1.432 2.489-2.401 3.585-15.16.337-31.12 1.476-45.648 1.181-5.432-.127-11.159-.337-15.876-2.952.042-.38-.295-1.645-1.516-4.682 9.349-2.278 18.908-3.416 28.509-3.88.926 1.139 2.19 2.067 3.495 2.657 2.611 1.139 5.517 1.308 8.338 1.476 4.043.211 8.128.422 12.171.675 2.61.127 5.348.295 7.832-.548 1.853-.591 3.58-1.856 4.506-3.501l1.39.084c.379 1.982.042 4.091-.8 5.905z" fill="#4A0419"/><g opacity=".4"><path opacity=".4" d="M84.749 59.979l-.084-.548-.084-1.055v-2.193c0-.38-.59-.38-.59 0 0 .759-.042 1.518 0 2.278 0 .38.042.759.084 1.139.042.337.042.801.295 1.054.126.127.337.084.421-.127.042-.169 0-.38-.042-.548zM97.34 59.388l-.084-.548-.084-1.054v-2.193c0-.38-.59-.38-.59 0 0 .759-.042 1.518 0 2.278 0 .38.042.759.084 1.139.042.338.042.801.295 1.055.126.127.337.084.421-.127.084-.169 0-.38-.042-.548zM109.636 59.894l-.084-.548-.084-1.054v-2.193c0-.38-.59-.38-.59 0 0 .759-.042 1.518 0 2.278 0 .38.042.759.085 1.139.042.337.042.801.294 1.054.127.127.337.084.421-.127.043-.169 0-.38-.042-.548zM86.686 58.756v-.46399999999999997c0-.084-.042-.127-.084-.211-.042-.042-.126-.084-.211-.084-.168 0-.253.127-.295.295v.46399999999999997c0 .084 0 .127.042.211 0 .084.042.127.084.211.042.127.253.127.295 0l.042-.084c.042 0 .084-.042.084-.084.042-.042.042-.084.042-.169v-.084zM81.885 59.051v-.126l-.042-.127v-.084l-.042-.211-.042-.295c0-.127-.126-.295-.295-.295-.168 0-.295.127-.295.295l.042.464.126.506c.042.084.126.169.211.127l.126-.042h.042c.084-.042.169-.127.169-.211zM89.044 59.135v-.084c-.042-.253-.042-.506-.042-.759 0-.169-.126-.295-.295-.295-.084 0-.168.042-.21.084-.042.042-.084.127-.084.211v.422c-.042.084-.084.169-.042.253.042.127.084.253.169.337l-.042-.042c.042.084.042.127.126.169.042.042.168.042.211.042l.168-.127c.042-.084.042-.127.042-.211zM107.699 58.46v-.759c0-.169-.126-.295-.295-.295-.168 0-.295.127-.295.295v.211c-.084.084-.084.169-.084.295l.042.295.042.127v.084l.043.169.042.169c.042.127.252.127.294 0 .043-.042.043-.127.043-.169.042-.042.042-.084.042-.169v-.168c.126-.042.126-.084.126-.084zM105.383 58.038c0-.084.042-.211 0-.295 0-.127-.084-.253-.253-.253-.126 0-.252.084-.252.253v.59c0 .211 0 .422.042.591 0 .127.21.127.252 0 .042 0 .085-.042.085-.084v-.042c.042-.253.042-.464.042-.717l.084-.042zM103.109 57.532c0-.127-.126-.295-.253-.253-.126 0-.294.127-.252.253v.5900000000000001l-.042.127v.548c0 .127.084.211.21.211.084 0 .127 0 .211-.084.042 0 .084-.042.084-.084.084-.211.084-.464.084-.675v-.084c-.042-.127-.042-.337-.042-.548zM101.046 58.164v-.42099999999999993.042c0-.042-.042-.127-.085-.127h-.042l-.126-.042-.126.042-.042.042-.043.084v.548l.127.127h.126c.084 0 .169-.042.211-.127v-.169zM112.079 58.376c.042-.127.042-.295.042-.464 0-.169 0-.295-.042-.464l-.043-.084-.084-.084c-.042-.042-.126-.042-.168-.042l-.127.042c-.042.042-.126.084-.126.169l-.042.211-.042.084v.169c0 .084 0 .169.042.211l.042.295c0 .084.042.127.126.169.043.042.127.084.211.084.084 0 .211-.127.211-.295v-.042.042zM114.311 57.195c-.127-.042-.295.042-.337.169-.042.169-.085.337-.085.506v.253l.043.295c0 .084.084.127.168.169.084.084.253.084.295 0 .042-.084.042-.127.042-.211v-.8440000000000001c.084-.126 0-.295-.126-.337z" fill="#fff"/></g><path d="M79.021 26.616h-22.445v80.349h22.445v-80.349z" fill="#7B4A56"/><path opacity=".271" d="M79.021 26.615h-11.244v80.349h11.244v-80.349z" fill="#4A0419"/><path opacity=".69" d="M79.021 26.615h-3.832v80.349h3.832v-80.349z" fill="#3E2B52"/><path opacity=".58" d="M79.021 26.616v16.998c-1.263-.295-2.569-.59-3.832-.843l-1.011-.211c-2.106-.422-4.253-.844-6.359-1.223-3.706-.675-7.454-1.223-11.244-1.645v-13.075h22.445z" fill="#4A0419"/><path opacity=".502" d="M79.021 26.616v80.349h-22.445v-8.52c4.716-5.905 8.464-12.653 11.244-19.782 1.137-2.868 2.064-5.821 2.864-8.773 2.4-8.9 3.411-18.052 3.495-27.289.042-5.315-.21-10.629-.674-15.943h5.517v-.042z" fill="#4A0419"/><path d="M91.697 18.643v15.943c0 1.223-1.011 2.236-2.232 2.236h-43.374c-.59 0-1.137-.253-1.516-.633-.421-.422-.674-.97-.674-1.603v-15.943c0-1.223 1.011-2.236 2.232-2.236h43.416c1.179 0 2.148 1.012 2.148 2.236z" fill="#DBD3CA"/><path opacity=".369" d="M91.697 18.643v15.943c0 1.223-1.011 2.236-2.232 2.236h-11.665v-20.414h11.665c1.263 0 2.232 1.012 2.232 2.236z" fill="#4A0419"/><path opacity=".18" d="M74.558 16.408h-4.716v20.414h4.716v-20.414z" fill="#4A0419"/><path opacity=".102" d="M49.165 16.408v20.414h-3.074c-1.221 0-2.232-1.012-2.232-2.236v-15.943c0-1.223 1.011-2.236 2.232-2.236h3.074z" fill="#4A0419"/><path opacity=".561" d="M66.346 16.408h-11.244v20.414h11.244v-20.414zM59.524 16.408h-2.653v20.414h2.653v-20.414zM53.46 16.408h-2.653v20.414h2.653v-20.414zM80.916 16.408h-1.474v20.414h1.474v-20.414z" fill="#fff"/><path d="M91.697 18.643v15.943c0 1.223-1.011 2.236-2.232 2.236h-43.374c-.59 0-1.137-.253-1.516-.633-.421-.422-.674-.97-.674-1.603v-15.943c0-1.223 1.011-2.236 2.232-2.236h43.416c1.179 0 2.148 1.012 2.148 2.236z" fill="#DBD3CA"/><path opacity=".369" d="M91.697 18.643v15.943c0 1.223-1.011 2.236-2.232 2.236h-11.665v-20.414h11.665c1.263 0 2.232 1.012 2.232 2.236z" fill="#4A0419"/><path opacity=".18" d="M74.558 16.408h-4.716v20.414h4.716v-20.414z" fill="#4A0419"/><path opacity=".102" d="M49.165 16.408v20.414h-3.074c-1.221 0-2.232-1.012-2.232-2.236v-15.943c0-1.223 1.011-2.236 2.232-2.236h3.074z" fill="#4A0419"/><path opacity=".561" d="M66.346 16.408h-11.244v20.414h11.244v-20.414zM59.524 16.408h-2.653v20.414h2.653v-20.414zM53.46 16.408h-2.653v20.414h2.653v-20.414zM80.916 16.408h-1.474v20.414h1.474v-20.414z" fill="#fff"/><path opacity=".231" d="M91.697 18.644v15.943c0 1.223-1.011 2.235-2.232 2.235h-43.374c-.59 0-1.137-.253-1.516-.633 3.579-.548 7.117-1.392 10.528-2.573 3.916-1.307 7.664-3.037 11.244-5.146.884-.506 1.769-1.055 2.611-1.645l.926-.633c1.642-1.139 3.243-2.404 4.716-3.754 1.179-1.055 2.232-2.193 3.242-3.374.59-.675 1.137-1.392 1.642-2.151l.379-.548h9.686c1.179.042 2.148 1.055 2.148 2.278z" fill="#4A0419"/><path d="M91.696 98.993v15.943c0 1.223-1.011 2.236-2.232 2.236h-43.374c-.589 0-1.137-.253-1.516-.633-.421-.422-.674-.97-.674-1.603v-15.943c0-1.223 1.011-2.236 2.232-2.236h43.416c1.179 0 2.148 1.012 2.148 2.236z" fill="#DBD3CA"/><path opacity=".369" d="M91.697 98.993v15.943c0 1.223-1.011 2.236-2.232 2.236h-11.665v-20.415h11.665c1.263 0 2.232 1.012 2.232 2.236z" fill="#4A0419"/><path opacity=".18" d="M74.558 96.757h-4.716v20.415h4.716v-20.415z" fill="#4A0419"/><path opacity=".102" d="M49.165 96.757v20.415h-3.074c-1.221 0-2.232-1.013-2.232-2.236v-15.943c0-1.223 1.011-2.236 2.232-2.236h3.074z" fill="#4A0419"/><path opacity=".561" d="M66.346 96.757h-11.244v20.415h11.244v-20.415zM59.524 96.757h-2.653v20.415h2.653v-20.415zM53.46 96.757h-2.653v20.415h2.653v-20.415zM80.916 96.757h-1.474v20.415h1.474v-20.415z" fill="#fff"/><path d="M91.696 98.993v15.943c0 1.223-1.011 2.236-2.232 2.236h-43.374c-.589 0-1.137-.253-1.516-.633-.421-.422-.674-.97-.674-1.603v-15.943c0-1.223 1.011-2.236 2.232-2.236h43.416c1.179 0 2.148 1.012 2.148 2.236z" fill="#DBD3CA"/><path opacity=".369" d="M91.697 98.993v15.943c0 1.223-1.011 2.236-2.232 2.236h-11.665v-20.415h11.665c1.263 0 2.232 1.012 2.232 2.236z" fill="#4A0419"/><path opacity=".18" d="M74.558 96.757h-4.716v20.415h4.716v-20.415z" fill="#4A0419"/><path opacity=".102" d="M49.165 96.757v20.415h-3.074c-1.221 0-2.232-1.013-2.232-2.236v-15.943c0-1.223 1.011-2.236 2.232-2.236h3.074z" fill="#4A0419"/><path opacity=".561" d="M66.346 96.757h-11.244v20.415h11.244v-20.415zM59.524 96.757h-2.653v20.415h2.653v-20.415zM53.46 96.757h-2.653v20.415h2.653v-20.415zM80.916 96.757h-1.474v20.415h1.474v-20.415z" fill="#fff"/><path opacity=".231" d="M91.697 98.993v15.944c0 1.223-1.011 2.235-2.232 2.235h-43.374c-.59 0-1.137-.253-1.516-.632 3.579-.549 7.117-1.392 10.528-2.573 3.916-1.308 7.664-3.037 11.244-5.146.884-.506 1.769-1.055 2.611-1.645l.926-.633c1.642-1.138 3.243-2.404 4.716-3.754 1.179-1.054 2.232-2.193 3.243-3.374.59-.675 1.137-1.392 1.642-2.151l.379-.548h9.686c1.179.042 2.148 1.055 2.148 2.278z" fill="#4A0419"/><path d="M139.324 26.616h-22.445v80.349h22.445v-80.349z" fill="#7B4A56"/><path opacity=".271" d="M139.324 26.615h-11.243v80.349h11.243v-80.349z" fill="#4A0419"/><path opacity=".69" d="M139.324 26.615h-3.832v80.349h3.832v-80.349z" fill="#3E2B52"/><path opacity=".58" d="M139.324 26.616v16.998c-1.263-.295-2.568-.59-3.832-.843l-1.01-.211c-2.106-.422-4.254-.844-6.359-1.223-3.706-.675-7.454-1.223-11.244-1.645v-13.075h22.445z" fill="#4A0419"/><path opacity=".502" d="M139.324 26.616v80.349h-22.445v-8.52c4.717-5.905 8.464-12.653 11.244-19.782 1.137-2.868 2.063-5.821 2.863-8.773 2.401-8.9 3.411-18.052 3.496-27.289.042-5.315-.211-10.629-.674-15.943h5.516v-.042z" fill="#4A0419"/><path d="M152 18.643v15.943c0 1.223-1.011 2.236-2.232 2.236h-43.375c-.589 0-1.137-.253-1.516-.633-.421-.422-.674-.97-.674-1.603v-15.943c0-1.223 1.011-2.236 2.232-2.236h43.417c1.179 0 2.148 1.012 2.148 2.236z" fill="#DBD3CA"/><path opacity=".369" d="M152 18.643v15.943c0 1.223-1.011 2.236-2.232 2.236h-11.665v-20.414h11.665c1.263 0 2.232 1.012 2.232 2.236z" fill="#4A0419"/><path opacity=".18" d="M134.86 16.408h-4.716v20.414h4.716v-20.414z" fill="#4A0419"/><path opacity=".102" d="M109.468 16.408v20.414h-3.074c-1.222 0-2.232-1.012-2.232-2.236v-15.943c0-1.223 1.01-2.236 2.232-2.236h3.074z" fill="#4A0419"/><path opacity=".561" d="M126.649 16.408h-11.244v20.414h11.244v-20.414zM119.827 16.408h-2.653v20.414h2.653v-20.414zM113.763 16.408h-2.653v20.414h2.653v-20.414zM141.219 16.408h-1.474v20.414h1.474v-20.414z" fill="#fff"/><path d="M152 18.643v15.943c0 1.223-1.011 2.236-2.232 2.236h-43.375c-.589 0-1.137-.253-1.516-.633-.421-.422-.674-.97-.674-1.603v-15.943c0-1.223 1.011-2.236 2.232-2.236h43.417c1.179 0 2.148 1.012 2.148 2.236z" fill="#DBD3CA"/><path opacity=".369" d="M152 18.643v15.943c0 1.223-1.011 2.236-2.232 2.236h-11.665v-20.414h11.665c1.263 0 2.232 1.012 2.232 2.236z" fill="#4A0419"/><path opacity=".18" d="M134.86 16.408h-4.716v20.414h4.716v-20.414z" fill="#4A0419"/><path opacity=".102" d="M109.468 16.408v20.414h-3.074c-1.222 0-2.232-1.012-2.232-2.236v-15.943c0-1.223 1.01-2.236 2.232-2.236h3.074z" fill="#4A0419"/><path opacity=".561" d="M126.649 16.408h-11.244v20.414h11.244v-20.414zM119.827 16.408h-2.653v20.414h2.653v-20.414zM113.763 16.408h-2.653v20.414h2.653v-20.414zM141.219 16.408h-1.474v20.414h1.474v-20.414z" fill="#fff"/><path opacity=".231" d="M152 18.644v15.943c0 1.223-1.011 2.235-2.232 2.235h-43.375c-.589 0-1.137-.253-1.516-.633 3.58-.548 7.117-1.392 10.528-2.573 3.917-1.307 7.664-3.037 11.244-5.146.884-.506 1.769-1.055 2.611-1.645l.926-.633c1.643-1.139 3.243-2.404 4.717-3.754 1.179-1.055 2.232-2.193 3.242-3.374.59-.675 1.137-1.392 1.643-2.151l.379-.548h9.685c1.179.042 2.148 1.055 2.148 2.278z" fill="#4A0419"/><path d="M151.999 98.993v15.943c0 1.223-1.011 2.236-2.232 2.236h-43.374c-.59 0-1.137-.253-1.516-.633-.421-.422-.674-.97-.674-1.603v-15.943c0-1.223 1.011-2.236 2.232-2.236h43.416c1.18 0 2.148 1.012 2.148 2.236z" fill="#DBD3CA"/><path opacity=".369" d="M152 98.993v15.943c0 1.223-1.011 2.236-2.232 2.236h-11.665v-20.415h11.665c1.263 0 2.232 1.012 2.232 2.236z" fill="#4A0419"/><path opacity=".18" d="M134.86 96.757h-4.716v20.415h4.716v-20.415z" fill="#4A0419"/><path opacity=".102" d="M109.468 96.757v20.415h-3.074c-1.222 0-2.232-1.013-2.232-2.236v-15.943c0-1.223 1.01-2.236 2.232-2.236h3.074z" fill="#4A0419"/><path opacity=".561" d="M126.649 96.757h-11.244v20.415h11.244v-20.415zM119.827 96.757h-2.653v20.415h2.653v-20.415zM113.763 96.757h-2.653v20.415h2.653v-20.415zM141.219 96.757h-1.474v20.415h1.474v-20.415z" fill="#fff"/><path d="M151.999 98.993v15.943c0 1.223-1.011 2.236-2.232 2.236h-43.374c-.59 0-1.137-.253-1.516-.633-.421-.422-.674-.97-.674-1.603v-15.943c0-1.223 1.011-2.236 2.232-2.236h43.416c1.18 0 2.148 1.012 2.148 2.236z" fill="#DBD3CA"/><path opacity=".369" d="M152 98.993v15.943c0 1.223-1.011 2.236-2.232 2.236h-11.665v-20.415h11.665c1.263 0 2.232 1.012 2.232 2.236z" fill="#4A0419"/><path opacity=".18" d="M134.86 96.757h-4.716v20.415h4.716v-20.415z" fill="#4A0419"/><path opacity=".102" d="M109.468 96.757v20.415h-3.074c-1.222 0-2.232-1.013-2.232-2.236v-15.943c0-1.223 1.01-2.236 2.232-2.236h3.074z" fill="#4A0419"/><path opacity=".561" d="M126.649 96.757h-11.244v20.415h11.244v-20.415zM119.827 96.757h-2.653v20.415h2.653v-20.415zM113.763 96.757h-2.653v20.415h2.653v-20.415zM141.219 96.757h-1.474v20.415h1.474v-20.415z" fill="#fff"/><path opacity=".231" d="M152 98.993v15.944c0 1.223-1.011 2.235-2.232 2.235h-43.374c-.59 0-1.137-.253-1.516-.632 3.579-.549 7.116-1.392 10.527-2.573 3.917-1.308 7.665-3.037 11.244-5.146.884-.506 1.769-1.055 2.611-1.645l.926-.633c1.643-1.138 3.243-2.404 4.717-3.754 1.179-1.054 2.232-2.193 3.242-3.374.59-.675 1.137-1.392 1.643-2.151l.379-.548h9.685c1.179.042 2.148 1.055 2.148 2.278z" fill="#4A0419"/><path d="M55.818 60.991l1.011.633c-.084.337-.547-.169-1.011-.633zM114.858 94.481c-3.032-.38-6.232-.97-8.506-2.953l-.506-.464c-1.263-1.35-1.979-3.079-2.526-4.85-.674-2.236-1.137-4.513-1.937-6.706-.506-1.434-1.18-2.868-2.106-4.091-.463-.633-1.011-1.181-1.6-1.687 1.727-1.518 3.748-2.953 5.811-4.387.8 1.054 1.474 2.193 2.106 3.332l.21.38c1.643 3.079 2.695 6.453 3.201 9.87.168 1.265.252 2.531.463 3.796.084.675.21 1.307.379 1.94.126.464.253.928.421 1.392.8 2.109 2.485 4.007 4.59 4.429zM115.447 94.523c-.21 0-.379-.042-.589-.084.21.042.421.084.589.084z" fill="#BF1F2D"/><path opacity=".349" d="M109.847 88.702c-.969 1.054-2.106 1.982-3.327 2.742l-.126.084-.506-.464c-1.263-1.35-1.979-3.079-2.526-4.85-.674-2.236-1.137-4.513-1.937-6.706-.506-1.434-1.18-2.868-2.106-4.091-.463-.633-1.011-1.181-1.6-1.687 1.727-1.518 3.748-2.953 5.811-4.387.8 1.054 1.474 2.193 2.106 3.332l.21.38c-1.053 2.446-1.221 5.272-.463 7.803.716 2.32 2.148 4.429 4.085 5.863.126.675.252 1.35.379 1.982z" fill="#4A0419"/><path opacity=".451" d="M103.53 69.301c.8 1.054 1.474 2.193 2.106 3.332-.127.042-.211.084-.337.084-2.106.59-4.127 1.476-5.98 2.657-.463-.633-1.011-1.181-1.6-1.687 1.769-1.476 3.79-2.91 5.811-4.386z" fill="#4A0419"/><path d="M139.956 66.938c-1.39 0-2.821-.042-4.211-.127-9.559-.337-19.119-1.223-28.72-1.35-2.19-.042-4.337-.042-6.527.042h-.9269999999999999l-2.106.084c-2.106.084-4.169.253-6.275.422-11.96.928-23.793 2.32-35.458-.59l-.042-.759c-.042-1.097-.126-2.32-.168-3.712-.042-1.308-.084-2.699-.084-4.218 7.454 1.012 14.907 1.687 22.361 2.067 1.221.042 2.442.127 3.706.169 3.495.127 6.948.169 10.444.169h2.316l6.063-.127 1.516-.042c10.739-.464 21.477-1.519 32.173-3.248 1.095-.169 2.19-.337 3.285-.548.8-.127 1.558-.253 2.358-.422.59 4.26.674 7.719.295 12.19z" fill="#E05651"/><path opacity=".188" d="M100.498 65.504h-.9269999999999999l-2.106.084c-2.106.084-4.169.253-6.275.422-11.96.928-23.793 2.32-35.458-.59l-.042-.759c-.042-1.097-.126-2.32-.169-3.712 6.78.464 13.644-.675 20.508-1.476 1.811-.211 3.664-.38 5.474-.506 3.495.127 6.948.169 10.444.169.969.084 1.853.295 2.653.506 2.232.675 3.706 1.94 4.716 3.417.211.295.379.633.547.928.211.422.421.844.548 1.265l.084.253z" fill="#4A0419"/><path opacity=".42" d="M107.067 65.462c-2.189-.042-4.337-.042-6.527.042h-.9269999999999999l-.042-.126c-.126-.633-.168-1.265-.211-1.898v-.38c-.042-1.307.295-2.615 1.011-4.133l1.516-.042c.463 1.476.842 2.404.842 2.404l1.474.337s1.053 1.392 2.274 2.995c.168.295.379.548.589.801z" fill="#4A0419"/><path opacity=".439" d="M139.956 66.939c-1.39 0-2.821-.042-4.211-.126.168-.548.295-1.097.421-1.645.758-3.29 1.011-6.664 1.137-10.038.8-.127 1.558-.253 2.358-.422.59 4.302.674 7.761.295 12.232z" fill="#4A0419"/><path opacity=".29" d="M139.956 66.939c-1.39 0-2.821-.042-4.211-.126-9.559-.338-19.118-1.223-28.72-1.35-2.19-.042-4.337-.042-6.527.042h-.9269999999999999l-2.106.084-.084-.042 2.148-.211.885-.084c1.979-.169 4-.38 5.98-.633 4.632-.548 9.264-1.307 13.77-2.615 4.885-1.392 9.685-3.459 13.812-6.411 1.095-.169 2.19-.337 3.285-.548.8-.127 1.558-.253 2.358-.422.632 4.386.716 7.845.337 12.316z" fill="#4A0419"/><path opacity=".349" d="M93.887 63.944c-.716.886-1.642 1.561-2.653 2.109-11.96.928-23.793 2.32-35.458-.59l-.042-.759c6.906-.591 13.686-2.657 20.34-5.146.59-.211 1.179-.464 1.811-.675 1.221.042 2.442.127 3.706.169 3.495.127 6.948.169 10.444.169h2.316l.084.127c.084.127.168.253.211.38.59 1.307.168 3.037-.758 4.218z" fill="#4A0419"/><path d="M95.318 65.589v.548h-2.5690000000000004c-.884 0-1.811 0-2.695.042h-.8c-8.212.169-16.423.717-24.256 3.206-2.527.801-5.011 1.856-7.327 3.121-1.011.548-1.979 1.139-2.948 1.729-4.422 2.868-8.17 6.622-10.654 11.177-.505-.591-.632-1.392-.674-2.151v-.337c1.137-3.712 3.369-7.128 6.19-9.87 3.032-2.953 6.696-5.146 10.57-6.917 1.516-.675 3.032-1.307 4.59-1.856 4.759-1.729 9.686-3.037 14.697-3.88 4.295-.717 8.633-1.139 12.97-1.181.295.253.59.548.842.801 1.474 1.687 2.021 3.627 2.063 5.568z" fill="#BF1F2D"/><path opacity=".161" d="M95.318 65.589l-.337.548h-2.232c-.884 0-1.811 0-2.695.042l-1.221-.633c-5.643-2.784-12.339-3.416-18.36-1.687-5.011 1.476-9.517 4.555-12.802 8.604-1.011.548-1.979 1.139-2.948 1.729-4.422 2.868-8.17 6.622-10.654 11.177-.505-.591-.632-1.392-.674-2.151v-.337c1.137-3.712 3.369-7.128 6.19-9.87 3.032-2.953 6.696-5.146 10.57-6.917 1.516-.675 3.032-1.308 4.59-1.856 4.759-1.729 9.686-3.037 14.697-3.88 4.295-.717 8.633-1.139 12.97-1.181.295.253.59.548.842.801 1.474 1.729 2.021 3.669 2.063 5.61z" fill="#4A0419"/><path opacity=".549" d="M60.029 66.094c-2.316 2.278-4.169 5.061-5.39 8.14-4.422 2.868-8.17 6.622-10.654 11.177-.505-.591-.632-1.392-.674-2.151v-.338c1.137-3.712 3.369-7.128 6.19-9.87 2.99-3.037 6.654-5.23 10.528-6.959z" fill="#4A0419"/><path opacity=".478" d="M93.465 64.408c-.168.591-.421 1.181-.716 1.729-.884 0-1.811 0-2.695.042h-.8c-.126-.211-.253-.422-.421-.675-.842-1.223-1.895-2.278-3.116-3.121-1.853-1.265-4.085-1.94-6.317-2.025 4.295-.717 8.633-1.139 12.97-1.181.295.253.59.548.842.801.632 1.35.674 2.995.253 4.429z" fill="#4A0419"/><path d="M101.509 63.817c-3.032 1.518-5.854 3.416-8.422 5.61l-1.263-1.645-.337-.464c-1.516-2.151-2.695-4.513-2.695-7.086 0-.675.084-1.392.59-1.898.379-.422.968-.59 1.516-.717 3.032-.717 6.232-.59 9.222.295l1.011.337c.126 1.35.21 2.573.294 3.754l.085 1.814z" fill="#E05651"/><path opacity=".231" d="M101.509 63.818c-3.032 1.518-5.854 3.416-8.423 5.61l-1.263-1.645-.337-.464c1.263-.928 2.527-1.94 3.664-3.037 1.979-1.856 3.706-3.965 4.927-6.369l1.011.337c.126 1.35.21 2.573.294 3.754.085.633.085 1.223.127 1.814z" fill="#6E121C"/><path opacity=".439" d="M101.509 63.818c-3.032 1.518-5.854 3.416-8.422 5.61l-1.263-1.645c2.99-2.193 6.233-4.133 9.601-5.736l.085 1.772z" fill="#4A0419"/><path d="M105.93 69.469c-1.852 1.603-3.79 3.121-5.811 4.555-.463.337-.926.633-1.516.717h-.21c-.632 0-1.263-.295-1.811-.591l-5.432-2.742c-.379-.169-.758-.422-.8-.844 0-.337.295-.633.547-.844 2.611-2.193 5.39-4.133 8.338-5.821 1.347-.801 2.779-1.519 4.169-2.193.884 2.615 1.684 5.188 2.526 7.761zM144.252 100.681c-.674-1.898-2.022-3.458-3.664-4.597-1.179-.844-2.569-1.476-3.959-1.856-3.326-.928-6.864-.675-10.317-.253-3.411.422-6.864 1.054-10.317.928l-1.684-.126c-2.948-.338-5.938-1.265-7.959-3.332-3.917-3.965-3.538-10.629-6.528-15.353 1.98 2.151 3.496 4.513 5.222 6.833 1.39 1.856 2.822 3.796 4.843 4.893 3.2 1.772 7.159 1.139 10.696.169s7.033-1.603 10.612-.928c3.032.548 5.854 1.856 8.085 4.007 2.738 2.573 5.138 5.905 4.97 9.616z" fill="#E05651"/><path d="M95.108 115.95c-1.937 3.036-4.801 5.398-8.085 6.875-2.232 1.012-4.674 1.602-7.117 1.645h-.505c-3.495-.043-6.906-1.097-9.854-2.995-.421-.253-.842-.548-1.221-.844-1.769-1.349-3.327-2.994-4.506-4.892-1.474-2.362-2.316-4.977-2.611-7.677-.295-3.205.253-6.495 1.642-9.532l.126-.253c1.811-3.754 5.011-6.58 8.801-8.267.337-.127.632-.295.969-.38 1.6-.59 3.243-1.012 4.927-1.223-1.558.844-3.074 1.687-4.464 2.573-.421.253-.8.506-1.179.759-1.895 1.308-3.495 2.699-4.548 4.471-.253.464-.505.928-.674 1.434-.168.464-.295.886-.379 1.308-.463 1.982-.21 3.838.547 5.694.295.717.632 1.434 1.053 2.193 1.727 3.037 4.379 5.399 7.201 7.508 1.011.759 2.063 1.476 3.158 2.109 1.6.97 3.285 1.771 5.053 2.277.547.169 1.095.296 1.642.38 1.642.295 3.369.253 4.969-.127 1.895-.548 3.748-1.518 5.053-3.036z" fill="#BF1F2D"/><path opacity=".388" d="M71.989 91.698c-1.895 1.308-3.495 2.699-4.548 4.471-.253.464-.505.928-.674 1.434-.169.464-.295.886-.379 1.307-2.569 2.446-4.38 5.652-5.138 9.111-.295-3.206.253-6.496 1.642-9.533l.126-.253c1.811-3.754 5.011-6.58 8.801-8.267.168.548.211 1.139.168 1.729z" fill="#4A0419"/><path opacity=".329" d="M89.97 118.902c-.547 1.561-1.6 2.91-2.948 3.881-.547.421-1.137.759-1.769 1.012-2.021.928-4.253 1.181-6.485 1.139l.463-.169c.21-.084.463-.211.674-.338h-.505c-3.495-.042-6.906-1.096-9.854-2.994-.421-.253-.842-.549-1.221-.844-1.474-1.94-2.19-4.428-2.4-6.917-.211-3.079.337-6.116.969-9.11.295.717.632 1.434 1.053 2.193 1.727 3.037 4.38 5.399 7.201 7.508 1.011.759 2.064 1.476 3.158 2.108 1.6.971 3.285 1.772 5.053 2.278.547.169 1.095.295 1.642.38 1.642.295 3.369.253 4.969-.127z" fill="#4A0419"/><path opacity=".541" d="M83.317 119.998c-.337 1.898-1.727 3.501-3.411 4.429h-.505c-3.495-.042-6.906-1.097-9.854-2.995 3.285-.97 6.317-2.699 8.759-5.061 1.6.97 3.285 1.772 5.053 2.278.042.464.042.928-.042 1.349z" fill="#4A0419"/><path opacity=".671" d="M72.747 89.588c.295.38.421.844.463 1.35-.421.253-.8.506-1.179.759-1.895 1.308-3.495 2.699-4.548 4.471-1.053.38-2.106.801-3.116 1.35-.505.295-1.011.633-1.474 1.012l.126-.253c1.811-3.754 5.011-6.58 8.801-8.267l.926-.422z" fill="#4A0419"/><path d="M144.757 106.501c-.337.928-.716 1.814-1.179 2.7-.758 1.476-1.685 2.868-2.653 4.218-2.148 2.994-4.801 6.031-8.422 6.748-1.727.338-3.454.085-5.138-.379-.926-.296-1.853-.633-2.737-1.013l-1.558-.675c-2.653-1.223-5.391-2.53-7.117-4.892 2.358.632 4.801.801 7.201.548.758-.084 1.558-.211 2.316-.38 4.337-.927 8.38-3.163 11.328-6.495 1.684-1.898 3.032-4.133 3.621-6.622.548-2.488.295-5.188-1.052-7.381-1.895-3.037-4.296-4.513-8.38-5.863 2.989.506 4.758 1.35 6.485 2.446.673.422 1.347.886 2.105 1.434 2.611 1.814 4.885 4.724 5.727 7.803.632 2.573.337 5.315-.547 7.803z" fill="#BF1F2D"/><path opacity=".369" d="M144.757 106.502c-.337.928-.716 1.813-1.179 2.699-.758 1.476-1.685 2.868-2.653 4.218-2.148 2.994-4.801 6.031-8.423 6.748-1.726.338-3.453.085-5.137-.379-1.053-.802-1.937-1.772-2.695-2.868-.674-.97-1.222-2.067-1.558-3.206.758-.084 1.558-.211 2.316-.38.168.043.379.127.589.169h.084c1.516.338 3.117.295 4.633-.084 2.695-.675 5.053-2.362 6.864-4.513 3.453-4.092 4.8-10.081 2.863-15.1-.673-1.645-1.684-3.163-2.99-4.387.674.422 1.348.886 2.106 1.434 2.611 1.814 4.885 4.724 5.727 7.803.632 2.616.337 5.357-.547 7.846z" fill="#4A0419"/><path opacity=".62" d="M143.578 109.243c-.758 1.476-1.685 2.868-2.653 4.218-2.148 2.995-4.801 6.031-8.423 6.749-1.726.337-3.453.084-5.137-.38-.927-.295-1.853-.633-2.737-1.012-.085-.549-.042-1.181.084-1.856.168-1.013.589-2.109 1.347-3.417l.085.043c3.579 1.644 7.79 1.729 11.454.253 2.316-.971 4.422-2.573 5.98-4.598z" fill="#4A0419"/><path d="M142.398 111.268c-3.368 6.327-6.737 8.436-11.159 9.659-4.422 1.181-9.643.127-13.265-2.699-2.99-2.32-4.969-5.61-7.201-8.689-5.39-7.423-12.675-13.708-21.434-16.492-5.306-1.687-11.159-1.898-16.508-.506-3.453.928-6.696 2.489-9.475 4.808 3.369-5.61 9.685-8.984 16.171-9.785 6.485-.801 13.054.759 19.034 3.332 8.211 3.501 15.581 8.942 21.35 15.733 1.979 2.319 3.79 4.808 6.064 6.832.716.633 1.39 1.139 2.064 1.519 1.6.928 3.242 1.307 5.348 1.265 3.116-.042 6.822-2.193 9.011-4.977zM97.171 111.099c-.253 1.308-.632 2.573-1.179 3.796-1.6 3.712-4.506 6.833-8.127 8.562-5.39 2.573-12.17 1.94-16.971-1.012-.379-.253-.758-.506-1.095-.759 4.085.506 8.169-1.73 10.907-4.809 1.558-1.771 2.779-3.796 3.79-5.905.463-.97.927-1.94 1.305-2.952.295-.675.547-1.35.8-1.982 2.106-.717 4.422-.844 6.569-.296 1.558.38 2.99 1.055 4.253 2.067 0 1.097-.084 2.193-.253 3.29z" fill="#E05651"/><path opacity=".22" d="M140.588 96.084c-1.179-.844-2.569-1.476-3.958-1.856-3.327-.928-6.865-.675-10.318-.253-3.411.422-6.864 1.055-10.317.928l-1.684-.127c3.748-1.94 7.411-4.133 11.496-5.23 4.085-1.097 8.759-.886 12.128 1.687 1.516 1.139 2.737 2.953 2.653 4.85z" fill="#4A0419"/><path opacity=".502" d="M97.171 111.099c-.253 1.308-.632 2.573-1.179 3.796-.379-.042-.716-.168-1.053-.295-1.053-.38-2.274-.928-2.527-2.025-.042-.295-.042-.59-.168-.843-.253-.591-1.095-.759-1.684-.506-.295.126-.547.337-.8.548-.505.506-1.221.675-1.937.506-1.179-.295-2.316-.717-3.369-1.307.463-.97.927-1.941 1.306-2.953 3.116-1.434 7.032-.97 9.728 1.181.674.548 1.221 1.181 1.684 1.898z" fill="#4A0419"/><path d="M58.513 66.811c-11.286 3.121-20.34 13.075-22.403 24.59l-1.137 8.52c-.505 2.826-1.432 5.652-3.327 7.803s-4.927 3.459-7.664 2.742c3.537 1.265 7.538 1.097 10.949-.464 3.411-1.561 6.148-4.513 7.454-8.056 1.39-3.754 1.179-7.887 1.642-11.852 1.053-8.52 5.643-16.534 14.486-23.282z" fill="#E05651"/><path d="M43.395 97.264c-.463 4.766-1.305 6.875-3.032 9.322-.8 1.138-1.811 2.277-2.948 3.205-1.432 1.181-3.032 2.151-4.758 2.615-.548.127-1.053.253-1.6.295-3.916.38-7.875-1.644-11.033-4.133-3.579-2.826-6.654-6.369-10.696-8.52-.463-.253-.926-.464-1.432-.675-2.106-.886-4.38-1.392-6.696-1.476-4.043-.127-8.17.97-11.496 3.29 2.653-2.868 5.559-5.568 9.012-7.424 2.4-1.308 5.138-2.151 7.875-2.235 1.137-.042 2.316.084 3.453.337 4.59 1.055 8.212 4.555 11.328 8.141.632.717 1.263 1.476 1.937 2.193 2.021 2.193 4.295 4.134 7.159 4.64 2.442.379 4.969-.38 7.117-1.687h.042c.8-.464 1.474-1.013 2.105-1.645 1.558-1.603 2.569-3.628 3.664-6.243z" fill="#BF1F2D"/><path opacity=".42" d="M23.351 102.157c-4.422-3.037-10.149-4.049-15.371-2.826-2.106-.886-4.38-1.392-6.696-1.476-4.043-.127-8.17.97-11.496 3.29 2.653-2.868 5.559-5.568 9.012-7.423 2.4-1.308 5.138-2.151 7.875-2.236 1.137-.042 2.316.084 3.453.337 4.59 1.054 8.212 4.555 11.328 8.14.59.759 1.221 1.476 1.895 2.193zM43.395 97.264c-.463 4.766-1.305 6.875-3.032 9.322-.8 1.138-1.811 2.277-2.948 3.205-1.432 1.181-3.032 2.151-4.759 2.615-.547.127-1.053.253-1.6.295.547-.421 1.095-.843 1.6-1.307 1.979-1.772 3.622-3.923 4.927-6.243h.042c.8-.463 1.474-1.012 2.105-1.644 1.558-1.603 2.569-3.628 3.664-6.243z" fill="#4A0419"/><path opacity=".612" d="M6.632 91.528c-2.316 1.603-4.169 3.796-5.39 6.327-4.043-.127-8.17.97-11.496 3.29 2.653-2.868 5.559-5.567 9.012-7.423 2.442-1.265 5.18-2.109 7.875-2.193zM39.732 103.465c1.558-1.561 2.569-3.585 3.664-6.242-.463 4.766-1.305 6.875-3.032 9.321-.8 1.139-1.811 2.278-2.948 3.206 1.095-1.941 1.895-4.05 2.316-6.285z" fill="#4A0419"/><path d="M7.054 91.528c-9.054-.422-14.191 4.007-16.508 8.14-1.516 2.658-2.148 5.737-3.158 8.647-1.011 2.91-2.569 5.82-5.264 7.339 3.158-.591 6.317-1.434 9.012-3.163 2.695-1.73 4.674-4.176 5.138-7.339.253-1.941.126-4.218.505-6.116.421-2.573 5.811-7.044 10.275-7.508z" fill="#E05651"/><path opacity=".2" d="M105.93 69.469c-1.853 1.603-3.79 3.121-5.811 4.555-.463.337-.926.633-1.516.717h-.21c1.221-3.459 1.516-7.255.842-10.84 1.347-.801 2.779-1.519 4.169-2.193.884 2.615 1.684 5.188 2.526 7.761z" fill="#6E121C"/><path opacity=".169" d="M142.399 111.268c-3.369 6.327-6.738 8.436-11.16 9.659-4.422 1.181-9.643.126-13.265-2.7-2.99-2.319-4.969-5.609-7.201-8.688-5.39-7.424-12.675-13.708-21.434-16.492-5.306-1.687-11.159-1.898-16.507-.506 2.148-.717 4.422-1.054 6.696-1.181 8.127-.422 16.339 1.898 23.077 6.496 4.505 3.079 8.295 7.128 12.549 10.629 3.79 3.121 8.169 5.779 12.97 6.538 1.6.928 3.242 1.307 5.348 1.265 3.032-.084 6.738-2.235 8.928-5.019z" fill="#4A0419"/><path opacity=".2" d="M87.865 123.458c-5.39 2.573-12.17 1.94-16.971-1.012 5.096.928 10.612-.253 14.781-3.332 4.211-3.122 6.948-8.141 7.496-13.371 1.558.38 2.99 1.055 4.253 2.067.168 6.453-3.748 12.864-9.559 15.648z" fill="#4A0419"/><path d="M98.392 109.285c-.337 1.35-.842 3.332-1.305 4.598-.211.548-.842.801-1.39.506-.674-.337-1.474-.717-2.19-1.012l-.211-.085c-.505-.211-.8-.801-.674-1.307.126-.38.084-.844-.126-1.434-.168-.464-.632-.675-1.179-.717-.379-.042-.8.042-1.137.168-.168.043-.295.127-.421.253-.379.254-.632.633-.8 1.055-.126.38-.505.59-.926.464l-2.822-.844c-.21-.084-.421-.211-.505-.421-.169-.254-.211-.591-.084-.886l1.937-4.64c.126-.295.253-.548.505-.717.253-.169.59-.169.884-.126 1.263.084 4.169 1.096 6.612 2.024.8.295 1.516.591 2.148.844l.632.253c.8.253 1.263 1.139 1.053 2.024z" fill="#EFECE8"/><path opacity=".251" d="M89.76 110.171c-.379.253-.632.633-.8 1.054-.126.38-.505.591-.926.464l-2.821-.843c-.211-.085-.421-.211-.505-.422 1.684.211 3.411.126 5.053-.253zM98.392 109.286c-.337 1.349-.842 3.332-1.305 4.597-.211.548-.842.802-1.39.506-.674-.337-1.474-.717-2.19-1.012l-.211-.084c-.505-.211-.8-.802-.674-1.308.126-.379.084-.843-.126-1.434-.168-.464-.632-.675-1.179-.717l1.432-.506c1.137-.464 2.358-1.392 2.106-2.573-.042-.211-.168-.422-.295-.59.8.295 1.516.59 2.148.843l.632.253c.8.253 1.263 1.139 1.053 2.025z" fill="#4A0419"/><path opacity=".22" d="M98.393 109.286c-.337 1.349-.842 3.332-1.305 4.597-.211.548-.842.801-1.39.506-.674-.337-1.474-.717-2.19-1.012 1.053-.801 1.937-1.814 2.527-2.995.505-1.054.758-2.235.674-3.416l.632.253c.8.295 1.263 1.181 1.053 2.067z" fill="#4A0419"/><g opacity=".6"><path opacity=".6" d="M135.871 90.812c-.042-.169-.294-.084-.252.084.126.338.168.717.126 1.097l-.042.548-.042.253-.042.295c0 .084.168.169.21.042.085-.169.084-.38.127-.548.042-.211.042-.38.042-.591.042-.422 0-.801-.127-1.181zM131.703 89.124c0-.253-.379-.253-.379 0v1.645c0 .253 0 .548-.043.801-.042.253-.126.548-.084.801 0 .169.253.253.337.084.127-.253.127-.548.169-.801.042-.253.042-.548.042-.801-.042-.591-.042-1.139-.042-1.729zM124.459 89.124c-.042.675-.168 1.307-.252 1.982l-.127.97c-.042.337-.084.675-.084.97 0 .211.337.253.379.042.084-.337.084-.633.126-.97l.169-1.012c.084-.675.21-1.308.253-1.982 0-.253-.422-.253-.464 0zM117.174 90.769c-.126.59-.252 1.223-.336 1.814l-.127.886-.042.464c0 .126-.042.295.084.38.042.042.085.042.127 0 .21-.126.168-.548.168-.759l.126-.928c.085-.59.169-1.181.337-1.772.085-.211-.252-.295-.337-.084zM109.678 89.926l-.252 1.223c-.084.422-.211.801-.253 1.223-.042.253.337.295.421.042l.253-1.181.252-1.181c.043-.295-.378-.38-.421-.127zM103.994 83.514c-.085-.042-.211-.042-.253.084l-.084.169v.084l-.042.084v.042h-.043l-.168.084c-.126.084-.211.169-.295.295-.042.084-.042.127 0 .211.042.042.127.084.211.084.126-.042.21-.084.295-.169.084-.042.168-.127.21-.211.042-.042.084-.127.084-.169l.042-.084v-.042l.043-.126c.126-.169.084-.295 0-.337zM134.397 91.908c-.084 0-.168.084-.168.169v.169l-.042.211-.042.169v.127c0 .084.084.169.168.169.127 0 .169-.127.211-.211l.042-.169c.042-.127.042-.295.042-.464-.084-.084-.126-.169-.211-.169zM133.092 91.993c-.042 0-.126 0-.126.084l-.042.253-.042.126-.042.127.042.084.126-.042.042-.127.042-.127c.042-.084.042-.169.042-.253.043-.084 0-.127-.042-.127zM136.966 92.414c-.126-.042-.21.042-.252.126-.042.127-.085.211-.085.337 0 .042 0 .127-.042.169 0 .084-.042.169 0 .295l.127.084c.042 0 .126 0 .168-.042l.084-.127v-.084c.042-.169.042-.337.127-.506.042-.084-.042-.211-.127-.253zM138.188 93.257v-.252h-.042v.042l-.085.127-.042.126-.042.253c0 .084.042.126.126.126.085 0 .127-.042.127-.126v-.084l.042-.126-.084-.084zM139.114 93.427c0-.042-.042-.127-.084-.127v-.042h-.042c-.085 0-.127.042-.169.126l-.042.169-.042.126-.042.084-.042.127v.126c0 .042.042.084.084.084.084 0 .168 0 .211-.084l.084-.169.042-.084.042-.127.042-.126v-.042l-.042-.042zM130.313 91.782v-.33699999999999997c0-.042-.085-.084-.127-.084-.042 0-.126.042-.126.127v.46399999999999997l-.042.464.084.127c.084 0 .127-.042.169-.084.042-.084.042-.169.042-.253l.084-.253c0-.084-.042-.127-.084-.169zM129.007 91.486c0-.084-.084-.169-.168-.211-.084 0-.168.042-.211.126l-.042.169-.042.211v.38c0 .084.084.169.169.211.084 0 .168-.042.21-.126v-.168l.042-.211v-.21100000000000002c.042-.042.042-.084.042-.169zM127.281 91.571v-.084l-.042-.084-.084.042-.043.127c-.042 0-.084.042-.084.084v.548l-.042.127c-.042.126.126.169.211.042v-.084l.042-.084.042-.633zM125.639 91.781h-.169l-.042.127-.042.126-.084.295c0 .042 0 .127.084.169.042.042.126 0 .168-.042l.043-.084.042-.042v-.084l.042-.084.042-.127v-.084c0-.084-.042-.127-.084-.169zM122.817 92.119l-.084-.084-.126-.084c-.085 0-.169.084-.169.169v.59c0 .084.084.169.169.169.084 0 .126-.084.168-.169v-.042l.042-.126v-.126c0-.042 0-.127.042-.169l-.042-.127zM121.47 92.33l-.043-.042-.042-.084c-.042-.084-.168-.042-.21.042-.042.084-.042.169 0 .253v.38c0 .084 0 .126-.042.211 0 .042 0 .127.084.169.084 0 .126 0 .168-.084v-.29400000000000004c.042-.211.127-.38.085-.548zM120.122 92.793v-.084c0-.126 0-.211-.042-.295 0-.084-.127-.127-.169-.127-.084 0-.126.084-.126.169v.675c-.042.084.042.169.084.169.084 0 .169-.042.169-.084l.042-.253c0-.084 0-.127.042-.169zM118.48 92.752l.042-.211c0-.042-.042-.127-.084-.127h-.127c-.042 0-.084.042-.126.127l-.042.253-.084.422c0 .084 0 .169.084.169s.126-.042.168-.084l.084-.211c.043-.042.085-.127.085-.169v-.169zM110.984 92.118c0-.084 0-.127-.042-.169-.084-.042-.169-.042-.253 0-.126.126-.168.295-.21.464-.043.169-.085.337-.085.506 0 .084.085.169.127.169.084 0 .168-.042.168-.126l.042-.211.042-.169.042-.084.085-.169v-.126l.084-.084zM112.289 92.456c0-.084-.042-.169-.126-.169-.084 0-.168.042-.21.127-.085.253-.127.548-.127.844v.084c0 .084.084.127.169.084h.042c.126 0 .168-.084.168-.169v-.126c0-.042 0-.127.042-.169l.042-.169v-.337zM113.805 92.793c-.084-.042-.21 0-.252.084-.085.127-.127.295-.127.464 0 .126 0 .253.043.422.042.084.084.127.168.127s.168-.042.168-.127c.042-.211.085-.422.085-.633v-.084c.042-.084 0-.211-.085-.253zM115.363 93.511c.042-.126.042-.253 0-.38 0-.084-.042-.169-.126-.169-.084 0-.169 0-.211.084-.042.126-.084.295-.084.422v.38c0 .084.042.169.169.169.084 0 .168-.042.21-.127v-.252l.042-.127zM104.33 85.286l-.084-.042h-.126c-.042.042-.085.042-.085.126v.042l-.126.169-.126.295v.084c0 .084 0 .126.084.169.084.042.126 0 .168-.042l.253-.422v-.042l.084-.169c0-.084 0-.126-.042-.169zM105.846 85.287c.085-.084-.042-.295-.126-.169l-.126.042c-.253.295-.464.633-.674.97l-.084.084c-.085.042-.127.127-.169.211-.042.084-.084.126-.168.211l-.127.169-.294.337c-.085.084.042.295.126.211l.126-.084h.085c.084-.042.126-.127.168-.211.126-.127.211-.253.295-.38l.084-.042c.168-.253.337-.506.463-.759.084-.127.169-.253.295-.38l.126-.211zM105.341 87.353l-.042-.084c-.042-.042-.126 0-.126.042l-.169.337-.084.084v.042c-.042.084-.126.169-.211.253-.042.042-.042.084 0 .169-.042.084.085.169.169.084l.126-.211.169-.211c.084-.127.168-.253.21-.38l-.042-.126zM106.141 88.196c-.042-.042-.126-.042-.168 0l-.379.464-.127.253-.126.253c-.042.084 0 .169.042.211.084.042.168 0 .211-.042.168-.127.21-.295.294-.464v-.042c.085-.169.211-.295.253-.464.084-.084.042-.127 0-.169zM106.815 89.335c-.084.127-.169.295-.211.422-.042.084-.084.169-.084.253l-.126.253c-.042.084-.127.211-.127.295 0 .084.085.084.127.084l.126-.127.084-.127.169-.295.252-.337c.043-.042 0-.084-.042-.126.042-.042.042-.127.042-.169.085-.169-.126-.253-.21-.127zM108.289 90.516c-.042-.042-.169 0-.169.042-.084.169-.126.337-.21.464l-.042.042v.042l-.043.084v.042l-.126.211c-.042.084 0 .169.042.211.084.042.169.042.211-.042v-.042l.042-.084c.042-.126.126-.253.168-.337v-.084c.042-.127.085-.253.169-.38.042-.084 0-.169-.042-.169zM103.278 82.797l-.043-.127-.126-.042h-.042l-.084.042-.084.084-.085.084c-.042.042-.084.127-.168.169l-.042.127.042.126.126.042.127-.042.084-.126h.084c.042 0 .084-.042.084-.084.042-.042.042-.127 0-.169l.042-.042.085-.042zM102.941 81.321c0-.042-.042-.084-.084-.084-.043-.042-.127-.042-.169 0l-.042.042.042-.042-.084.042-.084.084h-.08499999999999999l-.084.084-.042.042v.21000000000000002l.084.084h.169l.084-.042.042-.042.042-.042.169-.127.084-.084.042-.042.042-.127c-.126.084-.126.084-.126.042zM106.689 62.468l-.043-.844c0-.295 0-.59-.042-.844-.042-.169-.337-.169-.379 0-.042.253-.042.548-.042.844v.844l.042 1.729c0 .337.506.337.506 0l-.042-1.729zM113.637 60.696c-.042-.084-.126-.211-.253-.211l-.126.042c-.084.042-.126.127-.126.211.042.548.084 1.097 0 1.687-.043.548-.127 1.139-.127 1.729 0 .38.59.38.59 0 0-.59.084-1.139.126-1.729.042-.548.126-1.181-.084-1.729zM120.627 60.527c-.126-.337-.631-.211-.547.169.253 1.223-.295 2.404-.295 3.627 0 .38.59.38.59 0 0-.633.126-1.265.252-1.898.085-.633.211-1.308 0-1.898zM127.323 60.401c-.042-.253-.505-.253-.547 0-.043.337-.043.759-.043 1.097l-.042 1.097c-.042.717-.126 1.476-.252 2.193-.042.169.042.337.21.38.127.042.337-.042.379-.211.127-.759.211-1.518.253-2.278l.084-1.097c0-.38.042-.801-.042-1.181zM135.198 58.797c-.127-.127-.421-.042-.421.169.084.843.042 1.729 0 2.615-.085 1.307-.295 2.573-.043 3.88.085.38.632.211.548-.169-.253-1.265 0-2.573.084-3.88.042-.464.042-.928.042-1.392 0-.422.042-.97-.21-1.223zM137.051 63.564c-.042-.211-.379-.211-.421 0l-.043.801c0 .253 0 .506-.042.717 0 .126.042.253.169.295.126.042.252-.042.295-.169.042-.253.084-.548.084-.801 0-.295 0-.548-.042-.844zM139.072 63.775c0-.127-.084-.211-.21-.253-.127 0-.211.042-.253.169-.042.084-.042.169-.042.253v.084l-.042.337v.675c0 .126.126.253.252.253.127 0 .253-.127.253-.253v-1.223l.042-.042zM128.755 63.606c-.127-.042-.211.042-.253.169-.084.211-.126.422-.126.633l-.042.253-.042.042v.33699999999999997c0 .127.084.253.21.211.126 0 .211-.084.211-.211v-.169c.042-.042.084-.084.084-.169 0-.169 0-.295.042-.464v-.37999999999999995c.084-.084.042-.211-.084-.253zM130.65 63.438c-.043.127-.085.211-.085.337-.042.127-.042.295-.042.422-.042.253-.042.548 0 .801 0 .127.085.211.211.169.084 0 .168-.084.168-.169v-.253l.169-1.265c0-.169-.379-.253-.421-.042zM133.303 62.847c0-.211-.295-.253-.337-.042-.084.38-.169.801-.211 1.181-.042.211-.042.38-.042.59 0 .169 0 .337.127.422.084.042.168.042.21-.042.042-.084.042-.127.042-.211.084 0 .169-.084.169-.169l.042-1.729zM121.554 63.058c-.085.464-.169.928-.169 1.392 0 .169.253.211.295.042l.126-.759v-.084l.042-.253v-.253c.043-.211-.252-.253-.294-.084zM123.617 63.226c-.084 0-.168.042-.168.084-.126.422-.084.844-.126 1.223 0 .084.042.126.126.126.084 0 .168-.042.168-.126 0-.127 0-.211.042-.337v-.042c.043-.126.043-.295.043-.422s0-.253.042-.38c-.042-.042-.042-.127-.127-.127zM125.344 63.606c0-.084-.169-.084-.211 0l-.084.548v.169l-.042.422c0 .084.126.126.168.042v-.042l.085-.042c.084-.169.084-.337.084-.506v-.591zM118.606 63.395v-.126c0-.042-.042-.084-.084-.084-.085 0-.169.042-.169.084l-.084.337c0 .042 0 .127-.042.169v.337c0 .084 0 .169.084.169h.084l.127-.084.084-.337v-.46399999999999997zM116.879 63.564l.042-.338c0-.084-.042-.169-.084-.169s-.126 0-.168.042l-.084.084c-.043.127-.043.253-.043.422v.042c0 .084 0 .127-.042.211v.084c0 .042.042.127.085.127.042.042.042.084.126.084.084 0 .168-.042.168-.127v-.463zM115.237 63.311c0-.084 0-.127-.084-.169-.084 0-.126.042-.169.084l-.042.211-.042.211v.59c0 .084.042.127.127.127.084 0 .126-.042.126-.127v-.42000000000000004c0-.084 0-.169.042-.211v-.126l.042-.169zM111.995 63.69v-.422c0-.084-.042-.127-.127-.127-.084 0-.126.042-.126.127 0 .127 0 .295-.042.422v.46399999999999997c0 .084.042.127.126.127.084 0 .127-.042.169-.084l.084-.38-.084-.127zM110.352 64.07v-.253l-.042-.084v-.211c0-.127-.084-.211-.21-.211-.127 0-.211.084-.211.211v.337l.042.464c.042.084.126.169.253.169.084 0 .168-.084.168-.211v-.211zM108.457 63.69v-.38c0-.084-.084-.169-.168-.169s-.169.084-.169.169l-.084.97c0 .042.042.126.084.126.042.042.085.127.169.084.084 0 .168-.084.168-.169v-.632zM105.299 63.817v-.084c0-.127-.042-.253-.084-.38-.042-.084-.085-.127-.169-.127s-.168.042-.168.127v.8859999999999999c0 .127.084.211.21.211.127 0 .211-.084.211-.211v-.042c.042-.042.084-.127.084-.169l-.084-.211zM104.457 73.94c-.506.042-1.011.253-1.474.38-.211.084-.464.169-.674.211l-.211.042h-.084v.042l-.042-.042c-.084-.042-.168.042-.126.127l.126.084h.042l-.084.042c-.084.042-.042.169.042.169.421-.126.842-.253 1.263-.422l.632-.211.632-.211c.084 0 .084-.211-.042-.211zM105.131 75.838c-.043-.084-.085-.126-.169-.126l-.084.042h-.084l-.211.042-.21.042-.211.084c-.084.042-.084.126-.084.21.042.084.126.126.21.084l.127-.042.042.042.168-.042h.042l.169-.084.084-.042h.042l.084-.042h.08499999999999999v-.168zM105.636 77.862l-.127-.084h-.7580000000000001l-.084.042-.042.084h-.042l-.168.084c-.043.042-.085.168 0 .21.042.042.084.042.168.042h.126c.085 0 .211 0 .295-.042l.295-.042.126-.042.169-.084c.042-.042.084-.126.042-.168zM106.099 79.465l-.042-.042-.042-.042-.084-.042-.043-.042h-.294l-.085.042-.042.042-.042.042v.252-.042l.042.042.042.042.085.042h.21000000000000002-.042c.042.042.084.042.169 0l.126-.084v-.042l.042-.168zM107.152 81.448l-.295.042-.126-.042c-.506.084-1.011.169-1.474.253l-.379.084c-.211.042-.127.38.084.295.126-.042.295-.084.421-.084.253-.042.463-.084.716-.084.379-.042.758-.084 1.137-.169.126-.042.084-.337-.084-.295zM143.367 107.767c-.042-.127-.168-.211-.295-.295l-.126-.085-.084-.042-.042-.042-.758-.633c-.463-.421-.927-.801-1.348-1.265-.252-.295-.674.127-.421.422.421.464.884.886 1.348 1.307.252.211.505.422.8.633.084.084.21.127.337.211.042.042.126.084.168.084h.21100000000000002c.168-.042.294-.168.21-.295zM144.125 97.096c-.168-.084-.337-.042-.505-.084l-.505-.042c-.337-.042-.674-.042-1.011-.042-.168 0-.168.295 0 .295.337 0 .674 0 1.011.042.168 0 .337 0 .505.042.168 0 .337.042.505-.042.042-.084.042-.168 0-.168zM144.167 105.447c-.042-.127-.168-.169-.294-.211-.085-.042-.211-.085-.295-.169-.211-.084-.421-.211-.632-.253-.084-.042-.168.042-.21.126-.043.085.042.169.126.211.21.043.379.127.589.253l.295.127c.127.042.253.127.379.084l.042-.168zM144.631 102.494c-.169-.084-.337-.084-.506-.126l-.505-.085c-.126-.042-.253.043-.253.169-.042.126.043.253.169.253.168.042.337.084.505.084l.253.042h.253c.084 0 .168-.042.21-.126-.042-.043-.042-.169-.126-.211zM144.799 99.669c-.084-.042-.169-.042-.253-.042h-.631c-.085 0-.211.084-.211.211 0 .084.084.211.211.211h.463c.084 0 .168 0 .252-.043.085-.042.211-.084.211-.168s0-.168-.042-.168zM142.736 94.818c-.043-.084-.085-.126-.169-.126h-.126c-.084 0-.127 0-.211.042l-.126.042-.084.042-.042.042-.043.126.043.126.126.042h.252-.042-.042l.253-.084h.042c.169-.084.211-.168.169-.253zM141.262 93.005c0-.042-.085-.084-.127-.084-.042.042-.126.042-.168.042l-.169.084c-.042 0-.084.042-.084.084v.084l.042.084.085.042h.084l.084-.042.084-.042h.042l.169-.084.084-.042c-.126-.042-.126-.084-.126-.126zM141.641 110.213l-.169-.253v-.042l-.042-.042-.084-.127-.337-.464c-.042-.084-.168-.126-.253-.084-.084.042-.126.169-.084.253l.379.506c.042.085.126.169.169.211l.252.211c.084.084.211-.084.169-.169zM140.251 111.732l-.042-.085-.042-.042-.042-.042.042.042-.084-.042c-.043-.085-.085-.127-.169-.211-.084-.127-.168-.211-.295-.337-.042-.043-.126-.085-.21-.085-.084 0-.169.042-.211.085-.042.042-.084.126-.084.21 0 .085.042.169.084.211.084.085.211.211.295.338l.253.295.042.042.126.042c.042 0 .126 0 .169-.042l.126-.126c.042-.085.084-.169.042-.253zM137.724 113.672c0-.084-.042-.127-.084-.211-.042-.126-.126-.211-.21-.337-.085-.085-.169-.169-.211-.253l-.126-.127-.042-.042-.043-.042c-.042-.085-.084-.127-.168-.127s-.168 0-.211.042c-.126.085-.21.253-.126.422.126.211.295.38.463.548l.211.254.084.084.126.084c.085.085.295.085.337-.084.042-.084.042-.127 0-.211zM134.903 114.895l-.126-.211-.127-.211-.042-.127-.042-.042c-.042-.126-.168-.211-.295-.169-.126.043-.21.169-.168.296.042.168.168.337.253.506l.126.211.084.126.126.085c.127.042.253 0 .253-.127.042-.169 0-.253-.042-.337zM131.955 114.81l-.337-.717c-.252-.464-.505-.928-.758-1.35-.21-.337-.716 0-.505.296.295.421.547.885.758 1.307l.379.675.168.337c.085.127.127.254.253.296.084.042.253 0 .295-.127.042-.253-.169-.506-.253-.717zM132.124 117.679c-.127-.042-.295.042-.337.211-.085.464-.169.886-.295 1.35-.084.422-.295.843-.295 1.307 0 .127.126.127.211.085.337-.296.463-.802.589-1.223l.337-1.35c0-.211-.084-.338-.21-.38zM122.733 114.938c-.379.632-.842 1.181-1.305 1.771-.211.295-.464.633-.632.97-.126.253-.337.549-.295.844.042.169.295.169.337.042l.126-.38c.042-.126.127-.295.211-.421.168-.338.379-.633.632-.928.421-.591.884-1.139 1.221-1.73.168-.21-.169-.379-.295-.168zM117.048 108.526c-.084-.126-.253-.169-.379-.084l-2.021 1.56c-.337.254-.632.549-.927.844-.253.253-.589.548-.632.886 0 .084.085.168.211.126.168-.042.253-.168.379-.295l.379-.38.926-.801c.632-.506 1.264-1.012 1.938-1.518.168-.043.21-.169.126-.338zM109.005 100.344c-.379.548-.758 1.054-1.137 1.561l-.632.759c-.126.126-.211.253-.337.337-.126.127-.211.211-.211.38 0 .084.085.126.169.169.168 0 .253-.127.379-.211l.337-.338c.252-.253.463-.506.674-.759.421-.506.842-1.054 1.221-1.603.126-.295-.295-.548-.463-.295zM98.435 93.089c-.084-.084-.295-.126-.379 0-.253.253-.421.548-.632.844-.126.169-.211.295-.295.464l-.126.211-.084.211v.084c0 .042 0 .127.042.127.084.084.211.042.295-.042.168-.042.253-.253.337-.38l.295-.464.337-.464.126-.211.042-.042.042-.084c.084 0 .084-.169 0-.253zM88.412 88.829c-.126-.084-.295-.042-.337.084-.295.548-.463 1.139-.716 1.729-.042.127-.126.337 0 .422.168.169.337 0 .421-.169.084-.127.126-.253.168-.38l.168-.464.211-.506.042-.042.042-.126c.042-.084.084-.127.084-.211.084-.084.042-.253-.084-.337zM76.368 89.082c-.126-.042-.337.042-.379.211-.084.38-.169.759-.211 1.139 0 .169 0 .337.042.548.042.169.211.38.379.295.042 0 .126-.042.126-.127 0-.042.042-.084 0-.169v-.548l.168-1.012c.084-.127.042-.295-.126-.338zM122.943 117.847c-.126-.084-.294 0-.336.085l-.043.126-.126.253-.295.507c-.084.126-.042.295.085.379.126.085.294.042.379-.084l.294-.506.127-.296.042-.126c0-.169-.042-.295-.127-.338zM124.838 118.607c-.042-.169-.21-.211-.336-.127-.085.042-.127.169-.169.253l-.126.253c-.084.169-.127.296-.211.422-.042.127-.042.295.084.338.127.042.295.042.337-.085.085-.126.127-.295.211-.464l.126-.295c.084-.084.084-.169.084-.295zM127.112 118.902l-.126-.127h-.126c-.084 0-.127.042-.169.084-.084.043-.126.169-.168.254l-.126.253-.127.421c-.042.169.042.338.211.38.168.042.337-.042.379-.211.042-.169.084-.337.168-.464l.042-.126.042-.085.043-.084.042-.127c-.042-.042-.085-.126-.085-.168zM129.05 119.155l-.127-.085c-.084 0-.126.042-.168.127l-.042.084c-.042.085-.085.169-.085.253l-.084.464c0 .127.042.211.127.253.084.042.21-.042.252-.126l.084-.464.043-.211.042-.127-.042-.168zM133.934 118.565l-.126-.043c-.084 0-.084.085-.126.127l-.042.084-.043.211-.126.38c-.042.084.042.169.126.169.085 0 .169-.043.169-.127l.126-.38.042-.168v-.085c.042-.042.042-.084 0-.168zM120.248 116.582c0-.084-.042-.126-.084-.211-.042-.042-.126-.084-.21-.084-.085 0-.169.042-.253.127l-.042.084-.169.253c-.084.127-.168.253-.294.38-.043.042-.043.168-.043.211 0 .084.085.126.127.168.084.042.168.042.21.042l.085-.042.126-.126.379-.549c.084-.042.168-.126.168-.253zM118.816 115.443c-.042-.084-.126-.127-.21-.127l-.126.043-.043.042-.126.084-.126.127-.253.337-.084.084c-.042.043-.084.127-.084.169 0 .042.042.127.084.169.042.042.126.084.168.084.085 0 .127-.042.169-.084l.252-.338.127-.168.084-.085.126-.126c.085-.042.085-.127.042-.211z" fill="#fff"/><g opacity=".6" fill="#fff"><path opacity=".6" d="M117.427 114.344zM117.427 114.346c.042-.042.084-.126.042-.211-.042-.084-.084-.126-.169-.126-.126 0-.21.084-.252.211l-.127.168-.252.253-.253.254c-.042.042-.042.126 0 .168l.084.127c.042.042.127.042.169 0h.042l.084-.085.084-.084.211-.211v-.042l.084-.084.042-.043.084-.084v-.042l.043-.042.084-.127z"/></g><path opacity=".6" d="M116.164 112.323c-.085-.043-.169-.043-.253 0l-.042.042h-.042l-.127.084-.252.211c-.169.127-.295.295-.379.422l-.042.084c-.085.085-.085.211 0 .295.084.085.21.085.294 0 .085-.084.169-.168.253-.21l.126-.127.042-.042v-.042l.043-.042c.042-.043.126-.127.168-.211l.084-.085.127-.168c.084-.043.084-.127 0-.211zM109.089 103.507c-.084-.042-.168-.042-.253 0l-.084.085-.042.042-.084.084c-.042.042-.127.127-.211.169l-.379.337-.042.127c0 .084.042.126.084.168.042.043.085.043.169.043s.126-.043.168-.085l.042-.042.085-.084c.042-.042.126-.127.21-.169l.169-.169c.084-.084.126-.126.168-.253.084-.084.084-.168 0-.253zM110.605 104.94c-.042-.042-.126-.084-.168-.084-.043 0-.127.042-.169.084l-.337.38c-.126.126-.252.253-.379.337-.042.043-.084.127-.084.169 0 .042.042.127.084.169.042.042.084.084.169.084.084 0 .126-.042.168-.084l.379-.338c.126-.126.253-.253.337-.379.084-.085.084-.253 0-.338zM112.205 106.965c-.126-.084-.253-.042-.337.043l-.042.084-.084.084c-.042.042-.126.085-.169.169l-.084.084-.042.043h-.042l-.168.126-.085.127c0 .042 0 .126.042.168.043.085.211.127.295.085.127-.085.253-.211.421-.296.085-.042.127-.084.211-.168l.084-.085.084-.042c.042-.169.042-.337-.084-.422zM113.511 108.821c-.043-.084-.085-.168-.169-.168-.084-.042-.21 0-.253.084l-.042.084.042-.042-.084.127c-.084.126-.21.211-.337.295l-.21.127c-.127.084-.169.211-.084.337.084.127.21.169.336.084.127-.084.253-.168.379-.295l.253-.253c.042-.042.126-.084.126-.169.043-.084.043-.126.043-.211zM99.53 95.451c.084-.084.084-.211 0-.295-.084-.084-.168-.084-.253-.042l-.084.126c-.168.211-.337.422-.421.675v.169l.126.084h.168l.084-.126c.042-.127.126-.295.253-.422l.126-.126v-.042zM101.804 96.252l-.085-.127-.126-.042c-.084 0-.126.042-.168.084l-.042.084-.043.042-.042.042v.042c-.084.084-.126.169-.21.211l-.421.422c-.085.084-.085.253 0 .337.084.084.252.084.337 0l.463-.422.21-.211.127-.169.042-.042.084-.127-.126-.126zM103.994 97.771c-.043-.127-.127-.169-.253-.169-.084 0-.169.042-.211.084l-.084.126-.126.169c-.084.084-.169.211-.211.295l-.21.253c-.085.084-.085.253 0 .38.084.084.252.084.379 0 .084-.084.21-.211.294-.337l.295-.38.042-.042c.085-.169.127-.295.085-.38zM106.267 99.837c0-.042-.042-.127-.084-.169-.126-.084-.295-.084-.379.042-.126.127-.21.253-.295.379-.084.127-.21.253-.337.338l.043-.042c-.043.042-.127.084-.127.168 0 .085 0 .169.042.211.042.042.085.127.169.127s.168 0 .21-.042c.169-.127.295-.253.421-.38.127-.169.253-.295.337-.464v-.169zM89.718 90.474l-.126-.084c-.084-.042-.168 0-.253.042l-.126.211c-.042.084-.084.126-.084.211l-.211.38c-.042.042-.042.127-.042.211 0 .042.042.126.126.169.042.042.126.042.211.042.084-.042.126-.042.168-.127.084-.127.169-.253.211-.38.042-.084.084-.126.084-.211l.042-.084c.042-.084.042-.126.042-.211l-.042-.169zM91.865 90.98l-.126-.127c-.126-.042-.253 0-.337.127l-.211.38-.21.38c-.042.042-.042.169-.042.211 0 .084.084.127.126.169.084.042.126.042.211.042l.168-.127c.084-.126.168-.253.21-.38.042-.042.084-.127.084-.169.042-.084.084-.169.084-.253.084-.084.084-.169.042-.253zM93.845 91.655c-.084-.127-.253-.169-.379-.084-.295.211-.421.548-.59.844-.042.084-.042.127-.042.211 0 .084.084.127.126.169.084.042.168.042.211.042l.168-.127c.084-.169.169-.38.295-.548l.126-.127c.169-.127.169-.295.084-.38zM95.613 92.751c-.126-.042-.253-.042-.295.042l-.042.084-.042.042-.084.127-.084.127-.168.295c-.042.084-.042.126-.042.211 0 .084.084.127.126.169.084.042.168.042.21.042l.168-.127c.042-.084.084-.211.168-.295l.084-.169.042-.127v-.084l.042-.084c.042-.084.042-.211-.084-.253zM85.928 89.757c0-.042-.084-.127-.126-.127-.084 0-.126 0-.168.042l-.042.042-.042.042-.084.126-.126.211-.211.464c-.042.042 0 .169.042.211.042.042.084.127.168.127s.169 0 .211-.042c.084-.042.084-.084.126-.169l.168-.38c.042-.084.084-.169.084-.253v-.295zM78.6 89.841v-.084c0-.042-.042-.127-.084-.127s-.126 0-.126.042l-.211.38-.042.084v.084l-.042.253c0 .042.042.127.084.169.042.042.126.084.169.084.042 0 .126-.042.168-.084l.084-.169v-.042l.042-.169v-.38l-.042-.042zM80.622 89.546c0-.042-.084-.127-.126-.127-.042 0-.126.042-.126.127l-.042.084v.084l-.042.211v-.042l-.042.295c-.042.084.042.211.126.253.084.042.211-.042.253-.127l.084-.38-.084-.38zM82.769 89.504l-.126.042-.126.337c-.042.127-.042.253-.042.38l.042.084.084.042.084-.042.042-.084v-.126l.042-.169v-.168c0-.042 0-.127.042-.169.042-.084 0-.126-.042-.126zM74.389 90.642v-.084c0-.084-.042-.169-.084-.211-.042-.042-.084-.084-.169-.084-.126 0-.295.084-.295.211-.042.126-.042.211-.042.337l-.084.38c-.042.127.042.253.126.337l.042.084c.084.084.253.042.295-.084l.042-.042.042-.127c.042-.211.126-.464.126-.717zM71.736 91.444l-.042-.127c-.042-.042-.126-.084-.168-.042l-.084.127-.042.042c-.042.126-.084.253-.084.422 0 .126 0 .295.042.38 0 .042.042.084.084.084l.042-.042h.042c.084 0 .168-.084.126-.169v-.379l.042-.084.042-.211zM69.462 92.498v-.084.042l-.042-.169-.126-.084c-.084 0-.168 0-.21.084l-.084.042c-.042.042-.084.126-.084.169v.506c0 .042.042.127.084.169.042.042.084.084.168.084.126 0 .211-.084.211-.211v-.421c.084-.042.084-.084.084-.126zM66.852 94.016v-.084l-.042-.042-.042-.042-.084-.042h-.042l-.084.042-.042.042-.042.042-.042.042v.042l.042.084.042.042h.084l.084-.042.042-.042.042-.042v-.084l.042-.042-.042.042.042-.042.042.126zM64.451 99.373c-.042-.042-.126-.042-.168 0l-.716.422-.042.042-.379.169c-.084.042-.168.042-.211.127l-.042.126c-.126.085.042.295.169.211.084-.084.21-.126.295-.169.126-.042.211-.084.337-.168l.169-.085c.253-.126.505-.211.758-.379.126-.127-.042-.337-.169-.295z" fill="#fff"/><g opacity=".6" fill="#fff"><path opacity=".6" d="M64.283 98.277l-.126-.042h-.126l-.084.042-.126.042-.168.042-.042.042-.169.042c-.084.042-.126.084-.084.168.042.084.084.126.169.084.084-.042.168-.084.295-.084h.126l.126-.042.168-.084c.084-.042.084-.168.042-.21zM64.03 98.275z"/></g><path opacity=".6" d="M63.525 101.567c-.084-.084-.126-.084-.169-.042l-.337.168-.337.085c-.042 0-.084.084-.084.126l.042.085v.042c.042.042.084.084.168.042.211-.126.421-.211.59-.295.126-.085.168-.169.126-.211zM63.356 103.465c0-.042-.084-.084-.126-.084l-.463.126-.211.042-.126.042c-.042.043-.084.085-.042.169.042.042.084.084.168.042l.084-.042.126-.042c0 .042.042.084.084.084.084 0 .168-.042.253-.084l.084-.042.084-.042c.042-.043.084-.085.084-.169zM63.356 105.32l-.084-.126-.042-.043h-.168l-.084.043-.126.042-.126.042-.084.042c-.042 0-.084.084-.084.127v.084l.042.127.126.084h.252l.042-.042-.042.042.126-.042.168-.085.126-.084c-.042-.084-.042-.169-.042-.211zM63.567 107.261c-.042-.043-.126-.085-.168-.085l-.421.127-.211.084-.084.042h-.042l-.084.085c-.042.042-.042.126 0 .168.042.085.126.127.211.085l.421-.085.379-.126c.084-.042.126-.084.126-.211 0 0-.042-.084-.126-.084zM66.22 108.231h-.042l-2.948.886c-.168.042-.253.211-.21.379.042.169.21.253.379.211 1.011-.211 1.937-.717 2.948-1.054.168-.085.084-.422-.126-.422zM73.294 116.624c-.084-.126-.211-.168-.337-.084-.126.042-.211.169-.295.253-.379.38-.758.675-1.179 1.012-.463.38-.969.76-1.39 1.181-.253.253.169.675.421.422l2.442-2.067c.168-.168.505-.421.337-.717zM64.914 110.972c-.042-.084-.168-.126-.253-.084l-.253.127c-.084 0-.169.042-.253.084l-.168.084h-.042l-.505.211c-.084.042-.084.127-.084.211.042.085.126.127.211.085l.547-.169h.084l.084-.042.547-.253c.084-.085.126-.169.084-.254zM66.051 112.745h-.042c-.295.042-.547.168-.758.295l-.168.126c-.168.085-.295.169-.421.254l-.042.084-.084.084c-.126.127.042.422.211.295.168-.084.295-.168.463-.295l.59-.295.084-.084c.084-.043.168-.085.253-.085.084-.042.168-.126.126-.211 0-.084-.084-.168-.211-.168zM67.441 114.979c-.042-.084-.126-.126-.21-.084h-.042l-.884.422c-.042.042-.084.126-.042.168l-.084.127-.084.042c-.042.042-.042.085-.042.169l.042.084v.042c.084.085.21.085.295 0 .126-.126.253-.21.379-.295.168-.084.337-.169.463-.295l.084-.127.084-.042c.042-.042.084-.126.042-.211zM68.915 116.962l-.042-.085v-.042c-.042-.084-.126-.084-.21-.042-.169.084-.337.211-.505.379l-.21.254-.042.084-.253.211c-.042.042-.042.168 0 .211.042.084.126.084.211.042l.084-.042h.042c.168-.085.379-.211.547-.338.042-.042.084-.126.042-.168l.084-.043.084-.042.042-.042.084-.042.042-.042c0-.127.042-.211 0-.253zM73.252 119.703c-.042-.084-.211-.126-.295-.042l-.253.169-.211.169-.084.084-.126.127c-.21.168-.379.337-.505.59-.042.042-.042.127.042.169.042.042.126.042.168.042.126-.042.211-.127.295-.211.084 0 .168 0 .211-.042l.295-.295.084-.085.379-.379c.084-.085.084-.211 0-.296zM86.517 122.446c-.379-.38-.927-.633-1.39-.886l-.547-.338c-1.011-.759-2.021-1.518-3.158-2.193l-.084-.084-.084-.085-.126-.042-.084-.042-.084-.042h-.21000000000000002l-.084.042c-.084-.042-.253 0-.295.084-.126.127-.084.296 0 .422.547.717 1.305 1.181 2.106 1.519.168.084.379.168.547.211.126.084.253.168.421.253.463.295.884.548 1.348.801.211.126.463.253.674.337.253.127.505.169.716.338.253.211.505-.127.337-.295zM87.023 114.473c-.21-.211-.463-.38-.758-.548l-.379-.211c-.126-.085-.253-.169-.379-.169s-.253.126-.211.295l.084.127c0 .084.042.168.126.211l.59.337.295.169.126.084.084.042h.042c.126.085.295.127.379 0 .126-.084.126-.211 0-.337zM85.465 117.552l-.253-.169c-.168-.253-.463-.422-.716-.548l-.295-.127-.042-.042-.084-.042-.421-.295c-.042-.043-.084-.043-.168 0-.211-.127-.505.21-.295.379l.084.042c0 .127.084.211.211.253l.042.043.084.042.211.126.084.042.253.211c.168.127.337.211.505.296l.042.042.21.126c.084.042.168.042.211 0h.042c.126.042.253-.042.295-.126.126 0 .126-.169 0-.253zM80.032 122.782c0-.126-.126-.211-.168-.295l-.168-.169c-.126-.126-.253-.211-.379-.295-.126-.084-.253-.211-.379-.337l-.168-.169v-.084l-.084-.127c-.084-.127-.253-.211-.421-.127-.126.085-.168.254-.126.422.168.295.421.549.716.759l.379.296.168.168c.084.085.126.169.211.211.084.042.21.042.295-.042.084.042.126-.084.126-.211zM76.242 123.035c-.084-.084-.126-.126-.21-.168l-.126-.127c-.042-.042-.084-.084-.168-.084h-.126l-.084.084-.042.127v.042l.042.084.042.042.084.085.042.042.126.126-.042-.042.126.085.126.042.126-.042c.169-.085.169-.211.084-.296zM98.772 73.055c-.379-.422-.758-.844-1.095-1.308-.379-.422-.758-.844-1.179-1.265-.126-.127-.421 0-.337.211.211.548.59.97.969 1.392.379.38.758.717 1.137 1.055.084.084.126.169.211.211.21.169.463-.127.295-.295zM96.708 73.477l-.042-.127-.126-.127-.126-.127-.042-.084-.042-.042-.084-.084c-.042-.042-.168-.084-.211 0-.042.042-.084.169-.042.211v.042c0 .042 0 .126.042.126l.337.295.042.084c.042.042.126.084.211.042.042-.042.084-.126.084-.169v-.042zM100.119 71.62l-.084-.084-.084-.084c-.042-.042-.084-.127-.168-.169l.042.042-.084-.084c-.084-.084-.126-.169-.168-.295-.042-.084-.211-.126-.295-.084l-.084.127c0 .042 0 .127.042.169l.042.042.042.084.084.126.168.253.126.084h.168l.126.042c.084 0 .126 0 .168-.084l-.042-.084zM101.677 70.355l-.042-.042v-.042l-.042-.126-.084-.169c-.042-.084-.127-.126-.169-.169h-.084l-.126-.042-.127.042c-.084.042-.084.169-.042.253.127.211.253.38.379.548l.127.084h.168c.084-.127.126-.253.042-.338zM103.53 69.258l-.042-.084-.042-.084v-.169l-.126-.211v-.084l-.085-.127-.084-.127c-.042-.084-.21-.169-.337-.084-.126.084-.126.211-.084.337l.211.38.126.169.042.084.042.084v.042c.042.084.169.126.253.084.126-.042.168-.127.126-.211zM104.793 68.035l-.042-.169c-.042-.127-.084-.253-.084-.38v-.084c-.042-.084-.042-.126-.126-.169-.042-.042-.127-.042-.211-.042-.042 0-.126.042-.168.126-.042.084-.042.127-.042.211v.336l.042.127.084.253c0 .042.042.126.126.169.042.042.127.042.211.042.168-.169.253-.295.21-.422zM95.234 62.636l-.126-.548c-.084-.38-.084-.801-.084-1.181-.042-.801.042-1.603.042-2.404 0-.38-.59-.38-.59 0 0 .843-.042 1.645 0 2.489 0 .422.042.801.126 1.223l.126.591c.042.169.126.422.295.506.126.084.253 0 .295-.127.042-.169-.042-.38-.084-.548zM97.298 59.515c0-.127.042-.295 0-.422 0-.084 0-.169-.042-.253l-.084-.253-.084-.084c-.042-.042-.126-.042-.168-.042-.126 0-.211.084-.253.211-.042.084-.042.211-.042.295v.252c-.042.127-.042.253-.042.38 0 .084 0 .169.042.295l.042.211c0 .084.084.127.168.169.042.084.211.084.253-.042h.042c.084-.042.126-.084.168-.169v-.211c.042-.084.042-.169.042-.253-.084-.042-.084-.042-.042-.084zM99.361 58.841h-.042c-.126-.042-.295.042-.337.169-.042.169-.042.295-.042.464v.422c0 .042.042.169.084.211.042.042.084.084.168.084.126 0 .253-.042.295-.211.042-.295.126-.548.126-.844 0-.127-.126-.253-.253-.295zM92.034 59.473l-.042-.337c0-.127-.168-.211-.253-.211-.126 0-.253.084-.253.211v.042c-.042.253-.084.506 0 .759l.042.127.084.169v.084c0 .127.126.253.253.253.126 0 .253-.127.253-.253v-.253l-.084-.59zM89.676 60.232l-.042-.084v-.464c0-.127-.084-.253-.211-.253-.126 0-.253.042-.295.169-.084.253-.084.506-.084.759 0 .169.042.295.084.464 0 .042.042.084.084.084v.084c0 .211.337.253.379.042l.042-.127c.042-.042.084-.127.084-.169v-.295c-.084-.084-.084-.169-.042-.211zM82.222 65.8v-.421l-.042-.675c-.084-.844-.042-1.687-.253-2.489-.084-.38-.674-.211-.547.169.126.506.168 1.012.211 1.518.042.422.084.844.168 1.265.042.253.084.548.168.759.084.127.337.084.295-.127zM70.178 66.474l-.084-.759c-.042-.506-.084-1.054-.253-1.518-.042-.169-.211-.253-.379-.211-.126.042-.253.211-.21.38.168.464.21 1.012.21 1.476 0 .253.042.548.084.801s.084.548.295.717c.168.169.421.042.421-.169.084-.253-.042-.506-.084-.717zM57.797 71.241l-.126-.675c-.084-.464-.169-.928-.253-1.434-.042-.169-.211-.253-.379-.211-.168.042-.253.211-.21.38.084.464.168.928.253 1.434.042.211.084.464.169.675.042.211.126.548.337.633.084 0 .126 0 .168-.042.211-.211.084-.548.042-.759zM59.651 70.228v-.126c0-.084 0-.126-.042-.211 0-.042 0-.126-.042-.169v-.084l-.042-.126c-.042-.084-.084-.127-.168-.127s-.168.042-.211.127l-.042.084v.253l.042.169.126.38c.042.084.126.084.211.042.084 0 .168-.084.168-.211zM61.798 69.258v-.042l-.042-.337v-.168l-.042-.211c-.042-.126-.168-.211-.253-.169-.126 0-.211.127-.211.253v.169l.042.337.084.211.042.084.084.127.126.042c.084 0 .168-.084.168-.169v-.127zM64.241 68.204c0-.126 0-.295-.042-.422l-.084-.38c-.042-.084-.126-.169-.253-.169-.084 0-.169.084-.211.211v.421c0 .084 0 .169.042.253l.042.127.126.126h.21000000000000002-.042c.126-.042.211-.084.211-.169zM66.894 67.445v-.38c0-.126-.042-.211-.084-.337l-.042-.042v-.042c0-.084-.042-.126-.084-.169-.042-.042-.126-.084-.168-.084-.126 0-.253.127-.253.253v.084c-.042.169-.042.295 0 .464 0 .211.084.422.253.59.042.042.084.042.168.042l.084-.127c.084-.084.126-.169.126-.253zM72.452 66.01v-.759c0-.127-.084-.211-.168-.211h-.084c-.126 0-.21.084-.21.211v.127c-.042.127-.042.211-.042.337 0 .169.042.337.084.506 0 .042.042.127.084.127l.126.042c.084 0 .21-.084.168-.211l.042-.169zM74.431 65.42c0-.084 0-.127-.042-.211v-.211c0-.127-.084-.211-.211-.211-.126 0-.21.084-.21.211v.422c0 .127 0 .295.084.422v.084l.042.042.084.042h.084c.084-.042.168-.084.126-.211v-.169l.042-.211zM76.706 64.534c0-.126-.084-.211-.21-.211s-.211.042-.253.169c-.042.126-.042.253-.042.422-.042.169-.084.38-.042.548 0 .126.084.211.21.211.084 0 .211-.042.253-.169v-.126l.042-.211.042-.169v-.464zM79.148 65.04v-.084c0-.084 0-.169-.042-.253v-.506c0-.084-.042-.169-.126-.211-.084-.042-.253.042-.253.127-.042.169 0 .337 0 .506l.042.253.042.337c0 .042.084.084.126.084h.084c.084 0 .211-.084.211-.211-.084.084-.084.042-.084-.042zM84.58 64.197c0-.084-.042-.126-.084-.169-.042-.042-.084-.084-.168-.084s-.211.084-.169.169v.59c0 .126 0 .295.084.422.042.084.126.084.211.084.084-.042.126-.084.126-.169v-.844zM87.065 64.239v-.084l.042-.211c0-.084-.042-.169-.126-.169-.084-.042-.211.042-.253.127v.042l-.042.042v.042c0 .042 0 .126-.042.169v.295c0 .211.042.422.084.591l.042.084c.042.084.211.127.253 0l.042-.126v-.8009999999999999zM89.002 64.154c0-.127 0-.211-.042-.253-.042-.084-.126-.169-.21-.169-.084 0-.169.084-.169.211v.126c0 .295.042.591.084.928 0 .084.126.169.211.127.084 0 .168-.084.168-.211v-.379l.042-.126c0-.127 0-.211-.084-.253zM56.071 72.168c0-.127-.042-.211-.084-.337l-.042-.169-.042-.169c-.042-.127-.126-.211-.253-.211l-.126.042c-.042.042-.126.084-.126.169 0 .084-.042.126 0 .211 0 .084 0 .169.042.211 0 .084.042.169.084.211.042.042.084.084.084.169 0 .042.084.084.126.084.042.042.126.084.211.042.042 0 .126-.042.126-.126v-.127zM53.881 73.434v-.127l-.042-.084v-.042l-.042-.126c-.042-.084-.042-.169-.042-.211v-.168c0-.042 0-.127-.084-.169-.042-.042-.084-.084-.168-.084-.126 0-.211.084-.211.211 0 .295.084.591.253.886l.042.042.042.042.042.084c.042.042.126.042.169.042.042-.042.084-.084.084-.169l-.042-.126zM51.86 74.657l-.126-.337-.042-.042-.168-.127h-.169c-.126.042-.168.169-.126.295l.126.38c0 .042.042.126.084.169l.084.211c.042.042.084.084.168.084l.126-.042.042-.084v-.505zM45.964 76.892c-.758-.084-1.474.127-2.148.38l-1.179.38c-.253.084-.168.464.126.422.337-.084.632-.169.968-.295l.126.042c.632-.084 1.263-.295 1.853-.506h.253c.295.042.295-.38 0-.422zM45.922 75.29c0-.042-.042-.084-.084-.084l-.126-.084h-.546l-.084.126c0 .042 0 .126.042.168l.042.084.042.042h.5469999999999999c.042 0 .126-.042.126-.084.042-.042.084-.126.042-.168zM46.849 73.813l-.042-.084-.042-.042h-.252l-.042.042-.042.042-.042.042v.084l.042.084.042.042.084.042h.042l.084-.042h.042l.042-.042.084-.084.042-.084v-.042l-.042.042zM43.185 79.676h-.084l-.084-.042h-.084c-.253-.042-.463-.042-.716 0h-.084c-.126 0-.211.042-.337.084h-.042l-.126.042-.084.126v.084c0 .084.084.126.168.126.421-.042.842-.126 1.263-.126.084 0 .126-.042.168-.084h.042c.168.042.168-.168 0-.211zM42.09 81.405h-.758c-.253 0-.505.042-.758.126-.084.042-.169.126-.126.253.042.084.126.168.211.168h.21000000000000002l.126-.042h.126c.042.042.126.042.168.042.168-.042.295-.084.463-.084h.337c.126 0 .211-.084.211-.211 0-.126-.084-.253-.211-.253zM41.332 83.599h-1.473c-.211 0-.211.337 0 .337h1.4729999999999999c.126 0 .169-.084.169-.211 0-.042-.042-.126-.169-.126zM40.406 85.792l-.042-.126c-.042-.042-.084-.084-.168-.084h-1.3040000000000003c-.084 0-.168.084-.168.168s.084.168.168.168h.084l.042.042c.168.042.337.042.463.042l.379-.042h.253c.042 0 .126-.042.168-.084.126-.042.126-.042.126-.084zM42.553 87.986c-.126-.127-.253-.084-.421-.084-.547 0-1.095-.042-1.6-.084-.632-.042-1.305-.084-1.937-.084-.379 0-.379.591 0 .591l3.369.169c.253 0 .632.084.716-.211 0-.126-.042-.253-.126-.295zM39.816 100.681c-.253-.085-.505-.085-.8-.127l-.926-.126c-.632-.085-1.221-.169-1.853-.338-.169-.042-.295.127-.337.253-.042.169.084.295.253.338.59.168 1.221.253 1.853.337.295.042.59.084.927.084.295.043.589.085.842.043.126 0 .21-.127.21-.254.084-.084-.042-.168-.168-.21zM39.058 90.305l-.168-.084c-.168 0-.337 0-.505.042h-.37800000000000006c-.084 0-.126.126-.126.211 0 .084.084.168.169.168h.46399999999999997c.168 0 .379.042.547 0 .084 0 .211-.084.168-.168 0-.084-.042-.168-.168-.168zM38.637 92.709h-.421l-.295-.042c-.211 0-.421.042-.59.126-.084.042-.126.168-.084.211.042.084.126.126.211.084h.042c.295.042.59.042.884 0h.042l.126-.042.211-.084c.084 0 .042-.253-.126-.253zM38.595 95.662c0-.127-.084-.253-.169-.253h-.505l-.253-.042h-.252l-.337-.042c-.126 0-.253.084-.253.211 0 .084.042.169.126.211l.337.084h.084l.126.042.168.042h.168c.084.042.168 0 .211-.042h.21000000000000002c.21-.042.337-.084.337-.211zM38.258 98.193c0-.127-.084-.211-.169-.211l-.253-.042-.379-.084c-.084 0-.126 0-.211-.042h-.33699999999999997c-.126 0-.211.084-.253.169 0 .126.084.211.169.253h.042l.084.042h.042l.042.042.169.084.59.042h.126l.126-.042c.126-.042.211-.127.211-.211zM37.037 103.212l-.253-.126-.295-.085-.337-.042h-.126c-.042-.042-.169-.084-.211-.042-.042.042-.084.084-.084.169l-.042.084c0 .084.042.211.168.253.084.042.169.042.253.042h.294l.421.085h.126c.084.042.211-.043.253-.127-.042-.084-.042-.169-.169-.211zM35.437 105.321l-.042-.042h-.084l-.084-.042h-.042v-.043l-.126-.126c-.042 0-.126 0-.168.042l-.084.127-.084.126c0 .042 0 .127.042.169l.126.126c.042.043.126.085.168.085.042.042.126.042.169.042l.084-.042h.042c.126 0 .211-.085.211-.211 0-.085-.042-.169-.126-.211zM6.464 93.637c-.211.675-.505 1.308-.758 1.982-.253.633-.463 1.35-.463 2.067 0 .38.547.38.59 0 .042-.675.211-1.307.463-1.94.253-.633.547-1.265.716-1.898.126-.422-.463-.548-.547-.211zM17.287 99.247c-.379.717-.716 1.476-.968 2.235-.253.759-.505 1.561-.59 2.362-.042.337.505.38.547.084.168-.759.337-1.518.59-2.235.253-.717.59-1.434.927-2.151.168-.337-.337-.633-.505-.295zM27.225 107.176c-.211.759-.547 1.434-.8 2.193-.126.338-.211.717-.295 1.097l-.084.506c0 .169-.042.295.042.422.042.084.168.084.211 0l.042-.042.042-.085c0-.084 0-.126.042-.211l.126-.464c.126-.337.253-.675.421-1.012.337-.717.632-1.434.842-2.151.084-.464-.463-.633-.59-.253zM39.774 105.742c-.126-.042-.253.042-.295.169l-.169.759-.084.379c-.042.127-.126.38.084.422.211.042.253-.168.337-.337l.126-.38.211-.759c0-.042-.084-.211-.211-.253zM37.753 107.978c-.084 0-.168.042-.211.126-.042.169-.084.337-.084.464l-.042.253c0 .084.042.211.084.253.042.042.084.042.126 0l.042-.084v-.042c.084-.127.126-.253.169-.38l-.042-.127c0-.084.042-.168.084-.295 0-.042-.042-.168-.126-.168zM35.942 109.159c0-.084-.042-.169-.126-.169-.084-.042-.211.042-.211.127-.042.084-.042.211-.042.295l-.042.295v.46399999999999997l.042.127c.042.126.21.126.253 0v-.127c.042-.084.042-.211.042-.295v-.084c0-.127.042-.211.084-.338v-.295zM33.163 109.918c0-.085-.042-.169-.168-.211-.126-.042-.253.042-.253.168l-.042.338v.169c0 .042 0 .126-.042.168v.717c0 .085.084.169.168.169s.168-.042.211-.126v-.254c.042-.21.042-.463.126-.674v-.21100000000000002l.042-.042c0-.085 0-.169-.042-.211zM29.752 109.707l-.084.127-.084.126c-.084.211-.126.38-.126.591 0 .084 0 .211-.042.295v.16899999999999998c0 .042 0 .126-.042.168l.042.127v.126c.042.127.168.127.253.043.084-.127.084-.254.126-.38v-.21100000000000002c.042-.126.084-.253.084-.38v-.126l.126-.464c.168-.211-.126-.38-.253-.211zM18.466 103.887c0-.043-.042-.127-.126-.127-.126-.042-.253-.042-.337.084-.21.38-.421.717-.547 1.139-.042.127.042.211.126.253.042.127.253.169.295.042l.084-.168v-.042l.042-.043.126-.295.084-.126c.084-.127.126-.253.21-.422l.042-.042c.042-.127.042-.211 0-.253zM20.445 105.278c-.126-.084-.337-.042-.379.085-.084.211-.211.379-.253.59l-.084.211-.126.337v.296c0 .084.126.126.211.126l.126-.084c.042 0 .084-.042.084-.085l.084-.084.042-.084.042-.042.042-.127.042-.084.042-.127.126-.253c.042-.042.042-.084.042-.169l.042-.084c.084-.169.042-.337-.084-.422zM22.424 107.008l-.126-.042c-.042 0-.168.042-.21.084-.126.169-.211.338-.253.548l-.042.169c-.126.211-.295.464-.211.717.042.127.168.169.295.127.084-.042.168-.127.211-.211l.084-.084c.126-.211.253-.464.337-.718v-.042l.084-.211c0-.168-.084-.295-.169-.337zM24.614 108.188c-.126-.084-.295-.042-.379.085-.126.211-.253.422-.337.632l-.084.127-.042.127-.042.042-.042.126v.169c.042.084.126.169.253.169.126 0 .21-.085.295-.169.042-.084.126-.169.168-.295l.042-.042.084-.127.042-.127.168-.337c.042-.084 0-.295-.126-.38zM14.802 100.133c-.126-.085-.295-.085-.379.042l-.253.337-.126.253c-.084.169-.211.338-.295.549v.295c-.042.126-.042.295.084.379.126.085.295.043.379-.084.253-.38.463-.801.59-1.223l.084-.127c.042-.168 0-.337-.084-.421zM12.402 98.783c-.126-.084-.295-.042-.379.084v.042c-.084 0-.126.042-.168.126-.042.084-.084.127-.084.211l-.042.084-.042.126v-.042.042l-.042.042-.084.169c-.042.084-.084.169-.168.253-.084.126-.042.295.084.38.126.084.295.042.379-.085.084-.084.126-.211.168-.295l.211-.295.042-.084c.084-.126.126-.211.168-.337.126-.169.126-.337-.042-.422zM10.128 97.349c-.084-.042-.253-.042-.337.042-.168.211-.337.464-.463.717-.126.253-.253.548-.253.801 0 .169.211.211.295.127.084-.084.168-.169.211-.295l.042-.042.042-.042c.253-.295.463-.633.59-1.054 0-.042-.042-.211-.126-.253zM8.275 96.379c-.126-.084-.253-.042-.337.084l-.211.38-.126.084-.168.38-.084.169-.042.084v.042l-.042.084c-.042.084 0 .169.084.253.084.042.126.042.211 0l.084-.042c.168-.169.295-.338.421-.548.084-.211.168-.422.295-.633.084-.127.042-.253-.084-.338zM3.643 95.198c-.168-.042-.295.042-.379.211l-.042.042-.042.127-.126.211c-.084.126-.168.295-.253.464-.168.337-.295.844.084 1.097.126.084.253 0 .295-.127l.042-.127v-.169c.126-.127.211-.253.253-.422v-.127c.126-.253.211-.506.337-.801.084-.169-.042-.38-.168-.38zM1.116 95.282c-.126-.084-.253-.042-.337.084-.084.127-.126.211-.168.338l-.168.337-.168.38c-.042.126-.042.253-.042.38 0 .084.042.169.126.169.084.042.168 0 .211-.084l.084-.126.126-.084.126-.253.126-.295.126-.295.042-.126.042-.084v-.042c0-.084 0-.253-.126-.295zM60.366 60.359c.042-.084-.042-.169-.084-.169-.084-.253-.463-.295-.547 0-.126.38-.126.801-.168 1.223v.717l-.126 1.265c-.042.295-.042.633-.042.928 0 .295-.042.59 0 .843.042.38.547.38.59 0 .042-.253 0-.548 0-.801l.042-.928.084-1.054c.042-.042.084-.042.084-.127.042-.295.042-.59.042-.886l.084-.59c0-.211 0-.337.042-.422zM57.924 62.932l-.042-.337-.126-.127h-.084l-.126.042c-.042 0-.084.042-.084.084l-.084.253-.042.295-.042.042c-.084.211-.084.422-.084.675v.674c0 .127.126.253.253.295.126 0 .253-.084.295-.211.084-.253.084-.548.084-.801v-.084c.042-.169.084-.337.084-.506v-.295zM62.051 63.69v-.337l-.084-.127c0-.127-.126-.169-.21-.127-.084 0-.126.042-.169.084l-.042.169-.042.042c-.042.127-.042.295-.042.464v.379c0 .084 0 .211.042.295v.126c0 .127.084.211.211.211.126 0 .211-.084.211-.211 0-.084 0-.169.042-.253v-.21000000000000002l.042-.38c.084-.042.084-.084.042-.127z" fill="#fff"/></g></g><defs><clipPath id="a"><path fill="#fff" d="M0 0h194v134h-194z"/></clipPath></defs></svg>