<svg width="110" height="103" viewBox="0 0 110 103" xmlns="http://www.w3.org/2000/svg" fill="none"><g clip-path="url(#a)"><ellipse cx="55.42" cy="96.323" rx="55.42" ry="6.678" fill="#F3F2EE"/><path d="M51.149 54.089s-7.483 9.667-8.416 13.234c-.933 3.568.818 4.604.818 4.604s7.926-1.593 8.551-6.422c.616-4.838-.952-11.416-.952-11.416zM56.266 97.527s-2.376.391-4.79-3.333-.846-14.857-.846-14.857 8.099.743 9.667 3.998c1.558 3.255.471 11.338.471 11.338l-4.502 2.854z" fill="#660C21"/><path d="M17.28 82.944s-.702-1.906-1.818-1.799c-1.116.108-3.338.108-3.338.108l-2.222-2.434c-.491-.606-1.01-.938-1.347-1.114-.173-.088-1.125-.577-1.404-.313-.135.127-.067.391 0 .577-.019-.039-.231-.479-.76-.577-.231-.049-.664-.049-.818.156-.24.323.375.929.875 1.74.654 1.065.337 1.231.933 2.698.856 2.092 2.232 3.49 2.751 4.017.433.44.827.772 1.116 1.007l5.973-2.639.058-1.427z" fill="#F87659"/><path d="M27.535 85.065l5.088-.635c.26-.792.683-2.063 1.26-3.617 2.366-6.412 3.809-8.367 5.002-12.345.539-1.808 1.193-4.604 1.366-8.318 1 1.583 2.289 3.597 3.78 5.825.606.909 1.241 1.857 1.905 2.825.481.704.981 1.427 1.491 2.15 1.837 2.62 3.838 5.327 5.877 7.878 6.272 7.859 12.966 14.29 16.929 12.179 1.308-.694 3.453-2.922 3.973-5.904.433-2.463-.346-4.819-1.529-6.989l-.317-.567c-.404-.586-.818-1.173-1.231-1.75l-.731-1.017c-1.981-2.707-3.857-5.034-5.425-6.891-1.51-1.789-2.741-3.138-3.53-3.988-1.818-1.965-3.905-4.076-6.272-6.265l-.01-.01c-.895-.792-1.693-1.466-2.366-2.023-.683-.557-1.241-.997-1.654-1.31l-.173-.127c-.394-.303-.616-.45-.616-.45-3.492-2.473-8.426-5.611-14.707-8.504-1.087-.508-2.376.029-2.809 1.163-1.577 4.135-2.491 7.692-3.039 10.292-1.231 5.816-1.491 10.693-1.934 19.187-.202 3.861-.288 7.057-.327 9.207z" fill="#FF997A"/><path d="M44.021 65.985c1.048 1.574 2.193 3.255 3.405 4.975.433 0 .856-.108 1.251-.293.693-.342 1.241-.938 1.597-1.623.327-.626.462-1.163.491-1.349.26-1.281 1.029-5.826 2.02-12.081-.779-.645-1.404-1.124-1.818-1.447-.317 2.15-.904 3.822-1.385 4.946-.846 1.994-1.77 3.255-2.097 3.675-.481.616-1.02 1.173-1.568 1.72-.568.577-1.173 1.173-1.895 1.476z" fill="#F87659"/><path d="M43.55 71.928c3.607 3.118 6.983 5.337 9.754 6.92.702.401 1.376.763 1.991 1.085 5.906 3.069 8.253 3.02 9.513 2.854 1.876-.244 3.472-.977 4.761-1.838 1.433-.958 2.482-2.072 3.116-2.815l.039-.049-.356-.518c-.404-.587-.818-1.173-1.231-1.75l-.731-1.017c-1.982-2.707-3.857-5.034-5.425-6.891-1.51-1.789-2.741-3.138-3.53-3.988-1.818-1.965-3.905-4.076-6.271-6.265l-.01-.01c-1.251-1.163-2.588-2.346-4.002-3.548l-.019.205c-.202 2.062-.654 4.633-1.654 7.458-1 2.835-2.289 5.18-3.549 7.057-.24.352-.481.694-.712 1.016-.606.802-1.173 1.496-1.683 2.092z" fill="#354B42"/><path d="M31.594 55.712c.019.352.164 2.678.731 2.756.346.039.702-.792 1.048-1.564 1.452-3.216 3.232-6.119 3.598-5.992.385.137-.818 3.617.202 4.232.135.088.414.176.625.068.317-.166.269-.694.337-1.202.173-1.28.885-1.173 1.164-2.473.135-.626-.029-.645.115-2.453l.048-.538.029-.303c3.011.088 6.983-.156 11.427-1.447l.202-.059c3.713-1.105 6.07-2.19 7.532-2.971 3.126 1.261 8.388 2.854 14.852 2.268 2.578-.235 4.819-.772 6.685-1.368 1.116-2.717 2.232-5.444 3.338-8.162-1.366-.479-3.751-1.105-6.704-.792-2.03.215-3.646.792-4.761 1.3-4.078-.43-7.435-.518-9.898-.508-2.347.02-4.194.127-6.272.479-2.27.381-3.694.86-4.088.997-2.193.753-3.684 1.691-4.309 2.014-2.809 1.456-6.926 3.548-12.293 6.138-3.434 4.623-3.713 7.898-3.607 9.579z" fill="url(#b)"/><path d="M43.55 71.928c4.521 3.91 8.705 6.422 11.745 8.005 5.906 3.069 8.253 3.01 9.513 2.854 1.876-.244 3.472-.977 4.761-1.838.914-1.554 1.491-3.323 1.558-5.132-.212-.332-.452-.674-.731-1.017-1.299-1.564-2.857-2.395-3.973-2.844-1.578.44-3.838 1.056-6.579 1.72-3.492.85-5.261 1.339-6.55 1.349-4.733.01-8.253-2.082-9.744-3.099z" fill="#132D22"/><path d="M53.419 40.131c.087.459 3.559-.792 6.243 1.026.712.479.548.626 1.76 1.564 1.52 1.173 2.53 1.955 3.915 2.131 1.068.127 1.193-.254 3.444-.205.731.02 1.414.068 1.953.557.337.303.462.684.644 1.134.5 1.241.462 2.522.433 3.265-.221 6.735 1.404 6.969.346 10.586-.221.772-.087.039-3.395 6.539-.51 1.007-1.549 3.089-2.578 5.953l-.231.655-.443.137-1.029.323c-.375.225-.76.45-1.154.674-2.337 1.29-4.665 2.16-6.887 2.737l.462.362.192.156.346.274.106.078c6.204 4.799 10.369 7.468 13.87 9.266 1.529.782 2.924 1.398 4.309 1.955 1.145.459 2.164.772 3.049.928l.144-.078c.625-.352 1.597-.987 2.588-1.994.596-.606 1.193-1.349 1.712-2.248.269-1.134.577-2.776.914-5.64.115-.948.231-2.023.346-3.255.125-1.339.25-2.864.375-4.604.048-.655.096-1.32.346-2.199.462-1.642 1.26-2.913 2.655-4.838.308-.43.644-.889 1.02-1.388 1.481-1.994 2.539-3.157 3.28-4.047 1.991-2.365 6.608-7.839 7.108-13.068.115-1.144.029-2.268-.327-3.343-.452-1.388-1.202-2.297-1.876-3.089-.173-.205-.346-.401-.519-.577-.125-.137-.26-.264-.385-.381 0 0-.519-.498-1.106-.919-.981-.713-4.107-1.241-5.262-1.994-.279-.176-.548-.44-.779-.811-.125-.205-.25-.45-.346-.733-.154-.43-.269-.948-.346-1.574-.452-1.838-.115-3.402.125-4.203-1.972.811-3.944 1.613-5.925 2.424l-.558.225c.51.469.827 1.066.923 1.672.077.498.019 1.007-.202 1.447-.471.968-1.501 1.232-1.664 1.271-1.462-.235-3.992-.411-6.704.714-.741.303-1.376.665-1.924 1.026-7.012-1.407-12.043-.626-15.217.293-2.511.733-3.809 1.535-3.751 1.818z" fill="#FFD5A1"/><path d="M82.025 31.892c.51.469.827 1.066.923 1.671.847-.137 2.299-.244 3.915.381.779.303 1.395.704 1.866 1.065-.154-.43-.269-.948-.346-1.574-.452-1.838-.115-3.401.125-4.203-1.606.948-3.213 1.896-4.819 2.835-.356-.313-.769-.43-1.106-.41-.24.02-.442.098-.558.235z" fill="#F87659"/><path d="M11.528 87.342l.664.205c3.001.938 6.031 1.896 9.08 2.883 2.799.909 5.56 1.818 8.292 2.737l8.426.117c.394.01 5.136.068 13.207.01l2.472-.02c1.52-.01 3.145-.029 4.867-.059 2.078-.029 4.3-.068 6.647-.108 1.289-.029 2.443-.049 3.492-.078 1.962-.059 3.54-.127 4.829-.235 1.962-.841 3.732-1.71 5.3-2.561l.144-.078c.625-.352 1.606-.987 2.588-1.994 1.299-2.444 1.347-5.288-.019-7.556-1.962-3.245-6.685-3.568-10.09-3.929-4.059-.43-7.099-.029-11.466.821l-.269.049c-.702.137-1.443.293-2.222.45-1.876.381-4.002.821-6.512 1.3l-.375.068c-4.925.929-9.148 1.584-12.331 2.023-1.597.01-3.309.078-5.136.235l-.25.02c-2.405.215-4.617.547-6.599.928l-13.303.831c-.26-.098-.596-.205-.991-.293-.664-.137-1.125-.244-1.347-.127-.337.205-.404 1.105.904 4.359z" fill="#FFD5A1"/><path d="M83.046 16.458l-2.126.85s-1.905.831-2.328 3.011c-.423 2.17-.827 2.864-.827 2.864s2.559-4.047 3.886-3.362c1.328.674 1.395-3.362 1.395-3.362z" fill="#510603"/><path d="M79.852 32.361c.231.166.423.235.798.371 2.789 1.017 5.55-.635 6.464-1.104l.904-.401c1.125-.508 2.135-.997 3.001-1.584 1.087-.743 1.933-1.622 2.463-2.874 1.558-3.724-.385-9.12-4.107-10.683-2.636-1.105-5.675.127-5.829.186-.596.244-1.048.44-1.433.909-.26.313-.385.655-.452.997-.183.919.038 1.896-.673 2.727-.058.059-.404.459-.904.929-.462.43-.577.489-.75.713-.365.469-.433.987-.5 1.515-.202 1.818-.221 2.952-.221 2.952-.096.587-.606 4.047 1.241 5.347z" fill="#FFD5A1"/><path d="M81.66 18.188c1.597 1.378 2.568 1.466 3.165 1.271.635-.215.933-.772 1.529-.684.722.108 1.126 1.075 1.212 1.28.664 1.603-.356 3.313-.539 3.616.231-.068.49-.166.77-.322.818-.45 1.289-1.114 1.529-1.505.038 1.065-.106 1.896-.24 2.444-.077.303-.144.567-.298.899-.404.85-1.039 1.349-1.443 1.603.24-.01.914-.078 1.529-.596.452-.381.673-.821.769-1.056.048.684.106 2.522-.991 4.438-1.222 2.141-3.097 3.001-3.694 3.245.231-.098 3.886-1.662 6.06-3.167.837-.577 1.481-1.173 2.001-1.984.173-.274.327-.567.462-.88 1.558-3.724-.385-9.12-4.107-10.684-2.636-1.104-5.675.127-5.829.186-.596.244-1.048.44-1.433.909-.26.293-.385.635-.452.987z" fill="#F87659"/><path d="M78.111 16.536c.115-.284.5-1.144 1.308-1.711 1.135-.801 2.357-.508 2.376-.743.019-.205-.856-.567-1.722-.469-.895.098-1.491.635-1.712.86.337-.577.895-1.378 1.741-2.18.25-.235.721-.675 1.356-1.065.404-.244 1.943-1.134 3.626-1.046 1.433.078 3.222.987 4.338 2.092.25-.029.529-.098.789-.254.885-.528 1.318-1.789.914-3.02.596 1.388.385 2.58-.087 3.313.712.078 1.654.215 2.434.459 2.549.792 4.127 2.972 4.088 3.02-.01.02-.279-.235-.856-.557-.77-.43-1.578-.684-1.606-.616-.019.039.192.176.24.205.635.42 2.463 2.776 2.713 5.982.25 3.304-1.308 5.865-1.664 6.441.144-.284.442-1.046.346-1.955-.038-.401-.154-.723-.24-.929-.414 2.346-1.145 3.568-1.837 4.252-.904 1.056-2.184 2.854-1.78 4.271.067.244.183.459.183.459-.106.068-1.048-1.163-1.145-2.571-.365.323-.635.587-.866.889-.337.44-.991 1.495-.885 3.45-1.501-1.886-1.674-3.216-1.52-4.105.067-.401.173-.674.5-1.808.308-1.065.491-1.955.606-2.541.077-.205.173-.459.269-.762l-.539.342c-.75.44-1.453.762-2.078.997.539-.42 1.376-1.202 2.02-2.424.606-1.163.808-2.297.847-3.138-.125-.674-.308-1.28-.52-1.808-.029.215-.087.45-.163.694-.548 1.652-1.933 2.551-2.395 2.805.144-.176.394-.674.827-1.984.798-2.395-1.866-4.203-1.866-4.203-1.337.567-2.26.489-2.857.313-1-.284-1.404-.938-2.578-.958-.221 0-.808-.01-1.443.283-.77.352-1.491 1.085-1.491 1.085.019-.332.096-.821.327-1.368zM96.31 27.366l.067-.117-.067.117zM87.018 23.447l.154-.078c-.115.147-.154.078-.154.078z" fill="#870036"/><path d="M91.519 27.806c.25-.684.433-.85.394-1.222 0-.049-.048-.498-.327-.723-.625-.498-2.491.088-2.857 1.378-.25.88.183 2.101.981 2.287.558.127 1.193-.274 1.481-.713l.327-1.007z" fill="#FFD5A1"/><path d="M90.308 28.178c-.058-.088-.125-.313-.24-.274-.116.039-.192.108 0-.225.192-.332.577-.596.577-.596s-.76.42-.866.86c-.106.44.087.743.26.625.173-.117.327-.293.269-.391zM84.18 80.275c.231-1.975.481-4.516.721-7.859.048-.655.096-1.32.346-2.199.346-1.613 1.279-2.952 2.655-4.838.308-.43.644-.889 1.02-1.388 1.481-1.994 2.539-3.157 3.28-4.047 1.991-2.366 6.608-7.839 7.108-13.069-1.414-3.401-2.52-5.474-2.52-5.474s0-.792-.192-1.544c-.491-.508-.991-.938-1.491-1.3l-.568.43c-1.654 1.124-1.135 3.9-1.664 6.617-.337 1.72-.981 2.874-1.751 4.252-.981 1.75-2.866 5.112-6.214 6.168-2.799.889-5.733-.117-5.752.029-.01.078 1.01.147 2.212.802.664.362 1.654.938 1.924 1.955.173.645-.115 1.241-.308 1.642-.721 1.544-1.895 1.359-2.463 2.58l-.135 3.225c-.491 1.31-1.462 1.085-2.232 2.336-1.097 1.789.337 3.108-.471 5.415-.789 2.248-2.693 2.551-2.597 3.548.106.899 1.828 1.974 9.09 2.717zM53.678 93.275c1.626-.02 3.242-.029 4.867-.059 2.212-.029 4.434-.068 6.647-.108 2.453-2.541 3.251-6.314 2.039-9.638-1.193-3.255-4.117-5.552-7.532-5.923l-2.222.45c-1.876.381-4.002.821-6.512 1.3 1.173.489 2.799 1.437 3.982 3.255 1.52 2.336 2.039 5.708.539 8.504-.519.977-1.193 1.701-1.808 2.219zM65.538 73.482c.144.264.337.528.596.782 1.222 1.153 2.982.899 3.319.841-1.068-1.867-.789-3.147-.673-3.568.192-.674.818-2.072 2.03-3.02.308-.235.741-.528.943-1.095.173-.479.058-.841-.019-1.407-.048-.371-.192-1.623.154-2.571.452-1.232 1.414-1.056 1.818-2.268.26-.762-.077-.958 0-2.199.038-.665.144-2.277 1.048-3.089.962-.86 2.732-.733 4.405.156-.308-.635-1.116-.782-1.799-.909-1.145-.215-2.251-.625-3.27-1.192-.317-.176-.645-.381-.847-.694-.25-.381-.288-.85-.317-1.31-.135-1.926-.808-4.242-.346-6.119.491-1.984 1.962-3.685 3.357-5.093-2.799 2.102-4.521 4.34-4.55 5.601-.019.733.096 1.593.096 1.593.106.841.279 1.427.346 1.671.414 1.564-.115 2.121.144 4.359.327 2.776.952 3.626.202 6.226-.221.772-.086.039-3.395 6.539-.231.45-.433.89-.846 1.74-1.029 2.141-1.847 3.861-2.395 5.024z" fill="#F87659"/><path d="M88.566 96.696c.164.049.414-.137.548-.284.173-.176.317-.401.385-.508l.231-2.258c.183-.049.443-.137.741-.274.846-.41 1.308-.968 1.366-.909.029.029-.048.205-.548.87-1.039 2.326-1.308 4.174-.625 4.672.163.117.49.235 1.173 0 .115.137.596.665 1.404.753.981.117 1.654-.498 1.751-.596.394.039 1.241.049 2.03-.479.183-.127.337-.264.471-.401.163.049.539.137.895-.039 0 0 .298-.147.51-.518.298-.518.327-1.935.048-3.812l-.125-.782-.337-.713.558-1.3c.404-.948.885-2.111 1.414-3.441 1.222-3.079 1.818-4.858 2.684-7.174.75-2.023 1.885-4.926 3.444-8.435-.01-4.32-.481-9.53-2.03-15.229-.491-1.808-1.039-3.489-1.626-5.063.164-.968.318-2.551-.105-4.428-.52-2.356-1.655-3.968-2.319-4.77 0 0-.529-.655-1.202-1.251-2.386-2.082-6.022-2.678-7.07-2.825l-.01.069c-.144.753-.26 1.632-.269 2.619-.038 2.268.462 4.135.914 5.405-.221 2.805-.135 5.151 0 6.862.414 5.181 1.674 9.09 2.568 11.798.163.499.327.968.49 1.427.625 1.769 1.241 3.235 1.741 4.35-.26 1.935-.558 3.89-.875 5.884-.77 4.75-1.645 9.315-2.607 13.674h-.9810000000000001c-.77.215-1.703.557-2.693 1.153-.414.244-.77.499-1.097.753-.24.342-.539.85-.779 1.505-.596 1.662-.5 3.568-.067 3.695z" fill="#FFD5A1"/><path d="M12.192 87.547c3.001.938 6.031 1.896 9.08 2.883 2.799.909 5.56 1.818 8.301 2.737l8.426.117c.394.01 5.137.068 13.207.01.212-.635.096-1.251-.885-1.711-.885-.42-1.933-.332-2.924-.254-2.982.215-5.983.205-8.974.186-2.135-.019-4.29-.039-6.368-.45-.654-.127-1.299-.381-1.943-.44-.779-.078-1.491.137-2.203-.293-.442-.264-.721-.694-.933-1.134-.279-.587-.452-1.222-.519-1.857-.067-.713.019-1.466.414-2.082l.048-.068c.269-.391.654-.714 1.097-.948.77-.401 1.597-.264 2.347-.547 1.01-.391 2.049-1.212 2.963-1.779-.135-.088-.279-.176-.433-.244-2.414.215-4.617.547-6.599.928l-13.303.831c-.26-.098-.596-.205-.991-.293-2.741-1.75-3.723-1.896-4.069-1.613-.683.557.548 3.372 2.809 5.122.606.469 1.125.802 1.453.899z" fill="url(#c)"/><path d="M50.62 79.347c.923.156 2.395.528 3.886 1.544 3.078 2.082 4.04 5.337 4.328 6.656.346 1.613.289 3.108.029 4.438-.606 3.05-2.289 5.171-2.597 5.552 3.136-.411 6.81-1.124 10.812-2.365 4.752-1.466 8.724-3.294 11.889-5.004 1-.577 2.934-1.857 4.328-4.281.5-.86.846-1.72 1.087-2.561.25-1.72.365-3.832.144-6.305l-.173.02-.394.039-.154.02-.163.02c-1.635.147-3.549.166-5.666-.088-4.415-.538-7.926-2.082-10.331-3.47-.529-.303-1-.596-1.424-.87-.856.196-2.222.557-3.819 1.212-2.732 1.134-3.828 2.189-6.358 3.45-.423.215-.933.45-1.52.694-1.058.44-2.357.899-3.905 1.3z" fill="#447760"/><path d="M76.341 79.513l1.856.753c-.529-.459-1.174-.753-1.856-.753z" fill="#C22370"/><path d="M58.546 93.217c-.741 2.375-2.02 3.988-2.28 4.311 4.146-.929 7.772-1.73 10.812-2.365 2.337-.723 4.483-1.535 6.445-2.375 1.962-.841 3.732-1.711 5.3-2.561l.144-.078c.625-.352 1.597-.987 2.587-1.994.596-.606 1.193-1.349 1.712-2.248l.029-.039c.5-.86.846-1.72 1.087-2.561.25-1.72.365-3.832.144-6.304l-.173.019-.394.039-.154.02-.163.019c-3.203.293-8.57.254-14.15-2.532-.654-.322-1.27-.674-1.856-1.026-.529-.303-1-.596-1.424-.87h-.01c-.856.195-2.222.557-3.819 1.212-2.732 1.134-3.828 2.189-6.358 3.45-.423.215-.933.45-1.52.694.587-.088 1.501-.205 2.616-.323.846-.088 1.808-.166 2.847-.235 1.645-.098 3.473-.137 5.3-.059 3.213.147 9.629.479 8.917 5.464-.154 1.105-.731 2.111-1.424 2.991-.404.518-.846.997-1.318 1.437-1.645 1.544-3.674 2.659-5.81 3.372-2.107.704-4.434 1.105-6.781 1.261-.077.479-.183.889-.308 1.28z" fill="#354B42"/><path d="M96.213 39.115c-.096-.039-1.26-.489-3.578-1.368l-.404-.156.01-.068c1.058.147 4.684.733 7.07 2.825.673.587 1.202 1.251 1.202 1.251.654.801 1.799 2.414 2.318 4.77.414 1.877.27 3.46.106 4.428.587 1.564 1.135 3.255 1.626 5.063 1.539 5.698 2.01 10.908 2.029 15.229-1.558 3.519-2.693 6.412-3.443 8.435-.866 2.317-1.453 4.096-2.684 7.174-.529 1.329-1.01 2.492-1.414 3.441h-.019l-.539 1.3.337.714.125.782c.539 2.16.298 3.9-.558 4.33-.163.078-.394.137-.721.088-.183.156-.442.342-.779.499-.433.205-.827.274-1.097.313.337-.313 1.683-1.662 1.674-3.616-.019-2.737-2.703-4.369-3.088-4.594-.25-.147-.481-.254-.635-.323h.423c.962-4.359 1.847-8.914 2.607-13.674.317-1.994.616-3.949.875-5.884-.5-1.114-1.106-2.58-1.741-4.35-.279-.801-.616-1.847-.49-1.906.115-.049.548.723.712.987 1.991 3.362 5.954 4.526 5.772 6.275-.096.948-1.27.811-2.53 2.365-1.866 2.307-1.943 5.894-1.116 6.275.664.303 2.001-1.456 3.242-2.981.808-.997 1.933-2.659 2.53-4.936.163-.626.432-1.867.307-4.936-.086-2.043-.355-8.357-2.375-13.01-.174-.401-.626-1.388-.914-2.815-.356-1.73-.193-2.707-.231-3.773-.106-3.157-2.039-6.998-4.608-8.152z" fill="#FF997A"/></g><defs><linearGradient id="b" x1="29.537" y1="50.529" x2="85.065" y2="40.144" gradientUnits="userSpaceOnUse"><stop stop-color="#FFD5A1"/><stop offset="1" stop-color="#FF8873"/></linearGradient><linearGradient id="c" x1="49.338" y1="87.801" x2="7.983" y2="86.944" gradientUnits="userSpaceOnUse"><stop stop-color="#FFD5A1"/><stop offset="1" stop-color="#FF8873"/></linearGradient><clipPath id="a"><path fill="#fff" d="M0 0h110v103h-110z"/></clipPath></defs></svg>