<svg width="60" height="60" viewBox="0 0 60 60" xmlns="http://www.w3.org/2000/svg" fill="none"><g clip-path="url(#a)"><path d="M11.462 11.683h36.393s11.19 8.28 10.061 17.435c-1.129 9.155-10.266 27.413-11.755 28.338-1.489.926-28.95.72-31.158 0-2.207-.72-11.755-18.207-12.114-28.904-.359-10.698 8.572-16.869 8.572-16.869z" fill="#E6A251"/><path d="M10.536 2.94c1.899-2.623 35.623-3.549 37.882 0 2.258 3.549-.565 8.743-.565 8.743h-36.393s-2.413-6.686-.924-8.743z" fill="#D9EFFF"/><path d="M46.666 4.375c-1.57-1.563-9.419-2.188-10.361-1.563-1.256 1.562 9.105 5.625 10.361 5.625 1.256 0 1.57-2.5 0-4.063z" fill="#C8E0F1"/><path d="M57.966 18.934c.359 1.646-5.852-1.491-8.726 0-2.875 1.491-4.723 5.04-7.289 4.834-2.618-.206-4.62-3.909-7.238-3.909-2.618 0-3.696 5.195-5.184 5.195-1.489 0-1.694-2.829-3.183-2.932-1.488-.051-1.848 3.497-4.106 3.497-2.259 0-.359-5.966-3.183-6.686-2.823-.72-5.184 5.966-7.7 4.834-2.515-1.131 0-5.246-1.386-5.606-1.386-.36-4.466 7.612-6.878 6.892-2.413-.72-3.952-7.612 8.316-13.372h36.393c.051 0 9.496 4.32 10.164 7.252z" fill="#D9EFFF"/><path d="M39.875 12.5l2.512 8.438M41.758 13.125l3.768 4.375" stroke="#C8E0F1" stroke-linecap="round"/><path d="M47.852 40c0 .412-.336.75-.756.75s-.756-.338-.756-.75.336-.75.756-.75.756.338.756.75zM11.43 28.75c0 .412-.336.75-.756.75s-.756-.338-.756-.75.336-.75.756-.75.756.338.756.75zM16.455 30.625c0 .757-.617 1.375-1.384 1.375-.767 0-1.384-.618-1.384-1.375s.617-1.375 1.384-1.375c.766 0 1.384.618 1.384 1.375z" stroke="#F5CF84"/><mask id="b"><ellipse cx="37.364" cy="54.688" rx=".942" ry=".938"/></mask><path d="M37.306 54.688l.058-.063v2c1.068 0 1.942-.863 1.942-1.938h-2zm.058-.063l.058.063h-2c0 1.075.874 1.938 1.942 1.938v-2zm.058.063l-.058.063v-2c-1.068 0-1.942.863-1.942 1.938h2zm-.058.063l-.058-.063h2c0-1.075-.874-1.938-1.942-1.938v2z" fill="#F5CF84" mask="url(#b)"/><path d="M16.453 25c0 .412-.336.75-.756.75s-.756-.338-.756-.75.336-.75.756-.75.756.338.756.75zM45.341 48.438c0 .93-.758 1.688-1.698 1.688s-1.698-.758-1.698-1.688c0-.93.758-1.688 1.698-1.688s1.698.758 1.698 1.688zM40.944 41.563c0 .585-.477 1.063-1.07 1.063-.593 0-1.07-.478-1.07-1.063s.477-1.063 1.07-1.063c.593 0 1.07.478 1.07 1.063z" stroke="#F5CF84"/><path d="M10.359 11.563h36.735M16.014 12.813l-3.768 6.875" stroke="#C8E0F1" stroke-linecap="round"/><path d="M12.916 37.037l5.373.005 2.691 4.636-2.682 4.631-5.373-.005-2.691-4.636 2.682-4.631zM12.869 47.653l5.373.005 2.691 4.637-2.682 4.631-5.373-.006-2.691-4.636 2.682-4.631zM3.654 31.77l5.373.005 2.691 4.636-2.682 4.631-5.373-.005-2.691-4.636 2.682-4.631zM9.03 31.775l-5.37-.005 5.38 9.269 2.68-4.629-2.69-4.635zM12.919 56.897l5.37.005-5.38-9.269-2.68 4.629 2.69 4.635zM12.966 46.281l5.37.005-5.38-9.269-2.68 4.629 2.69 4.635zM22.178 42.303l5.373.005 2.691 4.636-2.682 4.631-5.373-.006-2.691-4.636 2.682-4.631z" fill="#F5CF84"/><path d="M10.227 52.259l2.691 4.637 5.236.005 2.682-4.631-2.691-4.64" stroke="#C8802A" stroke-linecap="round"/><path d="M3.607 42.386l5.373.005 2.691 4.637-2.682 4.631-5.373-.005-2.691-4.636 2.682-4.631z" fill="#F5CF84" stroke="#C8802A" stroke-linejoin="round"/><path d="M12.914 37.041l-2.64 4.606 2.69 4.635M9.032 41.043l-5.329-.029-2.69-4.635 2.639-4.605M27.754 51.903l2.64-4.606-2.69-4.635" stroke="#C8802A" stroke-linecap="round" stroke-linejoin="round"/></g><defs><clipPath id="a"><path fill="#fff" d="M0 0h60v60h-60z"/></clipPath></defs></svg>