<svg width="244" height="181" viewBox="0 0 244 181" xmlns="http://www.w3.org/2000/svg" fill="none"><path d="M226.387 119.73c-8.709 34.839-67.248 45.006-122.471 33.999-30.425-7.606-50.919-38.57-56.529-45.149-9.261-10.859-31.254-13.333-31.508-39.37-.254-26.036 90.698-50.969 137.341-39.107 46.643 11.862 91.552 36.769 73.167 89.627z" fill="url(#a)"/><g clip-path="url(#b)"><path opacity=".5" d="M127.949 167.1c-47.098 0-85.278-2.09-85.278-4.667 0-2.578 38.18-4.667 85.278-4.667 47.097 0 85.278 2.089 85.278 4.667 0 2.577-38.181 4.667-85.278 4.667z" fill="#B0BBA7"/><path d="M74.198 60.883c-.168-1.237-.728-2.418-1.4-3.43-1.176-1.687-3.024-3.093-5.207-2.643-.952.169-2.016.731-2.352 1.743 0 .056.224 0 .28-.056.448-.787 1.12-1.349 2.016-1.574.952-.225 1.904 0 2.688.506.84.562 1.512 1.293 2.016 2.193.56.956 1.008 2.024 1.176 3.093.168 1.181 0 2.474-.784 3.43-.112.112.056.112.168.112.112 0 .392-.056.504-.169.728-.843 1.064-2.08.896-3.205z" fill="#863C26"/><path d="M63.783 144.381c-.056 0-.168 0-.224.057-1.288.843-2.632 1.574-4.087 2.136-1.4.506-2.912.9-4.367 1.012-.84.113-1.68.113-2.576.113 1.512-.562 3.024-1.012 4.423-1.743 1.344-.731 2.52-1.687 3.416-2.868 1.792-2.249 2.632-5.229 2.24-8.097-.112-.843-.448-1.63-1.064-2.249l-.672-.506c-.168-.112-.28-.225-.448-.393-.224-.225-.448-.45-.616-.731-.056-.113-.336-.057-.56 0-1.344-.675-2.856-1.125-4.143-1.518-3.64-1.069-7.447-2.531-9.855-5.679-1.064-1.406-1.848-3.149-1.904-5.005-.056-1.63.448-3.261 1.176-4.723 1.512-2.924 3.864-5.398 5.095-8.434 1.288-3.261.896-7.085-1.12-10.008-.224-.337-.504-.675-.784-1.012-.056-.056-.448.056-.392.112 2.352 2.699 3.248 6.635 2.184 10.065-1.008 3.205-3.36 5.679-5.039 8.49-.784 1.349-1.4 2.811-1.568 4.386-.168 1.799.28 3.598 1.176 5.116 1.96 3.374 5.487 5.173 9.071 6.354 1.568.506 3.192.9 4.703 1.575.448.168.896.393 1.344.674.336.45.784.787 1.232 1.181.28.225.504.45.728.675.224.281.392.674.504 1.068.392 1.35.448 2.868.168 4.217-.504 2.812-2.072 5.342-4.479 6.86-1.568.956-3.304 1.631-5.039 2.193l-.056.056c3.192.281 6.495-.45 9.295-1.912.784-.393 1.568-.843 2.24-1.405.112-.057.056-.057 0-.057z" fill="#4A0419"/><path d="M84.165 71.061c.336-2.137 0-4.33-1.288-6.185-1.12-1.574-2.8-2.699-4.759-2.755-2.016-.056-4.256.787-5.319 2.643-.056.056.168.056.168.056.112 0 .224-.056.28-.112.952-1.518 2.688-2.362 4.424-2.305 1.96.056 3.695 1.125 4.759 2.699 1.232 1.743 1.568 3.88 1.232 5.96-.392 2.362-1.456 4.554-2.072 6.86-.616 2.305-.84 4.892.448 6.972.056.112.504-.056.448-.112-1.232-2.024-1.008-4.498-.448-6.635.672-2.362 1.736-4.611 2.128-7.085zM65.24 56.104c-.952-1.293-2.408-2.193-3.919-2.587-1.624-.45-3.36-.394-4.983.112-1.68.506-3.304 1.349-4.591 2.53-.672.562-1.232 1.237-1.568 2.08-.336.787-.56 1.631-.672 2.418-.112.9-.056 1.799-.112 2.643-.056 1.012-.168 2.024-.28 3.036-.28 1.912-.504 3.88-1.344 5.567-1.288 2.53-3.864 4.105-5.767 6.129-.896 1.012-1.68 2.193-2.016 3.542-.336 1.518-.056 3.261.84 4.554.224.337.448.619.728.9.056.056.336-.056.28-.112-1.064-1.181-1.68-2.699-1.624-4.33.056-1.406.616-2.755 1.512-3.824l5.879-5.791c1.064-1.35 1.568-2.924 1.848-4.611.168-.956.224-1.912.28-2.811.056-.956.056-1.855.056-2.811 0-.843.056-1.687.168-2.586.112-.843.336-1.687.728-2.474.84-1.518 2.408-2.587 3.975-3.374 1.624-.787 3.416-1.181 5.207-.956 1.568.225 3.024.9 4.143 1.968.28.281.504.562.728.843.056.225.56.056.504-.056z" fill="#863C26"/><path d="M88.533 105.922c-.392 2.924-.784 8.659-2.8 10.795-2.408 2.587-8.175 2.924-9.911 6.017-2.184 3.992-1.736 7.366-2.184 11.864-.392 4.161-3.248 7.815-6.887 9.896-1.624.9-3.359 1.518-5.151 1.912-2.24.506-4.592.618-6.887.506 3.416-.506 6.383-3.093 7.335-6.41.952-3.318-.168-7.085-2.8-9.334-2.352-2.024-5.599-2.643-8.511-3.767-1.288-.506-2.576-1.181-3.64-2.025-1.4-1.124-2.408-2.586-2.576-4.329-.392-3.767 3.08-6.635 5.039-9.84 2.464-4.048 2.52-9.502.056-13.607-1.736-2.868-4.535-4.442-6.383-7.253-1.848-2.811-2.52-7.591-.112-9.896 7.559-7.085 9.575-11.189 11.815-15.463.392-.731.84-1.518 1.456-2.137l.504-.45c1.176-.843 2.688-1.012 4.087-.843.952.112 1.848.394 2.688.787 3.192 1.462 5.767 4.498 7.951 7.422 8.063 10.683 18.702 22.941 16.91 36.155z" fill="#4A0419"/><path opacity=".329" d="M88.533 105.922c-.392 2.923-.784 8.659-2.8 10.795-2.408 2.587-8.175 2.924-9.911 6.017-2.184 3.992-1.736 7.366-2.184 11.864-.392 4.161-3.248 7.815-6.887 9.896-1.624.899-3.36 1.518-5.151 1.912 4.311-3.318 6.831-9.053 6.047-14.507-.392-2.868-1.624-5.623-1.568-8.491.056-3.092 1.512-6.016 2.296-8.996 1.736-6.579 0-13.888-4.479-19.005 1.792 2.362 2.352 5.567 1.848 8.49-.504 2.924-2.072 5.623-4.087 7.816-1.624 1.687-3.528 3.149-5.767 3.88 3.248-1.968 5.823-5.286 6.607-9.053.728-3.767-.504-7.984-3.528-10.402-1.064-.843-2.408-1.574-2.856-2.868-.504-1.349.056-2.811.56-4.161-2.24.9-3.584 3.542-3.136 5.904.28 1.35 1.064 2.53 1.624 3.767 1.624 3.767 1.12 8.378-1.344 11.639-1.512 2.024-3.696 3.486-5.431 5.341-1.736 1.856-3.192 4.386-2.632 6.86.224 1.012.728 1.856 1.4 2.643-1.4-1.125-2.408-2.586-2.576-4.33-.392-3.767 3.08-6.634 5.039-9.839 2.464-4.049 2.52-9.503.056-13.608-1.736-2.868-4.535-4.442-6.383-7.253-1.848-2.811-2.52-7.591-.112-9.896 7.559-7.085 9.575-11.189 11.815-15.463.392-.731.84-1.518 1.456-2.137.728-.225 1.456-.394 2.184-.562 1.736-.281 3.416-.225 5.095.056 3.192 1.462 5.767 4.498 7.951 7.422 8.007 10.796 18.646 23.053 16.854 36.267z"/><path d="M88.756 110.195c-.28 2.193-.84 4.386-1.792 6.41-.448.956-1.008 1.799-1.792 2.53-.784.731-1.624 1.35-2.464 1.912l-3.08 2.137c-.168.112.224.056.28 0 1.064-.619 2.128-1.237 3.136-1.912.896-.619 1.848-1.237 2.688-1.968.784-.731 1.456-1.518 1.904-2.474.504-.956.84-2.024 1.176-3.093.392-1.237.616-2.53.784-3.767 0-.112-.84-.056-.84.225z" fill="#4A0419"/><path d="M84.502 86.523c-.952 2.249-2.016 4.048-3.024 6.297-2.296-.45-5.151-1.968-7.615-3.823-2.24-1.743-4.2-3.767-5.039-5.679-.504.337 2.632-2.53 4.479-4.779l.336.394c4.311 5.061 5.879 5.51 10.863 7.591z" fill="#FFCBA8"/><path opacity=".588" d="M73.862 88.997c-2.24-1.743-4.2-3.767-5.039-5.679-.504.337 2.632-2.53 4.479-4.779l.336.394c.784 3.317.896 6.747.224 10.065z" fill="#FF976B"/><path d="M75.317 77.92c-1.176 4.892-4.031 9.559-8.455 11.977-.896.506-1.96.9-2.968.675-.728-.169-1.344-.731-1.904-1.237-2.128-1.912-4.423-4.048-4.815-6.916-.112-1.012.168-2.08.392-3.149.112-.618.224-1.181.168-1.799-.224-2.137-1.904-3.88-2.408-5.96-.28-1.237-.336-2.53-.168-3.767.28-1.912 1.008-3.711 2.24-5.173 0-.618 1.288-.675 2.24-.618 2.296.225 4.591.562 6.831 1.068 2.296.506 4.647 1.181 6.383 2.755 3.192 2.98 3.472 7.984 2.464 12.145zM128.12 110.42c-.056.562-.168 1.181-.28 1.743l-2.296.45-7.727 1.518c-2.408.45-4.815.956-7.223.843h-.168c-3.583-.225-6.999-1.686-10.303-3.148l-2.463-1.069-6.159-2.699c-4.983-2.193-10.415-4.779-12.766-9.671-.672-1.462-1.12-3.093-2.24-4.217-.672-.675-1.624-1.125-2.072-1.968-.672-1.237-.056-2.811 1.008-3.655 1.064-.843 2.52-1.125 3.863-1.293 4.423-.506 9.015.113 13.158 1.743 2.016.787 3.976 1.855 5.991 2.755 2.743 1.293 5.6 2.362 8.511 3.205l1.623.45c3.36.9 6.831 1.462 10.359 1.687.896.056 1.736.112 2.632.112h2.127c.56 0 1.12 0 1.568.337.28.225.448.562.616.9 1.848 3.599 2.688 7.76 2.24 11.977z" fill="#FFCBA8"/><path opacity=".569" d="M83.326 88.491c1.792 1.743 3.416 4.105 4.927 6.185 1.456 2.08 3.695 7.872 3.471 8.322-.28.506-.224 1.518-.728 1.799-1.848 1.237-5.543 1.293-7.727.9-.952-.169-1.848-.675-2.688-1.181l.448-.619 2.296-15.406z" fill="#E86848"/><path opacity=".51" d="M125.992 109.295c-.056 1.125-.224 2.249-.448 3.318l-7.727 1.518c-2.408.45-4.816.956-7.224.843-3.639-.168-7.111-1.687-10.414-3.148l-2.464-1.069c.84-2.642 2.072-5.173 3.304-7.703 1.679-3.374 3.303-6.803 5.991-8.097l1.624.45c.504 5.173-1.232 10.346-2.072 15.519-.056.337.728 1.181 1.12 1.293 2.016.562 5.711.169 7.727-2.249 1.904-2.362 7.447-5.398 11.87-7.253 1.792 3.317-1.063 2.755-1.287 6.578z" fill="#FF976B"/><path d="M108.971 94.901c-.672 5.285-2.128 10.458-4.2 15.35l-.168.394c-.28.618-.56 1.743-1.064 2.249-.616.562-2.239.112-3.471-.056-.336-.057-.616-.057-.84 0-4.815.674-4.2 1.743-6.999 1.518-2.8-.169-5.655-1.181-7.615-3.205-1.12-1.181-1.904-2.699-2.632-4.161l-2.52-5.061-3.696-7.309c1.12 2.08 3.192 4.498 5.711 6.129 2.856 1.911 6.215 2.867 9.295 1.405l.448-.225c3.415-1.911 4.2-5.735 2.464-9.109-.336-.675-2.744-3.317-6.047-4.835-.896-.394-1.792-.731-2.8-.9-1.064-.225-3.415 0-5.935.787-2.072.675-4.255 1.743-5.991 3.317 4.479-5.791 11.926-5.454 11.926-5.454l2.8 1.855s5.039.225 10.415 2.868c2.408 1.181 4.032 2.08 6.495 3.036 1.288.394 2.632.9 4.424 1.406z" fill="#E05651"/><path d="M108.971 94.901c-.672 5.285-2.128 10.458-4.2 15.35l-.168.394c-.28.618-.56 1.743-1.064 2.249-.616.562-2.239.112-3.471-.056 2.52-6.129 4.031-12.708 4.535-19.343 1.232.394 2.576.9 4.368 1.406z" fill="url(#c)"/><path d="M161.715 90.403c-.336 5.061-1.232 9.952-2.576 14.731-1.68 6.129-4.087 11.921-6.943 17.487l-.56 1.069c-4.983 9.446-11.143 18.217-17.75 26.595-.336.394-.672.844-1.12 1.012-.504.169-1.119-.056-1.231-.562-.056-.281.056-.562.223-.843 2.576-5.173 5.208-10.346 7.784-15.463l6.551-12.989 5.767-11.47c.56-1.124 1.12-2.249 1.736-3.374 2.688-5.454 5.375-10.852 8.119-16.193z" fill="#D67906"/><path opacity=".31" d="M104.77 110.195l-.168.393c-.28.619-.56 1.744-1.064 2.25-.728.731-3.192-.225-4.256-.057-4.815.675-4.2 1.743-6.999 1.518-2.8-.168-5.655-1.18-7.615-3.205-1.12-1.18-1.904-2.698-2.632-4.16l-2.52-5.061.672-.618 1.344-.563c2.856 1.912 6.215 2.868 9.295 1.406.616 1.518 1.008 3.093 1.12 4.723.056 1.012.056 2.024.336 2.98s.896 1.912 1.848 2.193c2.016.619 4.032-1.855 6.103-1.237.672.169 1.176.675 1.848.787 1.064.225 1.96-.506 2.688-1.349z" fill="#4A0419"/><path d="M194.248 156.92c-.952-.618-1.96-1.237-3.08-1.855-3.639-2.025-8.007-3.824-12.262-3.655.728-1.35.616-3.093-.224-4.33l-.28-.393c1.568-.394 2.744-.844 3.64-2.081.224-.337.503-.731.671-1.18.392-.788.728-1.8 1.064-3.093 6.664 4.33 10.023 10.121 10.471 16.587z" fill="#FFCBA8"/><path opacity=".502" d="M182.713 143.538c1.68-.056 3.36.393 4.759 1.293 2.128 1.35 3.528 3.655 3.976 6.129.224 1.349.112 2.811-.224 4.161-3.64-2.024-8.007-3.824-12.263-3.655.728-1.349.616-3.093-.224-4.33l.112-.168c.84.393 1.568.956 2.128 1.687.168.225.28.393.504.562.672.562 1.68.112 2.576 0 .672-.056 1.4.169 1.904.562.56-.843.392-2.08-.224-2.924-.616-.843-1.512-1.405-2.464-1.799l-1.12-.45.56-1.068z" fill="#FF976B"/><path d="M184.953 144.213c1.12 1.574 2.296 3.205 2.464 5.173.112 1.18-.168 2.361-.448 3.542.84.169 1.68.337 2.519.281.84-.056 1.736-.394 2.24-1.012.392-.506.56-1.125.672-1.743.056-.506.056-1.068-.112-1.574-.392-1.181-1.568-1.856-2.688-2.306-1.175-.45-2.407-.731-4.647-2.361z" fill="#fff"/><path d="M200.687 158.944c0 .788-.056 3.037-.783 3.43-.784.45-1.792-.056-2.464-.618-.672-.619-1.176-2.643-1.68-3.374-2.128-2.811-11.591-4.217-11.982-4.948-.392-.675-.504-2.361.111-2.811.56-.394 1.512-.281 1.904-.169 1.792.506 2.352.675 3.808.45.392-.056.84-.169 1.008-.675.112-.337.056-.731-.168-1.012-.336-.506-.672-.618-1.176-1.181-1.176-1.124-5.991-1.63-7.279-3.036-.504-.562.224-1.799.336-2.137.112-.225.168-.393.224-.562.28-.731.56-1.349.896-2.024.28-.562.615-1.125 1.063-1.912 2.408-1.293 3.752-.056 5.488 2.081 1.736 2.136 2.575 4.779 4.031 7.084 1.232 1.912 2.856 3.486 4.256 5.286 1.344 1.743 2.463 3.879 2.407 6.128z" fill="#7B4A56"/><path opacity=".29" d="M200.687 158.944c0 .788-.112 3.205-.839 3.43-1.064.338-2.408-.449-2.8-1.349-.392-.956-.728-1.968-1.232-2.699-2.128-2.811-11.591-4.217-11.983-4.948-.391-.675-.503-2.362.112-2.811.56-.394 1.512-.282 1.904-.169 1.792.506 2.352.675 3.808.45.392-.057.84-.169 1.008-.675.112-.337.056-.731-.168-1.012-.336-.506-.672-.619-1.176-1.181-1.176-1.124-5.991-1.631-7.279-3.036-.504-.562.224-1.8.336-2.137.112-.225.168-.393.224-.562.56.675 1.12 1.406 1.735 1.799.28.225.616.337.952.45 1.68.675 3.248 1.631 4.648 2.755.56.45 1.12.956 1.456 1.631.336.674.448 1.518.671 2.249.392 1.293 1.288 2.474 2.408 3.205.224.168 2.184 1.012 2.24.899.336-2.024-2.184-3.373-3.08-5.173-.448-.955-1.624-3.486-2.127-4.385-.952-1.743-2.576-2.193-4.368-3.149-1.288-.675-2.352-1.574-3.583-2.249.279-.562.615-1.125 1.063-1.912 2.408-1.293 3.752-.056 5.488 2.081 1.736 2.136 2.575 4.779 4.031 7.084 1.232 1.912 2.856 3.486 4.256 5.286 1.232 1.743 2.351 3.879 2.295 6.128z"/><path opacity=".4" d="M128.119 110.42c-.056.562-.168 1.181-.28 1.743l-2.296.45-7.727 1.518c-2.407.45-4.815.956-7.223.843h-.168c.952-.112 1.848-.281 2.744-.618 1.12-.394 2.184-1.012 3.248-1.575 2.071-1.068 4.311-1.855 6.551-2.474 1.68-.393 3.639-.618 5.151.113z" fill="#F26033"/><path d="M87.693 87.929c-.896-.394-1.792-.731-2.8-.9-1.064-.225-3.416 0-5.935.787-.336.056-.728.112-1.12.169 2.128-.956 4.255-1.912 6.383-2.249 1.288.506 2.464 1.237 3.472 2.193z" fill="#4A0419"/><path d="M180.697 151.86c-7.727 1.462-15.398 3.317-23.125 5.116-4.088.956-8.175 1.968-12.375 2.137-1.008.056-2.016.056-3.024 0-2.015-.112-4.031-.394-5.935-1.012-.672-.225-1.288-.45-1.904-.731-.504-.225-.783-.731-.671-1.237.056-.225.111-.45.279-.619l.28-.281c1.568-1.687 3.528-2.53 5.096-3.598.504-.394 1.008-.787 1.4-1.237 1.287-1.518 1.623-3.655 2.855-5.229.112-.169.28-.338.448-.507 1.344-1.349 3.304-2.08 5.264-2.192 2.071-.113 4.143.281 6.215.731l.224.056c7.671 1.743 15.398 3.711 23.293 3.317.84.731 1.4 1.743 1.624 2.812.112.843.168 1.686.056 2.474z" fill="#7B4A56"/><path opacity=".302" d="M155.443 143.257c-5.487 1.63-9.127 7.928-14.894 8.49-.448.056-.896.056-1.288-.112.504-.394 1.008-.787 1.4-1.237 1.288-1.518 1.624-3.655 2.856-5.229.112-.169.28-.338.448-.506 1.344-1.35 3.303-2.081 5.263-2.193 2.072-.113 4.144.337 6.215.787z" fill="#4A0419"/><path opacity=".749" d="M69.215 74.153c-6.663-1.293-10.471 2.643-11.646 5.173.112-.618.224-1.181.168-1.799-.224-2.137-1.904-3.88-2.408-5.96-.28-1.237-.336-2.53-.168-3.767 1.736-1.293 3.975-1.912 6.103-1.631 2.8.281 5.431 2.081 6.775 4.554.56 1.012.84 2.249 1.176 3.43z" fill="#FF976B"/><path opacity=".361" d="M159.141 105.078c-1.68 6.129-4.088 11.921-6.944 17.487l-.559 1.068c-2.352 3.543-4.984 6.973-7.616 10.346-.783 1.012-1.903 2.137-3.191 1.8-.672-.169-1.064-.731-1.344-1.406l6.551-12.989.112 1.968c1.344.281 2.408-1.068 3.08-2.305 1.96-3.711 3.751-7.535 5.207-11.471-.84.225-1.736.338-2.631.338.559-1.125 1.119-2.249 1.735-3.374 1.064-.899 2.24-1.799 3.416-2.586.336-.225.728-.45 1.12-.45.728.056 1.008.787 1.064 1.574z" fill="#4A0419"/><path d="M88.197 94.114c-.84 3.261-3.248 6.466-3.36 9.165-.112 4.554-.28 9.165-1.456 13.495-.336 1.18-.728 2.417-1.12 3.598-.56 1.631-1.008 3.318-1.176 5.061-.112 1.349 0 2.755 0 4.104 0 1.856-.168 3.711-.336 5.511l-2.128 21.591c-1.4.787-2.464.731-3.864 1.125.336-1.125.392-2.137.336-3.149-.056-1.181-.336-2.305-.672-3.486-1.68-6.466-2.8-11.414-2.856-18.106 0-3.429 1.288-7.759 1.232-11.189 0-4.948 0-12.988.616-17.936-1.288-2.587-1.848-9.165-1.176-10.909.672-1.743.672-2.53 3.136-3.992 1.848-1.125 6.775-3.149 8.791-2.305.56.225 1.12.506 1.568.787 1.232.731 2.016 1.574 2.296 2.305.616 1.462.56 2.924.168 4.33z" fill="#FFCBA8"/><path d="M145.029 121.441c1.232 7.365.952 15.012-.84 22.322l-.224.956c-.952 3.542-2.184 6.972-3.808 10.233-.336.675-.672 1.35-1.176 1.912-.224.281-.504.506-.783.731-.168.112-.392.225-.616.337-.448.169-.896.225-1.344.225-1.176-.056-2.408-.787-3.136-1.743l-.336-.45c-.672-1.124-.84-2.474-1.288-3.711l-.168-.506c-3.527-8.659-4.255-16.531-4.871-24.178-.28-3.711-.56-7.309-1.064-10.908-.28-2.024-.672-4.048-1.176-6.072.336-1.35.728-2.756 1.176-4.049 1.288-.731 2.688-1.293 4.088-1.799 5.039-1.743 10.582-2.924 15.678-1.574 2.071 3.036 2.463 7.253.392 10.289-.504.731-1.176 1.406-1.344 2.249-.168.788 0 1.575.168 2.362.28 1.124.504 2.249.672 3.374z" fill="#7B4A56"/><path opacity=".502" d="M145.029 121.441c1.232 7.366.952 15.013-.84 22.323-.224.281-.392.562-.616.899.392-3.823.728-7.759-.28-11.414-1.008-3.711-3.696-7.197-7.447-8.097-3.304-.787-6.495.563-9.407 2.474-.28-3.711-.56-7.309-1.064-10.908-.28-2.024-.672-4.048-1.176-6.073.336-1.349.728-2.755 1.176-4.048 1.288-.731 2.688-1.293 4.088-1.799 5.039-1.743 10.582-2.924 15.678-1.575 2.071 3.037 2.463 7.254.392 10.29-.504.731-1.176 1.406-1.344 2.249-.168.787 0 1.575.168 2.362.28 1.068.504 2.193.672 3.317z" fill="#4A0419"/><path opacity=".8" d="M144.189 115.874c-.168.787 0 1.631.168 2.418.28 1.124.504 2.249.672 3.43-2.184-2.193-4.984-3.711-8.063-4.217-3.808-.619-7.951.225-11.591-.619-.28-2.08-.672-4.104-1.176-6.185.336-1.406.728-2.755 1.176-4.105 1.288-.787 2.688-1.349 4.088-1.799 5.039-1.799 10.582-2.924 15.678-1.574 2.071 3.036 2.463 7.366.392 10.402-.504.675-1.12 1.349-1.344 2.249z" fill="#4A0419"/><path d="M78.846 159.563c.056 1.687-1.288 1.968-2.968 2.193-1.624.168-3.304-.169-4.927-.45-4.088-.675-9.351.9-11.255-.225-.56-.337-.784-.675-.84-.956-.112-.337.056-.618.056-.618s5.095-.731 7.279-1.687c1.736-.056 5.935.899 7.951.168.504-.168 1.064-.562 1.064-2.08.84-.337 2.296-.9 3.528-.225.056.506.112 1.012.112 1.462 0 .843-.056 1.631 0 2.418z" fill="#FFCBA8"/><path d="M75.822 80.451c-1.4-.9-4.591-3.824-6.103-5.623-.224-.225-.392-.45-.504-.675-.56-.9-.896-1.462-1.4-1.968-.336-.394-.784-.731-1.4-1.124-1.232-.787-4.312-1.125-6.887.337-1.008.562-1.904 1.349-2.632 2.53-.336-.056-.616-.112-.896-.225-.336-3.317-.56-4.948-.504-6.635.056-1.912.448-3.88 1.624-5.342 1.12-1.406 3.024-2.249 4.703-1.799h.056c.112 0 .168.056.28.113l.616.281c.784.506 1.456 1.237 2.072 2.024 1.008 1.293 2.24 2.98 3.528 4.779 2.912 4.386 6.103 9.615 7.447 13.326z" fill="#4A0419"/><path d="M162.051 58.409c-1.456.562-3.192 1.968-4.424 2.98-1.232-2.361-2.351-3.711-3.807-4.611-.728-.45-1.512-.843-2.464-1.181-.224-.056 0-.731-.112-.956-.112-.169-.112-.394-.056-.562.168-2.193.448-4.386.784-6.635.448-3.093 1.064-6.241 1.736-9.446.392 2.868 1.064 5.623 1.96 8.266 1.175 3.261 2.687 6.354 4.535 9.334.616 1.012 1.232 1.912 1.848 2.811z" fill="#FFCBA8"/><path opacity=".6" d="M160.26 55.654c-.056 1.012-.224 2.024-.448 2.98-.728-2.137-1.736-4.161-2.968-6.016-.336-.45-.672-.956-1.12-1.237-.504-.281-1.176-.337-1.567.056-.672.618-.336 1.743-.168 2.643.168.9.056 1.799-.168 2.755-.728-.45-1.512-.843-2.464-1.181-.224-.056 0-.731-.112-.956-.112-.169-.112-.394-.056-.562.168-2.193.448-4.386.784-6.635.168-.169.336-.337.56-.506.56-.45 1.176-.787 1.903-.843.448-.056.896 0 1.288.169 1.12 3.261 2.688 6.354 4.536 9.334z" fill="#FF976B"/><path d="M199.791 162.487c1.344-1.35.784-3.374.056-5.173-.784-1.8-2.24-4.723-3.584-6.129-1.399-1.406-2.799-2.812-3.751-4.555l-1.064-2.08c-1.96-2.924-7.671-4.892-7.671-4.892s.112-.225.336-.618c.56-1.069 1.68-3.149 2.072-3.093.392.056.783.169 1.175.281 3.248.956 5.936 3.655 6.72 6.973.224.899.28 1.855.728 2.642.335.563.783 1.012 1.231 1.518 2.072 2.249 3.64 4.892 5.208 7.535.504.843 1.008 1.687 1.12 2.643.168 1.743-.84 4.554-2.576 4.948z" fill="url(#d)"/><path opacity=".612" d="M122.072 101.873c-.84-1.743-1.904-3.317-3.136-4.779.896.056 1.736.113 2.632.113.504 1.518.672 3.093.504 4.666z" fill="#F26033"/><path d="M151.749 105.697c-.168.281-.336.506-.504.731-1.288 1.687-3.08 2.867-4.927 3.936l-.056.056c-6.16 3.599-13.047 2.755-20.158 2.98-.728 0-1.512.056-2.24.112-.336 0-.671-.224-.671-.618l-.112-2.024c-.168-3.936-.168-7.647-1.96-11.864-.224-.562-.504-1.124-.84-1.743-.056-.056-.056-.112-.056-.169-.056-.281.224-.562.504-.506.28 0 .504.056.784 0 .448 0 .896-.056 1.288-.169.336-.056.615-.169.839-.337 2.296-1.35 3.36-2.474 4.256-3.374l.504-.506c.896-.843 1.904-1.462 4.199-1.912 1.008-.169 2.632.281 4.48.956 3.471 1.293 7.559 3.486 9.463 3.823l.224.056c2.799.562 5.487 2.474 6.103 5.229.392 1.856-.112 3.767-1.12 5.342z" fill="#7B4A56"/><path opacity=".471" d="M69.775 74.828c-.224-.225-.392-.45-.504-.675-.56-.9-.896-1.462-1.4-1.968-.56-1.012-1.232-2.024-1.904-2.98-.56-.787-1.12-1.631-1.904-2.193-.784-.562-1.792-.787-2.632-.394-1.12.562-1.624 2.024-1.736 3.374l-.112 1.406c-1.008.562-1.904 1.349-2.632 2.53-.336-.056-.616-.112-.896-.225-.336-3.317-.56-4.948-.504-6.635.056-1.912.448-3.88 1.624-5.342 1.12-1.406 3.024-2.249 4.703-1.799h.056c.28.113.56.225.84.394.784.45 1.512 1.012 2.128 1.687 1.456 1.462 2.576 3.205 3.416 5.117 1.008 2.474 1.512 5.117 1.456 7.703z"/><path opacity=".451" d="M180.698 151.86c-7.727 1.462-15.399 3.317-23.126 5.116-4.087.956-8.175 1.968-12.374 2.137-1.008.056-2.016.056-3.024 0-2.015-.112-4.031-.394-5.935-1.012-1.176-.056-2.408-.787-3.136-1.743l-.336-.45.84.225c.784.169 1.624.337 2.464.45.952.112 1.904.225 2.912.225 5.991.225 12.318-1.237 18.141-2.924 7.672-2.249 15.679-4.836 23.462-4.442.168.787.224 1.63.112 2.418z" fill="#4A0419"/><path d="M182.657 94.957c-1.344 1.856-3.359 3.43-5.599 4.723-2.408 1.462-5.04 2.643-7.279 3.599-3.64 1.631-13.775 5.904-23.517 7.085-4.256.506-8.511.393-12.039-.788-.56-.168-1.12-.449-1.68-.731-3.863-2.08-6.831-6.41-6.775-10.739.056-1.743.616-3.486 1.848-5.06.056-.112.112-.169.224-.281.168-.225.392-.45.616-.675 1.064-1.012 2.463-1.687 4.087-2.249 2.912-1.012 6.103-.675 8.679.506 1.736.787 3.248 2.024 4.2 3.486 5.599-2.305 11.534-3.655 17.525-3.992.896-.056 1.792-.056 2.688-.056 4.088 0 8.175.45 12.207 1.462.896.225 2.239-1.743 3.527-1.574.392.056.728.281 1.064.731.168.225.336.562.56.9l.112.225c.224.618.28 2.418-.448 3.43z" fill="#7B4A56"/><path d="M150.964 54.754c.784-1.124.952-2.643 1.904-3.542.168-.169.392-.337.616-.506.952-.675 1.96-1.181 3.024-1.631-.448-1.068-.952-2.193-1.792-3.036-.84-.843-2.072-1.349-3.192-.956-1.175.394-1.847 1.574-2.127 2.755-.448 2.137.056 4.498 1.567 6.916z" fill="#fff"/><path d="M182.769 94.114c-.28-.225-.504-.45-.784-.618-.336-.225-.728-.45-1.12-.618-4.311-1.912-11.086-1.012-15.23-3.149-.56-.281-1.064-.618-1.568-1.068-3.303-3.036-3.191-8.153-3.415-12.651-.168-3.936-.784-7.253-2.128-10.796-.952-2.418-1.792-3.711-3.752-7.535 1.176-1.631 2.856-2.924 4.76-3.711 1.288 1.855 6.775 12.089 7.727 13.495l10.023 14.169c1.344 1.856 2.127 4.048 3.415 5.904.168.281.392.562.56.787.448.675.84 1.349 1.176 1.912.224.45.336.843.448 1.237.224.956.224 1.743-.112 2.643zM160.428 50.481c-.28.956-2.128 1.518-3.024 1.125-.896-.394-1.512-1.293-2.016-2.137-.504-.843-1.176-1.856-1.959-2.474-.224-.169-1.344.45-1.344 2.137 0 1.631.336 2.924.896 4.442.56 1.518 1.735 2.868.28 3.598-.84.45-2.128.225-4.424 0-1.008-.112-3.023-.506-3.023-.506s-.224-2.418-.112-3.205c.112-1.518.279-3.036 1.119-4.273.336-.506.728-.9 1.008-1.406.56-1.012.504-2.249.448-3.43-.056-4.948 1.176-9.952 3.472-14.338.504-1.012 1.344-1.968 2.407-2.024.952-.056 1.512.45 1.848 1.293.056.113.112.225.112.337.336 1.012-.112 2.137-.224 3.149-.392 3.149-.56 5.623-.168 8.715.336 2.53 1.624 4.836 3.304 7.253.504.562.952 1.124 1.4 1.743z" fill="#7B4A56"/><path opacity=".29" d="M160.428 50.481c-.28.956-2.128 1.518-3.024 1.125-.896-.394-1.512-1.293-2.016-2.137-.504-.843-1.176-1.856-1.959-2.474-.224-.169-1.344.45-1.344 2.137 0 1.631.336 2.924.896 4.442.56 1.518 1.735 2.868.28 3.598-.84.45-2.128.225-4.424 0-1.008-.112-3.023-.506-3.023-.506s-.224-2.418-.112-3.205c.112-1.518.279-3.036 1.119-4.273.336-.506.728-.9 1.008-1.406.56-1.012.504-2.249.448-3.43-.056-4.948 1.176-9.952 3.472-14.338.504-1.012 1.344-1.968 2.407-2.024.952-.056 1.512.45 1.848 1.293-1.624.506-3.135 1.799-3.975 3.374-1.232 2.305-1.456 4.948-1.568 7.591-.112 2.587-.168 5.285-1.176 7.647-.28.618-.56 1.237-.616 1.912-.056.675.336 1.462 1.008 1.574.784.169 1.456-.562 1.624-1.349.168-.787.056-1.574.112-2.361.056-.787.448-1.631 1.232-1.855.504-.113 1.008.112 1.456.337.895.506 1.679 1.237 2.239 2.08.28.45.616.956 1.12 1.125.56.112 1.008-.225 1.512-.618.56.562 1.008 1.124 1.456 1.743z"/><path d="M154.324 27.934c-2.184 1.068-3.247 3.599-3.807 5.96-.112.506-.224.956-.28 1.462-.28 1.518-.448 3.093-.448 4.611-.056 2.193.168 4.442-.784 6.41-.392.843-1.008 1.631-1.456 2.474-1.344 2.474-1.064 5.173-.84 7.984-1.232 0-3.415-.45-3.583-.562-.112-.112-.56-5.285 1.791-10.908.168-.337 1.4-1.912 1.456-2.249.056-.394.168-1.518.168-1.912.504-4.948 1.344-8.434 4.032-11.864.392-.506 1.008-.9 1.623-1.181.728-.337 1.512-.45 2.128-.225z" fill="url(#e)"/><path d="M82.262 84.555c-3.528-1.855-5.991-.112-12.431-10.177-.168-.281-.336-.562-.504-.787-1.12-1.968-1.96-4.105-3.416-5.791-1.736-2.024-3.584-3.374-4.871-2.924-3.976 1.462-2.912 4.948-3.976 11.527-1.008 6.016-15.006 6.41-12.822 15.125-.224-.225-.392-.45-.56-.675l-.56-.675c-1.96-2.474-3.136-5.004-2.632-7.591 1.008-5.398 6.831-4.892 9.127-11.92 2.24-6.747.056-8.996 3.696-13.832.392-.562 4.423-4.161 8.679-2.755l.112.056c2.184.731 2.912 2.081 4.535 3.318.168-.169.336-.337.56-.506l.56-.337c.168-.056.336-.169.56-.169.336-.112.728-.112 1.064-.056.896.113 1.792.619 2.464 1.574 1.792 2.755 2.072 5.735 1.176 8.153.504-1.293 1.12-2.08 1.96-2.418.112-.056.224-.112.392-.112.56-.112 1.176-.112 1.96.112l.504.169c1.064.337 1.848.843 2.408 1.406 3.192 3.205.056 9.165-.112 11.189-.336 3.88 1.176 6.241 2.016 7.872l.056.112c0-.056.056 0 .056.112z" fill="#863C26"/><path opacity=".839" d="M70.895 72.747h-.056c.224-1.462.336-2.868.448-4.33.112-2.418-.056-4.892-.896-7.197-.56-1.687-1.456-3.317-2.632-4.667.168-.056.336-.169.56-.169.504.619 1.008 1.293 1.344 2.024 2.296 4.33 2.072 9.615 1.232 14.338z" fill="#D3B8AA"/><path opacity=".722" d="M69.775 71.848c0 .056-.168.056-.168.056-.056-.506-.168-1.012-.28-1.518-.392-1.968-1.064-3.936-1.904-5.791-.896-1.856-2.016-3.655-3.36-5.173-1.232-1.349-2.968-2.587-4.815-2.024-1.624.45-2.968 1.912-3.64 3.43-1.792 3.767-1.12 8.097-2.8 11.92-.336.843-.84 1.631-1.456 2.305-.672.731-1.456 1.237-2.296 1.687-.896.45-1.848.844-2.744 1.35-.84.506-1.512 1.181-2.072 1.968-1.12 1.574-1.624 3.542-1.624 5.454 0 1.799.392 3.599 1.064 5.285l-.56-.675c-.728-1.968-1.12-4.105-.84-6.185.28-1.856 1.12-3.655 2.464-4.948.728-.675 1.568-1.181 2.464-1.631.896-.45 1.904-.843 2.688-1.518 1.456-1.181 2.296-2.98 2.688-4.779.952-3.936.168-8.715 3.136-11.92 1.288-1.406 3.192-2.362 5.095-2.193 2.016.169 3.416 1.743 4.535 3.261 1.232 1.687 2.296 3.542 3.024 5.51.728 1.968 1.176 4.048 1.4 6.129z" fill="#D3B8AA"/><path opacity=".788" d="M82.205 84.33c-1.232-.506-2.24-1.574-2.856-2.755-1.736-3.261-.84-7.141-.392-10.571.224-1.687.504-3.599-.224-5.173-.56-1.237-1.848-2.53-3.304-2.361.56-.113 1.176-.113 1.96.112.84.45 1.512 1.181 1.848 2.137.616 1.687.392 3.542.112 5.285-.336 1.912-.784 3.823-.784 5.735-.056 1.743.224 3.542 1.064 5.061.616 1.068 1.512 1.968 2.576 2.474-.056 0-.056.056 0 .056z" fill="#D3B8AA"/><path opacity=".561" d="M82.262 84.555c-3.528-1.856-5.991-.112-12.431-10.177-.168-.281-.336-.562-.504-.787-.896-4.273-.616-8.884-2.24-12.989-1.008-2.587-2.8-4.836-5.039-6.466 2.184.731 2.912 2.08 4.535 3.317.168-.169.336-.337.56-.506.28.337.616.675.84 1.068 2.184 2.924 3.248 6.635 2.968 10.29 1.176-3.992.504-8.434-1.624-11.92.896.112 1.792.618 2.464 1.574 1.792 2.755 2.072 5.735 1.176 8.153.504-1.293 1.12-2.08 1.96-2.418 0 .956-.056 1.968-.168 2.924-.168 1.35-.448 2.699-.336 4.048.168 1.912 1.12 3.767 2.576 5.004.336.281.728.562 1.12.506.728-.112 1.008-.956 1.176-1.687.672-3.036 1.288-6.241.784-9.221 3.192 3.205.056 9.165-.112 11.189-.224 3.992 1.512 6.41 2.296 8.097z" fill="#4A0419"/><path d="M69.27 76.402c-.056-1.012-.112-2.024 0-3.036.056-.787.336-1.687 1.064-1.968.784-.281 1.568.225 2.128.843 1.064 1.125 1.736 2.587 1.96 4.105.112.731.056 1.574-.504 1.968-.504.394-1.232.281-1.848.169-.448-.056-.84-.169-1.232-.337-.672-.337-1.512-.843-1.568-1.743z" fill="#FFCBA8"/><path opacity=".69" d="M70.727 74.715c.336.956.616 1.799 1.4 2.53l.112.112.168-.056c.224-.169.504-.618.392-.956-.056-.281-.392-.787-.728-.618-.056 0-.224.225-.224.225s-.112-.337-.112-.394c-.112-.562-.504-.956-.84-.956-.112-.056-.224 0-.168.112z" fill="#FF976B"/><path opacity=".722" d="M78.846 159.563c.056 1.687-1.288 1.968-2.968 2.193-1.624.169-3.304-.169-4.927-.45-4.088-.675-9.351.9-11.255-.225-.56-.337-.784-.675-.84-.956.896.113 1.848.056 2.744-.056 1.12-.169 2.24-.45 3.36-.506 2.744-.112 5.375 1.181 8.119 1.181 2.352 0 4.815-1.406 5.711-3.543l.056 2.362z" fill="#FF976B"/><path opacity=".502" d="M73.806 100.749c.392 2.53 1.624 5.004 1.12 7.534-.224 1.069-.224 2.812-.504 3.88-.784 3.149.112 5.623.616 8.828.168.956.224 1.968 0 2.924-.168.787-.616 1.518-.896 2.249-1.68 3.767-1.568 8.097-.952 12.201.672 4.105 1.792 8.097 2.184 12.202.112 1.349.112 2.755-.224 4.048-.056-1.181-.336-2.305-.672-3.486-1.68-6.466-2.8-11.414-2.856-18.105 0-3.43 1.288-7.76 1.232-11.19 0-4.948 0-12.988.616-17.936-1.288-2.587-1.848-9.165-1.176-10.909.672-1.743.672-2.53 3.136-3.992 1.848-1.125 6.775-3.149 8.791-2.305.56.225 1.12.506 1.568.787-4.592 3.992-7.447 2.474-10.023 4.048-1.624 1.068-2.52 5.566-1.96 9.221z" fill="#FF976B"/><path opacity=".31" d="M88.197 94.114c-.84 3.261-3.248 6.466-3.36 9.165-.112 4.554-.28 9.165-1.456 13.495-.336 1.18-.728 2.417-1.12 3.598.056-5.566-.28-11.133-1.064-16.643-.112-.787-.224-1.631 0-2.362.168-.562.504-1.068.84-1.574 1.904-2.924 3.36-6.185 4.255-9.615.84 1.237 1.512 2.53 1.904 3.936z" fill="#FF976B"/><path d="M126.104 113.4c-.728 0-1.512.056-2.24.112-.336 0-.672-.224-.672-.618-.336-4.779 0-8.94-2.072-13.888-.28-.675-.56-1.293-.896-1.912-.056-.281.224-.562.504-.506.728.056 1.456 0 2.072-.169 2.52 5.173 2.968 11.133 3.304 16.981z" fill="url(#f)"/><path opacity=".302" d="M182.657 94.957c-1.344 1.856-3.359 3.43-5.599 4.723-2.408 1.462-5.04 2.643-7.279 3.599-3.64 1.631-13.775 5.904-23.517 7.085l-.056.056c-6.16 3.598-13.047 2.755-20.158 2.98-.728 0-1.512.056-2.24.112-.336 0-.672-.225-.672-.618l-.112-2.024c2.072-.731 3.976-2.362 6.216-2.418 1.119-.056 2.239.281 3.303.393.504.057 1.008.057 1.512 0 .952-.168 1.792-.674 2.688-1.068 2.687-1.181 5.767-1.181 8.735-1.349 2.071-.113 4.199-.394 6.271-.731 3.303-.563 6.607-1.35 9.855-2.249 2.519-.731 5.039-1.519 7.335-2.868 2.519-1.518 4.759-3.767 8.119-3.992.896-.225 1.792-.562 2.631-1.012.672-.394 1.288-.843 1.792-1.349.168-.169.336-.394.504-.619.448-.562.728-1.237.952-1.912.056-.112.056-.225.056-.337l.112.225c.224.562.28 2.361-.448 3.374z" fill="#4A0419"/><path opacity=".522" d="M128.512 92.09l-.112.169c-.504.787-.952 1.631-1.344 2.474-.504 1.125-.896 2.249-1.176 3.374-.448 1.856-.672 3.655-.728 5.735-.672-2.08-1.792-4.892-3.583-7.253.448 0 .895-.056 1.287-.169.336-.056.616-.169.84-.337 2.296-1.35 3.36-2.474 4.256-3.374.112-.225.336-.45.56-.618z" fill="#4A0419"/><path opacity=".169" d="M162.947 89.841c-3.415.394-6.719 1.631-9.967 2.811-2.071.787-4.199 1.574-6.215 2.474-2.967 1.349-5.767 2.98-8.063 5.285-1.232 1.237-2.296 2.643-3.863 3.374-1.568.675-3.808.281-4.368-1.349-.28-.9 0-1.856.28-2.756.784-2.474 1.792-5.004 3.696-6.747.784-.731 1.68-1.237 2.631-1.687 1.232-.506 2.632-.844 3.976-.9h.224c1.736.787 3.248 2.024 4.199 3.486 5.544-2.305 11.479-3.655 17.47-3.992z" fill="#4A0419"/><path opacity=".769" d="M142.342 158.944l-.168.225c-2.016-.112-4.032-.393-5.935-1.012-1.176-.056-2.408-.787-3.136-1.743l-.336-.45c-.672-1.124-.84-2.474-1.288-3.711.784 1.125 1.68 2.193 2.688 3.036.616.507 1.232.956 1.904 1.35l.671.337c.448.225.952.45 1.456.619.56.225 1.12.393 1.68.562l2.464.787z" fill="#4A0419"/><path opacity=".459" d="M166.307 89.166c-1.4-1.462-2.688-3.093-3.36-4.948-.784-2.08-.728-4.386-.672-6.579.056-2.249 0-4.498-.448-6.691-.224-1.068-.616-2.08-.952-3.149-.336-1.068-.784-2.081-1.176-3.093-.951-2.305-2.183-4.498-3.359-6.635-.056-.056-.28 0-.28.056 1.064 1.968 2.128 3.936 3.08 5.96.447 1.012.895 2.024 1.231 3.093.336 1.068.56 2.137.728 3.205.168 1.125.224 2.249.224 3.374 0 1.124 0 2.249.056 3.43.112 2.193.392 4.442 1.176 6.579.784 2.137 1.904 4.161 3.752 5.567-.112-.056 0-.113 0-.169z" fill="#fff"/><path opacity=".4" d="M134.224 153.659c-.448-.787-.896-1.574-1.288-2.362-.784-1.63-1.456-3.317-1.96-5.06-1.12-3.542-1.792-7.141-2.407-10.796-.168-1.012-.336-2.08-.448-3.092-.168-1.012-.224-2.081-.336-3.093 0-.056-.28 0-.28.056l.224 2.756c.056.955.112 1.855.224 2.811.168 1.855.448 3.711.784 5.567.336 1.799.783 3.598 1.343 5.341.56 1.743 1.176 3.43 2.016 5.061.952 1.799 1.96 3.598 3.36 5.173.056.056.224 0 .224-.057-.504-.787-1.008-1.518-1.456-2.305z" fill="#fff"/><path opacity=".2" d="M199.791 162.487c1.344-1.35.448-4.611-.504-6.354-1.176-2.193-1.736-3.542-3.08-4.948-1.399-1.406-2.799-2.811-3.751-4.555l-1.064-2.08c-1.96-2.924-7.671-4.892-7.671-4.892s.112-.225.336-.618c2.576.112 5.039 1.799 6.775 3.767 2.016 2.305 3.472 5.06 5.655 7.197-.336-2.137-2.127-3.767-3.023-5.791l-.896-2.418c-1.008-2.418-2.912-4.273-5.208-5.623 3.248.956 5.936 3.655 6.72 6.972.224.9.28 1.856.728 2.643.335.562.783 1.012 1.231 1.518 2.072 2.249 3.64 4.892 5.208 7.535.504.843 1.008 1.687 1.12 2.642.168 1.8-.84 4.611-2.576 5.005z" fill="#4A0419"/><path opacity=".259" d="M149.957 35.918c.056-.225.168-.394.224-.562-.28 1.518-.448 3.093-.448 4.611-.056 2.193.168 4.442-.784 6.41-.392.843-1.008 1.631-1.456 2.474-1.344 2.474-1.064 5.173-.84 7.984-1.232 0-3.415-.45-3.583-.562-.112-.112-.56-5.285 1.792-10.908.167-.337 1.399-1.912 1.455-2.249.056-.394.168-1.518.168-1.912.504-4.948 1.344-8.434 4.032-11.864.392-.506 1.008-.9 1.624-1.181-2.464 2.755-4.088 6.241-4.648 9.952-.392 2.699-.224 5.567-1.344 8.041-.112.281-.28.562-.28.843 0 .281.224.619.504.675.28 0 .504-.225.672-.506 2.24-3.261 1.568-7.647 2.912-11.245z" fill="#4A0419"/><path d="M155.277 35.974c-.392.113-.784.281-1.176.506l-.504.337-.224.225c-.056.056-.112.169-.112.281 0 .112.112.112.168.112.056-.056.112-.112.168-.225l.168-.225c.112-.112.28-.225.448-.337.336-.169.728-.337 1.064-.45.28-.056.168-.281 0-.225zM155.948 37.83c-.56-.394-1.288-.619-1.96-.731-.112 0-.168 0-.224.112 0 .056 0 .169.112.225.336.056.672.112 1.008.225.168.056.392.169.56.281-.336.169-.616.506-.896.843-.224.225-.392.45-.56.675-.168.225-.392.506-.504.787-.056.112.056.225.168.112l.504-.675c.168-.225.336-.45.504-.618.168-.225.336-.394.56-.562.168-.169.392-.337.616-.337.168-.056.224-.281.112-.337zM155.781 41.091c-.336-.169-.616-.45-.896-.618-.336-.225-.672-.337-1.064-.281-.223.056-.112.337.112.281.336-.056.672.112.896.281.224.169.392.337.616.45-.336.225-.672.506-.952.843-.168.169-.336.394-.448.562-.168.225-.336.394-.391.675-.056.112.167.225.223.112.168-.169.28-.394.392-.562l.448-.562c.336-.337.672-.675 1.064-.956.112 0 .112-.169 0-.225zM157.292 45.477l-.448.056-.448.056c-.336.056-.616.056-.952.056h-1.288c.28-.169.56-.337.84-.562.448-.337.784-.675 1.176-1.068.056-.056.056-.112 0-.169h.224c.224 0 .224-.337 0-.337-.784.056-1.512 0-2.24-.281-.168-.056-.28.225-.112.281.56.169 1.176.281 1.792.281-.672.731-1.456 1.406-2.352 1.799-.168.056-.056.281.056.281.616.056 1.288.056 1.904.056.336 0 .616 0 .952-.056l.448-.056c.168 0 .336-.056.504-.112.168-.056.056-.225-.056-.225zM157.572 46.152c-.112 0-.168.056-.224.112-.056.056-.112.113-.224.169-.168.112-.28.225-.448.281-.224.112-.504.225-.728.281l.28-.169 1.008-.731c.112-.112-.056-.281-.168-.169-.336.281-.616.506-.952.731l-.504.337-.279.169c-.056.056-.168.113-.28.169-.224.056-.056.394.168.225.056-.056.168-.112.28-.169l.167-.112c0 .056.056.112.168.112.336-.056.728-.169 1.064-.337.168-.056.336-.169.448-.281l.224-.169c.056-.056.168-.113.168-.225-.056-.169-.112-.225-.168-.225zM192.959 153.659c-.056-.169-.28-.113-.28 0-.168.394-.336.731-.616 1.012l-.392.45-.224.169s-.112.112-.112.056c0-.113-.112-.169-.168-.169.056-.337.056-.731 0-1.068-.056-.45-.112-.9-.28-1.35-.056-.112-.224-.112-.224 0l-.224.731-.336.675c-.112.225-.224.45-.392.618-.056.113-.168.225-.336.338.168-1.125-.056-2.249-.504-3.261-.056-.113-.28-.113-.28.056-.223.843-.559 1.687-1.007 2.418-.112.168.168.337.28.168.392-.618.727-1.349.951-2.024.336.9.448 1.912.336 2.924 0 .056.056.112.168.112.224-.056.448-.168.616-.393.168-.225.336-.45.448-.675l.336-.731.112-.337c.056.281.112.562.112.843v1.2930000000000001c0 .113.168.169.224.113l.112.112c.112.057.28 0 .392-.056.224-.112.392-.337.616-.506.224-.281.448-.562.616-.9.056.282.056.619.056.9 0 .225-.056.45-.112.675-.056.225-.168.45-.168.675 0 .168.168.168.28.056.112-.169.168-.45.224-.675.056-.225.112-.506.112-.731-.168-.506-.224-1.012-.336-1.518zM195.591 155.627c0-.056-.112-.056-.168-.056-.112 0-.112.112-.168.168l-.112.169c-.056.112-.112.225-.224.337-.168.225-.392.394-.56.563l-.056.056.056-.225c.056-.225.112-.45.112-.675 0-.45-.056-.899-.224-1.293-.056-.169-.224-.113-.28 0-.112.281-.224.506-.336.731-.168.225-.335.45-.503.618-.168.169.056.338.224.225.335-.281.615-.674.783-1.068.056.225.056.506.056.787 0 .225-.056.394-.112.562 0 .113-.056.225-.112.282-.056.112-.112.224-.112.281-.056.168.168.281.28.112l.168-.337v.112c.056.056.168.113.224.056.224-.168.448-.393.672-.618.112-.112.168-.225.28-.394.056-.056.224-.225.112-.393z" fill="#fff"/><path d="M165.467 89.616c-1.848 14.675-4.536 21.141-8.287 29.857-4.984 11.414-12.263 21.422-17.75 27.945-3.584 4.273-6.327 7.084-7.111 7.872-.112.112-.28.056-.336-.057-.336-.843-1.232-3.373-1.68-4.779-.056-.225 0-.506.168-.675 9.239-9.39 13.718-17.262 18.142-24.515 3.583-6.016 7.335-14.956 11.198-27.776.728-2.418 1.456-4.948 2.24-7.647l3.416-.225z" fill="#F2BE11"/><path opacity=".271" d="M165.467 89.616c-1.848 14.675-4.536 21.141-8.287 29.857-4.984 11.414-12.263 21.422-17.75 27.945 10.975-16.419 22.229-37.729 23.349-49.424.168-1.687-1.176-1.462-2.912-.506.728-2.418 1.456-4.948 2.24-7.647 1.288-.056 2.016-.169 3.36-.225z" fill="#E84D00"/><path opacity=".502" d="M133.551 152.703s-.056.056-.112 0c-.336-.393-.616-.843-.84-1.293-.168-.281-.28-.562-.392-.9l-.224-.45.056-.056.056.056-.056-.112c0-.056.112-.113.112-.056.224.45.448.899.728 1.349l.672 1.462zm-.84-1.462c.168.281.336.619.56.9l-.448-.844-.336-.674c.056.225.112.449.224.618z" fill="#fff"/></g><defs><linearGradient id="a" x1="386.374" y1="333.95" x2="7.622" y2="54.099" gradientUnits="userSpaceOnUse"><stop stop-color="#B0BBA7"/><stop offset="1" stop-color="#F3F2EE"/></linearGradient><linearGradient id="c" x1="105.819" y1="94.392" x2="103.111" y2="114.108" gradientUnits="userSpaceOnUse"><stop stop-color="#EDEDED"/><stop offset="1" stop-color="#EBDBCA"/></linearGradient><linearGradient id="d" x1="183.697" y1="149.213" x2="202.327" y2="149.213" gradientUnits="userSpaceOnUse"><stop stop-color="#EDEDED"/><stop offset="1" stop-color="#EBDBCA"/></linearGradient><linearGradient id="e" x1="143.008" y1="42.313" x2="154.333" y2="42.313" gradientUnits="userSpaceOnUse"><stop stop-color="#EDEDED"/><stop offset="1" stop-color="#EBDBCA"/></linearGradient><linearGradient id="f" x1="122.077" y1="96.061" x2="124.685" y2="114.805" gradientUnits="userSpaceOnUse"><stop stop-color="#EDEDED"/><stop offset="1" stop-color="#EBDBCA"/></linearGradient><clipPath id="b"><path fill="#fff" d="M213.846 27.822h-174.083v139.107h174.083z"/></clipPath></defs></svg>