<svg width="315" height="245" viewBox="0 0 315 245" xmlns="http://www.w3.org/2000/svg" fill="none"><path d="M292.251 153.385c-11.158 44.633-91.623 73.765-158.342 57.087-38.977-9.744-67.383-59.208-74.571-67.636-11.865-13.913-36.443-20.815-36.769-54.171-.325-33.355 116.192-65.297 175.946-50.1 59.755 15.197 117.288 47.105 93.735 114.82z" fill="url(#a)"/><g clip-path="url(#b)"><path opacity=".5" d="M177.222 220.337c-63.849 0-115.609-2.824-115.609-6.307 0-3.484 51.76-6.307 115.609-6.307s115.608 2.823 115.608 6.307c0 3.483-51.759 6.307-115.608 6.307z" fill="#B0BBA7"/><path d="M104.354 76.788c-.228-1.672-.987-3.267-1.898-4.635-1.594-2.28-4.099-4.179-7.059-3.572-1.291.228-2.733.988-3.188 2.356 0 .076.304 0 .38-.076.607-1.064 1.518-1.824 2.733-2.128 1.29-.304 2.581 0 3.644.684 1.139.76 2.05 1.748 2.733 2.964.759 1.292 1.366 2.736 1.594 4.18.228 1.596 0 3.344-1.063 4.635-.152.152.076.152.228.152.152 0 .531-.076.683-.228.987-1.14 1.442-2.812 1.215-4.331z" fill="#863C26"/><path d="M90.235 189.634c-.076 0-.228 0-.304.076-1.746 1.14-3.568 2.128-5.541 2.887-1.898.684-3.947 1.216-5.921 1.368-1.139.152-2.277.152-3.492.152 2.05-.76 4.099-1.368 5.997-2.355 1.822-.988 3.416-2.28 4.63-3.876 2.429-3.04 3.568-7.067 3.036-10.943-.152-1.139-.607-2.203-1.442-3.039l-.911-.684c-.228-.152-.38-.304-.607-.532-.304-.304-.607-.608-.835-.988-.076-.152-.455-.076-.759 0-1.822-.912-3.871-1.52-5.617-2.052-4.934-1.443-10.096-3.419-13.36-7.675-1.442-1.899-2.505-4.255-2.581-6.763-.076-2.204.607-4.407 1.594-6.383 2.049-3.951 5.238-7.295 6.908-11.399 1.746-4.407 1.215-9.574-1.518-13.526-.304-.456-.683-.912-1.063-1.368-.076-.076-.607.076-.531.152 3.188 3.648 4.403 8.967 2.96 13.603-1.366 4.331-4.555 7.675-6.832 11.474-1.063 1.824-1.898 3.8-2.125 5.927-.228 2.432.38 4.864 1.594 6.916 2.657 4.559 7.439 6.991 12.297 8.586 2.125.684 4.327 1.216 6.376 2.128.607.228 1.215.532 1.822.912.456.608 1.063 1.064 1.67 1.596.38.304.683.608.987.912.304.38.531.912.683 1.444.531 1.823.607 3.875.228 5.699-.683 3.799-2.809 7.219-6.073 9.271-2.125 1.291-4.479 2.203-6.832 2.963 0 0-.152.076-.076.076 4.327.38 8.806-.608 12.601-2.583 1.063-.532 2.125-1.14 3.036-1.9.152-.076.076-.076 0-.076z" fill="#4A0419"/><path d="M117.865 90.543c.456-2.888 0-5.851-1.745-8.359-1.519-2.128-3.796-3.647-6.453-3.724-2.732-.076-5.769 1.064-7.211 3.572-.076.076.228.076.228.076.152 0 .303-.076.379-.152 1.291-2.052 3.644-3.192 5.997-3.116 2.657.076 5.01 1.52 6.452 3.647 1.67 2.356 2.126 5.243 1.67 8.055-.531 3.192-1.973 6.155-2.808 9.271-.835 3.116-1.139 6.611.607 9.423.076.152.683-.076.607-.152-1.67-2.736-1.366-6.079-.607-8.967.911-3.191 2.353-6.231 2.884-9.575zM92.208 70.329c-1.29-1.748-3.264-2.964-5.314-3.496-2.201-.608-4.555-.532-6.756.152-2.277.684-4.479 1.824-6.225 3.42-.911.76-1.67 1.672-2.126 2.812-.455 1.064-.759 2.204-.911 3.268-.152 1.216-.076 2.432-.152 3.572-.076 1.368-.228 2.736-.38 4.103-.379 2.584-.683 5.243-1.822 7.523-1.746 3.419-5.238 5.547-7.819 8.283-1.215 1.368-2.277 2.964-2.733 4.788-.455 2.051-.076 4.407 1.139 6.155.304.456.607.836.987 1.216.076.076.455-.076.38-.152-1.442-1.596-2.277-3.648-2.201-5.851.076-1.9.835-3.724 2.05-5.168 2.277-2.963 5.693-4.863 7.97-7.827 1.442-1.824 2.125-3.951 2.505-6.231.228-1.292.304-2.584.38-3.799.076-1.292.076-2.508.076-3.8 0-1.14.076-2.28.228-3.496.152-1.14.455-2.28.987-3.344 1.139-2.052 3.264-3.496 5.389-4.559 2.201-1.064 4.63-1.596 7.059-1.292 2.126.304 4.099 1.216 5.617 2.66.38.38.683.76.987 1.14.076.304.759.076.683-.076z" fill="#863C26"/><path d="M123.786 137.656c-.531 3.952-1.062 11.703-3.795 14.591-3.264 3.495-11.083 3.951-13.436 8.131-2.96 5.395-2.353 9.954-2.96 16.034-.532 5.623-4.403 10.562-9.337 13.374-2.201 1.216-4.554 2.052-6.984 2.583-3.036.684-6.225.836-9.337.684 4.63-.684 8.653-4.179 9.944-8.662 1.29-4.484-.228-9.575-3.795-12.615-3.188-2.736-7.591-3.571-11.538-5.091-1.746-.684-3.492-1.596-4.934-2.736-1.898-1.52-3.264-3.495-3.492-5.851-.531-5.091 4.175-8.967 6.832-13.298 3.34-5.472 3.416-12.843.076-18.39-2.353-3.876-6.149-6.003-8.654-9.803-2.505-3.799-3.416-10.259-.152-13.374 10.248-9.575 12.98-15.122 16.017-20.898.531-.988 1.139-2.052 1.974-2.888l.683-.608c1.594-1.14 3.644-1.368 5.541-1.14 1.29.152 2.505.532 3.644 1.064 4.327 1.976 7.819 6.079 10.779 10.031 10.931 14.438 25.354 31.004 22.924 48.861z" fill="#4A0419"/><path opacity=".329" d="M123.786 137.656c-.531 3.952-1.062 11.703-3.795 14.591-3.264 3.495-11.083 3.951-13.436 8.131-2.96 5.395-2.353 9.954-2.96 16.034-.532 5.623-4.403 10.562-9.337 13.374-2.201 1.216-4.554 2.052-6.984 2.583 5.845-4.483 9.261-12.234 8.198-19.605-.531-3.876-2.201-7.599-2.125-11.475.076-4.179 2.05-8.131 3.112-12.158 2.353-8.891 0-18.77-6.073-25.685 2.429 3.192 3.188 7.523 2.505 11.475-.683 3.951-2.809 7.599-5.541 10.562-2.201 2.28-4.782 4.256-7.819 5.244 4.403-2.66 7.894-7.143 8.957-12.235.987-5.091-.683-10.79-4.782-14.058-1.442-1.14-3.264-2.128-3.871-3.875-.683-1.824.076-3.8.759-5.624-3.036 1.216-4.858 4.788-4.251 7.979.38 1.824 1.442 3.42 2.201 5.092 2.201 5.091 1.518 11.322-1.822 15.73-2.05 2.735-5.01 4.711-7.363 7.219-2.353 2.507-4.327 5.927-3.568 9.271.304 1.367.987 2.507 1.898 3.571-1.898-1.52-3.264-3.495-3.492-5.851-.531-5.091 4.175-8.967 6.832-13.298 3.34-5.472 3.416-12.843.076-18.39-2.353-3.876-6.149-6.003-8.654-9.803-2.505-3.799-3.416-10.259-.152-13.374 10.248-9.575 12.98-15.122 16.017-20.897.531-.988 1.139-2.052 1.974-2.888.987-.304 1.974-.532 2.96-.76 2.353-.38 4.63-.304 6.908.076 4.327 1.976 7.819 6.079 10.779 10.031 10.855 14.59 25.278 31.156 22.848 49.013z"/><path d="M124.09 143.432c-.38 2.963-1.139 5.927-2.429 8.663-.607 1.291-1.366 2.431-2.429 3.419-1.063.988-2.202 1.824-3.34 2.584l-4.175 2.887c-.228.152.303.076.379 0 1.443-.835 2.885-1.671 4.251-2.583 1.215-.836 2.505-1.672 3.644-2.66 1.063-.988 1.974-2.052 2.581-3.343.683-1.292 1.138-2.736 1.594-4.18.531-1.672.835-3.419 1.063-5.091 0-.152-1.139-.076-1.139.304z" fill="#4A0419"/><path d="M118.321 111.44c-1.291 3.039-2.733 5.471-4.099 8.511-3.112-.608-6.984-2.66-10.324-5.168-3.036-2.355-5.693-5.091-6.831-7.675-.683.456 3.567-3.419 6.072-6.459l.456.532c5.845 6.839 7.97 7.447 14.726 10.259z" fill="#FFCBA8"/><path opacity=".588" d="M103.898 114.783c-3.036-2.355-5.693-5.091-6.831-7.675-.683.456 3.567-3.419 6.072-6.459l.456.532c1.062 4.484 1.214 9.119.303 13.602z" fill="#FF976B"/><path d="M105.872 99.813c-1.594 6.611-5.466 12.919-11.462 16.186-1.215.684-2.657 1.216-4.023.912-.987-.228-1.822-.988-2.581-1.672-2.885-2.583-5.997-5.471-6.528-9.346-.152-1.368.228-2.812.531-4.256.152-.836.304-1.596.228-2.432-.304-2.888-2.581-5.243-3.264-8.055-.379-1.672-.455-3.419-.228-5.091.38-2.584 1.366-5.015 3.036-6.991 0-.836 1.746-.912 3.036-.836 3.112.304 6.224.76 9.261 1.444 3.112.684 6.301 1.596 8.654 3.724 4.327 4.028 4.706 10.791 3.34 16.414zM177.454 143.736c-.076.76-.228 1.595-.38 2.355l-3.112.608-10.475 2.052c-3.264.608-6.529 1.292-9.793 1.14h-.227c-4.858-.304-9.489-2.28-13.968-4.256l-3.34-1.443-8.349-3.648c-6.756-2.964-14.119-6.459-17.308-13.07-.911-1.976-1.518-4.18-3.036-5.7-.911-.911-2.201-1.519-2.809-2.659-.91-1.672-.075-3.8 1.367-4.94 1.442-1.139 3.416-1.519 5.237-1.747 5.997-.684 12.222.152 17.839 2.355 2.733 1.064 5.389 2.508 8.122 3.724 3.72 1.748 7.591 3.191 11.538 4.331l2.202.608c4.554 1.216 9.261 1.976 14.043 2.28 1.214.076 2.353.152 3.567.152h2.885c.759 0 1.518 0 2.125.456.38.304.608.76.835 1.216 2.505 4.863 3.644 10.486 3.037 16.186z" fill="#FFCBA8"/><path opacity=".569" d="M116.727 114.099c2.429 2.356 4.63 5.548 6.68 8.359 1.973 2.812 5.01 10.639 4.706 11.247-.379.684-.303 2.052-.987 2.432-2.505 1.671-7.515 1.747-10.475 1.216-1.29-.228-2.505-.912-3.644-1.596l.608-.836 3.112-20.822z" fill="#E86848"/><path opacity=".51" d="M174.569 142.216c-.076 1.52-.303 3.04-.607 4.483l-10.475 2.052c-3.264.608-6.529 1.292-9.793 1.14-4.934-.228-9.64-2.28-14.119-4.256l-3.34-1.443c1.139-3.572 2.809-6.991 4.479-10.411 2.277-4.559 4.479-9.195 8.122-10.943l2.202.608c.683 6.991-1.67 13.983-2.809 20.974-.076.456.987 1.595 1.518 1.747 2.733.76 7.743.228 10.476-3.039 2.58-3.192 10.095-7.295 16.092-9.803 2.429 4.483-1.442 3.724-1.746 8.891z" fill="#FF976B"/><path d="M151.493 122.762c-.911 7.143-2.884 14.135-5.693 20.746l-.228.532c-.379.836-.759 2.355-1.442 3.039-.835.76-3.036.152-4.706-.076-.456-.076-.835-.076-1.139 0-6.528.912-5.693 2.356-9.489 2.052-3.795-.228-7.666-1.596-10.323-4.331-1.518-1.596-2.581-3.648-3.568-5.624l-3.416-6.839-5.01-9.879c1.518 2.812 4.327 6.08 7.743 8.283 3.871 2.584 8.426 3.876 12.601 1.9l.607-.304c4.63-2.584 5.693-7.751 3.34-12.31-.455-.912-3.72-4.484-8.198-6.535-1.215-.532-2.429-.988-3.796-1.216-1.442-.304-4.63 0-8.046 1.064-2.809.911-5.769 2.355-8.122 4.483 6.073-7.827 16.168-7.371 16.168-7.371l3.796 2.508s6.832.304 14.119 3.875c3.264 1.596 5.465 2.812 8.805 4.104 1.746.532 3.568 1.215 5.997 1.899z" fill="#E05651"/><path d="M151.493 122.762c-.911 7.143-2.884 14.135-5.693 20.746l-.228.532c-.379.836-.759 2.355-1.442 3.039-.835.76-3.036.152-4.706-.076 3.415-8.283 5.465-17.174 6.148-26.14 1.67.532 3.492 1.215 5.921 1.899z" fill="url(#c)"/><path d="M222.999 116.683c-.455 6.839-1.67 13.45-3.492 19.91-2.277 8.283-5.541 16.11-9.412 23.633l-.76 1.443c-6.755 12.767-15.105 24.621-24.063 35.944-.455.532-.91 1.14-1.518 1.368-.683.228-1.518-.076-1.67-.76-.076-.38.076-.76.304-1.14 3.492-6.991 7.059-13.982 10.551-20.897 2.961-5.852 5.921-11.703 8.882-17.554 2.58-5.168 5.237-10.335 7.818-15.502.759-1.52 1.518-3.04 2.353-4.56 3.644-7.371 7.287-14.666 11.007-21.885z" fill="#D67906"/><path opacity=".31" d="M145.8 143.432l-.228.532c-.379.836-.759 2.355-1.442 3.039-.987.988-4.327-.304-5.769-.076-6.528.912-5.693 2.356-9.489 2.052-3.795-.228-7.666-1.596-10.323-4.331-1.518-1.596-2.581-3.648-3.568-5.624l-3.416-6.839.911-.836 1.822-.76c3.871 2.584 8.426 3.876 12.601 1.9.835 2.052 1.366 4.18 1.518 6.383.076 1.368.076 2.736.455 4.028.38 1.292 1.215 2.584 2.505 2.963 2.733.836 5.466-2.507 8.274-1.671.911.228 1.594.912 2.505 1.064 1.443.304 2.657-.684 3.644-1.824z" fill="#4A0419"/><path d="M267.102 206.58c-1.291-.836-2.657-1.672-4.175-2.508-4.934-2.736-10.855-5.167-16.624-4.939.987-1.824.835-4.18-.304-5.852l-.379-.532c2.125-.531 3.719-1.139 4.934-2.811.303-.456.683-.988.911-1.596.531-1.064.987-2.432 1.442-4.179 9.033 5.851 13.588 13.678 14.195 22.417z" fill="#FFCBA8"/><path opacity=".502" d="M251.465 188.494c2.277-.076 4.554.532 6.452 1.748 2.885 1.824 4.782 4.939 5.39 8.283.303 1.823.151 3.799-.304 5.623-4.934-2.736-10.855-5.167-16.624-4.939.987-1.824.835-4.18-.304-5.852l.152-.228c1.139.532 2.126 1.292 2.885 2.28.227.304.379.532.683.76.911.76 2.277.152 3.492 0 .91-.076 1.897.228 2.58.76.76-1.14.532-2.812-.303-3.952-.835-1.139-2.05-1.899-3.34-2.431l-1.518-.608.759-1.444z" fill="#FF976B"/><path d="M254.501 189.406c1.518 2.128 3.112 4.331 3.34 6.991.152 1.596-.228 3.192-.607 4.787 1.138.228 2.277.456 3.416.38 1.138-.076 2.353-.532 3.036-1.368.531-.683.759-1.519.911-2.355.076-.684.076-1.444-.152-2.128-.531-1.596-2.125-2.508-3.643-3.116-1.595-.608-3.265-.987-6.301-3.191z" fill="#fff"/><path d="M275.831 209.315c0 1.064-.076 4.104-1.062 4.636-1.063.608-2.429-.076-3.34-.836-.911-.836-1.594-3.572-2.278-4.56-2.884-3.799-15.713-5.699-16.244-6.687-.531-.912-.683-3.191.152-3.799.759-.532 2.049-.38 2.581-.228 2.429.684 3.188.912 5.161.608.532-.076 1.139-.228 1.367-.912.152-.456.076-.988-.228-1.368-.455-.684-.911-.836-1.594-1.596-1.594-1.52-8.122-2.203-9.868-4.103-.683-.76.304-2.432.455-2.888.152-.304.228-.532.304-.76.38-.988.759-1.824 1.215-2.735.379-.76.835-1.52 1.442-2.584 3.264-1.748 5.086-.076 7.439 2.812 2.353 2.887 3.492 6.459 5.465 9.574 1.67 2.584 3.872 4.712 5.769 7.143 1.822 2.356 3.34 5.244 3.264 8.283z" fill="#7B4A56"/><path opacity=".29" d="M275.831 209.315c0 1.064-.151 4.332-1.138 4.636-1.442.456-3.264-.608-3.796-1.824-.531-1.292-.986-2.66-1.67-3.648-2.884-3.799-15.713-5.699-16.244-6.687-.531-.912-.683-3.191.152-3.799.759-.532 2.049-.38 2.581-.228 2.429.684 3.188.912 5.161.608.532-.076 1.139-.228 1.367-.912.152-.456.076-.988-.228-1.368-.455-.684-.911-.836-1.594-1.596-1.594-1.52-8.122-2.203-9.868-4.103-.683-.76.304-2.432.455-2.888.152-.304.228-.532.304-.76.759.912 1.518 1.9 2.353 2.432.38.304.835.456 1.291.608 2.277.912 4.402 2.204 6.3 3.723.759.608 1.518 1.292 1.974 2.204.455.912.607 2.052.911 3.04.531 1.747 1.745 3.343 3.264 4.331.303.228 2.96 1.368 3.036 1.216.455-2.736-2.96-4.559-4.175-6.991-.607-1.292-2.201-4.712-2.885-5.927-1.29-2.356-3.491-2.964-5.92-4.256-1.746-.912-3.189-2.128-4.859-3.039.38-.76.835-1.52 1.443-2.584 3.264-1.748 5.086-.076 7.439 2.812 2.353 2.887 3.492 6.459 5.465 9.574 1.67 2.584 3.872 4.712 5.769 7.143 1.67 2.356 3.188 5.244 3.112 8.283z"/><path opacity=".4" d="M177.454 143.736c-.076.76-.228 1.596-.38 2.355l-3.112.608-10.475 2.052c-3.264.608-6.528 1.292-9.793 1.14h-.227c1.29-.152 2.505-.38 3.719-.836 1.518-.532 2.961-1.368 4.403-2.128 2.809-1.444 5.845-2.507 8.881-3.343 2.278-.532 4.934-.836 6.984.152z" fill="#F26033"/><path d="M122.648 113.34c-1.215-.532-2.429-.988-3.796-1.216-1.442-.304-4.63 0-8.046 1.064-.456.076-.987.152-1.518.228 2.884-1.292 5.769-2.584 8.653-3.04 1.746.684 3.34 1.672 4.707 2.964z" fill="#4A0419"/><path d="M248.732 199.741c-10.475 1.975-20.875 4.483-31.35 6.915-5.542 1.291-11.083 2.659-16.776 2.887-1.366.076-2.733.076-4.099 0-2.733-.152-5.466-.532-8.046-1.368-.911-.304-1.746-.607-2.581-.987-.683-.304-1.063-.988-.911-1.672.076-.304.152-.608.379-.836l.38-.38c2.125-2.28 4.782-3.42 6.908-4.863.683-.532 1.366-1.064 1.897-1.672 1.746-2.052 2.202-4.94 3.872-7.067.151-.228.379-.456.607-.684 1.822-1.824 4.479-2.812 7.135-2.964 2.809-.152 5.618.38 8.426.988l.304.076c10.399 2.356 20.875 5.015 31.578 4.483 1.138.988 1.898 2.356 2.201 3.8.152 1.14.228 2.28.076 3.344z" fill="#7B4A56"/><path opacity=".302" d="M214.497 188.114c-7.439 2.204-12.373 10.715-20.192 11.475-.607.076-1.214.076-1.745-.152.683-.532 1.366-1.064 1.897-1.672 1.746-2.052 2.202-4.94 3.872-7.067.151-.228.379-.456.607-.684 1.822-1.824 4.479-2.812 7.135-2.964 2.809-.152 5.618.456 8.426 1.064z" fill="#4A0419"/><path opacity=".749" d="M97.598 94.722c-9.033-1.748-14.195 3.572-15.789 6.991.152-.836.304-1.596.228-2.432-.304-2.888-2.581-5.243-3.264-8.055-.379-1.672-.455-3.42-.228-5.091 2.353-1.748 5.389-2.584 8.274-2.204 3.795.38 7.363 2.812 9.185 6.155.759 1.368 1.139 3.04 1.594 4.635z" fill="#FF976B"/><path opacity=".361" d="M219.507 136.517c-2.277 8.283-5.541 16.11-9.412 23.633l-.76 1.443c-3.188 4.788-6.755 9.423-10.323 13.983-1.063 1.367-2.581 2.887-4.327 2.431-.911-.228-1.442-.988-1.822-1.899 2.961-5.852 5.921-11.703 8.882-17.554l.151 2.659c1.822.38 3.264-1.443 4.175-3.115 2.657-5.015 5.086-10.183 7.06-15.502-1.139.304-2.353.456-3.568.456.759-1.52 1.518-3.04 2.353-4.56 1.443-1.215 3.037-2.431 4.631-3.495.455-.304.987-.608 1.518-.608.987.076 1.366 1.064 1.442 2.128z" fill="#4A0419"/><path d="M123.331 121.699c-1.139 4.407-4.403 8.738-4.555 12.386-.151 6.155-.379 12.386-1.973 18.238-.456 1.595-.987 3.267-1.518 4.863-.759 2.204-1.367 4.483-1.594 6.839-.152 1.824 0 3.724 0 5.547 0 2.508-.228 5.016-.456 7.447-.987 9.727-1.898 19.454-2.884 29.181-1.898 1.064-3.34.988-5.238 1.52.455-1.52.531-2.888.455-4.256-.076-1.596-.455-3.116-.911-4.711-2.277-8.739-3.795-15.426-3.871-24.469 0-4.636 1.746-10.487 1.67-15.122 0-6.687 0-17.554.835-24.241-1.746-3.496-2.505-12.387-1.594-14.742.911-2.356.911-3.42 4.251-5.396 2.505-1.519 9.185-4.255 11.918-3.115.759.304 1.518.684 2.125 1.064 1.67.988 2.733 2.127 3.112 3.115.835 1.976.759 3.952.228 5.852z" fill="#FFCBA8"/><path d="M200.378 158.63c1.67 9.955 1.291 20.289-1.138 30.168l-.304 1.292c-1.291 4.787-2.961 9.423-5.162 13.83-.455.912-.911 1.824-1.594 2.584-.304.38-.683.684-1.063.988-.227.152-.531.304-.835.456-.607.227-1.214.303-1.821.303-1.595-.076-3.265-1.063-4.251-2.355l-.456-.608c-.911-1.52-1.138-3.344-1.746-5.015l-.227-.684c-4.783-11.703-5.769-22.342-6.604-32.676-.38-5.016-.76-9.879-1.443-14.742-.379-2.736-.911-5.472-1.594-8.207.456-1.824.987-3.724 1.594-5.472 1.746-.987 3.644-1.747 5.542-2.431 6.831-2.356 14.346-3.952 21.254-2.128 2.809 4.103 3.34 9.803.531 13.906-.683.988-1.594 1.9-1.821 3.04-.228 1.064 0 2.128.227 3.191.38 1.52.683 3.04.911 4.56z" fill="#7B4A56"/><path opacity=".502" d="M200.378 158.629c1.67 9.955 1.291 20.289-1.138 30.168-.304.38-.532.76-.835 1.216.531-5.167.986-10.487-.38-15.426-1.366-5.015-5.01-9.727-10.096-10.943-4.478-1.063-8.805.76-12.752 3.344-.38-5.015-.76-9.879-1.443-14.742-.379-2.736-.911-5.471-1.594-8.207.456-1.824.987-3.724 1.594-5.471 1.746-.988 3.644-1.748 5.542-2.432 6.831-2.356 14.346-3.952 21.254-2.128 2.809 4.104 3.34 9.803.531 13.906-.683.988-1.594 1.9-1.821 3.04-.228 1.064 0 2.128.227 3.192.38 1.443.683 2.963.911 4.483z" fill="#4A0419"/><path opacity=".8" d="M199.24 151.107c-.228 1.064 0 2.203.227 3.267.38 1.52.683 3.04.911 4.636-2.96-2.964-6.756-5.016-10.931-5.7-5.161-.835-10.779.304-15.713-.835-.379-2.812-.911-5.548-1.594-8.359.456-1.9.987-3.724 1.594-5.548 1.746-1.063 3.644-1.823 5.542-2.431 6.831-2.432 14.346-3.952 21.254-2.128 2.809 4.103 3.34 9.955.531 14.058-.683.912-1.518 1.824-1.821 3.04z" fill="#4A0419"/><path d="M110.654 210.151c.076 2.28-1.746 2.66-4.023 2.964-2.201.228-4.479-.228-6.68-.608-5.541-.912-12.677 1.216-15.258-.304-.759-.456-1.063-.912-1.139-1.292-.152-.456.076-.836.076-.836s6.908-.988 9.868-2.28c2.353-.075 8.046 1.216 10.779.228.683-.227 1.442-.759 1.442-2.811 1.139-.456 3.112-1.216 4.782-.304.076.684.152 1.368.152 1.976 0 1.139-.076 2.203 0 3.267z" fill="#FFCBA8"/><path d="M106.555 103.233c-1.898-1.216-6.224-5.168-8.274-7.599-.304-.304-.531-.608-.683-.912-.759-1.216-1.215-1.976-1.898-2.66-.456-.532-1.063-.988-1.898-1.52-1.67-1.064-5.845-1.52-9.337.456-1.366.76-2.581 1.824-3.568 3.42-.456-.076-.835-.152-1.215-.304-.455-4.483-.759-6.687-.683-8.967.076-2.584.607-5.243 2.201-7.219 1.518-1.9 4.099-3.04 6.376-2.432h.076c.152 0 .228.076.38.152l.835.38c1.063.684 1.974 1.672 2.809 2.736 1.366 1.748 3.036 4.028 4.782 6.459 3.948 5.927 8.274 12.994 10.096 18.01z" fill="#4A0419"/><path d="M223.454 73.445c-1.973.76-4.326 2.66-5.996 4.028-1.67-3.192-3.188-5.015-5.162-6.231-.987-.608-2.05-1.14-3.34-1.596-.304-.076 0-.988-.152-1.292-.152-.228-.152-.532-.076-.76.228-2.964.607-5.927 1.063-8.967.607-4.18 1.442-8.435 2.353-12.766.531 3.876 1.442 7.599 2.657 11.171 1.594 4.407 3.643 8.587 6.148 12.614.835 1.368 1.67 2.584 2.505 3.799z" fill="#FFCBA8"/><path opacity=".6" d="M221.025 69.721c-.076 1.368-.303 2.736-.607 4.027-.987-2.888-2.353-5.623-4.023-8.131-.456-.608-.911-1.292-1.518-1.672-.683-.38-1.594-.456-2.126.076-.911.836-.455 2.356-.227 3.572.227 1.216.076 2.432-.228 3.724-.987-.608-2.05-1.14-3.34-1.596-.304-.076 0-.988-.152-1.292-.152-.228-.152-.532-.076-.76.228-2.964.607-5.927 1.063-8.967.228-.228.455-.456.759-.684.759-.608 1.594-1.064 2.581-1.14.607-.076 1.214 0 1.746.228 1.518 4.408 3.643 8.587 6.148 12.614z" fill="#FF976B"/><path d="M274.617 214.103c1.822-1.824 1.063-4.56.076-6.991-1.063-2.432-3.037-6.384-4.858-8.283-1.898-1.9-3.796-3.8-5.086-6.156l-1.443-2.811c-2.656-3.952-10.399-6.611-10.399-6.611s.152-.304.455-.836c.76-1.444 2.278-4.256 2.809-4.18.531.076 1.063.228 1.594.38 4.403 1.292 8.046 4.94 9.109 9.423.304 1.216.38 2.508.987 3.572.455.759 1.063 1.367 1.67 2.051 2.809 3.04 4.934 6.611 7.06 10.183.683 1.14 1.366 2.28 1.518 3.572.227 2.355-1.139 6.155-3.492 6.687z" fill="url(#d)"/><path opacity=".612" d="M169.256 132.185c-1.139-2.356-2.581-4.483-4.251-6.459 1.214.076 2.353.152 3.567.152.684 2.052.911 4.179.684 6.307z" fill="#F26033"/><path d="M209.487 137.353c-.227.379-.455.683-.683.987-1.746 2.28-4.175 3.876-6.68 5.32l-.076.076c-8.35 4.863-17.687 3.723-27.327 4.027-.987 0-2.049.076-3.036.152-.456 0-.911-.304-.911-.836l-.152-2.735c-.228-5.32-.228-10.335-2.657-16.034-.303-.76-.683-1.52-1.138-2.356-.076-.076-.076-.152-.076-.228-.076-.38.303-.76.683-.684.379 0 .683.076 1.063 0 .607 0 1.214-.076 1.745-.228.456-.076.835-.228 1.139-.456 3.112-1.824 4.555-3.343 5.769-4.559l.683-.684c1.215-1.14 2.581-1.976 5.693-2.584 1.367-.228 3.568.38 6.073 1.292 4.707 1.748 10.248 4.711 12.829 5.167l.303.076c3.796.76 7.439 3.344 8.274 7.067.532 2.508-.151 5.092-1.518 7.22z" fill="#7B4A56"/><path opacity=".471" d="M98.357 95.634c-.304-.304-.531-.608-.683-.912-.759-1.216-1.215-1.976-1.898-2.66-.759-1.368-1.67-2.736-2.581-4.027-.759-1.064-1.518-2.204-2.581-2.964-1.063-.76-2.429-1.064-3.568-.532-1.518.76-2.201 2.736-2.353 4.559l-.152 1.9c-1.366.76-2.581 1.824-3.568 3.42-.456-.076-.835-.152-1.215-.304-.456-4.483-.759-6.687-.683-8.967.076-2.584.607-5.243 2.201-7.219 1.518-1.9 4.099-3.04 6.376-2.432h.076c.38.152.759.304 1.139.532 1.063.608 2.05 1.368 2.885 2.28 1.974 1.976 3.492 4.331 4.63 6.915 1.366 3.343 2.05 6.915 1.974 10.411z"/><path opacity=".451" d="M248.732 199.741c-10.475 1.975-20.875 4.483-31.35 6.915-5.542 1.292-11.083 2.659-16.776 2.887-1.366.076-2.733.076-4.099 0-2.733-.152-5.466-.532-8.046-1.368-1.595-.076-3.264-1.063-4.251-2.355l-.456-.608 1.139.304c1.063.228 2.201.456 3.34.608 1.29.152 2.581.304 3.947.304 8.122.304 16.7-1.672 24.595-3.952 10.399-3.039 21.254-6.535 31.805-6.003.228 1.064.304 2.204.152 3.268z" fill="#4A0419"/><path d="M251.389 122.838c-1.822 2.508-4.555 4.636-7.591 6.384-3.264 1.975-6.832 3.571-9.868 4.863-4.934 2.204-18.674 7.979-31.882 9.575-5.769.684-11.538.532-16.32-1.064-.759-.228-1.518-.608-2.277-.988-5.238-2.812-9.261-8.663-9.185-14.514.075-2.356.835-4.712 2.505-6.839.075-.152.151-.228.303-.38.228-.304.532-.608.835-.912 1.442-1.368 3.34-2.28 5.542-3.04 3.947-1.368 8.274-.912 11.765.684 2.354 1.064 4.403 2.736 5.694 4.712 7.59-3.116 15.637-4.94 23.759-5.396 1.214-.076 2.429-.076 3.644-.076 5.541 0 11.082.608 16.548 1.976 1.214.304 3.036-2.356 4.782-2.128.531.076.987.38 1.442.988.228.304.456.76.759 1.216l.152.304c.304.836.38 3.268-.607 4.635z" fill="#7B4A56"/><path d="M208.425 68.505c1.062-1.52 1.29-3.572 2.58-4.787.228-.228.532-.456.835-.684 1.291-.912 2.657-1.596 4.099-2.204-.607-1.444-1.29-2.964-2.429-4.104-1.138-1.14-2.808-1.824-4.326-1.292-1.594.532-2.505 2.128-2.885 3.723-.607 2.888.076 6.079 2.126 9.347z" fill="#fff"/><path d="M251.541 121.699c-.38-.304-.684-.608-1.063-.836-.456-.304-.987-.608-1.518-.836-5.845-2.584-15.03-1.368-20.647-4.256-.76-.38-1.443-.836-2.126-1.444-4.478-4.103-4.327-11.018-4.63-17.097-.228-5.319-1.063-9.803-2.885-14.59-1.29-3.268-2.429-5.015-5.086-10.183 1.594-2.204 3.872-3.951 6.453-5.015 1.745 2.508 9.184 16.338 10.475 18.238l13.588 19.15c1.821 2.507 2.884 5.471 4.63 7.979.228.38.531.76.759 1.064.607.911 1.139 1.823 1.594 2.583.304.608.456 1.14.607 1.672.304 1.292.304 2.356-.151 3.572zM221.253 62.73c-.379 1.292-2.884 2.052-4.099 1.52-1.215-.532-2.05-1.748-2.733-2.888-.683-1.14-1.594-2.508-2.657-3.344-.303-.228-1.821.608-1.821 2.888 0 2.204.455 3.951 1.214 6.003.759 2.052 2.353 3.876.38 4.863-1.139.608-2.885.304-5.997 0-1.366-.152-4.099-.684-4.099-.684s-.304-3.268-.152-4.332c.152-2.052.38-4.103 1.518-5.775.456-.684.987-1.216 1.367-1.9.759-1.368.683-3.04.607-4.635-.076-6.687 1.594-13.45 4.706-19.377.683-1.368 1.822-2.66 3.264-2.736 1.291-.076 2.05.608 2.505 1.748.076.152.152.304.152.456.456 1.368-.152 2.888-.304 4.256-.531 4.255-.759 7.599-.227 11.778.455 3.42 2.201 6.535 4.478 9.803.684.76 1.291 1.52 1.898 2.356z" fill="#7B4A56"/><path opacity=".29" d="M221.253 62.73c-.379 1.292-2.884 2.052-4.099 1.52-1.215-.532-2.05-1.748-2.733-2.888-.683-1.14-1.594-2.508-2.657-3.344-.303-.228-1.821.608-1.821 2.888 0 2.204.455 3.951 1.214 6.003.759 2.052 2.353 3.876.38 4.863-1.139.608-2.885.304-5.997 0-1.366-.152-4.099-.684-4.099-.684s-.304-3.268-.152-4.332c.152-2.052.38-4.103 1.518-5.775.456-.684.987-1.216 1.367-1.9.759-1.368.683-3.04.607-4.635-.076-6.687 1.594-13.45 4.706-19.377.683-1.368 1.822-2.66 3.264-2.736 1.291-.076 2.05.608 2.505 1.748-2.201.684-4.251 2.432-5.389 4.559-1.67 3.116-1.974 6.687-2.126 10.259-.151 3.496-.227 7.143-1.594 10.335-.379.836-.759 1.672-.835 2.584-.076.912.456 1.976 1.367 2.128 1.062.228 1.973-.76 2.201-1.824.228-1.064.076-2.128.152-3.192s.607-2.204 1.67-2.508c.683-.152 1.366.152 1.973.456 1.215.684 2.278 1.672 3.037 2.812.379.608.835 1.292 1.518 1.52.759.152 1.366-.304 2.049-.836.76.76 1.367 1.52 1.974 2.356z"/><path d="M212.979 32.258c-2.96 1.444-4.403 4.863-5.162 8.055-.151.684-.303 1.292-.379 1.976-.38 2.052-.607 4.179-.607 6.231-.076 2.964.227 6.003-1.063 8.663-.532 1.14-1.367 2.204-1.974 3.344-1.822 3.344-1.442 6.991-1.138 10.791-1.67 0-4.631-.608-4.859-.76-.151-.152-.759-7.143 2.429-14.742.228-.456 1.898-2.584 1.974-3.04.076-.532.228-2.052.228-2.584.683-6.687 1.822-11.398 5.465-16.034.532-.684 1.367-1.216 2.202-1.596.986-.456 2.049-.608 2.884-.304z" fill="url(#e)"/><path d="M115.285 108.78c-4.783-2.507-8.123-.152-16.852-13.754-.228-.38-.455-.76-.683-1.064-1.518-2.66-2.657-5.547-4.63-7.827-2.353-2.736-4.858-4.559-6.604-3.951-5.389 1.976-3.947 6.687-5.389 15.578-1.366 8.131-20.344 8.662-17.383 20.441-.304-.304-.531-.608-.759-.912l-.759-.912c-2.657-3.343-4.251-6.763-3.568-10.258 1.366-7.295 9.261-6.612 12.373-16.11 3.036-9.119.076-12.159 5.01-18.694.531-.76 5.997-5.623 11.766-3.724.076 0 .076 0 .152.076 2.961.988 3.947 2.812 6.149 4.484.228-.228.456-.456.759-.684l.759-.456c.228-.076.456-.228.759-.228.456-.152.987-.152 1.442-.076 1.215.152 2.429.836 3.34 2.128 2.429 3.724 2.808 7.751 1.594 11.019.683-1.748 1.518-2.812 2.657-3.268.151-.076.303-.152.531-.152.759-.152 1.594-.152 2.657.152l.683.228c1.442.456 2.505 1.14 3.264 1.9 4.327 4.331.076 12.386-.152 15.122-.455 5.243 1.594 8.435 2.733 10.638l.076.152c0-.076.076 0 .076.152z" fill="#863C26"/><path opacity=".839" d="M99.875 92.822h-.076c.304-1.976.456-3.875.608-5.851.151-3.267-.076-6.611-1.215-9.727-.759-2.28-1.974-4.483-3.568-6.307.228-.076.456-.228.759-.228.683.836 1.366 1.748 1.822 2.736 3.112 5.851 2.809 12.994 1.67 19.377z" fill="#D3B8AA"/><path opacity=".722" d="M98.357 91.606c0 .076-.228.076-.228.076-.076-.684-.228-1.368-.379-2.052-.531-2.66-1.442-5.319-2.581-7.827-1.215-2.508-2.733-4.939-4.555-6.991-1.67-1.824-4.023-3.496-6.528-2.736-2.201.608-4.023 2.584-4.934 4.635-2.429 5.091-1.518 10.943-3.796 16.11-.455 1.14-1.139 2.204-1.974 3.116-.911.988-1.974 1.672-3.112 2.28-1.215.608-2.505 1.14-3.72 1.823-1.139.684-2.049 1.596-2.809 2.66-1.518 2.128-2.201 4.787-2.201 7.371 0 2.432.531 4.863 1.442 7.143l-.759-.912c-.987-2.659-1.518-5.547-1.139-8.359.38-2.507 1.518-4.939 3.34-6.687.987-.912 2.125-1.596 3.34-2.204 1.215-.608 2.581-1.14 3.644-2.052 1.974-1.596 3.112-4.028 3.644-6.459 1.29-5.319.228-11.779 4.251-16.11 1.746-1.9 4.327-3.192 6.908-2.964 2.733.228 4.63 2.356 6.148 4.407 1.67 2.28 3.112 4.787 4.099 7.447.987 2.66 1.594 5.471 1.898 8.283z" fill="#D3B8AA"/><path opacity=".788" d="M115.209 108.476c-1.67-.684-3.037-2.128-3.872-3.723-2.353-4.408-1.138-9.651-.531-14.287.304-2.28.683-4.863-.304-6.991-.759-1.672-2.505-3.42-4.478-3.192.759-.152 1.594-.152 2.657.152 1.138.608 2.049 1.596 2.505 2.888.835 2.28.531 4.787.151 7.143-.455 2.584-1.062 5.167-1.062 7.751-.076 2.355.303 4.787 1.442 6.84.835 1.443 2.049 2.659 3.492 3.343-.076 0-.076.076 0 .076z" fill="#D3B8AA"/><path opacity=".561" d="M115.285 108.78c-4.783-2.508-8.123-.152-16.852-13.754-.228-.38-.455-.76-.683-1.064-1.215-5.775-.835-12.007-3.036-17.554-1.366-3.496-3.795-6.535-6.832-8.739 2.96.988 3.947 2.812 6.149 4.483.228-.228.456-.456.759-.684.38.456.835.912 1.139 1.444 2.961 3.951 4.403 8.967 4.023 13.906 1.594-5.395.683-11.399-2.201-16.11 1.215.152 2.429.836 3.34 2.128 2.429 3.724 2.808 7.751 1.594 11.019.683-1.748 1.518-2.812 2.657-3.267 0 1.292-.076 2.66-.228 3.951-.228 1.824-.607 3.648-.456 5.471.228 2.584 1.519 5.091 3.492 6.763.456.38.987.76 1.518.684.987-.152 1.367-1.292 1.595-2.28.91-4.103 1.745-8.435 1.062-12.462 4.327 4.331.076 12.386-.152 15.122-.303 5.395 2.05 8.662 3.113 10.942z" fill="#4A0419"/><path d="M97.674 97.762c-.076-1.368-.152-2.736 0-4.103.076-1.064.456-2.28 1.442-2.66 1.063-.38 2.126.304 2.885 1.14 1.442 1.52 2.353 3.496 2.656 5.547.152.988.076 2.128-.683 2.659-.683.532-1.67.38-2.505.228-.607-.076-1.138-.228-1.67-.456-.911-.456-2.05-1.14-2.126-2.355z" fill="#FFCBA8"/><path opacity=".69" d="M99.647 95.482c.456 1.292.835 2.432 1.898 3.42l.152.152.228-.076c.303-.228.683-.836.531-1.292-.076-.38-.531-1.064-.987-.836-.076 0-.303.304-.303.304s-.152-.456-.152-.532c-.152-.76-.683-1.292-1.139-1.292-.152-.076-.304 0-.228.152z" fill="#FF976B"/><path opacity=".722" d="M110.654 210.151c.076 2.28-1.746 2.66-4.023 2.964-2.201.228-4.479-.228-6.68-.608-5.541-.912-12.677 1.216-15.258-.304-.759-.456-1.063-.912-1.139-1.292 1.215.152 2.505.076 3.719-.076 1.518-.228 3.036-.608 4.555-.684 3.719-.152 7.287 1.596 11.007 1.596 3.188 0 6.528-1.9 7.742-4.787l.076 3.191z" fill="#FF976B"/><path opacity=".502" d="M103.822 130.665c.532 3.42 2.202 6.764 1.519 10.183-.304 1.444-.304 3.8-.684 5.243-1.062 4.256.152 7.599.835 11.931.228 1.292.304 2.66 0 3.951-.227 1.064-.835 2.052-1.214 3.04-2.277 5.091-2.126 10.943-1.291 16.49.911 5.547 2.43 10.942 2.961 16.49.152 1.824.152 3.723-.304 5.471-.076-1.596-.455-3.116-.911-4.711-2.277-8.739-3.795-15.426-3.871-24.469 0-4.636 1.746-10.487 1.67-15.122 0-6.687 0-17.554.835-24.241-1.746-3.496-2.505-12.387-1.594-14.742.911-2.356.911-3.42 4.251-5.396 2.505-1.519 9.185-4.255 11.917-3.115.76.304 1.519.684 2.126 1.064-6.225 5.395-10.096 3.343-13.588 5.471-2.201 1.444-3.416 7.523-2.657 12.462z" fill="#FF976B"/><path opacity=".31" d="M123.331 121.699c-1.139 4.407-4.403 8.738-4.555 12.386-.151 6.155-.379 12.386-1.973 18.238-.456 1.595-.987 3.267-1.518 4.863.076-7.523-.38-15.046-1.443-22.493-.151-1.064-.303-2.204 0-3.192.228-.76.684-1.444 1.139-2.127 2.581-3.952 4.555-8.359 5.769-12.995 1.139 1.672 2.05 3.42 2.581 5.32z" fill="#FF976B"/><path d="M174.721 147.763c-.987 0-2.049.076-3.036.152-.456 0-.911-.304-.911-.836-.456-6.459 0-12.082-2.809-18.769-.379-.912-.759-1.748-1.214-2.584-.076-.38.303-.76.683-.684.987.076 1.973 0 2.808-.228 3.416 6.991 4.024 15.046 4.479 22.949z" fill="url(#f)"/><path opacity=".302" d="M251.389 122.838c-1.822 2.508-4.555 4.636-7.591 6.384-3.264 1.975-6.832 3.571-9.868 4.863-4.934 2.204-18.674 7.979-31.882 9.575l-.076.076c-8.35 4.863-17.686 3.723-27.327 4.027-.987 0-2.049.076-3.036.152-.456 0-.911-.304-.911-.836l-.152-2.735c2.809-.988 5.39-3.192 8.426-3.268 1.518-.076 3.036.38 4.479.532.683.076 1.366.076 2.049 0 1.291-.228 2.429-.912 3.644-1.444 3.643-1.596 7.818-1.596 11.841-1.824 2.809-.152 5.694-.532 8.502-.987 4.479-.76 8.957-1.824 13.36-3.04 3.416-.988 6.832-2.052 9.944-3.876 3.416-2.051 6.452-5.091 11.007-5.395 1.214-.304 2.429-.76 3.568-1.368.911-.532 1.746-1.14 2.429-1.824.227-.227.455-.531.683-.835.607-.76.987-1.672 1.29-2.584.076-.152.076-.304.076-.456l.152.304c.304.76.38 3.192-.607 4.559z" fill="#4A0419"/><path opacity=".522" d="M177.985 118.963l-.152.228c-.683 1.064-1.29 2.204-1.821 3.343-.684 1.52-1.215 3.04-1.594 4.56-.608 2.508-.911 4.939-.987 7.751-.911-2.812-2.429-6.611-4.858-9.803.607 0 1.214-.076 1.745-.228.456-.076.835-.228 1.139-.456 3.112-1.824 4.555-3.343 5.769-4.559.152-.304.456-.608.759-.836z" fill="#4A0419"/><path opacity=".169" d="M224.669 115.923c-4.63.532-9.109 2.204-13.512 3.8-2.808 1.064-5.693 2.128-8.426 3.343-4.023 1.824-7.818 4.028-10.931 7.143-1.669 1.672-3.112 3.572-5.237 4.56-2.126.912-5.162.38-5.921-1.824-.38-1.216 0-2.508.379-3.723 1.063-3.344 2.43-6.764 5.01-9.119 1.063-.988 2.278-1.672 3.568-2.28 1.67-.684 3.568-1.14 5.39-1.216h.303c2.353 1.064 4.403 2.736 5.693 4.712 7.515-3.116 15.562-4.94 23.684-5.396z" fill="#4A0419"/><path opacity=".769" d="M196.735 209.315l-.228.304c-2.733-.152-5.466-.532-8.046-1.368-1.595-.076-3.264-1.063-4.251-2.355l-.456-.608c-.911-1.52-1.138-3.344-1.746-5.016 1.063 1.52 2.278 2.964 3.644 4.104.835.684 1.67 1.292 2.581 1.824l.911.456c.607.304 1.29.608 1.973.836.759.304 1.519.531 2.278.759l3.34 1.064z" fill="#4A0419"/><path opacity=".459" d="M229.224 115.011c-1.898-1.975-3.644-4.179-4.555-6.687-1.063-2.811-.987-5.927-.911-8.891.076-3.04 0-6.079-.607-9.043-.304-1.444-.835-2.812-1.291-4.255-.455-1.444-1.062-2.812-1.594-4.179-1.29-3.116-2.96-6.079-4.554-8.967-.076-.076-.38 0-.38.076 1.442 2.66 2.885 5.319 4.175 8.055.607 1.368 1.215 2.736 1.67 4.18.456 1.444.759 2.888.987 4.331.228 1.52.304 3.04.304 4.559 0 1.52 0 3.04.076 4.635.151 2.964.531 6.004 1.594 8.891 1.062 2.888 2.581 5.624 5.086 7.523-.152-.076 0-.152 0-.228z" fill="#fff"/><path opacity=".4" d="M185.728 202.172c-.607-1.064-1.215-2.127-1.746-3.191-1.063-2.204-1.974-4.484-2.657-6.839-1.518-4.788-2.429-9.651-3.264-14.591-.228-1.367-.455-2.811-.607-4.179-.228-1.368-.304-2.812-.456-4.18 0-.076-.379 0-.379.076l.304 3.724c.075 1.292.151 2.508.303 3.8.228 2.507.607 5.015 1.063 7.523.455 2.431 1.063 4.863 1.822 7.219.759 2.355 1.594 4.635 2.732 6.839 1.291 2.431 2.657 4.863 4.555 6.991.076.076.304 0 .304-.076-.684-1.064-1.367-2.052-1.974-3.116z" fill="#fff"/><path opacity=".2" d="M274.617 214.103c1.822-1.824.607-6.232-.683-8.587-1.594-2.964-2.353-4.788-4.175-6.687-1.898-1.9-3.796-3.8-5.086-6.156l-1.442-2.811c-2.657-3.952-10.4-6.611-10.4-6.611s.152-.304.456-.836c3.491.152 6.831 2.431 9.184 5.091 2.733 3.116 4.707 6.839 7.667 9.727-.455-2.888-2.884-5.091-4.099-7.827l-1.214-3.268c-1.367-3.267-3.948-5.775-7.06-7.599 4.403 1.292 8.046 4.94 9.109 9.423.304 1.216.38 2.508.987 3.572.455.759 1.063 1.367 1.67 2.051 2.809 3.04 4.934 6.611 7.06 10.183.683 1.14 1.366 2.28 1.518 3.572.227 2.431-1.139 6.231-3.492 6.763z" fill="#4A0419"/><path opacity=".259" d="M207.058 43.049c.076-.304.228-.532.304-.76-.38 2.052-.607 4.179-.607 6.231-.076 2.964.227 6.003-1.063 8.663-.531 1.14-1.366 2.204-1.974 3.344-1.822 3.344-1.442 6.991-1.138 10.791-1.67 0-4.631-.608-4.859-.76-.151-.152-.759-7.143 2.43-14.742.227-.456 1.897-2.584 1.973-3.04.076-.532.228-2.052.228-2.584.683-6.687 1.822-11.398 5.465-16.034.532-.684 1.367-1.216 2.202-1.596-3.34 3.724-5.542 8.435-6.301 13.45-.531 3.648-.303 7.523-1.822 10.867-.151.38-.379.76-.379 1.14 0 .38.304.836.683.912.38 0 .683-.304.911-.684 3.036-4.407 2.125-10.335 3.947-15.198z" fill="#4A0419"/><path d="M214.27 43.124c-.532.152-1.063.38-1.595.684l-.683.456-.303.304c-.076.076-.152.228-.152.38s.152.152.228.152c.075-.076.151-.152.227-.304l.228-.304c.152-.152.38-.304.607-.456.456-.228.987-.456 1.443-.608.379-.076.227-.38 0-.304zM215.18 45.632c-.759-.532-1.745-.836-2.656-.988-.152 0-.228 0-.304.152 0 .076 0 .228.152.304.455.076.911.152 1.366.304.228.076.532.228.759.38-.455.228-.835.684-1.214 1.14-.304.304-.532.608-.759.912-.228.304-.532.684-.684 1.064-.075.152.076.304.228.152l.683-.912c.228-.304.456-.608.684-.836.227-.304.455-.532.759-.76.227-.228.531-.456.835-.456.227-.076.303-.38.151-.456zM214.953 50.04c-.456-.228-.835-.608-1.215-.836-.455-.304-.911-.456-1.442-.38-.304.076-.152.456.152.38.455-.076.911.152 1.214.38.304.228.532.456.835.608-.455.304-.911.684-1.29 1.14-.228.228-.456.532-.608.76-.227.304-.455.532-.531.912-.076.152.228.304.304.152.227-.228.379-.532.531-.76l.607-.76c.456-.456.911-.912 1.443-1.292.151 0 .151-.228 0-.304zM217.002 55.967l-.607.076-.607.076c-.456.076-.835.076-1.291.076h-1.746c.38-.228.759-.456 1.139-.76.607-.456 1.063-.912 1.594-1.444.076-.076.076-.152 0-.228h.304c.303 0 .303-.456 0-.456-1.063.076-2.05 0-3.037-.38-.227-.076-.379.304-.152.38.76.228 1.595.38 2.43.38-.911.988-1.974 1.9-3.189 2.432-.227.076-.076.38.076.38.835.076 1.746.076 2.581.076.456 0 .835 0 1.291-.076l.607-.076c.228 0 .455-.076.683-.152.228-.076.076-.304-.076-.304zM217.382 56.879c-.152 0-.228.076-.304.152-.076.076-.152.152-.304.228-.227.152-.379.304-.607.38-.303.152-.683.304-.987.38l.38-.228 1.366-.988c.152-.152-.076-.38-.227-.228-.456.38-.835.684-1.291.988l-.683.456-.38.228c-.075.076-.227.152-.379.228-.304.076-.076.532.228.304.076-.076.227-.152.379-.228l.228-.152c0 .076.076.152.228.152.455-.076.986-.228 1.442-.456.228-.076.455-.228.607-.38l.304-.228c.076-.076.227-.152.227-.304-.075-.228-.151-.304-.227-.304zM265.356 202.172c-.076-.228-.379-.152-.379 0-.228.532-.456.988-.835 1.368l-.532.608-.303.228s-.152.152-.152.076c0-.152-.152-.228-.228-.228.076-.456.076-.988 0-1.444-.076-.608-.152-1.216-.38-1.824-.075-.152-.303-.152-.303 0l-.304.988-.455.912c-.152.304-.304.608-.532.836-.076.152-.227.304-.455.456.228-1.52-.076-3.04-.683-4.407-.076-.152-.38-.152-.38.076-.303 1.139-.759 2.279-1.366 3.267-.152.228.228.456.379.228.532-.836.987-1.824 1.291-2.736.455 1.216.607 2.584.455 3.952 0 .076.076.152.228.152.304-.076.607-.228.835-.532.228-.304.455-.608.607-.912l.456-.988.152-.456c.075.38.151.76.151 1.14v1.748c0 .152.228.228.304.152.076.076.076.152.152.152.152.076.379 0 .531-.076.304-.152.532-.456.835-.684.304-.38.607-.76.835-1.216.076.38.076.836.076 1.216 0 .304-.076.608-.152.912-.076.304-.227.608-.227.912 0 .228.227.228.379.076.152-.228.228-.608.304-.912.076-.304.152-.684.152-.988-.228-.684-.304-1.368-.456-2.052zM268.924 204.832c0-.076-.152-.076-.228-.076-.152 0-.152.152-.228.228l-.152.228c-.076.152-.151.304-.303.456-.228.304-.532.532-.759.76l-.076.076.076-.304c.076-.304.151-.608.151-.912 0-.608-.075-1.216-.303-1.748-.076-.228-.304-.152-.38 0-.152.38-.303.684-.455.988-.228.304-.456.608-.683.836-.228.228.076.456.303.304.456-.38.835-.912 1.063-1.444.076.304.076.684.076 1.064 0 .304-.076.532-.152.76 0 .152-.076.304-.152.38-.076.152-.152.304-.152.38-.075.228.228.38.38.152l.228-.456v.152c.076.076.227.152.303.076.304-.228.608-.532.911-.836.152-.152.228-.304.38-.532.076-.076.303-.304.152-.532z" fill="#fff"/><path d="M228.085 115.619c-2.505 19.834-6.149 28.573-11.235 40.351-6.756 15.426-16.624 28.952-24.063 37.767-4.858 5.776-8.577 9.575-9.64 10.639-.152.152-.38.076-.456-.076-.455-1.14-1.67-4.559-2.277-6.459-.076-.304 0-.684.228-.912 12.525-12.69 18.598-23.329 24.594-33.132 4.858-8.131 9.944-20.213 15.182-37.539.987-3.268 1.974-6.687 3.036-10.335l4.631-.304z" fill="#F2BE11"/><path opacity=".271" d="M228.085 115.619c-2.505 19.834-6.149 28.573-11.235 40.351-6.756 15.426-16.624 28.952-24.063 37.767 14.878-22.189 30.136-50.989 31.654-66.795.228-2.28-1.594-1.976-3.947-.684.987-3.268 1.974-6.687 3.036-10.335 1.746-.076 2.733-.228 4.555-.304z" fill="#E84D00"/><path opacity=".502" d="M184.817 200.88s-.076.076-.152 0c-.455-.532-.835-1.139-1.138-1.747-.228-.38-.38-.76-.532-1.216l-.303-.608c0-.076.075-.076.075-.076s0 .076.076.076c0-.076 0-.076-.076-.152 0-.076.152-.152.152-.076.304.608.608 1.216.987 1.824l.911 1.975zm-1.139-1.975c.228.38.456.836.759 1.215l-.607-1.139-.455-.912c.076.304.152.608.303.836z" fill="#fff"/></g><defs><linearGradient id="a" x1="497.211" y1="427.823" x2="11.992" y2="69.306" gradientUnits="userSpaceOnUse"><stop stop-color="#B0BBA7"/><stop offset="1" stop-color="#F3F2EE"/></linearGradient><linearGradient id="c" x1="147.221" y1="122.075" x2="143.571" y2="148.723" gradientUnits="userSpaceOnUse"><stop stop-color="#EDEDED"/><stop offset="1" stop-color="#EBDBCA"/></linearGradient><linearGradient id="d" x1="252.799" y1="196.163" x2="278.055" y2="196.163" gradientUnits="userSpaceOnUse"><stop stop-color="#EDEDED"/><stop offset="1" stop-color="#EBDBCA"/></linearGradient><linearGradient id="e" x1="197.638" y1="51.691" x2="212.991" y2="51.691" gradientUnits="userSpaceOnUse"><stop stop-color="#EDEDED"/><stop offset="1" stop-color="#EBDBCA"/></linearGradient><linearGradient id="f" x1="169.263" y1="124.33" x2="172.776" y2="149.665" gradientUnits="userSpaceOnUse"><stop stop-color="#EDEDED"/><stop offset="1" stop-color="#EBDBCA"/></linearGradient><clipPath id="b"><path fill="#fff" d="M293.67 32.106h-236v188h236z"/></clipPath></defs></svg>