<svg width="139" height="13" viewBox="0 0 139 13" xmlns="http://www.w3.org/2000/svg" fill="none"><path d="M.52 12c-.117 0-.213-.037-.288-.112-.075-.085-.112-.181-.112-.288v-10.4c0-.117.037-.213.112-.288.075-.075.171-.112.288-.112h4.48c.885 0 1.653.139 2.304.416.661.267 1.173.672 1.536 1.216.373.544.56 1.232.56 2.064 0 .821-.187 1.499-.56 2.032-.363.533-.875.928-1.536 1.184-.651.256-1.419.384-2.304.384h-1.904v3.504c0 .107-.043.203-.128.288-.075.075-.171.112-.288.112h-2.16zm2.528-6.112h1.872c.459 0 .821-.117 1.088-.352.277-.235.416-.592.416-1.072 0-.405-.117-.747-.352-1.024s-.619-.416-1.152-.416h-1.872v2.864zm9.005 6.112c-.117 0-.213-.037-.288-.112-.075-.085-.112-.181-.112-.288v-10.4c0-.117.037-.213.112-.288.075-.075.171-.112.288-.112h4.352c1.387 0 2.475.32 3.264.96.789.629 1.184 1.525 1.184 2.688 0 .757-.181 1.397-.544 1.92-.363.523-.843.917-1.44 1.184l2.192 3.936.048.176c0 .085-.037.165-.112.24-.064.064-.139.096-.224.096h-2.128c-.203 0-.352-.048-.448-.144-.096-.107-.165-.203-.208-.288l-1.824-3.52h-1.632v3.552c0 .107-.043.203-.128.288-.075.075-.171.112-.288.112h-2.064zm2.48-6.224h1.84c.501 0 .875-.123 1.12-.368.256-.245.384-.576.384-.992 0-.416-.123-.752-.368-1.008-.235-.256-.613-.384-1.136-.384h-1.84v2.752zm13.432 6.384c-.981 0-1.835-.16-2.56-.48-.725-.32-1.291-.8-1.696-1.44-.405-.651-.629-1.461-.672-2.432-.011-.459-.016-.917-.016-1.376 0-.469.005-.933.016-1.392.043-.96.267-1.765.672-2.416.416-.661.987-1.157 1.712-1.488.736-.331 1.584-.496 2.544-.496.971 0 1.819.165 2.544.496.725.331 1.296.827 1.712 1.488.416.651.64 1.456.672 2.416.021.459.032.923.032 1.392 0 .459-.011.917-.032 1.376-.032.971-.256 1.781-.672 2.432-.405.64-.971 1.12-1.696 1.44-.725.32-1.579.48-2.56.48zm0-2.304c.565 0 1.024-.171 1.376-.512.363-.341.555-.885.576-1.632.021-.469.032-.912.032-1.328 0-.416-.011-.848-.032-1.296-.021-.501-.117-.907-.288-1.216-.16-.32-.384-.555-.672-.704-.288-.149-.619-.224-.992-.224-.363 0-.688.075-.976.224-.288.149-.517.384-.688.704-.171.309-.267.715-.288 1.216-.011.448-.016.88-.016 1.296 0 .416.005.859.016 1.328.032.747.224 1.291.576 1.632.363.341.821.512 1.376.512z" fill="#85B921"/><path d="M36.235 12c-.107 0-.192-.032-.256-.096s-.096-.149-.096-.256v-10.48c0-.117.032-.208.096-.272.064-.064.149-.096.256-.096h6.176c.117 0 .208.032.272.096.064.064.096.155.096.272v.24c0 .107-.032.192-.096.256s-.155.096-.272.096h-5.52v4.304h5.2c.117 0 .208.032.272.096.064.064.096.155.096.272v.24c0 .107-.032.192-.096.256s-.155.096-.272.096h-5.2v4.624c0 .107-.032.192-.096.256s-.155.096-.272.096h-.288zm9.845 0c-.107 0-.192-.032-.256-.096s-.096-.149-.096-.256v-10.496c0-.107.032-.192.096-.256s.149-.096.256-.096h.304c.107 0 .192.032.256.096s.096.149.096.256v10.496c0 .107-.032.192-.096.256s-.149.096-.256.096h-.304zm7.184 0c-.107 0-.192-.032-.256-.096s-.096-.149-.096-.256v-9.888h-3.168c-.107 0-.192-.032-.256-.096s-.096-.149-.096-.256v-.24c0-.117.032-.208.096-.272.064-.064.149-.096.256-.096h7.328c.117 0 .208.032.272.096.064.064.096.155.096.272v.24c0 .107-.032.192-.096.256s-.155.096-.272.096h-3.152v9.888c0 .107-.032.192-.096.256s-.155.096-.272.096h-.288zm7.178 0c-.107 0-.192-.032-.256-.096s-.096-.149-.096-.256v-10.48c0-.117.032-.208.096-.272.064-.064.149-.096.256-.096h.336c.107 0 .187.027.24.08l.096.112 5.904 9.024v-8.848c0-.117.032-.208.096-.272.064-.064.149-.096.256-.096h.288c.117 0 .208.032.272.096.064.064.096.155.096.272v10.464c0 .107-.032.197-.096.272-.064.064-.149.096-.256.096h-.352c-.107 0-.187-.027-.24-.08l-.096-.112-5.888-8.992v8.832c0 .107-.032.192-.096.256s-.155.096-.272.096h-.288zm11.658 0c-.107 0-.192-.032-.256-.096s-.096-.149-.096-.256v-10.48c0-.117.032-.208.096-.272.064-.064.149-.096.256-.096h6.24c.117 0 .208.032.272.096.064.064.096.155.096.272v.24c0 .107-.032.192-.096.256s-.155.096-.272.096h-5.584v4.08h5.232c.117 0 .208.032.272.096.064.064.096.155.096.272v.24c0 .107-.032.192-.096.256s-.155.096-.272.096h-5.232v4.24h5.712c.117 0 .208.032.272.096.064.064.096.155.096.272v.24c0 .107-.032.192-.096.256s-.155.096-.272.096h-6.368zm13.197.16c-.864 0-1.6-.139-2.208-.416-.597-.277-1.056-.635-1.376-1.072-.32-.437-.491-.901-.512-1.392 0-.085.032-.16.096-.224s.144-.096.24-.096h.32c.107 0 .187.032.24.096.064.064.101.139.112.224.043.299.176.597.4.896.224.288.555.533.992.736.437.192 1.003.288 1.696.288 1.045 0 1.808-.187 2.288-.56.48-.384.72-.896.72-1.536 0-.427-.128-.768-.384-1.024-.245-.267-.624-.501-1.136-.704-.512-.213-1.168-.448-1.968-.704-.757-.245-1.381-.496-1.872-.752-.491-.267-.853-.587-1.088-.96-.224-.373-.336-.853-.336-1.44 0-.544.144-1.029.432-1.456.288-.437.704-.784 1.248-1.04.555-.256 1.227-.384 2.016-.384.629 0 1.179.085 1.648.256.469.171.859.4 1.168.688.309.277.544.581.704.912.16.32.245.635.256.944 0 .075-.027.149-.08.224-.053.064-.139.096-.256.096h-.32l-.208-.064c-.075-.043-.123-.128-.144-.256-.064-.533-.347-.971-.848-1.312-.491-.352-1.131-.528-1.92-.528-.789 0-1.435.155-1.936.464-.501.309-.752.795-.752 1.456 0 .427.112.779.336 1.056.224.267.576.507 1.056.72.48.203 1.099.427 1.856.672.8.256 1.461.512 1.984.768.523.256.912.571 1.168.944.256.363.384.837.384 1.424 0 .651-.165 1.205-.496 1.664-.32.448-.779.795-1.376 1.04-.597.235-1.312.352-2.144.352zm10.407 0c-.864 0-1.6-.139-2.208-.416-.597-.277-1.056-.635-1.376-1.072-.32-.437-.491-.901-.512-1.392 0-.085.032-.16.096-.224s.144-.096.24-.096h.32c.107 0 .187.032.24.096.064.064.101.139.112.224.043.299.176.597.4.896.224.288.555.533.992.736.437.192 1.003.288 1.696.288 1.045 0 1.808-.187 2.288-.56.48-.384.72-.896.72-1.536 0-.427-.128-.768-.384-1.024-.245-.267-.624-.501-1.136-.704-.512-.213-1.168-.448-1.968-.704-.757-.245-1.381-.496-1.872-.752-.491-.267-.853-.587-1.088-.96-.224-.373-.336-.853-.336-1.44 0-.544.144-1.029.432-1.456.288-.437.704-.784 1.248-1.04.555-.256 1.227-.384 2.016-.384.629 0 1.179.085 1.648.256.469.171.859.4 1.168.688.309.277.544.581.704.912.16.32.245.635.256.944 0 .075-.027.149-.08.224-.053.064-.139.096-.256.096h-.32l-.208-.064c-.075-.043-.123-.128-.144-.256-.064-.533-.347-.971-.848-1.312-.491-.352-1.131-.528-1.92-.528-.789 0-1.435.155-1.936.464-.501.309-.752.795-.752 1.456 0 .427.112.779.336 1.056.224.267.576.507 1.056.72.48.203 1.099.427 1.856.672.8.256 1.461.512 1.984.768.523.256.912.571 1.168.944.256.363.384.837.384 1.424 0 .651-.165 1.205-.496 1.664-.32.448-.779.795-1.376 1.04-.597.235-1.312.352-2.144.352zm12.245-.16c-.107 0-.192-.032-.256-.096s-.096-.149-.096-.256v-10.496c0-.107.032-.192.096-.256s.149-.096.256-.096h.304c.107 0 .192.032.256.096s.096.149.096.256v9.888h5.52c.117 0 .208.032.272.096.064.064.096.155.096.272v.24c0 .107-.032.192-.096.256s-.155.096-.272.096h-6.176zm9.485 0c-.106 0-.192-.032-.256-.096s-.096-.149-.096-.256v-10.496c0-.107.032-.192.096-.256s.15-.096.256-.096h.304c.107 0 .192.032.256.096s.096.149.096.256v10.496c0 .107-.032.192-.096.256s-.149.096-.256.096h-.304zm4.736 0c-.107 0-.192-.032-.256-.096s-.096-.149-.096-.256v-10.48c0-.117.032-.208.096-.272.064-.064.149-.096.256-.096h6.176c.117 0 .208.032.272.096.064.064.096.155.096.272v.24c0 .107-.032.192-.096.256s-.155.096-.272.096h-5.52v4.304h5.2c.117 0 .208.032.272.096.064.064.096.155.096.272v.24c0 .107-.032.192-.096.256s-.155.096-.272.096h-5.2v4.624c0 .107-.032.192-.096.256s-.155.096-.272.096h-.288zm9.845 0c-.107 0-.192-.032-.256-.096s-.096-.149-.096-.256v-10.48c0-.117.032-.208.096-.272.064-.064.149-.096.256-.096h6.24c.117 0 .208.032.272.096.064.064.096.155.096.272v.24c0 .107-.032.192-.096.256s-.155.096-.272.096h-5.584v4.08h5.232c.117 0 .208.032.272.096.064.064.096.155.096.272v.24c0 .107-.032.192-.096.256s-.155.096-.272.096h-5.232v4.24h5.712c.117 0 .208.032.272.096.064.064.096.155.096.272v.24c0 .107-.032.192-.096.256s-.155.096-.272.096h-6.368z" fill="#0A0A0A"/></svg>