<svg width="96" height="90" viewBox="0 0 96 90" xmlns="http://www.w3.org/2000/svg" fill="none"><mask id="a" style="mask-type:alpha" maskUnits="userSpaceOnUse" x="0" y="0" width="96" height="90"><rect x=".066" width="95" height="90" rx="20" fill="#C4C4C4"/></mask><g mask="url(#a)"><path d="M96.019.041h-100.073v100.598h100.073v-100.598z" fill="url(#b)"/><path d="M41.895 10.638c.312-.039.644-.078.957-.137l-.957.137z" fill="url(#c)"/><path d="M33.504.001c.957 1.57 2.655 5.24.898 10.48 2.811.157 5.642.196 8.453-.039.351-3.12.078-6.516-1.035-10.441h-8.317z" fill="url(#d)"/><path d="M54.277 101.464c.937-8.459 3.182-21.156 2.714-27.534-.469-6.398-11.128-19.547-11.128-19.547l-1.562-2.551s-20.343-9.891-12.924-19.919c6.54-8.851 12.69-15.896 11.479-26.788-4.022.805-6.54 1.707-7.751 2.237-.156 1.511-.586 3.219-1.484 5.083-3.826 8.086-11.596 12.972-16.926 20.489-5.33 7.536-6.735 16.74-1.972 27.73 0 0 5.33 13.541 6.442 17.584 2.714 10.814 5.134 34.501 5.525 39.761.371 5.26.098 10.146-1.581 14.954-1.679 4.789-6.364 15.701-3.358 34.227 2.226 13.816 6.911 26.631 9.176 32.793 7.965 1.983 13.236-1.923 14.193-2.688-.039-.53-.059-1.06-.078-1.629-.371-9.675 1.113-33.657.468-44.746-.664-11.088.273-16.74 2.05-21.332 1.757-4.612 5.779-19.665 6.716-28.123z" fill="url(#e)"/><path opacity=".17" d="M54.276 101.463c.937-8.458 3.182-21.156 2.714-27.534-.137-1.747-1.015-3.984-2.226-6.339-6.872-2.728-14.232-2.061-16.926-.864-4.061 1.825-8.004 2.257-8.004 2.257-8.336.628-13.334-5.652-15.364-8.929l.254.628.898 2.316c7.399 12.482 21.553 8.282 25.848 8.537 4.764.275 4.627 12.403 4.9 27.495.273 15.092-7.145 21.43-10.523 23.687-3.358 2.257-3.514 6.339-.84 8.184 2.675 1.825 6.735 6.064 8.688 16.917 1.093 6.064 1.406 20.803 1.464 32.617.293-10.421.722-22.53.312-29.516-.664-11.088.273-16.741 2.05-21.333 1.796-4.612 5.818-19.664 6.755-28.123z" fill="#1C5605"/><path opacity=".46" d="M47.928 128.527c1.913-5.515 5.486-19.155 6.345-27.063.937-8.459 3.182-21.156 2.714-27.535-.234-3.238-3.085-8.184-5.818-12.305l-6.755-1.511-4.49 4.239c-9.117 8.733-21.319 2.257-21.319 2.257 4.92 5.711 13.002 5.417 19.62 3.768 2.772-.687 5.837-.746 8.551.216 5.212 1.845 6.247 6.888 6.716 11.795.586 6.418.078 12.933-.664 19.311-1.718 14.503-4.275 24.492-4.9 26.828z" fill="#195303"/><path d="M70.36 4.81c.195-1.511.547-3.631.722-4.808h-29.264c.996 3.729.722 8.301-.918 15.818-.644 2.904-2.245 5.338-4.022 7.654 2.909-.196 5.798-.549 8.688-.844 9.293-.981 19.425-2.002 28.757-.079-.859-1.884-1.738-3.807-2.577-5.711-3.202-7.359-1.659-9.911-1.386-12.03z" fill="url(#f)"/><path d="M88.169 49.241c-3.787-4.926-5.759-7.889-7.575-12.697-1.816-4.808-5.603-12.403-8.844-19.743-2.265-5.142-2.186-7.909-1.835-9.852-2.226-3.219-10.191-3.866-20.304-2.826-2.811.294-5.193.667-7.204 1.079-.039 2.806-.527 6.221-1.503 10.617-1.171 5.377-5.662 9.067-8.473 13.541-3.885 6.202-5.369 13.836-3.065 20.901 2.148 6.594 7.438 11.716 13.354 15.053 4.685 2.63 9.8 4.71 13.803 8.36 3.592 3.277 6.267 7.379 9.039 11.324 4.022 5.73 8.141 11.422 12.924 16.544 6.482 6.966 17.336 17.957 13.724 28.436-1.308 3.788-3.26 7.36-4.256 11.265-.879 3.415-.917 7.105-.781 10.617.254 6.987 1.64 13.836 2.538 20.744.468 3.533.605 7.674.644 11.304 9.722 3.278 15.228 1.099 16.575.432 1.132-8.184 3.006-17.564 4.392-26.415 2.245-14.248 2.109-23.119 1.816-27.495-.274-4.377.136-9.44.976-15.661.839-6.202-1.113-13.954-5.603-27.063-4.49-13.07-16.555-33.52-20.343-38.465z" fill="url(#g)"/><path d="M71.769 16.82c-2.265-5.142-2.186-7.909-1.835-9.852-2.245-3.238-10.249-3.886-20.382-2.846-2.616.275-4.646.628-6.794 1.001l-.137.039-.254.059c-3.709.765-6.111 1.649-7.301 2.139-.156 1.511-.586 3.219-1.464 5.083-1.698 3.572-4.158 6.515-6.833 9.341.722.589 3.143 1.452 10.991.51l.293-.039.273-.039c2.245-.275 4.9-.706 8.063-1.315 17.043-3.277 24.091-.903 28.132 1.982-.937-2.002-1.874-4.043-2.753-6.064z" fill="url(#h)"/><path opacity=".17" d="M109.701 167.541c.566-3.219 1.113-6.437 1.62-9.577 2.245-14.248 2.109-23.119 1.816-27.495-.274-4.376.136-9.44.976-15.661.839-6.202-1.113-13.953-5.603-27.063s-16.555-33.559-20.343-38.485c-3.787-4.926-5.759-7.889-7.575-12.697-1.816-4.808-5.603-12.403-8.844-19.743-2.265-5.142-2.186-7.909-1.835-9.852-1.054-1.531-3.416-2.492-6.657-2.944-.039 4.318.351 13.051 3.631 17.741 4.49 6.398 9.156 7.713 11.967 19.174 2.811 11.461 26.922 32.519 33.657 63.173 0 0 .937 2.63-.195 8.459-1.113 5.828-2.05 8.085-.742 12.776 1.308 4.69.742 21.627-1.113 35.718-.293 2.374-.546 4.513-.761 6.476z" fill="url(#i)"/><path opacity=".17" d="M94.2 114.436c-1.054-.628-5.388-6.986-10.23-14.209-1.445-1.982-2.831-3.984-4.217-5.73-4.9-6.202-12.065-14.66-19.913-19.88-2.792-1.845-6.247-3.69-9.547-5.279 2.226 1.236 4.354 2.61 6.247 4.337 3.592 3.277 6.267 7.379 9.039 11.324 4.022 5.731 8.141 11.422 12.924 16.544 6.482 6.967 17.336 17.957 13.724 28.437-1.308 3.788-3.26 7.36-4.256 11.265-.879 3.415-.918 7.104-.781 10.617.254 6.987 1.64 13.836 2.538 20.744.468 3.533.605 7.674.644 11.304 1.171.393 2.284.707 3.338.962.059-1.237.098-2.473.137-3.709.195-5.456-1.503-16.544-1.113-31.401.371-14.856 5.427-27.828 9.547-29.889 4.119-2.06 7.106-6.947 7.106-6.947-5.837 3.768-12.943 2.826-15.189 1.511z" fill="url(#j)"/></g><defs><linearGradient id="b" x1="130.225" y1="64.551" x2="-6.808" y2="51.899" gradientUnits="userSpaceOnUse"><stop stop-color="#B0BBA7"/><stop offset="1" stop-color="#F3F2EE"/></linearGradient><linearGradient id="c" x1="11.81" y1="10.571" x2="57.048" y2="10.571" gradientUnits="userSpaceOnUse"><stop stop-color="#FBCEB7"/><stop offset="1" stop-color="#F49167"/></linearGradient><linearGradient id="d" x1="13.483" y1="5.298" x2="56.3" y2="5.298" gradientUnits="userSpaceOnUse"><stop stop-color="#FBCEB7"/><stop offset="1" stop-color="#F49167"/></linearGradient><linearGradient id="e" x1="11.825" y1="102.851" x2="57.059" y2="102.851" gradientUnits="userSpaceOnUse"><stop stop-color="#59AB32"/><stop offset="1" stop-color="#255913"/></linearGradient><linearGradient id="f" x1="28.276" y1="11.731" x2="114.312" y2="11.731" gradientUnits="userSpaceOnUse"><stop stop-color="#FBCEB7"/><stop offset="1" stop-color="#F49167"/></linearGradient><linearGradient id="g" x1="28.283" y1="94.687" x2="114.314" y2="94.687" gradientUnits="userSpaceOnUse"><stop stop-color="#59AB32"/><stop offset="1" stop-color="#255913"/></linearGradient><linearGradient id="h" x1="26.775" y1="13.277" x2="74.527" y2="13.277" gradientUnits="userSpaceOnUse"><stop stop-color="#59AB32"/><stop offset="1" stop-color="#255913"/></linearGradient><linearGradient id="i" x1="63.26" y1="85.8" x2="114.308" y2="85.8" gradientUnits="userSpaceOnUse"><stop stop-color="#8DB145"/><stop offset="1" stop-color="#3A941A"/></linearGradient><linearGradient id="j" x1="50.3" y1="127.116" x2="109.394" y2="127.116" gradientUnits="userSpaceOnUse"><stop stop-color="#59AB32"/><stop offset="1" stop-color="#255913"/></linearGradient></defs></svg>