<svg width="110" height="103" viewBox="0 0 110 103" xmlns="http://www.w3.org/2000/svg" fill="none"><path d="M21.511 35.8c.161.285.34.714.322 1.249-.036.66-.357.839-.268 1.177.179.624 1.483.375 3.021 1.142.358.178 1.483.749 2.073 1.873.518.981.411 1.962.393 2.337-.197 2.694 1.251 3.728 2.038 8.17.786 4.495.25 8.884-1.055 10.097-.125.107-.59.517-.84 1.213-.286.785-.143 1.552 0 2.051-.661-1.605-.572-2.711-.34-3.425.215-.66.608-1.231.59-2.212-.018-.589-.161-.892-.286-1.427-.179-.696-.322-1.748-.089-3.14-.143.517-.304 1.302-.375 2.301-.072.963.036 1.374.036 2.051.054 2.569-1.18 2.872-1.09 5.138.054 1.32.483 1.766.161 2.836-.25.821-.751 1.391-1.126 1.748.125-.321.268-.821.286-1.427.054-1.249-.482-1.998-.84-2.872-.84-2.123.179-2.872-.429-5.173-.214-.821-.697-2.016-1.859-3.336.071.375.179 1.053-.036 1.873-.286 1.142-1.001 1.82-1.287 2.087.304-.482.679-1.267.751-2.248.125-1.909-1.072-2.801-3.503-6.369-1.019-1.498-3.467-5.245-3.36-8.402.018-.499.143-3.55 2.145-4.977.608-.428 1.251-.874 2.109-.874.715 0 1.233.321 2.055.053.483-.16.643-.392.697-.482.304-.428.143-.928.107-1.035z" fill="#64150D"/><path d="M24.425 46.468c.286-.053.59-.053.858.036.286.089.518.25.715.446.393.375.644.838.84 1.302.197.464.34.928.447 1.409.107.482.179.963.232 1.445l.018.375v.375c0 .25-.018.482-.036.731-.036.482-.125.963-.214 1.445-.089.482-.215.945-.322 1.409-.107.464-.179.928-.215 1.391-.018.232-.018.464-.018.696.018.232.036.464.072.696l.072.339.054.161.054.16.143.303.089.143.107.143c.286.375.59.749.876 1.142.286.392.536.821.661 1.302l.089.357.036.178.018.178.036.714.036.357.036.178.054.16c.036.107.072.214.143.321l.089.161.107.143.107.143.125.125.268.25c.179.161.375.285.59.41.411.232.858.41 1.323.553-.465-.143-.912-.303-1.34-.517-.214-.107-.411-.232-.608-.393l-.268-.232-.125-.125-.107-.143-.107-.143-.089-.16c-.072-.107-.107-.214-.161-.339l-.054-.178-.054-.178-.054-.357-.018-.357-.018-.178-.018-.178-.018-.178-.036-.178-.089-.339c-.143-.446-.393-.856-.679-1.231-.286-.375-.608-.731-.912-1.106l-.107-.143-.107-.16c-.072-.107-.125-.214-.179-.339l-.072-.178-.072-.178-.089-.357c-.054-.25-.089-.482-.107-.731-.018-.25-.018-.499 0-.731.018-.482.089-.963.179-1.445l.286-1.409c.089-.464.143-.928.161-1.391.018-.232.018-.464.018-.696l-.018-.357-.036-.339c-.054-.464-.143-.928-.25-1.374-.125-.446-.268-.892-.447-1.32-.197-.41-.429-.803-.733-1.088-.161-.143-.322-.232-.501-.285-.179-.054-.357-.054-.554 0l-.107-.642z" fill="#7A312E"/><path d="M32.343 51.82c-.894 1.053-1.877 1.177-1.877 1.177-.947.107-1.698-.375-1.966-.589.054-.624.054-1.605-.447-2.604l-.089-.178c-.947-1.695-3.003-2.694-5.308-2.64.912-.268 2.645-.928 3.557-2.569.107-.178.197-.375.268-.553.054.036 1.037.642 2.198.428.232-.036.465-.125.697-.232 1.055-.517 1.698-1.659 1.609-2.872 2.055 4.924 2.645 9.134 1.358 10.632z" fill="#FFC9AE"/><path d="M24.425 102.911c8.479 0 15.353-.846 15.353-1.891 0-1.044-6.874-1.891-15.353-1.891s-15.353.847-15.353 1.891c0 1.045 6.874 1.891 15.353 1.891zM85.426 103c8.479 0 15.353-.791 15.353-1.766 0-.976-6.874-1.766-15.353-1.766s-15.353.79-15.353 1.766c0 .975 6.874 1.766 15.353 1.766z" fill="#F3F2EE"/><path d="M32.737 93.528c-1.251 1.142-2.323 2.176-3.271 3.086-.322.321-.804.785-1.037 1.374-.054.143-.089.285-.107.428-.089.607-.036 1.088-.036 1.088.054.41.143.517.125.767-.071.553-.59.892-.715.963-.661.411-1.448.268-2.073.161-.626-.107-.751-.25-1.376-.303-.322-.018-.59 0-1.09.071-1.269.161-1.537.303-2.252.392-.358.036-.465.036-2.073-.035-.536-.018-1.376-.036-2.413-.072-.393-.178-.626-.446-.59-.66.018-.142.143-.249.34-.356.411-.232.769-.25 1.162-.268.268-.018.554-.018.876-.071.322-.054.769-.179 1.305-.482.34-.196.876-.482 1.519-.803 2.055-.999 2.877-1.106 4.021-1.891.536-.375.768-.624 1.805-1.73.894-.928 2.198-2.283 3.861-3.96.036.25.161.91.733 1.516.465.535 1.037.731 1.287.785zM89.018 101.127c.125.267-.072.267-.089.499-1.43.018-2.824.036-4.236.161-.375.036-.804 0-1.09-.214-.143-.107-.143-.339-.143-.41-.018-.375.161-.536.304-.785.643-1.142.411-2.07.143-3.336-.036-.143-.143-.553-.215-.785-.483-1.391-1.144-2.729-1.859-4.032.894.036 1.787.071 2.663.125.393 1.445.965 2.872 1.501 4.264l.036.107c.304.892.751 2.319 1.287 2.961.643.713 1.323.66 1.698 1.445z" fill="#FFC9AE"/><path d="M89.036 101.145c0 .178-.036.321-.125.482-1.412.035-2.824.035-4.236.178-.375.036-.804 0-1.09-.214-.143-.107-.143-.339-.143-.41-.018-.375.161-.536.304-.785.643-1.142.411-2.07.143-3.336-.036-.143-.143-.553-.215-.785-.483-1.391-1.144-2.729-1.859-4.032.894.036 1.787.071 2.663.125.393 1.463.965 2.854 1.501 4.264l.036.107c-.572.232-.983.928-1.072 1.463-.143.856-.59 1.606-.518 2.391.072.785.804.874 1.43.82.626-.035 1.233-.588 1.805-.624.608-.071.894.179 1.376.357zM32.736 93.528c-1.251 1.142-2.323 2.176-3.271 3.086-.322.321-.804.785-1.037 1.374-2.484-.321-5.094.232-7.185 1.534-.894.553-1.734.785-2.788.803-.358.017-.751-.054-1.144-.161.268-.018.554-.018.876-.071.322-.054.768-.179 1.305-.482.34-.196.876-.482 1.519-.803 2.056-.999 2.878-1.106 4.021-1.891.536-.375.769-.624 1.805-1.73.894-.928 2.198-2.283 3.86-3.96.036.25.161.91.733 1.516.483.535 1.055.731 1.305.785z" fill="#FFA88D"/><path d="M63.961 60.579c-.232.714-.411 1.213-.447 1.302-.304.803-.661 1.552-1.037 2.248-1.752 3.265-4.093 5.441-5.934 7.136-2.163 1.962-5.791 4.799-11.153 6.939-.232.892-.626 2.159-1.323 3.586-1.591 3.318-5.398 6.939-5.398 6.939-.483.446-.965.928-1.501 1.409-2.324 2.141-5.094 4.602-8.347 7.243-.393-.018-1.108-.107-1.877-.517-.572-.303-.965-.696-1.197-.963 4.075-4.05 8.347-9.027 12.297-15.074.107-.161.572-1.106 1.412-2.23.59-.803 1.144-1.409 1.483-1.748.25-.553.643-1.267 1.305-1.998.411-.464.84-.821 1.197-1.07 1.805-3.336 3.485-6.351 5.022-9.009l.25-.446c3.753-6.547 5.362-8.902 8.186-11.06 1.787-1.356 3.467-2.159 4.576-2.622.34-.018.697 0 1.072.089l.143.036c.34.089.661.232.965.464 2.359 1.73 1.09 6.886.304 9.348z" fill="#FFE739"/><path opacity=".47" d="M63.961 60.578c-.232.714-.411 1.213-.447 1.302-1.769 4.567-4.718 7.332-6.971 9.383-2.163 1.98-5.791 4.799-11.153 6.94-.232.892-.626 2.158-1.323 3.586-1.591 3.318-5.398 6.939-5.398 6.939-.483.446-.965.928-1.501 1.409.054-.16.197-.357.429-.589 4.039-3.782 6.899-11.257 6.899-11.257s4.307-3.907 8.883-6.297c4.575-2.39 6.702-13.772 6.702-13.772s2.413.66 3.879 2.355z" fill="#FDB317"/><path d="M86.32 96.935c-.215.214-.608.553-1.215.803-.608.25-1.144.267-1.448.25-.197-.553-.554-1.516-1.037-2.676 0 0-3.199-7.653-8.079-13.522-.161-.196-.929-1.124-1.948-2.426-.304-.392-.626-.821-1.001-1.338-3.36-4.62-3.753-6.386-7.31-11.399-.626-.874-1.287-1.766-1.823-2.48-.518-.678-.929-1.213-1.126-1.463-1.126-1.445-2.02-2.569-2.752-3.461-1.859-2.301-2.484-3.086-2.324-4.139.089-.642.679-2.658 6.309-4.353l.161-.053.268-.071c1.716.375 4.361 1.195 6.398 3.282 2.198 2.248 2.627 4.799 3.038 7.011.661 3.532 1.734 8.527 3.61 15.092.643.535 1.68 1.481 2.752 2.801 2.538 3.157 3.021 5.78 5.398 12.505.483 1.267 1.197 3.211 2.127 5.637z" fill="#FFE739"/><path opacity=".47" d="M62.763 50.678l-.018.071c-.429 1.909-1.519 5.387-4.129 8.438-1.126 1.32-2.538 2.569-4.29 3.568-2.073 1.177-4.111 1.748-5.827 1.998l.25-.446c3.753-6.547 5.362-8.902 8.186-11.06 1.787-1.356 3.467-2.158 4.575-2.622.34-.018.697 0 1.072.089l.179-.036z" fill="#FDB317"/><path d="M62.049 50.125l-.197.517-.143.375c-.626 1.498-1.519 3.193-2.806 4.852-.465.589-.983 1.16-1.555 1.73-.232.232-.465.446-.715.66-1.412 1.249-3.61 3.193-6.077 3.015l-.393-.053c-.679-.107-.697-.464-2.895-1.623-1.001-.535-2.181-1.106-2.895-1.374l-.322-.125-.393-.125-.143-.036-.072-.018-.143-.036-.143-.036-.34-.053-.197-.018-.125-.018h-.125c-1.591-.071-2.717.535-5.022-.25-.822-.285-1.269-.571-1.912-.66-.143-.018-.286-.036-.465-.036h-.268c-.518.036-.84.178-1.305.357-.358.125-.786.268-1.43.392-1.305.232-2.037.375-2.574.107l-.179-.107-.215-.178c-.572-.589-.697-1.57-.786-2.444-.072-.589-.072-1.142-.018-1.641.054-.589.161-1.088.268-1.498l.072-.036c.143-.089.322-.196.518-.339.411-.285.876-.696 1.305-1.267.215-.268 1.734-2.301 1.251-5.013-.179-.999-.572-1.802-.965-2.39l-.089-.125c.072-.428.197-1.052.411-1.802l.286-.856c.268-.731.643-1.606 1.001-1.641h.054c.25.018.304.464.536.928l.054.089c.626 1.088 1.895 1.463 2.77 1.766.536.178.786.196 1.162.232.286.018.643.053 1.251.161l.089.018.232.036.215.036.054.018c.894.178 1.787.357 2.86.803.429.178 1.18.482 2.055 1.053 1.144.749 3.807 2.854 4.004 2.943l.143.071c.107.053.268.107.84.268l.894.25 2.341.66 2.556.731c2.127.642 3.146.981 5.13 1.338.947.196 1.805.303 2.556.392z" fill="#BF7081"/><path d="M14.237 43.935c-.483-.428-.876-.946-1.162-1.516-.072-.143-.143-.285-.197-.446l-.089-.232-.036-.107-.036-.125c-.089-.303-.125-.624-.161-.945-.036-.642.089-1.302.34-1.891.25-.589.608-1.124 1.072-1.588.447-.446.983-.803 1.573-1.07.572-.268 1.197-.428 1.823-.5.626-.071 1.269-.053 1.877.089l.054.018.054.018.107.036.232.071.215.089.107.053.054.018.054.036c.286.143.554.321.786.535.232.214.429.464.608.731.179.25.34.517.518.749.179.232.393.446.643.624l.179.125.089.053.107.053.197.107.197.089c.268.125.572.214.858.267.304.054.59.071.894.071l.929-.018c.304 0 .626.036.929.143.304.107.554.303.787.517.232.214.411.464.572.731.161.268.268.553.358.856.089.303.143.607.143.91 0 .303-.036.624-.107.91-.054.143-.089.285-.161.428l-.054.107-.054.107-.125.196c-.357.499-.894.856-1.466 1.088.572-.232 1.09-.589 1.448-1.106l.125-.196.054-.107.054-.107c.072-.143.107-.285.161-.428.072-.303.107-.607.089-.91-.018-.303-.072-.607-.161-.892-.089-.285-.214-.571-.375-.821s-.34-.499-.572-.696c-.215-.214-.465-.375-.751-.482-.286-.107-.59-.125-.876-.125l-.912.036c-.304 0-.626 0-.929-.053-.304-.053-.608-.143-.912-.25l-.214-.089-.215-.107-.107-.053-.107-.071-.197-.125c-.25-.178-.482-.392-.697-.642-.197-.25-.375-.499-.554-.749-.179-.25-.357-.482-.572-.678l-.036-.036-.036-.036-.089-.071-.089-.071-.089-.054-.089-.053-.089-.053-.197-.107-.054-.018-.054-.018-.107-.036-.215-.071-.215-.054-.107-.036-.054-.018-.054-.018c-.59-.125-1.18-.143-1.787-.053-.59.071-1.18.25-1.716.5s-1.037.589-1.448 1.017c-.411.428-.733.928-.947 1.463-.214.535-.304 1.124-.268 1.713.072 1.16.697 2.265 1.573 3.015l-.322.357z" fill="#64150D"/><path d="M58.885 55.869c-.643.821-1.394 1.623-2.27 2.39-1.483 1.32-3.843 3.407-6.47 2.961-.679-.107-.697-.464-2.878-1.623-1.001-.535-2.181-1.106-2.878-1.374-2.949-1.124-3.878.392-7.024-.696-1.037-.357-1.501-.714-2.502-.696h-.143c-.018-.696-.036-1.445-.036-2.265 1.984 1.463 6.023.66 7.113-1.606.411-.856 1.34-2.551 2.377-1.213.5.66.393 1.837.679 2.587.268.731.715 1.177 1.09 1.82.483.803.608 1.374 1.376 1.944.804.606 1.591.821 2.592.963 1.644.232 3.11.071 4.611-.66 1.448-.696 2.86-1.748 4.361-2.533z" fill="#A45967"/><path d="M27.356 48.751c-.358-.339-.858-.767-1.555-1.106-1.305-.66-2.52-.696-3.164-.66.912-.268 2.645-.928 3.557-2.569.107-.178.197-.375.268-.553.179.107.411.214.679.303.465.161.876.178 1.18.178.089.464.214 1.284 0 2.266-.214 1.035-.679 1.766-.965 2.141z" fill="#FFA88D"/><path d="M14.327 42.383c-.626.731-1.09 1.588-1.341 2.515-.125.464-.197.946-.214 1.427-.018.482.018.963.089 1.445.072.482.197.945.375 1.409.161.464.357.91.608 1.32l.197.303.214.303c.143.196.304.392.465.571l.5.535.268.25.143.125.071.053.072.071-.018-.018c.214.178.447.339.679.499l.715.482c.232.178.465.357.661.589.197.232.34.499.429.785.107.285.125.589.143.874v.642l-.018.214c-.054.571-.197 1.142-.429 1.677-.107.268-.25.517-.375.785-.125.25-.25.517-.34.767-.089.268-.143.535-.161.821 0 .285.036.571.107.838.072.268.179.535.286.803l.125.41c.018.143.036.285.018.428l-.036.214-.072.196c-.054.125-.125.268-.215.375-.161.232-.375.428-.608.606.232-.178.429-.375.59-.606l.197-.375.072-.196.036-.214c.018-.143 0-.285-.018-.428l-.125-.41c-.107-.268-.232-.517-.304-.803-.089-.285-.125-.571-.125-.856 0-.285.054-.589.143-.856.089-.268.214-.535.34-.803.125-.25.25-.517.357-.767.215-.517.358-1.07.393-1.641l.018-.214v-.642c0-.285-.036-.553-.143-.803-.089-.25-.232-.499-.411-.696-.179-.214-.393-.375-.626-.535-.232-.161-.465-.321-.715-.464-.232-.161-.482-.321-.715-.5l-.018-.018-.036-.018-.036-.036-.071-.053-.143-.125-.286-.25-.536-.535c-.179-.178-.34-.375-.5-.571-.161-.196-.304-.41-.447-.624-.268-.446-.482-.892-.661-1.374-.179-.482-.322-.963-.411-1.463-.089-.499-.143-1.017-.125-1.516.018-.517.072-1.017.197-1.516.125-.499.304-.981.536-1.445.232-.464.518-.892.84-1.284l.393.321z" fill="#64150D"/><path d="M28.823 92.671c-.179.874-.518 1.98-1.251 3.122-.197.321-.411.589-.608.838-.089-.036-.25-.107-.322-.268-.089-.196 0-.41.036-.517.322-.767.482-1.159.572-1.284.232-.357.518-.892.786-1.605.268-.107.518-.196.786-.285zM38.831 32.767c-.054 1.391-.125 2.355-.161 2.979l-.018.357c-.089 1.106-.179 2.141-.286 3.086-.143 1.285-.286 2.391-.411 3.3-.107.125-.268.285-.501.446-.536.357-1.162.5-2.073.517-1.608 0-3.11-.428-3.878-.66.197-1.07.375-2.159.572-3.265l.018-.089.054-.375c.179-1.106.358-2.212.518-3.336v-.018l.268-1.837.036-.268c.107-.785.608-4.763 1.287-10.186l-3.592-14.699s-1.197-1.837-2.681-3.14c-.983-.856-1.198-1.82-.876-2.016.143-.089.518.161.876.392.894.607 1.197 1.142 1.34 1.07.268-.125-.518-2.283-.661-2.658-.554-1.516-.929-2.176-.733-2.337.197-.161.912.303 1.394.731 1.215 1.07 1.483 2.301 2.878 5.923.161.392.322.803.465 1.195 1.394 3.604 2.538 5.994 3.503 8.188.751 1.713 1.752 4.174 2.824 7.261.018 3.978-.072 7.171-.161 9.437z" fill="#FFC9AE"/><path d="M38.669 35.747l-.018.357c-.089 1.106-.179 2.141-.286 3.086-1.859.071-4.361.178-6.273.232l.054-.375c.179-1.106.357-2.212.518-3.336 1.483-.107 4.129-.232 6.005.036z" fill="#FFA88D"/><path d="M35.131 65.395c-.054 3.675-.268 7.136-.572 10.329-.143.624-.304 1.249-.465 1.873-1.376 5.352-3.146 10.275-5.147 14.753-.072.125-.161.303-.286.482-.107.178-.25.392-.393.606-.358.517-.965 1.356-2.127 2.515 0 0-2.395 2.39-3.771 2.444-.071 0-.25 0-.286-.089-.089-.178.411-.553 1.001-1.177 0 0 .608-.624 1.18-1.427.375-.517.322-.553 1.037-1.677.197-.303.393-.624.661-.999.465-.678.876-1.195 1.162-1.552.286-3.407.661-6.226 1.001-8.313.465-2.836.876-4.602 1.34-6.226.232-.785.429-1.427.59-1.873-.465-4.192-.697-7.51-.822-9.829-.054-.928-.089-1.695-.089-1.98-.125-2.747-.161-5.387-.161-7.921.393-.16.894-.339 1.483-.464.322-.071.679-.125 1.055-.16 1.448-.143 2.627.107 3.378.321.072 1.106.125 2.248.179 3.407.036.803.054 1.606.072 2.426 0 1.498 0 2.997-.018 4.531z" fill="#FFC9AE"/><path d="M35.113 60.918c-1.466.25-4.254.928-5.988 2.39-.125-2.747-.161-5.387-.161-7.921.393-.16.894-.339 1.483-.464l4.593 3.568c.036.785.054 1.588.072 2.426z" fill="#FFA88D"/><path d="M28.16 53.443c-.465 3.086.411 6.137.411 6.137 2.234.856 4.647.803 6.148.375l1.251-.375s-.751-2.444-.501-3.693c.34-1.712-.947-3.193-2.323-4.014-1.93-1.142-4.307-.107-4.665.071-.089.303-.232.838-.322 1.498zM39.528 36.977c-.179.357-.322.714-.447 1.053v.018c-.411 1.124-.572 2.087-.643 2.819l-.036.571c-.036.696-.089 1.302-.536 1.855-.554.714-1.412.892-1.841.999-2.52.553-4.897-1.16-5.487-1.605.304-1.516.661-2.569.929-3.265.107-.303.375-.981.59-1.927.107-.482.161-.892.197-1.177.733-.053 1.519-.089 2.359-.071 1.895.071 3.557.375 4.915.731z" fill="#BF7081"/><path d="M19.367 45.915c.179.107.34.232.518.321.518.285 1.072.482 1.662.535.357.018.733.036 1.09.089.179.018.286.053.322.071.447.107 1.483.018 2.753-.714 1.18-.678 2.002-1.195 2.216-2.141.214-.963-.572-1.927-1.305-2.801-.447-.535-1.126-1.338-2.234-1.659-.215-.054-.393-.089-.536-.089-.697-.036-.929.107-1.323.018-.375-.089-.465-.339-.84-.66-.697-.607-1.555-.785-1.948-.821-1.019-.089-2.306.41-2.86 1.391-.59 1.07-.072 2.373.751 4.495.054.143.107.268.197.428.375.696.876 1.106 1.537 1.534z" fill="#FFC9AE"/><path d="M24.656 58.242c-1.269 2.979-3.199 3.407-3.521 6.262-.143 1.249.107 2.319.34 3.015-1.376-2.159-1.466-3.764-1.305-4.852.375-2.373 2.306-3.693 1.895-5.887-.143-.803-.554-1.391-.84-1.748.089.839.107 2.301-.536 3.925-.411 1.017-.947 1.748-1.305 2.176-.483.571-.965.999-1.341 1.302.197-.214.447-.553.661-.999.679-1.338.536-2.605.411-3.675-.268-2.39-1.323-3.996-1.68-4.513-.286-.41-.34-.392-.876-1.052-1.716-2.087-3.271-3.978-3.396-6.262-.036-.624.018-1.57.536-2.747-.125-.624-.304-2.052.375-3.586.197-.464.554-1.249 1.358-1.873 1.287-1.017 3.592-1.552 5.076-.339.983.803 1.144 2.105 1.18 2.622-.197-.91-.715-1.57-1.34-1.677-.125-.018-.304-.018-.5.036.232.25.608.714.786 1.374.393 1.409-.322 2.587-.465 2.801-.143-1.088-.322-2.301-.5-2.301-.125 0-.322.642-.214 1.302.197 1.07 1.251 2.159 2.127 3.086.072.071.286.285.286.589.018.214-.071.482-.286.624-.054.036-.161.089-.411.089-.5 0-.876-.178-.876-.161 0 .018 1.805.41 3.021 1.713.107.107.536.589.912 1.463 2.252 4.977.429 9.294.429 9.294z" fill="#7A312E"/><path d="M21.547 45.665c.393.339.768.749 1.037 1.213.268.464.447.999.483 1.552.018.268-.018.553-.072.821-.054.268-.143.517-.215.749-.161.482-.304.946-.34 1.445-.054.482 0 .963.161 1.427.072.232.179.446.304.66l.375.66c.125.214.268.446.375.678.107.232.214.482.286.731.072.25.125.517.143.767.018.268.018.517 0 .785-.036.517-.179 1.035-.393 1.516-.215.482-.5.892-.751 1.338-.25.428-.429.91-.447 1.409-.036.499.072.999.232 1.463.179.464.465.892.661 1.374.107.232.179.482.232.731l.054.375.018.196v.196c.018.517-.054 1.017-.197 1.516-.143.5-.34.963-.59 1.409.232-.446.429-.928.572-1.409.125-.482.197-.999.161-1.498l-.018-.196-.018-.196-.054-.375c-.054-.25-.143-.482-.232-.714-.197-.464-.5-.874-.697-1.356-.197-.482-.286-.999-.268-1.516 0-.268.054-.517.125-.767.072-.25.179-.482.304-.714.25-.446.518-.874.715-1.338.197-.464.322-.945.34-1.427.018-.5-.018-.999-.161-1.463-.072-.232-.161-.464-.286-.678-.107-.214-.25-.428-.375-.642l-.411-.66c-.125-.232-.25-.464-.34-.713-.089-.25-.161-.517-.197-.785-.036-.267-.036-.535-.018-.803.036-.535.179-1.053.322-1.534.072-.25.143-.482.197-.714.054-.232.072-.464.054-.696-.018-.232-.072-.464-.143-.696-.072-.232-.179-.446-.304-.642-.25-.41-.572-.767-.947-1.07l.322-.41z" fill="#64150D"/><path d="M21.262 45.416c-.107 0-.661.053-1.037.499-.089.107-.34.428-.286.785.072.499.804.767 1.305.785.5.036.5-.178 1.09-.143.393.036.679.143.858-.089.054-.089.107-.214.107-.375.018-.714-1.054-1.534-2.037-1.463z" fill="#FFC9AE"/><path d="M16.382 46.914c-.036.089-.072.232-.107.41-.161.999.215 1.873.554 2.39 1.519 2.266 2.77 2.515 2.61 3.693-.161 1.177.5 2.105.5 2.105s-.089-.499-.089-1.516c0-.178.054-.321.072-.464.125-.624.322-.945.393-1.195.179-.571-.054-1.106-.286-1.677-.626-1.516-1.573-1.766-2.27-2.89-.375-.624-.768-1.641-.554-3.3-.054.607-.214 1.374-.643 2.123l-.179.321z" fill="#64150D"/><path d="M54.345 48.43c-7.382-1.195-7.686-.767-8.293.107-.161.232-.411.749-.929.856-.393.089-.929-.054-1.126-.392-.304-.553.644-1.088.554-2.176-.036-.41-.25-.767-.679-1.481-.411-.678-.929-1.32-1.323-1.73-1.376-1.374-3.432-1.73-4.129-1.855l-.25-.053c0-.018.089-.036.25-.054l.215-.018.054.018c.894.178 1.787.357 2.86.803.429.178 1.18.482 2.055 1.053 1.144.749 3.807 2.854 4.004 2.944l.143.071c.107.053.268.107.84.268l.894.25c.179.107.375.214.59.285.697.285 1.323.357 1.752.357.054.018 2.395.357 2.52.749zM39.081 38.048c-.411 1.124-.572 2.087-.643 2.819l-.036.571c-.572.268-1.251.535-2.038.731-.393.107-.769.178-1.126.232 1.233-.571 1.877-1.249 2.234-1.748.089-.125.358-.553.876-1.409.322-.517.572-.928.733-1.195zM39.082 38.012l-.126.054.126-.054z" fill="#A45967"/><path d="M37.883 23.366c-.626-.285-.375 1.659-.411 1.962.554.178.179-.963.411-1.195.197-.178.375.018.322-.393-.018-.196-.107-.375-.322-.375zM31.002 75.153c.572.018 1.305-.268 1.805.196.25.232.268.571-.036.714-.411.196-.84-.178-1.251-.143-.197.018-.769.232-.929.089-.483-.392 1.001-.446 1.162-.499-.125-.268-.536-.25-.751-.357z" fill="#FFA88D"/></svg>