<svg width="110" height="103" viewBox="0 0 110 103" xmlns="http://www.w3.org/2000/svg" fill="none"><ellipse rx="47.062" ry="7.074" transform="matrix(1 0 0 -1 55.567 93.096)" fill="#F3F2EE"/><path d="M65.745 48.299c-.368-.873-.989-2.101-2.042-3.443l-1.331-3.215c.114 2.797.228 5.607.355 8.404l.152.291c.799.962 1.649 1.937 2.549 2.911.292.329.583.645.888.962l.013-.127c.127-1.19.266-2.468.14-3.519-.089-.772-.317-1.304-.723-2.266z" fill="#7F1212"/><path d="M62.841 66.866c.355.405.799.709 1.23 1l3.804 2.607c-1.902-1.658-3.069-4.139-3.094-6.658-.013-.582.19-1.063.292-1.62.101-.607.076-1.266.013-1.873-.139 1.493.101 2.531.976 3.43.216.215.457.43.748.633 1.281.911 2.891 1.228 4.413 1.114-.456.101-.786-.456-1.167-.759-.266-.203-.596-.291-.837-.519-.19-.177-.292-.43-.406-.671-.457-1.05-1.179-2.304-1.306-3.455-.152-1.392.127-2.848.71-4.101.241-.506.533-.987.659-1.532.152-.658.051-1.354-.127-2-.38-1.329-1.078-2.519-1.547-3.81-.469-1.304-.406-2.519-.406-3.886 0-.797-.203-1.861-.038-2.633.101-.506.089-.544.697-.456.457.063.9.291 1.281.57.609.43 1.116 1 1.687 1.481.482.392 1.002.734 1.446 1.165 1.775 1.696 2.612 4.949 2.473 7.417.038-.62.063-1.24.089-1.848.025-.62.038-1.24.038-1.861 0-.62-.013-1.24-.051-1.873-.025-.316-.051-.62-.089-.937-.013-.152-.038-.316-.076-.468l-.051-.24-.025-.127-.013-.063-.013-.038-.013-.038c-.317-.797-.811-1.532-1.408-2.114-.583-.595-1.268-1.038-1.826-1.519-1.129-.962-2.029-2.215-2.701-3.62-.685-1.392-1.167-2.924-1.522-4.481-.165-.709-.304-1.418-.418-2.139l.025-.114c.19-.709.355-1.43.482-2.164.051-.279.063-1.607.419-1.519.101.025.19.114.266.19.342.367.647.772.913 1.215.304.506.418.721.254 1.278-.178.633-.368 1.291-.495 1.974-.127.684-.203 1.418-.089 2.139l.051.266.063.266c.038.177.101.342.165.506.051.165.152.316.228.481l.241.43c.33.57.685 1.114 1.053 1.645.38.519.786 1.025 1.243 1.481.228.228.469.43.71.62.254.177.52.354.812.443-.279-.114-.533-.304-.761-.519-.228-.215-.444-.43-.647-.684-.406-.481-.761-1.013-1.078-1.569-.317-.557-.621-1.126-.888-1.709l-.203-.43c-.051-.139-.127-.279-.152-.43-.038-.152-.089-.291-.102-.443l-.038-.228-.013-.228c-.051-.607.076-1.215.241-1.81.051-.19.178-1.215.495-1.038l.698 3.126c.292 1.316.596 2.658 1.217 3.848.127.24.266.481.418.709.406.62.85 1.215 1.294 1.81 1.395 1.899 3.424 3.164 5.567 3.443-2.118-.418-4.045-1.785-5.301-3.683-.317-.481-.583-.975-.824-1.506-.228-.532-.431-1.076-.583-1.633-.089-.278-.139-.569-.216-.848l-.165-.861-.266-1.785c-.254-1.608-.685-3.177-1.243-4.696.076-.215.139-.43.203-.658.178-.683.304-1.418.304-2.177 0-.759-.127-1.532-.38-2.24-.241-.709-.596-1.367-.976-1.962-.203-.291-.406-.582-.621-.848l-.609-.759-.583-.721-.558-.734c-.736-1-1.42-2.025-1.978-3.101-.127-.228-.241-.468-.355-.709l-.025-.253c-.063-.607-.304-1.253-.66-1.886v-.025h-.013c-.698-1.228-1.813-2.405-2.929-3.177-.406-.278-3.868-2.595-7.583-.886-1.522.696-2.511 1.81-3.031 2.506-.697.228-2.283.861-3.487 2.582-1.002 1.43-1.23 2.873-1.433 4.139-.342 2.164-.038 3.924.19 5.227.342 2 .647 1.987.989 4.038.444 2.658-.025 2.886.406 4.303.355 1.152 1.217 2.152 1.813 3.177.812 1.405 1.636 2.81 2.447 4.202.545.937 1.103 1.899 1.446 2.936.482 1.456.545 3.025.457 4.556-.19 3.671-1.179 7.265-1.395 10.936-.025.494-.038 1.013.089 1.494.178.62.571 1.126.926 1.645 1.129 1.696 1.788 3.746 1.877 5.822.038.873-.013 1.797.33 2.582.583 1.316 2.054 1.848 3.373 2.24.799.241 1.674.468 2.409.051 1.446-.81 1.268-2.949 2.295-4.101 1.002-1.101 1.623-2.747 1.953-4.253l.076-.443-2.181 4.443zm3.601-44.742c.216.152.444.291.685.418.177.089.368.177.52.304.228.19.393.443.558.696.203.316.418.62.571.962.228.506.38 1.063.418 1.633.025.253.025.519.013.785l-.101-.228c-.545-1.076-1.167-2.114-1.877-3.076l-.266-.354-.279-.342c-.304-.367-.926-.709-.85-1.291.203.19.406.354.609.494z" fill="#8C1005"/><path d="M51.453 57.26l.621-.101c-.139.013-.355.051-.621.101z" fill="#7F1212"/><path d="M63.932 34.249l-.165-.696-.139-.709c-.165-.937-.292-1.886-.393-2.835-.101-.949-.19-1.911-.254-2.86-.063-.949-.127-1.911-.152-2.86l-.139.013c.127-1.228.19-3.025-.342-4.898-.342-1.215-1.103-3.86-2.866-4.443-1.902-.633-2.904 1.861-5.516 1.367-1.408-.266-1.889-1.152-3.132-.823-.989.253-1.801 1.101-2.168 1.481 0 0-.685.709-1.116 1.481-.964 1.734-.393 4.367.317 6.809.659 2.266 1.75 5.392 3.551 8.936l10.563 2.329c.114-.342.241-.873.266-1.519.038-.759-.101-.962-.228-2.025-.114-.886-.101-1.747-.101-3.455 0-.519 0-.81.051-1.177.076-.62.203-1.114.355-1.747.025.203.051.418.089.62.14.949.279 1.911.457 2.86.165.949.368 1.886.596 2.822l.177.696.216.683.241.671.304.646c-.089-.228-.19-.43-.254-.658-.089-.253-.165-.481-.215-.709zM64.032 36.388z" fill="#720A06"/><path d="M74.278 48.78c-.114-.203-.457-.215-1.103-.24-.254-.013-.748.025-1.382.19-.774.203-1.294.608-1.547.823-.698.57-1.078 1.228-1.446 2.012l-.139.291c-.089.203-2.054 4.658-1.484 4.987.279.165 1.116-.747 2.08-1.797.862-.949 1.332-1.734 2.663-3.012l.33-.329.33-.367c1.23-1.418 1.902-2.19 1.699-2.557z" fill="#F78C00"/><path d="M69.562 43.312l1.966 5.227.976 2.633c.33.886.647 1.772.964 2.658.647 1.772 1.281 3.557 1.813 5.379.533 1.823 1.103 3.645 1.382 5.569l-.748-1.025c1.23.709 2.397 1.506 3.563 2.316 1.154.823 2.295 1.683 3.449 2.557l1.712 1.329c.571.456 1.129.911 1.699 1.38 1.116.949 2.232 1.924 3.272 2.962.71.709.71 1.873 0 2.582-.596.595-1.509.696-2.219.291h-.013c-1.23-.722-2.447-1.468-3.665-2.202l-1.826-1.126-1.826-1.152c-1.217-.785-2.435-1.569-3.614-2.443-1.179-.873-2.321-1.797-3.373-2.848-.165-.177-.317-.354-.444-.544l-.304-.468c-1.027-1.607-1.801-3.303-2.65-4.987-.837-1.683-1.598-3.405-2.346-5.139-.38-.861-.748-1.734-1.116-2.607-.368-.873-.736-1.747-1.091-2.62-.723-1.759-1.42-3.531-2.067-5.329-.647-1.797.292-3.772 2.08-4.417 1.801-.645 3.766.266 4.426 2.025zM100.579 73.777c-2.536 2.582-6.328 3.493-9.828 2.607-.812-.203-1.293 1.013-.482 1.215 3.931 1 8.243.127 11.134-2.81.583-.595-.228-1.608-.824-1.013z" fill="#FFC595"/><path d="M99.971 72.904c-1.56 1.025-3.411 2.341-5.313 2.62-.748.114-1.598-.038-2.346-.152-.977-.139-1.978-.468-2.688.405-.533.658.533 1.43 1.052.772.228-.279 1.382.114 1.674.152.545.063 1.116.127 1.674.164.495.025.964-.051 1.433-.177 1.927-.532 3.677-1.683 5.326-2.759.723-.468-.114-1.481-.811-1.025z" fill="#F5AE70"/><path d="M101.569 72.816c-1.268 1.076-2.764 2.038-4.4 2.405-2.067.468-4.248.43-6.366.506-.482.025-.735.734-.406 1.063l.165.177c.596.595 1.611-.228 1.015-.823l-.165-.177-.406 1.063c2.257-.089 4.654-.013 6.848-.633 1.674-.468 3.221-1.443 4.539-2.557.647-.544-.177-1.569-.824-1.025zM92.844 76.448c1.192.025 2.435-.342 3.107-1.405.342-.532.558-1.24.254-1.848-.317-.62-1.015-1.076-1.433-1.645-.431-.57-1.293.127-.862.696.292.392.609.747.964 1.101.406.392.457.671.114 1.152-.456.633-1.268.848-2.004.823-.723.013-.85 1.114-.139 1.126zM93.186 71.005c-.33.025-.482.354-.888.911l-.317.43c-.368.456-.583.595-1.141 1.202-.266.291-.304.354-.33.418-.038.076-.342.696.025 1.139.304.354.837.316.9.304.139.19.304.367.482.532.596.557 1.674-.114 1.078-.671-.431-.405-.545-1.038-.545-1.367 0-.582.596-.57 1.065-1.62.139-.304.368-.835.114-1.127-.101-.101-.279-.164-.444-.152zM89.801 74.448c-.241-.013-.393-.165-.444-.215-.254.063-.545.177-.85.367-1.141.734-1.408 2.025-1.471 2.38.621.367 1.458.759 2.511 1.013 2.13.532 3.944.19 4.908-.063-1.319-1.316-2.638-2.633-3.957-3.962-.127.304-.418.494-.697.481z" fill="#FFC595"/><path d="M52.075 57.158l.241-.038-.241.038z" fill="#7F1212"/><path d="M38.632 48.476l-1.585.506s-.203.063-.139.177l.101.203c.672 1.114 2.257 1.304 2.257 1.304.989.367 1.94.747 2.904 1.025 1.205.342.926.051 2.955.392.533.089 1.091.203 1.687.025.368-.114.621-.291.773-.43l-3.766-2.405-5.187-.797z" fill="#F78C00"/><path d="M40.991 43.312l-1.966 5.227-.976 2.633c-.33.886-.647 1.772-.964 2.658-.647 1.772-1.281 3.557-1.813 5.379-.533 1.823-1.103 3.645-1.382 5.569l.748-1.025c-1.23.709-2.397 1.506-3.563 2.316-1.154.823-2.295 1.683-3.449 2.557l-1.712 1.329c-.571.456-1.129.911-1.699 1.38-1.116.949-2.232 1.924-3.272 2.962-.71.709-.71 1.873 0 2.582.596.595 1.509.696 2.219.291h.013c1.23-.722 2.447-1.468 3.665-2.202l1.826-1.126 1.826-1.152c1.217-.785 2.435-1.569 3.614-2.443 1.179-.873 2.321-1.797 3.373-2.848.165-.177.317-.354.444-.544l.304-.468c1.027-1.607 1.801-3.303 2.65-4.987.837-1.683 1.598-3.405 2.346-5.139.38-.861.748-1.734 1.116-2.607.368-.873.736-1.747 1.09-2.62.723-1.759 1.42-3.531 2.067-5.329.647-1.797-.292-3.772-2.08-4.417s-3.754.266-4.426 2.025zM9.985 73.777c2.536 2.582 6.328 3.493 9.828 2.607.812-.203 1.293 1.013.482 1.215-3.931 1-8.243.127-11.134-2.81-.583-.595.228-1.608.824-1.013z" fill="#FFC595"/><path d="M10.594 72.904c1.56 1.025 3.411 2.341 5.313 2.62.748.114 1.598-.038 2.346-.152.976-.139 1.978-.468 2.688.405.533.658-.533 1.43-1.053.772-.228-.279-1.382.114-1.674.152-.545.063-1.116.127-1.674.164-.494.025-.964-.051-1.433-.177-1.928-.532-3.678-1.683-5.326-2.759-.723-.468.114-1.481.812-1.025z" fill="#F5AE70"/><path d="M8.997 72.815c1.268 1.076 2.764 2.038 4.4 2.405 2.067.468 4.248.43 6.366.506.482.025.735.734.406 1.063l-.165.177c-.596.595-1.611-.228-1.015-.823l.165-.177.406 1.063c-2.257-.088-4.654-.013-6.848-.633-1.674-.468-3.221-1.443-4.54-2.557-.647-.544.178-1.57.824-1.025zM17.708 76.448c-1.192.025-2.435-.342-3.107-1.405-.342-.532-.558-1.24-.254-1.848.317-.62 1.014-1.076 1.433-1.645.431-.57 1.294.127.862.696-.292.392-.609.747-.964 1.101-.406.392-.457.671-.114 1.152.457.633 1.268.848 2.004.823.736.013.862 1.114.14 1.126zM17.379 71.005c.33.025.482.354.888.911l.317.43c.368.456.583.595 1.141 1.202.266.291.304.354.33.418.038.076.342.696-.025 1.139-.304.354-.837.316-.9.304-.14.19-.304.367-.482.532-.596.557-1.674-.114-1.078-.671.431-.405.545-1.038.545-1.367 0-.582-.596-.57-1.065-1.62-.14-.304-.368-.835-.114-1.127.101-.101.279-.164.444-.152zM20.765 74.448c.241-.013.393-.165.444-.215.254.063.545.177.85.367 1.141.734 1.408 2.025 1.471 2.38-.621.367-1.458.759-2.511 1.012-2.13.532-3.944.19-4.908-.063 1.319-1.316 2.638-2.633 3.956-3.962.127.304.406.494.698.481z" fill="#FFC595"/><path d="M98.741 79.283c-2.359-2.278-5.377-.962-14.786-1.164-1.725-.038-3.297-.114-5.808 0-1.129.051-3.107.152-5.402.494-3.779.57-4.071 1.165-7.406 1.797-5.301 1.013-5.732.734-8.699 1.089-.419.051-.824.152-1.205.278-.38-.139-.786-.228-1.205-.278-2.955-.354-3.386-.076-8.699-1.089-3.335-.633-3.627-1.228-7.406-1.797-2.308-.354-4.273-.443-5.402-.494-2.511-.114-4.071-.038-5.808 0-9.422.203-12.465-1.076-14.811 1.202-.33.316-1.103 1.088-1.192 2.19-.152 1.823 1.572 3.759 4.388 5.063 3.17.38 8.154 1.101 15.357 2.531l.672.139c4.426.886 11.172 2.038 21.494 3.303.913.126 1.801.013 2.625-.279.812.291 1.712.392 2.625.279 10.322-1.266 17.069-2.43 21.494-3.303l.672-.139c7.19-1.43 12.187-2.152 15.357-2.531 2.802-1.291 4.54-3.24 4.388-5.063-.114-1.114-.913-1.911-1.243-2.228z" fill="#767474"/><path d="M63.805 58.146c.228-1.101.469-2.05 1.014-3.012.292-.519.533-1.076.723-1.645.216.38.431.785.647 1.215.355.721.659 1.405.913 2.05.178-.899.393-1.633.558-2.164.127-.38.228-.684.406-1.089.152-.354.431-.987.977-1.696.228-.304.786-1 1.699-1.658.621-.456 1.167-.873 2.004-1.101.621-.177 1.167-.177 1.522-.152-.495-.683-1.154-1.645-1.877-2.822-.647-1.05-1.091-1.861-1.636-2.861-1.23-2.266-1.471-2.62-1.674-3.19-.203-.557-.469-1.088-.609-1.671-.127-.494-.127-.772-.38-.962-.279-.215-.533-.101-1.192-.278-.368-.101-.583-.24-.824-.316-1.598-.557-3.221-1.05-4.857-1.468-.824-.215-1.661-.405-2.498-.582-.761-.164-1.484-.063-2.257-.025-1.572.089-3.158.215-4.743.152-.773-.025-1.851-.089-2.486-.127-2.638-.152-5.694.582-7.342 2.772-.419.557-.621.873-.761 1.582-.101.532-.177 1.076-.317 1.608-.989 3.898-2.574 6.379-3.031 7.05-.216.316-.545.772-.964 1.316.672.165 1.217.279 1.598.354 1.928.405 2.562.443 3.804.848.406.127.786.304 1.167.468l.723.316c.063 1.127.406 2.696 1.598 4.569.051.089-.038.544-.025.683.038.342.178.721.254 1.063l.507 2.152c.342 1.481.659 2.962.773 4.481.279 3.443-1.217 6.265-1.826 7.48-.697 1.354-1.42 2.304-2.701 3.974-1.078 1.405-2.067 2.519-2.79 3.303.342.304.951.81 1.763 1.354 4.35 2.886 9.194 2.987 14.127 3.038 2.638.025 4.388-.165 5.212-.278 2.638-.342 4.907-.658 7.266-2.101 1.281-.785 2.168-1.645 2.701-2.24-.482-.468-1.167-1.126-1.966-1.962-1.636-1.709-2.511-2.62-3.449-4.012-.748-1.101-1.534-2.291-1.978-4.063-.165-.671-.228-1.139-.304-2.038-.152-1.835-.127-3.696.076-5.531.114-.924.266-1.861.456-2.785z" fill="#FDC548"/><path d="M68.623 80.713c-5.998 1.063-12.275.19-18.235-1.278-1.23-.304-2.549-.696-3.284-1.721-.977-1.342-.583-3.19-.279-4.81.444-2.379.621-4.81.533-7.227-.178 2.721-1.319 4.898-1.839 5.911-.698 1.354-1.42 2.304-2.701 3.974-1.078 1.405-2.067 2.519-2.79 3.303.342.304.951.81 1.763 1.354 4.35 2.886 9.194 2.987 14.127 3.038 2.638.025 4.388-.165 5.212-.278 2.638-.342 4.907-.658 7.266-2.101l.228-.164zM64.019 56.108c-2.359.797-2.524.835-2.524.835-.52.089-1.294.177-2.232.164-1.078-.025-1.801-.177-1.813-.101-.025.101 1.129.43 3.145 1.164 1.027.38 1.648.62 2.118 1.266.304.405.444.823.507 1.127.228-.633.456-1.418.609-2.316.139-.797.19-1.519.19-2.139zM50.667 57.564c-.304-.038-1.446-.19-2.79-.785-.583-.266-1.053-.532-1.395-.76-.089.76-.114 1.785.114 2.974.139.772.355 1.43.571 1.962.279-.392.71-.924 1.319-1.43 2.333-1.949 5.364-2.038 5.351-2.126-.013-.051-1.408.38-3.17.165z" fill="#FFA625"/><path d="M59.899 34.528c-.241-.051-1.255-.228-1.788-1.038-.292-.443-.203-.861-.304-1.772-.127-1.152 0-2.266 0-3.417 0-1.557-1.027-2.822-2.283-2.822-.634 0-1.205.316-1.611.823-.659.81-.672 1.81-.672 2 .102 1 .152 2.367-.063 3.936-.063.456-.139.873-.228 1.266-.178.164-.419.38-.723.62l-.33.228c-.152.089-.621.38-1.255.456-.431.051-.609-.051-.697.076-.152.19.101.62.165.747 1.154 1.962 4.73 3.139 4.73 3.139s3.513 1.152 9.79 1.063c.101 0 .9-.013 1.877-.329.748-.241 1.636-.519 1.813-1.165.127-.456-.178-.886-.621-1.532-.507-.721-1.167-1.658-2.422-2.19-1.294-.557-2.574-.392-3.221-.316-1.027.114-1.331.38-2.156.228z" fill="#FFC595"/><path d="M55.6 30.427l-2.295.266c-.025.481-.063 1-.139 1.544v.038c.482.354 1.585 1.05 2.79.949.888-.076 1.534-.506 1.94-.873-.038-.291-.076-.57-.102-.848l-2.194-1.076z" fill="#F5AE70"/><path d="M61.459 16.644c-.774-1.949-3.589-2.987-5.719-3.126l-.266-.013c-2.283-.101-5.453.747-6.429 2.835-.304.658-.063.709.013 4.088.076 3.278-.165 3.278.025 4.658.19 1.38.52 3.519 2.118 5.253.33.354 1.991 2.177 4.35 1.962 1.978-.177 3.221-1.683 3.69-2.253 1.281-1.557 1.636-3.278 1.826-4.379.368-2.038-.139-2.304.101-5.379.216-2.709.621-2.81.292-3.645z" fill="#FFC595"/><path d="M60.609 15.922c-.875-.683-2.004-.975-3.094-1.177-2.016-.367-4.058-.494-6.112-.494-1.04.468-1.915 1.152-2.359 2.076-.304.658-.063.709.013 4.088.076 3.278-.165 3.278.025 4.658.19 1.38.52 3.519 2.118 5.253.089.101.292.316.571.57.241.051.456.025.368-.304-.076-.279-.342-.266-.545-.405-1.179-.823-1.623-2.747-1.712-4.075-.114-1.595.19-3.177.507-4.746.101-.532.228-1.101.634-1.456.698-.62 1.763-.329 2.688-.228.964.101 1.966-.063 2.803-.557.583-.342 1.103-.823 1.763-1 .964-.253 1.953.266 2.726.899.076.063.165.127.254.165.152-1.228.33-1.645.292-2.076-.19-.456-.533-.873-.938-1.19z" fill="#F5AE70"/><path d="M56.45 11.644c-.558.114-1.395.316-2.384.646-3.069 1.025-5.237 1.747-6.265 3.671-1.408 2.658-.013 6.404.165 6.392.076 0-.013-.81.266-2.278.216-1.139.406-2.05 1.065-2.848.52-.633 1.129-.937 1.534-1.088 2.6 2.088 4.261 2.139 5.301 1.772 1.217-.43 2.181-1.62 3.551-1.24.647.177 1.078.62 1.268.823 1.281 1.38 1.04 3.443 1.002 3.734 1.281-1.848 1.585-4.278.761-6.291-1.015-2.481-3.627-3.924-6.265-3.291z" fill="#8B0D04"/><path d="M48.498 23.225c-.292-.19-.71-.481-1.014-.291-.38.24-.292 1.101-.279 1.24.051.468.203.532.469 1.24.38 1 .292 1.392.685 1.721.076.063.368.304.672.228.583-.139.926-1.342.773-2.278-.165-1.088-.976-1.645-1.306-1.861z" fill="#F5AE70"/><path d="M62.626 22.972c-.317-.177-.748.139-1.002.329-.19.139-1.078.81-1.192 2.05-.076.848.216 1.987.774 2.114.304.076.596-.19.672-.253.38-.342.279-.734.634-1.747.254-.721.393-.785.431-1.266.013-.152.076-1-.317-1.228z" fill="#FFC595"/><path d="M59.48 14.96c-1.788-.595-2.84 1.633-5.516 1.367-.558-.051-1.636-.266-2.65-.975-.317-.215-.494-.405-.596-.506-.685-.721-.938-1.595-1.04-2.088.051.405.063 1.013-.076 1.709-.216 1.025-.685 1.734-.951 2.088-.342.405-.736.975-1.078 1.734-.165.38-.292.734-.38 1.063.114 1.671.659 3.038.761 3.025.089-.013-.165-.962.101-1.114.203-.114.457.329.723.24.38-.114.228-1.152.596-2.24.063-.203.393-1.19 1.053-1.696 1.458-1.139 3.157 1.215 5.706.367.938-.316 1.674-.962 2.752-.658.482.139.799.405.964.532 1.484 1.24 1.433 3.645 1.42 4.076.304-.241.697-.595 1.014-1.139l.266-.506c-.051-.279-.114-.557-.203-.835-.355-1.215-1.103-3.86-2.866-4.443z" fill="#720A06"/><path d="M50.261 89.029l-.178-.038c-.165.063-.723.215-1.344.013-.355-.114-.583-.304-.71-.43-.71-.443-1.306-.481-1.598-.481-.66 0-1.192.241-1.864.532-1.395.607-1.446 1.025-2.561 1.456-.913.354-1.712.392-2.321.418-.9.051-1.737-.165-2.612-.24-.456-.038-.875-.152-1.331-.127l-1.915.089c-.672.038-1.344.215-2.016.304-.203.025-.431.063-.558.228-.114.152-.114.367-.101.557l.038.228c.025.076.089.139.14.19l.342.354c.152.139.304.278.507.342.304.089.634-.025.875.228.203.215.228.608.368.861.228.405.837.683 1.255.861.621.253 1.268.468 1.94.456.596-.013 1.167-.19 1.75-.266.533-.063 1.091-.025 1.636-.025 1.205.013 2.118.025 3.411-.025.926-.038 1.801-.127 3.551-.291.406-.038 1.04-.051 1.877-.253.444-.114.799-.228 1.04-.329 0 0 .812-.139 1.141-.595l.063-.101.038-.114c.102-.367-.165-.81-.444-2.291-.19-.772-.063-1.329-.419-1.506z" fill="#F5AE70"/><path d="M95.38 77.954c-1.37-.127-1.725.367-5.504.734-.926.089-1.851.165-2.79.165-.469 0-.938 0-1.408-.013l-1.42-.038c-.938-.025-1.877 0-2.803.101-.457.051-.913.127-1.37.228-.457.089-.9.203-1.357.317-1.801.456-3.576 1-5.339 1.62-1.763.633-3.525 1.316-5.275 1.987-1.763.658-3.525 1.278-5.313 1.81-1.788.532-3.576.987-5.389 1.367-.85.177-1.484.215-2.727.481-.431.089-.976.215-3.031.734l-2.498.633c-.127.506-.317 1.557 0 2.823.342 1.354 1.078 2.228 1.433 2.607.342 0 .862-.013 1.496-.101.545-.076.875-.165 1.331-.266.736-.165.875-.165 2.359-.418l2.726-.506c1.826-.278 3.678-.481 5.529-.608s3.728-.165 5.605-.165c1.877.013 3.766.038 5.643.013 1.877-.025 3.728-.139 5.58-.342.456-.051.926-.101 1.382-.177.456-.076.913-.164 1.357-.266.9-.215 1.788-.532 2.663-.886l1.319-.532c.444-.177.875-.354 1.319-.506.875-.329 1.775-.582 2.676-.823 1.788-.481 3.589-.937 5.415-1.24 1.953-.329 3.994-3 3.627-5.126-.393-2.126-3.221-3.417-5.238-3.607z" fill="#9C9999"/><path d="M73.835 89.231c-2.435-.266-3.031-.203-4.134-.506-1.217-.342-2.118-.873-2.701-1.278-1.154-.443-2.004-.418-2.587-.316-.38.063-.571.165-1.179.266-.19.038-.9.152-1.864.139-1.94-.038-2.701-.57-4.755-.721-.52-.038-1.179-.051-1.94 0-.469.101-1.217.266-2.828.645l-2.701.633c-.127.519-.304 1.557 0 2.823.33 1.329 1.04 2.202 1.395 2.607.761.025 1.357-.038 1.763-.101.33-.051.875-.152 1.433-.266.786-.164.951-.164 2.549-.418l2.942-.506c1.965-.279 3.956-.481 5.96-.608s4.02-.165 6.036-.165l4.197.025c1.623-.861 1.75-1.291 1.699-1.493-.051-.24-.393-.456-3.284-.759z" fill="#767474"/><path d="M77.703 89.991l-.304-.139c-.748-.291-1.712-.342-2.511-.316-1.37.013-1.737.342-3.272.291-.647-.025-1.484-.063-2.46-.405-1.192-.418-1.243-.835-2.726-1.43-.723-.291-1.293-.519-1.978-.519-.304 0-.938.051-1.687.506-.139.127-.38.317-.748.43-.659.215-1.243.051-1.42 0l-.19.038c-.38.177-.241.721-.38 1.481-.279 1.481-.558 1.924-.457 2.304l.038.114.063.101c.342.456 1.217.582 1.217.582.254.089.634.215 1.103.316.875.203 1.56.203 1.991.24 1.851.152 2.777.228 3.754.253 1.37.051 2.346.025 3.614 0 3.627-.076 1.737-.24 3.994-.304.824-.025 1.839-.127 2.625-.418.266-.101.533-.253.621-.519l.076-.291c.089-.253.355-.38.609-.481.241-.101.507-.203.634-.43.165-.304-.025-.709-.304-.899-.393-.266-.862-.228-1.306-.291-.241-.038-.406-.114-.596-.215z" fill="#FFC595"/><path d="M74.888 89.535c-1.37.013-1.737.342-3.272.291-.647-.025-1.484-.063-2.46-.405-1.192-.418-1.243-.835-2.726-1.43-.723-.291-1.293-.519-1.978-.519-.304 0-.938.051-1.687.506-.139.127-.38.316-.748.43-.33.114-.647.127-.9.101l.076.316s2.206-.43 3.855.101c1.649.532 4.591 1.645 6.315 1.595 1.649-.051 4.159-1.089 6.467-.506l-.102-.101c-1.192-.329-2.168-.38-2.84-.38z" fill="#F5AE70"/><path d="M59.379 87.827c-1.471-.468-2.004-.785-3.196-1.101-1.091-.291-1.649-.253-2.726-.481-1.813-.38-3.601-.835-5.389-1.367-1.788-.532-3.551-1.152-5.313-1.81-1.763-.671-3.513-1.354-5.275-1.987-1.763-.633-3.551-1.177-5.339-1.62-.444-.114-.9-.228-1.357-.316-.457-.089-.913-.165-1.37-.228-.926-.114-1.851-.127-2.802-.101l-1.42.038c-.469.013-.938.025-1.408.013-.938 0-1.864-.076-2.79-.165-3.779-.354-4.134-.848-5.504-.734-2.004.177-4.832 1.481-5.212 3.607-.368 2.114 1.674 4.784 3.627 5.126 1.826.316 3.627.759 5.415 1.24.9.24 1.788.494 2.676.823.444.152.875.329 1.319.506l1.319.532c.875.354 1.763.658 2.663.886.444.114.9.203 1.357.266.457.076.913.126 1.382.177 1.839.203 3.703.316 5.58.342 1.877.025 3.754 0 5.643-.013 1.877-.013 3.754.038 5.605.165 1.851.127 3.703.316 5.529.608 1.192.19 1.598.38 2.726.506 1.306.139 1.966.063 3.475.215.951.101 1.712.228 2.181.316.342-.544.85-1.506 1.015-2.822.089-.785.025-1.468-.063-1.962-.533-.139-1.357-.342-2.346-.658z" fill="#9C9999"/><path d="M44.251 50.932c.139-.165.203-.506.279-.709.101-.24.216-.481.342-.709.279-.557.583-1.089.875-1.633.558-1.076 1.053-2.228 1.053-3.443-.279-.063-.596-.114-.812.076-.089.076-.139.19-.19.304-.292.633-.482 1.316-.672 2-.317 1.126-.634 2.266-.938 3.392-.038.114-.279.696-.216.797l.013.013.089.038.178-.127zM66.468 52.804c-.139-.266-.228-.557-.38-1-.165-.468-.266-.873-.342-1.152-.457-1.405-.71-2.569-.862-3.417 0 0-.33-1.759-1.306-3.519-.063-.114-.203-.354-.342-.329-.19.025-.266.481-.304.633-.178.949.368 2.164 1.078 3.759.545 1.228.926 2.088 1.408 3.265l.152.367c.051.203.089.443.101.709.038.57-.051 1.051-.139 1.405.266.443.533.937.799 1.468.304.62.558 1.215.761 1.759.114-.62.279-1.266.469-1.937l.203-.658c-.774-.494-1.129-1.025-1.293-1.354z" fill="#FFA625"/><path d="M59.544 38.869c-.051.24-.101.481-.178.721.71.076 1.496.139 2.359.177-.102-.721-.177-1.506-.228-2.329-.063-1.114-.038-2.139.013-3.063-.583.114-.913.241-1.471.165v.038c.038.481.025.975-.013 1.456-.076.962-.279 1.899-.482 2.835z" fill="#9C9999"/></svg>