<svg width="137" height="87" viewBox="0 0 137 87" xmlns="http://www.w3.org/2000/svg" fill="none"><g clip-path="url(#a)"><path d="M68.677 87c27.915 0 50.544-.609 50.544-1.361s-22.63-1.361-50.544-1.361c-27.915 0-50.544.609-50.544 1.361 0 .751 22.629 1.361 50.544 1.361z" fill="#F3F2EE"/><path d="M57.107 60.76v.032c.016.432-.652.336-.906.352-.461.032-.938.112-1.399.128-.938.032-2.48.528-3.354 1.617-.095.128.016 0-1.049 2.001-.477.881-.509.929-.588 1.153-.191.528-.238.897-.588 1.393-.175.24-.35.512-.556.48-.35-.048-.493-.945-.524-1.105-.095-.608-.016-1.089.032-1.329.223-1.217.493-2.129.525-2.209.747-2.578 1.128-3.858 1.049-4.611-.016-.128-.064-.512.143-.897.032-.064.27-.464.684-.56.429-.08.811.224 1.462.736l.588.464c.413.288.842.256 1.303.16.318-.08.62-.16.938-.224.318-.08.556.16.874.256.207.064.429.096.604.224.238.176.366.464.429.752s.095.592.223.864l.111.32z" fill="#FFC694"/><path d="M49.048 68.894c.477-.544.302-.945.62-1.873.302-.865.684-1.169 1.049-2.033.032-.08.143-.368.334-.752l.191-.4c.254-.464.413-.785.731-1.041.286-.24.477-.256.509-.464.032-.144-.032-.32-.143-.368-.175-.064-.413.192-.461.256l-.143.208s-.032-.24-.032-.496c-.032-.993-.08-2.225.667-2.93.111-.096.286-.24.572-.352.064-.352-.016-.544-.095-.656-.191-.256-.477-.192-.954-.48-.238-.144-.286-.24-.445-.352 0 0-.652-.464-1.701-.176-1.097.304-.97 2.273-2.114 7.461 0 0-.366 1.633.032 3.602.175.865.397 1.201.652 1.249.318.08.62-.288.731-.4z" fill="#7D3662"/><path d="M48.194 68.845c-.048-.304-.032-.416-.048-.688-.048-.656-.207-.768-.318-1.473-.016-.144-.032-.4-.048-.929-.032-.816-.048-1.233-.016-1.441.048-.48.207-.865.509-1.633.318-.816.413-.832.572-1.361.111-.352.079-.4.254-1.441.238-1.393.35-1.761.429-1.985.143-.432.318-.752.429-.977-.048-.064-.27-.336-.636-.352-.477-.032-.779.416-.827.496-.111.16-.159.32-.159.368-.143.784-.286 1.537-.429 2.273l-.445 2.337c-.238 1.585-.222 1.553-.461 3.17-.08.592-.111 1.185-.08 1.777.064 1.169.048 1.745.366 2.097.318.352.842.464.97.304.048-.096 0-.208-.064-.544z" fill="#5B1F41"/><path d="M50.8 62.745c.016-.064.048-.128.111-.144.095-.032.191.016.222.112.095.32.238.64.302.704.08.032.111.128.095.224-.032.096-.127.16-.223.128-.064-.016-.222-.064-.493-.913l-.016-.112zM50.34 63.61c.016-.064.048-.128.111-.144.095-.032.191.016.223.112.095.32.238.64.302.704.08.032.111.128.095.224-.032.096-.127.16-.222.128-.064-.016-.223-.064-.493-.913l-.016-.112zM49.973 64.442c.016-.064.048-.128.111-.144.095-.032.191.016.222.112.095.32.239.64.302.704.079.032.111.128.095.224-.032.096-.127.16-.223.128-.064-.016-.222-.064-.493-.913l-.016-.112zM49.59 65.243c.016-.064.048-.112.111-.144.08-.032.175.016.207.096.095.304.238.608.286.672.079.032.111.128.079.208-.032.096-.111.144-.207.128-.064-.016-.207-.064-.477-.881v-.08zM49.32 66.123c0-.048.048-.112.095-.128.079-.032.159.016.191.096.079.272.207.528.254.592.064.032.095.112.079.176-.032.08-.111.128-.175.112-.048-.016-.191-.064-.413-.785l-.032-.064z" fill="#fff"/><path d="M81.65 8.359l-.048.224c-.191.72-.429.977-.731 1.681-.286.688-.222.913-.509 1.121-.207.144-.429.176-.683.208-.381.048-.715 0-.985-.048-.397-.064-.54-.128-.715-.032-.095.064-.175.16-.238.384-.366 1.281-.111 2.209-.111 2.225.032.256.127.496.223.688l.27.512c.207.432.27 1.073.095 1.185-.175.112-.62-.304-2.209-1.969-.683-.721-1.224-1.313-1.589-1.713.111-.128.509-.624.509-1.329 0-.272-.063-.496-.127-.672l-.048-.128c-.413-.128-.699-.304-.795-.384l-.238-.224c-.191-.208-.286-.432-.461-.736-.286-.512-.683-1.009-.747-1.617-.079-.704.064-1.265.254-2.065.127-.528.382-1.569 1.097-2.69.477-.752 1.16-1.825 2.257-2.305.604-.08 1.129-.16 1.542-.208.302.048.556.128.731.176.906.304 1.701.945 2.241 1.729.254.368.382.752.572 1.153.366.817.445 1.009.445 1.233v.016c0 .4-.095.48-.143.961-.048.512.079.688.143 1.361.032.432.064.817 0 1.265z" fill="#FFC694"/><path d="M81.268 5.861c-.668-.384-1.113-.817-1.955-.72-.795.096-1.51.624-1.923 1.313l-.429.784c-.238.384-.572.72-.826 1.105-.223.352-.35.752-.493 1.137l-.588 1.729c-.159-.096-.318-.208-.493-.288-.143-.08-.238-.208-.35-.336l.048-.144c.477-1.745-.286-3.698.413-5.363.207-.512.54-.945.874-1.393.302-.4.62-.817 1.033-1.105.397-.256.858-.384 1.335-.464.795-.144 1.653-.144 2.368.256.254.144.493.336.699.56.08.192.159.384.254.576.191.432.493.72.445 1.265-.064.384-.238.736-.413 1.089z" fill="#F9A964"/><path d="M83.304 3.716c-.334.48-.827.849-1.383 1.009-.08.016-.175.048-.27.032l-.159-.048c-.111-.064-.175-.192-.254-.288-.238-.32-.62-.448-1.033-.464-.62-.032-1.335.16-1.812.256-.27.064-.556.144-.763.336-.461.384-.525 1.073-.699 1.649-.366 1.201-.906 1.073-1.367 2.402-.191.528-.223.752-.366 1.217-.079.256-.207.592-.397 1.009l-.095.176c-.747-.272-1.208-.672-1.462-.929-1.049-1.041-1.24-2.402-1.367-3.298-.048-.288-.095-.833-.064-1.505.048-.881.238-1.601.397-2.097-1.303 1.041-1.796 2.049-2.019 2.77-.366 1.201-.079 2.145-.795 3.234-.397.624-.938.993-1.287 1.201.429-.72.588-1.345.668-1.729.286-1.681-.35-3.506-.525-4.003-.143-.416-.334-.865-.334-1.505 0-.224.016-.817.334-1.425.683-1.313 2.273-1.745 3.306-1.713.238.016.525.016.858.176.89.4 1.208 1.361 1.287 1.633 1.208-.817 1.955-1.057 2.432-1.121.239-.032 1.001-.144 1.542-.208l.429-.064c.095-.016.302-.032.556-.016.143.016.445.064.842.256.223.112.35.272 1.303 1.105.254.224.572.512.731.833.175.352.048.64.143.945.222.688 1.113.833 1.621.176z" fill="#6D2323"/><path d="M76.691 7.334c.143.448-.604 1.329-1.113 1.185-.111-.032-.334-.128-.477-.368l-.048-.112c-.095-.304.095-.496.159-.881.048-.256-.08-.576.048-.801.175-.304.477-.256.715-.064.191.16.35.352.461.56.063.144.207.336.254.48z" fill="#FFC694"/><path d="M76.564 31.733c-.366.096-.779-.08-.954-.432l-.175-.368c-.27-1.313-.572-2.61-.795-3.939-.207-1.329-.365-2.674-.413-4.05l-.016-.256v-.256c0-.176-.016-.352-.048-.512-.032-.352-.095-.704-.079-1.057.016-.689.048-1.393.207-2.081.032-.176.079-.336.127-.512l.127-.496c.095-.336.207-.672.318-.993l.191-.496c.064-.16.127-.32.207-.48l.222-.48.111-.24.127-.224c.334-.624 1.129-1.137 1.844-.993.715.144.779 1.377.842 1.969.254 2.145.397 4.403-.381 6.452l-.064.208-.048.208-.048.432-.032.432-.016.432.016.432.016.432c.032.576.079 1.153.095 1.745.016.592.016 1.169-.032 1.777-.016.304-.048.608-.095.929l-1.256 2.418zM77.296 28.932v.016l.064-.016c.509-.208 1.001-.432 1.526-.624l.763-.272.779-.224c.27-.064.525-.112.795-.16l.397-.064.413-.048c.541-.064 1.081-.112 1.621-.208.27-.048.54-.096.795-.16.27-.048.524-.112.795-.176l.795-.192.286-.064.509-.112c.366-.08.938-.224 1.542-.528l.254-.144c.032.208.111.336.175.416.095.112.191.144.636.432l.191.144c.127.176.064.416.016.576l-.556.304-.318.176c-.525.288-1.097.624-1.462.832-.588.32-1.049.528-1.987.913-.572.24-.858.352-1.144.464-1.24.432-2.178.512-2.972.736-.064.016-.397.112-.795.192l-.795.16c-.54.096-1.081.16-1.605.24l-.811.128c-.111.032-.334.08-.652.112h-.143c.302-.961.588-1.905.89-2.85z" fill="#F9A964"/><path d="M81.968 22.031c-.286 1.601-1.939 2.962-2.225 3.858l-.095.336c-.08.272-.111.544-.175.897-.207 1.409.048 2.354-.429 5.155-.207 1.169-.429 2.097-.588 2.69-.238.832-.699 1.553-1.303 2.097-.509.448-1.129.769-1.796.913-1.287.272-2.734-.08-3.56-.993-.318-.352-.556-.752-.747-1.169-.127-.256-.223-.512-.318-.784-.095-.24-.238-.56-.207-.961.032-.32.159-.512.318-.8.127-.224.238-.448.35-.672l.016-.032c.509-.785.731-1.809.938-2.77.127-.384.35-1.137.683-2.674l.159-.752c.254-1.409.095-2.273.079-3.442-.016-1.185.127-.897.207-2.866.095-2.065-.079-2.209.064-3.506.239-2.161.874-3.41 1.049-3.378.111.016.111.576.477.705l1.208.192 1.637.256c.604 1.105 1.176 2.033 1.653 2.77l.111.16c.509.784.779 1.185 1.049 1.521.683.816 1.049 1.041 1.303 1.697.286.704.175 1.393.143 1.553z" fill="#FFC694"/><path d="M77.072 42.364l-.111.48-.095.432c-.064.304-.143.753-.318 1.889-.318 2.129-.779 4.259-1.351 6.34-.111.416-.238.833-.366 1.249-.397 1.313-.938 2.946-1.669 4.803 0 .112-.016.224-.048.336-.079.304-.254.544-.477.721-.207.208-.493.336-.811.368-.207.016-.397 0-.572-.064-.715.32-1.446.576-2.177.817-.779.24-1.558.448-2.352.64-.795.192-1.589.336-2.384.464-.397.064-.795.128-1.208.176-.397.048-.811.096-1.224.112-.874.064-1.748.048-2.623.016l-1.351-.032c-.302 0-.588 0-.842.016l-.365.016c-.334.016-.652.032-1.081.064-.429.032-.779.08-1.049.112l-.286-.16c-.143-.096-.302-.24-.429-.448-.175-.256-.223-.496-.254-.688-.095-.48-.016-.833.016-.993.095-.352.223-.448.27-.464l.318-.064c.382-.08.842-.208.842-.208.382-.112.779-.176 1.383-.288 1.78-.336 3.052-.576 4.228-1.057.127-.048.397-.176 1.16-.48.986-.4.954-.4 1.113-.464 1.288-.56 1.256-.816 2.193-1.185.636-.24 1.144-.32 1.987-.432.699-.096 1.287-.128 1.717-.144.095-.272.159-.528.223-.752.111-.464.175-.849.222-1.121.175-1.313-.064-1.761-.032-3.874.016-.897.048-.833.064-1.841.016-1.153.016-1.841-.048-2.594l-.016-.208c-.207-1.713-.604-1.729-.795-3.538-.127-1.185-.016-1.825.111-2.306.111-.384.254-.944.683-1.505l.032-.048.016-.032.016-.032.063-.064.016-.016.318-.32.016-.016.207-.208.032-.032.064-.064.016-.016.159-.16.62-.64c.318 0 .731.016 1.208.048.175.016.524.032.938.08.556.32 1.081.721 1.558 1.153 1.033.929 1.923 2.001 2.718 3.138.016.881 0 2.241-.191 3.09z" fill="#FFD318"/><path d="M54.137 61.176l-.238.016c0-.016.111-.048.238-.016zM77.073 42.364l-.111.48-.095.432c-.064.304-.143.752-.318 1.889-.318 2.129-.779 4.259-1.351 6.34-.111.416-.238.832-.366 1.249-.397 1.313-.938 2.946-1.669 4.803 0 .112-.016.224-.048.336-.079.304-.254.544-.477.721-.207.208-.493.336-.811.368-.207.016-.397 0-.572-.064-.715.32-1.446.576-2.177.816-.779.24-1.558.448-2.352.64-.795.192-1.589.336-2.384.464-.397.064-.795.128-1.208.176-.397.048-.811.096-1.224.112-.874.064-1.748.048-2.623.016l-1.351-.032c-.302 0-.588 0-.842.016l-.366.016c-.334.016-.652.032-1.081.064-.429.032-.779.08-1.049.112l-.286-.16c2.003-.144 10.284-.961 13.065-1.841.826-.272 1.256-.56 2.623-.929.763-.208 1.176-.256 1.558-.64.413-.432.413-.912.54-1.953.286-2.562.572-2.418.556-3.842-.016-1.025-.159-1.009-.207-2.449-.064-1.569.095-1.793.048-2.546-.143-2.049-1.51-2.177-2.956-5.556 0 0-.556-1.297-.683-3.122 0-.096-.064-1.169.397-1.793l.032-.048.016-.032.016-.032.064-.064.016-.016.318-.32.016-.016.207-.208.032-.032.064-.064.016-.016.159-.16.62-.64c.318 0 .731.016 1.208.048.175.016.525.032.938.08.556.32 1.081.721 1.558 1.153 1.033.928 1.923 2.001 2.718 3.138.032.897.016 2.257-.175 3.106z" fill="#DBA703"/><path d="M89.356 69.181l.032-.016c.413-.112.461.56.54.817.127.448.286.881.429 1.329.302.961.445 1.441.779 1.825.397.448.874.592 1.653.849.429.128.922.208 1.939.368.747.112 1.128.176 1.446.192.27 0 .715 0 1.335.08.477.064.731.128.795.304.048.144-.048.304-.095.384-.254.384-.667.464-1.113.624-.763.272-.556.416-1.224.64-.922.32-1.891.256-2.225.24h-.016c-2.035-.128-4.498.304-4.498.304-.366.064-.763.144-1.144-.08-.397-.224-.54-.64-.572-.721-.207-.592.048-1.169.254-1.633.175-.416.254-.4.334-.704.159-.608-.016-1.137-.048-1.217l-.159-.368c-.127-.352-.175-.64-.191-.752-.016-.096-.048-.32-.032-.64 0-.336.016-.496.079-.64.111-.272.366-.448.636-.576.27-.128.54-.224.779-.4.095-.08.175-.176.286-.208z" fill="#F9A964"/><path d="M98.773 74.416c-.668-.272-.97.016-1.955-.016-.906-.016-1.303-.288-2.225-.368-.08 0-.382-.032-.811-.08l-.429-.064c-.525-.096-.858-.144-1.208-.368-.318-.192-.397-.368-.604-.336-.143.016-.286.128-.302.256-.016.192.302.336.381.368.095.048.175.064.238.064 0 0-.222.112-.445.192-.922.336-2.066.769-2.956.272-.127-.064-.318-.192-.509-.432-.35.048-.509.176-.588.288-.175.256-.032.512-.143 1.057-.064.272-.127.352-.191.528 0 0-.238.768.365 1.665.636.945 2.432.208 7.645-.32 0 0 1.637-.16 3.37-1.153.747-.432 1.001-.736.97-1.009-.016-.304-.461-.496-.604-.544z" fill="#9B4A78"/><path d="M98.991 75.233c-.27.144-.382.16-.62.256-.604.24-.652.448-1.288.769-.127.064-.365.16-.858.336-.763.288-1.129.432-1.351.464-.477.096-.874.08-1.685.032l-1.462-.128c-.366.016-.397.048-1.431.208-1.367.208-1.764.208-1.987.208-.445-.016-.811-.064-1.049-.112-.048.064-.222.368-.127.721.127.464.636.608.715.64.191.048.35.048.397.032.779-.112 1.526-.208 2.257-.304.747-.096 1.51-.192 2.337-.304 1.558-.256 1.51-.272 3.115-.544.572-.112 1.144-.272 1.685-.48 1.065-.416 1.621-.592 1.86-.993.238-.416.175-.945-.016-1.009-.111-.032-.191.048-.493.208z" fill="#5B1F41"/><path d="M92.48 74.672c-.064.016-.127-.016-.175-.064-.064-.08-.048-.176.032-.24.254-.192.525-.432.556-.512.016-.08.079-.144.175-.16.095 0 .191.064.191.16 0 .064 0 .24-.699.768l-.08.048zM93.417 74.833c-.064.016-.127-.016-.175-.064-.064-.08-.048-.176.032-.24.254-.192.525-.432.556-.512.016-.08.079-.144.175-.16.095 0 .191.064.191.16 0 .064 0 .24-.699.768l-.08.048zM94.32 74.912c-.064.016-.127-.016-.175-.064-.064-.08-.048-.176.032-.24.254-.192.524-.432.556-.512.016-.08.079-.144.175-.16.095 0 .191.064.191.16 0 .064 0 .24-.699.768l-.079.048zM95.179 75.04c-.064.016-.127-.016-.159-.064-.064-.064-.048-.176.032-.224.254-.192.493-.416.54-.48.016-.08.08-.144.175-.144.095 0 .175.064.175.16 0 .064 0 .224-.668.737l-.095.016zM96.1 75.008c-.048.016-.111-.016-.143-.048-.048-.064-.032-.16.032-.208.222-.16.445-.352.477-.416.016-.064.08-.128.143-.128.079 0 .159.064.159.144 0 .048 0 .192-.604.64l-.064.016z" fill="#fff"/><path d="M90.838 72.671c-.095.08-.207.16-.35.224-.286.16-.652.336-1.081.416 0 0-.556.128-1.144-.048-.397-.112-.509-.272-.54-.336l-.079-.368c-.08-.448-.222-.993-.222-.993-.064-.192-.095-.4-.143-.624-.048-.288-.095-.608-.175-.993-.35-2.097-.604-3.586-1.144-4.963-.064-.16-.191-.48-.524-1.361l-.509-1.313c-.62-1.521-.922-1.489-1.319-2.578-.27-.736-.397-1.537-.477-2.321-.016-.224-.095-1.009-.111-2.225-.016-1.137.032-1.409-.016-1.681l-.048-.176c-.175-.448-.604-.672-.811-.785-.413-.224-.763-.56-1.16-.8l-.127-.08c-1.717-.944-5.388-4.435-5.944-4.947-1.86-1.761-2.782-2.642-3.433-3.57-.413-.592-.89-1.265-1.272-1.985-.381-.721-.668-1.473-.715-2.225-.032-.448.032-.897.222-1.313.175-.4.429-.72.699-.977l.063-.064c.207-.176.588-.48 1.192-.721h.016l.048-.016.048-.016.063-.016.111-.032.048-.016.032-.016h.016c1.049-.304 1.907-.064 2.972.256l.143.048.079.016.032.016.095.032c.064.016.795-.544 1.462-.897h.048c.938.096 1.542.897 2.352 2.29.318.528.652 1.153 1.049 1.841l.095.176c.382.64 1.351 2.161 3.306 5.171 1.144 1.777 2.13 3.17 2.781 4.066 0 0 1.335 1.089 1.86 2.402.111.256.175.528.207.8.016.24 0 .464-.08.672.191.993.413 2.305.652 3.842.318 2.017.683 4.371.938 7.333.191 2.241.159 2.77.429 5.651.159 1.377.286 2.466.366 3.202z" fill="#FFD318"/><path d="M88.359 51.186c-.811-1.089-2.003-1.921-3.02-2.85-1.526-1.377-2.75-3.074-3.862-4.819-.795-1.233-1.526-2.514-2.527-3.602-.985-1.089-2.273-1.969-3.719-2.177-.413-.064-2.543-.304-3.64 1.121-.938 1.201-.826 3.186.382 4.771-1.573-1.889-2.4-3.666-2.416-4.675-.016-.768.223-1.313.223-1.313.175-.4.429-.721.699-.977l.064-.064c.207-.176.588-.48 1.192-.721h.016l.048-.016.048-.016.064-.016.111-.032.048-.016.032-.016h.016c1.049-.304 1.907-.064 2.972.256l.143.048.08.016.032.016.095.032c.063.016.795-.544 1.462-.897h.048c.938.096 1.542.897 2.352 2.29.318.528.652 1.153 1.049 1.841l.095.176c.381.641 1.351 2.161 3.306 5.171 1.144 1.777 2.13 3.17 2.782 4.066-.032 0 1.287 1.089 1.828 2.401z" fill="#DBA703"/><path d="M81.556 23.28c-.064.112-.207.32-.493.736l-.826 1.185c-.27.464-.27.865-.413 1.857-.159 1.153-.334 2.321-.35 3.49-.016 1.361.302 3.218.827 4.451.064.144.143.288.143.448.048.464-.413.8-.811 1.009-.763.384-1.605.56-2.495.592-2.019.08-4.228-.576-6.119-1.265l-1.288-.48c-.111-.048-.238-.096-.302-.208-.127-.208.032-.48.191-.672.525-.608 1.097-1.185 1.542-1.873l.016-.032c.509-.784.731-1.809.938-2.77.048-.256.111-.496.175-.736.238-.945.429-1.969.477-2.962l.016-.384.016-.272.048-1.025c-.016-.768-.175-1.489-.175-1.489-.095-.432-.191-1.105-.381-2.45-.334-2.257-.048-3.922.048-4.467.286-1.521.715-1.953.906-2.129.095-.08.35-.272.636-.592.286-.32.461-.608.572-.816.715.592 1.224 1.153 1.59 1.617l.175.224c.954 1.233 1.271 2.273 2.4 2.754.318.144.62.192.827.208l.111.016c.127.176.318.464.556.785.302.416.509.704.62.817.62.704 1.16 1.297 1.319 2.049.254 1.121-.381 2.193-.493 2.386z" fill="#928D53"/><path d="M76.688 15.835c.111-.176.223-.32.286-.464-.222-.336-.461-.704-.763-1.105l-.175-.224c-.366-.448-.874-1.025-1.589-1.617-.111.192-.302.496-.572.816-.286.32-.54.512-.636.592-.207.176-.62.608-.906 2.129-.111.544-.381 2.209-.048 4.467.191 1.345.302 2.017.381 2.45 0 0 .159.72.175 1.489l-.048 1.025-.016.272-.016.384c-.048.977-.238 2.001-.477 2.962l-.175.736c-.207.961-.429 1.985-.938 2.77l-.016.032c-.445.672-1.017 1.249-1.542 1.873-.159.192-.334.464-.191.672.064.112.191.16.302.208.413.16.842.32 1.287.48.811.288 1.685.576 2.559.8-.238-.096-.461-.208-.684-.32-.588-.304-1.192-.752-1.287-1.393-.064-.368.048-.736.191-1.089.445-1.121 1.144-2.129 1.717-3.202 1.144-2.161 1.748-4.627 1.717-7.093-.016-.88-.079-1.825.413-2.546l.35-.496c.366-.64.111-1.441.048-2.177-.064-.849.191-1.713.652-2.434z" fill="#75732E"/><path d="M90.04 24.433l-.016.032-.032.064.048-.096zM89.007 25.218l.111-.64.063-.208.175-.272.111-.16.095-.176c.064-.112.111-.224.207-.336l.127-.16.095-.176c.064-.112.095-.24.111-.384.016-.144.127-.256.286-.256.159 0 .302.128.302.288v.176c0 .16-.016.304-.064.448l-.079.208-.111.192-.222.384-.111.192-.08.128.016-.032-.048.096.032-.064-.032.128-.048.16-.111.32-.207.656c-.048.048-.207.224-.493.256-.127.016-.223-.016-.286-.048.063-.24.111-.48.159-.72zM88.722 25.762c.095-.208.127-.448.27-.768.111-.24.175-.32.27-.48l.127-.272.127-.192.397-.576.143.16.095.128.063.096c.08.144-.191.48-.127.56.048.064.35-.016.556-.16.048-.032.143-.096.222-.08l.079.064.556.528.175.192.143.304.095.176c.048.128.016.24 0 .336-.016.128-.032.304.048.528-.032.096-.079.24-.191.384-.143.16-.318.128-.684.352l-.111.064-.413.224c-.175.08-.207.032-.652.096-.223.032-.366.048-.525.112-.222.08-.381.176-.493.256l-.111-.352c-.048-.128-.095-.24-.159-.352l-.111-.176c-.127-.256-.175-.496-.191-.672.222-.16.334-.352.397-.48z" fill="#F9A964"/><path d="M91.915 25.858v.208c-.064.16-.159.304-.286.432v.144l-.032.112-.032.096c-.095.048-.254.128-.493.208l-.111.032c-.143.048-.222.08-.318.08l-.302-.064c-.095-.016-.191-.048-.27-.112-.111-.08-.159-.208-.207-.32l-.032-.144.032-.272c0-.128-.08-.24-.127-.368-.032-.096-.048-.224-.032-.32s.048-.192.095-.272c.08-.16.175-.304.207-.48l.016-.192c.016-.064.032-.16.079-.176l.143-.016.079-.016.159-.064.016-.016.048-.016.064-.048.032-.016c.095-.016.175-.016.27 0l.016.016.556.528.175.192.143.304.095.176c.048.128.016.24 0 .336l.016.048z" fill="#E57B2C"/><path d="M90.165 24.497l.302-.16.302-.16.604-.304.032-.016c.175-.08.381.016.461.192.079.176-.016.384-.191.464l-.62.256-.302.128-.302.128c-.143.064-.302 0-.381-.128-.095-.128-.048-.32.095-.4zM90.107 25.138l1.685-.592.032-.016c.207-.048.413.08.461.272.048.208-.08.416-.27.464l-1.732.448c-.159.032-.318-.048-.366-.192-.048-.16.032-.336.191-.384zM90.437 25.746c.254-.064.509-.144.763-.224l.381-.128.366-.128h.016l.032-.016c.207-.048.413.064.477.272.048.208-.064.416-.27.48l-.397.112-.413.096c-.27.064-.54.112-.811.16-.159.032-.318-.08-.35-.24-.064-.176.032-.336.207-.384zM92.009 26.659l-.048.032.048-.032zM90.961 26.515l.683-.432.048-.016.159-.08.048-.016c.207-.08.445.016.509.208s-.048.4-.27.48l-.159.064.048-.016-.048.016-.683.336c-.159.08-.334.048-.429-.08-.111-.176-.064-.368.095-.464zM73.972 35.336h.239c.079.016.127.064.302.272.27.304.413.448.477.496.159.128.254.144.254.224 0 .096-.159.224-.334.224-.143-.016-.223-.112-.238-.128l-.159-.112c-.286-.192-.445-.288-.62-.304l-.382.032c-.159 0-.286-.032-.366-.048-.683-.16-.715-.08-.89-.192-.27-.176-.445-.512-.365-.608.111-.128.699.352 1.24.288.064 0 .54-.064.731-.112l.111-.032z" fill="#F9A964"/><path d="M62.484 28.484c-.286-.224-.445-.432-.54-.576l-.111-.224c-.064-.224.016-.432.079-.528l.175-.304.191-.304c.747-1.153 1.446-2.081 1.971-2.754.509-.64.779-.961 1.192-1.393.731-.752 1.208-1.073 2.178-2.241 2.479-3.01 2.289-4.227 4.212-5.187 1.351-.881 2.766-1.041 3.497-.576.429.272.747.672.747.672.079.096.413.528.477.977.111.736-.525 1.393-.922 1.841-.604.704-1.51 1.649-3.767 3.442 0 0-1.685 1.345-2.75 2.369-.175.16-.334.336-.334.336l-.334.336c-.159.16-.302.32-.445.48l-.874.896c-.477.528-.477.64-.954 1.153-.254.272-.477.496-.636.624-1.017.304-2.034.64-3.052.961zM64.534 26.69l-.016.016.032.016c.254.128.54.064.763-.016 1.192 1.297 2.114 2.402 2.75 3.186.89 1.105 1.733 2.274 2.591 3.394l1.287 1.617c.048.048.159.224.382.368l.207.112c.683.32 1.415.432 2.05.897.095.064.191.144.27.24.143.192.207.432.238.656.032.144.032.336-.095.416l-.143.08c-.159.112-.095.384-.207.528l-.254.176-.366.368c-.191.16-.27.176-.302.176l-.254-.048c-.223 0-.286.176-.477.192-.048 0-.127 0-.477-.24-.35-.256-.652-.512-.795-.784l-.207-.512c-.159-.336-.461-.592-.604-.929-.08-.208-.191-.336-.334-.496-.413-.432-.858-.833-1.303-1.233-1.129-1.041-1.287-1.089-2.623-2.258-.604-.544-1.415-1.313-3.02-2.866-.35-.336-.652-.736-1.017-1.057-.127-.112-.413-.352-.62-.753l-.127-.288 2.67-.961z" fill="#FFC694"/><path d="M71.669 19.23c-.747-.496-1.446-.704-1.764-.785-.525-.128-.97-.16-1.303-.176l.922-1.297.652-.929c.382-.48.636-.817 1.033-1.137.27-.208.731-.592 1.478-.816.445-.144 1.24-.384 2.13-.112.715.224 1.144.672 1.367.913.286.304.731.784.826 1.537.016.16.095.752-.238 1.329-.111.208-.239.304-1.144 1.041-.27.224-.54.432-1.367 1.025-.493.352-.89.656-1.176.849-.223-.368-.668-.929-1.415-1.441z" fill="#928D53"/><path d="M72.416 2.243c.143-.208.318-.336.413-.4.222-.16.509-.288.779-.24l.127.08c.032.064-.016.128-.079.16l-.191.032c-.222.032-.509.32-.683.544-.493.64-.588.881-.652.865-.064-.032-.016-.592.286-1.041z" fill="#F9D33A"/><path d="M110.877 85.639h-25.272l-1.574-2.321h30.009l-3.163 2.321zM43.817 85.639h-12.016l-.699-2.321h13.431l-.715 2.321z" fill="#281F19"/><path d="M117.204 81.06v.432c0 1.329-1.065 2.401-2.385 2.401h-91.615c-1.319 0-2.384-1.073-2.384-2.401v-.432c0-1.329 1.065-2.401 2.384-2.401h91.6c1.335 0 2.4 1.073 2.4 2.401z" fill="#B65A24"/><path d="M109.462 80.852c-.064.945-.397 1.889-1.065 2.466-.286.24-.62.416-.985.48-.382.08-.763.032-1.145-.016-1.526-.224-4.704-1.761-5.197-1.985-1.145-.496-1.812-.544-4.403-.913-3.306-.48-7.788-1.201-13.78-2.193v-.032h26.432c.111.72.191 1.457.143 2.193z" fill="#B04C1C"/><path d="M115.311 81.284c0 .288-.111.56-.302.753-.191.192-.445.304-.747.304h-90.486c-.572 0-1.049-.48-1.049-1.057 0-.288.111-.56.302-.752.191-.192.445-.304.747-.304h90.486c.572-.016 1.049.464 1.049 1.057z" fill="#fff"/><path d="M109.464 80.853c-.032.512-.159 1.025-.366 1.473h-7.152l-.445-.256-.446-.272c-.254-.16-2.352-.64-7.422-1.585h15.846c0 .224 0 .432-.015.64z" fill="#C2B8B6"/><path d="M107.507 83.078c-.127.032-.254.048-.381.048-.874 0-1.669-.624-1.86-1.521l-9.123-44.156-1.097-5.347c-.207-1.041.445-2.049 1.478-2.273 1.033-.208 2.034.448 2.257 1.489l3.322 16.106 6.898 33.397c.191 1.025-.461 2.033-1.494 2.257z" fill="#E2DBDB"/><path d="M102.087 47.407c-.953-2.337-1.907-4.675-2.861-6.996-.35-.864-.731-1.761-1.415-2.401-.652-.624-1.16-.672-1.669-.576l-1.097-5.347c-.207-1.041.445-2.049 1.478-2.273 1.033-.208 2.035.448 2.257 1.489l3.306 16.106z" fill="#BFB8B5"/><path d="M108.386 11.625v3.5860000000000003c0 2.177-.016 4.339-.032 6.516 0 .48-.159.961-.445 1.345-.445.592-.906 1.185-1.383 1.761l-.477.576-.238.288-.254.272-.493.56-.509.544c-1.366 1.441-2.813 2.802-4.355 4.051-1.541 1.249-3.147 2.401-4.832 3.442-1.685 1.041-3.433 1.937-5.229 2.754l-1.367.576-.334.144-.35.128-.699.256-.683.256-.175.064-.175.064-.35.112-.699.224-.35.112-.35.112-1.415.384-.715.176-.715.16-.35.08-.175.032-.175.032-.715.144-.715.128-.731.112c-1.939.304-3.878.464-5.833.512l-.731.016h-.731c-.493 0-.969-.016-1.462-.032-.715-.032-1.43-.08-2.13-.144-.429-.048-.747-.432-.715-.865l.286-3.234.016-.24c.063-.752.699-1.313 1.462-1.297.397.016.811.016 1.208.016.429 0 .842 0 1.272-.016l.636-.016.636-.048c1.685-.112 3.37-.336 5.023-.672l.62-.128.62-.144.62-.144.159-.032.159-.048.302-.08.604-.176.604-.176 1.208-.384.302-.112.302-.112.588-.224.302-.112.143-.048.143-.064.588-.24.572-.24.286-.128.286-.128 1.129-.544c1.494-.768 2.956-1.601 4.339-2.546 1.383-.945 2.702-1.985 3.942-3.09 1.24-1.121 2.416-2.305 3.513-3.57l.413-.48.397-.48.191-.24.19-.24.382-.496c.667-.769 1.351-1.569 2.018-2.402 1.765-2.193 3.275-4.355 4.578-6.452.286-.544 1.049-.32 1.049.288z" fill="#F3F0EF"/><path d="M108.382 11.721v3.49c0 2.177-.016 4.339-.032 6.516 0 .48-.159.961-.445 1.345-.445.592-.906 1.185-1.383 1.761l-.476.576-.239.288-.254.272-.493.56-.508.544c-1.367 1.441-2.814 2.802-4.356 4.05-1.541 1.249-3.147 2.401-4.831 3.442-1.685 1.041-3.433 1.937-5.229 2.754l-1.367.576-.334.144-.35.128-.699.256-.683.256-.175.064-.175.064-.35.112-.699.224-.35.112-.35.112-1.415.384-.715.176-.715.16-.35.08-.175.032-.175.032-.715.144-.715.128-.731.112c-1.939.304-3.878.464-5.833.512l-.731.016h-.731c-.493 0-.97-.016-1.462-.032-.715-.032-1.43-.08-2.13-.144-.429-.048-.747-.432-.715-.864l.286-3.234c.572.48 1.287.993 2.146 1.425 5.992 3.042 13.097-.272 16.355-1.793 3.37-1.569 5.595-3.33 7.438-4.787 5.786-4.627 9.409-9.91 10.808-12.584 1.542-2.962 2.321-4.435 2.48-4.995.333-1.153.445-2.001 1.096-2.29.111-.112.286-.144.477-.128z" fill="#D7D1CD"/></g><defs><clipPath id="a"><path fill="#fff" d="M0 0h137v87h-137z"/></clipPath></defs></svg>