<svg width="60" height="60" viewBox="0 0 60 60" xmlns="http://www.w3.org/2000/svg" fill="none"><path d="M39.763 21.852c-1.265 2.066-5.145 3.015-5.623 6.169-.759 4.941-3.149 14.934-17.46 15.855-8.519.558-13.721-2.484-15.745-7.118-.169-.391-.309-.782-.45-1.2-.843-2.931-.59-6.364.787-9.854 3.908-9.854 10.403-13.371 17.095-14.096 6.692-.754 8.351-3.517 14.845-4.075 2.137-.195 3.768.502 4.892 1.619l.028.028c1.181 1.2 2.193 2.819 2.39 4.494.309 2.736.703 5.806-.759 8.179z" fill="#FF6456"/><path d="M36.812 17.666c-1.265 2.066-5.145 3.015-5.623 6.169-.759 4.941-3.149 14.934-17.46 15.855-1.153.084-2.221.084-3.261.028h-.197c-.45-.028-.9-.056-1.35-.112-3.486-.391-6.186-1.563-8.126-3.238-.112-.279-.197-.53-.281-.809l-.084-.251-.056-.223v-.028l-.084-.335c-.056-.279-.112-.53-.141-.809l-.028-.167c-.028-.084-.028-.168-.028-.279-.028-.112-.028-.223-.028-.363l-.028-.363c-.028-.335-.028-.614-.028-.921v-.363c0-.112 0-.251.028-.363l.028-.363.084-.754c.028-.223.056-.447.112-.67l.084-.391c.169-.809.394-1.619.675-2.456.084-.251.169-.502.281-.726.084-.251.197-.475.281-.698l.056-.139.141-.335.169-.363c.197-.419.394-.837.59-1.228.084-.168.169-.363.281-.53.337-.614.675-1.172 1.012-1.731l.253-.391.056-.112c.197-.307.394-.586.619-.865 1.687-2.261 3.571-3.936 5.595-5.136l.675-.391.028-.028.366-.195.366-.168c.309-.14.59-.279.9-.391.113-.056.253-.112.365-.14.169-.084.366-.139.562-.195l.562-.195.872-.251.422-.112.309-.084.169-.028.084-.028h.056l.309-.056c.112-.028.225-.056.337-.056.534-.112 1.097-.195 1.631-.251 1.912-.223 3.402-.586 4.724-1.033 2.53-.837 4.414-1.926 7.226-2.596.872-.195 1.827-.363 2.896-.447 1.687-.14 3.065.251 4.133.977.112.335.169.67.197 1.005.337 2.68.703 5.75-.731 8.123z" fill="#FF8586"/><path d="M38.527 10.659c-.056-.502-.197-.977-.366-1.451-.253-.251-.506-.475-.787-.67.112.335.169.67.197 1.005.309 2.708.675 5.778-.759 8.151-1.265 2.066-5.145 3.015-5.623 6.169-.394 2.624-1.265 6.643-4.105 10.021-.703-1.396-3.205-3.489-4.808-3.489-2.165 0-5.201.474-7.591-1.312 1.771-.028 4.049-.363 7.029-1.535 5.651-2.205 7.901-11.752 7.901-11.752s-1.828-2.428-1.771-1.228c.169 3.629-3.458 8.988-6.748 11.445 2.699-5.974-1.518-11.417-4.358-14.18-.112.028-.225.056-.337.056l-.309.056h-.056l-.084.028h-.028l-.112.028h-.084.056l-.309.084c6.635 5.387 5.23 12.366 4.555 14.599l-.141.084c-3.515 1.842-7.901.558-10.853-.363-2.474-.754-5.904.586-7.535 2.205.253-2.373 1.068-5.164 2.671-8.458l-.056.112-.253.391c-.337.558-.675 1.116-1.012 1.731l-.281.53c-.197.391-.394.809-.59 1.228l-.169.363-.141.335-.056.14-.281.698c-.112.251-.197.502-.281.726-.281.809-.506 1.647-.675 2.456-.084.168-.112.279-.112.419l-.112.67-.084.754-.028.363-.028.363v.363c0 .307 0 .586.028.893 0 .112 0 .251.028.363l.028.363.028.279.028.168c.028.279.084.558.141.809l.084.335v.028l.056.223.084.251c.084.279.169.558.281.809.084.251.225.474.422.642 2.727 2.68 7.198 4.215 13.468 3.824 14.311-.921 16.729-10.914 17.46-15.855.478-3.154 4.358-4.103 5.623-6.169 1.434-2.317 1.068-5.387.759-8.095zm-24.799 29.03c-1.153.084-2.221.084-3.261.028h-.197c-3.796-.279-8.435-2.68-8.857-8.598 3.008-4.215 7.901-2.624 9.644-2.373l1.434.223c.506.558 1.799 1.758 4.302 2.373 3.318.837 8.997-.167 8.604 4.131.112-.14.281-.251.45-.363-.141.14-.309.279-.45.391v-.056l-.141.167c-2.53 2.121-6.214 3.713-11.528 4.075z" fill="#FFFAF9"/><path d="M10.355 14.176c.45-.279.928-.53 1.406-.754-.478.223-.956.475-1.406.754zM12.66 13.004c.478-.195.984-.391 1.49-.53-.506.168-.984.335-1.49.53z" fill="#F7C4C1"/><path d="M34.787 14.065c-.084.279-.225.586-.45.921-1.687 2.596-7.029 5.611-7.704.307-.084-.614-.084-1.34-.028-2.177.281-3.852 8.997-1.982 8.182.949z" fill="#FFD1BC"/><path d="M34.337 14.986c-1.687 2.596-7.029 5.611-7.704.307.506-2.847 6.017-2.177 7.704-.307z" fill="#FEFDFF"/><path d="M40.688 33.772s10.628.363 12.905-1.005c2.278-1.368 4.78-2.289 5.904-1.256 1.153 1.033-.9 2.819-.9 2.819s2.306 1.284.956 2.484-2.53-.949-6.86-.447-11.556 4.02-11.556 4.02l-.45-6.616z" fill="#F2E3CD"/><path d="M30.117 51.86c-1.828.502-3.655.558-5.286-.084-8.435-3.35-10.066-11.696-8.744-15.436.337-1.005.984-1.898 1.8-2.708 3.008-2.959 8.575-4.466 12.371-4.159 5.033.391 10.178 2.038 12.765 3.266 2.615 1.228.815 2.68.984 3.573.169.893 1.265.084 1.799 2.01.366 1.34-8.013 11.445-15.689 13.538z" fill="#CE5E36"/><path d="M30.117 51.859c-1.828.503-3.655.558-5.286-.084-8.435-3.35-10.066-11.696-8.744-15.436.337-1.005.984-1.898 1.8-2.708 2.221-1.424 4.78-2.289 6.663-.503 4.021 3.796-1.631 7.202-.084 10.356 1.406 2.875 9.025 3.964 5.651 8.374zM41.448 35.363c.309 1.172-12.399-.084-13.552-1.451-1.125-1.34 13.018-.53 13.552 1.451zM42.179 41.643c.295 0 .534-.237.534-.53 0-.293-.239-.53-.534-.53-.295 0-.534.237-.534.53 0 .293.239.53.534.53zM35.151 40.778c.295 0 .534-.237.534-.53 0-.293-.239-.53-.534-.53-.295 0-.534.237-.534.53 0 .293.239.53.534.53zM39.257 44.937c.295 0 .534-.237.534-.53 0-.293-.239-.53-.534-.53-.295 0-.534.237-.534.53 0 .293.239.53.534.53zM36.558 43.095c.295 0 .534-.237.534-.53 0-.293-.239-.53-.534-.53-.295 0-.534.237-.534.53 0 .293.239.53.534.53zM39.257 40.973c.295 0 .534-.237.534-.53 0-.293-.239-.53-.534-.53-.295 0-.534.237-.534.53 0 .293.239.53.534.53zM40.55 39.103c.295 0 .534-.237.534-.53 0-.293-.239-.53-.534-.53-.295 0-.534.237-.534.53 0 .293.239.53.534.53zM35.573 47.226c.295 0 .534-.237.534-.53 0-.293-.239-.53-.534-.53-.295 0-.534.238-.534.53 0 .293.239.53.534.53zM34.054 44.825c.295 0 .534-.238.534-.53 0-.293-.239-.53-.534-.53-.295 0-.534.237-.534.53 0 .293.239.53.534.53zM31.046 40.359c.295 0 .534-.237.534-.53 0-.293-.239-.53-.534-.53-.295 0-.534.238-.534.53 0 .293.239.53.534.53zM32.28 48.343c.295 0 .534-.238.534-.53 0-.293-.239-.53-.534-.53-.295 0-.534.237-.534.53 0 .293.239.53.534.53zM29.921 44.797c.295 0 .534-.237.534-.53 0-.293-.239-.53-.534-.53-.295 0-.534.237-.534.53 0 .293.239.53.534.53z" fill="#B24929"/><path d="M45.836 35.837s5.623-1.647 9.559-1.284" stroke="#E1C9A4" stroke-miterlimit="10" stroke-linecap="round"/></svg>