<svg width="110" height="103" viewBox="0 0 110 103" xmlns="http://www.w3.org/2000/svg" fill="none"><g clip-path="url(#a)"><ellipse cx="54.688" cy="95.505" rx="48.688" ry="7.495" fill="#F3F2EE"/><path d="M63.505 36.453c.959-2.87-3.224-6.487-7.245-10.39-3.039-2.951-7.118-7.187-11.67-12.79 2.23-.563 4.783-1.366 7.51-2.526 3.79-1.619 6.875-3.502 9.255-5.201l-.532-3.065c-4.437.471-10.052 1.527-16.222 3.869-3.686 1.401-6.863 2.985-9.521 4.535 1.722 4.305 3.501 7.681 4.83 9.988 6.551 11.435 12.375 14.971 14.212 15.981 5.153 2.859 7.326 1.734 7.776 1.469.196-.126 1.225-.746 1.606-1.871z" fill="url(#b)"/><path d="M81.553 85.12c-.173.85-.462 1.619-.82 2.296-1.329 2.549-3.559 3.88-4.044 4.156-3.767 2.158-7.984 1.251-9.625.93-.589-.115-1.19-.23-1.826-.333-7.453-1.274-17.794-2.044-26.864-3.123-8.585-1.01-16.049-2.308-18.857-4.558-.416-.333-1.525-1.217-1.514-2.4.012-1.538 1.93-2.732 3.305-3.467 6.678-3.548 15.367-4.535 15.367-4.535 8.25-.93 11.959-1.619 17.551-2.181l.751-.069c1.421-.138 2.981-.264 4.772-.39.543-.034 1.098-.069 1.687-.115 0 0 4.31-.264 9.07.758.739.161 1.49.344 2.242.574.335.103.774.241 1.282.425.162.057.335.126.508.207 1.098.459 2.426 1.182 3.674 2.365l.243.23.219.218c.728.758 1.71 2.09 2.369 3.766.092.252.185.505.266.769.404 1.355.578 2.87.243 4.477z" fill="#FFD5A1"/><path d="M53.522 5.421c-.127 1.389 1.571 1.78 2.103 4.213.254 1.171.092 2.124-.081 3.1-.763 4.374-1.768 10.505-6.702 11.951-2.854.838-5.916.344-8.885.103-.624-.046-1.259-.092-1.849.103-.659.218-1.202.689-1.745 1.125-3.952 3.192-9.752 4.707-14.212 2.273 1.155-.115 2.161.723 3.097 1.401 6.886 4.937 13.888-.138 21.318 1.447 2.034.425 3.882 1.47 5.904 1.917 4.16.918 8.4-.735 12.329-2.377 3.605-1.515 8.458-4.409 9.151-8.68.543-3.341-4.599-4.684-5.465-7.635-.89-3.031.855-5.075-.855-7.417-1.132-1.55-2.923-2.354-4.761-3.169-2.172-.976-3.536-1.642-5.292-1.343-1.71.264-3.917 1.47-4.056 2.985z" fill="#870036"/><path d="M81.38 80.504l-.069.172c-.416 1.033-1.306 2.87-3.004 4.604-.624.643-1.363 1.274-2.23 1.848-1.213.804-2.392 1.297-3.305 1.596-.867.276-1.502.39-1.745.425-2.068.322-3.905.069-5.373-.356-1.375-.39-2.438-.918-3.062-1.24-4.76-2.445-9.174-7.853-8.851-13.386.058-.987.243-1.653.485-2.239l.023-.057c.127-.287.266-.563.404-.827.428-.838.878-1.722 1.075-3.444l.023-.218c.185-1.952-.82-5.052-2.819-11.194-.508-1.55-.971-2.905-1.387-4.259l-.046-.161c-.601-1.917-1.121-3.823-1.583-6.28-.173-.919-.3-1.676-.381-2.193.497-1.022 1.34-2.48 2.738-3.926 1.063-1.102 1.548-1.263 2.958-2.411 1.987-1.619 3.917-3.192 5.2-5.775.428-.85 1.283-2.572 1.329-4.753v-.413c-.023-.964-.254-3.157-.254-3.157l4.679-2.641c-.693 3.387-.023 5.614.474 6.785.404.93.971 1.837 2.01 3.467 1.19 1.871 1.86 2.698 2.276 3.329 2.172 3.306 1.675 7.795 1.236 10.092-.092.517-.196.93-.254 1.183-.532 2.273-1.745 4.167-2.842 7.405-1.132 3.341-1.502 5.075-1.606 6.177-.046.459-.035.804-.023 1.114.15 2.847 1.352 4.902 2.415 6.659 1.098 1.825 2.184 3.019 3.316 4.11.543.517 1.086 1.01 1.664 1.55 1.04.964 2.138 2.043 3.351 3.593.324.413.67.861 1.005 1.355.774 1.102 1.375 2.101 1.814 2.859.15.23.266.425.358.608z" fill="#FFD5A1"/><path d="M81.553 85.12c-.82 4.053-4.252 6.108-4.864 6.452-3.767 2.158-7.984 1.251-9.625.93-7.522-1.481-18.857-2.285-28.69-3.456-3.282-3.18-6.551-6.36-9.833-9.552 1.294-.184 3.016-.367 5.049-.425 0 0 4.113-.115 7.753.425 6.182.918 7.637 3.41 18.753 7.566 2.08.781 3.952 1.309 6.343 1.516 2.38.195 5.373.413 8.227-1.332.809-.494 3.282-1.998 3.929-4.879.427-1.883-.127-3.456-.358-4.087-1.052-2.87-3.282-4.409-4.287-5.063-2.588-1.676-5.176-1.94-7.614-2.193-3.039-.31-5.35 0-5.361-.138-.012-.115 1.86-.436 3.998-.574 3.663-.23 4.714.298 5.246-.356.936-1.137-1.687-3.398-2.796-7.485-1.225-4.523.023-8.783 1.121-12.032 1.421-4.225 3.178-5.821 3.178-9.908 0-2.962-.924-4.879-1.248-5.511-.462-.884-1.04-1.676-2.727-3.375-1.375-1.378-3.351-3.226-5.974-5.235v-.413c-.023-.964-.254-3.157-.254-3.157l4.68-2.641c-.693 3.387-.023 5.614.474 6.785.404.93.971 1.837 2.01 3.467 1.19 1.871 1.86 2.698 2.276 3.329 2.669 4.053 1.306 9.873.982 11.274-.531 2.273-1.745 4.167-2.842 7.405-1.606 4.73-1.675 6.234-1.618 7.302.15 2.847 1.352 4.902 2.415 6.659 2.565 4.271 5.038 5.063 8.331 9.254l.243.23.219.218c.728.758 1.71 2.09 2.369 3.766l.335.597-.069.172c.393 1.343.566 2.859.231 4.466z" fill="#F87659"/><path d="M71.743 17.464c-.74.689-1.733.976-2.738 1.045-1.051 1.309-3.547 3.984-7.51 4.81l-.763.138c-1.329.057-2.357-.815-2.657-1.102-1.132-1.056-1.364-2.468-1.387-2.686-.127-.861 0-1.848-.393-2.537 0 0-.162-.276-.3-.677-.139-.39-.208-.597-.139-.769.116-.299.508-.287.913-.471.867-.413 1.109-1.814 1.086-2.652l-.716-2.572c-.104-.815-.035-1.458.012-1.791l.023-.195c.208-1.401.786-2.56 1.155-3.031.774-.999 2.542-1.504 4.587-1.401 2.403.115 5.188 1.079 7.118 3.031 3.039 3.042 4.067 8.656 1.71 10.861z" fill="#FFD5A1"/><path d="M64.707 12.413c.069.953.323 2.331 1.178 3.972-.289-.184-.74-.459-1.306-.792-1.098-.632-1.363-.7-1.629-.884-1.548-1.022-.404-3.72-1.814-6.441-.324-.631-.901-1.47-1.941-2.285-.358.184-.89.494-1.375 1.033-.312.333-.52.677-.659.953.208-1.401.786-2.56 1.155-3.031.774-.999 2.542-1.504 4.587-1.401.901.712 1.629 1.619 2.034 2.686.751 2.032-.428 3.456-.231 6.188z" fill="#FF977D"/><path d="M55.983 4.732c-.277.103-.555.218-.832.356-.266.138-.532.276-.774.436-.243.161-.462.321-.647.505l-.127.138-.104.138-.116.172-.058.092-.023.046-.012.023-.012.011.046-.138c.023-.103.035-.207.023-.298l-.069.436c-.243.425-.393.941-.474 1.492-.081.563-.116 1.16-.116 1.757-.012 1.206.069 2.468-.092 3.754-.081.643-.231 1.274-.462 1.871-.116.298-.254.597-.416.873-.162.276-.358.551-.578.781l-.081.092-.092.08-.173.161-.185.149-.185.138-.15.138-.081.161-.023.195.023.218c.046.31.069.62.081.93.023.31.035.62.046.93-.092-.608-.185-1.228-.324-1.814l-.058-.241c-.011-.092-.011-.172.012-.264.011-.092.058-.184.104-.264l.173-.207.173-.161.15-.161.15-.172.069-.08.069-.092c.173-.23.323-.494.439-.758.127-.264.22-.551.289-.827.15-.574.219-1.16.231-1.745.023-1.182-.185-2.388-.312-3.639-.058-.631-.104-1.274-.081-1.94.023-.666.139-1.378.427-2.067l-.069.436c-.011-.092 0-.207.023-.298l.046-.138v-.011l.012-.023.011-.034.035-.069.058-.126.139-.264.173-.276.196-.253c.266-.321.555-.586.843-.827.3-.241.601-.448.913-.643.15-.092.37-.241.67-.39.3-.149.705-.344 1.225-.505-.058.746-.092 1.481-.127 2.216z" fill="#C42F48"/><path d="M68.416 53.95s-1.167 2.491-1.294 2.181c-.139-.31-4.472-1.424-7.591-1.55-2.75-.115-6.99-2.158-7.973-2.652l-.046-.161c1.329-.253 2.808-.436 4.449-.482 5.361-.138 9.706 1.389 12.456 2.664zM81.553 85.12c-.173.85-.462 1.619-.82 2.296-.855.322-2.057.735-3.524 1.16 0 0-3.189.918-5.8 1.286-3.582.517-10.515-1.389-18.325-5.637 3.328 1.722 7.118 1.768 9.833 0 2.23-1.458 3.386-3.915 3.663-5.017.22-.85.139-1.596.139-1.596-.104-.896-.474-1.527-.624-1.779-1.514-2.491-5.742-3.708-5.742-3.708-1.398-.207-3.212-.379-5.361-.275-.289 0-.532 0-.716.011.127-.287.266-.563.404-.827l1.329-.035 3.767.459 14.2 1.757.081-.103.82-1.022c1.04.964 2.138 2.044 3.351 3.593l.243.23.22.218c.728.758 1.71 2.09 2.369 3.766l.335.597-.069.172c.393 1.332.566 2.847.231 4.454z" fill="#F87659"/><path d="M96.77 95.935c-.15.436-.901.608-2.681.666-1.086.034-2.634.023-4.541-.195 0 0-3.721.126-9.752.126-9.636 0-25.177-.322-40.88-1.986-11.138-2.021-16.246-4.615-18.452-6.177-1.179-.827-1.525-1.366-1.525-1.366-.497-.758-.786-1.435-.936-1.825-.3-.425-1.248-1.814-.763-2.974.439-1.022 1.779-1.343 2.542-1.504 9.128-1.952 15.864-1.068 18.002-.677.474.08.728.149.728.149 2.657.654 4.622 1.378 6.574 2.158l.936.367c7.707 3.1 7.568 4.569 14.073 7.061 2.08.459 8.319 1.768 13.01 1.998 1.017.046 1.86.046 2.75-.402 2.253-1.114 1.976-3.594 3.952-4.397 1.675-.677 3.57.413 3.894.597 1.93 1.114 1.444 2.48 3.397 4.236 1.04.93 3.085 2.262 5.592 2.491 1.548.138 3.062-.172 3.825.804.058.069.393.482.254.85z" fill="#FFD5A1"/><path d="M72.206 43.881c-.092.517-.196.93-.254 1.182-.532 2.273-1.745 4.167-2.842 7.405-1.132 3.341-1.502 5.075-1.606 6.177-2.773-3.318-5.789-8.14-6.228-13.846-.855-10.93 3.27-9.139 3.27-9.139s4.945 1.94 7.661 8.22z" fill="#F87659"/><path d="M96.77 95.935c-.15.436-.901.608-2.681.666-1.086.034-2.634.023-4.541-.195 0 0-3.721.126-9.752.126-2.045 0-4.344-.011-6.863-.058-9.359-.149-21.642-.62-34.016-1.94-11.139-2.021-16.246-4.615-18.453-6.177-1.178-.827-1.525-1.366-1.525-1.366-.497-.758-.786-1.435-.936-1.825 12.017 4.018 19.25 8.886 28.424 7.945 1.41-.149 2.507-.39 2.866-1.148 1.04-2.227-4.911-7.233-11.497-11.963.474.08.728.149.728.149 2.657.654 4.622 1.378 6.574 2.158l.936.367c7.707 3.1 7.568 4.569 14.073 7.061 2.08.459 8.319 1.768 13.01 1.998 1.017.046 1.86.046 2.75-.402 2.253-1.114 1.976-3.594 3.952-4.397 1.675-.677 3.57.413 3.894.597 1.93 1.114 1.444 2.48 3.397 4.236 1.04.93 3.085 2.262 5.592 2.491 1.548.138 3.062-.172 3.825.804.046.092.381.505.243.873z" fill="url(#c)"/><path d="M69.097 52.469l-.416 1.745c-4.899.207-8.828-.253-11.531-.712-4.021-.689-5.176-1.366-5.985-2.044-.682-.574-1.294-1.286-1.779-2.078-1.433-2.296-1.918-5.247-.809-7.336.116-.207 1.225-1.16 3.397-3.111.381-.333.682-.62.89-.804 2.242 1.366 3.536 2.836 4.287 3.903 1.687 2.377 1.259 3.49 3.212 5.683.971 1.091 2.034 1.894 2.842 2.422.532.344.947.574 1.178.689.358.184 1.444.746 2.946 1.194.716.23 1.329.356 1.768.448z" fill="#366B54"/><path d="M69.098 52.469s-.867 1.929-.416 1.745c.451-.172.809-.172 1.075-.712.266-.528-1.872 1.952.173 5.063 2.057 3.111 2.865 2.491 2.865 2.491s-2.773-3.111-2.23-4.535c.532-1.424.716-1.952.092-2.755-.624-.804-1.872-1.596 1.964.092 3.848 1.688 2.322-1.688 2.322-1.688s.624.62-.716.884c-1.34.264-1.698-.712-2.773-.884-1.075-.172-2.357.298-2.357.298z" fill="#132D22"/><path d="M81.553 85.12c-.924-1.401-2.299-3.18-4.229-4.971-.404-.379-2.207-2.032-5.026-3.731-4.24-2.549-8.55-3.846-11.531-4.535l-.705-.138c-.589-.103-1.259-.172-1.976-.195-1.537-.057-2.842.138-3.848.356l.843-1.757c.636-.092 1.537-.161 2.6 0 1.248.184 2.207.609 2.819.93l.069-.011c.612-.138 1.202-.23 1.756-.31 1.803-.241 3.282-.184 4.391-.08 1.514.149 2.819.471 3.778.597.786.103 1.34.069 1.606-.299.358-.505-.012-1.389-.37-2.032.3.23.763.609 1.329 1.091 1.883 1.584 4.044 3.421 5.939 6.108.543.769 1.306 1.94 2.045 3.502.266.677.578 1.665.67 2.893.081 1.056-.023 1.929-.162 2.583z" fill="#366B54"/><path d="M81.553 85.12c-.924-1.401-2.299-3.18-4.229-4.971-.404-.379-2.207-2.032-5.026-3.731 0 0-4.888-2.939-11.531-4.535-.508-.126-.89-.184-1.098-.218-1.491-.241-2.762-.207-3.64-.138l4.541-.459.474.034c3.42.322 4.645 1.688 6.528 1.573.728-.046 1.745-.322 2.935-1.401.786.103 1.34.069 1.606-.299.358-.505-.011-1.389-.37-2.032.3.23.763.609 1.329 1.091 1.883 1.584 4.044 3.421 5.939 6.108.543.769 1.306 1.94 2.045 3.502.266.677.578 1.665.67 2.893.069 1.056-.035 1.929-.173 2.583zM60.952 71.217s.312-.976-.532-.62c-.843.356-1.028.62-.532.838.497.218 1.167-.356-.404 1.114-1.56 1.469 3.755 5.373 2.322 7.681-.428.689-1.144 1.263-1.028 1.401.092.115.739-.253 1.167-.505.89-.528 1.34-.781 1.606-1.16.612-.85.693-2.135.15-2.951-.185-.276-.277-.413-.728-.643-1.56-.804-2.866-2.262-2.415-3.329.439-1.068.393-1.825.393-1.825zM60.697 71.504s-1.606-.494-2.322 1.469c-.716 1.952-3.536 1.424-4.471 1.24-.936-.172-2.635 1.022-2.635 1.022s-.092-.93 1.202-1.779c1.294-.838 2.993-.172 4.113-.838 1.121-.666 2.322-1.332 3.085-1.332.763-.011 1.028.218 1.028.218z" fill="#132D22"/><path d="M72.933 96.474c-9.359-.149-21.642-.62-34.016-1.94 2.865 0 5.292-.057 7.106-.138 6.782-.264 10.214-.413 12.178-1.527.867-.494 1.652-1.091 2.842-1.045 1.907.08 2.831 1.745 4.541 2.974 1.34.976 3.57 1.94 7.349 1.676z" fill="#F87659"/><path d="M69.098 52.469l-.416 1.745c-4.899.207-8.828-.253-11.531-.712-4.021-.689-5.176-1.366-5.985-2.044-.682-.574-1.294-1.286-1.779-2.078 2.114 1.24 3.986 1.63 5.13 1.768 1.618.195 3.05.402 4.021-.517 1.005-.941.913-2.491.867-2.962-.197-.436-.474-1.056-.843-1.802-1.363-2.767-2.369-4.753-4.321-6.429-.358-.31-.878-.712-1.571-1.137l.185-.172c.832.459 2.034 1.228 3.178 2.491 1.005 1.114 1.629 2.227 1.964 2.847 1.04 1.894 1.179 3.008 2.507 4.351.162.172.393.367.832.769 1.421 1.274 2.103 1.722 2.553 1.975l.508.276c.358.184 1.444.746 2.946 1.194.705.218 1.317.344 1.756.436z" fill="#132D22"/><path d="M82.859 63.261c-1.121 3.938-2.831 8.702-5.546 13.823-3.501 6.601-7.51 11.607-10.815 15.143-.624.758-1.525 1.848-2.681 3.111-.682.758-1.098 1.389-1.548 1.906-.347.39-.716.712-1.236.953-.809.367-1.514.436-2.01.471-3.651.241-6.886.184-8.423.172-3.282-.011-5.893.184-7.06-1.045-.093-.103-.289-.31-.335-.54v-.184c.116-.54 1.202-.735 3.154-1.068 1.005-.172 3.374-.563 3.952-.666 1.629-.161 3.79-.551 6.17-1.469 1.803-.689 3.282-1.516 4.425-2.262.428-.654 1.063-1.676 1.814-2.928 3.64-6.188 4.714-9.919 7.372-15.361 1.051-2.135 2.657-5.189 4.957-8.748-4.772-6.303-8.065-11.871-10.249-15.958-3.386-6.314-4.321-9.472-3.027-12.147.774-1.607 2.519-3.364 4.425-3.329 2.889.046 4.864 4.202 7.776 10.528 3.57 7.761 6.575 14.408 8.885 19.597z" fill="#FFD5A1"/><path d="M73.962 43.64c-2.912-6.314-4.888-10.47-7.776-10.528-1.375-.023-2.669.895-3.582 2.009.774-.643 1.687-1.091 2.634-1.079 2.889.034 4.853 4.248 7.742 10.654 3.559 7.876 6.54 14.626 8.839 19.873-1.132 4.007-2.877 8.852-5.616 14.052-1.132 2.147-2.311 4.133-3.501 5.947 1.56-2.227 3.131-4.719 4.61-7.508 2.715-5.12 4.437-9.885 5.546-13.823-2.311-5.166-5.315-11.814-8.897-19.598z" fill="#F87659"/><path d="M62.257 97.243c-.347.39-.716.712-1.236.953-.809.367-1.514.436-2.01.471-3.651.241-6.886.184-8.423.172-3.281-.012-5.893.184-7.06-1.045-.093-.103-.289-.31-.335-.54 1.028.367 3.709 1.148 7.776.941 5.292-.264 8.516-1.332 10.122-1.263.485.023.867.149 1.167.31z" fill="url(#d)"/><path d="M61.194 29.874c1.028-1.768 1.779-3.284 2.311-4.374.404-.838.67-1.401.982-2.216.924-2.388 1.121-4.041 1.213-4.466.647-2.905-1.236-3.456-1.675-8.507-.115-1.378-.023-1.963-.427-2.824-.647-1.378-2.068-2.629-3.686-2.801-.716-.08-1.005.115-2.138.356-1.063.23-2.634.459-4.656.344.659-1.355 1.456-2.032 2.022-2.399 2.53-1.619 5.997-.551 9.452-1.24.716-.138 1.178-.241 1.826-.459.924-.31 1.444-.62 2.195-.815 0 0 .612-.172 1.548-.184 1.641-.034 4.518 1.665 6.274 4.351 2.6 3.984 1.641 8.588 1.132 11.09-.335 1.665-.994 4.707-3.443 7.692-2.311 2.813-4.98 4.087-6.355 4.719-2.646 1.217-5.038 1.596-6.574 1.734zM63.263 4.239c.069.448.162 1.148.231 2.021.312 3.938-.485 4.753.127 6.762.682 2.227 1.999 2.342 1.837 3.777-.185 1.573-1.756 1.515-2.496 3.57-.647 1.802.289 2.652-.601 4.397-.231.459-.774 1.527-1.837 1.883-1.502.505-2.265-.987-4.136-1.01-2.311-.023-2.9 2.262-5.384 2.744-1.063.207-2.761.138-5.188-1.561 1.652 1.458 3.952 2.973 6.228 2.468 1.479-.333 1.606-1.217 3.097-1.47 2.993-.505 4.587 2.709 6.91 1.952 1.259-.413 1.93-1.734 2.288-2.445 1.063-2.113-.035-3.111.936-4.845.994-1.791 2.473-1.286 3.385-3.077.843-1.653.312-3.536.035-4.546-.451-1.642-1.225-2.663-1.802-3.502-1.052-1.538-2.415-3.846-3.628-7.118z" fill="#C42F48"/><path d="M73.811 1.758c.185-.057.578-.149.994.011.358.138.555.379.809.769.266.402.578.999.739 1.757.058.264.081.517.093.746-.139.413-.358.918-.705 1.447-.173.264-.347.482-.508.677-.115-.011-.531-.057-.693-.356-.116-.207-.058-.448 0-.654.115-.402.3-.976.612-1.688l-.462-1.814-.878-.896z" fill="url(#e)"/><path d="M72.483.978l.543.333c-.023.85 0 1.561.035 2.112.035.7.081 1.217.416 1.366.104.046.208.046.324.023.404-.08.231-.815.462-1.401.231-.574-.139-2.078-.139-2.078-.011-.103-.069-.402-.312-.586-.347-.241-.913-.172-1.329.23z" fill="url(#f)"/><path d="M70.68.128c-.647.459-1.075.907-1.363 1.217-.243.276-.427.517-.347.712.046.138.208.241.381.253.451.046.636-.597 1.479-1.045.185-.103.335-.161.428-.195l.728-.321.231.08c.023-.069.035-.195-.012-.333-.069-.207-.243-.31-.335-.367-.474-.264-1.098-.046-1.19 0z" fill="url(#g)"/><path d="M68.6 14.697l-.012-.035.012.035zM68.623 14.755l-.023-.058.023.058zM69.028 18.394c-.612.631-.74 1.148-.751 1.504l.069.781c-.011 1.091-1.317 1.481-2.103 2.882-.196.356-.439.907-.532 1.688.127-.344.37-.884.82-1.412.936-1.114 1.849-1.091 2.842-2.009.289-.264 1.259-1.217 1.467-2.595.104-.654-.046-.907-.046-2.078 0-.93.092-1.676.173-2.17-.659 1.137-1.306 2.273-1.941 3.41z" fill="#870036"/><path d="M68.45 14.904c.196.287.474.758.601 1.389.208.987-.035 1.803-.162 2.147.185-.012.497-.057.809-.264l.196-.161c.428-.425.254-.93.474-1.642.139-.459.612-.907.589-1.401-.011-.218-.081-.39-.196-.505-.231-.241-.589-.218-.971-.207-.289.011-.659.034-1.005.287-.162.126-.266.264-.335.356z" fill="#FFD5A1"/></g><defs><linearGradient id="b" x1="35.077" y1="20.619" x2="63.641" y2="20.619" gradientUnits="userSpaceOnUse"><stop stop-color="#FFD5A1"/><stop offset="1" stop-color="#FF8873"/></linearGradient><linearGradient id="c" x1="31.714" y1="86.271" x2="81.442" y2="93.825" gradientUnits="userSpaceOnUse"><stop stop-color="#FFD5A1"/><stop offset="1" stop-color="#FF8873"/></linearGradient><linearGradient id="d" x1="43.189" y1="97.89" x2="62.26" y2="97.89" gradientUnits="userSpaceOnUse"><stop stop-color="#FFD5A1"/><stop offset="1" stop-color="#FF8873"/></linearGradient><linearGradient id="e" x1="73.678" y1="4.376" x2="76.482" y2="4.522" gradientUnits="userSpaceOnUse"><stop stop-color="#FFD5A1"/><stop offset="1" stop-color="#FF8873"/></linearGradient><linearGradient id="f" x1="72.391" y1="2.667" x2="74.339" y2="2.769" gradientUnits="userSpaceOnUse"><stop stop-color="#FFD5A1"/><stop offset="1" stop-color="#FF8873"/></linearGradient><linearGradient id="g" x1="68.995" y1="1.091" x2="72.206" y2="1.258" gradientUnits="userSpaceOnUse"><stop stop-color="#FFD5A1"/><stop offset="1" stop-color="#FF8873"/></linearGradient><clipPath id="a"><path fill="#fff" d="M0 0h110v103h-110z"/></clipPath></defs></svg>